<svg width="36" height="36" viewBox="0 0 36 36" fill="none" xmlns="http://www.w3.org/2000/svg">
<path d="M32 2C31.4696 2 30.9609 2.21071 30.5858 2.58579C30.2107 2.96086 30 3.46957 30 4V6H19.3333V5.33333C19.3333 5.15652 19.2631 4.98695 19.1381 4.86193C19.013 4.7369 18.8435 4.66667 18.6667 4.66667H6V4C6 3.46957 5.78929 2.96086 5.41421 2.58579C5.03914 2.21071 4.53043 2 4 2C3.46957 2 2.96086 2.21071 2.58579 2.58579C2.21071 2.96086 2 3.46957 2 4L2 33.3333C2 33.5101 2.07024 33.6797 2.19526 33.8047C2.32029 33.9298 2.48986 34 2.66667 34H5.33333C5.51014 34 5.67971 33.9298 5.80474 33.8047C5.92976 33.6797 6 33.5101 6 33.3333V32H30V33.3333C30 33.5101 30.0702 33.6797 30.1953 33.8047C30.3203 33.9298 30.4899 34 30.6667 34H33.3333C33.5101 34 33.6797 33.9298 33.8047 33.8047C33.9298 33.6797 34 33.5101 34 33.3333V4C34 3.46957 33.7893 2.96086 33.4142 2.58579C33.0391 2.21071 32.5304 2 32 2ZM15.3333 28V22.6667H16.6667V24.6667C16.6667 24.8435 16.7369 25.013 16.8619 25.1381C16.987 25.2631 17.1565 25.3333 17.3333 25.3333H20C20.1768 25.3333 20.3464 25.2631 20.4714 25.1381C20.5964 25.013 20.6667 24.8435 20.6667 24.6667V22.6667H22V28H15.3333ZM6 28V20H8V22C8 22.1768 8.07024 22.3464 8.19526 22.4714C8.32029 22.5964 8.48986 22.6667 8.66667 22.6667H11.3333C11.5101 22.6667 11.6797 22.5964 11.8047 22.4714C11.9298 22.3464 12 22.1768 12 22V20H14V28H6ZM30 14V15.3333H6V14H30ZM26 21.3333H27.3333V22.6667H26V21.3333ZM22.6667 20C22.4899 20 22.3203 20.0702 22.1953 20.1953C22.0702 20.3203 22 20.4899 22 20.6667V21.3333H15.3333V19.3333C15.3333 19.1565 15.2631 18.987 15.1381 18.8619C15.013 18.7369 14.8435 18.6667 14.6667 18.6667H6V16.6667H30V20H22.6667ZM18 22.6667H19.3333V24H18V22.6667ZM9.33333 20H10.6667V21.3333H9.33333V20ZM23.3333 21.3333H24.6667V23.3333C24.6667 23.5101 24.7369 23.6797 24.8619 23.8047C24.987 23.9298 25.1565 24 25.3333 24H28C28.1768 24 28.3464 23.9298 28.4714 23.8047C28.5964 23.6797 28.6667 23.5101 28.6667 23.3333V21.3333H30V28H23.3333V21.3333ZM25.3333 7.33333V8.66667H24V7.33333H25.3333ZM22.6667 7.33333V9.33333C22.6667 9.51014 22.7369 9.67971 22.8619 9.80474C22.987 9.92976 23.1565 10 23.3333 10H26C26.1768 10 26.3464 9.92976 26.4714 9.80474C26.5964 9.67971 26.6667 9.51014 26.6667 9.33333V7.33333H30V12.6667H19.3333V7.33333H22.6667ZM12.6667 6V7.33333H11.3333V6H12.6667ZM10 6V8C10 8.17681 10.0702 8.34638 10.1953 8.4714C10.3203 8.59643 10.4899 8.66667 10.6667 8.66667H13.3333C13.5101 8.66667 13.6797 8.59643 13.8047 8.4714C13.9298 8.34638 14 8.17681 14 8V6H18V12.6667H6V6H10ZM4.66667 32.6667H3.33333V4C3.33333 3.82319 3.40357 3.65362 3.5286 3.5286C3.65362 3.40357 3.82319 3.33333 4 3.33333C4.17681 3.33333 4.34638 3.40357 4.4714 3.5286C4.59643 3.65362 4.66667 3.82319 4.66667 4V32.6667ZM6 30.6667V29.3333H30V30.6667H6ZM32.6667 32.6667H31.3333V4C31.3333 3.82319 31.4036 3.65362 31.5286 3.5286C31.6536 3.40357 31.8232 3.33333 32 3.33333C32.1768 3.33333 32.3464 3.40357 32.4714 3.5286C32.5964 3.65362 32.6667 3.82319 32.6667 4V32.6667Z" fill="#F23F34"/>
</svg>
