<svg width="42" height="42" viewBox="0 0 42 42" fill="none" xmlns="http://www.w3.org/2000/svg">
<g clip-path="url(#clip0_544_805)">
<path d="M25.1685 0L0 25.1684L16.8316 42L42 16.8316V0H25.1685ZM39.5377 15.8116L16.8316 38.5175L3.48239 25.1684L26.1884 2.46241H39.5377V15.8116Z" fill="#AB3541"/>
<path d="M25.6785 6.45483L6.96484 25.1684L16.8316 35.0353L35.5452 16.3216L25.6785 6.45483ZM16.8315 31.5528L10.4472 25.1684L25.6783 9.93722L32.0627 16.3216L16.8315 31.5528Z" fill="#AB3541"/>
<path d="M26.2566 14L14.5078 25.7488L16.249 27.49L27.9978 15.7411L26.2566 14Z" fill="#AB3541"/>
<path d="M35.4346 8.20802C36.3412 8.20802 37.0762 7.47305 37.0762 6.56641C37.0762 5.65978 36.3412 4.9248 35.4346 4.9248C34.5279 4.9248 33.793 5.65978 33.793 6.56641C33.793 7.47305 34.5279 8.20802 35.4346 8.20802Z" fill="#AB3541"/>
</g>
<defs>
<clipPath id="clip0_544_805">
<rect width="42" height="42" fill="white"/>
</clipPath>
</defs>
</svg>
