<svg width="43" height="42" viewBox="0 0 43 42" fill="none" xmlns="http://www.w3.org/2000/svg">
<path d="M23.6211 0V2.46126C32.4423 2.46126 39.6188 9.63771 39.6188 18.459H42.0801C42.0801 8.28067 33.7994 0 23.6211 0Z" fill="#AB3541"/>
<path d="M34.6966 18.459H37.1575C37.1575 10.9952 31.085 4.92261 23.6211 4.92261V7.38355C29.7283 7.38355 34.6966 12.3522 34.6966 18.459Z" fill="#AB3541"/>
<path d="M29.7741 18.459H32.2353C32.2353 13.7092 28.3709 9.84473 23.6211 9.84473V12.306C27.0139 12.306 29.7741 15.0662 29.7741 18.459Z" fill="#AB3541"/>
<path d="M24.8516 18.4591H27.3128C27.3128 16.4233 25.6568 14.7673 23.6211 14.7673V17.2286C24.2998 17.2286 24.8516 17.7807 24.8516 18.4591Z" fill="#AB3541"/>
<path d="M22.4508 30.0139C18.1547 27.4523 14.5707 23.8683 12.0088 19.5719L17.4331 14.1476L6.99144 3.70557L2.61558 8.0811C0.0722913 10.6244 -0.635549 14.4972 0.854152 17.7182C2.84726 22.0274 5.41906 25.9931 8.49876 29.5047C12.9153 34.541 18.2723 38.5038 24.4212 41.2826C27.572 42.7063 31.3807 41.968 33.8983 39.4504L38.3171 35.0316L27.8754 24.5896L22.4508 30.0139ZM32.1581 37.7101C30.3585 39.5097 27.6566 40.0438 25.4347 39.0396C12.8881 33.3695 6.3573 23.7536 3.0879 16.6851C2.02951 14.3965 2.539 11.6382 4.35586 9.82138L6.99144 7.18613L13.9526 14.1476L8.94545 19.155L9.3963 19.9663C12.3542 25.2907 16.7323 29.6688 22.0567 32.6267L22.868 33.0776L27.8754 28.0705L34.8366 35.0319L32.1581 37.7101Z" fill="#AB3541"/>
</svg>
