<svg width="36" height="26" viewBox="0 0 36 26" fill="none" xmlns="http://www.w3.org/2000/svg">
<path d="M7.20042 0.0800781C6.80386 0.0800781 6.48042 0.403516 6.48042 0.800078V3.68008H3.60042C3.20386 3.68008 2.88042 4.00352 2.88042 4.40008V10.8801H10.0804V7.57258L11.3179 6.35758C11.4529 6.22258 11.5204 6.03133 11.5204 5.84008V4.40008C11.5204 4.00352 11.197 3.68008 10.8004 3.68008H7.92042V0.800078C7.92042 0.403516 7.59698 0.0800781 7.20042 0.0800781ZM27.3604 7.28008C26.4098 7.28008 25.7039 7.47977 25.1554 7.93258C24.8629 8.17727 24.6379 8.60758 24.3229 9.19258C23.6114 10.5116 22.6382 12.3201 20.8804 12.3201H2.16042C1.04948 12.3201 0.000420872 13.3523 0.000420872 14.4351V16.5501C0.000420872 17.5204 0.697921 18.9463 1.84542 20.1951C1.91011 20.1979 1.98323 20.1951 2.04792 20.1951C2.85511 20.1951 4.03636 19.9532 4.70292 19.4301C5.08261 19.1291 5.54667 18.9576 6.03042 18.9576C6.51136 18.9576 7.00073 19.132 7.38042 19.4301C8.0498 19.956 9.22823 20.1951 10.0354 20.1951C10.8426 20.1951 12.0014 19.9532 12.6679 19.4301C13.0476 19.1291 13.5314 18.9576 14.0179 18.9576C14.5017 18.9576 14.9685 19.132 15.3454 19.4301C16.0176 19.956 17.1932 20.1951 18.0004 20.1951C18.8076 20.1951 19.986 19.956 20.6554 19.4301C21.0351 19.132 21.4992 18.9576 21.9829 18.9576C22.4667 18.9576 22.956 19.132 23.3329 19.4301C24.0051 19.956 25.1582 20.1951 25.9654 20.1951C26.7726 20.1951 27.9539 19.956 28.6204 19.4301C29.0001 19.1291 29.4867 18.9576 29.9704 18.9576C30.4542 18.9576 30.921 19.132 31.2979 19.4301C31.3626 19.4807 31.4273 19.5201 31.5004 19.5651C34.026 16.5501 36.0004 12.2329 36.0004 9.08008C36.0004 7.51352 34.9401 7.28008 34.3129 7.28008H27.3604ZM28.5529 11.1276C29.0001 11.1276 29.0479 11.3976 29.0479 11.3976V11.9826C29.0479 11.9826 29.0957 12.2526 29.5204 12.2526C29.9451 12.2526 29.9929 11.9826 29.9929 11.9826V11.3976C29.9929 11.3976 30.0407 11.1276 30.4879 11.1276C30.9351 11.1276 30.9604 11.3976 30.9604 11.3976V12.3651C30.9604 13.026 30.3079 13.0401 30.3079 13.0401H28.8454C28.8454 13.0401 28.0804 13.0035 28.0804 12.3426V11.3976C28.0804 11.3976 28.1085 11.1276 28.5529 11.1276ZM6.03042 20.3976C5.87292 20.3976 5.7323 20.451 5.60292 20.5551C4.59323 21.3482 3.05198 21.6351 2.04792 21.6351C1.64855 21.6351 1.26605 21.6126 0.832921 21.5451C0.444796 21.486 0.0622959 21.7588 0.000420872 22.1526C-0.0614541 22.5463 0.214171 22.9035 0.607921 22.9626C1.11417 23.0413 1.57542 23.0751 2.04792 23.0751C3.19823 23.0751 4.78167 22.7798 6.03042 21.9951C7.27917 22.7798 8.88511 23.0751 10.0354 23.0751C11.1857 23.0751 12.7692 22.7798 14.0179 21.9951C15.2667 22.7798 16.8501 23.0751 18.0004 23.0751C19.1507 23.0751 20.7342 22.7798 21.9829 21.9951C23.2317 22.7798 24.8151 23.0751 25.9654 23.0751C27.1157 23.0751 28.7217 22.7798 29.9704 21.9951C31.2192 22.7798 32.8026 23.0751 33.9529 23.0751C34.5239 23.0751 35.0442 22.9991 35.5279 22.8276C35.902 22.6954 36.0876 22.2791 35.9554 21.9051C35.8232 21.531 35.407 21.3229 35.0329 21.4551C34.7067 21.5704 34.3579 21.6351 33.9529 21.6351C32.9489 21.6351 31.4048 21.3482 30.3979 20.5551C30.1364 20.3498 29.782 20.3498 29.5204 20.5551C28.5135 21.3482 26.9695 21.6351 25.9654 21.6351C24.9614 21.6351 23.4426 21.351 22.4329 20.5551C22.1742 20.3498 21.7917 20.3498 21.5329 20.5551C20.5232 21.3482 19.0045 21.6351 18.0004 21.6351C16.9964 21.6351 15.4551 21.351 14.4454 20.5551C14.1839 20.3498 13.8295 20.3498 13.5679 20.5551C12.561 21.3482 11.0395 21.6351 10.0354 21.6351C9.03136 21.6351 7.49011 21.351 6.48042 20.5551C6.35105 20.4538 6.18792 20.3976 6.03042 20.3976ZM5.94042 23.2776C5.81667 23.3001 5.69855 23.3535 5.60292 23.4351C4.6298 24.2029 3.02386 24.5151 2.04792 24.5151C1.59511 24.5151 1.20698 24.4813 0.832921 24.4251C0.568546 24.3604 0.292921 24.4504 0.115733 24.6557C-0.0614541 24.861 -0.106454 25.1507 -0.00239163 25.401C0.101671 25.6513 0.337921 25.8229 0.607921 25.8426C1.03261 25.9073 1.50792 25.9551 2.04792 25.9551C3.16448 25.9551 4.71417 25.6316 6.03042 24.7851C7.34667 25.6401 8.91323 25.9551 10.0354 25.9551C11.1492 25.9551 12.7045 25.6485 14.0179 24.8076C15.3314 25.6485 16.8867 25.9551 18.0004 25.9551C19.1142 25.9551 20.6695 25.6485 21.9829 24.8076C23.2964 25.6485 24.8517 25.9551 25.9654 25.9551C27.0876 25.9551 28.6542 25.6401 29.9704 24.7851C31.2867 25.6316 32.8364 25.9551 33.9529 25.9551C34.5745 25.9551 35.1004 25.8595 35.5279 25.7076C35.9076 25.5698 36.1045 25.1535 35.9667 24.7738C35.8289 24.3941 35.4126 24.1973 35.0329 24.3351C34.7489 24.4335 34.4198 24.5151 33.9529 24.5151C32.977 24.5151 31.371 24.2029 30.3979 23.4351C30.1392 23.2354 29.7792 23.2354 29.5204 23.4351C28.5473 24.2029 26.9414 24.5151 25.9654 24.5151C24.9895 24.5151 23.4089 24.2029 22.4329 23.4351C22.1685 23.2241 21.7973 23.2241 21.5329 23.4351C20.557 24.2029 18.9764 24.5151 18.0004 24.5151C17.0245 24.5151 15.4439 24.2029 14.4679 23.4351C14.2035 23.2241 13.8323 23.2241 13.5679 23.4351C12.5948 24.2029 11.0114 24.5151 10.0354 24.5151C9.05948 24.5151 7.45355 24.2029 6.48042 23.4351C6.34542 23.3282 6.17948 23.272 6.00792 23.2776C5.98542 23.2776 5.96292 23.2776 5.94042 23.2776Z" fill="#000"/>
</svg>
