<svg width="194" height="218" viewBox="0 0 194 218" fill="none" xmlns="http://www.w3.org/2000/svg">
<path d="M3 215V199.169C3 195.935 5.62471 193.31 8.85909 193.31H185.448C188.683 193.31 191.307 195.935 191.307 199.169V215H3Z" stroke="#4664FF" stroke-width="4.5" stroke-miterlimit="10" stroke-linecap="round" stroke-linejoin="round"/>
<path d="M54.2637 90.9559H33.4004V181.26H54.2637V90.9559Z" fill="#4664FF" stroke="#4664FF" stroke-width="4.5" stroke-miterlimit="10" stroke-linecap="round" stroke-linejoin="round"/>
<path d="M107.585 90.9559H86.7217V181.26H107.585V90.9559Z" fill="#4664FF" stroke="#4664FF" stroke-width="4.5" stroke-miterlimit="10" stroke-linecap="round" stroke-linejoin="round"/>
<path d="M161.557 90.9559H140.693V181.26H161.557V90.9559Z" fill="#4664FF" stroke="#4664FF" stroke-width="4.5" stroke-miterlimit="10" stroke-linecap="round" stroke-linejoin="round"/>
<path d="M3 78.9073V69.3385C3 66.4865 4.41569 63.8204 6.78206 62.2291L92.3538 4.46477C95.2575 2.51174 99.0499 2.51174 101.954 4.46477L187.525 62.2291C189.892 63.8204 191.307 66.4865 191.307 69.3385V78.9073H3Z" stroke="#4664FF" stroke-width="4.5" stroke-miterlimit="10" stroke-linecap="round" stroke-linejoin="round"/>
<path d="M97.147 66.5796C105.268 66.5796 111.852 59.9961 111.852 51.875C111.852 43.7539 105.268 37.1704 97.147 37.1704C89.0258 37.1704 82.4424 43.7539 82.4424 51.875C82.4424 59.9961 89.0258 66.5796 97.147 66.5796Z" fill="#FF0028" stroke="#FF0028" stroke-width="4.5" stroke-miterlimit="10"/>
</svg>
