<svg width="98" height="128" viewBox="0 0 98 128" fill="none" xmlns="http://www.w3.org/2000/svg">
<path d="M71.3856 56.496H45.7733C43.9914 56.496 42.5454 55.05 42.5454 53.2681V38.626H74.6134V53.2681C74.6134 55.05 73.1674 56.496 71.3856 56.496Z" fill="#4664FF"/>
<path d="M82.1149 39.8041H34.0327V36.8779C34.0327 36.3257 34.4824 35.876 35.0346 35.876H82.1149C82.6671 35.876 83.1168 36.3257 83.1168 36.8779V38.8021C83.1168 39.36 82.6728 39.8041 82.1149 39.8041Z" fill="#4664FF"/>
<path d="M35.6163 35.8809C34.7453 35.8809 34.0337 36.5868 34.0337 37.4635V39.809L34.0621 45.6328C34.0621 46.1622 33.9312 46.6917 33.6807 47.1585L31.5402 51.1264C30.9652 52.191 31.7394 53.4833 32.9463 53.4833H36.715C37.9219 53.4833 38.6904 52.1967 38.1212 51.1321L35.992 47.1528C35.7415 46.6917 35.6163 46.1736 35.6163 45.6442V35.8809Z" fill="#4664FF"/>
<path d="M29.0111 112.81H43.1693V124.321C43.1693 125.96 41.8657 127.287 40.2489 127.304L32.1251 127.372C30.5026 127.383 29.1762 126.068 29.1591 124.429L29.0111 112.81Z" fill="#FF0028"/>
<path d="M20.5277 112.81C17.0379 112.81 14.2029 109.98 14.2029 106.485V20.858C14.2029 17.3683 17.0322 14.5332 20.5277 14.5332H90.6755C94.1652 14.5332 97.0003 17.3626 97.0003 20.858V106.485C97.0003 109.974 94.1709 112.81 90.6755 112.81H20.5277Z" stroke="#4664FF" stroke-width="1.95434" stroke-miterlimit="10" stroke-linecap="round" stroke-linejoin="round"/>
<path d="M21.3593 14.5381V112.809" stroke="#4664FF" stroke-width="1.95434" stroke-miterlimit="10" stroke-linecap="round" stroke-linejoin="round"/>
<path d="M10.6912 99.0563V18.2799C10.6912 14.0842 14.0899 10.6856 18.2856 10.6856H83.7367V5.06099C83.7367 2.26578 81.4709 0 78.6757 0H5.06098C2.26577 0 0 2.26578 0 5.06099V93.9896C0 96.7848 2.26577 99.0506 5.06098 99.0506H10.6912V99.0563Z" fill="#4664FF"/>
<path d="M39.5078 71.2969H77.6388" stroke="#4664FF" stroke-width="1.95434" stroke-miterlimit="10" stroke-linecap="round" stroke-linejoin="round"/>
<path d="M39.5078 83.4678H77.6388" stroke="#4664FF" stroke-width="1.95434" stroke-miterlimit="10" stroke-linecap="round" stroke-linejoin="round"/>
</svg>
