<svg width="170" height="170" viewBox="0 0 170 170" fill="none" xmlns="http://www.w3.org/2000/svg">
<path d="M71.055 34.1338L47.68 29.2197C46.3519 28.9541 44.8909 29.2197 43.6956 30.0166C42.5003 30.8135 41.7033 32.0088 41.4377 33.3369L21.1175 129.493C20.4534 132.415 22.3128 135.204 25.2347 135.735L48.6096 140.649C49.0081 140.782 49.4066 140.782 49.6722 140.782C50.7347 140.782 51.6643 140.517 52.594 139.853C53.7893 139.056 54.5863 137.86 54.8519 136.532L75.1721 40.376C75.7034 37.5869 73.844 34.7979 71.055 34.1338ZM51.1331 137.728C50.6019 138.126 49.805 138.259 49.1409 138.126L25.7659 133.212C24.305 132.946 23.3753 131.485 23.6409 130.024L43.9612 33.8682C44.094 33.2041 44.4925 32.54 45.1565 32.1416C45.555 31.876 46.0862 31.7432 46.6174 31.7432C46.7503 31.7432 47.0159 31.7432 47.1487 31.7432L70.5237 36.6572C71.9846 36.9229 72.9143 38.3838 72.6487 39.8447L52.3284 136.001C52.0628 136.798 51.6644 137.329 51.1331 137.728Z" fill="#4563FF"/>
<path d="M42.7659 110.368C39.9768 109.837 37.1877 110.368 34.7971 111.829C32.4065 113.423 30.8127 115.814 30.1487 118.603C28.9534 124.314 32.6722 130.024 38.3831 131.22C39.18 131.353 39.844 131.485 40.6409 131.485C45.555 131.485 49.9378 128.032 51.0003 123.118C51.5316 120.329 51.0004 117.54 49.5394 115.149C47.9457 112.626 45.5549 110.899 42.7659 110.368ZM48.3441 122.321C47.4144 126.571 43.1644 129.36 38.9144 128.431C34.6644 127.501 31.8752 123.251 32.8049 119.001C33.2034 116.876 34.5316 115.149 36.2582 113.954C37.5863 113.157 39.0471 112.626 40.6409 112.626C41.1721 112.626 41.7035 112.626 42.3675 112.759C44.4925 113.157 46.219 114.485 47.4143 116.212C48.2112 117.54 48.7424 119.001 48.7424 120.595C48.4768 121.259 48.4769 121.79 48.3441 122.321Z" fill="#4563FF"/>
<path d="M107.18 30.5469H83.2737C80.3518 30.5469 77.9612 32.9375 77.9612 35.8594V134.141C77.9612 137.063 80.3518 139.453 83.2737 139.453H107.18C110.102 139.453 112.492 137.063 112.492 134.141V35.8594C112.492 32.9375 110.102 30.5469 107.18 30.5469ZM95.2268 132.148C89.3831 132.148 84.6018 127.367 84.6018 121.523C84.6018 115.68 89.3831 110.898 95.2268 110.898C101.071 110.898 105.852 115.68 105.852 121.523C105.852 127.367 101.071 132.148 95.2268 132.148Z" fill="#4563FF"/>
<path d="M144.367 30.5469H120.461C117.539 30.5469 115.149 32.9375 115.149 35.8594V134.141C115.149 137.063 117.539 139.453 120.461 139.453H144.367C147.289 139.453 149.68 137.063 149.68 134.141V35.8594C149.68 32.9375 147.289 30.5469 144.367 30.5469ZM132.414 132.148C126.571 132.148 121.789 127.367 121.789 121.523C121.789 115.68 126.571 110.898 132.414 110.898C138.258 110.898 143.039 115.68 143.039 121.523C143.039 127.367 138.258 132.148 132.414 132.148Z" fill="#FF0029"/>
</svg>
