<svg width="75" height="98" viewBox="0 0 75 98" fill="none" xmlns="http://www.w3.org/2000/svg">
<path d="M54.4586 43.0994H34.9195C33.5601 43.0994 32.457 41.9963 32.457 40.6369V29.4668H56.921V40.6369C56.921 41.9963 55.8179 43.0994 54.4586 43.0994Z" fill="#4664FF"/>
<path d="M62.6437 30.3658H25.9629V28.1335C25.9629 27.7122 26.306 27.3691 26.7273 27.3691H62.6437C63.065 27.3691 63.408 27.7122 63.408 28.1335V29.6014C63.408 30.027 63.0693 30.3658 62.6437 30.3658Z" fill="#4664FF"/>
<path d="M27.171 27.3735C26.5065 27.3735 25.9636 27.9121 25.9636 28.5809V30.3702L25.9853 34.813C25.9853 35.2169 25.8855 35.6208 25.6944 35.977L24.0614 39.004C23.6228 39.8162 24.2134 40.802 25.1341 40.802H28.0092C28.9299 40.802 29.5162 39.8205 29.0819 39.0084L27.4576 35.9726C27.2665 35.6208 27.171 35.2256 27.171 34.8217V27.3735Z" fill="#4664FF"/>
<path d="M22.1318 86.0605H32.9328V94.842C32.9328 96.0928 31.9383 97.1047 30.7049 97.1178L24.5074 97.1699C23.2697 97.1786 22.2578 96.1753 22.2448 94.9246L22.1318 86.0605Z" fill="#FF0028"/>
<path d="M15.66 86.0602C12.9978 86.0602 10.835 83.9018 10.835 81.2352V15.9124C10.835 13.2502 12.9934 11.0874 15.66 11.0874H69.1742C71.8364 11.0874 73.9992 13.2459 73.9992 15.9124V81.2352C73.9992 83.8974 71.8408 86.0602 69.1742 86.0602H15.66Z" stroke="#4664FF" stroke-width="1.95434" stroke-miterlimit="10" stroke-linecap="round" stroke-linejoin="round"/>
<path d="M16.2942 11.0918V86.0603" stroke="#4664FF" stroke-width="1.95434" stroke-miterlimit="10" stroke-linecap="round" stroke-linejoin="round"/>
<path d="M8.15611 75.5678V13.9453C8.15611 10.7445 10.7489 8.15178 13.9496 8.15178H63.8809V3.86091C63.8809 1.72851 62.1524 0 60.02 0H3.86091C1.7285 0 0 1.72851 0 3.86091V71.7026C0 73.835 1.7285 75.5635 3.86091 75.5635H8.15611V75.5678Z" fill="#4664FF"/>
<path d="M30.1396 54.3916H59.2289" stroke="#4664FF" stroke-width="1.95434" stroke-miterlimit="10" stroke-linecap="round" stroke-linejoin="round"/>
<path d="M30.1396 63.6763H59.2289" stroke="#4664FF" stroke-width="1.95434" stroke-miterlimit="10" stroke-linecap="round" stroke-linejoin="round"/>
</svg>
