<svg width="129" height="128" viewBox="0 0 129 128" fill="none" xmlns="http://www.w3.org/2000/svg">
<path d="M13.6226 108.628C19.7654 108.628 24.7452 105.952 24.7452 102.652C24.7452 99.3519 19.7654 96.6765 13.6226 96.6765C7.47975 96.6765 2.5 99.3519 2.5 102.652C2.5 105.952 7.47975 108.628 13.6226 108.628Z" fill="#4664FF" stroke="#4664FF" stroke-width="2.14263" stroke-miterlimit="10" stroke-linecap="round" stroke-linejoin="round"/>
<path d="M24.7452 110.18C24.7452 113.479 19.7648 116.155 13.6226 116.155C7.48041 116.155 2.5 113.479 2.5 110.18" stroke="#4664FF" stroke-width="2.14263" stroke-miterlimit="10" stroke-linecap="round" stroke-linejoin="round"/>
<path d="M74.6348 56.3332C76.0727 55.9666 77.6821 55.7666 79.3771 55.7666C85.5193 55.7666 90.4997 58.4425 90.4997 61.7421C90.4997 65.0418 85.5193 67.7177 79.3771 67.7177C77.6725 67.7177 76.0584 67.513 74.6157 67.1416" fill="#4664FF"/>
<path d="M74.6348 56.3332C76.0727 55.9666 77.6821 55.7666 79.3771 55.7666C85.5193 55.7666 90.4997 58.4425 90.4997 61.7421C90.4997 65.0418 85.5193 67.7177 79.3771 67.7177C77.6725 67.7177 76.0584 67.513 74.6157 67.1416" stroke="#4664FF" stroke-width="2.14263" stroke-miterlimit="10" stroke-linecap="round" stroke-linejoin="round"/>
<path d="M90.4954 69.265C90.4954 72.5647 85.5149 75.2406 79.3727 75.2406C77.6681 75.2406 76.054 75.0358 74.6113 74.6644" stroke="#4664FF" stroke-width="2.14263" stroke-miterlimit="10" stroke-linecap="round" stroke-linejoin="round"/>
<path d="M90.4954 77.0831C90.4954 80.3828 85.5149 83.0587 79.3727 83.0587C77.6681 83.0587 76.054 82.8539 74.6113 82.4825" stroke="#4664FF" stroke-width="2.14263" stroke-miterlimit="10" stroke-linecap="round" stroke-linejoin="round"/>
<path d="M90.4956 84.9115C90.4956 88.2111 85.5152 90.887 79.373 90.887C77.3113 90.887 75.3782 90.5871 73.7212 90.0586" stroke="#4664FF" stroke-width="2.14263" stroke-miterlimit="10" stroke-linecap="round" stroke-linejoin="round"/>
<path d="M23.4355 73.8888V29.3412C23.4355 25.7226 26.3686 22.7848 29.992 22.7848C33.6106 22.7848 36.5484 25.7178 36.5484 29.3412V57.0716" stroke="#4664FF" stroke-width="2.14263" stroke-miterlimit="10" stroke-linecap="round"/>
<path d="M49.9954 56.2525V18.7232C49.9954 15.0236 47.0052 12.0144 43.3009 12.0001C39.5727 11.981 36.5444 14.9998 36.5444 18.7232V52.8957" stroke="#4664FF" stroke-width="2.14263" stroke-miterlimit="10" stroke-linecap="round"/>
<path d="M62.9405 56.2525V29.7649C62.9405 26.1891 60.0408 23.2942 56.4697 23.2942C52.8939 23.2942 49.999 26.1939 49.999 29.7649V30.0173" stroke="#4664FF" stroke-width="2.14263" stroke-miterlimit="10" stroke-linecap="round"/>
<path d="M23.4359 54.1382V52.4146C23.4359 49.0911 20.7505 46.3866 17.4271 46.3628C14.0703 46.339 11.3325 49.0578 11.3325 52.4146V81.2734C11.3325 96.505 23.6788 108.851 38.9105 108.851H49.1332C63.2031 108.851 74.6114 97.443 74.6114 83.3731V36.6877C74.6114 33.4642 71.9974 30.8502 68.7739 30.8502C65.5505 30.8502 62.9365 33.4642 62.9365 36.6877V37.24" stroke="#4664FF" stroke-width="2.14263" stroke-miterlimit="10" stroke-linecap="round"/>
<path d="M36.5488 72.2511L54.7373 90.4396" stroke="#FF0028" stroke-width="4.28525" stroke-miterlimit="10" stroke-linecap="round"/>
<path d="M54.7373 72.2511L36.5488 90.4396" stroke="#FF0028" stroke-width="4.28525" stroke-miterlimit="10" stroke-linecap="round"/>
</svg>
