<svg width="128" height="128" viewBox="0 0 128 128" fill="none" xmlns="http://www.w3.org/2000/svg">
<path d="M105.578 27.0696H102.604H16.2898C13.8376 27.0696 11.863 29.054 11.863 31.4963V33.0425H96.6853C100.221 33.0425 103.087 35.9083 103.087 39.4438V85.7598C103.087 85.9026 103.077 86.0404 103.067 86.1832H105.583C108.026 86.1832 110 84.1988 110 81.7565V31.4963C109.995 29.054 108.021 27.0696 105.578 27.0696Z" fill="#4664FF"/>
<path d="M58.5532 84.9919C62.6869 84.9919 66.0378 81.6409 66.0378 77.5073C66.0378 73.3737 62.6869 70.0227 58.5532 70.0227C54.4196 70.0227 51.0686 73.3737 51.0686 77.5073C51.0686 81.6409 54.4196 84.9919 58.5532 84.9919Z" stroke="#4664FF" stroke-width="2.21584" stroke-miterlimit="10"/>
<path d="M81.3515 84.9919C85.4852 84.9919 88.8362 81.6409 88.8362 77.5073C88.8362 73.3737 85.4852 70.0227 81.3515 70.0227C77.2179 70.0227 73.8669 73.3737 73.8669 77.5073C73.8669 81.6409 77.2179 84.9919 81.3515 84.9919Z" fill="#FF0028" stroke="#FF0028" stroke-width="2.21584" stroke-miterlimit="10"/>
<path d="M95.7202 36.0022H92.746H6.42675C3.97455 36.0022 2 37.9866 2 40.4289V86.4839V90.6842C2 93.1265 3.97455 95.1109 6.42675 95.1109H95.7202C98.1625 95.1109 100.137 93.1265 100.137 90.6842V40.4289C100.137 37.9817 98.1625 36.0022 95.7202 36.0022Z" stroke="#4664FF" stroke-width="2.21584" stroke-miterlimit="10" stroke-linecap="round" stroke-linejoin="round"/>
<path d="M100.137 48.8442H2V59.6871H100.137V48.8442Z" fill="#4664FF" stroke="#4664FF" stroke-width="0.984817" stroke-miterlimit="10" stroke-linecap="round" stroke-linejoin="round"/>
</svg>
