<svg width="128" height="128" viewBox="0 0 128 128" fill="none" xmlns="http://www.w3.org/2000/svg">
<g clip-path="url(#clip0_14325_158545)">
<path d="M100.771 23H97.9452H13.8713C11.543 23 9.65137 24.887 9.65137 27.2199V31.5524H87.7969C91.1672 31.5524 93.8991 34.2843 93.8991 37.6546C93.8991 37.6546 93.8897 81.2195 93.885 96.7378C93.885 99.8077 96.3727 102.291 99.4426 102.291C102.512 102.291 105 99.803 105 96.7331V27.2152C104.991 24.8917 103.099 23 100.771 23Z" fill="#4664FF"/>
<path d="M6.21507 105.638H98.2594L95.213 104.042C92.6125 102.68 90.979 99.986 90.979 97.0476V38.7952C90.979 36.467 89.092 34.5753 86.7591 34.5753H83.9334H5.21995C2.89173 34.5753 1 36.4623 1 38.7952V100.423C1.00469 103.3 3.33766 105.638 6.21507 105.638Z" stroke="#4664FF" stroke-width="2.11229" stroke-miterlimit="10" stroke-linecap="round" stroke-linejoin="round"/>
<path d="M36.3784 63.5424L57.2385 76.2349" stroke="#4664FF" stroke-width="2.11229" stroke-miterlimit="10" stroke-linecap="round" stroke-linejoin="round"/>
<path d="M31.5813 65.9594C34.8893 65.9594 37.5709 63.2778 37.5709 59.9699C37.5709 56.662 34.8893 53.9803 31.5813 53.9803C28.2734 53.9803 25.5918 56.662 25.5918 59.9699C25.5918 63.2778 28.2734 65.9594 31.5813 65.9594Z" stroke="#4664FF" stroke-width="2.11229" stroke-miterlimit="10"/>
<path d="M28.9767 65.3586L19.4995 83.8764" stroke="#4664FF" stroke-width="2.11229" stroke-miterlimit="10" stroke-linecap="round" stroke-linejoin="round"/>
<path d="M58.9473 72.874L71.9449 53.2578" stroke="#4664FF" stroke-width="2.11229" stroke-miterlimit="10" stroke-linecap="round" stroke-linejoin="round"/>
<path d="M57.4925 81.8071C60.8004 81.8071 63.482 79.1255 63.482 75.8175C63.482 72.5096 60.8004 69.828 57.4925 69.828C54.1845 69.828 51.5029 72.5096 51.5029 75.8175C51.5029 79.1255 54.1845 81.8071 57.4925 81.8071Z" fill="#FF0028" stroke="#FF0028" stroke-width="2.11229" stroke-miterlimit="10"/>
<path d="M19.2645 87.8806C20.7551 87.8806 21.9635 86.6722 21.9635 85.1816C21.9635 83.6909 20.7551 82.4825 19.2645 82.4825C17.7738 82.4825 16.5654 83.6909 16.5654 85.1816C16.5654 86.6722 17.7738 87.8806 19.2645 87.8806Z" fill="#4664FF" stroke="#4664FF" stroke-width="2.11229" stroke-miterlimit="10"/>
<path d="M71.9446 55.9569C73.4353 55.9569 74.6437 54.7485 74.6437 53.2579C74.6437 51.7672 73.4353 50.5588 71.9446 50.5588C70.454 50.5588 69.2456 51.7672 69.2456 53.2579C69.2456 54.7485 70.454 55.9569 71.9446 55.9569Z" fill="#4664FF" stroke="#4664FF" stroke-width="2.11229" stroke-miterlimit="10"/>
</g>
<defs>
<clipPath id="clip0_14325_158545">
<rect width="128" height="128" fill="white"/>
</clipPath>
</defs>
</svg>
