<svg width="129" height="128" viewBox="0 0 129 128" fill="none" xmlns="http://www.w3.org/2000/svg">
<path d="M26.4004 62.4004C22.0004 62.4004 18.4004 58.8004 18.4004 54.4004C18.4004 50.0004 22.0004 46.4004 26.4004 46.4004C30.8004 46.4004 34.4004 50.0004 34.4004 54.4004C34.4004 58.8004 30.8004 62.4004 26.4004 62.4004ZM26.4004 48.4004C23.1004 48.4004 20.4004 51.1004 20.4004 54.4004C20.4004 57.7004 23.1004 60.4004 26.4004 60.4004C29.7004 60.4004 32.4004 57.7004 32.4004 54.4004C32.4004 51.1004 29.7004 48.4004 26.4004 48.4004Z" fill="#4563FF"/>
<path d="M49.6992 62.9004C54.3936 62.9004 58.1992 59.0948 58.1992 54.4004C58.1992 49.706 54.3936 45.9004 49.6992 45.9004C45.0048 45.9004 41.1992 49.706 41.1992 54.4004C41.1992 59.0948 45.0048 62.9004 49.6992 62.9004Z" fill="#4563FF"/>
<path d="M73 62.9004C77.6944 62.9004 81.5 59.0948 81.5 54.4004C81.5 49.706 77.6944 45.9004 73 45.9004C68.3056 45.9004 64.5 49.706 64.5 54.4004C64.5 59.0948 68.3056 62.9004 73 62.9004Z" fill="#FF0029"/>
<path d="M93 27.8008H7C3.7 27.8008 1 30.5008 1 33.8008V75.0008C1 78.3008 3.7 81.0008 7 81.0008H18.3C15.9 83.0008 13.6001 85.3008 11.6001 87.8008C9.8001 90.1008 9.8001 93.4008 11.6001 95.7008C21.0001 107.401 35 114.001 49.9 114.001C64.8 114.001 78.8001 107.301 88.2001 95.7008C90.0001 93.4008 90.0001 90.1008 88.2001 87.8008C86.2001 85.3008 83.9 83.0008 81.5 81.0008H92.8C96.1001 81.0008 98.8 78.3008 98.8 75.0008V33.8008C99 30.5008 96.3 27.8008 93 27.8008ZM86.7001 89.1008C88.0001 90.7008 88.0001 92.9008 86.7001 94.5008C77.7001 105.701 64.3 112.101 49.9 112.101C35.5 112.101 22.1001 105.701 13.1001 94.5008C11.8001 92.9008 11.8001 90.7008 13.1001 89.1008C22.1001 77.9008 35.5 71.5008 49.9 71.5008C64.3 71.5008 77.7001 77.9008 86.7001 89.1008ZM97 75.0008C97 77.2008 95.2 79.0008 93 79.0008H79.1001C70.7001 72.9008 60.6 69.5008 50 69.5008C39.4 69.5008 29.2 72.9008 20.9 79.0008H7C4.8 79.0008 3 77.2008 3 75.0008V33.8008C3 31.6008 4.8 29.8008 7 29.8008H93C95.2 29.8008 97 31.6008 97 33.8008V75.0008Z" fill="#4563FF"/>
<path d="M50 77.2012C48.2 77.2012 46.5 77.5012 44.9 78.1012C47.6 79.1012 49.5 81.6012 49.5 84.7012C49.5 88.6012 46.4 91.7012 42.5 91.7012C39.6 91.7012 37.2001 90.0012 36.1001 87.5012C35.7001 88.8012 35.5 90.2012 35.5 91.7012C35.5 99.7012 42 106.201 50 106.201C58 106.201 64.5 99.7012 64.5 91.7012C64.5 83.7012 58 77.2012 50 77.2012Z" fill="#4563FF"/>
</svg>
