<svg width="128" height="128" viewBox="0 0 128 128" fill="none" xmlns="http://www.w3.org/2000/svg">
<path d="M19.3416 26.5193C13.3509 26.5193 8.30156 30.6272 6.84668 36.19H31.8364C30.3816 30.6272 25.4178 26.5193 19.3416 26.5193Z" fill="#4563FF"/>
<path d="M21.4805 39.4427C21.4805 40.8976 22.6786 42.0957 24.1335 42.0957C25.5884 42.0957 26.7865 40.8976 26.7865 39.4427C26.7865 37.9878 25.5884 36.7897 24.1335 36.7897C22.6786 36.7041 21.4805 37.9878 21.4805 39.4427Z" fill="#4563FF"/>
<path d="M87.6354 64.8602H38.7684V53.3923C38.7684 50.996 36.8856 49.1132 34.4893 49.1132H27.8995C29.7823 47.4016 31.2372 45.1764 31.8363 42.6946H6.84651C7.53116 45.262 8.90047 47.4871 10.7833 49.1132H4.27907C1.88279 49.1132 0 50.996 0 53.3923V90.7057C0 93.102 1.88279 94.9848 4.27907 94.9848H10.6977V76.2425C10.6977 72.4769 13.7786 69.396 17.5442 69.396H80.5321C84.2977 69.396 87.3786 72.4769 87.3786 76.2425V107.736H87.7209C90.1172 107.736 92 105.854 92 103.457V69.1392C91.9144 66.743 90.0316 64.8602 87.6354 64.8602Z" fill="#4563FF"/>
<path d="M11.8105 39.4427C11.8105 40.8976 13.0087 42.0957 14.4636 42.0957C15.9185 42.0957 17.1166 40.8976 17.1166 39.4427C17.1166 37.9878 15.9185 36.7897 14.4636 36.7897C13.0087 36.7041 11.8105 37.9878 11.8105 39.4427Z" fill="#4563FF"/>
<path d="M80.532 115.78H17.5441C14.7199 115.78 12.4092 113.47 12.4092 110.646V76.2418C12.4092 73.4176 14.7199 71.1069 17.5441 71.1069H80.532C83.3562 71.1069 85.6669 73.4176 85.6669 76.2418V110.646C85.6669 113.47 83.3562 115.78 80.532 115.78ZM17.5441 72.8186C15.6613 72.8186 14.1208 74.359 14.1208 76.2418V110.646C14.1208 112.528 15.6613 114.069 17.5441 114.069H80.532C82.4148 114.069 83.9552 112.528 83.9552 110.646V76.2418C83.9552 74.359 82.4148 72.8186 80.532 72.8186H17.5441Z" fill="#4563FF"/>
<path d="M57.9385 80.8635C59.9925 80.8635 61.6185 82.4895 61.6185 84.5435C61.6185 86.5974 59.9925 88.2235 57.9385 88.2235C55.8845 88.2235 54.2585 86.5974 54.2585 84.5435C54.3441 82.4895 55.9701 80.8635 57.9385 80.8635ZM57.9385 79.1519C54.9432 79.1519 52.5469 81.5481 52.5469 84.5435C52.5469 87.5388 54.9432 89.9351 57.9385 89.9351C60.9338 89.9351 63.3301 87.5388 63.3301 84.5435C63.3301 81.5481 60.9338 79.1519 57.9385 79.1519Z" fill="#4563FF"/>
<path d="M72.3164 89.9351C75.2941 89.9351 77.7081 87.5212 77.7081 84.5435C77.7081 81.5658 75.2941 79.1519 72.3164 79.1519C69.3387 79.1519 66.9248 81.5658 66.9248 84.5435C66.9248 87.5212 69.3387 89.9351 72.3164 89.9351Z" fill="#FF0029"/>
</svg>
