<svg width="128" height="128" viewBox="0 0 128 128" fill="none" xmlns="http://www.w3.org/2000/svg">
<path opacity="0.61" d="M15.6366 97.1575L14.598 96.998C14.9313 97.0802 15.2791 97.1333 15.6366 97.1575Z" fill="#4664FF"/>
<path d="M98.8264 25.0625H12.1341C9.27934 25.0625 6.96552 27.3763 6.96552 30.2311V33.4095H90.2958C93.6723 33.4095 96.4112 36.1484 96.4112 39.5249V71.034C96.4112 71.7054 95.8654 72.2464 95.1988 72.2464H93.5371L93.5178 97.1716H95.59C98.4448 97.1716 100.759 94.8578 100.759 92.003L100.783 76.5649H102.821C103.473 76.5649 104 76.0384 104 75.3862V30.2263C103.995 27.3763 101.681 25.0625 98.8264 25.0625Z" fill="#4664FF"/>
<path d="M36.7646 35.6846V25.4633C36.7646 22.9998 38.7644 21 41.2279 21H54.8112C57.2747 21 59.2745 22.9998 59.2745 25.4633V35.6846" stroke="#FF0028" stroke-width="4.83046" stroke-miterlimit="10" stroke-linejoin="round"/>
<path d="M86.7842 103.055C89.2478 103.055 91.2476 101.055 91.2476 98.5916L91.2717 69.9953H94.0444V40.143C94.0444 37.6795 92.0446 35.6797 89.5811 35.6797H6.46334C3.99981 35.6797 2 37.6795 2 40.143V69.9953H4.78713V98.0506C4.78713 100.814 7.02851 103.055 9.79154 103.055H86.7842Z" stroke="#4664FF" stroke-width="2.17371" stroke-miterlimit="10" stroke-linecap="round" stroke-linejoin="round"/>
<path d="M74.167 69.9951H94.0395" stroke="#4664FF" stroke-width="2.17371" stroke-miterlimit="10" stroke-linecap="round" stroke-linejoin="round"/>
<path d="M21.8726 65.4746H16.6992V74.5124H21.8726V65.4746Z" fill="#4664FF" stroke="#4664FF" stroke-width="2.17371" stroke-miterlimit="10" stroke-linecap="round" stroke-linejoin="round"/>
<path d="M79.3405 65.4746H74.167V74.5124H79.3405V65.4746Z" fill="#4664FF" stroke="#4664FF" stroke-width="2.17371" stroke-miterlimit="10" stroke-linecap="round" stroke-linejoin="round"/>
<path d="M24.1717 69.9951H82.2387" stroke="#4664FF" stroke-width="2.17371" stroke-miterlimit="10" stroke-linecap="round" stroke-linejoin="round"/>
<path d="M2 69.9951H24.1718" stroke="#4664FF" stroke-width="2.17371" stroke-miterlimit="10" stroke-linecap="round" stroke-linejoin="round"/>
<path d="M34.0742 60.4306V54.6003C34.0742 53.9868 34.5718 53.4893 35.1852 53.4893H60.8592C61.4726 53.4893 61.9701 53.9868 61.9701 54.6003V60.4306C61.9701 61.0441 61.4726 61.5416 60.8592 61.5416H35.1852C34.5718 61.5416 34.0742 61.0441 34.0742 60.4306Z" fill="#FF0028" stroke="#FF0028" stroke-width="2.17371" stroke-miterlimit="10" stroke-linecap="round" stroke-linejoin="round"/>
<path d="M14.8588 103.055H8.52123C7.00929 103.055 4.78723 100.524 4.78723 99.0118V92.9834H9.71917C12.5595 92.9834 14.8588 95.2875 14.8588 98.123V103.055Z" fill="#4664FF" stroke="#4664FF" stroke-width="0.966092" stroke-miterlimit="10" stroke-linecap="round" stroke-linejoin="round"/>
<path d="M91.2138 92.9834V99.4949C91.2138 101.007 89.2527 103.055 87.7408 103.055H81.1423V98.123C81.1423 95.2827 83.4465 92.9834 86.282 92.9834H91.2138Z" fill="#4664FF" stroke="#4664FF" stroke-width="0.966092" stroke-miterlimit="10" stroke-linecap="round" stroke-linejoin="round"/>
</svg>
