<svg width="128" height="128" viewBox="0 0 128 128" fill="none" xmlns="http://www.w3.org/2000/svg">
<g clip-path="url(#clip0_14814_151818)">
<path d="M100.771 23H97.9452H13.8712C11.543 23 9.65134 24.887 9.65134 27.2199V31.5524H87.7969C91.1672 31.5524 93.8991 34.2843 93.8991 37.6546C93.8991 37.6546 93.8897 81.2195 93.885 96.7378C93.885 99.8077 96.3727 102.291 99.4426 102.291C102.512 102.291 105 99.803 105 96.7331V27.2152C104.991 24.8917 103.099 23 100.771 23Z" fill="#4664FF"/>
<path d="M6.21507 105.637H98.2594L95.213 104.042C92.6125 102.68 90.979 99.9859 90.979 97.0474V38.7951C90.979 36.4669 89.092 34.5752 86.7591 34.5752H83.9334H5.21995C2.89173 34.5752 1 36.4622 1 38.7951V100.422C1.00469 103.3 3.33766 105.637 6.21507 105.637Z" stroke="#4664FF" stroke-width="2.11229" stroke-miterlimit="10" stroke-linecap="round" stroke-linejoin="round"/>
<path d="M36.3783 63.542L57.2384 76.2346" stroke="#4664FF" stroke-width="2.11229" stroke-miterlimit="10" stroke-linecap="round" stroke-linejoin="round"/>
<path d="M31.5813 65.9595C34.8893 65.9595 37.5709 63.2779 37.5709 59.97C37.5709 56.6621 34.8893 53.9805 31.5813 53.9805C28.2734 53.9805 25.5918 56.6621 25.5918 59.97C25.5918 63.2779 28.2734 65.9595 31.5813 65.9595Z" stroke="#4664FF" stroke-width="2.11229" stroke-miterlimit="10"/>
<path d="M28.9764 65.3584L19.4992 83.8762" stroke="#4664FF" stroke-width="2.11229" stroke-miterlimit="10" stroke-linecap="round" stroke-linejoin="round"/>
<path d="M58.9473 72.874L71.9449 53.2578" stroke="#4664FF" stroke-width="2.11229" stroke-miterlimit="10" stroke-linecap="round" stroke-linejoin="round"/>
<path d="M57.4923 81.8072C60.8002 81.8072 63.4818 79.1256 63.4818 75.8177C63.4818 72.5097 60.8002 69.8281 57.4923 69.8281C54.1844 69.8281 51.5028 72.5097 51.5028 75.8177C51.5028 79.1256 54.1844 81.8072 57.4923 81.8072Z" fill="#FF0028" stroke="#FF0028" stroke-width="2.11229" stroke-miterlimit="10"/>
<path d="M19.2643 87.8805C20.755 87.8805 21.9634 86.6721 21.9634 85.1815C21.9634 83.6908 20.755 82.4824 19.2643 82.4824C17.7737 82.4824 16.5653 83.6908 16.5653 85.1815C16.5653 86.6721 17.7737 87.8805 19.2643 87.8805Z" fill="#4664FF" stroke="#4664FF" stroke-width="2.11229" stroke-miterlimit="10"/>
<path d="M71.9448 55.9567C73.4354 55.9567 74.6438 54.7483 74.6438 53.2576C74.6438 51.767 73.4354 50.5586 71.9448 50.5586C70.4541 50.5586 69.2457 51.767 69.2457 53.2576C69.2457 54.7483 70.4541 55.9567 71.9448 55.9567Z" fill="#4664FF" stroke="#4664FF" stroke-width="2.11229" stroke-miterlimit="10"/>
</g>
<defs>
<clipPath id="clip0_14814_151818">
<rect width="128" height="128" fill="white"/>
</clipPath>
</defs>
</svg>
