<svg width="91" height="90" viewBox="0 0 91 90" fill="none" xmlns="http://www.w3.org/2000/svg">
<path d="M38.6833 33.0043H41.3V22.8152H48.5088C53.0407 22.8152 55.5344 25.1257 55.5344 29.0506C55.5344 32.9729 53.0407 35.3462 48.5088 35.3462H43.9768V37.5677H50.7303V39.3025H43.9768V44.1092H41.3V39.3025H38.6833V37.5677H41.3V35.3462H38.6833V33.0043ZM48.111 33.0043C51.6094 33.0043 52.855 31.4238 52.855 28.9904C52.855 26.6171 51.6382 25.1571 48.111 25.1571H43.9741V33.0043H48.111Z" fill="#FF0028"/>
<path d="M74.5626 58.1578C73.6991 56.6847 71.9093 56.0331 70.3001 56.6036L53.0095 63.501C53.4438 62.9776 53.716 62.313 53.7421 61.5804C53.8076 59.7749 52.3605 58.2756 50.5551 58.2756L17.9442 58.3515C16.8714 58.3515 16.0027 59.2202 16.0027 60.293V73.779C16.0027 74.8518 16.8714 75.7206 17.9442 75.7206H29.6614C30.9488 75.7206 31.9954 74.687 32.0137 73.3996L32.0949 71.7878L48.467 73.7215C50.0998 73.8994 51.7483 73.6116 53.2214 72.8894L70.7397 64.2938C72.8408 63.2655 76.2058 61.4888 74.5626 58.1578Z" stroke="#4664FF" stroke-width="1.17748" stroke-miterlimit="10" stroke-linecap="round" stroke-linejoin="round"/>
<path d="M38.4348 64.8508H49.4115C51.7429 64.8508 53.6557 63.4902 53.7394 61.7737" stroke="#4664FF" stroke-width="1.17748" stroke-miterlimit="10" stroke-linecap="round" stroke-linejoin="round"/>
<path d="M32.0923 71.7902V58.3225" stroke="#4664FF" stroke-width="0.523323" stroke-miterlimit="10" stroke-linecap="round" stroke-linejoin="round"/>
<path d="M17.4418 58.3411H31.9614V73.316C31.9614 74.6478 30.8912 75.7259 29.5698 75.7259H17.4418C16.6463 75.7259 16 75.0769 16 74.2736V59.7933C16 58.99 16.6437 58.3411 17.4418 58.3411Z" fill="#4664FF" stroke="#4664FF" stroke-width="0.523323" stroke-miterlimit="10" stroke-linecap="round" stroke-linejoin="round"/>
<path d="M33.1858 46.7077C36.6031 49.9942 41.245 52.0142 46.3605 52.0142C56.8583 52.0142 65.3676 43.505 65.3676 33.0071C65.3676 22.5092 56.8583 14 46.3605 14C35.8626 14 27.3534 22.5092 27.3534 33.0071C27.3534 34.4541 27.5156 35.8644 27.8218 37.2198L20.0635 29.7991" stroke="#4664FF" stroke-width="1.17748" stroke-miterlimit="10" stroke-linecap="round" stroke-linejoin="round"/>
<path d="M34.7689 29.1663L27.8218 37.2176" stroke="#4664FF" stroke-width="1.17748" stroke-miterlimit="10" stroke-linecap="round" stroke-linejoin="round"/>
</svg>
