<svg width="167" height="188" viewBox="0 0 167 188" fill="none" xmlns="http://www.w3.org/2000/svg">
<path d="M2.64648 185V171.409C2.64648 168.632 4.89977 166.379 7.67646 166.379H159.276C162.053 166.379 164.306 168.632 164.306 171.409V185H2.64648Z" stroke="#4664FF" stroke-width="4.5" stroke-miterlimit="10" stroke-linecap="round" stroke-linejoin="round"/>
<path d="M46.6561 78.5093H28.7451V156.035H46.6561V78.5093Z" fill="#4664FF" stroke="#4664FF" stroke-width="4.5" stroke-miterlimit="10" stroke-linecap="round" stroke-linejoin="round"/>
<path d="M92.4315 78.5093H74.5205V156.035H92.4315V78.5093Z" fill="#4664FF" stroke="#4664FF" stroke-width="4.5" stroke-miterlimit="10" stroke-linecap="round" stroke-linejoin="round"/>
<path d="M138.765 78.5093H120.854V156.035H138.765V78.5093Z" fill="#4664FF" stroke="#4664FF" stroke-width="4.5" stroke-miterlimit="10" stroke-linecap="round" stroke-linejoin="round"/>
<path d="M2.64648 68.1657V59.9509C2.64648 57.5025 3.86184 55.2137 5.89335 53.8475L79.3558 4.25749C81.8486 2.58084 85.1043 2.58084 87.5972 4.25749L161.06 53.8475C163.091 55.2137 164.306 57.5025 164.306 59.9509V68.1657H2.64648Z" stroke="#4664FF" stroke-width="4.5" stroke-miterlimit="10" stroke-linecap="round" stroke-linejoin="round"/>
<path d="M83.4704 57.5824C90.4423 57.5824 96.0941 51.9306 96.0941 44.9587C96.0941 37.9868 90.4423 32.335 83.4704 32.335C76.4985 32.335 70.8467 37.9868 70.8467 44.9587C70.8467 51.9306 76.4985 57.5824 83.4704 57.5824Z" fill="#FF0028" stroke="#FF0028" stroke-width="4.5" stroke-miterlimit="10"/>
</svg>
