<svg width="90" height="90" viewBox="0 0 90 90" fill="none" xmlns="http://www.w3.org/2000/svg">
<path d="M84.1636 25.3826H24.7495C22.7808 25.3826 21.2339 26.9294 21.2339 28.8982V29.9529H77.5542C80.6479 29.9529 83.1792 32.4841 83.1792 35.5779V65.3201H84.2339C86.2026 65.3201 87.7495 63.7732 87.7495 61.8044V28.8982C87.6792 26.9294 86.062 25.3826 84.1636 25.3826Z" fill="#4563FF"/>
<path d="M56.1787 40.1482C58.1475 40.1482 59.6943 41.6951 59.6943 43.6638C59.6943 45.6326 58.1475 47.1794 56.1787 47.1794C54.21 47.1794 52.6631 45.6326 52.6631 43.6638C52.6631 41.6951 54.21 40.1482 56.1787 40.1482ZM56.1787 38.7419C53.4365 38.7419 51.2568 40.9216 51.2568 43.6638C51.2568 46.406 53.4365 48.5857 56.1787 48.5857C58.9209 48.5857 61.1006 46.406 61.1006 43.6638C61.1006 40.9216 58.8506 38.7419 56.1787 38.7419Z" fill="#4563FF"/>
<path d="M69.2578 48.5857C71.9761 48.5857 74.1797 46.3821 74.1797 43.6638C74.1797 40.9455 71.9761 38.7419 69.2578 38.7419C66.5395 38.7419 64.3359 40.9455 64.3359 43.6638C64.3359 46.3821 66.5395 48.5857 69.2578 48.5857Z" fill="#FF0029"/>
<path d="M77.4839 31.2888H18.0698C15.7495 31.2888 13.8511 33.1873 13.8511 35.5076V55.9685C7.38232 57.5857 2.60107 63.3513 2.60107 70.3123C2.60107 78.4685 9.21045 85.0779 17.3667 85.0779C24.7495 85.0779 30.7964 79.6638 31.9214 72.6326H77.4839C79.8042 72.6326 81.7026 70.7341 81.7026 68.4138V35.5076C81.7026 33.1873 79.8042 31.2888 77.4839 31.2888ZM17.3667 83.6716C9.98389 83.6716 4.00732 77.6951 4.00732 70.3123C4.00732 62.9294 9.98389 56.9529 17.3667 56.9529C24.7495 56.9529 30.7261 62.9294 30.7261 70.3123C30.7261 77.6951 24.6792 83.6716 17.3667 83.6716ZM80.2964 68.4138C80.2964 69.9607 79.0308 71.2263 77.4839 71.2263H32.062C32.062 70.9451 32.1323 70.6638 32.1323 70.3123C32.1323 62.156 25.5229 55.5466 17.3667 55.5466C16.6636 55.5466 15.9604 55.6169 15.2573 55.6873V35.5076C15.2573 33.9607 16.5229 32.6951 18.0698 32.6951H77.4839C79.0308 32.6951 80.2964 33.9607 80.2964 35.5076V68.4138Z" fill="#4563FF"/>
<path d="M16.6456 63.5359H18.4056V69.4359L18.0656 74.0359H16.9656L16.6456 69.4359V63.5359ZM18.5656 77.8159H16.4856V75.4959H18.5656V77.8159Z" fill="#4563FF"/>
</svg>
