<svg width="129" height="128" viewBox="0 0 129 128" fill="none" xmlns="http://www.w3.org/2000/svg">
<g clip-path="url(#clip0_14814_151830)">
<path d="M38.2013 25.7008L20.6013 22.0008C19.6013 21.8008 18.5013 22.0008 17.6013 22.6008C16.7013 23.2008 16.1013 24.1008 15.9013 25.1008L0.601346 97.5008C0.101346 99.7008 1.50132 101.801 3.70132 102.201L21.3013 105.901C21.6013 106.001 21.9013 106.001 22.1013 106.001C22.9013 106.001 23.6013 105.801 24.3013 105.301C25.2013 104.701 25.8014 103.801 26.0014 102.801L41.3013 30.4008C41.7013 28.3008 40.3013 26.2008 38.2013 25.7008ZM23.2013 103.701C22.8013 104.001 22.2013 104.101 21.7013 104.001L4.10135 100.301C3.00135 100.101 2.30131 99.0008 2.50131 97.9008L17.8013 25.5008C17.9013 25.0008 18.2013 24.5008 18.7013 24.2008C19.0013 24.0008 19.4013 23.9008 19.8013 23.9008C19.9013 23.9008 20.1013 23.9008 20.2013 23.9008L37.8013 27.6008C38.9013 27.8008 39.6013 28.9008 39.4013 30.0008L24.1013 102.401C23.9013 103.001 23.6013 103.401 23.2013 103.701Z" fill="#4563FF"/>
<path d="M16.9013 83.1008C14.8013 82.7008 12.7013 83.1008 10.9013 84.2008C9.10129 85.4008 7.90129 87.2008 7.40129 89.3008C6.50129 93.6008 9.30136 97.9008 13.6014 98.8008C14.2014 98.9008 14.7013 99.0008 15.3013 99.0008C19.0013 99.0008 22.3014 96.4008 23.1014 92.7008C23.5014 90.6008 23.1014 88.5008 22.0014 86.7008C20.8014 84.8008 19.0013 83.5008 16.9013 83.1008ZM21.1014 92.1008C20.4014 95.3008 17.2014 97.4008 14.0014 96.7008C10.8014 96.0008 8.70129 92.8008 9.40129 89.6008C9.70129 88.0008 10.7014 86.7008 12.0014 85.8008C13.0014 85.2008 14.1013 84.8008 15.3013 84.8008C15.7013 84.8008 16.1014 84.8008 16.6014 84.9008C18.2014 85.2008 19.5013 86.2008 20.4013 87.5008C21.0013 88.5008 21.4013 89.6008 21.4013 90.8008C21.2013 91.3008 21.2014 91.7008 21.1014 92.1008Z" fill="#4563FF"/>
<path d="M65.4014 23H47.4014C45.2014 23 43.4014 24.8 43.4014 27V101C43.4014 103.2 45.2014 105 47.4014 105H65.4014C67.6014 105 69.4014 103.2 69.4014 101V27C69.4014 24.8 67.6014 23 65.4014 23ZM56.4014 99.5C52.0014 99.5 48.4014 95.9 48.4014 91.5C48.4014 87.1 52.0014 83.5 56.4014 83.5C60.8014 83.5 64.4014 87.1 64.4014 91.5C64.4014 95.9 60.8014 99.5 56.4014 99.5Z" fill="#4563FF"/>
<path d="M93.4014 23H75.4014C73.2014 23 71.4014 24.8 71.4014 27V101C71.4014 103.2 73.2014 105 75.4014 105H93.4014C95.6014 105 97.4014 103.2 97.4014 101V27C97.4014 24.8 95.6014 23 93.4014 23ZM84.4014 99.5C80.0014 99.5 76.4014 95.9 76.4014 91.5C76.4014 87.1 80.0014 83.5 84.4014 83.5C88.8014 83.5 92.4014 87.1 92.4014 91.5C92.4014 95.9 88.8014 99.5 84.4014 99.5Z" fill="#FF0029"/>
</g>
<defs>
<clipPath id="clip0_14814_151830">
<rect width="128" height="128" fill="white" transform="translate(0.5)"/>
</clipPath>
</defs>
</svg>
