<svg width="128" height="128" viewBox="0 0 128 128" fill="none" xmlns="http://www.w3.org/2000/svg">
<path d="M12.172 31.086C12.172 28.2269 14.49 25.9043 17.3537 25.9043H67.5472L73.2466 31.1046L80 37.2704V100.626C80 103.485 77.682 105.807 74.8184 105.807H17.349C14.49 105.807 12.1673 103.489 12.1673 100.626V31.086H12.172Z" stroke="#4664FF" stroke-width="2.09878" stroke-miterlimit="10" stroke-linecap="round" stroke-linejoin="round"/>
<path d="M21.0798 77.8369H70.6811" stroke="#4664FF" stroke-width="2.09878" stroke-miterlimit="10" stroke-linecap="round" stroke-linejoin="round"/>
<path d="M21.0798 86.21H70.6811" stroke="#4664FF" stroke-width="2.09878" stroke-miterlimit="10" stroke-linecap="round" stroke-linejoin="round"/>
<path d="M21.0798 94.5771H70.6811" stroke="#4664FF" stroke-width="2.09878" stroke-miterlimit="10" stroke-linecap="round" stroke-linejoin="round"/>
<path d="M56.0375 68.2106H35.7259C34.933 68.2106 34.2941 67.6182 34.2941 66.886V51.0285C34.2941 50.8513 34.3733 50.6787 34.5086 50.5528L45.8793 40.3154L57.2501 50.5528C57.39 50.6787 57.4646 50.8466 57.4646 51.0285V66.886C57.4693 67.6182 56.8257 68.2106 56.0375 68.2106Z" fill="#FF0028" stroke="#FF0028" stroke-width="2.09878" stroke-miterlimit="10" stroke-linecap="round" stroke-linejoin="round"/>
<path d="M61.0606 51.3323L45.7675 37.5596L30.7029 51.3323H61.0606Z" fill="#FF0028" stroke="#FF0028" stroke-width="2.09878" stroke-miterlimit="10" stroke-linecap="round" stroke-linejoin="round"/>
<path d="M67.5425 25.9082V34.6858C67.5425 36.1176 68.7038 37.2743 70.131 37.2743H79.9953L67.5425 25.9082Z" fill="#4664FF" stroke="#4664FF" stroke-width="2.09878" stroke-miterlimit="10" stroke-linecap="round" stroke-linejoin="round"/>
<path d="M8.75426 94.8427V28.6704C8.75426 25.233 11.5386 22.4486 14.976 22.4486H68.5975V17.8406C68.5975 15.5506 66.7413 13.6943 64.4513 13.6943H4.14627C1.85626 13.6943 0 15.5506 0 17.8406V90.6964C0 92.9864 1.85626 94.8427 4.14627 94.8427H8.75426Z" fill="#4664FF"/>
</svg>
