<svg width="381" height="396" viewBox="0 0 381 396" fill="none" xmlns="http://www.w3.org/2000/svg">
<g opacity="0.4">
<path d="M59.8884 242.944L176.559 178.677L318.8 260.951L159.591 353.043H41.2479L59.8884 242.944Z" fill="url(#paint0_linear_14822_173009)"/>
<path d="M121.689 264.447L238.407 200.179L380.6 282.454L221.439 374.545H103.048L121.689 264.447Z" fill="url(#paint1_linear_14822_173009)"/>
</g>
<path d="M3.96698 83.9506L4.06256 329.098L147.164 246.345L147.069 1.14929L3.96698 83.9506Z" fill="#D2CFCC"/>
<path d="M7.74281 282.98L7.6472 93.6724L145.969 13.6487L146.065 247.781L42.5862 307.644L7.74281 282.98Z" fill="#F8F5F4"/>
<path d="M9.98921 284.704L9.8936 95.0133L148.216 14.9896L148.359 249.074L44.6892 309.032L9.98921 284.704Z" fill="#F8F5F4"/>
<path d="M12.2355 286.381L12.1399 96.3064L150.51 16.2827L150.605 250.368L46.7921 310.421L12.2355 286.381Z" fill="#F8F5F4"/>
<path d="M14.482 288.009L14.3864 97.5991L152.756 17.5754L152.852 251.66L48.943 311.762L14.482 288.009Z" fill="#F8F5F4"/>
<path d="M16.7285 289.685L16.6806 98.8922L155.003 18.8685L155.098 252.953L51.0461 313.151L16.7285 289.685Z" fill="#F8F5F4"/>
<path d="M18.9748 291.313L18.927 100.185L157.249 20.1616L157.345 254.294L53.149 314.54L18.9748 291.313Z" fill="#F8F5F4"/>
<path d="M54.9653 315.737L21.2213 292.941L21.1735 101.478L159.495 21.5026L159.591 255.587L55.2999 315.928L54.9653 315.737Z" fill="#F8F5F4"/>
<path d="M54.9651 315.737L23.5153 294.618L23.4197 102.819L161.742 22.7955L161.837 256.88L57.4505 317.269L54.9651 315.737Z" fill="#F8F5F4"/>
<path d="M54.9653 315.737L25.7618 296.198L25.6663 104.112L163.988 24.0885L164.084 258.173L59.6493 318.61L54.9653 315.737Z" fill="#F8F5F4"/>
<path d="M54.9653 315.737L28.0083 297.73L27.9127 105.405L166.235 25.3816L166.33 259.467L61.848 319.951L54.9653 315.737Z" fill="#F8F5F4"/>
<path d="M54.9652 315.737L30.2547 299.311L30.159 106.698L168.481 26.6746L168.577 260.807L63.9987 321.292L54.9652 315.737Z" fill="#F8F5F4"/>
<path d="M54.9653 315.737L32.5011 300.843L32.4055 107.991L170.728 28.0155L170.823 262.1L66.1974 322.633L54.9653 315.737Z" fill="#F8F5F4"/>
<path d="M54.9654 315.737L34.7476 302.376L34.652 109.332L173.022 29.3086L173.117 263.393L68.3483 323.974L54.9654 315.737Z" fill="#F8F5F4"/>
<path d="M54.9653 315.737L36.9939 303.956L36.8984 110.625L175.268 30.6016L175.364 264.686L70.5468 325.315L54.9653 315.737Z" fill="#F8F5F4"/>
<path d="M186.213 23.9448L186.309 269.14L41.2478 353.043L41.1522 107.848L186.213 23.9448Z" fill="#D2CFCC"/>
<path d="M41.1525 107.848L41.248 353.043L0.143379 329.098L0.047802 83.9028L41.1525 107.848ZM18.3537 291.169C23.4679 294.139 27.5784 291.744 27.5784 285.902C27.5784 280.059 23.5157 272.924 18.4015 269.954C13.2873 266.985 9.17687 269.38 9.12907 275.222C9.12907 281.113 13.2395 288.248 18.3537 291.169Z" fill="#E9E6E6"/>
<path d="M6.59574 244.19L33.7917 259.897V123.555L6.59574 107.848V244.19Z" fill="#F8F5F4"/>
<path d="M18.3535 291.169C23.4677 294.139 27.5781 291.744 27.5781 285.902C27.5781 280.059 23.5154 272.923 18.4012 269.954C13.2871 266.985 9.17661 269.38 9.12882 275.222C9.12882 281.113 13.2393 288.248 18.3535 291.169Z" fill="#2D2B29"/>
<path d="M11.471 270.96L12.9526 270.098C11.5187 270.96 10.6106 272.732 10.6106 275.27C10.6106 280.346 14.1953 286.572 18.6404 289.158C20.839 290.451 22.8942 290.547 24.3281 289.685L22.8464 290.547C21.3647 291.409 19.3573 291.265 17.1587 289.972C12.7137 287.386 9.12895 281.16 9.12895 276.084C9.12895 273.546 10.0371 271.774 11.471 270.96Z" fill="#B7BBBC"/>
<path d="M11.6619 267.799C13.4782 266.746 15.9636 266.889 18.6879 268.47C24.1367 271.63 28.5339 279.293 28.5339 285.566C28.5339 288.679 27.4346 290.882 25.6662 291.936L24.1845 292.798C25.9529 291.744 27.0523 289.589 27.0523 286.428C27.0523 280.155 22.655 272.492 17.2062 269.284C14.4341 267.703 11.9487 267.56 10.1802 268.613L11.6619 267.799Z" fill="#B7BBBC"/>
<path d="M17.2065 269.332C22.6552 272.492 27.0525 280.155 27.0525 286.476C27.0525 292.75 22.6075 295.288 17.1587 292.127C11.7099 288.966 7.26489 281.304 7.26489 275.03C7.31269 268.757 11.7577 266.171 17.2065 269.332ZM17.1587 289.972C21.5559 292.51 25.1884 290.451 25.1884 285.375C25.1884 280.25 21.6037 274.025 17.2065 271.487C12.7614 268.901 9.17673 270.96 9.12894 276.084C9.12894 281.208 12.7137 287.434 17.1587 289.972Z" fill="#CFD2D3"/>
<path d="M145.109 0L147.068 1.14935L3.96681 83.9507L41.1522 105.597L184.254 22.7955L186.214 23.9449L41.1522 107.848L-0.000274658 83.9028L145.109 0Z" fill="#F8F5F4"/>
<path d="M65.9106 105.405L66.0062 350.601L209.108 267.799L209.012 22.6519L65.9106 105.405Z" fill="#5E78E5"/>
<path d="M69.6867 304.483L69.591 115.175L207.913 35.151L208.009 269.236L104.482 329.146L69.6867 304.483Z" fill="#F8F5F4"/>
<path d="M71.9331 306.207L71.8375 116.468L210.16 36.4442L210.255 270.529L106.633 330.487L71.9331 306.207Z" fill="#F8F5F4"/>
<path d="M74.1794 307.835L74.0837 117.761L212.406 37.7372L212.501 271.87L108.736 331.876L74.1794 307.835Z" fill="#F8F5F4"/>
<path d="M76.4258 309.511L76.3302 119.054L214.652 39.0781L214.748 273.163L110.839 333.265L76.4258 309.511Z" fill="#F8F5F4"/>
<path d="M78.6723 311.139L78.5767 120.395L216.899 40.371L217.042 274.456L112.99 334.653L78.6723 311.139Z" fill="#F8F5F4"/>
<path d="M80.9186 312.816L80.8231 121.688L219.193 41.6642L219.288 275.749L115.093 336.042L80.9186 312.816Z" fill="#F8F5F4"/>
<path d="M116.909 337.192L83.1651 314.444L83.0695 122.981L221.439 42.9572L221.535 277.042L117.244 337.383L116.909 337.192Z" fill="#F8F5F4"/>
<path d="M116.909 337.192L85.4115 316.072L85.3636 124.274L223.686 44.2502L223.781 278.383L119.395 338.724L116.909 337.192Z" fill="#F8F5F4"/>
<path d="M116.909 337.191L87.658 317.652L87.6102 125.567L225.932 45.5911L226.028 279.676L121.593 340.065L116.909 337.191Z" fill="#F8F5F4"/>
<path d="M116.909 337.191L89.9045 319.233L89.8567 126.908L228.179 46.884L228.274 280.969L123.744 341.406L116.909 337.191Z" fill="#F8F5F4"/>
<path d="M116.909 337.192L92.1986 320.765L92.103 128.201L230.425 48.1771L230.521 282.262L125.943 342.795L116.909 337.192Z" fill="#F8F5F4"/>
<path d="M116.909 337.191L94.445 322.298L94.3493 129.494L232.671 49.4701L232.767 283.555L128.093 344.135L116.909 337.191Z" fill="#F8F5F4"/>
<path d="M116.909 337.191L96.6913 323.878L96.5957 130.787L234.918 50.7632L235.013 284.848L130.292 345.476L116.909 337.191Z" fill="#F8F5F4"/>
<path d="M116.909 337.192L98.9379 325.411L98.8423 132.08L237.164 52.0563L237.26 286.189L132.491 346.817L116.909 337.192Z" fill="#F8F5F4"/>
<path d="M248.157 45.3995L248.253 290.595L103.144 374.546L103.048 129.35L248.157 45.3995Z" fill="#5E78E5"/>
<path d="M103.048 129.35L103.144 374.546L62.0391 350.601L61.9435 105.405L103.048 129.35ZM80.2494 312.672C85.3636 315.641 89.4741 313.247 89.4741 307.404C89.4741 301.562 85.4114 294.426 80.2973 291.457C75.1831 288.488 71.0726 290.882 71.0248 296.725C71.0726 302.615 75.1831 309.703 80.2494 312.672Z" fill="#788EFF"/>
<path d="M68.5395 265.692L95.6877 281.4V145.058L68.5395 129.35V265.692Z" fill="#F8F5F4"/>
<path d="M80.2496 312.672C85.3638 315.641 89.4742 313.247 89.4742 307.404C89.4742 301.561 85.4116 294.426 80.2974 291.457C75.1832 288.488 71.0727 290.882 71.0249 296.725C71.0727 302.615 75.1832 309.703 80.2496 312.672Z" fill="#2D2B29"/>
<path d="M73.4147 292.415L74.8963 291.553C73.4625 292.415 72.5543 294.187 72.5543 296.725C72.5543 301.801 76.1391 308.027 80.5841 310.613C82.7827 311.906 84.838 312.002 86.2719 311.14L84.7901 312.002C83.3085 312.864 81.3011 312.72 79.1024 311.475C74.6574 308.889 71.0727 302.663 71.0727 297.587C71.0727 295.049 71.9808 293.277 73.4147 292.415Z" fill="#B7BBBC"/>
<path d="M73.606 289.254C75.4222 288.2 77.9077 288.344 80.632 289.924C86.0808 293.085 90.478 300.747 90.478 307.021C90.478 310.134 89.3787 312.337 87.6103 313.39L86.1286 314.252C87.8971 313.199 88.9964 311.044 88.9964 307.883C88.9964 301.61 84.5991 293.947 79.1503 290.786C76.3782 289.206 73.8928 289.062 72.1243 290.116L73.606 289.254Z" fill="#B7BBBC"/>
<path d="M79.1502 290.834C84.5989 293.995 88.9962 301.657 88.9962 307.931C88.9962 314.205 84.5512 316.743 79.1024 313.582C73.6537 310.421 69.2086 302.759 69.2086 296.485C69.2086 290.212 73.6536 287.674 79.1502 290.834ZM79.1024 311.475C83.4997 314.013 87.1322 311.954 87.1322 306.877C87.1322 301.753 83.5474 295.528 79.1502 292.989C74.7051 290.403 71.1205 292.463 71.0727 297.587C71.0727 302.663 74.6574 308.889 79.1024 311.475Z" fill="#CFD2D3"/>
<path d="M207.005 21.5026L209.012 22.6519L65.9105 105.405L103.048 127.051L246.15 44.2981L248.157 45.3995L103.048 129.35L61.9435 105.405L207.005 21.5026Z" fill="#92ACFF"/>
<path d="M127.807 126.908L127.902 372.055L271.052 289.302L270.908 44.1064L127.807 126.908Z" fill="#FF0029" fill-opacity="0.85"/>
<path d="M131.582 325.937L131.535 136.629L269.857 56.6536L269.952 290.738L166.426 350.601L131.582 325.937Z" fill="#F8F5F4"/>
<path d="M133.829 327.661L133.781 137.97L272.103 57.9467L272.199 292.032L168.529 351.989L133.829 327.661Z" fill="#F8F5F4"/>
<path d="M136.075 329.338L136.028 139.263L274.35 59.2396L274.445 293.325L170.68 353.378L136.075 329.338Z" fill="#F8F5F4"/>
<path d="M138.37 330.966L138.274 140.556L276.596 60.5326L276.692 294.617L172.783 354.767L138.37 330.966Z" fill="#F8F5F4"/>
<path d="M140.616 332.642L140.52 141.849L278.842 61.8256L278.938 295.958L174.886 356.108L140.616 332.642Z" fill="#F8F5F4"/>
<path d="M142.862 334.27L142.767 143.142L281.089 63.1188L281.184 297.252L177.037 357.497L142.862 334.27Z" fill="#F8F5F4"/>
<path d="M178.853 358.694L145.109 335.946L145.013 144.483L283.335 64.4596L283.431 298.544L179.14 358.886L178.853 358.694Z" fill="#F8F5F4"/>
<path d="M178.853 358.694L147.355 337.575L147.26 145.776L285.582 65.7527L285.677 299.838L181.338 360.227L178.853 358.694Z" fill="#F8F5F4"/>
<path d="M178.853 358.694L149.602 339.155L149.506 147.069L287.876 67.0457L287.971 301.131L183.489 361.567L178.853 358.694Z" fill="#F8F5F4"/>
<path d="M178.853 358.694L151.848 340.687L151.753 148.362L290.122 68.3386L290.218 302.424L185.688 362.908L178.853 358.694Z" fill="#F8F5F4"/>
<path d="M178.853 358.694L154.095 342.268L154.047 149.655L292.369 69.6316L292.464 303.764L187.839 364.249L178.853 358.694Z" fill="#F8F5F4"/>
<path d="M178.853 358.694L156.341 343.8L156.293 150.996L294.615 70.9727L294.711 305.058L190.037 365.59L178.853 358.694Z" fill="#F8F5F4"/>
<path d="M178.853 358.694L158.587 345.333L158.54 152.289L296.862 72.2656L296.957 306.351L192.188 366.931L178.853 358.694Z" fill="#F8F5F4"/>
<path d="M178.853 358.694L160.882 346.913L160.786 153.582L299.108 73.5586L299.204 307.643L194.387 368.272L178.853 358.694Z" fill="#F8F5F4"/>
<path d="M310.053 66.902L310.149 312.097L165.088 396L163.94 150.326L310.053 66.902Z" fill="#FF0029"/>
<path d="M164.992 150.805L165.088 396L123.983 372.055L123.887 126.86L164.992 150.805ZM142.193 334.127C147.308 337.096 151.418 334.701 151.418 328.859C151.418 323.016 147.355 315.881 142.241 312.911C137.127 309.942 133.017 312.337 132.969 318.179C132.969 324.07 137.127 331.205 142.193 334.127Z" fill="#FE2548"/>
<path d="M130.483 287.147L157.631 302.902V166.56L130.483 150.805V287.147Z" fill="#F8F5F4"/>
<path d="M141.094 334.366C146.208 337.335 150.318 334.941 150.318 329.098C150.318 323.255 146.256 316.12 141.142 313.151C136.027 310.182 131.917 312.576 131.869 318.419C131.869 324.309 135.98 331.397 141.094 334.366Z" fill="#2D2B29"/>
<path d="M135.358 313.917L136.84 313.055C135.406 313.917 134.498 315.689 134.498 318.227C134.498 323.303 138.083 329.529 142.528 332.115C144.726 333.408 146.782 333.504 148.215 332.642L146.734 333.504C145.252 334.366 143.245 334.222 141.046 332.929C136.601 330.343 133.016 324.117 133.016 319.041C133.016 316.551 133.924 314.731 135.358 313.917Z" fill="#B7BBBC"/>
<path d="M135.502 310.756C137.318 309.703 139.804 309.846 142.528 311.427C147.977 314.587 152.374 322.25 152.374 328.523C152.374 331.636 151.275 333.839 149.506 334.893L148.025 335.755C149.793 334.701 150.892 332.546 150.892 329.385C150.892 323.112 146.495 315.449 141.046 312.241C138.274 310.66 135.789 310.517 134.02 311.57L135.502 310.756Z" fill="#B7BBBC"/>
<path d="M141.094 312.337C146.543 315.497 150.94 323.16 150.94 329.481C150.94 335.755 146.495 338.293 141.046 335.132C135.598 331.971 131.152 324.309 131.152 318.035C131.152 311.714 135.597 309.176 141.094 312.337ZM140.998 332.929C145.396 335.467 149.028 333.408 149.028 328.332C149.028 323.207 145.444 316.982 141.046 314.444C136.601 311.858 133.017 313.917 132.969 319.041C132.969 324.165 136.553 330.391 140.998 332.929Z" fill="#CFD2D3"/>
<path d="M268.949 42.957L270.908 44.1064L127.807 126.908L164.992 148.554L308.094 65.7525L310.053 66.9019L164.992 150.805L123.887 126.908L268.949 42.957Z" fill="#FE2548"/>
<defs>
<linearGradient id="paint0_linear_14822_173009" x1="153.912" y1="297.569" x2="210.64" y2="369.531" gradientUnits="userSpaceOnUse">
<stop stop-color="#ADA6A3"/>
<stop offset="1" stop-color="#ADA6A3" stop-opacity="0"/>
</linearGradient>
<linearGradient id="paint1_linear_14822_173009" x1="215.712" y1="319.072" x2="272.44" y2="391.034" gradientUnits="userSpaceOnUse">
<stop stop-color="#9B928E"/>
<stop offset="1" stop-color="#A39893" stop-opacity="0"/>
</linearGradient>
</defs>
</svg>
