<svg width="75" height="90" viewBox="0 0 75 90" fill="none" xmlns="http://www.w3.org/2000/svg">
<path d="M64.5419 22.3689L66.3305 22.3775C68.0827 22.3832 69.4999 23.8061 69.4999 25.5583V57.3552C69.4999 59.1103 68.077 60.536 66.3191 60.536H26.9102" stroke="#4664FF" stroke-width="1.28837" stroke-miterlimit="10" stroke-linecap="round" stroke-linejoin="round"/>
<path d="M25.5417 22.3689H59.6119" stroke="#4664FF" stroke-width="0.572607" stroke-miterlimit="10" stroke-linecap="round" stroke-linejoin="round"/>
<path d="M14.7051 47.7325V24.9428C14.7051 23.5227 15.856 22.3689 17.2789 22.3689H20.6115" stroke="#4664FF" stroke-width="1.28837" stroke-miterlimit="10" stroke-linecap="round" stroke-linejoin="round"/>
<path d="M43.0292 48.0189C45.5797 48.0189 47.6473 45.9513 47.6473 43.4008C47.6473 40.8503 45.5797 38.7827 43.0292 38.7827C40.4787 38.7827 38.4111 40.8503 38.4111 43.4008C38.4111 45.9513 40.4787 48.0189 43.0292 48.0189Z" fill="#4664FF" stroke="#4664FF" stroke-width="1.28837" stroke-miterlimit="10"/>
<path d="M57.1896 48.0189C59.7401 48.0189 61.8077 45.9513 61.8077 43.4008C61.8077 40.8503 59.7401 38.7827 57.1896 38.7827C54.6391 38.7827 52.5715 40.8503 52.5715 43.4008C52.5715 45.9513 54.6391 48.0189 57.1896 48.0189Z" fill="#FF0028" stroke="#FF0028" stroke-width="1.28837" stroke-miterlimit="10"/>
<path d="M29.2924 48.0189C31.8429 48.0189 33.9104 45.9513 33.9104 43.4008C33.9104 40.8503 31.8429 38.7827 29.2924 38.7827C26.7419 38.7827 24.6743 40.8503 24.6743 43.4008C24.6743 45.9513 26.7419 48.0189 29.2924 48.0189Z" stroke="#4664FF" stroke-width="1.28837" stroke-miterlimit="10"/>
<path d="M66.3191 22.3689H64.542V25.1317C64.542 26.0107 63.8291 26.7207 62.953 26.7207H61.2008C60.3219 26.7207 59.6118 26.0078 59.6118 25.1317V22.3689H25.5417V25.1747C25.5417 26.0536 24.8288 26.7637 23.9527 26.7637H22.2005C21.3216 26.7637 20.6115 26.0508 20.6115 25.1747V22.3718H17.8859C16.1309 22.3718 14.7051 23.7947 14.7051 25.5526V29.1486H69.4999V25.5526C69.4999 23.7918 68.0742 22.3689 66.3191 22.3689Z" fill="#4664FF" stroke="#4664FF" stroke-width="0.572607" stroke-miterlimit="10" stroke-linecap="round" stroke-linejoin="round"/>
<path d="M14.7051 72.7411C21.4458 72.7411 26.9103 67.2766 26.9103 60.5359C26.9103 53.7952 21.4458 48.3308 14.7051 48.3308C7.96442 48.3308 2.5 53.7952 2.5 60.5359C2.5 67.2766 7.96442 72.7411 14.7051 72.7411Z" stroke="#4664FF" stroke-width="1.28837" stroke-miterlimit="10" stroke-linecap="round" stroke-linejoin="round"/>
<path d="M14.7051 51.6204V60.5359H6.09595" stroke="#4664FF" stroke-width="1.28837" stroke-miterlimit="10" stroke-linecap="round" stroke-linejoin="round"/>
<path d="M24.7286 26.741H21.4218C20.9723 26.741 20.6116 26.3774 20.6116 25.9308V18.8505C20.6116 18.401 20.9752 18.0403 21.4218 18.0403H24.7286C25.1781 18.0403 25.5388 18.4039 25.5388 18.8505V25.9308C25.5417 26.3803 25.1781 26.741 24.7286 26.741Z" stroke="#4664FF" stroke-width="1.28837" stroke-miterlimit="10" stroke-linecap="round" stroke-linejoin="round"/>
<path d="M63.7318 26.7008H60.425C59.9755 26.7008 59.6147 26.3372 59.6147 25.8905V18.8102C59.6147 18.3607 59.9784 18 60.425 18H63.7318C64.1813 18 64.5421 18.3636 64.5421 18.8102V25.8905C64.5421 26.3372 64.1784 26.7008 63.7318 26.7008Z" stroke="#4664FF" stroke-width="1.28837" stroke-miterlimit="10" stroke-linecap="round" stroke-linejoin="round"/>
</svg>
