<svg width="65" height="66" viewBox="0 0 65 66" fill="none" xmlns="http://www.w3.org/2000/svg">
<circle cx="13.2408" cy="9.10601" r="2.25694" stroke="#7B7794" stroke-width="1.80556"/>
<path d="M18.5068 18.5841C18.5068 15.8695 16.149 13.6689 13.2406 13.6689C10.3321 13.6689 7.97437 15.8695 7.97437 18.5841" stroke="#7B7794" stroke-width="1.80556" stroke-linecap="round"/>
<path d="M51.4584 58.3086V60.1141C51.4584 62.6071 49.4375 64.628 46.9445 64.628H5.41672C2.92377 64.628 0.902832 62.6071 0.902832 60.1142V5.94748C0.902832 3.45453 2.92377 1.43359 5.41672 1.43359H46.9445C49.4375 1.43359 51.4584 3.45453 51.4584 5.94748V29.4197" stroke="#7B7794" stroke-width="1.80556" stroke-linecap="round"/>
<line x1="26.1809" y1="10.4615" x2="44.2364" y2="10.4615" stroke="#7B7794" stroke-width="1.80556" stroke-linecap="round"/>
<line x1="26.1809" y1="18.5865" x2="44.2364" y2="18.5865" stroke="#7B7794" stroke-width="1.80556" stroke-linecap="round"/>
<line x1="8.12519" y1="26.7115" x2="44.2363" y2="26.7115" stroke="#7B7794" stroke-width="1.80556" stroke-linecap="round"/>
<line x1="8.12519" y1="34.8365" x2="29.7919" y2="34.8365" stroke="#7B7794" stroke-width="1.80556" stroke-linecap="round"/>
<circle cx="9.47911" cy="56.0519" r="2.25694" fill="#7B7794"/>
<circle cx="17.6041" cy="56.0519" r="2.25694" fill="#7B7794"/>
<circle cx="44.6874" cy="42.5089" r="9.47917" stroke="#7B7794" stroke-width="1.80556"/>
<path d="M58.2481 59.5295C59.1295 60.4109 60.5585 60.4109 61.4399 59.5295C62.3213 58.6481 62.3213 57.2191 61.4399 56.3377L58.2481 59.5295ZM49.8624 51.1438L58.2481 59.5295L61.4399 56.3377L53.0542 47.952L49.8624 51.1438Z" fill="#7B7794"/>
</svg>
