<svg width="65" height="64" viewBox="0 0 65 64" fill="none" xmlns="http://www.w3.org/2000/svg">
<path d="M1.8772 51.4917V56.3864C1.8772 58.0433 3.22034 59.3864 4.8772 59.3864H46C48.7614 59.3864 51 57.1478 51 54.3864V47.9829" stroke="#7B7794" stroke-width="2"/>
<path d="M46 1.49121H4.8772C3.22034 1.49121 1.8772 2.83436 1.8772 4.49121V51.4912H46C48.7614 51.4912 51 49.2526 51 46.4912V6.49121C51 3.72979 48.7614 1.49121 46 1.49121Z" stroke="#7B7794" stroke-width="2"/>
<line x1="5.26318" y1="50.4912" x2="5.26319" y2="1.61402" stroke="#7B7794" stroke-width="2" stroke-linecap="round"/>
<path d="M17.5316 33.0703L13.6895 20.5439H15.8824L18.9702 31.0001H19.8123L22.9 20.5439H25.0754L21.2333 33.0703H17.5316Z" fill="#7B7794"/>
<path d="M27.0144 20.5439H29.1197V33.0703H27.0144V20.5439Z" fill="#7B7794"/>
<path d="M32.255 20.5439H37.7637C39.1556 20.5439 40.2316 20.889 40.9918 21.579C41.7637 22.2574 42.1497 23.1989 42.1497 24.4036C42.1497 25.6434 41.7637 26.6083 40.9918 27.2983C40.2316 27.9767 39.1556 28.3159 37.7637 28.3159H34.3602V33.0703H32.255V20.5439ZM34.3602 26.4562H37.448C39.1556 26.4562 40.0094 25.7779 40.0094 24.4211C40.0094 23.7545 39.8105 23.2515 39.4129 22.9124C39.0152 22.5732 38.3602 22.4036 37.448 22.4036H34.3602V26.4562Z" fill="#7B7794"/>
</svg>
