<svg width="415" height="264" viewBox="0 0 415 264" fill="none" xmlns="http://www.w3.org/2000/svg">
<rect y="0.956055" width="415" height="263" rx="5" fill="#AEB5D1"/>
<g opacity="0.4">
<path d="M94.7194 105.06L64.4821 122.345L221.428 213.096H238.419L94.7194 105.06Z" fill="#ADA6A3"/>
</g>
<path d="M238.708 213.096L78.3059 120.329V105.06L238.708 136.75V213.096Z" fill="#D2CFCC"/>
<path d="M352.166 147.411L238.704 213.097V136.751L352.166 132.43V147.411Z" fill="#E9E6E6"/>
<path d="M352.172 132.429L238.71 197.827L78.3076 105.06L191.77 39.6621L352.172 132.429Z" fill="#F8F5F4"/>
<path d="M112.007 112.548L111.143 113.124L102.791 108.227L103.655 107.65L112.007 112.548Z" fill="#7B9FE1"/>
<path d="M113.163 111.971L112.011 112.547L105.1 108.514L106.252 107.938L113.163 111.971Z" fill="#2D6AD8"/>
<path d="M116.324 109.954L115.173 110.53L107.685 106.209L108.549 105.633L116.324 109.954Z" fill="#7B9FE1"/>
<path d="M117.476 109.379L116.324 109.955L107.685 105.058L108.837 104.481L117.476 109.379Z" fill="#2D6AD8"/>
<path d="M120.64 107.65L119.488 108.226L108.545 101.888L109.697 101.312L120.64 107.65Z" fill="#7B9FE1"/>
<path d="M121.506 107.073L120.354 107.65L112.579 103.04L113.731 102.464L121.506 107.073Z" fill="#2D6AD8"/>
<path d="M124.679 105.056L123.527 105.92L114.024 100.158L115.175 99.582L124.679 105.056Z" fill="#7B9FE1"/>
<path d="M125.835 104.48L124.683 105.344L116.332 100.446L117.484 99.582L125.835 104.48Z" fill="#2D6AD8"/>
<path d="M137.345 97.8537L136.194 98.43L126.402 92.668L127.554 92.0918L137.345 97.8537Z" fill="#7B9FE1"/>
<path d="M138.495 97.2775L137.343 97.8537L128.128 92.668L129.279 92.0918L138.495 97.2775Z" fill="#2D6AD8"/>
<path d="M141.663 95.55L140.511 96.1261L133.312 92.0928L134.464 91.2285L141.663 95.55Z" fill="#7B9FE1"/>
<path d="M142.527 94.6848L141.663 95.5491L131.872 89.7872L133.024 89.2109L142.527 94.6848Z" fill="#2D6AD8"/>
<path d="M145.698 92.9553L144.834 93.5316L131.299 85.7529L132.451 85.1768L145.698 92.9553Z" fill="#7B9FE1"/>
<path d="M146.85 92.3792L145.698 92.9553L134.467 86.6172L135.619 86.041L146.85 92.3792Z" fill="#2D6AD8"/>
<path d="M150.017 90.6516L148.865 91.2278L137.058 84.3134L138.21 83.7373L150.017 90.6516Z" fill="#7B9FE1"/>
<path d="M151.169 90.0764L150.017 90.6526L140.226 84.8907L141.378 84.3145L151.169 90.0764Z" fill="#2D6AD8"/>
<path d="M154.334 88.0587L153.183 88.6349L145.983 84.6015L147.135 84.0254L154.334 88.0587Z" fill="#7B9FE1"/>
<path d="M155.2 87.4826L154.048 88.0588L145.409 83.1611L146.561 82.585L155.2 87.4826Z" fill="#2D6AD8"/>
<path d="M128.996 102.75L127.844 103.326L122.661 100.445L123.813 99.8691L128.996 102.75Z" fill="#7B9FE1"/>
<path d="M130.146 102.175L128.994 102.751L120.067 97.5654L121.219 96.9893L130.146 102.175Z" fill="#2D6AD8"/>
<path d="M133.032 100.447L132.168 101.024L126.984 98.1427L128.136 97.2783L133.032 100.447Z" fill="#7B9FE1"/>
<path d="M134.188 99.5821L133.037 100.446L129.293 98.1417L130.445 97.5654L134.188 99.5821Z" fill="#2D6AD8"/>
<path d="M157.22 87.4824L110.568 114.564L109.416 113.987L156.356 86.9062L157.22 87.4824Z" fill="#7B9FE1"/>
<path d="M163.837 82.5852L162.685 83.1613L155.774 79.128L156.638 78.5518L163.837 82.5852Z" fill="#7B9FE1"/>
<path d="M164.993 82.009L163.842 82.5852L158.082 79.4161L159.234 78.5518L164.993 82.009Z" fill="#2D6AD8"/>
<path d="M168.155 80.2796L167.003 80.8556L164.411 79.1277L165.275 78.5518L168.155 80.2796Z" fill="#7B9FE1"/>
<path d="M169.019 79.4171L168.155 80.2814L164.411 77.9766L165.275 77.4004L169.019 79.4171Z" fill="#2D6AD8"/>
<path d="M172.185 77.6887L171.321 78.2649L162.97 73.6553L164.122 73.0791L172.185 77.6887Z" fill="#7B9FE1"/>
<path d="M173.338 77.1124L172.186 77.6886L168.154 75.3838L169.306 74.8076L173.338 77.1124Z" fill="#2D6AD8"/>
<path d="M176.508 75.3841L175.356 75.96L172.477 74.2321L173.628 73.6562L176.508 75.3841Z" fill="#7B9FE1"/>
<path d="M177.662 74.8087L176.51 75.3849L171.902 72.504L173.054 71.9277L177.662 74.8087Z" fill="#2D6AD8"/>
<path d="M189.178 67.8948L188.026 68.4709L177.659 62.709L178.811 62.1328L189.178 67.8948Z" fill="#7B9FE1"/>
<path d="M190.332 67.3185L189.18 67.8948L180.253 62.709L181.117 62.1328L190.332 67.3185Z" fill="#2D6AD8"/>
<path d="M193.205 65.5892L192.341 66.1654L177.943 57.8106L178.807 57.2344L193.205 65.5892Z" fill="#7B9FE1"/>
<path d="M194.355 65.013L193.203 65.5892L179.668 57.8106L180.82 57.2344L194.355 65.013Z" fill="#2D6AD8"/>
<path d="M197.535 62.9953L196.383 63.8596L187.168 58.3857L188.032 57.8096L197.535 62.9953Z" fill="#7B9FE1"/>
<path d="M198.69 62.4181L197.538 63.2824L190.051 58.6728L190.914 58.0967L198.69 62.4181Z" fill="#2D6AD8"/>
<path d="M201.855 60.6907L200.703 61.2669L189.76 55.2169L190.912 54.3525L201.855 60.6907Z" fill="#7B9FE1"/>
<path d="M202.719 60.1154L201.855 60.6916L192.928 55.7939L194.08 54.9297L202.719 60.1154Z" fill="#2D6AD8"/>
<path d="M205.877 58.3858L205.013 58.962L199.541 55.7929L200.693 55.2168L205.877 58.3858Z" fill="#7B9FE1"/>
<path d="M207.026 57.5225L205.874 58.3868L201.266 55.5058L202.418 54.9297L207.026 57.5225Z" fill="#2D6AD8"/>
<path d="M180.536 72.7902L179.672 73.3664L170.745 68.4687L171.897 67.6045L180.536 72.7902Z" fill="#7B9FE1"/>
<path d="M181.69 72.2141L180.538 72.7903L170.171 67.0283L171.323 66.1641L181.69 72.2141Z" fill="#2D6AD8"/>
<path d="M184.866 70.4866L183.714 71.0628L175.363 66.1651L176.227 65.5889L184.866 70.4866Z" fill="#7B9FE1"/>
<path d="M186.022 69.9103L184.87 70.4866L177.671 66.1651L178.823 65.5889L186.022 69.9103Z" fill="#2D6AD8"/>
<path d="M209.049 57.5225L162.109 84.6036L161.245 84.0275L208.185 56.9463L209.049 57.5225Z" fill="#7B9FE1"/>
<path d="M154.621 99.8702L119.776 119.749L114.881 116.868L149.726 96.9893L154.621 99.8702Z" fill="#2D6AD8"/>
<path d="M122.944 118.02L119.776 119.748L114.881 116.867L118.048 115.139L122.944 118.02Z" fill="#F25A5A"/>
<path d="M186.302 81.4327L151.457 101.6L146.562 98.7186L181.407 78.5518L186.302 81.4327Z" fill="#2D6AD8"/>
<path d="M154.625 99.5831L151.457 101.6L146.562 98.7188L149.729 96.7021L154.625 99.5831Z" fill="#97CC66"/>
<path d="M217.974 62.9962L183.129 83.163L178.234 80.282L213.079 60.1152L217.974 62.9962Z" fill="#2D6AD8"/>
<path d="M186.585 81.4337L183.129 83.1623L178.234 80.2813L181.402 78.5527L186.585 81.4337Z" fill="#44BFE5"/>
<path d="M190.041 75.3838L184.57 78.5528L183.994 78.2648L189.465 75.0957L190.041 75.3838Z" fill="#E1E9F4"/>
<path d="M192.918 73.6552L190.614 75.0951L190.326 74.5191L192.342 73.3672L192.918 73.6552Z" fill="#E1E9F4"/>
<path d="M190.043 78.2636L187.163 79.9914L186.587 79.4155L189.467 77.9756L190.043 78.2636Z" fill="#E1E9F4"/>
<path d="M197.238 73.9434L190.902 77.6886L190.326 77.4005L196.662 73.6553L197.238 73.9434Z" fill="#E1E9F4"/>
<path d="M201.559 71.3504L198.104 73.3663L197.528 73.0783L200.983 71.0625L201.559 71.3504Z" fill="#E1E9F4"/>
<path d="M158.37 93.5362L153.186 96.7052L152.61 96.4171L157.794 93.248L158.37 93.5362Z" fill="#E1E9F4"/>
<path d="M161.534 91.8075L159.23 93.2474L158.655 92.6715L160.958 91.5195L161.534 91.8075Z" fill="#E1E9F4"/>
<path d="M158.372 96.4159L155.492 98.1438L155.204 97.5678L157.796 96.1279L158.372 96.4159Z" fill="#E1E9F4"/>
<path d="M165.854 92.0957L159.23 95.841L158.655 95.5529L165.278 91.8076L165.854 92.0957Z" fill="#E1E9F4"/>
<path d="M170.176 89.5028L166.72 91.5186L166.144 91.2307L169.6 89.2148L170.176 89.5028Z" fill="#E1E9F4"/>
<path d="M126.976 111.684L121.792 114.853L121.216 114.565L126.4 111.396L126.976 111.684Z" fill="#E1E9F4"/>
<path d="M130.14 109.955L127.836 111.395L127.26 110.819L129.564 109.667L130.14 109.955Z" fill="#E1E9F4"/>
<path d="M126.98 114.563L124.101 116.291L123.525 115.715L126.404 114.275L126.98 114.563Z" fill="#E1E9F4"/>
<path d="M134.46 110.243L127.836 113.988L127.26 113.7L133.884 109.955L134.46 110.243Z" fill="#E1E9F4"/>
<path d="M138.782 107.65L135.326 109.666L134.75 109.378L138.206 107.362L138.782 107.65Z" fill="#E1E9F4"/>
<path d="M256.853 115.145C242.742 123.212 220.28 123.212 206.169 115.145C192.058 107.078 192.058 93.8257 206.169 85.759C220.28 77.6923 242.742 77.6923 256.853 85.759C270.963 93.8257 270.963 107.078 256.853 115.145Z" fill="#4188EF"/>
<path d="M256.855 115.146C242.744 123.213 220.282 123.213 206.171 115.146V118.027C220.282 126.094 242.744 126.094 256.855 118.027C264.054 113.994 267.51 108.52 267.222 103.334V100.453C267.51 105.639 264.054 111.113 256.855 115.146Z" fill="#2D6AD8"/>
<path d="M232.089 90.943L231.801 100.162H231.225L206.171 85.7572V75.9619L232.089 90.943Z" fill="#2D6AD8"/>
<path d="M231.799 90.943V100.45L257.14 85.7572V76.25L231.799 90.943Z" fill="#2D6AD8"/>
<path opacity="0.4" d="M257.138 76.2513L231.796 90.9443L206.167 76.2513C220.277 67.8965 243.027 68.1846 257.138 76.2513Z" fill="#4188EF"/>
<path d="M195.514 94.4023V99.3L231.799 100.164V94.4023H195.514Z" fill="#2D6AD8"/>
<path opacity="0.4" d="M206.169 79.4199C199.258 83.4533 195.514 88.9271 195.514 94.4009H231.799L206.169 79.4199Z" fill="#4188EF"/>
<path d="M206.169 111.975C200.986 109.094 197.53 105.349 196.09 100.739C195.802 99.587 195.514 98.4346 195.514 97.2822V98.1466C195.514 99.8752 195.514 104.197 196.09 105.925V106.213C197.242 110.535 200.698 114.568 206.457 117.737C206.745 117.737 207.033 118.025 207.033 118.025V112.263C206.745 112.551 206.457 112.263 206.169 111.975Z" fill="#2D6AD8"/>
<path d="M231.797 97.5693V100.45L207.031 115.72V112.55L231.797 97.5693Z" fill="#2D6AD8"/>
<path opacity="0.4" d="M231.799 97.5703L207.033 112.551C206.745 112.263 206.457 112.263 206.169 111.975C200.986 109.094 197.53 105.349 196.09 100.739C195.802 99.587 195.514 98.4346 195.514 97.2822L231.799 97.5703Z" fill="#4188EF"/>
<path d="M157.787 119.467L140.508 129.55L138.493 128.398L156.059 118.314L157.787 119.467Z" fill="#F25A5A"/>
<path d="M152.316 126.668L143.677 131.566L141.949 130.413L150.3 125.516L152.316 126.668Z" fill="#F25A5A"/>
<path d="M174.491 117.449L147.133 133.295L145.405 132.43L172.763 116.297L174.491 117.449Z" fill="#97CC66"/>
<path d="M190.902 111.975L150.298 135.311L148.57 134.158L188.887 110.822L190.902 111.975Z" fill="#97CC66"/>
<path d="M191.191 115.719L153.754 137.326L152.027 136.174L189.175 114.566L191.191 115.719Z" fill="#97CC66"/>
<path d="M189.179 120.617L157.213 139.055L155.198 138.191L187.163 119.753L189.179 120.617Z" fill="#2D6AD8"/>
<path d="M186.008 126.091L160.379 141.072L158.651 139.92L184.281 125.227L186.008 126.091Z" fill="#2D6AD8"/>
<path d="M183.99 131.277L163.832 143.089L162.104 141.937L182.262 130.125L183.99 131.277Z" fill="#44BFE5"/>
<path d="M199.256 126.38L167.003 144.818L165.275 143.954L197.24 125.516L199.256 126.38Z" fill="#44BFE5"/>
<path d="M203.864 127.532L170.459 146.835L168.731 145.971L202.137 126.38L203.864 127.532Z" fill="#86B1FF"/>
<path d="M201.558 132.717L173.912 148.85L171.896 147.698L199.542 131.853L201.558 132.717Z" fill="#86B1FF"/>
<path d="M199.834 137.614L177.084 150.867L175.356 149.714L198.106 136.462L199.834 137.614Z" fill="#2D6AD8"/>
<path d="M212.502 134.158L180.537 152.596L178.809 151.732L210.774 133.006L212.502 134.158Z" fill="#F25A5A"/>
<path d="M217.971 135.022L183.702 154.613L181.974 153.461L216.243 133.87L217.971 135.022Z" fill="#F25A5A"/>
<path d="M184.856 154.901L183.704 155.478L137.052 128.397L138.204 127.82L184.856 154.901Z" fill="#86B1FF"/>
<path d="M199.542 162.102C200.694 162.678 200.694 163.831 199.542 164.407C198.39 164.983 196.662 164.983 195.51 164.407C194.358 163.831 194.358 162.678 195.51 162.102C196.662 161.526 198.39 161.526 199.542 162.102Z" fill="#2D6AD8"/>
<path d="M209.045 167.577C210.197 168.153 210.197 169.305 209.045 169.881C207.893 170.458 206.166 170.458 205.014 169.881C203.862 169.305 203.862 168.153 205.014 167.577C206.454 167 208.181 167 209.045 167.577Z" fill="#2D6AD8"/>
<path d="M218.835 173.051C219.986 173.627 219.986 174.78 218.835 175.356C217.683 175.932 215.955 175.932 214.803 175.356C213.651 174.78 213.651 173.627 214.803 173.051C215.955 172.475 217.683 172.475 218.835 173.051Z" fill="#2D6AD8"/>
<path d="M228.338 178.812C229.49 179.388 229.49 180.541 228.338 181.117C227.186 181.693 225.458 181.693 224.306 181.117C223.155 180.541 223.155 179.388 224.306 178.812C225.458 177.948 227.186 177.948 228.338 178.812Z" fill="#2D6AD8"/>
<path d="M237.842 184.288C238.994 184.864 238.994 186.016 237.842 186.592C236.69 187.169 234.962 187.169 233.81 186.592C232.658 186.016 232.658 184.864 233.81 184.288C234.962 183.711 236.69 183.711 237.842 184.288Z" fill="#2D6AD8"/>
<path d="M251.086 134.734L256.846 131.277L255.982 130.989L250.222 134.446L251.086 134.734ZM225.456 149.715L238.415 142.224L237.551 141.936L224.593 149.427L225.456 149.715ZM239.279 141.648L249.934 135.31L249.07 135.022L238.415 141.36L239.279 141.648ZM224.305 150.291L223.441 150.003L205.298 160.663L206.162 160.951L224.305 150.291ZM257.71 130.989L265.773 126.379L264.909 126.091L256.846 130.7L257.71 130.989ZM203.282 158.934L209.33 155.477L208.466 155.189L202.418 158.646L203.282 158.934ZM255.982 127.819L256.846 128.108L264.045 124.074L263.181 123.786L255.982 127.819ZM242.735 136.174L255.694 128.684L254.83 128.396L241.871 135.886L242.735 136.174ZM235.824 140.208L241.583 136.751L240.719 136.462L234.96 139.92L235.824 140.208ZM227.76 144.817L234.96 140.784L234.096 140.496L226.896 144.529L227.76 144.817ZM210.482 154.901L226.896 145.393L226.032 145.105L209.618 154.613L210.482 154.901Z" fill="#86B1FF"/>
<path d="M244.756 144.529L245.62 144.817L256.275 138.479L255.411 138.191L244.756 144.529ZM244.468 145.681L243.604 145.393L230.646 152.884L231.509 153.172L244.468 145.681ZM246.772 146.834L247.636 147.122L254.835 143.089L253.971 142.8L246.772 146.834ZM254.835 142.224L255.699 142.512L261.459 139.055L260.595 138.767L254.835 142.224ZM274.706 130.7L261.747 138.191L262.611 138.479L275.57 130.988L274.706 130.7ZM228.918 158.07L228.054 157.781L214.519 165.56L215.383 165.848L228.918 158.07ZM268.37 130.988L256.563 137.903L257.427 138.191L269.234 131.277L268.37 130.988ZM230.646 153.748L229.782 153.46L211.351 164.12L212.215 164.408L230.646 153.748ZM269.234 130.412L270.098 130.7L277.009 126.667L276.146 126.379L269.234 130.412ZM246.484 147.986L245.62 147.698L229.206 157.205L230.07 157.493L246.484 147.986Z" fill="#86B1FF"/>
<path d="M249.362 153.46L250.226 153.748L257.426 149.714L256.562 149.426L249.362 153.46ZM251.09 156.629L250.226 156.341L237.555 163.543L238.419 163.831L251.09 156.629ZM263.185 145.393L257.426 148.85L258.29 149.138L264.049 145.681L263.185 145.393ZM264.337 144.817L265.201 145.105L278.16 137.614L277.296 137.326L264.337 144.817ZM277.584 141.36L285.071 137.038L284.207 136.75L276.72 141.072L277.584 141.36ZM231.508 164.407L230.644 164.119L221.429 169.593L222.293 169.881L231.508 164.407ZM248.211 154.036L231.796 163.543L232.66 163.831L249.074 154.324L248.211 154.036ZM251.378 155.476L252.242 155.764L265.201 148.274L264.337 147.986L251.378 155.476ZM275.856 141.36L265.201 147.698L266.065 147.986L276.72 141.648L275.856 141.36ZM281.904 134.445L278.16 136.75L279.024 137.038L282.767 134.733L281.904 134.445ZM237.267 164.407L236.404 164.119L224.309 171.034L225.173 171.322L237.267 164.407Z" fill="#86B1FF"/>
<path d="M253.97 166.136L266.929 158.645L266.065 158.357L253.106 165.848L253.97 166.136ZM267.793 158.069L278.448 151.731L277.584 151.443L266.929 157.781L267.793 158.069ZM252.818 166.712L251.955 166.424L233.812 177.083L234.676 177.372L252.818 166.712ZM231.796 175.355L237.844 171.898L236.98 171.61L230.932 175.067L231.796 175.355ZM284.496 144.24L285.36 144.528L292.559 140.495L291.695 140.207L284.496 144.24ZM271.249 152.595L284.208 145.105L283.344 144.817L270.385 152.307L271.249 152.595ZM264.337 156.629L270.097 153.171L269.233 152.883L263.474 156.34L264.337 156.629ZM256.274 161.238L263.474 157.205L262.61 156.917L255.41 160.95L256.274 161.238ZM238.996 171.321L255.41 161.814L254.546 161.526L238.132 171.033L238.996 171.321Z" fill="#86B1FF"/>
<path d="M281.327 156.917L281.902 157.493L292.846 151.155L291.982 150.867L281.327 156.917Z" fill="#86B1FF"/>
<path d="M271.246 166.137L272.11 166.425L279.309 162.392L278.445 162.104L271.246 166.137Z" fill="#86B1FF"/>
<path d="M280.178 157.493L267.507 164.984L268.083 165.272L281.042 158.069L280.178 157.493Z" fill="#86B1FF"/>
<path d="M290.541 154.9L279.598 161.527L280.174 161.815L291.405 155.477L290.541 154.9Z" fill="#86B1FF"/>
<path d="M267.218 165.848L266.354 165.56L240.436 180.541L241.3 180.829L267.218 165.848Z" fill="#86B1FF"/>
<path d="M293.132 150.291L293.708 150.579L299.468 147.41L298.604 146.834L293.132 150.291Z" fill="#86B1FF"/>
<path d="M253.683 177.084L252.819 176.796L243.604 182.27L244.468 182.558L253.683 177.084Z" fill="#86B1FF"/>
<path d="M270.385 166.712L253.97 176.219L254.546 176.507L270.961 167L270.385 166.712Z" fill="#86B1FF"/>
<path d="M299.76 146.258L300.624 146.834L305.231 143.953L304.655 143.377L299.76 146.258Z" fill="#86B1FF"/>
<path d="M97.8893 154.326V150.58L84.3545 142.514V146.259C84.3545 147.123 84.6425 147.699 85.2184 147.987L98.7532 156.054C98.1773 155.766 97.8893 155.19 97.8893 154.326Z" fill="#5169CE"/>
<path d="M101.059 130.989C100.483 130.701 99.9072 130.701 99.3313 131.277L86.9484 138.48L100.483 146.546L112.866 139.344C113.442 139.056 114.306 138.768 114.594 139.056L101.059 130.989Z" fill="#788EFF"/>
<path d="M97.8924 150.582L84.3575 142.515C84.3575 140.786 85.5094 139.058 86.9493 138.193L100.484 146.26C99.0443 147.124 97.8924 149.141 97.8924 150.582Z" fill="#788EFF"/>
<path d="M112.864 139.057C114.304 138.193 115.456 138.769 115.456 140.498V144.243C115.456 145.972 114.304 147.7 112.864 148.564L100.481 155.767C99.0412 156.631 97.8893 156.055 97.8893 154.326V150.581C97.8893 148.853 99.0412 147.124 100.481 146.26L112.864 139.057Z" fill="#252321"/>
<path d="M170.463 170.459L105.957 133.007C106.82 132.43 107.396 132.43 107.972 132.719L172.479 170.171C171.903 169.883 171.327 170.171 170.463 170.459Z" fill="#373431"/>
<path d="M153.184 188.033V184L88.6776 146.547V150.58C88.6776 151.445 88.9656 152.021 89.5415 152.309L154.048 189.761C153.472 189.473 153.184 188.897 153.184 188.033Z" fill="#1E1B19"/>
<path d="M156.064 178.812L91.2701 141.36L105.669 133.005L170.463 170.458L156.064 178.812Z" fill="#2D2B29"/>
<path d="M153.184 183.71L88.6776 146.257C88.6776 144.528 89.8295 142.224 91.5574 141.359L156.064 178.812C154.336 179.676 153.184 181.981 153.184 183.71Z" fill="#373431"/>
<path d="M170.46 170.459C172.188 169.595 173.34 170.171 173.34 172.188V176.221C173.34 177.95 172.188 180.255 170.46 181.119L156.061 189.474C154.333 190.338 153.182 189.762 153.182 187.745V183.712C153.182 181.983 154.333 179.678 156.061 178.814L170.46 170.459Z" fill="#252321"/>
<path d="M171.613 173.053C171.325 172.764 170.749 172.764 170.174 173.341L157.791 180.543C156.639 181.119 155.775 182.848 155.775 184.288V187.169C155.775 187.745 156.063 188.322 156.351 188.61L173.341 192.067C173.341 192.067 174.205 192.355 174.781 191.779L177.661 190.05C178.813 189.474 179.101 184.576 179.101 184.576L171.613 173.053Z" fill="#1E1B19"/>
<path d="M185.149 188.033L176.797 183.135C177.085 182.847 177.661 182.847 177.949 183.135L186.3 188.033C186.012 188.033 185.724 188.033 185.149 188.033Z" fill="#373431"/>
<path d="M180.254 194.948V192.643L171.903 187.745V190.05C171.903 190.626 172.191 190.914 172.479 190.914L180.83 195.812C180.542 195.812 180.254 195.524 180.254 194.948Z" fill="#1E1B19"/>
<path d="M181.692 190.051L173.629 185.153L176.796 183.425L185.148 188.034L181.692 190.051Z" fill="#2D2B29"/>
<path d="M180.257 192.643L171.906 187.745C171.906 186.881 172.482 185.729 173.346 185.152L181.697 190.05C180.833 190.626 180.257 191.779 180.257 192.643Z" fill="#373431"/>
<path d="M185.149 188.033C186.013 187.457 186.589 188.033 186.589 188.897V191.202C186.589 192.066 186.013 193.218 185.149 193.795L181.694 195.811C180.83 196.388 180.254 195.811 180.254 194.947V192.642C180.254 191.778 180.83 190.626 181.694 190.049L185.149 188.033Z" fill="#252321"/>
<path d="M185.721 189.186L181.401 191.778V194.659L186.297 197.54C186.585 197.828 186.873 197.54 186.873 197.252L188.025 193.795V193.507V191.202C188.025 190.914 187.737 190.626 187.449 190.338L185.721 189.186Z" fill="#788EFF"/>
<path d="M117.761 150.579L101.922 141.649L106.818 138.768L122.656 147.987L117.761 150.579Z" fill="#3F474F"/>
<path d="M127.264 153.173L129.28 154.325L128.992 154.614L126.976 153.461L127.264 153.173ZM125.536 154.325L125.824 154.037L124.384 153.173L123.52 152.597L123.232 152.885L124.096 153.461L125.536 154.325ZM122.944 152.309L120.64 150.868L120.352 151.156L122.656 152.597L122.944 152.309ZM125.248 152.597L126.4 153.173L126.688 152.885L124.96 151.733L122.08 150.004L121.792 150.292L125.248 152.597ZM123.808 150.004L126.112 151.444L126.4 151.156L124.096 149.716L123.232 149.14L122.944 149.428L123.808 150.004ZM128.704 152.597L129.568 153.173L129.856 152.885L128.704 152.309L127.264 151.444L126.976 151.733L128.704 152.597ZM135.327 156.054L134.175 155.478L133.887 155.766L135.039 156.342L135.327 156.054ZM133.599 155.19L132.735 154.614L132.447 154.902L133.311 155.478L133.599 155.19ZM133.887 156.918L132.159 156.054L131.871 156.342L133.599 157.206L133.887 156.918ZM129.856 156.342L128.992 156.054L128.704 156.342L129.568 156.63L129.856 156.342ZM130.432 156.918L130.144 157.206L132.159 158.359L132.447 158.071L130.432 156.918Z" fill="#3F474F"/>
<path d="M84.3555 181.982V178.237L70.8207 170.17V173.915C70.8207 174.779 71.1087 175.356 71.6846 175.644L85.2194 183.71C84.6435 183.422 84.3555 182.846 84.3555 181.982Z" fill="#CE307C"/>
<path d="M87.5252 158.646C86.9493 158.358 86.3733 158.358 85.7974 158.934L73.4144 166.137L86.9492 174.203L99.3322 167.001C99.9081 166.713 100.772 166.425 101.06 166.713L87.5252 158.646Z" fill="#FF398F"/>
<path d="M84.3556 178.525L70.8208 170.458C70.8208 168.73 71.9727 167.001 73.4126 166.137L86.9474 174.203C85.5075 174.78 84.3556 176.796 84.3556 178.525Z" fill="#FF398F"/>
<path d="M99.3293 167.001C100.769 166.136 101.921 166.713 101.921 168.441V172.186C101.921 173.915 100.769 175.643 99.3293 176.508L86.9464 183.71C85.5065 184.574 84.3546 183.998 84.3546 182.27V178.524C84.3546 176.796 85.5065 175.067 86.9464 174.203L99.3293 167.001Z" fill="#252321"/>
<path d="M156.634 198.116L92.1281 160.664C92.992 160.088 93.5679 160.088 94.1439 160.376L158.65 197.828C158.362 197.828 157.498 197.828 156.634 198.116Z" fill="#373431"/>
<path d="M139.36 215.691V211.658L74.854 174.205V178.238C74.854 179.103 75.142 179.679 75.7179 179.967L140.224 217.42C139.648 217.42 139.36 216.555 139.36 215.691Z" fill="#1E1B19"/>
<path d="M142.238 206.47L77.7319 169.017L92.1307 160.662L156.637 198.115L142.238 206.47Z" fill="#2D2B29"/>
<path d="M139.36 211.656L74.854 174.203C74.854 172.475 76.0059 170.17 77.7338 169.306L142.24 206.758C140.8 207.334 139.36 209.639 139.36 211.656Z" fill="#373431"/>
<path d="M156.638 198.116C158.366 197.252 159.518 197.828 159.518 199.845V203.878C159.518 205.607 158.366 207.912 156.638 208.776L142.239 217.131C140.512 217.995 139.36 217.419 139.36 215.402V211.369C139.36 209.64 140.512 207.336 142.239 206.471L156.638 198.116Z" fill="#252321"/>
<path d="M157.787 200.71C157.499 200.422 156.923 200.422 156.347 200.998L143.964 208.2C142.813 208.776 141.949 210.505 141.949 211.946V214.827C141.949 215.403 142.237 215.979 142.525 216.267L159.515 219.724C159.515 219.724 160.379 220.012 160.955 219.436L163.835 217.707C164.987 217.131 165.275 212.234 165.275 212.234L157.787 200.71Z" fill="#1E1B19"/>
<path d="M171.608 215.981L163.257 211.083C163.545 210.795 164.121 210.795 164.409 211.083L172.76 215.981C172.184 215.693 171.896 215.693 171.608 215.981Z" fill="#373431"/>
<path d="M166.421 222.607V220.302L158.07 215.404V217.709C158.07 218.285 158.358 218.573 158.646 218.573L166.997 223.471C166.709 223.471 166.421 223.183 166.421 222.607Z" fill="#1E1B19"/>
<path d="M168.15 217.997L159.798 213.1L163.254 211.083L171.605 215.981L168.15 217.997Z" fill="#2D2B29"/>
<path d="M166.418 220.59L158.067 215.692C158.067 214.828 158.643 213.676 159.507 213.1L167.858 217.997C167.282 218.285 166.418 219.438 166.418 220.59Z" fill="#373431"/>
<path d="M171.603 215.98C172.467 215.404 173.043 215.98 173.043 216.844V219.149C173.043 220.013 172.467 221.166 171.603 221.742L168.147 223.759C167.283 224.335 166.707 223.759 166.707 222.894V220.59C166.707 219.725 167.283 218.573 168.147 217.997L171.603 215.98Z" fill="#252321"/>
<path d="M171.895 216.843L167.576 219.436V222.317L172.471 225.198C172.759 225.486 173.047 225.198 173.047 224.91L174.199 221.452V221.164V218.859C174.199 218.571 173.911 218.283 173.623 217.995L171.895 216.843Z" fill="#FF398F"/>
<path d="M103.93 178.525L88.3795 169.306L93.2751 166.425L108.826 175.644L103.93 178.525Z" fill="#3F474F"/>
<path d="M113.724 181.118L115.739 182.271L115.451 182.559L113.436 181.406L113.724 181.118ZM111.996 182.271L112.284 181.983L110.844 181.118L109.98 180.542L109.692 180.83L110.556 181.406L111.996 182.271ZM109.116 180.254L106.812 178.814L106.524 179.102L108.828 180.542L109.116 180.254ZM111.42 180.254L112.572 180.83L112.86 180.542L111.132 179.39L108.252 177.661L107.964 177.949L111.42 180.254ZM110.268 177.661L112.572 179.102L112.86 178.814L110.556 177.373L109.692 176.797L109.404 177.085L110.268 177.661ZM114.875 180.542L115.739 181.118L116.027 180.83L114.875 180.254L113.436 179.39L113.148 179.678L114.875 180.542ZM121.787 183.999L120.635 183.423L120.347 183.711L121.499 184.287L121.787 183.999ZM119.771 182.847L118.907 182.271L118.619 182.559L119.483 183.135L119.771 182.847ZM120.059 184.864L118.331 183.999L118.043 184.287L119.771 185.152L120.059 184.864ZM116.027 183.999L115.163 183.711L114.875 183.999L115.739 184.287L116.027 183.999ZM116.891 184.576L116.603 184.864L118.619 186.016L118.907 185.728L116.891 184.576Z" fill="#3F474F"/>
</svg>
