<svg width="345" height="218" viewBox="0 0 345 218" fill="none" xmlns="http://www.w3.org/2000/svg">
<rect width="345" height="218" rx="5" fill="#AEB5D1"/>
<path opacity="0.4" d="M74.2231 189.999L83.8258 195.555H143.363L161.416 139.807L74.2231 189.999Z" fill="#7B7794"/>
<path d="M127.033 104.366C126.265 106.09 117.239 124.865 108.788 144.214C108.788 144.214 108.788 144.214 108.596 144.405L205.583 88.4655C205.583 88.4655 205.583 88.4655 205.775 88.2739C214.418 68.7334 223.252 49.9591 224.021 48.4265L127.033 104.366Z" fill="#191715"/>
<path d="M230.358 60.1123L225.364 48.2347C225.364 48.0431 225.172 48.0431 225.172 48.0431L224.98 47.8515L223.636 47.0852C223.444 47.0852 223.444 47.0852 223.252 47.0852L126.457 103.025C126.457 103.025 126.649 103.025 126.841 103.025L128.185 103.791L128.377 103.983L128.569 104.174L133.563 116.052C133.755 116.244 133.563 116.627 133.563 116.627L230.55 60.687C230.55 60.687 230.55 60.3039 230.358 60.1123Z" fill="#373431"/>
<path d="M133.371 116.052L128.378 104.174C128.378 103.983 128.186 103.791 127.994 103.791L126.649 103.025C126.457 102.833 126.265 103.025 126.265 103.025C126.265 103.216 117.239 121.991 107.828 143.255C107.828 143.447 107.828 143.83 108.02 144.022L108.212 144.213C108.404 144.405 108.596 144.213 108.596 144.213C117.239 124.673 126.073 105.898 126.841 104.366L127.61 104.749L133.179 118.159C133.563 118.351 133.563 116.435 133.371 116.052Z" fill="#1E1B19"/>
<path d="M143.359 195.555L142.014 194.789C140.094 189.999 137.597 189.616 133.948 190.191L132.988 189.616V115.477L171.399 105.323L143.359 195.555Z" fill="#1E1B19"/>
<path d="M240.54 139.615L143.36 195.555V121.416L240.54 65.4758V139.615Z" fill="#4563FF"/>
<path d="M143.359 121.415L132.988 115.285L230.168 59.5369L240.539 65.4757L143.359 121.415Z" fill="#373431"/>
<path d="M135.099 115.285L230.166 60.4946L238.616 65.4756L143.357 120.266L135.099 115.285Z" fill="#191715"/>
<path d="M162.561 154.176L161.024 153.218V143.256L162.561 144.214V154.176Z" fill="#B6B5B3"/>
<path d="M174.854 147.087L162.563 154.175V144.213L174.854 137.125V147.087Z" fill="#E0DED7"/>
<path d="M162.561 144.213L161.024 143.255L173.124 136.167L174.852 137.125L162.561 144.213Z" fill="url(#paint0_linear_14822_172040)"/>
<path d="M214.606 124.098L213.069 123.332V113.37L214.606 114.136V124.098Z" fill="#B6B5B3"/>
<path d="M226.9 117.201L214.608 124.097V114.135L226.9 107.047V117.201Z" fill="#E0DED7"/>
<path d="M214.606 114.136L213.069 113.369L225.361 106.281L226.897 107.047L214.606 114.136Z" fill="url(#paint1_linear_14822_172040)"/>
<path d="M219.415 114.328L154.5 155.325L149.891 52.0662L214.997 11.0693L219.415 114.328Z" fill="url(#paint2_linear_14822_172040)"/>
<path d="M224.982 115.478L159.875 152.452L160.644 46.1279L225.75 9.15405L224.982 115.478Z" fill="url(#paint3_linear_14822_172040)"/>
<path d="M221.331 112.987L156.032 150.536V44.4038L221.331 6.85522V112.987Z" fill="#F8F5F4"/>
<path d="M161.033 58.9623L160.649 59.1539V56.4719L161.033 56.2803V58.9623Z" fill="#7B9FE1"/>
<path d="M161.033 62.6014L160.649 62.793V59.9194L161.033 59.7278V62.6014Z" fill="#7B9FE1"/>
<path d="M161.033 66.2425L160.649 66.4341V63.5605L161.033 63.3689V66.2425Z" fill="#7B9FE1"/>
<path d="M161.033 69.6901L160.649 70.0732V67.1996L161.033 67.0081V69.6901Z" fill="#7B9FE1"/>
<path d="M161.033 73.3299L160.649 73.5215V70.6479L161.033 70.4563V73.3299Z" fill="#7B9FE1"/>
<path d="M161.033 76.9698L160.649 77.1614V74.2878L161.033 74.0962V76.9698Z" fill="#7B9FE1"/>
<path d="M185.229 44.5947L161.798 58.1965V56.0892L185.229 42.679V44.5947Z" fill="#44BFE5"/>
<path d="M182.733 49.7665L161.799 61.8357V59.7283L182.733 47.6592V49.7665Z" fill="#86B1FF"/>
<path d="M171.402 59.9206L161.799 65.2846V63.3689L171.402 57.8132V59.9206Z" fill="#86B1FF"/>
<path d="M178.508 59.3459L161.799 68.9246V66.8172L178.508 57.2385V59.3459Z" fill="#97CC66"/>
<path d="M177.547 63.5597L161.799 72.5637V70.4564L177.547 61.4524V63.5597Z" fill="#F25A5A"/>
<path d="M174.282 68.9245L161.799 76.0127V74.0969L174.282 66.8171V68.9245Z" fill="#86B1FF"/>
<path d="M173.508 57.6228C173.508 58.006 173.316 58.3891 172.932 58.5807C172.548 58.7723 172.356 58.5807 172.356 58.1976C172.356 57.8144 172.548 57.4313 172.932 57.2397C173.316 57.0481 173.508 57.2397 173.508 57.6228Z" fill="#86B1FF"/>
<path d="M180.807 56.856C180.807 57.2392 180.615 57.6223 180.231 57.8139C179.847 58.0055 179.655 57.8139 179.655 57.4308C179.655 57.0476 179.847 56.6645 180.231 56.4729C180.615 56.4729 180.807 56.6644 180.807 56.856Z" fill="#97CC66"/>
<path d="M179.658 61.2625C179.658 61.6457 179.466 62.0288 179.082 62.2204C178.697 62.412 178.505 62.2204 178.505 61.8372C178.505 61.4541 178.697 61.0709 179.082 60.8794C179.466 60.6878 179.658 60.8794 179.658 61.2625Z" fill="#F25A5A"/>
<path d="M187.344 42.4886C187.344 42.8717 187.152 43.2549 186.768 43.4464C186.383 43.638 186.191 43.4464 186.191 43.0633C186.191 42.6802 186.383 42.297 186.768 42.1054C187.152 41.9139 187.344 42.1054 187.344 42.4886Z" fill="#44BFE5"/>
<path d="M176.582 66.6273C176.582 67.0104 176.389 67.3936 176.005 67.5851C175.621 67.7767 175.429 67.5851 175.429 67.202C175.429 66.8188 175.621 66.4357 176.005 66.2441C176.197 66.0525 176.582 66.2441 176.582 66.6273Z" fill="#86B1FF"/>
<path d="M185.033 47.2789C185.033 47.662 184.841 48.0452 184.457 48.2367C184.072 48.4283 183.88 48.2368 183.88 47.8536C183.88 47.4705 184.072 47.0873 184.457 46.8958C184.649 46.8958 185.033 47.0873 185.033 47.2789Z" fill="#86B1FF"/>
<path d="M162.188 100.725L161.612 101.108V92.6786L162.188 92.2954V100.725Z" fill="#7B9FE1"/>
<path d="M162.766 100.342L162.19 100.725V93.0623L162.766 92.6792V100.342Z" fill="#2D6AD8"/>
<path d="M164.487 99.3845L163.911 99.7676V91.7216L164.487 91.3384V99.3845Z" fill="#7B9FE1"/>
<path d="M165.257 99.0009L164.489 99.3841V90.5716L165.257 90.1885V99.0009Z" fill="#2D6AD8"/>
<path d="M166.984 98.042L166.408 98.4252V88.0802L166.984 87.697V98.042Z" fill="#7B9FE1"/>
<path d="M167.562 97.6586L166.986 98.0417V92.8693L167.562 92.4861V97.6586Z" fill="#2D6AD8"/>
<path d="M169.292 96.5114L168.716 96.8945V87.5074L169.292 87.1243V96.5114Z" fill="#7B9FE1"/>
<path d="M170.062 96.3198L169.294 96.703V88.0821L170.062 87.699V96.3198Z" fill="#2D6AD8"/>
<path d="M176.588 92.4879L176.012 92.6795V83.1008L176.588 82.9092V92.4879Z" fill="#7B9FE1"/>
<path d="M177.359 92.1047L176.59 92.4879V86.3575L177.359 85.9744V92.1047Z" fill="#2D6AD8"/>
<path d="M179.088 90.9555L178.512 91.3386V83.6756L179.088 83.2925V90.9555Z" fill="#7B9FE1"/>
<path d="M179.666 90.5722L179.09 90.9553V84.6334L179.666 84.2502V90.5722Z" fill="#2D6AD8"/>
<path d="M181.393 89.6142L180.817 89.9974V78.1197L181.393 77.7366V89.6142Z" fill="#7B9FE1"/>
<path d="M182.163 89.2307L181.395 89.6139V79.2689L182.163 78.8857V89.2307Z" fill="#2D6AD8"/>
<path d="M183.887 88.2725L183.311 88.6557V77.7359L183.887 77.3528V88.2725Z" fill="#7B9FE1"/>
<path d="M184.465 87.8891L183.889 88.2722V78.8851L184.465 78.502V87.8891Z" fill="#2D6AD8"/>
<path d="M186.387 86.9324L185.811 87.124V79.4611L186.387 79.0779V86.9324Z" fill="#7B9FE1"/>
<path d="M186.965 86.549L186.389 86.9322V78.1197L186.965 77.7366V86.549Z" fill="#2D6AD8"/>
<path d="M171.789 95.1698L171.213 95.553V92.1046L171.789 91.9131V95.1698Z" fill="#7B9FE1"/>
<path d="M172.367 94.7867L171.791 95.1698V89.231L172.367 88.8479V94.7867Z" fill="#2D6AD8"/>
<path d="M174.286 93.827L173.71 94.2101V90.7618L174.286 90.3787V93.827Z" fill="#7B9FE1"/>
<path d="M174.864 93.4431L174.288 93.8263V91.3358L174.864 90.9526V93.4431Z" fill="#2D6AD8"/>
<path d="M187.534 86.7404L160.646 102.258V101.492L187.534 85.9741V86.7404Z" fill="#7B9FE1"/>
<path d="M191.944 83.6775L191.176 84.0607V79.2714L191.944 78.8882V83.6775Z" fill="#7B9FE1"/>
<path d="M192.522 83.2944L191.754 83.6775V79.846L192.522 79.4629V83.2944Z" fill="#2D6AD8"/>
<path d="M194.252 82.3357L193.676 82.5272V80.803L194.252 80.4199V82.3357Z" fill="#7B9FE1"/>
<path d="M194.83 81.9521L194.254 82.3353V79.8448L194.83 79.4617V81.9521Z" fill="#2D6AD8"/>
<path d="M196.743 80.8028L196.167 81.1859V75.8218L196.743 75.4387V80.8028Z" fill="#7B9FE1"/>
<path d="M197.321 80.4185L196.745 80.8016V78.3112L197.321 77.928V80.4185Z" fill="#2D6AD8"/>
<path d="M199.051 79.4621L198.475 79.8452V77.9295L199.051 77.5464V79.4621Z" fill="#7B9FE1"/>
<path d="M199.821 79.0794L199.053 79.4625V76.3973L199.821 76.0142V79.0794Z" fill="#2D6AD8"/>
<path d="M206.347 75.2474L205.771 75.6305V65.6686L206.347 65.4771V75.2474Z" fill="#7B9FE1"/>
<path d="M206.925 74.8641L206.349 75.2473V66.2433L206.925 66.0518V74.8641Z" fill="#2D6AD8"/>
<path d="M208.847 73.9063L208.271 74.2895V61.6456L208.847 61.2625V73.9063Z" fill="#7B9FE1"/>
<path d="M209.425 73.5233L208.849 73.9064V61.8373L209.425 61.4541V73.5233Z" fill="#2D6AD8"/>
<path d="M211.149 72.5657L210.573 72.9488V63.5617L211.149 63.3701V72.5657Z" fill="#7B9FE1"/>
<path d="M211.919 72.183L211.151 72.5662V64.5201L211.919 64.137V72.183Z" fill="#2D6AD8"/>
<path d="M213.652 71.0323L213.076 71.4155V64.3272L213.652 63.9441V71.0323Z" fill="#7B9FE1"/>
<path d="M214.23 70.8407L213.654 71.0322V65.285L214.23 64.9019V70.8407Z" fill="#2D6AD8"/>
<path d="M215.954 69.6925L215.377 70.0756V66.4357L215.954 66.2441V69.6925Z" fill="#7B9FE1"/>
<path d="M216.724 69.3093L215.956 69.6925V66.6273L216.724 66.2441V69.3093Z" fill="#2D6AD8"/>
<path d="M201.545 78.1212L200.969 78.5044V72.5655L201.545 72.1824V78.1212Z" fill="#7B9FE1"/>
<path d="M202.123 77.737L201.547 78.1201V71.2234L202.123 70.8403V77.737Z" fill="#2D6AD8"/>
<path d="M203.853 76.7804L203.277 76.972V71.4164L203.853 71.0332V76.7804Z" fill="#7B9FE1"/>
<path d="M204.623 76.3973L203.855 76.7804V71.991L204.623 71.6079V76.3973Z" fill="#2D6AD8"/>
<path d="M217.295 69.4995L190.407 85.017V84.4423L217.295 68.9248V69.4995Z" fill="#7B9FE1"/>
<path d="M213.842 26.7799C210.001 23.5231 203.087 26.5883 198.285 33.6766C193.484 40.7648 192.716 49.3857 196.557 52.6424C200.398 55.8992 207.312 52.834 212.113 45.7458C216.915 38.6575 217.683 30.2282 213.842 26.7799ZM209.04 43.2553C206.352 47.2783 202.511 49.0025 200.206 47.0867C198.093 45.171 198.477 40.3817 201.166 36.3586C203.855 32.3355 207.696 30.6114 210.001 32.5271C212.113 34.4428 211.729 39.2322 209.04 43.2553Z" fill="#2D6AD8"/>
<path d="M211.544 45.3625C215.961 38.6574 216.729 30.8029 213.272 27.7377C209.815 24.6725 203.285 27.5461 198.868 34.2512C194.451 40.9563 193.683 48.8108 197.14 51.876C200.597 54.9412 207.126 52.0676 211.544 45.3625ZM200.02 35.4007C203.669 30.0366 208.855 27.7377 211.544 30.2282C214.424 32.7186 213.848 39.0406 210.199 44.4046C206.55 49.7687 201.365 52.0676 198.676 49.5772C195.795 47.0867 196.563 40.7647 200.02 35.4007Z" fill="#2D6AD8"/>
<path d="M211.35 30.0365C211.35 30.0365 212.31 30.8028 212.502 31.1859L214.423 29.0786C214.039 28.6955 213.078 27.546 213.078 27.3545C212.118 26.7797 210.582 26.3966 209.429 26.5882L208.661 29.2702C209.429 29.0786 210.582 29.6533 211.35 30.0365Z" fill="#86B1FF"/>
<path d="M201.36 33.6769L201.553 33.4853C203.665 31.1864 205.97 29.6538 208.082 29.2707L208.851 26.5886C206.162 26.9718 203.473 28.3128 200.592 31.5695C200.592 31.5695 199.056 33.4853 198.864 34.06L200.208 35.2095C200.592 34.6347 200.976 34.2516 201.36 33.6769Z" fill="#F25A5A"/>
<path d="M211.543 42.106L213.08 42.6807C214.616 39.8071 215.385 36.7419 215.385 34.0599V33.4851C215.385 31.9525 215 30.42 214.232 29.2705L212.312 31.3778C212.888 32.3357 213.08 33.2936 213.08 34.6346V35.784C213.272 35.784 213.272 38.4661 211.543 42.106Z" fill="#97CC66"/>
<path d="M199.25 53.0259L200.402 50.3439C199.826 50.1523 199.058 49.9607 198.673 49.5776C196.945 48.045 196.561 45.3629 197.137 42.1062L197.521 40.9567C198.097 39.2326 198.866 37.5084 200.018 35.7842L198.673 34.6348C197.137 36.9337 196.177 39.2325 195.601 41.5314L195.216 42.1062V42.6809C194.448 46.7039 195.024 50.1523 197.137 52.068C197.713 52.4512 198.481 52.8343 199.25 53.0259Z" fill="#44BFE5"/>
<path d="M211.731 45.5546C216.341 38.6579 217.109 30.6118 213.46 27.5466C209.811 24.2899 203.089 27.3551 198.672 34.0602C194.062 40.9568 193.294 49.0029 196.943 52.0681C200.592 55.3249 207.122 52.4513 211.731 45.5546ZM198.672 34.2517C203.089 27.5466 209.619 24.673 213.076 27.7382C216.533 30.8034 215.957 38.6579 211.347 45.363C206.93 52.0681 200.4 54.9417 196.943 51.8765C193.486 48.8113 194.255 40.9568 198.672 34.2517Z" fill="#2D6AD8"/>
<path d="M210.385 44.405C214.034 39.041 214.61 32.719 211.729 30.2285C208.848 27.7381 203.663 30.037 200.206 35.401C196.557 40.7651 195.981 47.0871 198.862 49.5776C201.55 51.8765 206.736 49.5775 210.385 44.405ZM200.206 35.5926C203.663 30.4201 208.656 28.1212 211.345 30.6117C214.034 32.9106 213.458 39.2325 210.001 44.2135C206.544 49.386 201.55 51.6849 198.862 49.1944C196.173 46.7039 196.749 40.5736 200.206 35.5926Z" fill="#2D6AD8"/>
<path d="M211.539 45.3628C212.115 44.5965 212.499 43.8302 212.883 42.8723L211.347 42.2976C210.963 42.8723 210.579 43.6386 210.194 44.2134C207.506 48.2364 203.473 50.7269 200.592 50.3437L199.439 53.0257C203.281 53.6005 208.082 50.5353 211.539 45.3628Z" fill="#86B1FF"/>
<path d="M180.623 96.8944L160.649 108.389V105.132L180.623 93.6377V96.8944Z" fill="#2D6AD8"/>
<path d="M162.569 107.239L160.649 108.389V105.132L162.569 103.982V107.239Z" fill="#F25A5A"/>
<path d="M198.867 86.3576L178.894 97.852V94.5953L198.867 83.1008V86.3576Z" fill="#2D6AD8"/>
<path d="M180.814 96.8934L178.894 97.8513V94.5945L180.814 93.4451V96.8934Z" fill="#97CC66"/>
<path d="M217.109 75.8212L197.136 87.3156V84.0589L217.109 72.5645V75.8212Z" fill="#2D6AD8"/>
<path d="M199.056 86.3583L197.136 87.3162V84.0594L199.056 83.1016V86.3583Z" fill="#44BFE5"/>
<path d="M161.601 81.9527C161.601 82.3359 161.217 82.9106 161.025 83.1022C160.641 83.2937 160.449 83.1021 160.449 82.719C160.449 82.3358 160.833 81.7611 161.025 81.5695C161.217 81.378 161.601 81.5696 161.601 81.9527Z" fill="#7B9FE1"/>
<path d="M161.601 85.5929C161.601 85.9761 161.217 86.5508 161.025 86.7424C160.641 86.9339 160.449 86.7423 160.449 86.3592C160.449 85.9761 160.641 85.4014 161.025 85.2098C161.217 85.0182 161.601 85.0182 161.601 85.5929Z" fill="#7B9FE1"/>
<path d="M192.521 64.1359C192.521 64.5191 192.137 65.0937 191.945 65.2853C191.561 65.4769 191.369 65.2854 191.369 64.9022C191.369 64.5191 191.753 63.9443 191.945 63.7528C192.329 63.5612 192.521 63.5612 192.521 64.1359Z" fill="#7B9FE1"/>
<path d="M192.521 67.5845C192.521 67.9677 192.137 68.5424 191.945 68.734C191.561 68.9256 191.369 68.734 191.369 68.3508C191.369 67.9677 191.753 67.3929 191.945 67.2014C192.329 67.0098 192.521 67.2014 192.521 67.5845Z" fill="#7B9FE1"/>
<path d="M177.542 73.5232L179.462 72.3737V72.1821L177.542 73.3316V73.5232ZM169.284 78.3125L173.509 75.822V75.6305L169.284 78.121V78.3125ZM173.701 75.6305L177.158 73.7148V73.5232L173.701 75.4389V75.6305ZM168.899 78.5041V78.121L162.946 81.5693V81.7609L168.899 78.5041ZM179.847 72.1821L182.535 70.6496V70.458L179.847 71.9906V72.1821ZM163.138 80.803L165.058 79.6535V79.462L163.138 80.6114V80.803ZM180.423 70.458V70.6496L182.727 69.3085V69.1169L180.423 70.458ZM175.813 73.3316L180.039 70.8412V70.6496L175.813 73.14V73.3316ZM173.701 74.6726L175.621 73.5232V73.3316L173.701 74.4811V74.6726ZM171.012 76.2052L173.317 74.8642V74.6726L171.012 76.0136V76.2052ZM165.443 79.462L170.82 76.3968V76.2052L165.443 79.2704V79.462Z" fill="#7B9FE1"/>
<path d="M173.893 77.7378V77.9294L177.35 76.0137V75.8221L173.893 77.7378ZM173.509 78.121V77.9294L169.284 80.4199V80.6114L173.509 78.121ZM173.509 78.8873V79.0789L175.813 77.7378V77.5463L173.509 78.8873ZM176.198 77.3547V77.5463L178.118 76.3968V76.2053L176.198 77.3547ZM182.535 73.7148L178.31 76.2053V76.3968L182.535 73.9063V73.7148ZM167.555 82.7188V82.5272L163.138 85.0177V85.2093L167.555 82.7188ZM181.383 73.3316L177.542 75.6306V75.8221L181.383 73.5232V73.3316ZM168.899 80.6114V80.4199L162.946 83.8682V84.0598L168.899 80.6114ZM181.767 73.1401V73.3316L184.072 71.9906V71.7991L181.767 73.1401ZM173.125 79.462V79.2705L167.747 82.3357V82.5272L173.125 79.462Z" fill="#7B9FE1"/>
<path d="M200.204 60.3045L204.429 57.814V57.6224L200.204 60.1129V60.3045ZM204.813 57.6224L208.27 55.7067V55.5151L204.813 57.4309V57.6224ZM200.012 60.496V60.3045L194.058 63.7528V63.9444L200.012 60.496ZM194.058 62.7949L195.979 61.6455V61.4539L194.058 62.6033V62.7949ZM211.343 52.4499V52.6415L213.648 51.3005V51.1089L211.343 52.4499ZM206.926 55.3235L211.151 52.833V52.6415L206.926 55.132V55.3235ZM204.621 56.6645L206.542 55.5151V55.3235L204.621 56.473V56.6645ZM202.124 58.1972L204.429 56.8561V56.6645L202.124 58.0056V58.1972ZM196.363 61.4539L201.74 58.3887V58.1972L196.363 61.2624V61.4539Z" fill="#7B9FE1"/>
<path d="M207.313 58.5797V58.7713L210.77 56.8555V56.4724L207.313 58.5797Z" fill="#7B9FE1"/>
<path d="M203.082 62.0285V62.2201L205.387 60.8791V60.6875L203.082 62.0285Z" fill="#7B9FE1"/>
<path d="M206.925 58.7729L202.7 61.0719V61.455L206.925 58.9645V58.7729Z" fill="#7B9FE1"/>
<path d="M209.423 58.3892L205.774 60.4964V60.688L209.423 58.7723V58.3892Z" fill="#7B9FE1"/>
<path d="M202.508 61.6453V61.2622L194.058 66.0516V66.4347L202.508 61.6453Z" fill="#7B9FE1"/>
<path d="M211.151 56.2818V56.6649L213.071 55.5155V55.1323L211.151 56.2818Z" fill="#7B9FE1"/>
<path d="M197.131 65.6689V65.4773L194.058 67.2015V67.393L197.131 65.6689Z" fill="#7B9FE1"/>
<path d="M202.702 62.2205L197.516 65.2856V65.4772L202.702 62.412V62.2205Z" fill="#7B9FE1"/>
<path d="M213.265 54.9404V55.3235L214.802 54.3657V54.1741L213.265 54.9404Z" fill="#7B9FE1"/>
<path d="M177.925 44.0205V43.6374L185.799 39.2311V39.6143L177.925 44.0205ZM175.812 45.17V44.7868L177.348 44.0205V44.4036L175.812 45.17ZM166.785 50.534V50.1509L175.236 45.3615V45.7447L166.785 50.534ZM160.64 53.9824V53.5992L166.017 50.534V50.9172L160.64 53.9824ZM181.574 39.2311L189.448 34.8249V35.2081L181.574 39.6143V39.2311ZM190.024 34.4418L193.289 32.526V32.9092L190.024 34.8249V34.4418ZM179.461 40.7637V40.3806L180.997 39.6143V39.9975L179.461 40.7637ZM170.434 46.1278V45.7447L178.885 40.9553V41.3385L170.434 46.1278ZM160.64 51.6835V51.3003L169.858 46.1278V46.511L160.64 51.6835ZM212.302 19.6906V19.3074L216.911 16.6254V17.0085L212.302 19.6906ZM206.156 23.3305V22.9473L211.726 19.6906V20.0737L206.156 23.3305ZM202.315 25.6294V25.2462L205.58 23.3305V23.7136L202.315 25.6294ZM196.17 29.0777V28.6946L201.739 25.4378V25.8209L196.17 29.0777ZM190.408 32.3345V31.9513L195.401 29.0777V29.4609L190.408 32.3345ZM183.686 36.166V35.7828L189.832 32.3345V32.7176L183.686 36.166ZM177.156 39.9975V39.6143L183.11 36.166V36.5491L177.156 39.9975ZM168.898 44.7868V44.4036L176.58 39.9975V40.3806L168.898 44.7868ZM160.64 49.5762V49.193L168.13 44.7868V45.17L160.64 49.5762ZM204.428 22.181V21.7979L216.911 14.5181V14.9012L204.428 22.181ZM198.09 25.8209V25.4378L203.66 22.181V22.5642L198.09 25.8209ZM191.368 29.6524V29.2693L197.514 25.8209V26.2041L191.368 29.6524ZM188.103 31.5682V31.185L190.792 29.6524V30.0356L188.103 31.5682ZM184.262 33.8671V33.4839L187.527 31.5682V31.9513L184.262 33.8671ZM175.812 38.6564V38.2733L183.686 33.8671V34.2502L175.812 38.6564ZM173.699 39.8059V39.4227L175.236 38.6564V39.0396L173.699 39.8059ZM164.673 45.17V44.7868L173.123 39.9975V40.3806L164.673 45.17ZM160.64 47.4688V47.0857L163.905 45.17V45.5531L160.64 47.4688Z" fill="#7B9FE1"/>
<path d="M202.892 81.762L199.819 83.4862V83.1031L202.892 81.3789V81.762Z" fill="#E1E9F4"/>
<path d="M204.622 80.8045L203.47 81.5708V81.1877L204.622 80.4214V80.8045Z" fill="#E1E9F4"/>
<path d="M201.548 84.2528L199.819 85.2107V84.8275L201.548 83.8696V84.2528Z" fill="#E1E9F4"/>
<path d="M205.772 81.762L201.931 83.8693V83.4862L205.772 81.3789V81.762Z" fill="#E1E9F4"/>
<path d="M208.269 80.2292L206.156 81.5702V81.1871L208.269 80.0376V80.2292Z" fill="#E1E9F4"/>
<path d="M184.837 92.2972L181.764 94.0213V93.6382L184.837 91.9141V92.2972Z" fill="#E1E9F4"/>
<path d="M186.566 91.1487L185.414 91.9151V91.5319L186.566 90.7656V91.1487Z" fill="#E1E9F4"/>
<path d="M183.492 94.597L181.764 95.5549V95.1717L183.492 94.2139V94.597Z" fill="#E1E9F4"/>
<path d="M187.716 92.1063L183.875 94.4052V94.022L187.716 91.7231V92.1063Z" fill="#E1E9F4"/>
<path d="M190.213 90.765L188.101 91.9145V91.5313L190.213 90.3818V90.765Z" fill="#E1E9F4"/>
<path d="M166.787 102.643L163.714 104.367V103.984L166.787 102.26V102.643Z" fill="#E1E9F4"/>
<path d="M168.517 101.685L167.364 102.259V102.068L168.517 101.302V101.685Z" fill="#E1E9F4"/>
<path d="M165.442 104.941L163.714 105.899V105.516L165.442 104.558V104.941Z" fill="#E1E9F4"/>
<path d="M169.666 102.643L165.825 104.75V104.367L169.666 102.26V102.643Z" fill="#E1E9F4"/>
<path d="M172.163 101.111L170.051 102.26V101.877L172.163 100.728V101.111Z" fill="#E1E9F4"/>
<defs>
<linearGradient id="paint0_linear_14822_172040" x1="160.974" y1="140.188" x2="174.784" y2="140.188" gradientUnits="userSpaceOnUse">
<stop stop-color="#F0EFEC"/>
<stop offset="1" stop-color="#F7F6F3"/>
</linearGradient>
<linearGradient id="paint1_linear_14822_172040" x1="213.035" y1="110.204" x2="226.845" y2="110.204" gradientUnits="userSpaceOnUse">
<stop stop-color="#F0EFEC"/>
<stop offset="1" stop-color="#F7F6F3"/>
</linearGradient>
<linearGradient id="paint2_linear_14822_172040" x1="196.091" y1="106.865" x2="163.606" y2="39.1908" gradientUnits="userSpaceOnUse">
<stop stop-color="#DEDBD9"/>
<stop offset="1" stop-color="#F8F5F4"/>
</linearGradient>
<linearGradient id="paint3_linear_14822_172040" x1="191.865" y1="85.0385" x2="210.974" y2="0.792436" gradientUnits="userSpaceOnUse">
<stop stop-color="#DEDBD9"/>
<stop offset="1" stop-color="#F8F5F4"/>
</linearGradient>
</defs>
</svg>
