<svg width="345" height="218" viewBox="0 0 345 218" fill="none" xmlns="http://www.w3.org/2000/svg">
<rect width="345" height="218" rx="5" fill="#AEB5D1"/>
<g opacity="0.4">
<path d="M227.819 178.345C228.006 178.345 228.38 178.531 228.567 178.531L186.098 154.083C185.91 153.897 185.723 153.897 185.349 153.897C184.414 153.71 182.917 154.083 181.233 154.457L170.569 148.298C170.943 148.111 171.317 147.925 171.691 147.738C191.71 136.167 191.523 117.318 171.504 105.748C161.027 99.7755 147.182 96.7895 133.525 97.1628C119.867 96.9761 106.022 99.7755 95.5449 105.748C75.5261 117.318 75.7132 136.167 95.732 147.738C106.209 153.71 120.054 156.696 133.712 156.323C142.692 156.509 151.673 155.39 159.718 152.777L171.691 159.682C171.317 160.055 170.943 160.615 170.569 160.988C170.195 161.735 170.195 162.295 170.756 162.481L213.039 186.929C213.226 187.116 213.413 187.116 213.787 187.116C216.032 187.489 220.897 185.81 224.638 183.383C226.509 182.077 227.819 180.957 228.38 180.024C229.129 179.278 228.942 178.531 227.819 178.345ZM134.086 155.95C121.738 155.763 109.39 152.964 100.035 147.551C80.3905 136.167 80.2034 117.691 99.8481 106.307C109.203 100.895 121.364 98.0959 133.712 97.9092C146.06 98.0959 158.408 100.895 167.763 106.307C187.407 117.691 187.594 136.167 167.95 147.551C158.595 152.777 146.434 155.576 134.086 155.95Z" fill="#7B7794"/>
<path d="M88.4347 114.705L70.0996 125.156L164.768 179.651H175.058L88.4347 114.705Z" fill="#ADA6A3"/>
</g>
<path d="M175.247 179.65L78.52 124.036V114.892L175.247 133.927V179.65Z" fill="#D2CFCC"/>
<path d="M243.719 140.273L175.244 179.65V133.927L243.719 131.128V140.273Z" fill="#E9E6E6"/>
<path d="M243.72 131.129L175.244 170.507L78.5176 114.892L146.993 75.3279L243.72 131.129Z" fill="#F8F5F4"/>
<path d="M150.55 110.227L149.241 110.413L149.802 110.787L137.08 118.252L137.828 118.625L150.55 111.16L151.111 111.533L151.486 110.787L151.86 110.04L150.55 110.227Z" fill="#86B1FF"/>
<path d="M146.432 120.865L146.806 120.118L147.555 120.492L160.277 113.213L160.838 113.587L148.116 120.865L148.864 121.238L147.368 121.611L146.058 121.798L146.432 120.865Z" fill="#2D6AD8"/>
<path d="M129.221 126.65L129.595 127.396L130.343 127.023L140.446 132.808L141.008 132.435L130.905 126.65L131.653 126.277L130.156 126.09L128.847 125.903L129.221 126.65Z" fill="#2D6AD8"/>
<path d="M167.576 105.748L166.266 105.561L167.015 105.188L156.912 99.216L157.473 98.8428L167.576 104.815L168.324 104.442L168.698 105.188L169.073 105.935L167.576 105.748Z" fill="#86B1FF"/>
<path d="M139.138 118.812L117.061 131.502L106.771 125.53L128.848 112.84L139.138 118.812Z" fill="#86B1FF"/>
<path d="M176.369 97.537L154.292 110.227L144.002 104.255L165.892 91.5649L176.369 97.537Z" fill="#86B1FF"/>
<path d="M131.467 114.519L128.848 112.84L106.771 125.53L109.39 127.21L131.467 114.519Z" fill="#2D6AD8"/>
<path d="M168.698 93.0579L165.892 91.5649L144.002 104.255L146.621 105.748L168.698 93.0579Z" fill="#2D6AD8"/>
<path d="M154.1 127.583L132.023 140.274L121.733 134.302L143.81 121.611L154.1 127.583Z" fill="#86B1FF"/>
<path d="M191.333 106.122L169.256 118.812L158.779 112.84L180.856 100.15L191.333 106.122Z" fill="#86B1FF"/>
<path d="M146.43 123.104L143.81 121.611L121.733 134.302L124.353 135.795L146.43 123.104Z" fill="#2D6AD8"/>
<path d="M183.663 101.643L180.856 100.15L158.779 112.84L161.586 114.333L183.663 101.643Z" fill="#2D6AD8"/>
<path d="M150.357 150.35L149.983 150.537L147.364 149.044L147.738 148.857L150.357 150.35Z" fill="#7B9FE1"/>
<path d="M153.725 152.216L153.351 152.403L150.732 150.91L151.106 150.723L153.725 152.216Z" fill="#7B9FE1"/>
<path d="M156.906 154.082L156.532 154.269L153.913 152.776L154.287 152.589L156.906 154.082Z" fill="#7B9FE1"/>
<path d="M160.275 155.949L159.901 156.135L157.281 154.642L157.655 154.456L160.275 155.949Z" fill="#7B9FE1"/>
<path d="M163.452 157.815L163.078 158.001L160.459 156.508L160.833 156.322L163.452 157.815Z" fill="#7B9FE1"/>
<path d="M166.824 159.681L166.449 159.868L163.83 158.375L164.204 158.188L166.824 159.681Z" fill="#7B9FE1"/>
<path d="M175.429 135.421L150.92 149.604L149.049 148.484L173.558 134.301L175.429 135.421Z" fill="#44BFE5"/>
<path d="M176.174 138.779L154.097 151.47L152.227 150.35L174.303 137.659L176.174 138.779Z" fill="#86B1FF"/>
<path d="M167.384 147.551L157.469 153.336L155.598 152.216L165.514 146.431L167.384 147.551Z" fill="#86B1FF"/>
<path d="M178.233 145.125L160.646 155.203L158.775 154.083L176.362 144.005L178.233 145.125Z" fill="#97CC66"/>
<path d="M180.292 147.551L164.015 157.069L162.144 156.136L178.608 146.618L180.292 147.551Z" fill="#F25A5A"/>
<path d="M180.292 151.47L167.196 158.935L165.325 158.002L178.421 150.351L180.292 151.47Z" fill="#86B1FF"/>
<path d="M168.881 145.685C169.255 145.872 169.255 146.245 168.881 146.432C168.507 146.618 168.132 146.618 167.758 146.432C167.384 146.245 167.384 145.872 167.758 145.685C167.945 145.499 168.507 145.499 168.881 145.685Z" fill="#86B1FF"/>
<path d="M179.731 143.26C180.105 143.446 180.105 143.819 179.731 144.006C179.357 144.193 178.982 144.193 178.608 144.006C178.234 143.819 178.234 143.446 178.608 143.26C178.795 143.073 179.357 143.073 179.731 143.26Z" fill="#97CC66"/>
<path d="M181.976 145.685C182.35 145.871 182.35 146.245 181.976 146.431C181.602 146.618 181.228 146.618 180.853 146.431C180.479 146.245 180.479 145.871 180.853 145.685C181.04 145.498 181.602 145.498 181.976 145.685Z" fill="#F25A5A"/>
<path d="M176.739 133.555C177.113 133.741 177.113 134.114 176.739 134.301C176.364 134.488 175.99 134.488 175.616 134.301C175.242 134.114 175.242 133.741 175.616 133.555C175.99 133.368 176.552 133.368 176.739 133.555Z" fill="#44BFE5"/>
<path d="M181.791 149.604C182.166 149.791 182.166 150.164 181.791 150.351C181.417 150.537 181.043 150.537 180.669 150.351C180.295 150.164 180.295 149.791 180.669 149.604C180.856 149.418 181.417 149.418 181.791 149.604Z" fill="#86B1FF"/>
<path d="M177.486 136.913C177.86 137.1 177.86 137.473 177.486 137.66C177.112 137.847 176.737 137.847 176.363 137.66C175.989 137.473 175.989 137.1 176.363 136.913C176.737 136.727 177.299 136.727 177.486 136.913Z" fill="#86B1FF"/>
<path d="M99.4666 119.559L98.7182 119.932L90.8604 115.453L91.6087 115.08L99.4666 119.559Z" fill="#7B9FE1"/>
<path d="M100.03 119.185L99.2817 119.559L92.3594 115.453L93.1077 115.08L100.03 119.185Z" fill="#2D6AD8"/>
<path d="M101.897 118.064L101.336 118.437L93.8525 114.145L94.6009 113.771L101.897 118.064Z" fill="#7B9FE1"/>
<path d="M102.646 117.691L101.897 118.064L93.8525 113.398L94.6009 113.025L102.646 117.691Z" fill="#2D6AD8"/>
<path d="M104.521 116.571L103.773 116.945L94.4185 111.532L95.1669 111.159L104.521 116.571Z" fill="#7B9FE1"/>
<path d="M105.084 116.198L104.523 116.572L99.6587 113.959L100.407 113.399L105.084 116.198Z" fill="#2D6AD8"/>
<path d="M106.95 115.078L106.389 115.451L97.7827 110.599L98.344 110.226L106.95 115.078Z" fill="#7B9FE1"/>
<path d="M107.698 114.705L106.949 115.078L99.0913 110.599L99.8397 110.226L107.698 114.705Z" fill="#2D6AD8"/>
<path d="M114.623 110.786L114.061 111.159L105.268 106.12L105.829 105.747L114.623 110.786Z" fill="#7B9FE1"/>
<path d="M115.371 110.412L114.622 110.786L109.197 107.613L109.758 107.24L115.371 110.412Z" fill="#2D6AD8"/>
<path d="M117.244 109.292L116.495 109.666L109.386 105.56L110.134 105.187L117.244 109.292Z" fill="#7B9FE1"/>
<path d="M117.806 108.92L117.058 109.293L111.258 105.934L112.006 105.56L117.806 108.92Z" fill="#2D6AD8"/>
<path d="M119.676 107.8L119.115 108.173L108.263 102.014L108.824 101.641L119.676 107.8Z" fill="#7B9FE1"/>
<path d="M120.425 107.427L119.677 107.8L110.135 102.388L110.884 102.015L120.425 107.427Z" fill="#2D6AD8"/>
<path d="M122.29 106.307L121.541 106.68L111.812 101.081L112.374 100.708L122.29 106.307Z" fill="#7B9FE1"/>
<path d="M122.852 105.934L122.291 106.307L113.685 101.455L114.246 101.082L122.852 105.934Z" fill="#2D6AD8"/>
<path d="M124.724 105L124.163 105.187L117.054 101.268L117.615 100.895L124.724 105Z" fill="#7B9FE1"/>
<path d="M125.474 104.441L124.726 105.001L116.681 100.335L117.43 99.9617L125.474 104.441Z" fill="#2D6AD8"/>
<path d="M109.569 113.771L108.82 114.145L105.827 112.278L106.388 111.905L109.569 113.771Z" fill="#7B9FE1"/>
<path d="M110.13 113.398L109.568 113.772L104.143 110.599L104.891 110.226L110.13 113.398Z" fill="#2D6AD8"/>
<path d="M112.003 112.28L111.441 112.653L108.448 110.787L109.009 110.413L112.003 112.28Z" fill="#7B9FE1"/>
<path d="M112.75 111.906L112.001 112.279L109.756 110.973L110.505 110.6L112.75 111.906Z" fill="#2D6AD8"/>
<path d="M126.598 104.441L98.3469 120.678L97.7856 120.304L126.037 104.068L126.598 104.441Z" fill="#7B9FE1"/>
<path d="M130.534 101.642L129.973 102.015L125.669 99.4021L126.418 99.0288L130.534 101.642Z" fill="#7B9FE1"/>
<path d="M131.285 101.082L130.536 101.641L127.168 99.5885L127.73 99.2153L131.285 101.082Z" fill="#2D6AD8"/>
<path d="M133.155 100.148L132.594 100.521L130.91 99.5878L131.471 99.2146L133.155 100.148Z" fill="#7B9FE1"/>
<path d="M133.903 99.7746L133.155 100.148L130.91 98.8415L131.471 98.4683L133.903 99.7746Z" fill="#2D6AD8"/>
<path d="M135.77 98.6546L135.021 99.0279L130.157 96.2285L130.718 95.8552L135.77 98.6546Z" fill="#7B9FE1"/>
<path d="M136.328 98.2811L135.58 98.6543L133.334 97.348L133.896 96.7881L136.328 98.2811Z" fill="#2D6AD8"/>
<path d="M138.2 97.1624L137.638 97.5356L135.955 96.6025L136.516 96.2292L138.2 97.1624Z" fill="#7B9FE1"/>
<path d="M138.946 96.7887L138.197 97.162L135.391 95.4824L136.139 95.1091L138.946 96.7887Z" fill="#2D6AD8"/>
<path d="M145.873 92.8696L145.124 93.0562L136.144 88.0173L136.892 87.644L145.873 92.8696Z" fill="#7B9FE1"/>
<path d="M146.436 92.3097L145.875 92.8696L137.643 88.0173L138.391 87.644L146.436 92.3097Z" fill="#2D6AD8"/>
<path d="M148.305 91.3755L147.744 91.7488L136.332 85.0303L136.893 84.657L148.305 91.3755Z" fill="#7B9FE1"/>
<path d="M149.052 91.0023L148.304 91.3755L137.453 85.0303L138.201 84.657L149.052 91.0023Z" fill="#2D6AD8"/>
<path d="M150.925 89.8835L150.363 90.2567L141.944 85.4045L142.506 85.0312L150.925 89.8835Z" fill="#7B9FE1"/>
<path d="M151.673 89.5101L150.925 89.8834L143.628 85.591L144.19 85.2178L151.673 89.5101Z" fill="#2D6AD8"/>
<path d="M153.546 88.3895L152.798 88.7628L146.25 85.0303L146.998 84.657L153.546 88.3895Z" fill="#7B9FE1"/>
<path d="M154.109 88.0168L153.547 88.39L148.122 85.404L148.87 85.0308L154.109 88.0168Z" fill="#2D6AD8"/>
<path d="M155.976 86.8975L155.415 87.2708L152.234 85.4045L152.796 85.0312L155.976 86.8975Z" fill="#7B9FE1"/>
<path d="M156.725 86.5243L155.977 86.8976L153.17 85.218L153.919 84.8447L156.725 86.5243Z" fill="#2D6AD8"/>
<path d="M140.819 95.6674L140.07 96.0406L134.832 93.0546L135.393 92.6814L140.819 95.6674Z" fill="#7B9FE1"/>
<path d="M141.381 95.2946L140.82 95.6679L134.459 92.122L135.207 91.7488L141.381 95.2946Z" fill="#2D6AD8"/>
<path d="M143.254 94.1752L142.693 94.5485L137.455 91.5625L138.203 91.1892L143.254 94.1752Z" fill="#7B9FE1"/>
<path d="M144.005 93.8024L143.257 94.1756L138.954 91.7495L139.702 91.3762L144.005 93.8024Z" fill="#2D6AD8"/>
<path d="M157.845 86.5241L129.594 102.76L129.033 102.387L157.284 86.1509L157.845 86.5241Z" fill="#7B9FE1"/>
<path d="M204.241 117.318C195.26 116.758 187.028 120.49 185.906 125.716C184.783 130.941 191.331 135.607 200.499 136.167C209.479 136.727 217.711 132.994 218.834 127.769C219.956 122.73 213.408 118.064 204.241 117.318ZM211.724 127.395C211.163 130.381 206.486 132.434 201.434 132.061C196.383 131.688 192.641 129.075 193.202 126.089C193.763 123.103 198.441 121.05 203.492 121.423C208.544 121.797 212.285 124.596 211.724 127.395Z" fill="#2D6AD8"/>
<path d="M217.709 127.768C218.645 122.916 212.658 118.624 204.239 118.064C195.82 117.504 188.149 121.05 187.213 125.902C186.278 130.754 192.265 135.047 200.684 135.607C209.103 136.167 216.774 132.621 217.709 127.768ZM190.394 126.089C191.142 122.17 197.129 119.37 203.865 119.93C210.6 120.304 215.464 123.849 214.716 127.768C213.968 131.688 207.981 134.487 201.245 133.927C194.323 133.367 189.459 130.008 190.394 126.089Z" fill="#2D6AD8"/>
<path d="M203.115 119.93C203.115 119.93 205.173 120.117 205.921 120.117L206.856 118.437C205.921 118.251 203.489 118.064 203.115 118.064C201.057 118.064 198.437 118.251 196.566 118.81L197.689 120.49C199.373 119.93 201.618 119.93 203.115 119.93Z" fill="#86B1FF"/>
<path d="M190.958 124.782L191.145 124.596C192.267 122.729 194.7 121.236 197.693 120.49L196.57 118.81C192.829 119.743 189.835 121.423 188.151 123.849C188.151 123.849 187.403 125.342 187.59 125.715L190.584 125.902C190.396 125.529 190.584 125.156 190.958 124.782Z" fill="#F25A5A"/>
<path d="M214.529 126.089L217.709 125.902C217.335 123.849 215.838 121.983 213.406 120.677L212.845 120.303C211.348 119.557 209.477 118.81 207.419 118.437L206.484 120.117C208.168 120.49 209.477 120.863 210.787 121.61L211.722 122.17C211.535 122.17 213.968 123.663 214.529 126.089Z" fill="#97CC66"/>
<path d="M205.175 135.606L204.614 133.927C203.491 134.113 202.182 134.113 201.059 133.927C197.13 133.74 193.763 132.247 191.892 130.381L191.33 129.634C190.582 128.515 190.208 127.395 190.395 126.088L187.401 125.902C187.214 127.581 187.589 129.074 188.711 130.381L188.898 130.754L189.459 131.127C191.892 133.554 196.008 135.233 201.059 135.42C202.182 135.793 203.678 135.606 205.175 135.606Z" fill="#44BFE5"/>
<path d="M218.089 127.956C219.024 122.917 212.85 118.438 204.244 117.878C195.638 117.318 187.78 120.864 186.845 125.903C185.909 130.942 192.083 135.421 200.689 135.981C209.296 136.354 217.154 132.808 218.089 127.956ZM187.219 125.903C188.154 121.051 195.825 117.505 204.244 118.065C212.663 118.625 218.65 122.917 217.715 127.769C216.779 132.622 209.109 136.167 200.689 135.608C192.27 135.048 186.283 130.755 187.219 125.903Z" fill="#2D6AD8"/>
<path d="M214.722 127.583C215.47 123.664 210.606 120.304 203.87 119.745C197.135 119.371 191.148 122.171 190.4 125.903C189.651 129.822 194.516 133.182 201.251 133.741C207.799 134.301 213.786 131.502 214.722 127.583ZM190.587 126.09C191.335 122.357 197.135 119.558 203.683 120.118C210.231 120.491 214.909 123.85 214.16 127.769C213.412 131.502 207.612 134.301 201.064 133.741C194.703 133.182 190.026 129.822 190.587 126.09Z" fill="#2D6AD8"/>
<path d="M217.713 127.769C217.9 127.21 217.9 126.65 217.713 126.09L214.719 126.276C214.719 126.65 214.719 127.21 214.719 127.583C214.158 130.569 210.229 132.995 205.178 133.741L205.739 135.421C211.913 134.675 216.965 131.502 217.713 127.769Z" fill="#86B1FF"/>
<path d="M125.104 111.905L103.963 124.036L100.969 122.17L122.111 110.226L125.104 111.905Z" fill="#2D6AD8"/>
<path d="M106.021 122.916L103.963 124.036L100.969 122.17L103.027 121.05L106.021 122.916Z" fill="#F25A5A"/>
<path d="M144.19 100.896L123.236 113.026L120.242 111.16L141.196 99.2161L144.19 100.896Z" fill="#2D6AD8"/>
<path d="M125.107 111.906L123.236 113.026L120.242 111.16L122.113 110.04L125.107 111.906Z" fill="#97CC66"/>
<path d="M163.27 89.8846L142.315 101.829L139.322 100.149L160.276 88.0183L163.27 89.8846Z" fill="#2D6AD8"/>
<path d="M144.186 100.709L142.315 101.828L139.322 100.149L141.193 99.0291L144.186 100.709Z" fill="#44BFE5"/>
<path d="M171.499 163.041C172.016 163.041 172.435 162.79 172.435 162.481C172.435 162.172 172.016 161.921 171.499 161.921C170.983 161.921 170.564 162.172 170.564 162.481C170.564 162.79 170.983 163.041 171.499 163.041Z" fill="#7B9FE1"/>
<path d="M175.427 163.974C175.801 164.161 175.801 164.534 175.427 164.72C175.053 164.907 174.492 164.907 174.118 164.72C173.743 164.534 173.743 164.161 174.118 163.974C174.492 163.787 175.053 163.787 175.427 163.974Z" fill="#7B9FE1"/>
<path d="M204.054 144.378C204.57 144.378 204.989 144.128 204.989 143.819C204.989 143.509 204.57 143.259 204.054 143.259C203.537 143.259 203.118 143.509 203.118 143.819C203.118 144.128 203.537 144.378 204.054 144.378Z" fill="#7B9FE1"/>
<path d="M207.984 145.311C208.359 145.498 208.359 145.871 207.984 146.058C207.61 146.245 207.049 146.245 206.675 146.058C206.3 145.871 206.3 145.498 206.675 145.311C207.049 145.125 207.61 145.125 207.984 145.311Z" fill="#7B9FE1"/>
<path d="M189.648 152.777L191.519 151.657L191.332 151.47L189.461 152.59L189.648 152.777ZM181.042 157.816L185.345 155.203L185.158 155.016L180.855 157.629L181.042 157.816ZM185.719 155.203L189.461 153.15L189.274 152.963L185.532 155.016L185.719 155.203ZM180.668 158.002L180.481 157.816L174.307 161.361L174.494 161.548L180.668 158.002ZM192.08 151.47L194.887 149.791L194.7 149.604L191.893 151.284L192.08 151.47ZM173.371 160.988L175.429 159.869L175.242 159.682L173.184 160.802L173.371 160.988ZM191.332 150.351L191.519 150.537L193.951 149.044L193.764 148.858L191.332 150.351ZM186.842 153.337L191.332 150.724L191.145 150.537L186.655 153.15L186.842 153.337ZM184.597 154.643L186.468 153.523L186.281 153.337L184.41 154.456L184.597 154.643ZM181.79 156.136L184.223 154.643L184.035 154.456L181.603 155.949L181.79 156.136ZM175.803 159.682L181.416 156.509L181.229 156.323L175.616 159.495L175.803 159.682Z" fill="#7B9FE1"/>
<path d="M187.587 156.136L187.774 156.323L191.516 154.27L191.142 154.083L187.587 156.136ZM187.4 156.509L187.213 156.323L182.91 158.935L183.097 159.122L187.4 156.509ZM188.336 156.882L188.523 157.069L190.955 155.576L190.768 155.389L188.336 156.882ZM190.955 155.389L191.142 155.576L193.013 154.456L192.826 154.27L190.955 155.389ZM197.69 151.47L193.2 154.083L193.387 154.27L197.877 151.657L197.69 151.47ZM182.162 160.802L181.975 160.615L177.297 163.414L177.484 163.601L182.162 160.802ZM195.632 151.47L191.516 153.71L191.703 153.896L195.819 151.657L195.632 151.47ZM182.723 159.309L182.536 159.122L176.362 162.668L176.549 162.854L182.723 159.309ZM196.006 151.284L196.194 151.47L198.626 150.164L198.439 149.977L196.006 151.284ZM188.149 157.256L187.961 157.069L182.349 160.242L182.536 160.428L188.149 157.256Z" fill="#7B9FE1"/>
<path d="M213.409 138.966L217.712 136.354L217.525 136.167L213.222 138.78L213.409 138.966ZM218.273 136.354L222.015 134.301L221.828 134.114L218.086 136.167L218.273 136.354ZM213.035 139.34L212.848 139.153L206.674 142.699L206.861 142.886L213.035 139.34ZM205.925 142.326L207.983 141.206L207.796 141.019L205.738 142.139L205.925 142.326ZM223.886 131.688L224.073 131.875L226.506 130.382L226.318 130.195L223.886 131.688ZM219.396 134.487L223.886 131.875L223.699 131.688L219.209 134.301L219.396 134.487ZM216.964 135.794L218.835 134.674L218.648 134.487L216.777 135.607L216.964 135.794ZM214.345 137.473L216.777 135.98L216.59 135.794L214.157 137.287L214.345 137.473ZM208.358 140.833L213.97 137.66L213.783 137.473L208.171 140.646L208.358 140.833Z" fill="#7B9FE1"/>
<path d="M222.762 135.98L223.136 136.167L226.691 134.114L226.504 133.927L222.762 135.98Z" fill="#7B9FE1"/>
<path d="M219.394 139.153H219.768L222.2 137.846L221.826 137.66L219.394 139.153Z" fill="#7B9FE1"/>
<path d="M222.575 136.167L218.085 138.78H218.272L222.762 136.354L222.575 136.167Z" fill="#7B9FE1"/>
<path d="M225.944 135.234L222.202 137.474L222.576 137.66L226.318 135.421L225.944 135.234Z" fill="#7B9FE1"/>
<path d="M218.086 138.967H217.712L208.919 144.005L209.106 144.192L218.086 138.967Z" fill="#7B9FE1"/>
<path d="M226.879 133.74H227.066L229.124 132.621H228.75L226.879 133.74Z" fill="#7B9FE1"/>
<path d="M213.407 142.886L213.22 142.699L210.04 144.565L210.227 144.752L213.407 142.886Z" fill="#7B9FE1"/>
<path d="M219.021 139.339L213.408 142.512L213.782 142.698L219.395 139.526L219.021 139.339Z" fill="#7B9FE1"/>
<path d="M229.126 132.435H229.313L230.997 131.502L230.81 131.315L229.126 132.435Z" fill="#7B9FE1"/>
<path d="M163.27 137.287L162.896 137.1L171.128 132.434L171.502 132.621L163.27 137.287ZM161.212 138.593L160.838 138.406L162.335 137.473L162.709 137.66L161.212 138.593ZM151.483 144.005L151.109 143.818L160.089 138.779L160.464 138.966L151.483 144.005ZM145.122 147.738L144.748 147.551L150.548 144.192L150.922 144.378L145.122 147.738ZM164.767 133.741L172.999 129.075L173.373 129.262L165.141 133.927L164.767 133.741ZM173.56 128.515L177.115 126.462L177.489 126.649L173.934 128.702L173.56 128.515ZM162.896 135.047L162.522 134.86L164.018 133.927L164.393 134.114L162.896 135.047ZM153.354 140.646L152.98 140.459L161.96 135.42L162.335 135.607L153.354 140.646ZM143.064 146.618L142.69 146.431L152.232 140.832L152.606 141.019L143.064 146.618ZM195.45 114.145L195.076 113.958L199.94 111.159L200.314 111.346L195.45 114.145ZM188.902 117.878L188.527 117.691L194.514 114.332L194.889 114.518L188.902 117.878ZM184.973 120.117L184.599 119.93L187.966 118.064L188.34 118.251L184.973 120.117ZM178.425 123.849L178.05 123.663L183.85 120.304L184.224 120.49L178.425 123.849ZM172.438 127.395L172.063 127.209L177.302 124.223L177.676 124.409L172.438 127.395ZM165.515 131.501L165.141 131.314L171.502 127.582L171.876 127.769L165.515 131.501ZM158.593 135.42L158.219 135.234L164.58 131.688L164.954 131.874L158.593 135.42ZM149.799 140.459L149.425 140.273L157.47 135.607L157.844 135.794L149.799 140.459ZM141.193 145.498L140.819 145.311L148.677 140.646L149.051 140.832L141.193 145.498ZM185.16 117.878L184.786 117.691L198.069 110.039L198.443 110.226L185.16 117.878ZM178.612 121.61L178.237 121.423L184.224 118.064L184.599 118.251L178.612 121.61ZM171.502 125.716L171.128 125.529L177.489 121.797L177.863 121.983L171.502 125.716ZM168.134 127.582L167.76 127.395L170.567 125.716L170.941 125.902L168.134 127.582ZM164.018 130.008L163.644 129.822L167.199 127.769L167.573 127.955L164.018 130.008ZM155.038 135.047L154.664 134.86L162.896 130.195L163.27 130.381L155.038 135.047ZM152.98 136.353L152.606 136.167L154.103 135.234L154.477 135.42L152.98 136.353ZM143.438 141.952L143.064 141.765L152.045 136.727L152.419 136.913L143.438 141.952ZM139.135 144.192L138.761 144.005L142.316 141.952L142.69 142.139L139.135 144.192ZM194.702 110.039L194.327 109.853L196.011 108.92L196.385 109.106L194.702 110.039ZM191.521 111.906L191.147 111.719L193.766 110.226L194.14 110.413L191.521 111.906ZM184.973 115.638L184.599 115.451L190.586 112.092L190.96 112.279L184.973 115.638ZM177.863 119.744L177.489 119.557L183.85 115.825L184.224 116.011L177.863 119.744ZM174.496 121.61L174.121 121.423L176.928 119.744L177.302 119.93L174.496 121.61ZM168.509 125.156L168.134 124.969L173.373 121.983L173.747 122.17L168.509 125.156ZM161.399 129.075L161.025 128.888L167.386 125.156L167.76 125.343L161.399 129.075ZM154.477 133.181L154.103 132.994L160.464 129.448L160.838 129.635L154.477 133.181ZM145.683 138.22L145.309 138.033L153.354 133.367L153.728 133.554L145.683 138.22ZM137.264 143.072L136.89 142.885L144.748 138.406L145.122 138.593L137.264 143.072ZM183.289 114.332L182.915 114.145L193.953 107.8L194.327 107.986L183.289 114.332ZM176.741 118.064L176.367 117.878L182.353 114.518L182.728 114.705L176.741 118.064ZM169.818 122.17L169.444 121.983L175.805 118.251L176.179 118.437L169.818 122.17ZM166.264 124.036L165.889 123.849L168.696 122.17L169.07 122.357L166.264 124.036ZM162.147 126.462L161.773 126.276L165.328 124.223L165.702 124.409L162.147 126.462ZM153.354 131.501L152.98 131.314L161.212 126.649L161.586 126.836L153.354 131.501ZM151.109 132.808L150.735 132.621L152.232 131.688L152.606 131.874L151.109 132.808ZM141.567 138.406L141.193 138.22L150.174 133.181L150.548 133.367L141.567 138.406ZM135.206 141.952L134.832 141.765L140.632 138.406L141.006 138.593L135.206 141.952Z" fill="#7B9FE1"/>
<path d="M146.248 97.3491L143.254 99.0287L142.88 98.8421L146.06 96.9758L146.248 97.3491Z" fill="#E1E9F4"/>
<path d="M148.12 96.2296L146.81 96.9761L146.436 96.7895L147.746 96.043L148.12 96.2296Z" fill="#E1E9F4"/>
<path d="M146.247 98.8417L144.563 99.9614L144.188 99.7748L146.059 98.655L146.247 98.8417Z" fill="#E1E9F4"/>
<path d="M150.739 96.4154L146.81 98.6549L146.436 98.4683L150.365 96.2288L150.739 96.4154Z" fill="#E1E9F4"/>
<path d="M153.357 94.9227L151.3 96.0424L150.925 95.8558L152.983 94.7361L153.357 94.9227Z" fill="#E1E9F4"/>
<path d="M127.346 108.174L124.166 110.04L123.792 109.854L126.972 107.987L127.346 108.174Z" fill="#E1E9F4"/>
<path d="M129.217 107.055L127.907 107.802L127.533 107.615L128.842 106.869L129.217 107.055Z" fill="#E1E9F4"/>
<path d="M127.349 109.855L125.665 110.788L125.291 110.601L126.974 109.668L127.349 109.855Z" fill="#E1E9F4"/>
<path d="M131.836 107.241L127.907 109.481L127.533 109.294L131.462 107.054L131.836 107.241Z" fill="#E1E9F4"/>
<path d="M134.457 105.748L132.212 107.055L132.024 106.868L134.082 105.562L134.457 105.748Z" fill="#E1E9F4"/>
<path d="M108.451 119.184L105.271 120.864L104.896 120.677L108.077 118.998L108.451 119.184Z" fill="#E1E9F4"/>
<path d="M110.322 118.066L109.012 118.812L108.638 118.626L109.947 117.879L110.322 118.066Z" fill="#E1E9F4"/>
<path d="M108.453 120.678L106.77 121.798L106.396 121.611L108.079 120.491L108.453 120.678Z" fill="#E1E9F4"/>
<path d="M112.754 118.252L109.012 120.491L108.638 120.304L112.38 118.065L112.754 118.252Z" fill="#E1E9F4"/>
<path d="M115.561 116.759L113.316 117.879L112.942 117.692L115.187 116.572L115.561 116.759Z" fill="#E1E9F4"/>
<path d="M168.88 96.6029L170.003 95.8564L169.629 95.6698L168.506 96.4163L168.88 96.6029ZM158.964 102.388L164.016 99.5888L163.642 99.4023L158.59 102.202L158.964 102.388ZM164.39 99.2156L168.506 96.7895L168.132 96.6029L164.016 99.029L164.39 99.2156ZM158.59 102.575L158.216 102.388L151.106 106.494L151.481 106.681L158.59 102.575ZM150.358 105.934L152.603 104.628L152.229 104.441L149.984 105.748L150.358 105.934ZM165.7 97.1627L168.88 95.2965L168.506 95.1099L165.325 96.9761L165.7 97.1627ZM163.08 98.6557L165.325 97.3494L164.951 97.1627L162.706 98.4691L163.08 98.6557ZM159.9 100.522L162.706 98.8424L162.332 98.6557L159.526 100.335L159.9 100.522ZM153.164 104.254L159.526 100.522L159.151 100.335L152.79 104.068L153.164 104.254Z" fill="#E1E9F4"/>
<path d="M170.938 96.417L171.312 96.6036L168.693 98.0966L168.318 97.91L170.938 96.417ZM164.39 101.456L164.764 101.642L167.57 99.9629L167.196 99.7762L164.39 101.456ZM167.757 98.2832L162.706 101.083L163.08 101.269L168.131 98.4699L167.757 98.2832ZM170.002 98.2832L167.383 99.7762L167.757 99.9629L170.376 98.4699L170.002 98.2832ZM162.706 101.456L162.331 101.269L152.229 107.055L152.603 107.241L162.706 101.456ZM157.467 105.748L157.093 105.562L153.538 107.614L153.912 107.801L157.467 105.748ZM163.828 101.829L157.467 105.562L157.841 105.748L164.202 102.016L163.828 101.829Z" fill="#E1E9F4"/>
<path d="M137.268 132.434L145.312 127.769L144.938 127.582L136.893 132.248L137.268 132.434ZM136.893 132.621L136.519 132.434L129.41 136.54L129.784 136.727L136.893 132.621ZM128.661 135.98L130.906 134.674L130.532 134.487L128.287 135.793L128.661 135.98ZM141.384 128.702L143.629 127.395L143.254 127.209L141.009 128.515L141.384 128.702ZM138.203 130.568L141.009 128.888L140.635 128.702L137.829 130.381L138.203 130.568ZM131.468 134.487L137.829 130.755L137.455 130.568L131.093 134.3L131.468 134.487Z" fill="#E1E9F4"/>
<path d="M140.448 132.808L140.822 132.994L144.189 131.128L143.815 130.942L140.448 132.808ZM144.189 129.262L141.009 131.128L141.383 131.315L144.564 129.449L144.189 129.262ZM141.009 131.501L140.635 131.315L130.532 137.1L130.906 137.287L141.009 131.501ZM135.77 135.794L135.396 135.607L131.841 137.66L132.216 137.847L135.77 135.794ZM140.073 132.994L135.77 135.421L136.145 135.607L140.448 133.181L140.073 132.994Z" fill="#E1E9F4"/>
<path d="M178.426 107.053L178.8 107.239L182.729 105L182.355 104.813L178.426 107.053ZM178.239 107.426L177.864 107.239L172.626 110.225L173 110.412L178.239 107.426ZM175.619 109.852L175.993 110.039L178.8 108.359L178.426 108.172L175.619 109.852ZM178.8 108.172L179.174 108.359L184.787 105.186L184.413 105L178.8 108.172ZM172.064 112.278L171.69 112.092L166.265 115.264L166.639 115.451L172.064 112.278ZM183.664 103.88L182.542 104.44L182.916 104.627L184.038 104.067L183.664 103.88ZM172.626 110.599L172.252 110.412L165.142 114.518L165.516 114.704L172.626 110.599ZM175.432 110.412L175.058 110.225L172.064 111.905L172.439 112.092L175.432 110.412Z" fill="#E1E9F4"/>
<path d="M176.367 112.465L181.419 109.666L181.044 109.479L175.993 112.279L176.367 112.465ZM181.793 109.293L185.535 107.053L185.16 106.867L181.419 109.106L181.793 109.293ZM175.993 112.652L175.619 112.465L168.509 116.571L168.883 116.758L175.993 112.652ZM167.761 116.011L170.006 114.705L169.632 114.518L167.387 115.825L167.761 116.011ZM183.103 107.24L186.283 105.374L185.909 105.187L182.728 107.053L183.103 107.24ZM180.483 108.733L182.728 107.427L182.354 107.24L180.109 108.546L180.483 108.733ZM177.303 110.599L180.109 108.92L179.735 108.733L176.928 110.413L177.303 110.599ZM170.567 114.518L176.928 110.786L176.554 110.599L170.193 114.332L170.567 114.518Z" fill="#E1E9F4"/>
<path d="M126.04 119.558L126.415 119.745L130.343 117.505L129.969 117.319L126.04 119.558ZM125.853 119.932L125.479 119.745L120.241 122.731L120.615 122.917L125.853 119.932ZM123.234 122.544L123.608 122.731L126.415 121.051L126.04 120.865L123.234 122.544ZM126.415 120.678L126.789 120.865L132.402 117.692L132.027 117.505L126.415 120.678ZM119.679 124.97L119.305 124.784L113.879 127.956L114.254 128.143L119.679 124.97ZM131.466 116.572L130.343 117.132L130.718 117.319L131.84 116.759L131.466 116.572ZM120.241 123.291L119.866 123.104L112.757 127.21L113.131 127.397L120.241 123.291ZM123.047 122.917L122.673 122.731L119.679 124.411L120.053 124.597L123.047 122.917Z" fill="#E1E9F4"/>
<path d="M123.983 124.971L129.034 122.171L128.66 121.985L123.609 124.784L123.983 124.971ZM129.408 121.985L133.15 119.745L132.776 119.559L129.034 121.798L129.408 121.985ZM123.609 125.157L123.234 124.971L116.125 129.077L116.499 129.263L123.609 125.157ZM115.564 128.517L117.809 127.21L117.435 127.024L115.189 128.33L115.564 128.517ZM130.718 119.745L133.899 117.879L133.525 117.692L130.344 119.559L130.718 119.745ZM128.099 121.238L130.344 119.932L129.97 119.745L127.725 121.052L128.099 121.238ZM124.918 123.104L127.725 121.425L127.35 121.238L124.544 122.918L124.918 123.104ZM118.183 127.024L124.544 123.291L124.17 123.104L117.809 126.837L118.183 127.024Z" fill="#E1E9F4"/>
<path opacity="0.4" d="M190.028 146.805L203.311 154.457V163.601L188.344 172.186V163.041L175.06 155.39C174.499 155.017 174.499 154.457 174.873 153.897C175.06 153.523 175.434 153.15 175.996 152.59L164.022 145.685C155.977 148.111 147.184 149.418 138.203 149.231L137.268 148.671C137.455 148.671 137.829 148.671 138.016 148.671C150.364 148.485 162.525 145.685 171.88 140.273C191.524 128.889 191.337 110.413 171.693 99.029C162.338 93.6169 149.99 90.8175 137.642 90.6309C129.41 90.8175 121.365 92.1239 114.068 94.5501L118.745 91.9373C124.732 90.6309 131.281 90.071 137.642 90.2576C151.3 90.071 165.144 92.8704 175.622 98.8424C195.64 110.413 195.827 129.262 175.809 140.833C175.434 141.02 175.06 141.206 174.686 141.393L185.35 147.551C187.034 146.992 188.531 146.805 189.466 146.992C189.653 146.618 189.84 146.805 190.028 146.805ZM87.8753 109.48C86.0043 112.466 85.0689 115.452 84.8818 118.438L89.1849 120.864C88.6237 115.265 90.8688 109.853 95.9203 104.814L87.8753 109.48Z" fill="#ADA6A3"/>
<path d="M208.735 85.7788V93.8037C208.735 86.1521 203.684 78.5005 193.581 72.7151C173.562 61.1444 141.008 61.1444 120.989 72.7151C111.073 78.5005 106.209 85.9655 106.021 93.6171V85.5922C106.021 78.1272 111.073 70.4756 120.989 64.6903C141.008 53.1195 173.562 53.1195 193.581 64.6903C203.684 70.4756 208.735 78.1272 208.735 85.7788Z" fill="url(#paint0_linear_14822_171640)"/>
<path d="M246.717 89.8845L161.964 138.594L76.6504 89.5112L161.403 40.6155L246.717 89.8845Z" fill="#F8F5F4"/>
<path d="M204.249 75.3273L201.817 75.7006L203.127 76.4471L180.676 89.3242L181.798 90.0707L204.249 77.007L205.372 77.7535L205.933 76.2604L206.682 74.9541L204.249 75.3273Z" fill="#86B1FF"/>
<path d="M196.949 94.1766L197.698 92.8702L198.82 93.6167L221.271 80.553L222.581 81.2995L199.943 94.1766L201.065 94.9231L198.82 95.2963L196.388 95.6696L196.949 94.1766Z" fill="#2D6AD8"/>
<path d="M166.643 104.254L167.391 105.747L168.514 105L186.475 115.265L187.597 114.705L169.636 104.254L170.759 103.694L168.327 103.321L166.082 102.948L166.643 104.254Z" fill="#2D6AD8"/>
<path d="M234.371 67.3024L232.126 66.9291L233.248 66.1826L215.475 55.9183L216.597 55.3584L234.371 65.6228L235.493 64.8763L236.242 66.3693L236.803 67.6756L234.371 67.3024Z" fill="#86B1FF"/>
<path d="M184.222 90.6325L145.307 113.027L126.972 102.39L165.887 79.9949L184.222 90.6325Z" fill="#86B1FF"/>
<path d="M249.704 52.9337L210.789 75.3287L192.641 64.6911L231.369 42.2961L249.704 52.9337Z" fill="#86B1FF"/>
<path d="M170.565 82.7942L165.887 79.9949L126.972 102.39L131.649 105.189L170.565 82.7942Z" fill="#2D6AD8"/>
<path d="M236.234 45.0955L231.369 42.2961L192.641 64.6911L197.318 67.4905L236.234 45.0955Z" fill="#2D6AD8"/>
<path d="M210.602 105.748L171.687 128.33L153.352 117.692L192.267 95.2974L210.602 105.748Z" fill="#86B1FF"/>
<path d="M276.271 68.0496L237.356 90.4446L219.021 79.9936L257.936 57.5986L276.271 68.0496Z" fill="#86B1FF"/>
<path d="M197.131 98.0967L192.267 95.2974L153.352 117.692L158.216 120.492L197.131 98.0967Z" fill="#2D6AD8"/>
<path d="M262.613 60.2114L257.936 57.5986L219.021 79.9936L223.698 82.6064L262.613 60.2114Z" fill="#2D6AD8"/>
<path d="M113.883 91.7501L112.761 92.31L99.103 84.4718L100.226 83.9119L113.883 91.7501Z" fill="#7B9FE1"/>
<path d="M115.193 91.0036L113.884 91.7501L101.536 84.6584L102.845 83.9119L115.193 91.0036Z" fill="#2D6AD8"/>
<path d="M118.37 89.1383L117.247 89.8848L104.338 82.2332L105.46 81.6733L118.37 89.1383Z" fill="#7B9FE1"/>
<path d="M119.679 88.5779L118.369 89.1378L104.15 81.1129L105.46 80.3665L119.679 88.5779Z" fill="#2D6AD8"/>
<path d="M122.864 86.5241L121.742 87.2707L105.278 77.7528L106.4 77.1929L122.864 86.5241Z" fill="#7B9FE1"/>
<path d="M124.176 85.9641L122.866 86.5239L114.447 81.6717L115.756 81.1118L124.176 85.9641Z" fill="#2D6AD8"/>
<path d="M127.352 83.9117L126.23 84.6581L111.075 75.8868L112.198 75.3269L127.352 83.9117Z" fill="#7B9FE1"/>
<path d="M128.475 83.3518L127.353 84.0983L113.508 76.0734L114.63 75.3269L128.475 83.3518Z" fill="#2D6AD8"/>
<path d="M140.822 76.2597L139.699 76.8196L124.358 68.0482L125.48 67.3018L140.822 76.2597Z" fill="#7B9FE1"/>
<path d="M141.943 75.5131L140.821 76.2595L131.092 70.6608L132.401 69.9143L141.943 75.5131Z" fill="#2D6AD8"/>
<path d="M145.312 73.6471L144.19 74.3936L131.655 67.1153L132.777 66.5554L145.312 73.6471Z" fill="#7B9FE1"/>
<path d="M146.433 72.9012L145.31 73.6477L134.833 67.6757L136.143 66.9292L146.433 72.9012Z" fill="#2D6AD8"/>
<path d="M149.803 71.0343L148.681 71.7808L129.41 60.5833L130.533 60.0234L149.803 71.0343Z" fill="#7B9FE1"/>
<path d="M150.927 70.4743L149.805 71.0341L132.966 61.3296L134.089 60.7698L150.927 70.4743Z" fill="#2D6AD8"/>
<path d="M154.293 68.4222L153.17 69.1686L135.771 59.0909L136.893 58.531L154.293 68.4222Z" fill="#7B9FE1"/>
<path d="M155.416 67.8622L154.293 68.4221L139.139 59.8373L140.261 59.0908L155.416 67.8622Z" fill="#2D6AD8"/>
<path d="M158.787 65.9954L157.664 66.5553L145.129 59.2769L146.251 58.717L158.787 65.9954Z" fill="#7B9FE1"/>
<path d="M159.907 65.2493L158.784 65.9958L144.565 57.7843L145.688 57.0378L159.907 65.2493Z" fill="#2D6AD8"/>
<path d="M131.844 81.4859L130.722 82.0457L125.296 78.8731L126.418 78.3132L131.844 81.4859Z" fill="#7B9FE1"/>
<path d="M132.967 80.7393L131.845 81.4858L122.303 75.8871L123.613 75.3271L132.967 80.7393Z" fill="#2D6AD8"/>
<path d="M136.334 78.8728L135.211 79.4327L129.786 76.4467L130.908 75.7002L136.334 78.8728Z" fill="#7B9FE1"/>
<path d="M137.457 78.1259L136.334 78.8725L132.405 76.633L133.528 75.8865L137.457 78.1259Z" fill="#2D6AD8"/>
<path d="M162.152 65.0623L112.199 93.8026L111.263 93.2426L161.217 64.5024L162.152 65.0623Z" fill="#7B9FE1"/>
<path d="M169.073 60.0236L167.95 60.5835L160.466 56.2911L161.589 55.7312L169.073 60.0236Z" fill="#7B9FE1"/>
<path d="M170.195 59.2769L169.073 60.0234L162.898 56.4775L164.208 55.731L170.195 59.2769Z" fill="#2D6AD8"/>
<path d="M173.565 57.4109L172.443 58.1574L169.636 56.4777L170.759 55.7312L173.565 57.4109Z" fill="#7B9FE1"/>
<path d="M174.688 56.6638L173.565 57.4103L169.636 55.1708L170.759 54.4243L174.688 56.6638Z" fill="#2D6AD8"/>
<path d="M178.052 54.7981L176.929 55.5447L168.136 50.5058L169.258 49.7593L178.052 54.7981Z" fill="#7B9FE1"/>
<path d="M179.174 54.2385L178.052 54.7983L173.749 52.3722L175.058 51.6257L179.174 54.2385Z" fill="#2D6AD8"/>
<path d="M182.546 52.1847L181.423 52.9312L178.43 51.2516L179.552 50.5051L182.546 52.1847Z" fill="#7B9FE1"/>
<path d="M183.668 51.6247L182.545 52.1845L177.494 49.3852L178.803 48.6387L183.668 51.6247Z" fill="#2D6AD8"/>
<path d="M196.017 44.5333L194.895 45.0932L178.992 35.9486L180.114 35.3887L196.017 44.5333Z" fill="#7B9FE1"/>
<path d="M197.14 43.7867L196.018 44.5332L181.424 36.1351L182.734 35.5752L197.14 43.7867Z" fill="#2D6AD8"/>
<path d="M200.505 41.9212L199.382 42.481L179.176 30.9103L180.112 30.1638L200.505 41.9212Z" fill="#7B9FE1"/>
<path d="M201.628 41.1747L200.506 41.9212L181.048 30.7237L182.358 30.1638L201.628 41.1747Z" fill="#2D6AD8"/>
<path d="M204.994 39.3081L203.871 40.0546L188.904 31.4699L190.026 30.7234L204.994 39.3081Z" fill="#7B9FE1"/>
<path d="M206.115 38.5626L204.993 39.3091L191.896 31.8441L193.206 31.0977L206.115 38.5626Z" fill="#2D6AD8"/>
<path d="M209.486 36.6954L208.364 37.4419L196.764 30.7234L197.887 30.1636L209.486 36.6954Z" fill="#7B9FE1"/>
<path d="M210.609 36.135L209.487 36.6949L200.132 31.4694L201.255 30.7229L210.609 36.135Z" fill="#2D6AD8"/>
<path d="M213.976 34.0835L212.854 34.83L207.054 31.4708L208.176 30.9109L213.976 34.0835Z" fill="#7B9FE1"/>
<path d="M215.1 33.5231L213.977 34.2696L208.926 31.2836L210.048 30.5371L215.1 33.5231Z" fill="#2D6AD8"/>
<path d="M187.033 49.7589L185.911 50.3188L176.369 44.9066L177.492 44.1602L187.033 49.7589Z" fill="#7B9FE1"/>
<path d="M188.158 49.0127L187.035 49.7592L175.997 43.414L177.119 42.6675L188.158 49.0127Z" fill="#2D6AD8"/>
<path d="M191.524 47.1468L190.401 47.7066L181.234 42.4811L182.356 41.7346L191.524 47.1468Z" fill="#7B9FE1"/>
<path d="M192.647 46.4004L191.524 47.1469L183.854 42.6679L184.976 41.9214L192.647 46.4004Z" fill="#2D6AD8"/>
<path d="M217.343 33.3362L167.389 62.0765L166.267 61.5166L216.22 32.7764L217.343 33.3362Z" fill="#7B9FE1"/>
<path d="M159.155 78.1254L122.111 99.5872L116.873 96.6013L153.917 75.1394L159.155 78.1254Z" fill="#2D6AD8"/>
<path d="M125.666 97.5346L122.111 99.5874L116.873 96.6015L120.24 94.5486L125.666 97.5346Z" fill="#F25A5A"/>
<path d="M193.018 58.7165L155.973 80.1783L150.735 77.0057L187.779 55.7305L193.018 58.7165Z" fill="#2D6AD8"/>
<path d="M159.341 78.1249L155.973 80.1778L150.735 77.0052L154.103 75.1389L159.341 78.1249Z" fill="#97CC66"/>
<path d="M226.693 39.3075L189.649 60.5828L184.41 57.5968L221.454 36.3215L226.693 39.3075Z" fill="#2D6AD8"/>
<path d="M193.204 58.716L189.649 60.5823L184.41 57.5963L187.965 55.5435L193.204 58.716Z" fill="#44BFE5"/>
<path d="M196.766 52.3725L191.34 55.5452L190.592 55.3585L196.205 51.9993L196.766 52.3725Z" fill="#E1E9F4"/>
<path d="M200.134 50.5061L197.702 51.8125L197.141 51.6258L199.386 50.1328L200.134 50.5061Z" fill="#E1E9F4"/>
<path d="M196.767 55.3579L193.773 57.0375L193.212 56.6642L196.205 54.9846L196.767 55.3579Z" fill="#E1E9F4"/>
<path d="M204.624 50.8791L197.702 54.7982L197.141 54.425L204.063 50.5059L204.624 50.8791Z" fill="#E1E9F4"/>
<path d="M209.299 48.0797L205.557 50.3192L204.996 49.946L208.737 47.8931L209.299 48.0797Z" fill="#E1E9F4"/>
<path d="M163.276 71.7809L157.85 74.9536L157.102 74.5803L162.714 71.4077L163.276 71.7809Z" fill="#E1E9F4"/>
<path d="M166.644 69.9142L164.212 71.2206L163.65 70.8474L166.083 69.541L166.644 69.9142Z" fill="#E1E9F4"/>
<path d="M163.276 74.5802L160.283 76.4465L159.722 76.0733L162.715 74.207L163.276 74.5802Z" fill="#E1E9F4"/>
<path d="M171.134 70.1015L164.212 74.0207L163.65 73.834L170.573 69.7283L171.134 70.1015Z" fill="#E1E9F4"/>
<path d="M175.808 67.4888L172.067 69.5416L171.505 69.355L175.247 67.1155L175.808 67.4888Z" fill="#E1E9F4"/>
<path d="M129.972 91.0036L124.36 94.1762L123.611 93.803L129.224 90.6304L129.972 91.0036Z" fill="#E1E9F4"/>
<path d="M133.154 89.1369L130.721 90.4433L130.16 90.0701L132.592 88.7637L133.154 89.1369Z" fill="#E1E9F4"/>
<path d="M129.973 93.8031L126.793 95.6693L126.231 95.2961L129.225 93.6165L129.973 93.8031Z" fill="#E1E9F4"/>
<path d="M137.644 89.5109L130.721 93.43L130.16 93.0568L137.083 89.1377L137.644 89.5109Z" fill="#E1E9F4"/>
<path d="M142.318 86.7114L138.576 88.9509L138.015 88.5776L141.757 86.3381L142.318 86.7114Z" fill="#E1E9F4"/>
<path d="M236.617 51.2515L238.675 50.1318L238.114 49.7585L236.056 50.8783L236.617 51.2515ZM219.031 61.3292L227.824 56.2904L227.263 55.9171L218.469 60.956L219.031 61.3292ZM228.572 55.9171L235.869 51.6248L235.308 51.2515L228.011 55.5439L228.572 55.9171ZM218.469 61.7025L217.908 61.3292L205.373 68.6077L205.934 68.9809L218.469 61.7025ZM204.063 67.6745L208.179 65.2484L207.618 64.8752L203.502 67.3013L204.063 67.6745ZM231.004 52.1846L236.617 48.8254L236.056 48.4521L230.443 51.8114L231.004 52.1846ZM226.327 54.7974L230.256 52.5579L229.695 52.1846L225.766 54.4242L226.327 54.7974ZM220.714 57.97L225.579 55.1707L225.018 54.7974L220.153 57.5968L220.714 57.97ZM208.741 64.8752L219.966 58.3433L219.405 57.97L208.179 64.5019L208.741 64.8752Z" fill="#E1E9F4"/>
<path d="M240.172 50.8777L240.733 51.2509L236.056 54.0503L235.494 53.6771L240.172 50.8777ZM228.572 59.8357L229.133 60.2089L233.998 57.4096L233.436 57.0363L228.572 59.8357ZM234.746 54.0503L225.953 59.0892L226.514 59.4624L235.307 54.4235L234.746 54.0503ZM238.675 54.0503L234.185 56.663L234.746 57.0363L239.236 54.4235L238.675 54.0503ZM225.766 59.8357L225.204 59.4624L207.431 69.7267L207.992 70.1L225.766 59.8357ZM216.411 67.4873L215.85 67.114L209.489 70.8465L210.05 71.2198L216.411 67.4873ZM227.824 60.3955L216.598 66.9274L217.159 67.3006L228.385 60.7688L227.824 60.3955Z" fill="#E1E9F4"/>
<path d="M180.862 114.332L195.081 106.12L194.52 105.747L180.301 113.959L180.862 114.332ZM180.114 114.705L179.553 114.332L167.017 121.61L167.579 121.983L180.114 114.705ZM165.708 120.677L169.824 118.251L169.262 117.878L165.146 120.304L165.708 120.677ZM187.972 107.8L191.901 105.561L191.339 105.187L187.41 107.427L187.972 107.8ZM182.359 111.159L187.223 108.36L186.662 107.987L181.798 110.786L182.359 111.159ZM170.385 118.064L181.611 111.533L181.049 111.159L169.824 117.691L170.385 118.064Z" fill="#E1E9F4"/>
<path d="M186.475 115.078L187.036 115.452L193.023 112.092L192.462 111.719L186.475 115.078ZM193.21 108.92L187.597 112.092L188.159 112.466L193.771 109.293L193.21 108.92ZM187.41 112.839L186.849 112.466L169.075 122.73L169.636 123.103L187.41 112.839ZM178.056 120.49L177.494 120.117L171.133 123.85L171.694 124.223L178.056 120.49ZM185.913 115.452L178.43 119.744L178.991 120.117L186.475 115.825L185.913 115.452Z" fill="#E1E9F4"/>
<path d="M253.451 69.542L254.012 69.9153L260.935 65.9961L260.373 65.6229L253.451 69.542ZM253.264 70.2885L252.703 69.9153L243.348 75.3274L243.909 75.7006L253.264 70.2885ZM248.399 74.7675L248.961 75.1408L253.825 72.3414L253.264 71.9681L248.399 74.7675ZM254.012 71.5949L254.573 71.9681L264.302 66.3694L263.741 65.9961L254.012 71.5949ZM242.225 79.0599L241.664 78.6867L232.122 84.0988L232.684 84.472L242.225 79.0599ZM262.993 64.1299L261.122 65.2496L261.683 65.6229L263.554 64.5032L262.993 64.1299ZM243.348 76.0739L242.787 75.7006L230.251 82.979L230.813 83.3523L243.348 76.0739ZM248.399 75.514L247.838 75.1408L242.412 78.3134L242.974 78.6867L248.399 75.514Z" fill="#E1E9F4"/>
<path d="M249.896 79.0602L258.689 74.0214L258.128 73.6481L249.335 78.687L249.896 79.0602ZM259.438 73.6481L266.173 69.729L265.612 69.3557L258.876 73.2749L259.438 73.6481ZM249.335 79.4335L248.773 79.0602L236.238 86.3386L236.799 86.7118L249.335 79.4335ZM234.741 85.5921L238.857 83.166L238.296 82.7927L234.18 85.2189L234.741 85.5921ZM261.87 69.9156L267.483 66.5564L266.921 66.1831L261.309 69.5424L261.87 69.9156ZM257.192 72.715L261.121 70.4755L260.56 70.1022L256.631 72.3418L257.192 72.715ZM251.58 75.8876L256.444 73.0882L255.883 72.715L251.018 75.5143L251.58 75.8876ZM239.606 82.7927L250.831 76.2608L250.27 75.8876L239.045 82.4195L239.606 82.7927Z" fill="#E1E9F4"/>
<path d="M161.025 91.9369L161.586 92.3101L168.509 88.391L167.948 88.0177L161.025 91.9369ZM160.838 92.4967L160.277 92.1235L150.922 97.5356L151.483 97.9088L160.838 92.4967ZM155.974 96.9757L156.535 97.349L161.399 94.5496L160.838 94.1763L155.974 96.9757ZM161.586 93.8031L162.148 94.1763L171.876 88.5776L171.315 88.2044L161.586 93.8031ZM149.8 101.268L149.238 100.895L139.697 106.307L140.258 106.68L149.8 101.268ZM170.38 86.3381L168.509 87.4578L169.07 87.8311L170.941 86.7114L170.38 86.3381ZM150.922 98.2821L150.361 97.9088L137.826 105.187L138.387 105.56L150.922 98.2821ZM155.787 97.7222L155.225 97.349L149.8 100.522L150.361 100.895L155.787 97.7222Z" fill="#E1E9F4"/>
<path d="M157.47 101.455L166.263 96.4161L165.702 96.0429L156.909 101.082L157.47 101.455ZM167.012 95.8562L173.747 91.9372L173.186 91.5639L166.451 95.483L167.012 95.8562ZM156.722 101.828L156.16 101.455L143.625 108.733L144.187 109.107L156.722 101.828ZM142.316 107.8L146.432 105.374L145.87 105.001L141.754 107.427L142.316 107.8ZM169.257 92.3104L174.87 88.9512L174.308 88.5779L168.696 91.9372L169.257 92.3104ZM164.767 94.9231L168.696 92.6836L168.134 92.3104L164.205 94.5499L164.767 94.9231ZM159.154 98.0958L164.018 95.2964L163.457 94.9231L158.593 97.7225L159.154 98.0958ZM147.18 105.001L158.406 98.469L157.844 98.0958L146.619 104.628L147.18 105.001Z" fill="#E1E9F4"/>
<path d="M120.993 70.4745C141.012 58.9037 173.566 58.9037 193.585 70.4745C202.939 75.8866 207.804 82.7917 208.552 89.6968C209.488 81.4853 204.436 73.0872 193.585 66.9285C173.566 55.3578 141.012 55.3578 120.993 66.9285C110.329 73.0872 105.277 81.4853 106.213 89.5102C106.961 82.605 111.826 75.7 120.993 70.4745Z" fill="#6F96C1"/>
<path d="M209.674 85.7784V93.8033C209.674 101.455 204.622 109.107 194.519 115.079C174.313 126.836 141.011 126.836 120.618 115.079C110.328 109.107 105.276 101.455 105.276 93.6167V85.5918C105.276 93.43 110.328 101.082 120.618 107.054C141.011 118.811 174.126 118.811 194.519 107.054C204.622 101.082 209.674 93.4301 209.674 85.7784Z" fill="url(#paint1_linear_14822_171640)"/>
<path d="M194.144 64.3166C214.537 76.0739 214.724 95.2963 194.331 107.054C174.125 118.811 140.823 118.811 120.43 107.054C100.037 95.2963 99.8495 76.0739 120.243 64.3166C140.636 52.5592 173.751 52.5592 194.144 64.3166ZM121.178 106.68C141.197 118.251 173.751 118.251 193.77 106.68C213.789 95.1097 213.601 76.2606 193.583 64.6898C173.564 53.1191 141.01 53.1191 120.991 64.6898C101.159 76.2606 101.159 95.1097 121.178 106.68Z" fill="url(#paint2_linear_14822_171640)"/>
<path d="M208.173 117.318C208.36 117.318 208.547 117.504 208.734 117.504L194.702 109.48C194.515 109.48 194.328 109.293 194.141 109.293C192.644 108.92 190.025 110.413 188.528 112.466C187.78 113.399 187.406 114.518 187.406 115.265C187.406 115.825 187.593 116.385 188.154 116.571L202.186 124.596C202.373 124.596 202.56 124.783 202.747 124.783C204.244 125.156 206.863 123.663 208.36 121.61C209.108 120.677 209.483 119.557 209.483 118.811C209.483 118.064 208.921 117.504 208.173 117.318Z" fill="#C7C6C4"/>
<path d="M210.795 115.638C210.607 115.452 210.233 115.452 210.046 115.265C207.614 114.892 203.685 117.131 201.066 120.304C199.756 121.984 199.195 123.477 199.195 124.783C199.195 125.716 199.569 126.463 200.317 126.836L247.278 153.71C247.465 153.897 247.839 153.897 248.026 154.083C250.458 154.456 254.387 152.217 257.006 149.044C258.316 147.365 258.877 145.872 258.877 144.565C258.877 143.632 258.503 143.072 257.942 142.512C257.755 142.512 210.795 115.638 210.795 115.638Z" fill="url(#paint3_linear_14822_171640)"/>
<path d="M256.629 143.819C256.068 143.259 254.197 143.819 252.139 145.499C250.268 146.992 249.146 148.858 249.707 149.418C250.268 149.978 252.139 149.418 254.197 147.738C256.068 146.245 257.191 144.379 256.629 143.819Z" fill="url(#paint4_linear_14822_171640)"/>
<defs>
<linearGradient id="paint0_linear_14822_171640" x1="106.111" y1="74.9434" x2="208.676" y2="74.9434" gradientUnits="userSpaceOnUse">
<stop stop-color="#E4E2E2"/>
<stop offset="1" stop-color="#D6D5D4"/>
</linearGradient>
<linearGradient id="paint1_linear_14822_171640" x1="105.193" y1="104.685" x2="209.604" y2="104.685" gradientUnits="userSpaceOnUse">
<stop stop-color="#D6D5D4"/>
<stop offset="1" stop-color="#E4E2E2"/>
</linearGradient>
<linearGradient id="paint2_linear_14822_171640" x1="105.215" y1="85.675" x2="209.603" y2="85.675" gradientUnits="userSpaceOnUse">
<stop stop-color="#F0EFEC"/>
<stop offset="1" stop-color="#FFFEFB"/>
</linearGradient>
<linearGradient id="paint3_linear_14822_171640" x1="199.352" y1="134.756" x2="258.835" y2="134.756" gradientUnits="userSpaceOnUse">
<stop stop-color="#312F2C"/>
<stop offset="1" stop-color="#252321"/>
</linearGradient>
<linearGradient id="paint4_linear_14822_171640" x1="252.16" y1="145.449" x2="254.049" y2="147.554" gradientUnits="userSpaceOnUse">
<stop stop-color="#312F2C"/>
<stop offset="1" stop-color="#252321"/>
</linearGradient>
</defs>
</svg>
