<svg width="345" height="218" viewBox="0 0 345 218" fill="none" xmlns="http://www.w3.org/2000/svg">
<rect width="345" height="218" rx="5" fill="#AEB5D1"/>
<g opacity="0.4">
<path d="M78.7426 86.293L53.6055 100.621L184.079 175.844H198.204L78.7426 86.293Z" fill="#ADA6A3"/>
</g>
<path d="M198.444 175.844L65.0977 98.9495V86.293L198.444 112.561V175.844Z" fill="#D2CFCC"/>
<path d="M292.764 121.398L198.44 175.845V112.562L292.764 108.98V121.398Z" fill="#E9E6E6"/>
<path d="M292.769 108.979L198.445 163.187L65.0991 86.2925L159.423 32.0842L292.769 108.979Z" fill="#F8F5F4"/>
<path d="M93.1135 92.5021L92.3953 92.9796L85.4526 88.92L86.1708 88.4424L93.1135 92.5021Z" fill="#7B9FE1"/>
<path d="M94.0748 92.0241L93.1172 92.5018L87.3716 89.1585L88.3292 88.6809L94.0748 92.0241Z" fill="#2D6AD8"/>
<path d="M96.703 90.3521L95.7454 90.8296L89.521 87.2476L90.2392 86.77L96.703 90.3521Z" fill="#7B9FE1"/>
<path d="M97.6606 89.8746L96.703 90.3523L89.521 86.2926L90.4786 85.8149L97.6606 89.8746Z" fill="#2D6AD8"/>
<path d="M100.291 88.4423L99.3336 88.92L90.2363 83.6663L91.1939 83.1887L100.291 88.4423Z" fill="#7B9FE1"/>
<path d="M101.011 87.9647L100.053 88.4422L93.5894 84.6214L94.547 84.1438L101.011 87.9647Z" fill="#2D6AD8"/>
<path d="M103.648 86.2924L102.691 87.0087L94.7905 82.2327L95.7481 81.7551L103.648 86.2924Z" fill="#7B9FE1"/>
<path d="M104.61 85.8147L103.652 86.5312L96.7095 82.4715L97.6671 81.7551L104.61 85.8147Z" fill="#2D6AD8"/>
<path d="M114.178 80.3222L113.221 80.7998L105.081 76.0238L106.039 75.5461L114.178 80.3222Z" fill="#7B9FE1"/>
<path d="M115.134 79.8446L114.176 80.3222L106.515 76.0238L107.473 75.5461L115.134 79.8446Z" fill="#2D6AD8"/>
<path d="M117.768 78.4126L116.81 78.8902L110.825 75.5469L111.783 74.8306L117.768 78.4126Z" fill="#7B9FE1"/>
<path d="M118.486 77.6954L117.768 78.4119L109.628 73.6358L110.586 73.1582L118.486 77.6954Z" fill="#2D6AD8"/>
<path d="M121.122 76.2621L120.404 76.7397L109.152 70.292L110.109 69.8145L121.122 76.2621Z" fill="#7B9FE1"/>
<path d="M122.079 75.7847L121.122 76.2623L111.785 71.0086L112.743 70.531L122.079 75.7847Z" fill="#2D6AD8"/>
<path d="M124.713 74.3519L123.755 74.8295L113.94 69.0982L114.898 68.6206L124.713 74.3519Z" fill="#7B9FE1"/>
<path d="M125.67 73.8752L124.713 74.3528L116.573 69.5768L117.531 69.0991L125.67 73.8752Z" fill="#2D6AD8"/>
<path d="M128.302 72.2031L127.344 72.6807L121.359 69.3374L122.317 68.8599L128.302 72.2031Z" fill="#7B9FE1"/>
<path d="M129.021 71.7256L128.064 72.2033L120.882 68.1436L121.839 67.666L129.021 71.7256Z" fill="#2D6AD8"/>
<path d="M107.237 84.3817L106.279 84.8592L101.97 82.4712L102.928 81.9937L107.237 84.3817Z" fill="#7B9FE1"/>
<path d="M108.193 83.9044L107.235 84.382L99.814 80.0835L100.772 79.606L108.193 83.9044Z" fill="#2D6AD8"/>
<path d="M110.592 82.4718L109.874 82.9495L105.565 80.5614L106.523 79.845L110.592 82.4718Z" fill="#7B9FE1"/>
<path d="M111.554 81.7551L110.596 82.4715L107.484 80.5611L108.442 80.0835L111.554 81.7551Z" fill="#2D6AD8"/>
<path d="M130.7 71.7251L91.9171 94.1726L90.9595 93.695L129.982 71.2476L130.7 71.7251Z" fill="#7B9FE1"/>
<path d="M136.202 67.6661L135.244 68.1436L129.499 64.8004L130.217 64.3228L136.202 67.6661Z" fill="#7B9FE1"/>
<path d="M137.163 67.1884L136.205 67.6661L131.417 65.0392L132.375 64.3228L137.163 67.1884Z" fill="#2D6AD8"/>
<path d="M139.791 65.7556L138.834 66.2332L136.679 64.8004L137.397 64.3228L139.791 65.7556Z" fill="#7B9FE1"/>
<path d="M140.51 65.0393L139.791 65.7557L136.679 63.8453L137.397 63.3677L140.51 65.0393Z" fill="#2D6AD8"/>
<path d="M143.142 63.6065L142.424 64.0841L135.481 60.2633L136.439 59.7856L143.142 63.6065Z" fill="#7B9FE1"/>
<path d="M144.1 63.1291L143.143 63.6068L139.791 61.6964L140.749 61.2188L144.1 63.1291Z" fill="#2D6AD8"/>
<path d="M146.736 61.6977L145.778 62.1753L143.384 60.7425L144.342 60.2649L146.736 61.6977Z" fill="#7B9FE1"/>
<path d="M147.695 61.2198L146.737 61.6975L142.907 59.3094L143.864 58.8318L147.695 61.2198Z" fill="#2D6AD8"/>
<path d="M157.268 55.4875L156.311 55.965L147.692 51.189L148.65 50.7114L157.268 55.4875Z" fill="#7B9FE1"/>
<path d="M158.228 55.0098L157.27 55.4875L149.849 51.189L150.567 50.7114L158.228 55.0098Z" fill="#2D6AD8"/>
<path d="M160.616 53.5769L159.898 54.0545L147.928 47.1292L148.646 46.6516L160.616 53.5769Z" fill="#7B9FE1"/>
<path d="M161.572 53.0993L160.614 53.5769L149.362 47.1292L150.32 46.6516L161.572 53.0993Z" fill="#2D6AD8"/>
<path d="M164.216 51.4281L163.258 52.1445L155.598 47.6072L156.316 47.1296L164.216 51.4281Z" fill="#7B9FE1"/>
<path d="M165.176 50.9502L164.218 51.6666L157.994 47.8457L158.712 47.3682L165.176 50.9502Z" fill="#2D6AD8"/>
<path d="M167.807 49.5174L166.849 49.9949L157.752 44.9801L158.71 44.2637L167.807 49.5174Z" fill="#7B9FE1"/>
<path d="M168.525 49.0406L167.807 49.5182L160.385 45.4586L161.343 44.7422L168.525 49.0406Z" fill="#2D6AD8"/>
<path d="M171.151 47.6065L170.432 48.0841L165.884 45.4573L166.841 44.9797L171.151 47.6065Z" fill="#7B9FE1"/>
<path d="M172.106 46.8902L171.148 47.6066L167.318 45.2185L168.275 44.741L172.106 46.8902Z" fill="#2D6AD8"/>
<path d="M150.084 59.5474L149.366 60.0251L141.944 55.9654L142.902 55.249L150.084 59.5474Z" fill="#7B9FE1"/>
<path d="M151.043 59.0693L150.086 59.5469L141.467 54.7708L142.425 54.0544L151.043 59.0693Z" fill="#2D6AD8"/>
<path d="M153.683 57.6363L152.726 58.114L145.783 54.0543L146.501 53.5767L153.683 57.6363Z" fill="#7B9FE1"/>
<path d="M154.645 57.1587L153.687 57.6363L147.702 54.0543L148.66 53.5767L154.645 57.1587Z" fill="#2D6AD8"/>
<path d="M173.788 46.89L134.766 69.3374L134.047 68.8599L173.07 46.4124L173.788 46.89Z" fill="#7B9FE1"/>
<path d="M128.54 81.992L99.5728 98.4694L95.5029 96.0814L124.47 79.604L128.54 81.992Z" fill="#2D6AD8"/>
<path d="M102.206 97.036L99.5728 98.4688L95.5029 96.0808L98.1364 94.6479L102.206 97.036Z" fill="#F25A5A"/>
<path d="M154.878 66.7096L125.91 83.4258L121.84 81.0377L150.808 64.3215L154.878 66.7096Z" fill="#2D6AD8"/>
<path d="M128.544 81.7535L125.91 83.4251L121.84 81.0371L124.474 79.3655L128.544 81.7535Z" fill="#97CC66"/>
<path d="M181.207 51.4266L152.24 68.1428L148.17 65.7548L177.137 49.0386L181.207 51.4266Z" fill="#2D6AD8"/>
<path d="M155.113 66.7098L152.24 68.1426L148.17 65.7546L150.803 64.3218L155.113 66.7098Z" fill="#44BFE5"/>
<path d="M157.985 61.6951L153.437 64.3219L152.958 64.0831L157.507 61.4563L157.985 61.6951Z" fill="#E1E9F4"/>
<path d="M160.377 60.2627L158.462 61.4568L158.223 60.9791L159.898 60.0239L160.377 60.2627Z" fill="#E1E9F4"/>
<path d="M157.987 64.0835L155.593 65.5163L155.114 65.0387L157.508 63.8447L157.987 64.0835Z" fill="#E1E9F4"/>
<path d="M163.968 60.5013L158.701 63.6057L158.223 63.3669L163.489 60.2625L163.968 60.5013Z" fill="#E1E9F4"/>
<path d="M167.561 58.3523L164.688 60.0239L164.209 59.7851L167.082 58.1135L167.561 58.3523Z" fill="#E1E9F4"/>
<path d="M131.657 76.7405L127.347 79.3674L126.869 79.1286L131.178 76.5017L131.657 76.7405Z" fill="#E1E9F4"/>
<path d="M134.287 75.3082L132.372 76.5022L131.893 76.0246L133.808 75.0693L134.287 75.3082Z" fill="#E1E9F4"/>
<path d="M131.658 79.129L129.264 80.5618L129.025 80.0842L131.18 78.8901L131.658 79.129Z" fill="#E1E9F4"/>
<path d="M137.878 75.5467L132.372 78.6511L131.893 78.4123L137.399 75.3079L137.878 75.5467Z" fill="#E1E9F4"/>
<path d="M141.471 73.3978L138.598 75.0693L138.12 74.8306L140.992 73.1589L141.471 73.3978Z" fill="#E1E9F4"/>
<path d="M105.558 91.7839L101.249 94.4108L100.77 94.1719L105.079 91.5452L105.558 91.7839Z" fill="#E1E9F4"/>
<path d="M108.188 90.3516L106.273 91.5456L105.794 91.068L107.71 90.1128L108.188 90.3516Z" fill="#E1E9F4"/>
<path d="M105.562 94.1723L103.168 95.6052L102.689 95.1276L105.083 93.9336L105.562 94.1723Z" fill="#E1E9F4"/>
<path d="M111.779 90.5901L106.273 93.6945L105.794 93.4557L111.301 90.3513L111.779 90.5901Z" fill="#E1E9F4"/>
<path d="M115.373 88.4412L112.5 90.1129L112.021 89.874L114.894 88.2024L115.373 88.4412Z" fill="#E1E9F4"/>
<path d="M213.528 94.6518C201.797 101.338 183.124 101.338 171.393 94.6518C159.663 87.9654 159.663 76.9804 171.393 70.2939C183.124 63.6074 201.797 63.6074 213.528 70.2939C225.258 76.9804 225.258 87.9654 213.528 94.6518Z" fill="#4188EF"/>
<path d="M213.529 94.6521C201.798 101.339 183.125 101.339 171.395 94.6521V97.0401C183.125 103.727 201.798 103.727 213.529 97.0401C219.514 93.6969 222.387 89.1596 222.148 84.8612V82.4731C222.387 86.7716 219.514 91.3089 213.529 94.6521Z" fill="#2D6AD8"/>
<path d="M192.941 74.5904L192.702 82.232H192.223L171.395 70.2919V62.1726L192.941 74.5904Z" fill="#2D6AD8"/>
<path d="M192.7 74.5918V82.4723L213.767 70.2933V62.4128L192.7 74.5918Z" fill="#2D6AD8"/>
<path opacity="0.4" d="M213.765 62.4127L192.698 74.5916L171.391 62.4127C183.122 55.4874 202.034 55.7262 213.765 62.4127Z" fill="#4188EF"/>
<path d="M162.536 77.4575V81.5172L192.7 82.2336V77.4575H162.536Z" fill="#2D6AD8"/>
<path opacity="0.4" d="M171.394 65.0393C165.648 68.3825 162.536 72.9198 162.536 77.457H192.7L171.394 65.0393Z" fill="#4188EF"/>
<path d="M171.394 92.0242C167.084 89.6362 164.211 86.5317 163.014 82.7109C162.775 81.7557 162.536 80.8004 162.536 79.8452V80.5617C162.536 81.9945 162.536 85.5765 163.014 87.0093V87.2481C163.972 90.8302 166.845 94.1734 171.633 96.8002C171.872 96.8002 172.112 97.0391 172.112 97.0391V92.263C171.872 92.5018 171.633 92.263 171.394 92.0242Z" fill="#2D6AD8"/>
<path d="M192.699 80.0837V82.4718L172.11 95.1284V92.5015L192.699 80.0837Z" fill="#2D6AD8"/>
<path opacity="0.4" d="M192.7 80.084L172.112 92.5018C171.872 92.263 171.633 92.263 171.394 92.0242C167.084 89.6361 164.211 86.5317 163.014 82.7109C162.775 81.7557 162.536 80.8004 162.536 79.8452L192.7 80.084Z" fill="#4188EF"/>
<path d="M131.172 98.2333L116.808 106.591L115.132 105.636L129.736 97.2781L131.172 98.2333Z" fill="#F25A5A"/>
<path d="M126.624 104.203L119.442 108.263L118.006 107.307L124.948 103.248L126.624 104.203Z" fill="#F25A5A"/>
<path d="M145.058 96.5609L122.315 109.695L120.879 108.979L143.622 95.6057L145.058 96.5609Z" fill="#97CC66"/>
<path d="M158.702 92.0236L124.947 111.367L123.51 110.411L157.026 91.0684L158.702 92.0236Z" fill="#97CC66"/>
<path d="M158.942 95.1279L127.82 113.038L126.383 112.083L157.266 94.1726L158.942 95.1279Z" fill="#97CC66"/>
<path d="M157.269 99.1883L130.695 114.472L129.02 113.755L155.593 98.4719L157.269 99.1883Z" fill="#2D6AD8"/>
<path d="M154.634 103.724L133.327 116.142L131.891 115.187L153.197 103.008L154.634 103.724Z" fill="#2D6AD8"/>
<path d="M152.956 108.024L136.198 117.815L134.761 116.859L151.519 107.069L152.956 108.024Z" fill="#44BFE5"/>
<path d="M165.647 103.964L138.834 119.248L137.397 118.531L163.971 103.248L165.647 103.964Z" fill="#44BFE5"/>
<path d="M169.477 104.918L141.707 120.918L140.271 120.202L168.041 103.963L169.477 104.918Z" fill="#86B1FF"/>
<path d="M167.56 109.217L144.578 122.59L142.902 121.635L165.884 108.5L167.56 109.217Z" fill="#86B1FF"/>
<path d="M166.127 113.276L147.214 124.261L145.778 123.306L164.691 112.321L166.127 113.276Z" fill="#2D6AD8"/>
<path d="M176.658 110.411L150.085 125.695L148.648 124.978L175.222 109.456L176.658 110.411Z" fill="#F25A5A"/>
<path d="M181.204 111.128L152.716 127.367L151.279 126.411L179.768 110.173L181.204 111.128Z" fill="#F25A5A"/>
<path d="M153.676 127.605L152.718 128.083L113.935 105.635L114.893 105.158L153.676 127.605Z" fill="#86B1FF"/>
<path d="M165.884 133.575C166.842 134.053 166.842 135.008 165.884 135.486C164.927 135.964 163.49 135.964 162.533 135.486C161.575 135.008 161.575 134.053 162.533 133.575C163.49 133.098 164.927 133.098 165.884 133.575Z" fill="#2D6AD8"/>
<path d="M173.785 138.112C174.742 138.59 174.742 139.545 173.785 140.023C172.827 140.5 171.391 140.5 170.433 140.023C169.475 139.545 169.475 138.59 170.433 138.112C171.63 137.635 173.066 137.635 173.785 138.112Z" fill="#2D6AD8"/>
<path d="M181.923 142.65C182.88 143.128 182.88 144.083 181.923 144.561C180.965 145.038 179.529 145.038 178.571 144.561C177.614 144.083 177.614 143.128 178.571 142.65C179.529 142.173 180.965 142.173 181.923 142.65Z" fill="#2D6AD8"/>
<path d="M189.823 147.426C190.781 147.904 190.781 148.859 189.823 149.337C188.866 149.814 187.429 149.814 186.472 149.337C185.514 148.859 185.514 147.904 186.472 147.426C187.429 146.71 188.866 146.71 189.823 147.426Z" fill="#2D6AD8"/>
<path d="M197.724 151.964C198.682 152.441 198.682 153.396 197.724 153.874C196.767 154.352 195.33 154.352 194.372 153.874C193.415 153.396 193.415 152.441 194.372 151.964C195.33 151.486 196.767 151.486 197.724 151.964Z" fill="#2D6AD8"/>
<path d="M208.735 110.889L213.523 108.024L212.804 107.785L208.016 110.651L208.735 110.889ZM187.428 123.307L198.201 117.098L197.483 116.859L186.71 123.068L187.428 123.307ZM198.919 116.621L207.777 111.367L207.059 111.128L198.201 116.382L198.919 116.621ZM186.47 123.785L185.752 123.546L170.67 132.382L171.388 132.621L186.47 123.785ZM214.241 107.785L220.944 103.964L220.226 103.725L213.523 107.546L214.241 107.785ZM168.994 130.949L174.021 128.083L173.303 127.844L168.276 130.71L168.994 130.949ZM212.804 105.158L213.523 105.397L219.508 102.054L218.789 101.815L212.804 105.158ZM201.792 112.083L212.565 105.875L211.847 105.636L201.074 111.845L201.792 112.083ZM196.046 115.427L200.834 112.561L200.116 112.322L195.328 115.188L196.046 115.427ZM189.343 119.248L195.328 115.904L194.61 115.665L188.625 119.009L189.343 119.248ZM174.979 127.606L188.625 119.725L187.907 119.486L174.261 127.367L174.979 127.606Z" fill="#86B1FF"/>
<path d="M203.472 119.008L204.19 119.247L213.048 113.994L212.33 113.755L203.472 119.008ZM203.233 119.964L202.515 119.725L191.742 125.934L192.46 126.173L203.233 119.964ZM205.148 120.919L205.866 121.158L211.851 117.814L211.133 117.576L205.148 120.919ZM211.851 117.098L212.569 117.337L217.357 114.471L216.639 114.232L211.851 117.098ZM228.37 107.546L217.597 113.755L218.315 113.994L229.088 107.785L228.37 107.546ZM190.305 130.232L189.587 129.993L178.335 136.441L179.053 136.68L190.305 130.232ZM223.103 107.785L213.288 113.516L214.006 113.755L223.821 108.024L223.103 107.785ZM191.742 126.65L191.023 126.411L175.702 135.247L176.42 135.486L191.742 126.65ZM223.821 107.307L224.539 107.546L230.285 104.203L229.567 103.964L223.821 107.307ZM204.909 121.874L204.19 121.635L190.545 129.516L191.263 129.755L204.909 121.874Z" fill="#86B1FF"/>
<path d="M207.301 126.412L208.02 126.651L214.005 123.307L213.287 123.069L207.301 126.412ZM208.738 129.039L208.02 128.8L197.486 134.77L198.204 135.009L208.738 129.039ZM218.793 119.725L214.005 122.591L214.723 122.83L219.511 119.964L218.793 119.725ZM219.75 119.248L220.469 119.487L231.242 113.278L230.523 113.039L219.75 119.248ZM230.763 116.382L236.987 112.8L236.269 112.561L230.045 116.143L230.763 116.382ZM192.459 135.486L191.74 135.248L184.08 139.785L184.798 140.024L192.459 135.486ZM206.344 126.889L192.698 134.77L193.416 135.009L207.062 127.128L206.344 126.889ZM208.977 128.083L209.696 128.322L220.469 122.113L219.75 121.875L208.977 128.083ZM229.326 116.382L220.469 121.636L221.187 121.875L230.045 116.621L229.326 116.382ZM234.354 110.651L231.242 112.561L231.96 112.8L235.072 110.89L234.354 110.651ZM197.247 135.486L196.528 135.248L186.474 140.979L187.192 141.218L197.247 135.486Z" fill="#86B1FF"/>
<path d="M211.132 136.919L221.905 130.71L221.187 130.472L210.414 136.68L211.132 136.919ZM222.623 130.233L231.481 124.979L230.763 124.74L221.905 129.994L222.623 130.233ZM210.174 137.397L209.456 137.158L194.374 145.994L195.092 146.233L210.174 137.397ZM192.698 144.561L197.726 141.695L197.007 141.457L191.98 144.322L192.698 144.561ZM236.509 118.77L237.227 119.009L243.212 115.666L242.494 115.427L236.509 118.77ZM225.496 125.696L236.269 119.487L235.551 119.248L224.778 125.457L225.496 125.696ZM219.75 129.039L224.539 126.173L223.82 125.934L219.032 128.8L219.75 129.039ZM213.047 132.86L219.032 129.516L218.314 129.278L212.329 132.621L213.047 132.86ZM198.683 141.218L212.329 133.337L211.611 133.098L197.965 140.979L198.683 141.218Z" fill="#86B1FF"/>
<path d="M233.874 129.277L234.353 129.754L243.45 124.501L242.732 124.262L233.874 129.277Z" fill="#86B1FF"/>
<path d="M225.494 136.919L226.212 137.158L232.197 133.815L231.479 133.576L225.494 136.919Z" fill="#86B1FF"/>
<path d="M232.919 129.755L222.386 135.964L222.865 136.203L233.638 130.232L232.919 129.755Z" fill="#86B1FF"/>
<path d="M241.535 127.605L232.438 133.098L232.916 133.337L242.253 128.083L241.535 127.605Z" fill="#86B1FF"/>
<path d="M222.145 136.68L221.426 136.441L199.88 148.859L200.599 149.098L222.145 136.68Z" fill="#86B1FF"/>
<path d="M243.688 123.785L244.167 124.024L248.955 121.397L248.237 120.919L243.688 123.785Z" fill="#86B1FF"/>
<path d="M210.893 145.993L210.175 145.755L202.514 150.292L203.232 150.531L210.893 145.993Z" fill="#86B1FF"/>
<path d="M224.778 137.396L211.132 145.277L211.611 145.516L225.257 137.635L224.778 137.396Z" fill="#86B1FF"/>
<path d="M249.198 120.441L249.916 120.919L253.746 118.531L253.268 118.053L249.198 120.441Z" fill="#86B1FF"/>
<path d="M81.3778 127.128V124.024L70.126 117.337V120.442C70.126 121.158 70.3654 121.636 70.8442 121.875L82.096 128.561C81.6172 128.322 81.3778 127.845 81.3778 127.128Z" fill="#5169CE"/>
<path d="M84.0129 107.785C83.5341 107.546 83.0553 107.546 82.5765 108.024L72.2822 113.994L83.5341 120.68L93.8283 114.71C94.3071 114.471 95.0253 114.233 95.2647 114.471L84.0129 107.785Z" fill="#788EFF"/>
<path d="M81.3802 124.025L70.1284 117.339C70.1284 115.906 71.086 114.473 72.283 113.757L83.5349 120.443C82.3379 121.159 81.3802 122.831 81.3802 124.025Z" fill="#788EFF"/>
<path d="M93.8258 114.472C95.0228 113.756 95.9804 114.234 95.9804 115.666V118.771C95.9804 120.204 95.0228 121.637 93.8258 122.353L83.5316 128.323C82.3346 129.039 81.377 128.562 81.377 127.129V124.025C81.377 122.592 82.3346 121.159 83.5316 120.443L93.8258 114.472Z" fill="#252321"/>
<path d="M141.71 140.501L88.084 109.456C88.8022 108.979 89.281 108.979 89.7598 109.217L143.386 140.262C142.907 140.023 142.428 140.262 141.71 140.501Z" fill="#373431"/>
<path d="M127.346 155.068V151.725L73.7197 120.68V124.024C73.7197 124.74 73.9591 125.218 74.4379 125.456L128.064 156.501C127.585 156.262 127.346 155.784 127.346 155.068Z" fill="#1E1B19"/>
<path d="M129.74 147.425L75.875 116.381L87.845 109.456L141.71 140.5L129.74 147.425Z" fill="#2D2B29"/>
<path d="M127.346 151.485L73.7197 120.441C73.7197 119.008 74.6773 117.098 76.1137 116.381L129.74 147.425C128.303 148.142 127.346 150.052 127.346 151.485Z" fill="#373431"/>
<path d="M141.707 140.501C143.144 139.785 144.101 140.262 144.101 141.934V145.277C144.101 146.71 143.144 148.62 141.707 149.337L129.737 156.262C128.301 156.978 127.343 156.501 127.343 154.829V151.486C127.343 150.053 128.301 148.143 129.737 147.426L141.707 140.501Z" fill="#252321"/>
<path d="M142.667 142.651C142.427 142.412 141.948 142.412 141.47 142.889L131.175 148.859C130.218 149.337 129.5 150.77 129.5 151.964V154.352C129.5 154.829 129.739 155.307 129.978 155.546L144.103 158.412C144.103 158.412 144.821 158.65 145.3 158.173L147.694 156.74C148.652 156.262 148.891 152.203 148.891 152.203L142.667 142.651Z" fill="#1E1B19"/>
<path d="M153.919 155.067L146.976 151.007C147.215 150.768 147.694 150.768 147.934 151.007L154.876 155.067C154.637 155.067 154.398 155.067 153.919 155.067Z" fill="#373431"/>
<path d="M149.85 160.799V158.888L142.907 154.829V156.739C142.907 157.217 143.147 157.455 143.386 157.455L150.329 161.515C150.089 161.515 149.85 161.276 149.85 160.799Z" fill="#1E1B19"/>
<path d="M151.046 156.74L144.342 152.68L146.976 151.247L153.918 155.068L151.046 156.74Z" fill="#2D2B29"/>
<path d="M149.852 158.889L142.91 154.829C142.91 154.113 143.388 153.157 144.107 152.68L151.049 156.739C150.331 157.217 149.852 158.172 149.852 158.889Z" fill="#373431"/>
<path d="M153.919 155.067C154.638 154.59 155.116 155.067 155.116 155.784V157.694C155.116 158.41 154.638 159.366 153.919 159.843L151.047 161.515C150.328 161.993 149.85 161.515 149.85 160.799V158.888C149.85 158.172 150.328 157.216 151.047 156.739L153.919 155.067Z" fill="#252321"/>
<path d="M154.394 156.023L150.803 158.172V160.56L154.873 162.948C155.112 163.187 155.352 162.948 155.352 162.71L156.309 159.844V159.605V157.695C156.309 157.456 156.07 157.217 155.831 156.978L154.394 156.023Z" fill="#788EFF"/>
<path d="M97.897 124.024L84.73 116.621L88.7998 114.233L101.967 121.874L97.897 124.024Z" fill="#3F474F"/>
<path d="M105.797 126.173L107.473 127.128L107.233 127.367L105.557 126.412L105.797 126.173ZM104.36 127.128L104.6 126.89L103.403 126.173L102.685 125.695L102.445 125.934L103.163 126.412L104.36 127.128ZM102.206 125.457L100.291 124.263L100.051 124.501L101.966 125.695L102.206 125.457ZM104.121 125.695L105.079 126.173L105.318 125.934L103.882 124.979L101.488 123.546L101.248 123.785L104.121 125.695ZM102.924 123.546L104.839 124.74L105.079 124.501L103.163 123.307L102.445 122.83L102.206 123.069L102.924 123.546ZM106.994 125.695L107.712 126.173L107.952 125.934L106.994 125.457L105.797 124.74L105.557 124.979L106.994 125.695ZM112.5 128.561L111.543 128.084L111.303 128.322L112.261 128.8L112.5 128.561ZM111.064 127.845L110.346 127.367L110.106 127.606L110.824 128.084L111.064 127.845ZM111.303 129.278L109.867 128.561L109.627 128.8L111.064 129.516L111.303 129.278ZM107.952 128.8L107.233 128.561L106.994 128.8L107.712 129.039L107.952 128.8ZM108.43 129.278L108.191 129.516L109.867 130.472L110.106 130.233L108.43 129.278Z" fill="#3F474F"/>
<path d="M70.1268 150.053V146.949L58.875 140.262V143.367C58.875 144.083 59.1144 144.561 59.5932 144.799L70.845 151.486C70.3662 151.247 70.1268 150.77 70.1268 150.053Z" fill="#CE307C"/>
<path d="M72.7619 130.71C72.2831 130.472 71.8043 130.472 71.3255 130.949L61.0312 136.919L72.2831 143.606L82.5773 137.636C83.0561 137.397 83.7743 137.158 84.0137 137.397L72.7619 130.71Z" fill="#FF398F"/>
<path d="M70.1268 147.187L58.875 140.501C58.875 139.068 59.8326 137.635 61.0296 136.919L72.2814 143.605C71.0844 144.083 70.1268 145.754 70.1268 147.187Z" fill="#FF398F"/>
<path d="M82.5748 137.635C83.7718 136.919 84.7294 137.396 84.7294 138.829V141.933C84.7294 143.366 83.7718 144.799 82.5748 145.516L72.2806 151.486C71.0836 152.202 70.126 151.724 70.126 150.292V147.187C70.126 145.754 71.0836 144.322 72.2806 143.605L82.5748 137.635Z" fill="#252321"/>
<path d="M130.214 163.426L76.5884 132.381C77.3066 131.904 77.7854 131.904 78.2642 132.142L131.89 163.187C131.651 163.187 130.932 163.187 130.214 163.426Z" fill="#373431"/>
<path d="M115.854 177.993V174.65L62.228 143.606V146.949C62.228 147.665 62.4674 148.143 62.9462 148.382L116.572 179.426C116.093 179.426 115.854 178.71 115.854 177.993Z" fill="#1E1B19"/>
<path d="M118.246 170.35L64.6206 139.305L76.5906 132.38L130.216 163.425L118.246 170.35Z" fill="#2D2B29"/>
<path d="M115.854 174.649L62.228 143.605C62.228 142.172 63.1856 140.262 64.622 139.545L118.248 170.59C117.051 171.067 115.854 172.978 115.854 174.649Z" fill="#373431"/>
<path d="M130.218 163.426C131.654 162.709 132.612 163.187 132.612 164.859V168.202C132.612 169.635 131.654 171.545 130.218 172.262L118.248 179.187C116.811 179.903 115.854 179.426 115.854 177.754V174.411C115.854 172.978 116.811 171.068 118.248 170.351L130.218 163.426Z" fill="#252321"/>
<path d="M131.172 165.576C130.933 165.337 130.454 165.337 129.975 165.815L119.681 171.785C118.724 172.262 118.005 173.695 118.005 174.889V177.277C118.005 177.755 118.245 178.232 118.484 178.471L132.609 181.337C132.609 181.337 133.327 181.576 133.806 181.098L136.2 179.665C137.157 179.188 137.397 175.128 137.397 175.128L131.172 165.576Z" fill="#1E1B19"/>
<path d="M142.662 178.233L135.72 174.174C135.959 173.935 136.438 173.935 136.677 174.174L143.62 178.233C143.141 177.995 142.902 177.995 142.662 178.233Z" fill="#373431"/>
<path d="M138.35 183.726V181.816L131.408 177.756V179.666C131.408 180.144 131.647 180.383 131.887 180.383L138.829 184.442C138.59 184.442 138.35 184.204 138.35 183.726Z" fill="#1E1B19"/>
<path d="M139.787 179.905L132.845 175.845L135.718 174.174L142.66 178.234L139.787 179.905Z" fill="#2D2B29"/>
<path d="M138.348 182.055L131.405 177.995C131.405 177.279 131.884 176.323 132.602 175.846L139.545 179.905C139.066 180.144 138.348 181.099 138.348 182.055Z" fill="#373431"/>
<path d="M142.658 178.233C143.376 177.755 143.855 178.233 143.855 178.949V180.86C143.855 181.576 143.376 182.531 142.658 183.009L139.785 184.68C139.067 185.158 138.588 184.68 138.588 183.964V182.054C138.588 181.337 139.067 180.382 139.785 179.904L142.658 178.233Z" fill="#252321"/>
<path d="M142.901 178.949L139.31 181.098V183.486L143.38 185.874C143.619 186.113 143.859 185.874 143.859 185.635L144.816 182.77V182.531V180.62C144.816 180.382 144.577 180.143 144.337 179.904L142.901 178.949Z" fill="#FF398F"/>
<path d="M86.3998 147.187L73.4722 139.546L77.542 137.158L90.4696 144.799L86.3998 147.187Z" fill="#3F474F"/>
<path d="M94.5412 149.337L96.217 150.292L95.9776 150.531L94.3018 149.576L94.5412 149.337ZM93.1048 150.292L93.3442 150.054L92.1472 149.337L91.429 148.86L91.1896 149.098L91.9078 149.576L93.1048 150.292ZM90.7108 148.621L88.7955 147.427L88.5562 147.666L90.4714 148.86L90.7108 148.621ZM92.626 148.621L93.5836 149.098L93.823 148.86L92.3866 147.904L89.9926 146.472L89.7532 146.71L92.626 148.621ZM91.6684 146.472L93.5836 147.666L93.823 147.427L91.9078 146.233L91.1896 145.755L90.9502 145.994L91.6684 146.472ZM95.4988 148.86L96.217 149.337L96.4564 149.098L95.4988 148.621L94.3018 147.904L94.0624 148.143L95.4988 148.86ZM101.244 151.725L100.287 151.248L100.047 151.486L101.005 151.964L101.244 151.725ZM99.5686 150.77L98.8504 150.292L98.611 150.531L99.3292 151.009L99.5686 150.77ZM99.808 152.442L98.3716 151.725L98.1322 151.964L99.5686 152.68L99.808 152.442ZM96.4564 151.725L95.7382 151.486L95.4988 151.725L96.217 151.964L96.4564 151.725ZM97.1746 152.203L96.9352 152.442L98.611 153.397L98.8504 153.158L97.1746 152.203Z" fill="#3F474F"/>
</svg>
