<svg width="289" height="187" viewBox="0 0 289 187" fill="none" xmlns="http://www.w3.org/2000/svg">
<g opacity="0.4">
<path d="M30.7194 66.0596L0.482056 83.3454L157.428 174.096H174.419L30.7194 66.0596Z" fill="#ADA6A3"/>
</g>
<path d="M174.708 174.096L14.3059 81.3287V66.0596L174.708 97.7503V174.096Z" fill="#D2CFCC"/>
<path d="M288.166 108.411L174.704 174.097V97.7511L288.166 93.4297V108.411Z" fill="#E9E6E6"/>
<path d="M288.172 93.4294L174.71 158.827L14.3076 66.0602L127.77 0.662109L288.172 93.4294Z" fill="#F8F5F4"/>
<path d="M48.0066 73.5481L47.1427 74.1242L38.7914 69.2266L39.6553 68.6504L48.0066 73.5481Z" fill="#7B9FE1"/>
<path d="M49.1632 72.9708L48.0113 73.5471L41.0999 69.5137L42.2518 68.9375L49.1632 72.9708Z" fill="#2D6AD8"/>
<path d="M52.3244 70.9543L51.1725 71.5304L43.6852 67.209L44.5491 66.6328L52.3244 70.9543Z" fill="#7B9FE1"/>
<path d="M53.4763 70.3791L52.3244 70.9554L43.6852 66.0577L44.8371 65.4814L53.4763 70.3791Z" fill="#2D6AD8"/>
<path d="M56.6401 68.6496L55.4882 69.2258L44.5452 62.8877L45.6971 62.3115L56.6401 68.6496Z" fill="#7B9FE1"/>
<path d="M57.506 68.0734L56.3541 68.6496L48.5787 64.04L49.7306 63.4639L57.506 68.0734Z" fill="#2D6AD8"/>
<path d="M60.6786 66.0559L59.5267 66.9201L50.0236 61.1582L51.1754 60.582L60.6786 66.0559Z" fill="#7B9FE1"/>
<path d="M61.8351 65.4796L60.6832 66.344L52.3319 61.4463L53.4838 60.582L61.8351 65.4796Z" fill="#2D6AD8"/>
<path d="M73.3454 58.8537L72.1935 59.43L62.4023 53.668L63.5543 53.0918L73.3454 58.8537Z" fill="#7B9FE1"/>
<path d="M74.4947 58.2775L73.3428 58.8537L64.1276 53.668L65.2794 53.0918L74.4947 58.2775Z" fill="#2D6AD8"/>
<path d="M77.663 56.55L76.5111 57.1261L69.3118 53.0928L70.4636 52.2285L77.663 56.55Z" fill="#7B9FE1"/>
<path d="M78.5273 55.6848L77.6633 56.5491L67.8722 50.7872L69.0241 50.2109L78.5273 55.6848Z" fill="#2D6AD8"/>
<path d="M81.6977 53.9553L80.8338 54.5316L67.299 46.7529L68.4508 46.1768L81.6977 53.9553Z" fill="#7B9FE1"/>
<path d="M82.8496 53.3792L81.6977 53.9553L70.4667 47.6172L71.6186 47.041L82.8496 53.3792Z" fill="#2D6AD8"/>
<path d="M86.0172 51.6516L84.8653 52.2278L73.0583 45.3134L74.2102 44.7373L86.0172 51.6516Z" fill="#7B9FE1"/>
<path d="M87.1694 51.0764L86.0175 51.6526L76.2263 45.8907L77.3782 45.3145L87.1694 51.0764Z" fill="#2D6AD8"/>
<path d="M90.3345 49.0587L89.1825 49.6349L81.9832 45.6015L83.1351 45.0254L90.3345 49.0587Z" fill="#7B9FE1"/>
<path d="M91.2003 48.4826L90.0484 49.0588L81.4092 44.1611L82.5611 43.585L91.2003 48.4826Z" fill="#2D6AD8"/>
<path d="M64.9961 63.7501L63.8442 64.3263L58.6606 61.4453L59.8125 60.8691L64.9961 63.7501Z" fill="#7B9FE1"/>
<path d="M66.1459 63.175L64.994 63.7512L56.0668 58.5654L57.2187 57.9893L66.1459 63.175Z" fill="#2D6AD8"/>
<path d="M69.0319 61.4474L68.168 62.0236L62.9845 59.1427L64.1364 58.2783L69.0319 61.4474Z" fill="#7B9FE1"/>
<path d="M70.1885 60.5821L69.0365 61.4464L65.2928 59.1417L66.4448 58.5654L70.1885 60.5821Z" fill="#2D6AD8"/>
<path d="M93.2195 48.4824L46.5676 75.5635L45.4156 74.9874L92.3556 47.9062L93.2195 48.4824Z" fill="#7B9FE1"/>
<path d="M99.8369 43.5852L98.6851 44.1613L91.7737 40.128L92.6376 39.5518L99.8369 43.5852Z" fill="#7B9FE1"/>
<path d="M100.993 43.009L99.8415 43.5852L94.082 40.4161L95.234 39.5518L100.993 43.009Z" fill="#2D6AD8"/>
<path d="M104.155 41.2796L103.003 41.8556L100.411 40.1277L101.275 39.5518L104.155 41.2796Z" fill="#7B9FE1"/>
<path d="M105.019 40.4171L104.155 41.2814L100.411 38.9766L101.275 38.4004L105.019 40.4171Z" fill="#2D6AD8"/>
<path d="M108.185 38.6887L107.321 39.2649L98.9697 34.6553L100.122 34.0791L108.185 38.6887Z" fill="#7B9FE1"/>
<path d="M109.338 38.1124L108.186 38.6886L104.154 36.3838L105.306 35.8076L109.338 38.1124Z" fill="#2D6AD8"/>
<path d="M112.508 36.3841L111.356 36.96L108.477 35.2321L109.628 34.6562L112.508 36.3841Z" fill="#7B9FE1"/>
<path d="M113.662 35.8087L112.51 36.3849L107.902 33.504L109.054 32.9277L113.662 35.8087Z" fill="#2D6AD8"/>
<path d="M125.178 28.8948L124.026 29.4709L113.659 23.709L114.811 23.1328L125.178 28.8948Z" fill="#7B9FE1"/>
<path d="M126.332 28.3185L125.18 28.8948L116.253 23.709L117.117 23.1328L126.332 28.3185Z" fill="#2D6AD8"/>
<path d="M129.205 26.5892L128.341 27.1654L113.943 18.8106L114.807 18.2344L129.205 26.5892Z" fill="#7B9FE1"/>
<path d="M130.355 26.013L129.203 26.5892L115.668 18.8106L116.82 18.2344L130.355 26.013Z" fill="#2D6AD8"/>
<path d="M133.535 23.9953L132.383 24.8596L123.168 19.3857L124.032 18.8096L133.535 23.9953Z" fill="#7B9FE1"/>
<path d="M134.69 23.4181L133.538 24.2824L126.051 19.6728L126.914 19.0967L134.69 23.4181Z" fill="#2D6AD8"/>
<path d="M137.855 21.6907L136.703 22.2669L125.76 16.2169L126.912 15.3525L137.855 21.6907Z" fill="#7B9FE1"/>
<path d="M138.719 21.1154L137.855 21.6916L128.928 16.7939L130.08 15.9297L138.719 21.1154Z" fill="#2D6AD8"/>
<path d="M141.877 19.3858L141.013 19.962L135.541 16.7929L136.693 16.2168L141.877 19.3858Z" fill="#7B9FE1"/>
<path d="M143.026 18.5225L141.874 19.3868L137.266 16.5058L138.418 15.9297L143.026 18.5225Z" fill="#2D6AD8"/>
<path d="M116.536 33.7902L115.672 34.3664L106.745 29.4687L107.897 28.6045L116.536 33.7902Z" fill="#7B9FE1"/>
<path d="M117.69 33.2141L116.538 33.7903L106.171 28.0283L107.323 27.1641L117.69 33.2141Z" fill="#2D6AD8"/>
<path d="M120.866 31.4866L119.714 32.0628L111.363 27.1651L112.227 26.5889L120.866 31.4866Z" fill="#7B9FE1"/>
<path d="M122.022 30.9103L120.87 31.4866L113.671 27.1651L114.823 26.5889L122.022 30.9103Z" fill="#2D6AD8"/>
<path d="M145.049 18.5225L98.1092 45.6036L97.2452 45.0275L144.185 17.9463L145.049 18.5225Z" fill="#7B9FE1"/>
<path d="M90.6213 60.8702L55.7763 80.7489L50.8807 77.8679L85.7257 57.9893L90.6213 60.8702Z" fill="#2D6AD8"/>
<path d="M58.944 79.0196L55.7763 80.7482L50.8807 77.8673L54.0485 76.1387L58.944 79.0196Z" fill="#F25A5A"/>
<path d="M122.302 42.4327L87.4573 62.5995L82.5616 59.7186L117.407 39.5518L122.302 42.4327Z" fill="#2D6AD8"/>
<path d="M90.625 60.5831L87.4573 62.5997L82.5616 59.7188L85.7294 57.7021L90.625 60.5831Z" fill="#97CC66"/>
<path d="M153.974 23.9962L119.129 44.163L114.234 41.282L149.079 21.1152L153.974 23.9962Z" fill="#2D6AD8"/>
<path d="M122.585 42.4337L119.129 44.1623L114.234 41.2813L117.402 39.5527L122.585 42.4337Z" fill="#44BFE5"/>
<path d="M126.041 36.3838L120.57 39.5528L119.994 39.2648L125.465 36.0957L126.041 36.3838Z" fill="#E1E9F4"/>
<path d="M128.918 34.6552L126.614 36.0951L126.326 35.5191L128.342 34.3672L128.918 34.6552Z" fill="#E1E9F4"/>
<path d="M126.043 39.2636L123.163 40.9914L122.587 40.4155L125.467 38.9756L126.043 39.2636Z" fill="#E1E9F4"/>
<path d="M133.238 34.9434L126.902 38.6886L126.326 38.4005L132.662 34.6553L133.238 34.9434Z" fill="#E1E9F4"/>
<path d="M137.559 32.3504L134.104 34.3663L133.528 34.0783L136.983 32.0625L137.559 32.3504Z" fill="#E1E9F4"/>
<path d="M94.3699 54.5362L89.1863 57.7052L88.6104 57.4171L93.7939 54.248L94.3699 54.5362Z" fill="#E1E9F4"/>
<path d="M97.5343 52.8075L95.2305 54.2474L94.6545 53.6715L96.9583 52.5195L97.5343 52.8075Z" fill="#E1E9F4"/>
<path d="M94.372 57.4159L91.4922 59.1438L91.2042 58.5678L93.796 57.1279L94.372 57.4159Z" fill="#E1E9F4"/>
<path d="M101.854 53.0957L95.2305 56.841L94.6545 56.5529L101.278 52.8076L101.854 53.0957Z" fill="#E1E9F4"/>
<path d="M106.176 50.5028L102.72 52.5186L102.144 52.2307L105.6 50.2148L106.176 50.5028Z" fill="#E1E9F4"/>
<path d="M62.9758 72.6835L57.7922 75.8526L57.2163 75.5645L62.3998 72.3955L62.9758 72.6835Z" fill="#E1E9F4"/>
<path d="M66.1402 70.955L63.8364 72.3949L63.2605 71.8189L65.5643 70.667L66.1402 70.955Z" fill="#E1E9F4"/>
<path d="M62.9804 75.5633L60.1006 77.2912L59.5247 76.7153L62.4044 75.2754L62.9804 75.5633Z" fill="#E1E9F4"/>
<path d="M70.4599 71.2431L63.8364 74.9884L63.2605 74.7003L69.8839 70.9551L70.4599 71.2431Z" fill="#E1E9F4"/>
<path d="M74.782 68.6503L71.3263 70.6662L70.7504 70.3782L74.2061 68.3623L74.782 68.6503Z" fill="#E1E9F4"/>
<path d="M192.853 76.145C178.742 84.2117 156.28 84.2117 142.169 76.145C128.058 68.0782 128.058 54.8257 142.169 46.759C156.28 38.6923 178.742 38.6923 192.853 46.759C206.963 54.8257 206.963 68.0782 192.853 76.145Z" fill="#4188EF"/>
<path d="M192.855 76.1461C178.744 84.2128 156.282 84.2128 142.171 76.1461V79.0271C156.282 87.0938 178.744 87.0938 192.855 79.0271C200.054 74.9937 203.51 69.5198 203.222 64.3341V61.4531C203.51 66.6389 200.054 72.1127 192.855 76.1461Z" fill="#2D6AD8"/>
<path d="M168.089 51.943L167.801 61.1621H167.225L142.171 46.7572V36.9619L168.089 51.943Z" fill="#2D6AD8"/>
<path d="M167.799 51.943V61.4501L193.14 46.7572V37.25L167.799 51.943Z" fill="#2D6AD8"/>
<path opacity="0.4" d="M193.138 37.2513L167.796 51.9443L142.167 37.2513C156.277 28.8965 179.027 29.1846 193.138 37.2513Z" fill="#4188EF"/>
<path d="M131.514 55.4023V60.3L167.799 61.1643V55.4023H131.514Z" fill="#2D6AD8"/>
<path opacity="0.4" d="M142.169 40.4199C135.258 44.4533 131.514 49.9271 131.514 55.4009H167.799L142.169 40.4199Z" fill="#4188EF"/>
<path d="M142.169 72.9752C136.986 70.0942 133.53 66.349 132.09 61.7394C131.802 60.587 131.514 59.4346 131.514 58.2822V59.1466C131.514 60.8752 131.514 65.1966 132.09 66.9251V67.2133C133.242 71.5347 136.698 75.5681 142.457 78.7371C142.745 78.7371 143.033 79.0253 143.033 79.0253V73.2633C142.745 73.5514 142.457 73.2633 142.169 72.9752Z" fill="#2D6AD8"/>
<path d="M167.797 58.5693V61.4503L143.031 76.7195V73.5504L167.797 58.5693Z" fill="#2D6AD8"/>
<path opacity="0.4" d="M167.799 58.5703L143.033 73.5514C142.745 73.2633 142.457 73.2633 142.169 72.9752C136.986 70.0942 133.53 66.349 132.09 61.7394C131.802 60.587 131.514 59.4346 131.514 58.2822L167.799 58.5703Z" fill="#4188EF"/>
<path d="M93.7869 80.4668L76.5084 90.5502L74.4926 89.3979L92.059 79.3145L93.7869 80.4668Z" fill="#F25A5A"/>
<path d="M88.3159 87.668L79.6767 92.5657L77.9489 91.4132L86.3001 86.5156L88.3159 87.668Z" fill="#F25A5A"/>
<path d="M110.491 78.4492L83.1333 94.2946L81.4054 93.4303L108.763 77.2969L110.491 78.4492Z" fill="#97CC66"/>
<path d="M126.902 72.9746L86.2979 96.3105L84.5701 95.1582L124.887 71.8223L126.902 72.9746Z" fill="#97CC66"/>
<path d="M127.191 76.7189L89.7544 98.3262L88.0266 97.1737L125.175 75.5664L127.191 76.7189Z" fill="#97CC66"/>
<path d="M125.179 81.6172L93.2134 100.055L91.1975 99.1911L123.163 80.7529L125.179 81.6172Z" fill="#2D6AD8"/>
<path d="M122.008 87.0908L96.3787 102.072L94.6509 100.92L120.281 86.2266L122.008 87.0908Z" fill="#2D6AD8"/>
<path d="M119.99 92.2774L99.8319 104.089L98.1041 102.937L118.262 91.125L119.99 92.2774Z" fill="#44BFE5"/>
<path d="M135.256 87.3799L103.003 105.818L101.275 104.954L133.24 86.5156L135.256 87.3799Z" fill="#44BFE5"/>
<path d="M139.864 88.5323L106.459 107.835L104.731 106.971L138.137 87.3799L139.864 88.5323Z" fill="#86B1FF"/>
<path d="M137.558 93.7169L109.912 109.85L107.896 108.698L135.542 92.8525L137.558 93.7169Z" fill="#86B1FF"/>
<path d="M135.834 98.6143L113.084 111.867L111.356 110.714L134.106 97.4619L135.834 98.6143Z" fill="#2D6AD8"/>
<path d="M148.502 95.1582L116.537 113.596L114.809 112.732L146.774 94.0059L148.502 95.1582Z" fill="#F25A5A"/>
<path d="M153.971 96.0225L119.702 115.613L117.974 114.461L152.243 94.8701L153.971 96.0225Z" fill="#F25A5A"/>
<path d="M120.856 115.901L119.704 116.478L73.0525 89.3965L74.2044 88.8203L120.856 115.901Z" fill="#86B1FF"/>
<path d="M135.542 123.102C136.694 123.678 136.694 124.831 135.542 125.407C134.39 125.983 132.662 125.983 131.51 125.407C130.358 124.831 130.358 123.678 131.51 123.102C132.662 122.526 134.39 122.526 135.542 123.102Z" fill="#2D6AD8"/>
<path d="M145.045 128.577C146.197 129.153 146.197 130.305 145.045 130.881C143.893 131.458 142.166 131.458 141.014 130.881C139.862 130.305 139.862 129.153 141.014 128.577C142.454 128 144.181 128 145.045 128.577Z" fill="#2D6AD8"/>
<path d="M154.835 134.051C155.986 134.627 155.986 135.78 154.835 136.356C153.683 136.932 151.955 136.932 150.803 136.356C149.651 135.78 149.651 134.627 150.803 134.051C151.955 133.475 153.683 133.475 154.835 134.051Z" fill="#2D6AD8"/>
<path d="M164.338 139.812C165.49 140.388 165.49 141.541 164.338 142.117C163.186 142.693 161.458 142.693 160.306 142.117C159.155 141.541 159.155 140.388 160.306 139.812C161.458 138.948 163.186 138.948 164.338 139.812Z" fill="#2D6AD8"/>
<path d="M173.842 145.288C174.994 145.864 174.994 147.016 173.842 147.592C172.69 148.169 170.962 148.169 169.81 147.592C168.658 147.016 168.658 145.864 169.81 145.288C170.962 144.711 172.69 144.711 173.842 145.288Z" fill="#2D6AD8"/>
<path d="M187.086 95.7338L192.846 92.2767L191.982 91.9886L186.222 95.4458L187.086 95.7338ZM161.456 110.715L174.415 103.224L173.551 102.936L160.593 110.427L161.456 110.715ZM175.279 102.648L185.934 96.31L185.07 96.0219L174.415 102.36L175.279 102.648ZM160.305 111.291L159.441 111.003L141.298 121.663L142.162 121.951L160.305 111.291ZM193.71 91.9886L201.773 87.379L200.909 87.0909L192.846 91.7004L193.71 91.9886ZM139.282 119.934L145.33 116.477L144.466 116.189L138.418 119.646L139.282 119.934ZM191.982 88.8195L192.846 89.1076L200.045 85.0742L199.181 84.7861L191.982 88.8195ZM178.735 97.1743L191.694 89.6838L190.83 89.3957L177.871 96.8862L178.735 97.1743ZM171.824 101.208L177.583 97.7505L176.719 97.4624L170.96 100.92L171.824 101.208ZM163.76 105.817L170.96 101.784L170.096 101.496L162.896 105.529L163.76 105.817ZM146.482 115.901L162.896 106.393L162.032 106.105L145.618 115.613L146.482 115.901Z" fill="#86B1FF"/>
<path d="M180.756 105.529L181.62 105.817L192.275 99.479L191.411 99.1909L180.756 105.529ZM180.468 106.681L179.604 106.393L166.646 113.884L167.509 114.172L180.468 106.681ZM182.772 107.834L183.636 108.122L190.835 104.089L189.971 103.8L182.772 107.834ZM190.835 103.224L191.699 103.512L197.459 100.055L196.595 99.7671L190.835 103.224ZM210.706 91.7004L197.747 99.1909L198.611 99.479L211.57 91.9885L210.706 91.7004ZM164.918 119.07L164.054 118.781L150.519 126.56L151.383 126.848L164.918 119.07ZM204.37 91.9885L192.563 98.9028L193.427 99.1909L205.234 92.2766L204.37 91.9885ZM166.646 114.748L165.782 114.46L147.351 125.12L148.215 125.408L166.646 114.748ZM205.234 91.4122L206.098 91.7004L213.009 87.667L212.146 87.3789L205.234 91.4122ZM182.484 108.986L181.62 108.698L165.206 118.205L166.07 118.493L182.484 108.986Z" fill="#86B1FF"/>
<path d="M185.362 114.46L186.226 114.748L193.426 110.714L192.562 110.426L185.362 114.46ZM187.09 117.629L186.226 117.341L173.555 124.543L174.419 124.831L187.09 117.629ZM199.185 106.393L193.426 109.85L194.29 110.138L200.049 106.681L199.185 106.393ZM200.337 105.817L201.201 106.105L214.16 98.6143L213.296 98.3263L200.337 105.817ZM213.584 102.36L221.071 98.0382L220.207 97.7501L212.72 102.072L213.584 102.36ZM167.508 125.407L166.644 125.119L157.429 130.593L158.293 130.881L167.508 125.407ZM184.211 115.036L167.796 124.543L168.66 124.831L185.074 115.324L184.211 115.036ZM187.378 116.476L188.242 116.764L201.201 109.274L200.337 108.986L187.378 116.476ZM211.856 102.36L201.201 108.698L202.065 108.986L212.72 102.648L211.856 102.36ZM217.904 95.4453L214.16 97.7501L215.024 98.0382L218.767 95.7333L217.904 95.4453ZM173.267 125.407L172.404 125.119L160.309 132.034L161.173 132.322L173.267 125.407Z" fill="#86B1FF"/>
<path d="M189.97 127.136L202.929 119.645L202.065 119.357L189.106 126.848L189.97 127.136ZM203.793 119.069L214.448 112.731L213.584 112.443L202.929 118.781L203.793 119.069ZM188.818 127.712L187.955 127.424L169.812 138.083L170.676 138.372L188.818 127.712ZM167.796 136.355L173.844 132.898L172.98 132.61L166.932 136.067L167.796 136.355ZM220.496 105.24L221.36 105.528L228.559 101.495L227.695 101.207L220.496 105.24ZM207.249 113.595L220.208 106.105L219.344 105.817L206.385 113.307L207.249 113.595ZM200.337 117.629L206.097 114.171L205.233 113.883L199.474 117.34L200.337 117.629ZM192.274 122.238L199.474 118.205L198.61 117.917L191.41 121.95L192.274 122.238ZM174.996 132.321L191.41 122.814L190.546 122.526L174.132 132.033L174.996 132.321Z" fill="#86B1FF"/>
<path d="M217.327 117.917L217.902 118.493L228.846 112.155L227.982 111.867L217.327 117.917Z" fill="#86B1FF"/>
<path d="M207.246 127.137L208.11 127.425L215.309 123.392L214.445 123.104L207.246 127.137Z" fill="#86B1FF"/>
<path d="M216.178 118.493L203.507 125.984L204.083 126.272L217.042 119.069L216.178 118.493Z" fill="#86B1FF"/>
<path d="M226.541 115.9L215.598 122.527L216.174 122.815L227.405 116.477L226.541 115.9Z" fill="#86B1FF"/>
<path d="M203.218 126.848L202.354 126.56L176.436 141.541L177.3 141.829L203.218 126.848Z" fill="#86B1FF"/>
<path d="M229.132 111.291L229.708 111.579L235.468 108.41L234.604 107.834L229.132 111.291Z" fill="#86B1FF"/>
<path d="M189.683 138.084L188.819 137.796L179.604 143.27L180.468 143.558L189.683 138.084Z" fill="#86B1FF"/>
<path d="M206.385 127.712L189.97 137.219L190.546 137.507L206.961 128L206.385 127.712Z" fill="#86B1FF"/>
<path d="M235.76 107.258L236.624 107.834L241.231 104.953L240.655 104.377L235.76 107.258Z" fill="#86B1FF"/>
<path d="M33.8893 115.326V111.58L20.3545 103.514V107.259C20.3545 108.123 20.6425 108.699 21.2184 108.987L34.7532 117.054C34.1773 116.766 33.8893 116.19 33.8893 115.326Z" fill="#5169CE"/>
<path d="M37.0591 91.989C36.4832 91.7009 35.9072 91.701 35.3313 92.2772L22.9484 99.4796L36.4832 107.546L48.8661 100.344C49.4421 100.056 50.306 99.7676 50.594 100.056L37.0591 91.989Z" fill="#788EFF"/>
<path d="M33.8924 111.582L20.3575 103.515C20.3575 101.786 21.5094 100.058 22.9493 99.1934L36.4841 107.26C35.0443 108.124 33.8924 110.141 33.8924 111.582Z" fill="#788EFF"/>
<path d="M48.864 100.057C50.3038 99.1929 51.4558 99.7691 51.4558 101.498V105.243C51.4558 106.972 50.3038 108.7 48.864 109.564L36.4811 116.767C35.0412 117.631 33.8893 117.055 33.8893 115.326V111.581C33.8893 109.853 35.0412 108.124 36.4811 107.26L48.864 100.057Z" fill="#252321"/>
<path d="M106.463 131.459L41.9565 94.0066C42.8205 93.4304 43.3964 93.4304 43.9724 93.7185L108.479 131.171C107.903 130.883 107.327 131.171 106.463 131.459Z" fill="#373431"/>
<path d="M89.184 149.033V145L24.6776 107.547V111.58C24.6776 112.445 24.9656 113.021 25.5415 113.309L90.0479 150.761C89.472 150.473 89.184 149.897 89.184 149.033Z" fill="#1E1B19"/>
<path d="M92.0645 139.812L27.2701 102.36L41.6689 94.0049L106.463 131.458L92.0645 139.812Z" fill="#2D2B29"/>
<path d="M89.184 144.71L24.6776 107.257C24.6776 105.528 25.8295 103.224 27.5574 102.359L92.0637 139.812C90.3359 140.676 89.184 142.981 89.184 144.71Z" fill="#373431"/>
<path d="M106.46 131.459C108.188 130.595 109.34 131.171 109.34 133.188V137.221C109.34 138.95 108.188 141.255 106.46 142.119L92.0613 150.474C90.3334 151.338 89.1815 150.762 89.1815 148.745V144.712C89.1815 142.983 90.3334 140.678 92.0613 139.814L106.46 131.459Z" fill="#252321"/>
<path d="M107.613 134.053C107.325 133.764 106.749 133.764 106.174 134.341L93.7906 141.543C92.6387 142.119 91.7748 143.848 91.7748 145.288V148.169C91.7748 148.745 92.0627 149.322 92.3507 149.61L109.341 153.067C109.341 153.067 110.205 153.355 110.781 152.779L113.661 151.05C114.813 150.474 115.101 145.576 115.101 145.576L107.613 134.053Z" fill="#1E1B19"/>
<path d="M121.149 149.033L112.797 144.135C113.085 143.847 113.661 143.847 113.949 144.135L122.3 149.033C122.012 149.033 121.724 149.033 121.149 149.033Z" fill="#373431"/>
<path d="M116.254 155.948V153.643L107.903 148.745V151.05C107.903 151.626 108.191 151.914 108.479 151.914L116.83 156.812C116.542 156.812 116.254 156.524 116.254 155.948Z" fill="#1E1B19"/>
<path d="M117.692 151.051L109.629 146.153L112.796 144.425L121.148 149.034L117.692 151.051Z" fill="#2D2B29"/>
<path d="M116.257 153.643L107.906 148.745C107.906 147.881 108.482 146.729 109.346 146.152L117.697 151.05C116.833 151.626 116.257 152.779 116.257 153.643Z" fill="#373431"/>
<path d="M121.149 149.033C122.013 148.457 122.589 149.033 122.589 149.897V152.202C122.589 153.066 122.013 154.218 121.149 154.795L117.694 156.811C116.83 157.388 116.254 156.811 116.254 155.947V153.642C116.254 152.778 116.83 151.626 117.694 151.049L121.149 149.033Z" fill="#252321"/>
<path d="M121.721 150.186L117.401 152.778V155.659L122.297 158.54C122.585 158.828 122.873 158.54 122.873 158.252L124.025 154.795V154.507V152.202C124.025 151.914 123.737 151.626 123.449 151.338L121.721 150.186Z" fill="#788EFF"/>
<path d="M53.7607 111.579L37.9221 102.649L42.8177 99.7676L58.6563 108.987L53.7607 111.579Z" fill="#3F474F"/>
<path d="M63.2638 114.173L65.2796 115.325L64.9917 115.614L62.9758 114.461L63.2638 114.173ZM61.536 115.325L61.8239 115.037L60.384 114.173L59.5201 113.597L59.2322 113.885L60.0961 114.461L61.536 115.325ZM58.9442 113.309L56.6404 111.868L56.3524 112.156L58.6562 113.597L58.9442 113.309ZM61.248 113.597L62.3999 114.173L62.6879 113.885L60.96 112.733L58.0802 111.004L57.7923 111.292L61.248 113.597ZM59.8081 111.004L62.1119 112.444L62.3999 112.156L60.0961 110.716L59.2322 110.14L58.9442 110.428L59.8081 111.004ZM64.7037 113.597L65.5676 114.173L65.8556 113.885L64.7037 113.309L63.2638 112.444L62.9758 112.733L64.7037 113.597ZM71.3271 117.054L70.1752 116.478L69.8872 116.766L71.0391 117.342L71.3271 117.054ZM69.5992 116.19L68.7353 115.614L68.4474 115.902L69.3113 116.478L69.5992 116.19ZM69.8872 117.918L68.1594 117.054L67.8714 117.342L69.5992 118.206L69.8872 117.918ZM65.8556 117.342L64.9917 117.054L64.7037 117.342L65.5676 117.63L65.8556 117.342ZM66.4315 117.918L66.1435 118.206L68.1594 119.359L68.4474 119.071L66.4315 117.918Z" fill="#3F474F"/>
<path d="M20.3555 142.982V139.237L6.82068 131.17V134.915C6.82068 135.779 7.10866 136.356 7.68461 136.644L21.2194 144.71C20.6435 144.422 20.3555 143.846 20.3555 142.982Z" fill="#CE307C"/>
<path d="M23.5252 119.646C22.9493 119.358 22.3733 119.358 21.7974 119.934L9.41443 127.137L22.9492 135.203L35.3322 128.001C35.9081 127.713 36.772 127.425 37.06 127.713L23.5252 119.646Z" fill="#FF398F"/>
<path d="M20.3556 139.525L6.8208 131.458C6.8208 129.73 7.9727 128.001 9.41258 127.137L22.9474 135.203C21.5075 135.78 20.3556 137.796 20.3556 139.525Z" fill="#FF398F"/>
<path d="M35.3293 128.001C36.7692 127.136 37.9211 127.713 37.9211 129.441V133.186C37.9211 134.915 36.7692 136.643 35.3293 137.508L22.9464 144.71C21.5065 145.574 20.3546 144.998 20.3546 143.27V139.524C20.3546 137.796 21.5065 136.067 22.9464 135.203L35.3293 128.001Z" fill="#252321"/>
<path d="M92.6344 159.116L28.1281 121.664C28.992 121.088 29.5679 121.088 30.1439 121.376L94.6503 158.828C94.3623 158.828 93.4983 158.828 92.6344 159.116Z" fill="#373431"/>
<path d="M75.3604 176.691V172.658L10.854 135.205V139.238C10.854 140.103 11.142 140.679 11.7179 140.967L76.2243 178.42C75.6484 178.42 75.3604 177.555 75.3604 176.691Z" fill="#1E1B19"/>
<path d="M78.2383 167.47L13.7319 130.017L28.1307 121.662L92.6371 159.115L78.2383 167.47Z" fill="#2D2B29"/>
<path d="M75.3604 172.656L10.854 135.203C10.854 133.475 12.0059 131.17 13.7338 130.306L78.2401 167.758C76.8002 168.334 75.3604 170.639 75.3604 172.656Z" fill="#373431"/>
<path d="M92.6382 159.116C94.3661 158.252 95.518 158.828 95.518 160.845V164.878C95.518 166.607 94.3661 168.912 92.6382 169.776L78.2395 178.131C76.5116 178.995 75.3597 178.419 75.3597 176.402V172.369C75.3597 170.64 76.5116 168.336 78.2395 167.471L92.6382 159.116Z" fill="#252321"/>
<path d="M93.7872 161.71C93.4993 161.422 92.9233 161.422 92.3474 161.998L79.9644 169.2C78.8125 169.776 77.9486 171.505 77.9486 172.946V175.827C77.9486 176.403 78.2366 176.979 78.5245 177.267L95.5151 180.724C95.5151 180.724 96.379 181.012 96.9549 180.436L99.8347 178.707C100.987 178.131 101.275 173.234 101.275 173.234L93.7872 161.71Z" fill="#1E1B19"/>
<path d="M107.608 176.981L99.2571 172.083C99.5451 171.795 100.121 171.795 100.409 172.083L108.76 176.981C108.184 176.693 107.896 176.693 107.608 176.981Z" fill="#373431"/>
<path d="M102.421 183.607V181.302L94.0701 176.404V178.709C94.0701 179.285 94.3581 179.573 94.6461 179.573L102.997 184.471C102.709 184.471 102.421 184.183 102.421 183.607Z" fill="#1E1B19"/>
<path d="M104.15 178.997L95.7985 174.1L99.2542 172.083L107.605 176.981L104.15 178.997Z" fill="#2D2B29"/>
<path d="M102.418 181.59L94.067 176.692C94.067 175.828 94.643 174.676 95.5069 174.1L103.858 178.997C103.282 179.285 102.418 180.438 102.418 181.59Z" fill="#373431"/>
<path d="M107.603 176.98C108.467 176.404 109.043 176.98 109.043 177.844V180.149C109.043 181.013 108.467 182.166 107.603 182.742L104.147 184.759C103.283 185.335 102.707 184.759 102.707 183.894V181.59C102.707 180.725 103.283 179.573 104.147 178.997L107.603 176.98Z" fill="#252321"/>
<path d="M107.895 177.843L103.576 180.436V183.317L108.471 186.198C108.759 186.486 109.047 186.198 109.047 185.91L110.199 182.452V182.164V179.859C110.199 179.571 109.911 179.283 109.623 178.995L107.895 177.843Z" fill="#FF398F"/>
<path d="M39.9302 139.525L24.3795 130.306L29.2751 127.425L44.8258 136.644L39.9302 139.525Z" fill="#3F474F"/>
<path d="M49.7235 142.118L51.7394 143.271L51.4514 143.559L49.4356 142.406L49.7235 142.118ZM47.9957 143.271L48.2837 142.983L46.8438 142.118L45.9799 141.542L45.6919 141.83L46.5558 142.406L47.9957 143.271ZM45.1159 141.254L42.8121 139.814L42.5242 140.102L44.828 141.542L45.1159 141.254ZM47.4197 141.254L48.5716 141.83L48.8596 141.542L47.1318 140.39L44.252 138.661L43.964 138.949L47.4197 141.254ZM46.2679 138.661L48.5716 140.102L48.8596 139.814L46.5558 138.373L45.6919 137.797L45.4039 138.085L46.2679 138.661ZM50.8754 141.542L51.7394 142.118L52.0273 141.83L50.8754 141.254L49.4356 140.39L49.1476 140.678L50.8754 141.542ZM57.7868 144.999L56.6349 144.423L56.347 144.711L57.4989 145.287L57.7868 144.999ZM55.771 143.847L54.9071 143.271L54.6191 143.559L55.483 144.135L55.771 143.847ZM56.059 145.864L54.3312 144.999L54.0432 145.287L55.771 146.152L56.059 145.864ZM52.0273 144.999L51.1634 144.711L50.8754 144.999L51.7394 145.287L52.0273 144.999ZM52.8913 145.576L52.6033 145.864L54.6191 147.016L54.9071 146.728L52.8913 145.576Z" fill="#3F474F"/>
</svg>
