<svg width="305" height="230" viewBox="0 0 305 230" fill="none" xmlns="http://www.w3.org/2000/svg">
<path opacity="0.4" d="M215.576 121.481H121.232L0.454178 191.243L5.23974 192.611H92.2913L135.133 167.989L137.412 167.533C141.286 166.622 145.616 167.305 149.034 169.357L160.2 175.741C160.428 175.969 160.656 175.969 161.112 175.969H163.163L167.037 166.166L162.479 152.259L215.576 121.481Z" fill="#7B7794"/>
<path opacity="0.4" d="M153.821 229.088C153.594 229.316 153.366 229.316 152.91 229.316C151.998 229.316 150.175 229.316 149.72 229.088L123.285 213.813C122.601 213.357 122.601 212.673 123.285 212.218L205.779 165.026C206.918 164.342 208.969 164.342 210.109 165.026L236.543 180.3C236.999 180.528 159.746 225.668 153.821 229.088Z" fill="#ADA6A3"/>
<path opacity="0.4" d="M259.786 158.87C254.317 157.046 244.29 156.59 239.96 159.098C233.124 163.429 237.681 167.305 243.151 170.725C257.051 179.16 261.609 179.616 269.357 175.968C271.636 174.828 273.003 173.233 273.003 171.637C273.003 170.041 269.357 162.062 259.786 158.87Z" fill="#ADA6A3"/>
<path d="M181.845 147.472L149.485 166.166L162.931 173.917L195.29 155.223L181.845 147.472Z" fill="url(#paint0_linear_14822_171209)"/>
<path d="M195.289 155.45C195.289 155.45 195.289 155.222 195.289 155.45C195.061 155.222 162.93 173.916 162.93 173.916C163.158 174.144 163.158 174.144 163.158 174.144C163.385 174.6 163.385 175.74 163.158 175.74L195.289 157.046C195.517 157.046 195.517 155.906 195.289 155.45Z" fill="#D2D1CE"/>
<path d="M179.11 144.279C178.427 142.911 178.427 141.543 178.882 140.631L187.542 121.253L155.41 140.175L146.751 159.554C146.295 160.466 146.523 161.833 146.979 163.201C147.207 163.885 147.662 164.569 148.118 165.253C148.574 165.709 149.03 166.165 149.485 166.393L181.617 147.699C181.161 147.471 180.705 147.015 180.25 146.559C179.794 145.647 179.566 144.963 179.11 144.279Z" fill="url(#paint1_linear_14822_171209)"/>
<path d="M162.931 173.916L149.486 166.165C148.347 165.481 147.435 164.341 146.979 162.973C146.296 161.605 146.296 160.237 146.752 159.325L155.411 139.947V139.491V120.569C155.411 120.113 154.955 119.429 154.5 119.201C154.044 118.973 153.588 119.201 153.588 119.657V138.351L144.928 157.501C144.245 158.869 144.473 160.921 145.384 162.973C146.296 165.025 147.663 166.849 149.486 167.761L162.931 175.512C163.387 175.968 163.387 174.144 162.931 173.916Z" fill="#B6B5B3"/>
<path d="M187.542 101.418C187.542 101.19 187.314 100.962 187.314 100.962C187.314 100.734 187.086 100.734 186.858 100.734C186.63 100.506 186.402 100.506 186.174 100.734L154.043 119.429C154.271 119.429 154.499 119.429 154.727 119.429C154.954 119.429 154.954 119.657 155.182 119.657C155.41 119.885 155.41 119.885 155.41 120.113C155.41 120.341 155.638 120.569 155.638 120.797V139.719V140.175L187.77 121.481V121.025V102.102C187.77 101.874 187.77 101.646 187.542 101.418Z" fill="#B6B5B3"/>
<path d="M103.686 179.616L101.179 178.248V77.4805L103.686 79.0763V179.616Z" fill="#B6B5B3"/>
<path d="M103.686 79.0764L101.179 77.4806L235.174 0.195312L237.681 1.56319L103.686 79.0764Z" fill="#FFFEFB"/>
<path d="M237.681 1.56348V102.331L103.686 179.616V79.0767L237.681 1.56348Z" fill="#D2D1CE"/>
<path d="M104.145 79.5324L237.001 2.70312V90.0195L104.145 166.621V79.5324Z" fill="#101014"/>
<path d="M179.341 130.601L174.555 133.337C173.872 133.793 173.416 133.565 173.416 132.881C173.416 132.197 173.872 131.513 174.555 131.057L179.341 128.321C180.025 127.865 180.48 128.093 180.48 128.777C180.48 129.461 180.025 130.145 179.341 130.601Z" fill="#2280D6"/>
<path d="M124.652 211.762V213.13C124.652 213.358 124.88 213.586 125.108 213.814L151.542 229.089C152.226 229.545 153.365 229.545 154.049 229.089L236.315 181.669C236.771 181.441 236.771 181.213 236.771 180.985V179.617L124.652 211.762Z" fill="url(#paint2_linear_14822_171209)"/>
<path d="M236.318 180.301L154.052 227.721C153.368 228.177 152.229 228.177 151.545 227.721L125.111 212.447C124.427 211.991 124.427 211.307 125.111 210.851L207.377 163.431C208.061 162.975 209.2 162.975 209.884 163.431L236.318 178.706C237.002 179.161 237.002 179.845 236.318 180.301Z" fill="url(#paint3_linear_14822_171209)"/>
<path d="M195.753 173.234C195.753 173.234 195.753 173.006 195.753 173.234C195.753 173.006 195.753 173.006 195.753 173.006C195.753 172.778 195.753 172.778 195.981 172.55L199.399 170.498C199.627 170.27 200.31 170.27 200.538 170.498L203.273 172.094C203.501 172.094 203.501 172.322 203.501 172.55C203.501 172.55 203.501 172.55 203.501 172.778C203.501 172.778 203.501 172.778 203.501 173.006C203.501 173.234 203.501 173.234 203.273 173.462L199.855 175.513C199.627 175.741 198.943 175.741 198.715 175.513L195.981 173.918C195.753 173.462 195.753 173.234 195.753 173.234ZM201.45 170.498L204.184 172.094C204.412 172.322 205.096 172.322 205.324 172.094L208.742 170.042C208.97 170.042 208.97 169.814 208.97 169.586C208.97 169.586 208.97 169.586 208.97 169.358C208.97 169.358 208.97 169.358 208.97 169.13C208.97 168.902 208.97 168.902 208.742 168.674L206.007 167.078C205.78 166.85 205.096 166.85 204.868 167.078L201.45 169.13C201.222 169.13 201.222 169.358 201.222 169.586C201.222 169.586 201.222 169.586 201.222 169.814C201.222 169.814 201.222 169.814 201.222 170.042C201.222 170.27 201.222 170.27 201.45 170.498ZM190.511 176.653L193.246 178.249C193.474 178.477 194.158 178.477 194.385 178.249L197.804 176.197C198.032 176.197 198.032 175.969 198.032 175.741C198.032 175.741 198.032 175.741 198.032 175.513C198.032 175.513 198.032 175.513 198.032 175.285C198.032 175.058 198.032 175.058 197.804 174.83L195.069 173.234C194.841 173.006 194.157 173.006 193.93 173.234L190.511 175.285C190.283 175.285 190.284 175.513 190.284 175.741C190.284 175.741 190.284 175.741 190.284 175.969C190.284 175.969 190.284 175.969 190.284 176.197C190.284 176.425 190.283 176.653 190.511 176.653ZM146.53 213.586L149.265 215.182C149.492 215.41 150.176 215.41 150.404 215.182L153.822 213.13C154.05 213.13 154.05 212.902 154.05 212.674C154.05 212.674 154.05 212.674 154.05 212.446C154.05 212.446 154.05 212.446 154.05 212.218C154.05 211.99 154.05 211.99 153.822 211.762L151.088 210.166C150.86 209.938 150.176 209.938 149.948 210.166L146.53 212.218C146.302 212.218 146.302 212.446 146.302 212.674C146.302 212.674 146.302 212.674 146.302 212.902C146.302 212.902 146.302 212.902 146.302 213.13C146.302 213.358 146.302 213.358 146.53 213.586ZM158.38 195.12L161.114 196.716C161.342 196.944 162.026 196.944 162.254 196.716L165.672 194.664C165.9 194.664 165.9 194.436 165.9 194.208C165.9 194.208 165.9 194.208 165.9 193.98C165.9 193.98 165.9 193.98 165.9 193.752C165.9 193.524 165.9 193.524 165.672 193.296L162.938 191.7C162.71 191.472 162.026 191.472 161.798 191.7L158.38 193.752C158.152 193.752 158.152 193.98 158.152 194.208C158.152 194.208 158.152 194.208 158.152 194.436C158.152 194.436 158.152 194.436 158.152 194.664C158.152 194.892 158.152 195.12 158.38 195.12ZM169.318 188.964L172.053 190.56C172.281 190.788 172.964 190.788 173.192 190.56L176.611 188.508C176.838 188.508 176.838 188.28 176.838 188.052C176.838 188.052 176.838 188.052 176.838 187.824C176.838 187.824 176.838 187.824 176.838 187.596C176.838 187.368 176.838 187.368 176.611 187.14L173.876 185.545C173.648 185.317 172.964 185.317 172.736 185.545L169.318 187.596C169.09 187.596 169.09 187.824 169.09 188.052C169.09 188.052 169.09 188.052 169.09 188.28C169.09 188.28 169.09 188.28 169.09 188.508C169.09 188.736 169.09 188.736 169.318 188.964ZM180.257 182.581L182.991 184.177C183.219 184.405 183.903 184.405 184.131 184.177L189.372 181.213C189.6 181.213 189.6 180.985 189.6 180.757C189.6 180.757 189.6 180.757 189.6 180.529C189.6 180.529 189.6 180.529 189.6 180.301C189.6 180.073 189.6 180.073 189.372 179.845L186.637 178.249C186.41 178.021 185.726 178.021 185.498 178.249L180.257 181.213C180.029 181.213 180.029 181.441 180.029 181.669C180.029 181.669 180.029 181.669 180.029 181.897C180.029 181.897 180.029 181.897 180.029 182.125C180.029 182.353 180.029 182.581 180.257 182.581ZM174.787 185.773L177.522 187.368C177.75 187.596 178.434 187.596 178.661 187.368L182.08 185.317C182.308 185.317 182.308 185.089 182.308 184.861C182.308 184.861 182.308 184.861 182.308 184.633C182.308 184.633 182.308 184.633 182.308 184.405C182.308 184.177 182.308 184.177 182.08 183.949L179.345 182.353C179.117 182.125 178.434 182.125 178.206 182.353L174.787 184.405C174.56 184.405 174.56 184.633 174.56 184.861C174.56 184.861 174.56 184.861 174.56 185.089C174.56 185.089 174.56 185.089 174.56 185.317C174.56 185.545 174.56 185.545 174.787 185.773ZM163.849 191.928L166.584 193.524C166.811 193.752 167.495 193.752 167.723 193.524L171.141 191.472C171.369 191.472 171.369 191.244 171.369 191.016C171.369 191.016 171.369 191.016 171.369 190.788C171.369 190.788 171.369 190.788 171.369 190.56C171.369 190.332 171.369 190.332 171.141 190.104L168.407 188.508C168.179 188.28 167.495 188.28 167.267 188.508L163.849 190.56C163.621 190.56 163.621 190.788 163.621 191.016C163.621 191.016 163.621 191.016 163.621 191.244C163.621 191.244 163.621 191.244 163.621 191.472C163.621 191.7 163.621 191.928 163.849 191.928ZM187.093 184.405L189.828 186.001C190.056 186.229 190.739 186.229 190.967 186.001L194.385 183.949C194.613 183.949 194.613 183.721 194.613 183.493C194.613 183.493 194.613 183.493 194.613 183.265C194.613 183.265 194.613 183.265 194.613 183.037C194.613 182.809 194.613 182.809 194.385 182.581L191.651 180.985C191.423 180.757 190.739 180.757 190.511 180.985L187.093 183.037C186.865 183.037 186.865 183.265 186.865 183.493C186.865 183.493 186.865 183.493 186.865 183.721C186.865 183.721 186.865 183.721 186.865 183.949C186.865 184.177 186.865 184.405 187.093 184.405ZM143.567 209.71L146.302 211.306C146.53 211.534 147.214 211.534 147.441 211.306L150.86 209.255C151.088 209.255 151.088 209.027 151.088 208.799C151.088 208.799 151.088 208.799 151.088 208.571C151.088 208.571 151.088 208.571 151.088 208.343C151.088 208.115 151.088 208.115 150.86 207.887L148.125 206.291C147.897 206.063 147.214 206.063 146.986 206.291L143.567 208.343C143.34 208.343 143.34 208.571 143.34 208.799C143.34 208.799 143.34 208.799 143.34 209.027C143.34 209.027 143.34 209.027 143.34 209.255C143.112 209.255 143.34 209.483 143.567 209.71ZM181.624 187.596L184.359 189.192C184.586 189.42 185.27 189.42 185.498 189.192L188.916 187.14C189.144 187.14 189.144 186.912 189.144 186.685C189.144 186.685 189.144 186.685 189.144 186.457C189.144 186.457 189.144 186.457 189.144 186.229C189.144 186.001 189.144 186.001 188.916 185.773L186.182 184.177C185.954 183.949 185.27 183.949 185.042 184.177L181.624 186.229C181.396 186.229 181.396 186.457 181.396 186.685C181.396 186.685 181.396 186.684 181.396 186.912C181.396 186.912 181.396 186.912 181.396 187.14C181.396 187.368 181.396 187.368 181.624 187.596ZM176.155 190.788L178.889 192.384C179.117 192.612 179.801 192.612 180.029 192.384L183.447 190.332C183.675 190.332 183.675 190.104 183.675 189.876C183.675 189.876 183.675 189.876 183.675 189.648C183.675 189.648 183.675 189.648 183.675 189.42C183.675 189.192 183.675 189.192 183.447 188.964L180.712 187.368C180.485 187.14 179.801 187.14 179.573 187.368L176.155 189.42C175.927 189.42 175.927 189.648 175.927 189.876C175.927 189.876 175.927 189.876 175.927 190.104C175.927 190.104 175.927 190.104 175.927 190.332C175.927 190.56 175.927 190.56 176.155 190.788ZM170.686 193.98L173.42 195.576C173.648 195.804 174.332 195.804 174.56 195.576L177.978 193.524C178.206 193.524 178.206 193.296 178.206 193.068C178.206 193.068 178.206 193.068 178.206 192.84C178.206 192.84 178.206 192.84 178.206 192.612C178.206 192.384 178.206 192.384 177.978 192.156L175.243 190.56C175.015 190.332 174.332 190.332 174.104 190.56L170.686 192.612C170.458 192.612 170.458 192.84 170.458 193.068C170.458 193.068 170.458 193.068 170.458 193.296C170.458 193.296 170.458 193.296 170.458 193.524C170.458 193.524 170.458 193.752 170.686 193.98ZM149.037 206.519L151.771 208.115C151.999 208.343 152.683 208.343 152.911 208.115L156.329 206.063C156.557 206.063 156.557 205.835 156.557 205.607C156.557 205.607 156.557 205.607 156.557 205.379C156.557 205.379 156.557 205.379 156.557 205.151C156.557 204.923 156.557 204.923 156.329 204.695L153.594 203.099C153.366 202.871 152.683 202.871 152.455 203.099L149.037 205.151C148.809 205.151 148.809 205.379 148.809 205.607C148.809 205.607 148.809 205.607 148.809 205.835C148.809 205.835 148.809 205.835 148.809 206.063C148.581 206.291 148.809 206.291 149.037 206.519ZM154.278 203.327L157.013 204.923C157.24 205.151 157.924 205.151 158.152 204.923L161.57 202.871C161.798 202.871 161.798 202.643 161.798 202.415C161.798 202.415 161.798 202.415 161.798 202.187C161.798 202.187 161.798 202.187 161.798 201.959C161.798 201.731 161.798 201.731 161.57 201.503C157.468 198.995 158.836 199.223 154.278 201.731C154.05 201.731 154.05 201.959 154.05 202.187C154.05 202.187 154.05 202.187 154.05 202.415C154.05 202.415 154.05 202.415 154.05 202.643C154.05 203.099 154.278 203.099 154.278 203.327ZM159.747 200.135L162.482 201.731C162.71 201.959 163.393 201.959 163.621 201.731L167.039 199.679C167.267 199.679 167.267 199.451 167.267 199.223C167.267 199.223 167.267 199.223 167.267 198.995C167.267 198.995 167.267 198.995 167.267 198.767C167.267 198.539 167.267 198.539 167.039 198.311L164.305 196.716C164.077 196.488 163.393 196.488 163.165 196.716L159.747 198.767C159.519 198.767 159.519 198.995 159.519 199.223C159.519 199.223 159.519 199.223 159.519 199.451C159.519 199.451 159.519 199.451 159.519 199.679C159.519 199.907 159.747 200.135 159.747 200.135ZM165.216 196.944C167.951 198.539 168.407 198.995 169.318 198.539L172.736 196.488C172.964 196.488 172.964 196.26 172.964 196.032C172.964 196.032 172.964 196.032 172.964 195.804C172.964 195.804 172.964 195.804 172.964 195.576C172.964 195.348 172.964 195.348 172.736 195.12L170.002 193.524C169.774 193.296 169.09 193.296 168.862 193.524L165.444 195.576C165.216 195.576 165.216 195.804 165.216 196.032C165.216 196.032 165.216 196.032 165.216 196.26C165.216 196.26 165.216 196.26 165.216 196.488C164.988 196.716 164.988 196.944 165.216 196.944ZM155.645 217.69C155.645 217.462 155.645 217.462 155.645 217.462C155.645 217.234 155.645 217.234 155.417 217.006L152.683 215.41C152.455 215.182 151.771 215.182 151.543 215.41L146.302 218.374C146.074 218.374 146.074 218.602 146.074 218.83C146.074 218.83 146.074 218.83 146.074 219.058C146.074 219.058 146.074 219.058 146.074 219.286C146.074 219.514 146.074 219.514 146.302 219.742L149.037 221.337C149.265 221.565 149.948 221.565 150.176 221.337L155.417 218.374C155.645 218.146 155.645 217.918 155.645 217.69ZM148.809 215.866C148.809 215.638 148.809 215.638 148.809 215.638C148.809 215.41 148.809 215.41 148.581 215.182L145.846 213.586C145.618 213.358 144.935 213.358 144.707 213.586L141.289 215.638C141.061 215.638 141.061 215.866 141.061 216.094C141.061 216.094 141.061 216.094 141.061 216.322C141.061 216.322 141.061 216.322 141.061 216.55C141.061 216.778 141.061 216.778 141.289 217.006L144.023 218.602C144.251 218.83 144.935 218.83 145.163 218.602L148.581 216.55C148.809 216.322 148.809 216.094 148.809 215.866ZM152.911 198.311C157.012 200.591 155.645 200.819 160.203 198.084C160.431 198.084 160.431 197.856 160.431 197.628C160.431 197.628 160.431 197.628 160.431 197.4C160.431 197.4 160.431 197.4 160.431 197.172C160.431 196.944 160.431 196.944 160.203 196.716L157.468 195.12C157.24 194.892 156.557 194.892 156.329 195.12L152.911 197.172C152.683 197.172 152.683 197.4 152.683 197.628C152.683 197.628 152.683 197.628 152.683 197.856C152.683 197.856 152.683 197.856 152.683 198.084L152.911 198.311ZM213.072 184.633C213.072 184.405 213.072 184.405 213.072 184.405C213.072 184.177 213.072 184.177 212.844 183.949L210.109 182.353C209.881 182.125 209.198 182.125 208.97 182.353L205.552 184.405C205.324 184.405 205.324 184.633 205.324 184.861C205.324 184.861 205.324 184.861 205.324 185.089C205.324 185.089 205.324 185.089 205.324 185.317C205.324 185.545 205.324 185.545 205.552 185.773L208.286 187.368C208.514 187.596 209.198 187.596 209.426 187.368L212.844 185.317C213.072 184.861 213.072 184.861 213.072 184.633ZM145.618 211.99C145.618 211.762 145.618 211.762 145.618 211.762C145.618 211.534 145.618 211.534 145.39 211.306L142.656 209.71C142.428 209.483 141.744 209.483 141.516 209.71L136.275 212.674C136.047 212.674 136.047 212.902 136.047 213.13C136.047 213.13 136.047 213.13 136.047 213.358C136.047 213.358 136.047 213.358 136.047 213.586C136.047 213.814 136.047 213.814 136.275 214.042L139.01 215.638C139.238 215.866 139.921 215.866 140.149 215.638L145.39 212.674C145.618 212.446 145.618 212.218 145.618 211.99ZM147.441 201.503L150.176 203.099C150.404 203.327 151.088 203.327 151.315 203.099L154.734 201.047C154.962 201.047 154.962 200.819 154.962 200.591C154.962 200.591 154.962 200.591 154.962 200.363C154.962 200.363 154.962 200.363 154.962 200.135C154.962 199.907 154.962 199.907 154.734 199.679L151.999 198.084C151.771 197.856 151.088 197.856 150.86 198.084L147.441 200.135C147.214 200.135 147.214 200.363 147.214 200.591C147.214 200.591 147.214 200.591 147.214 200.819C147.214 200.819 147.214 200.819 147.214 201.047C147.214 201.275 147.441 201.275 147.441 201.503ZM142.2 204.695L144.935 206.291C145.163 206.519 145.846 206.519 146.074 206.291L149.492 204.239C149.72 204.239 149.72 204.011 149.72 203.783C149.72 203.783 149.72 203.783 149.72 203.555C149.72 203.555 149.72 203.555 149.72 203.327C149.72 203.099 149.72 203.099 149.492 202.871L146.758 201.275C146.53 201.047 145.846 201.047 145.618 201.275L142.2 203.327C141.972 203.327 141.972 203.555 141.972 203.783C141.972 203.783 141.972 203.783 141.972 204.011C141.972 204.011 141.972 204.011 141.972 204.239C141.744 204.467 141.972 204.467 142.2 204.695ZM138.782 210.166C138.782 209.938 138.782 209.938 138.782 209.938C138.782 209.71 138.782 209.711 138.554 209.483L135.819 207.887C135.591 207.659 134.908 207.659 134.68 207.887L131.262 209.938C131.034 209.938 131.034 210.166 131.034 210.394C131.034 210.394 131.034 210.394 131.034 210.622C131.034 210.622 131.034 210.622 131.034 210.85C131.034 211.078 131.034 211.078 131.262 211.306L133.996 212.902C134.224 213.13 134.908 213.13 135.136 212.902L138.554 210.85C138.782 210.622 138.782 210.394 138.782 210.166ZM136.731 207.887L139.465 209.483C139.693 209.711 140.377 209.711 140.605 209.483L144.023 207.431C144.251 207.431 144.251 207.203 144.251 206.975C144.251 206.975 144.251 206.975 144.251 206.747C144.251 206.747 144.251 206.747 144.251 206.519C144.251 206.291 144.251 206.291 144.023 206.063L141.289 204.467C141.061 204.239 140.377 204.239 140.149 204.467L136.731 206.519C136.503 206.519 136.503 206.747 136.503 206.975C136.503 206.975 136.503 206.975 136.503 207.203C136.503 207.203 136.503 207.203 136.503 207.431C136.503 207.431 136.503 207.659 136.731 207.887ZM229.024 180.985C229.024 180.757 229.024 180.757 228.796 180.529L226.061 178.933C225.833 178.705 225.15 178.705 224.922 178.933L221.504 180.985C221.276 180.985 221.276 181.213 221.276 181.441C221.276 181.441 221.276 181.441 221.276 181.669C221.276 181.669 221.276 181.669 221.276 181.897C221.276 182.125 221.276 182.125 221.504 182.353L224.238 183.949C224.466 184.177 225.15 184.177 225.378 183.949L228.796 181.897C229.024 181.897 229.024 181.669 229.024 181.441C229.024 181.213 229.024 181.213 229.024 180.985ZM209.198 175.741L205.552 173.69C205.096 173.462 204.412 173.462 204.184 173.69L195.525 178.705C195.297 178.933 195.297 178.933 195.297 179.161C195.297 179.161 195.297 179.161 195.297 179.389C195.297 179.389 195.297 179.389 195.297 179.617C195.297 179.845 195.297 180.073 195.525 180.073L203.045 184.405C203.501 184.633 204.184 184.633 204.412 184.405L218.541 176.197C218.769 175.969 218.769 175.969 218.769 175.741C218.769 175.741 218.769 175.741 218.769 175.513C218.769 175.513 218.769 175.513 218.769 175.285C218.769 175.058 218.769 174.83 218.541 174.83L215.806 173.234C215.579 173.006 215.123 173.006 214.895 173.234L210.109 175.969C209.881 175.741 209.426 175.741 209.198 175.741ZM204.412 188.736L201.678 187.14C201.45 186.912 200.766 186.912 200.538 187.14L197.12 189.192C196.892 189.192 196.892 189.42 196.892 189.648C196.892 189.648 196.892 189.648 196.892 189.876C196.892 189.876 196.892 189.876 196.892 190.104C196.892 190.332 196.892 190.332 197.12 190.56L199.855 192.156C200.082 192.384 200.766 192.384 200.994 192.156L204.412 190.104C204.64 190.104 204.64 189.876 204.64 189.648C204.64 189.648 204.64 189.648 204.64 189.42C204.64 189.42 204.64 189.42 204.64 189.192C204.64 188.964 204.64 188.964 204.412 188.736ZM218.313 180.757L215.579 179.161C215.351 178.933 214.667 178.933 214.439 179.161L211.021 181.213C210.793 181.213 210.793 181.441 210.793 181.669C210.793 181.669 210.793 181.669 210.793 181.897C210.793 181.897 210.793 181.897 210.793 182.125C210.793 182.353 210.793 182.353 211.021 182.581L213.756 184.177C213.983 184.405 214.667 184.405 214.895 184.177L218.313 182.125C218.541 182.125 218.541 181.897 218.541 181.669C218.541 181.669 218.541 181.669 218.541 181.441C218.541 181.441 218.541 181.441 218.541 181.213C218.541 180.985 218.541 180.985 218.313 180.757ZM193.474 195.12L190.739 193.524C190.511 193.296 189.828 193.296 189.6 193.524L186.182 195.576C185.954 195.576 185.954 195.804 185.954 196.032C185.954 196.032 185.954 196.032 185.954 196.26C185.954 196.26 185.954 196.26 185.954 196.488C185.954 196.716 185.954 196.716 186.182 196.944L188.916 198.539C189.144 198.767 189.828 198.767 190.056 198.539L193.474 196.488C193.702 196.488 193.702 196.26 193.702 196.032C193.702 196.032 193.702 196.032 193.702 195.804C193.702 195.804 193.702 195.804 193.702 195.576C193.702 195.348 193.702 195.12 193.474 195.12ZM216.034 178.477C216.034 178.705 216.034 178.705 216.034 178.705C216.034 178.933 216.034 178.933 216.262 179.161L218.997 180.757C219.225 180.985 219.908 180.985 220.136 180.757L223.554 178.705C223.782 178.705 223.782 178.477 223.782 178.249C223.782 178.249 223.782 178.249 223.782 178.021C223.782 178.021 223.782 178.021 223.782 177.793C223.782 177.565 223.782 177.565 223.554 177.337L220.82 175.741C220.592 175.513 219.908 175.513 219.68 175.741L216.262 177.793C216.034 178.021 216.034 178.249 216.034 178.477ZM171.597 207.659L168.862 206.063C168.635 205.835 167.951 205.835 167.723 206.063L164.305 208.115C164.077 208.115 164.077 208.343 164.077 208.571C164.077 208.571 164.077 208.571 164.077 208.799C164.077 208.799 164.077 208.799 164.077 209.027C164.077 209.255 164.077 209.255 164.305 209.483L167.039 211.078C167.267 211.306 167.951 211.306 168.179 211.078L171.597 209.027C171.825 209.027 171.825 208.799 171.825 208.571C171.825 208.571 171.825 208.571 171.825 208.343C171.825 208.343 171.825 208.343 171.825 208.115C172.053 207.887 171.825 207.887 171.597 207.659ZM182.535 201.503L179.801 199.907C179.573 199.679 178.889 199.679 178.661 199.907L175.243 201.959C175.015 201.959 175.015 202.187 175.015 202.415C175.015 202.415 175.015 202.415 175.015 202.643C175.015 202.643 175.015 202.643 175.015 202.871C175.015 203.099 175.015 203.099 175.243 203.327L177.978 204.923C178.206 205.151 178.889 205.151 179.117 204.923L182.535 202.871C182.763 202.871 182.763 202.643 182.763 202.415C182.763 202.415 182.763 202.415 182.763 202.187C182.763 202.187 182.763 202.187 182.763 201.959C182.763 201.731 182.763 201.503 182.535 201.503ZM177.066 204.467L174.332 202.871C174.104 202.643 173.42 202.643 173.192 202.871L169.774 204.923C169.546 204.923 169.546 205.151 169.546 205.379C169.546 205.379 169.546 205.379 169.546 205.607C169.546 205.607 169.546 205.607 169.546 205.835C169.546 206.063 169.546 206.063 169.774 206.291L172.509 207.887C172.736 208.115 173.42 208.115 173.648 207.887L177.066 205.835C177.294 205.835 177.294 205.607 177.294 205.379C177.294 205.379 177.294 205.379 177.294 205.151C177.294 205.151 177.294 205.151 177.294 204.923C177.294 204.923 177.294 204.695 177.066 204.467ZM166.356 210.85L163.621 209.255C163.393 209.027 162.71 209.027 162.482 209.255L159.063 211.306C158.836 211.306 158.836 211.534 158.836 211.762C158.836 211.762 158.836 211.762 158.836 211.99C158.836 211.99 158.836 211.99 158.836 212.218C158.836 212.446 158.836 212.446 159.063 212.674L161.798 214.27C162.026 214.498 162.71 214.498 162.938 214.27L166.356 212.218C166.584 212.218 166.584 211.99 166.584 211.762C166.584 211.762 166.584 211.762 166.584 211.534C166.584 211.534 166.584 211.534 166.584 211.306C166.584 211.078 166.356 210.85 166.356 210.85ZM160.887 214.042L158.152 212.446C157.924 212.218 157.24 212.218 157.013 212.446L153.594 214.498C153.366 214.498 153.366 214.726 153.366 214.954C153.366 214.954 153.366 214.954 153.366 215.182C153.366 215.182 153.366 215.182 153.366 215.41C153.366 215.638 153.366 215.638 153.594 215.866L156.329 217.462C156.557 217.69 157.24 217.69 157.468 217.462L160.887 215.41C161.114 215.41 161.114 215.182 161.114 214.954C161.114 214.954 161.114 214.954 161.114 214.726C161.114 214.726 161.114 214.726 161.114 214.498C161.114 214.27 160.887 214.042 160.887 214.042ZM188.005 198.311L185.27 196.716C185.042 196.488 184.359 196.488 184.131 196.716L180.712 198.767C180.485 198.767 180.485 198.995 180.485 199.223C180.485 199.223 180.485 199.223 180.485 199.451C180.485 199.451 180.485 199.451 180.485 199.679C180.485 199.907 180.485 199.907 180.712 200.135L183.447 201.731C183.675 201.959 184.359 201.959 184.586 201.731L188.005 199.679C188.233 199.679 188.233 199.451 188.233 199.223C188.233 199.223 188.233 199.223 188.233 198.995C188.233 198.995 188.233 198.995 188.233 198.767C188.233 198.539 188.233 198.311 188.005 198.311ZM198.943 191.928L196.208 190.332C195.981 190.104 195.297 190.104 195.069 190.332L191.651 192.384C191.423 192.384 191.423 192.612 191.423 192.84C191.423 192.84 191.423 192.84 191.423 193.068C191.423 193.068 191.423 193.068 191.423 193.296C191.423 193.524 191.423 193.524 191.651 193.752L194.385 194.892C194.613 195.12 195.297 195.12 195.525 194.892L198.943 192.84C199.171 192.84 199.171 192.612 199.171 192.384C199.171 192.384 199.171 192.384 199.171 192.156C199.171 192.156 199.171 192.156 199.171 191.928C199.171 192.156 199.171 192.156 198.943 191.928ZM169.318 214.726L166.584 213.13C166.356 212.902 165.672 212.902 165.444 213.13L162.026 215.182C161.798 215.182 161.798 215.41 161.798 215.638C161.798 215.638 161.798 215.638 161.798 215.866C161.798 215.866 161.798 215.866 161.798 216.094C161.798 216.322 161.798 216.322 162.026 216.55L164.761 218.146C164.988 218.374 165.672 218.374 165.9 218.146L169.318 216.094C169.546 216.094 169.546 215.866 169.546 215.638C169.546 215.638 169.546 215.638 169.546 215.41C169.546 215.41 169.546 215.41 169.546 215.182C169.546 214.954 169.546 214.726 169.318 214.726ZM174.787 211.534L172.053 209.938C171.825 209.71 171.141 209.71 170.913 209.938L167.495 211.99C167.267 211.99 167.267 212.218 167.267 212.446C167.267 212.446 167.267 212.446 167.267 212.674C167.267 212.674 167.267 212.674 167.267 212.902C167.267 213.13 167.267 213.13 167.495 213.358L170.23 214.954C170.458 215.182 171.141 215.182 171.369 214.954L174.787 212.902C175.015 212.902 175.015 212.674 175.015 212.446C175.015 212.446 175.015 212.446 175.015 212.218C175.015 212.218 175.015 212.218 175.015 211.99C175.015 211.762 175.015 211.762 174.787 211.534ZM163.849 217.918L161.114 216.322C160.887 216.094 160.203 216.094 159.975 216.322L156.557 218.374C156.329 218.374 156.329 218.602 156.329 218.83C156.329 218.83 156.329 218.83 156.329 219.058C156.329 219.058 156.329 219.058 156.329 219.286C156.329 219.514 156.329 219.514 156.557 219.742L159.291 221.337C159.519 221.565 160.203 221.565 160.431 221.337L163.849 219.286C164.077 219.286 164.077 219.058 164.077 218.83C164.077 218.83 164.077 218.83 164.077 218.602C164.077 218.602 164.077 218.602 164.077 218.374C164.077 218.146 164.077 217.918 163.849 217.918ZM158.38 221.11L155.645 219.514C155.417 219.286 154.734 219.286 154.506 219.514L151.088 221.565C150.86 221.565 150.86 221.793 150.86 222.021C150.86 222.021 150.86 222.021 150.86 222.249C150.86 222.249 150.86 222.249 150.86 222.477C150.86 222.705 150.86 222.705 151.088 222.933L153.822 224.529C154.05 224.757 154.734 224.757 154.962 224.529L158.38 222.477C158.608 222.477 158.608 222.249 158.608 222.021C158.608 222.021 158.608 222.021 158.608 221.793C158.608 221.793 158.608 221.793 158.608 221.565C158.608 221.337 158.608 221.11 158.38 221.11ZM199.399 186.001L196.664 184.405C196.436 184.177 195.753 184.177 195.525 184.405L190.284 187.368C190.056 187.368 190.056 187.596 190.056 187.824C190.056 187.824 190.056 187.824 190.056 188.052C190.056 188.052 190.056 188.052 190.056 188.28C190.056 188.508 190.056 188.508 190.284 188.736L193.018 190.332C193.246 190.56 193.93 190.56 194.158 190.332L199.399 187.368C199.627 187.368 199.627 187.14 199.627 186.912C199.627 186.912 199.627 186.912 199.627 186.685C199.627 186.685 199.627 186.685 199.627 186.457C199.627 186.229 199.627 186.001 199.399 186.001ZM209.198 191.7L206.463 190.104C206.235 189.876 205.552 189.876 205.324 190.104L200.082 193.068C199.855 193.068 199.855 193.296 199.855 193.524C199.855 193.524 199.855 193.524 199.855 193.752C199.855 193.752 199.855 193.752 199.855 193.98C199.855 194.208 199.855 194.208 200.082 194.436L202.817 196.032C203.045 196.26 203.729 196.26 203.957 196.032L209.198 193.068C209.426 193.068 209.426 192.84 209.426 192.612C209.426 192.612 209.426 192.612 209.426 192.384C209.426 192.384 209.426 192.384 209.426 192.156C209.426 191.928 209.426 191.7 209.198 191.7ZM223.327 183.721L220.592 182.125C220.364 181.897 219.68 181.897 219.453 182.125L216.034 184.177C215.806 184.177 215.806 184.405 215.806 184.633C215.806 184.633 215.806 184.633 215.806 184.861C215.806 184.861 215.806 184.861 215.806 185.089C215.806 185.317 215.806 185.317 216.034 185.545L218.769 187.14C218.997 187.368 219.68 187.368 219.908 187.14L223.327 185.089C223.555 185.089 223.554 184.861 223.554 184.633C223.554 184.633 223.554 184.633 223.554 184.405C223.554 184.405 223.554 184.405 223.554 184.177C223.554 183.949 223.555 183.721 223.327 183.721ZM217.857 186.912L215.123 185.317C214.895 185.089 214.211 185.089 213.983 185.317L210.565 187.368C210.337 187.368 210.337 187.596 210.337 187.824C210.337 187.824 210.337 187.824 210.337 188.052C210.337 188.052 210.337 188.052 210.337 188.28C210.337 188.508 210.337 188.508 210.565 188.736L213.3 190.332C213.528 190.56 214.211 190.56 214.439 190.332L217.857 188.28C218.085 188.28 218.085 188.052 218.085 187.824C218.085 187.824 218.085 187.824 218.085 187.596C218.085 187.596 218.085 187.596 218.085 187.368C218.085 187.14 218.085 186.912 217.857 186.912ZM202.133 195.804L199.399 194.208C199.171 193.98 198.487 193.98 198.259 194.208L172.964 208.799C172.736 208.799 172.736 209.027 172.736 209.255C172.736 209.255 172.736 209.255 172.736 209.483C172.736 209.483 172.736 209.483 172.736 209.71C172.736 209.938 172.736 209.938 172.964 210.166L175.699 211.762C175.927 211.99 176.61 211.99 176.838 211.762L202.133 197.172C202.361 197.172 202.361 196.944 202.361 196.716C202.361 196.716 202.361 196.716 202.361 196.488C202.361 196.488 202.361 196.488 202.361 196.26C202.361 196.032 202.361 196.032 202.133 195.804ZM181.168 196.488L178.434 194.892C178.206 194.664 177.522 194.664 177.294 194.892L173.876 196.944C173.648 196.944 173.648 197.172 173.648 197.4C173.648 197.4 173.648 197.4 173.648 197.628C173.648 197.628 173.648 197.628 173.648 197.856C173.648 198.084 173.648 198.084 173.876 198.311L176.611 199.907C176.838 200.135 177.522 200.135 177.75 199.907L181.168 197.856C181.396 197.856 181.396 197.628 181.396 197.4C181.396 197.4 181.396 197.4 181.396 197.172C181.396 197.172 181.396 197.172 181.396 196.944C181.396 196.716 181.396 196.488 181.168 196.488ZM175.699 199.679L172.964 198.084C172.736 197.856 172.053 197.856 171.825 198.084L168.407 200.135C168.179 200.135 168.179 200.363 168.179 200.591C168.179 200.591 168.179 200.591 168.179 200.819C168.179 200.819 168.179 200.819 168.179 201.047C168.179 201.275 168.179 201.275 168.407 201.503L171.141 203.099C171.369 203.327 172.053 203.327 172.281 203.099L175.699 201.047C175.927 201.047 175.927 200.819 175.927 200.591C175.927 200.591 175.927 200.591 175.927 200.363C175.927 200.363 175.927 200.363 175.927 200.135C175.927 199.907 175.927 199.679 175.699 199.679ZM186.637 193.296L183.903 191.7C183.675 191.472 182.991 191.472 182.763 191.7L179.345 193.752C179.117 193.752 179.117 193.98 179.117 194.208C179.117 194.208 179.117 194.208 179.117 194.436C179.117 194.436 179.117 194.436 179.117 194.664C179.117 194.892 179.117 194.892 179.345 195.12L182.08 196.716C182.308 196.944 182.991 196.944 183.219 196.716L186.637 194.664C186.865 194.664 186.865 194.436 186.865 194.208C186.865 194.208 186.865 194.208 186.865 193.98C186.865 193.98 186.865 193.98 186.865 193.752C186.865 193.524 186.865 193.296 186.637 193.296ZM206.235 172.55C206.235 172.778 206.235 172.778 206.235 172.55C206.235 172.778 206.235 172.778 206.235 172.778C206.235 173.006 206.235 173.006 206.463 173.234L209.198 174.83C209.426 175.058 210.109 175.058 210.337 174.83L213.756 172.778C213.983 172.778 213.983 172.55 213.983 172.322C213.983 172.322 213.983 172.322 213.983 172.094C213.983 172.094 213.983 172.094 213.983 171.866C213.983 171.638 213.983 171.638 213.756 171.41L211.021 169.814C210.793 169.586 210.109 169.586 209.881 169.814L206.463 171.866C206.235 172.322 206.007 172.55 206.235 172.55ZM192.107 190.104L189.372 188.508C189.144 188.28 188.46 188.28 188.233 188.508L184.814 190.56C184.586 190.56 184.586 190.788 184.586 191.016C184.586 191.016 184.586 191.016 184.586 191.244C184.586 191.244 184.586 191.244 184.586 191.472C184.586 191.7 184.586 191.7 184.814 191.928L187.549 193.524C187.777 193.752 188.46 193.752 188.688 193.524L192.107 191.472C192.334 191.472 192.334 191.244 192.334 191.016C192.334 191.016 192.334 191.016 192.334 190.788C192.334 190.788 192.334 190.788 192.334 190.56C192.334 190.332 192.334 190.332 192.107 190.104ZM170.23 202.643L167.495 201.047C167.267 200.819 166.584 200.819 166.356 201.047L162.938 203.099C162.71 203.099 162.71 203.327 162.71 203.555C162.71 203.555 162.71 203.555 162.71 203.783C162.71 203.783 162.71 203.783 162.71 204.011C162.71 204.239 162.71 204.239 162.938 204.467L165.672 206.063C165.9 206.291 166.584 206.291 166.812 206.063L170.23 204.011C170.458 204.011 170.458 203.783 170.458 203.555C170.458 203.555 170.458 203.555 170.458 203.327C170.458 203.327 170.458 203.327 170.458 203.099C170.458 202.871 170.458 202.871 170.23 202.643ZM159.519 209.027L156.785 207.431C156.557 207.203 155.873 207.203 155.645 207.431L152.227 209.483C151.999 209.483 151.999 209.71 151.999 209.938C151.999 209.938 151.999 209.938 151.999 210.166C151.999 210.166 151.999 210.166 151.999 210.394C151.999 210.622 151.999 210.622 152.227 210.85L154.962 212.446C155.189 212.674 155.873 212.674 156.101 212.446L159.519 210.394C159.747 210.394 159.747 210.166 159.747 209.938C159.747 209.938 159.747 209.938 159.747 209.71C159.747 209.71 159.747 209.711 159.747 209.483C159.747 209.255 159.519 209.027 159.519 209.027ZM164.761 205.835L162.026 204.239C161.798 204.011 161.114 204.011 160.887 204.239L157.468 206.291C157.24 206.291 157.24 206.519 157.24 206.747C157.24 206.747 157.24 206.747 157.24 206.975C157.24 206.975 157.24 206.975 157.24 207.203C157.24 207.431 157.24 207.431 157.468 207.659L160.203 209.255C160.431 209.483 161.114 209.483 161.342 209.255L164.761 207.203C164.988 207.203 164.988 206.975 164.988 206.747C164.988 206.747 164.988 206.747 164.988 206.519C164.988 206.519 164.988 206.519 164.988 206.291C165.216 206.063 164.988 206.063 164.761 205.835Z" fill="#D2D1CE"/>
<path d="M138.556 210.167L135.137 212.219C134.91 212.447 134.226 212.447 133.998 212.219L131.263 210.623C131.036 210.395 131.036 210.167 131.263 209.939L134.682 207.887C134.91 207.659 135.593 207.659 135.821 207.887L138.556 209.483C139.012 209.711 139.012 209.939 138.556 210.167ZM144.025 206.291L141.29 204.695C141.062 204.467 140.379 204.467 140.151 204.695L136.733 206.747C136.505 206.975 136.505 207.203 136.733 207.431L139.467 209.027C139.695 209.255 140.379 209.255 140.607 209.027L144.025 206.975C144.481 206.747 144.481 206.519 144.025 206.291ZM149.494 203.1L146.76 201.504C146.532 201.276 145.848 201.276 145.62 201.504L142.202 203.556C141.974 203.784 141.974 204.012 142.202 204.24L144.936 205.835C145.164 206.063 145.848 206.063 146.076 205.835L149.494 203.784C149.722 203.556 149.722 203.328 149.494 203.1ZM154.963 199.908L152.229 198.312C152.001 198.084 151.317 198.084 151.089 198.312L147.671 200.364C147.443 200.592 147.443 200.82 147.671 201.048L150.406 202.644C150.634 202.872 151.317 202.872 151.545 202.644L154.963 200.592C155.191 200.592 155.191 200.136 154.963 199.908ZM160.433 196.944L157.698 195.348C157.47 195.12 156.786 195.12 156.559 195.348L153.14 197.4C152.912 197.628 152.912 197.856 153.14 198.084L155.875 199.68C156.103 199.908 156.786 199.908 157.014 199.68L160.433 197.628C160.66 197.4 160.66 196.944 160.433 196.944ZM165.902 193.752L163.167 192.157C162.939 191.929 162.256 191.929 162.028 192.157L158.609 194.208C158.382 194.436 158.382 194.664 158.609 194.892L161.344 196.488C161.572 196.716 162.256 196.716 162.483 196.488L165.902 194.436C166.13 194.208 166.13 193.98 165.902 193.752ZM171.371 190.561L168.636 188.965C168.408 188.737 167.725 188.737 167.497 188.965L164.079 191.017C163.851 191.245 163.851 191.473 164.079 191.701L166.813 193.296C167.041 193.524 167.725 193.524 167.953 193.296L171.371 191.245C171.599 191.017 171.599 190.789 171.371 190.561ZM176.84 187.369L173.878 185.773C173.65 185.545 172.966 185.545 172.738 185.773L169.32 187.825C169.092 188.053 169.092 188.281 169.32 188.509L172.055 190.105C172.283 190.333 172.966 190.333 173.194 190.105L176.612 188.053C177.068 187.825 177.068 187.597 176.84 187.369ZM182.309 184.177L179.575 182.581C179.347 182.353 178.663 182.353 178.435 182.581L175.017 184.633C174.789 184.861 174.789 185.089 175.017 185.317L177.752 186.913C177.98 187.141 178.663 187.141 178.891 186.913L182.309 184.861C182.537 184.861 182.537 184.405 182.309 184.177ZM189.374 180.074L186.639 178.478C186.411 178.25 185.728 178.25 185.5 178.478L180.258 181.441C180.03 181.669 180.03 181.897 180.258 182.125L182.993 183.721C183.221 183.949 183.905 183.949 184.132 183.721L189.374 180.758C189.829 180.53 189.829 180.302 189.374 180.074ZM212.846 183.949L210.111 182.353C209.883 182.125 209.2 182.125 208.972 182.353L205.553 184.405C205.326 184.633 205.326 184.861 205.553 185.089L208.288 186.685C208.516 186.913 209.2 186.913 209.428 186.685L212.846 184.633C213.074 184.405 213.074 183.949 212.846 183.949ZM218.315 180.758L215.58 179.162C215.352 178.934 214.669 178.934 214.441 179.162L211.023 181.214C210.795 181.441 210.795 181.669 211.023 181.897L213.757 183.493C213.985 183.721 214.669 183.721 214.897 183.493L218.315 181.441C218.543 181.214 218.543 180.986 218.315 180.758ZM223.784 177.566L221.05 175.97C220.822 175.742 220.138 175.742 219.91 175.97L216.492 178.022C216.264 178.25 216.264 178.478 216.492 178.706L219.226 180.302C219.454 180.53 220.138 180.53 220.366 180.302L223.784 178.25C224.012 178.022 224.012 177.794 223.784 177.566ZM217.859 186.685L215.125 185.089C214.897 184.861 214.213 184.861 213.985 185.089L210.567 187.141C210.339 187.369 210.339 187.597 210.567 187.825L213.301 189.421C213.529 189.649 214.213 189.649 214.441 189.421L217.859 187.369C218.087 187.141 218.087 186.913 217.859 186.685ZM223.328 183.493L220.594 181.897C220.366 181.669 219.682 181.669 219.454 181.897L216.036 183.949C215.808 184.177 215.808 184.405 216.036 184.633L218.771 186.229C218.999 186.457 219.682 186.457 219.91 186.229L223.328 184.177C223.556 184.177 223.556 183.721 223.328 183.493ZM228.798 180.53L226.063 178.934C225.835 178.706 225.151 178.706 224.924 178.934L221.505 180.986C221.277 181.214 221.277 181.441 221.505 181.669L224.24 183.265C224.468 183.493 225.151 183.493 225.379 183.265L228.798 181.214C229.025 180.986 229.025 180.53 228.798 180.53ZM145.392 211.307L142.658 209.711C142.43 209.483 141.746 209.483 141.518 209.711L136.277 212.675C136.049 212.903 136.049 213.131 136.277 213.359L139.012 214.955C139.239 215.183 139.923 215.183 140.151 214.955L145.392 211.991C145.848 211.763 145.848 211.535 145.392 211.307ZM150.861 208.115L148.127 206.519C147.899 206.291 147.215 206.291 146.987 206.519L143.569 208.571C143.341 208.799 143.341 209.027 143.569 209.255L146.304 210.851C146.532 211.079 147.215 211.079 147.443 210.851L150.861 208.799C151.317 208.571 151.317 208.343 150.861 208.115ZM156.331 204.923L153.596 203.328C153.368 203.1 152.685 203.1 152.457 203.328L149.038 205.379C148.811 205.607 148.811 205.835 149.038 206.063L151.773 207.659C152.001 207.887 152.684 207.887 152.912 207.659L156.331 205.607C156.559 205.379 156.559 205.151 156.331 204.923ZM161.8 201.732L159.065 200.136C158.837 199.908 158.154 199.908 157.926 200.136L154.508 202.188C154.28 202.416 154.28 202.644 154.508 202.872L157.242 204.467C157.47 204.695 158.154 204.695 158.382 204.467L161.8 202.416C162.028 202.416 162.028 201.96 161.8 201.732ZM167.269 198.768L164.534 197.172C164.307 196.944 163.623 196.944 163.395 197.172L159.977 199.224C159.749 199.452 159.749 199.68 159.977 199.908L162.711 201.504C162.939 201.732 163.623 201.732 163.851 201.504L167.269 199.452C167.497 199.224 167.497 198.768 167.269 198.768ZM172.738 195.576L170.004 193.98C169.776 193.752 169.092 193.752 168.864 193.98L165.446 196.032C165.218 196.26 165.218 196.488 165.446 196.716L168.181 198.312C168.408 198.54 169.092 198.54 169.32 198.312L172.738 196.26C172.966 196.032 172.966 195.804 172.738 195.576ZM178.207 192.385L175.473 190.789C175.245 190.561 174.561 190.561 174.333 190.789L170.915 192.84C170.687 193.068 170.687 193.296 170.915 193.524L173.65 195.12C173.878 195.348 174.561 195.348 174.789 195.12L178.207 193.068C178.435 192.84 178.435 192.613 178.207 192.385ZM183.677 189.193L180.942 187.597C180.714 187.369 180.031 187.369 179.803 187.597L176.384 189.649C176.157 189.877 176.157 190.105 176.384 190.333L179.119 191.929C179.347 192.157 180.03 192.157 180.258 191.929L183.677 189.877C183.905 189.649 183.905 189.421 183.677 189.193ZM189.146 186.001L186.411 184.405C186.183 184.177 185.5 184.177 185.272 184.405L181.854 186.457C181.626 186.685 181.626 186.913 181.854 187.141L184.588 188.737C184.816 188.965 185.5 188.965 185.728 188.737L189.146 186.685C189.374 186.685 189.374 186.229 189.146 186.001ZM194.615 183.037L191.88 181.441C191.653 181.214 190.969 181.214 190.741 181.441L187.323 183.493C187.095 183.721 187.095 183.949 187.323 184.177L190.057 185.773C190.285 186.001 190.969 186.001 191.197 185.773L194.615 183.721C194.843 183.493 194.843 183.037 194.615 183.037ZM148.583 215.183L145.848 213.587C145.62 213.359 144.937 213.359 144.709 213.587L141.29 215.639C141.062 215.866 141.062 216.094 141.29 216.322L144.025 217.918C144.253 218.146 144.936 218.146 145.164 217.918L148.583 215.866C148.81 215.639 148.81 215.411 148.583 215.183ZM154.052 211.991L151.317 210.395C151.089 210.167 150.406 210.167 150.178 210.395L146.76 212.447C146.532 212.675 146.532 212.903 146.76 213.131L149.494 214.727C149.722 214.955 150.406 214.955 150.634 214.727L154.052 212.675C154.28 212.447 154.28 212.219 154.052 211.991ZM159.521 208.799L156.786 207.203C156.559 206.975 155.875 206.975 155.647 207.203L152.229 209.255C152.001 209.483 152.001 209.711 152.229 209.939L154.963 211.535C155.191 211.763 155.875 211.763 156.103 211.535L159.521 209.483C159.749 209.255 159.749 209.027 159.521 208.799ZM164.762 205.607L162.028 204.012C161.8 203.784 161.116 203.784 160.888 204.012L157.47 206.063C157.242 206.291 157.242 206.519 157.47 206.747L160.205 208.343C160.433 208.571 161.116 208.571 161.344 208.343L164.762 206.291C165.218 206.291 165.218 205.835 164.762 205.607ZM158.382 220.882L155.647 219.286C155.419 219.058 154.735 219.058 154.508 219.286L151.089 221.338C150.861 221.566 150.861 221.794 151.089 222.022L153.824 223.618C154.052 223.846 154.735 223.846 154.963 223.618L158.382 221.566C158.61 221.338 158.61 221.11 158.382 220.882ZM163.851 217.69L161.116 216.094C160.888 215.867 160.205 215.867 159.977 216.094L156.559 218.146C156.331 218.374 156.331 218.602 156.559 218.83L159.293 220.426C159.521 220.654 160.205 220.654 160.433 220.426L163.851 218.374C164.079 218.146 164.079 217.918 163.851 217.69ZM169.32 214.499L166.585 212.903C166.357 212.675 165.674 212.675 165.446 212.903L162.028 214.955C161.8 215.183 161.8 215.411 162.028 215.639L164.762 217.234C164.99 217.462 165.674 217.462 165.902 217.234L169.32 215.183C169.548 215.183 169.548 214.727 169.32 214.499ZM174.789 211.535L172.055 209.939C171.827 209.711 171.143 209.711 170.915 209.939L167.497 211.991C167.269 212.219 167.269 212.447 167.497 212.675L170.232 214.271C170.459 214.499 171.143 214.499 171.371 214.271L174.789 212.219C175.017 211.991 175.017 211.535 174.789 211.535ZM209.2 191.473L206.465 189.877C206.237 189.649 205.553 189.649 205.326 189.877L200.084 192.84C199.856 193.068 199.856 193.296 200.084 193.524L202.819 195.12C203.047 195.348 203.73 195.348 203.958 195.12L209.2 192.157C209.427 191.929 209.427 191.701 209.2 191.473ZM170.232 202.644L167.497 201.048C167.269 200.82 166.585 200.82 166.358 201.048L162.939 203.1C162.711 203.328 162.711 203.556 162.939 203.784L165.674 205.379C165.902 205.607 166.585 205.607 166.813 205.379L170.232 203.328C170.687 203.1 170.687 202.872 170.232 202.644ZM175.701 199.452L172.966 197.856C172.738 197.628 172.055 197.628 171.827 197.856L168.408 199.908C168.181 200.136 168.181 200.364 168.408 200.592L171.143 202.188C171.371 202.416 172.055 202.416 172.282 202.188L175.701 200.136C176.156 199.908 176.156 199.68 175.701 199.452ZM181.17 196.26L178.435 194.664C178.207 194.436 177.524 194.436 177.296 194.664L173.878 196.716C173.65 196.944 173.65 197.172 173.878 197.4L176.612 198.996C176.84 199.224 177.524 199.224 177.752 198.996L181.17 196.944C181.626 196.716 181.626 196.488 181.17 196.26ZM186.639 193.068L183.905 191.473C183.677 191.245 182.993 191.245 182.765 191.473L179.347 193.524C179.119 193.752 179.119 193.98 179.347 194.208L182.081 195.804C182.309 196.032 182.993 196.032 183.221 195.804L186.639 193.752C187.095 193.524 187.095 193.296 186.639 193.068ZM192.108 189.877L189.374 188.281C189.146 188.053 188.462 188.053 188.234 188.281L184.816 190.333C184.588 190.561 184.588 190.789 184.816 191.017L187.551 192.613C187.779 192.84 188.462 192.84 188.69 192.613L192.108 190.561C192.336 190.561 192.336 190.105 192.108 189.877ZM199.401 185.773L196.666 184.177C196.438 183.949 195.754 183.949 195.527 184.177L190.285 187.141C190.057 187.369 190.057 187.597 190.285 187.825L193.02 189.421C193.248 189.649 193.931 189.649 194.159 189.421L199.401 186.457C199.629 186.229 199.629 186.001 199.401 185.773ZM155.419 217.006L152.685 215.411C152.457 215.183 151.773 215.183 151.545 215.411L146.304 218.374C146.076 218.602 146.076 218.83 146.304 219.058L149.038 220.654C149.266 220.882 149.95 220.882 150.178 220.654L155.419 217.69C155.647 217.462 155.647 217.234 155.419 217.006ZM160.888 213.815L158.154 212.219C157.926 211.991 157.242 211.991 157.014 212.219L153.596 214.271C153.368 214.499 153.368 214.727 153.596 214.955L156.331 216.55C156.559 216.778 157.242 216.778 157.47 216.55L160.888 214.499C161.116 214.271 161.116 214.043 160.888 213.815ZM166.358 210.623L163.623 209.027C163.395 208.799 162.711 208.799 162.483 209.027L159.065 211.079C158.837 211.307 158.837 211.535 159.065 211.763L161.8 213.359C162.028 213.587 162.711 213.587 162.939 213.359L166.358 211.307C166.585 211.307 166.585 210.851 166.358 210.623ZM171.599 207.659L168.864 206.063C168.636 205.835 167.953 205.835 167.725 206.063L164.307 208.115C164.079 208.343 164.079 208.571 164.307 208.799L167.041 210.395C167.269 210.623 167.953 210.623 168.181 210.395L171.599 208.343C172.055 208.115 172.055 207.659 171.599 207.659ZM177.068 204.467L174.333 202.872C174.106 202.644 173.422 202.644 173.194 202.872L169.776 204.923C169.548 205.151 169.548 205.379 169.776 205.607L172.51 207.203C172.738 207.431 173.422 207.431 173.65 207.203L177.068 205.151C177.524 204.923 177.524 204.695 177.068 204.467ZM202.135 195.576L199.401 193.98C199.173 193.752 198.489 193.752 198.261 193.98L172.966 208.571C172.738 208.799 172.738 209.027 172.966 209.255L175.701 210.851C175.929 211.079 176.612 211.079 176.84 210.851L202.135 196.26C202.363 196.26 202.363 195.804 202.135 195.576ZM182.537 201.276L179.803 199.68C179.575 199.452 178.891 199.452 178.663 199.68L175.245 201.732C175.017 201.96 175.017 202.188 175.245 202.416L177.98 204.012C178.207 204.24 178.891 204.24 179.119 204.012L182.537 201.96C182.993 201.732 182.993 201.504 182.537 201.276ZM188.006 198.084L185.272 196.488C185.044 196.26 184.36 196.26 184.132 196.488L180.714 198.54C180.486 198.768 180.486 198.996 180.714 199.224L183.449 200.82C183.677 201.048 184.36 201.048 184.588 200.82L188.006 198.768C188.462 198.54 188.462 198.312 188.006 198.084ZM193.476 194.892L190.741 193.296C190.513 193.068 189.83 193.068 189.602 193.296L186.183 195.348C185.955 195.576 185.955 195.804 186.183 196.032L188.918 197.628C189.146 197.856 189.83 197.856 190.057 197.628L193.476 195.576C193.931 195.348 193.931 195.12 193.476 194.892ZM198.945 191.701L196.21 190.105C195.982 189.877 195.299 189.877 195.071 190.105L191.653 192.157C191.425 192.385 191.425 192.613 191.653 192.84L194.387 194.436C194.615 194.664 195.299 194.664 195.527 194.436L198.945 192.385C199.173 192.385 199.173 191.929 198.945 191.701ZM204.414 188.737L201.679 187.141C201.452 186.913 200.768 186.913 200.54 187.141L197.122 189.193C196.894 189.421 196.894 189.649 197.122 189.877L199.856 191.473C200.084 191.701 200.768 191.701 200.996 191.473L204.414 189.421C204.642 189.193 204.642 188.737 204.414 188.737ZM197.805 175.286L195.071 173.69C194.843 173.462 194.159 173.462 193.931 173.69L190.513 175.742C190.285 175.97 190.285 176.198 190.513 176.426L193.248 178.022C193.476 178.25 194.159 178.25 194.387 178.022L197.805 175.97C198.261 175.742 198.261 175.514 197.805 175.286ZM203.275 172.094L200.54 170.498C200.312 170.27 199.629 170.27 199.401 170.498L195.982 172.55C195.755 172.778 195.755 173.006 195.982 173.234L198.717 174.83C198.945 175.058 199.628 175.058 199.856 174.83L203.275 172.778C203.73 172.55 203.73 172.322 203.275 172.094ZM208.744 168.903L206.009 167.307C205.781 167.079 205.098 167.079 204.87 167.307L201.452 169.359C201.224 169.587 201.224 169.815 201.452 170.042L204.186 171.638C204.414 171.866 205.098 171.866 205.326 171.638L208.744 169.587C209.2 169.359 209.2 169.131 208.744 168.903ZM213.757 171.866L211.023 170.27C210.795 170.042 210.111 170.042 209.883 170.27L206.465 172.322C206.237 172.55 206.237 172.778 206.465 173.006L209.2 174.602C209.427 174.83 210.111 174.83 210.339 174.602L213.757 172.55C214.213 172.322 214.213 172.094 213.757 171.866ZM218.543 174.374L215.808 172.778C215.58 172.55 215.125 172.55 214.897 172.778L210.111 175.514C209.883 175.742 209.427 175.742 209.2 175.514L205.553 173.462C205.098 173.234 204.414 173.234 204.186 173.462L195.527 178.478C195.071 178.706 195.071 179.162 195.527 179.39L203.047 183.721C203.502 183.949 204.186 183.949 204.414 183.721L218.543 175.514C218.999 175.058 218.999 174.602 218.543 174.374Z" fill="#FFFEFB"/>
<path d="M272.772 169.358C271.633 166.394 267.303 160.694 260.467 158.186C255.225 156.135 248.389 154.083 240.413 158.642C240.185 158.87 239.729 159.098 239.501 159.098C236.539 161.15 236.767 164.798 239.729 166.85C245.426 170.725 252.263 174.601 252.263 174.601C253.858 175.513 255.681 176.197 257.732 176.653C262.29 177.793 266.392 177.337 269.81 175.513C272.089 174.145 273 172.549 273 170.953C273.228 170.725 273 170.041 272.772 169.358Z" fill="url(#paint4_radial_14822_171209)"/>
<path opacity="0.6" d="M250.437 159.326L248.158 158.186C247.474 157.958 246.563 157.73 245.651 158.642C245.195 159.098 245.423 159.326 246.107 159.554L248.386 160.694C249.069 160.922 250.209 161.15 250.665 160.694C251.12 160.238 251.12 159.782 250.437 159.326Z" fill="#D2D1CE"/>
<path d="M249.074 157.502C248.39 157.046 247.479 157.046 246.795 157.502L249.986 162.746C251.581 161.378 250.897 158.642 249.074 157.502Z" fill="#FFFEFB"/>
<path d="M249.986 160.01C249.53 158.87 248.846 158.186 248.163 157.73C247.707 157.502 247.479 157.502 247.023 157.502C246.795 157.502 246.795 157.502 246.567 157.73C246.339 157.958 245.884 158.186 245.656 159.098C245.2 161.15 247.479 164.341 249.758 163.201C250.213 162.518 250.441 161.378 249.986 160.01Z" fill="#B6B5B3"/>
<path opacity="0.5" d="M248.389 160.694C248.161 160.011 247.706 159.555 247.25 159.327C247.022 159.099 246.794 159.099 246.566 159.099C245.883 159.099 245.655 160.011 246.11 160.922C246.338 161.606 246.794 162.062 247.25 162.29C247.478 162.518 247.706 162.518 247.933 162.518C248.617 162.518 248.845 161.606 248.389 160.694Z" fill="#CCCECE"/>
<path d="M250.213 160.01C250.213 159.782 250.213 159.782 250.213 160.01C249.986 159.326 249.53 158.87 249.302 158.414C249.074 158.186 248.618 157.73 248.39 157.502C247.935 157.274 247.707 157.274 247.251 157.274C247.023 157.274 247.023 157.274 246.795 157.502L246.567 157.73C246.795 157.73 246.795 157.502 247.023 157.502C247.479 157.502 247.707 157.502 248.163 157.73C248.39 157.958 248.846 158.186 249.074 158.642C249.302 159.098 249.758 159.554 249.986 160.01C249.986 160.01 249.986 160.01 250.213 160.01C250.441 161.378 250.213 162.518 249.758 162.974L249.986 162.746C250.441 162.29 250.669 161.15 250.213 160.01Z" fill="#F0EFEC"/>
<path opacity="0.6" d="M270.492 174.145C267.074 176.197 262.972 176.653 258.415 175.285C256.592 174.829 254.768 174.145 252.945 173.233C252.945 173.233 246.109 169.586 240.412 165.482C238.589 164.342 237.905 162.746 238.133 161.15C237.221 163.202 237.905 165.482 240.184 167.078C245.881 170.954 252.717 174.829 252.717 174.829C254.313 175.741 256.136 176.425 258.187 176.881C262.744 178.021 266.846 177.565 270.264 175.741C272.315 174.601 273.455 173.005 273.455 171.409C272.771 172.321 271.86 173.233 270.492 174.145Z" fill="#D2D1CE"/>
<path opacity="0.6" d="M270.265 174.83C266.847 176.882 262.745 177.338 258.187 175.97C256.364 175.514 254.541 174.83 252.718 173.918C252.718 173.918 245.881 170.27 240.184 166.166C238.361 164.799 237.678 163.203 237.905 161.379C237.222 163.203 237.905 165.483 239.956 166.85C245.653 170.726 252.49 174.602 252.49 174.602C254.085 175.514 255.908 176.198 257.959 176.654C262.517 177.793 266.619 177.338 270.037 175.514C271.86 174.374 273 173.006 273.227 171.638C272.772 172.778 271.632 173.918 270.265 174.83Z" fill="#D2D1CE"/>
<path opacity="0.2" d="M246.103 94.8072L113.475 171.409V89.3357L246.103 12.7344V94.8072Z" fill="#788EFF"/>
<path opacity="0.2" d="M246.103 94.8072L113.475 171.409V89.3357L246.103 12.7344V94.8072Z" fill="#3852D4"/>
<path opacity="0.5" d="M115.302 93.2109V168.216L211.468 112.589L246.107 92.527V17.5215L115.302 93.2109Z" fill="#213FD8"/>
<path d="M246.103 13.1898L113.475 89.7912V84.5476L246.103 7.94629V13.1898Z" fill="#788EFF"/>
<path d="M201.204 118.518L113.469 169.129V106.891L201.204 56.2793V118.518Z" fill="#788EFF"/>
<path d="M201.204 114.186L113.469 165.026V106.891L201.204 56.2793V114.186Z" fill="#C2CCFF"/>
<path d="M174.77 94.8086L140.36 114.643C138.536 115.555 137.169 115.099 137.169 113.275C137.169 111.451 138.536 109.171 140.36 108.031L174.77 88.1972C176.593 87.2853 177.96 87.7412 177.96 89.565C177.96 91.3889 176.593 93.8967 174.77 94.8086Z" fill="#FFFFD6"/>
<path d="M174.77 106.436L140.36 126.27C138.536 127.182 137.169 126.726 137.169 124.902C137.169 123.078 138.536 120.798 140.36 119.658L174.77 99.8241C176.593 98.9122 177.96 99.3682 177.96 101.192C177.96 103.016 176.593 105.296 174.77 106.436Z" fill="#FFFFD6"/>
<path d="M162.008 125.358L152.209 131.058C150.386 131.97 149.018 131.514 149.018 129.69C149.018 127.866 150.386 125.586 152.209 124.446L162.008 118.747C163.831 117.835 165.198 118.291 165.198 120.115C165.198 121.939 163.831 124.219 162.008 125.358Z" fill="#788EFF"/>
<path d="M141.269 122.394C141.269 122.85 140.813 123.306 140.585 123.762C140.13 123.99 139.902 123.762 139.902 123.306C139.902 122.85 140.357 122.394 140.585 121.938C140.813 121.938 141.269 121.938 141.269 122.394Z" fill="#9F9F9F"/>
<path d="M144.463 120.57C144.463 121.026 144.007 121.482 143.779 121.938C143.323 122.166 143.095 121.938 143.095 121.482C143.095 121.026 143.551 120.57 143.779 120.114C144.007 120.114 144.463 120.114 144.463 120.57Z" fill="#9F9F9F"/>
<path d="M147.653 118.747C147.653 119.203 147.197 119.658 146.969 120.114C146.513 120.342 146.286 120.114 146.286 119.658C146.286 119.203 146.741 118.747 146.969 118.291C147.425 118.063 147.653 118.291 147.653 118.747Z" fill="#9F9F9F"/>
<path d="M150.843 116.922C150.843 117.378 150.387 117.834 150.159 118.29C149.704 118.518 149.476 118.29 149.476 117.834C149.476 117.378 149.932 116.922 150.159 116.466C150.615 116.238 150.843 116.466 150.843 116.922Z" fill="#9F9F9F"/>
<path d="M154.037 115.099C154.037 115.555 153.581 116.011 153.353 116.467C152.897 116.695 152.669 116.467 152.669 116.011C152.669 115.555 153.125 115.099 153.353 114.643C153.809 114.415 154.037 114.643 154.037 115.099Z" fill="#9F9F9F"/>
<path d="M157.455 113.047C157.455 113.503 156.999 113.959 156.771 114.415C156.315 114.643 156.087 114.415 156.087 113.959C156.087 113.503 156.543 113.047 156.771 112.591C156.999 112.591 157.455 112.591 157.455 113.047Z" fill="#9F9F9F"/>
<path d="M160.641 111.224C160.641 111.68 160.186 112.135 159.958 112.591C159.502 112.819 159.274 112.591 159.274 112.135C159.274 111.68 159.73 111.224 159.958 110.768C160.186 110.768 160.641 110.768 160.641 111.224Z" fill="#9F9F9F"/>
<path d="M163.832 109.4C163.832 109.856 163.376 110.312 163.148 110.768C162.692 110.996 162.464 110.768 162.464 110.312C162.464 109.856 162.92 109.4 163.148 108.944C163.376 108.716 163.832 108.944 163.832 109.4Z" fill="#9F9F9F"/>
<path d="M140.59 110.539V112.363C140.59 112.819 140.818 112.819 141.273 112.591C141.729 112.363 141.957 111.907 141.957 111.679V109.627L142.413 109.399V111.451V112.135L142.185 112.363V111.907C141.957 112.135 141.729 112.591 141.273 112.819C140.818 113.047 140.362 112.819 140.362 112.363V110.539H140.59Z" fill="#9F9F9F"/>
<path d="M144.691 110.084C144.691 109.628 144.463 109.856 144.008 110.084C143.324 110.54 143.096 110.312 143.096 109.856C143.096 109.4 143.552 108.716 144.008 108.488C144.691 108.032 144.919 108.26 144.919 108.944L144.463 109.172C144.463 108.716 144.236 108.716 143.78 108.944C143.324 109.172 143.096 109.4 143.096 109.856C143.096 110.084 143.324 110.312 143.78 109.856C144.463 109.628 144.691 109.628 144.691 110.084C144.691 110.54 144.236 111.224 143.552 111.452C142.868 111.908 142.413 111.68 142.413 111.224L142.868 110.996C142.868 111.224 143.096 111.452 143.552 111.224C144.463 110.768 144.691 110.312 144.691 110.084Z" fill="#9F9F9F"/>
<path d="M145.831 108.943C145.831 109.627 146.059 109.855 146.742 109.399C147.198 109.171 147.426 108.715 147.426 108.259L147.654 108.031C147.654 108.487 147.198 109.171 146.514 109.627C145.603 110.083 145.375 109.627 145.375 108.943V108.715C145.375 108.031 145.831 107.119 146.514 106.663C147.198 106.207 147.654 106.663 147.654 107.347V107.575L145.831 108.943ZM145.831 108.487L147.426 107.575C147.426 106.891 147.198 106.663 146.742 107.119C146.286 107.347 145.831 108.031 145.831 108.487Z" fill="#9F9F9F"/>
<path d="M149.704 105.067V105.523C149.249 105.751 149.021 106.207 149.021 106.435V108.487L148.565 108.715V106.663V105.979L148.793 105.751V105.979C149.021 105.751 149.249 105.295 149.704 105.067C149.704 105.067 149.477 105.067 149.704 105.067Z" fill="#9F9F9F"/>
<path d="M151.759 106.892L151.303 107.12V103.016L151.759 102.788V106.892Z" fill="#9F9F9F"/>
<path d="M153.582 105.752L152.442 106.436V102.332L153.582 101.648C154.493 101.192 155.177 101.192 155.177 102.788V103.016C155.177 104.384 154.493 105.068 153.582 105.752ZM153.582 105.296C154.265 104.84 154.721 104.156 154.721 103.016V102.788C154.721 101.648 154.265 101.42 153.582 101.876L152.898 102.332V105.752L153.582 105.296Z" fill="#9F9F9F"/>
<path d="M113.475 94.1233V107.802L201.21 57.1905V43.5117L113.475 94.1233Z" fill="#788EFF"/>
<path d="M237.905 16.6088L235.17 18.2047V15.4689L237.905 13.873V16.6088Z" fill="#5373F9"/>
<path d="M241.551 14.557L238.588 16.1529V13.4171L241.551 11.8213V14.557Z" fill="#5373F9"/>
<path d="M239.044 13.6458V15.6976L241.095 14.5577V12.5059L239.044 13.6458ZM240.639 14.3297L239.272 15.0136V13.6458L240.639 12.9618V14.3297Z" fill="#F7F8FF"/>
<path d="M244.969 12.5053L242.234 14.1012V11.3654L244.969 9.76953V12.5053Z" fill="#5373F9"/>
<path d="M242.693 11.821L243.377 12.049L242.693 13.1889L242.921 13.4169L243.605 12.277L244.288 12.5049L244.744 12.049L243.833 11.821L244.744 10.6811L244.288 10.4531L243.605 11.821L242.921 11.365L242.693 11.821Z" fill="#F7F8FF"/>
<path d="M237.445 16.3803L235.622 17.5202V17.0643L237.445 16.1523V16.3803Z" fill="#F7F8FF"/>
<path d="M240.414 73.3766L208.055 92.071V85.6875L240.414 66.9932V73.3766Z" fill="#788EFF"/>
<path d="M209.65 86.601L238.819 69.7305V72.4662L209.65 89.3368V86.601Z" fill="#291B2A"/>
<path d="M255.682 121.253L254.315 120.569C253.403 120.113 252.72 119.429 251.808 118.517C250.897 117.605 250.213 116.237 249.529 115.097C248.846 113.73 248.618 112.362 248.618 110.994V87.2838C248.618 85.9159 248.162 84.3201 247.706 82.9522C247.251 81.5843 246.339 80.4444 245.427 79.3045C244.744 78.3926 243.832 77.7086 242.921 77.2527L232.438 71.3252L211.701 83.4081L222.183 89.3356C223.095 89.7916 224.006 90.7035 224.69 91.3874C225.602 92.5273 226.285 93.6673 226.969 95.0351C227.653 96.403 227.881 97.9989 227.881 99.3668V123.077C227.881 124.445 228.336 125.812 228.792 127.18C229.248 128.32 230.159 129.688 231.071 130.6C231.755 131.512 232.666 132.196 233.578 132.652L234.945 133.336C236.54 134.248 237.907 134.248 238.819 133.792L259.556 121.709C258.645 122.165 257.277 122.165 255.682 121.253Z" fill="url(#paint5_linear_14822_171209)"/>
<path d="M242.464 113.273C241.552 113.957 240.869 115.097 240.869 116.921V130.372C240.869 132.196 240.185 133.564 239.273 134.02L260.011 121.937C261.15 121.253 261.606 120.113 261.606 118.289V104.838C261.606 103.014 262.29 101.874 263.201 101.19L242.464 113.273Z" fill="#DAD7D7"/>
<path d="M279.84 135.16L278.473 134.476C277.561 134.02 276.878 133.336 275.966 132.424C275.054 131.512 274.371 130.144 273.687 129.004C273.003 127.636 272.776 126.268 272.776 124.901V111.45C272.776 110.082 272.32 108.486 271.864 107.118C271.408 105.75 270.497 104.61 269.585 103.47C268.902 102.558 267.99 101.875 267.079 101.419C265.483 100.507 263.888 100.507 262.977 100.963L242.239 112.818C243.379 112.134 244.746 112.362 246.341 113.274C247.253 113.729 248.164 114.641 248.848 115.325C249.759 116.465 250.443 117.605 251.127 118.973C251.81 120.341 252.038 121.937 252.038 123.305V136.755C252.038 138.123 252.494 139.491 252.95 140.859C253.406 141.999 254.317 143.367 255.229 144.279C255.912 145.191 256.824 145.875 257.735 146.331L259.103 147.015C260.698 147.926 262.065 147.926 262.977 147.471L283.714 135.388C282.803 136.3 281.435 136.072 279.84 135.16Z" fill="url(#paint6_linear_14822_171209)"/>
<path d="M266.618 137.895C265.707 138.579 265.023 139.719 265.023 141.543V144.279C265.023 146.103 264.339 147.471 263.428 147.927L284.165 135.844C285.305 135.16 285.76 134.02 285.76 132.196V129.46C285.76 127.636 286.444 126.496 287.356 125.812L266.618 137.895Z" fill="#DAD7D7"/>
<path d="M291.233 125.813C289.638 124.901 288.042 124.901 287.131 125.357L266.394 137.44C267.533 136.756 268.9 136.984 270.495 137.896L283.941 145.647L304.678 133.564L291.233 125.813Z" fill="#F8F5F4"/>
<path d="M283.94 145.874L270.495 138.123C267.305 136.299 264.57 137.667 264.57 141.542V144.278C264.57 147.926 262.063 149.294 258.873 147.47L257.506 146.786C254.315 144.962 251.809 140.63 252.036 137.211V123.76C252.036 120.112 249.53 115.553 246.339 113.729C243.149 111.905 240.414 113.273 240.414 117.148V130.599C240.414 134.247 237.908 135.615 234.717 133.791L233.35 133.107C230.16 131.283 227.653 126.952 227.881 123.532V99.8219C227.881 96.1742 225.374 91.6146 222.184 89.7908L211.701 83.8633V84.0913L222.184 90.0187C225.374 91.8426 227.881 96.1742 227.653 99.5939V123.304C227.653 126.952 230.16 131.511 233.35 133.335L234.717 134.019C237.908 135.843 240.642 134.475 240.642 130.599V117.148C240.642 113.501 243.149 112.133 246.339 113.957C249.53 115.781 252.037 120.112 251.809 123.532V136.983C251.809 140.63 254.315 145.19 257.506 147.014L258.873 147.698C262.063 149.522 264.798 148.154 264.798 144.278V141.542C264.798 137.895 267.305 136.527 270.495 138.351L283.94 146.102L304.678 134.019V133.791L283.94 145.874Z" fill="#F3F0F0"/>
<path d="M240.414 47.3883L208.054 66.0827V59.6993L240.414 41.0049V47.3883Z" fill="#788EFF"/>
<path d="M209.65 60.6117L238.82 43.7412V46.477L209.65 63.3475V60.6117Z" fill="#291B2A"/>
<path d="M208.061 58.786C208.061 59.242 208.289 59.6979 208.973 59.9259L245.89 81.356C247.029 82.04 248.624 82.04 249.536 81.584L271.641 68.8171C272.096 68.5891 272.324 68.1332 272.324 67.9052C272.324 67.6772 272.324 67.4492 272.324 67.2213C272.324 66.7653 272.096 66.5373 271.413 66.0814L234.496 44.6512C233.356 43.9673 231.761 43.9673 230.85 44.4232L208.745 57.1901C208.289 57.4181 208.061 57.6461 208.061 58.1021C207.833 58.33 208.061 58.558 208.061 58.786Z" fill="url(#paint7_linear_14822_171209)"/>
<path d="M267.083 66.5371C267.31 66.765 267.538 66.993 267.538 67.221C267.538 67.449 267.538 67.677 267.083 67.9049L265.715 68.8169C265.26 69.0449 264.12 69.0449 263.436 68.8169L258.195 65.8531C257.967 65.6252 257.739 65.3972 257.739 65.1692C257.739 64.9412 257.739 64.7132 258.195 64.4852L259.562 63.5733C260.018 63.3453 261.158 63.3453 261.841 63.5733L267.083 66.5371Z" fill="#FFD7FB"/>
<path d="M223.099 59.243C223.327 59.471 223.555 59.699 223.555 59.927C223.555 60.155 223.555 60.3829 223.099 60.6109L220.364 62.2068C219.908 62.4348 218.769 62.4348 218.085 62.2068L212.388 58.7871C212.16 58.5591 211.933 58.3311 211.933 58.1031C211.933 57.8752 211.932 57.6472 212.388 57.4192L215.123 55.8233C215.579 55.5953 216.718 55.5953 217.402 55.8233L223.099 59.243Z" fill="url(#paint8_linear_14822_171209)"/>
<path d="M212.616 58.7871L218.313 62.2068C218.769 62.4348 219.681 62.6628 220.136 62.2068L222.871 60.6109C223.327 60.383 223.327 59.927 222.643 59.471L216.946 56.0513C216.49 55.8234 215.579 55.5954 215.123 56.0513L212.388 57.6472C211.932 57.8752 211.933 58.3311 212.616 58.7871Z" fill="#FFC440"/>
<g opacity="0.6">
<path d="M216.946 56.0518C216.718 56.0518 216.718 56.0518 216.946 56.0518L212.388 58.5595C212.388 58.5595 212.388 58.5595 212.616 58.7875L213.756 58.1036L215.579 59.2435C215.123 59.4715 215.351 60.1554 215.807 60.3834C216.49 60.6114 217.174 60.8393 217.857 60.6114L219.681 61.7513L218.541 62.4352H218.769L223.099 59.9274C223.099 59.9274 223.099 59.9274 222.871 59.6994L221.732 60.3834L219.908 59.2435C220.364 59.0155 220.136 58.3316 219.681 58.1036C218.997 57.6476 218.313 57.6476 217.63 57.8756L215.807 56.7357L216.946 56.0518ZM217.857 60.1554L219.681 59.0155L221.504 60.1554L219.681 61.2953L217.857 60.1554ZM215.807 60.1554C215.351 59.9274 215.123 59.4715 215.579 59.2435L217.63 60.3834C216.946 60.3834 216.262 60.3834 215.807 60.1554ZM219.453 58.1036C219.908 58.3316 220.136 58.7875 219.681 59.0155L217.63 57.8756C218.085 57.6476 218.997 57.6476 219.453 58.1036ZM217.402 57.8756L219.453 59.0155L217.63 60.1554L215.579 59.0155L217.402 57.8756ZM217.402 57.8756L215.579 59.0155L213.756 58.1036L215.579 56.9637L217.402 57.8756Z" fill="#D88C1D"/>
</g>
<path d="M245.661 75.8846C244.749 76.3405 243.382 76.3405 242.471 75.8846C241.559 75.4286 241.559 74.5167 242.471 74.0607C243.382 73.6048 244.749 73.6048 245.661 74.0607C246.572 74.5167 246.572 75.4286 245.661 75.8846Z" fill="#9B2C2C"/>
<path d="M247.712 78.392C248.97 78.392 249.99 77.7796 249.99 77.0241C249.99 76.2687 248.97 75.6562 247.712 75.6562C246.453 75.6562 245.433 76.2687 245.433 77.0241C245.433 77.7796 246.453 78.392 247.712 78.392Z" fill="#FFDF43"/>
<path d="M258.192 71.3252C257.964 71.3252 257.737 71.3252 257.737 71.5532L256.597 72.2371C256.369 72.2371 256.369 72.4651 256.369 72.4651C256.369 72.4651 256.369 72.6931 256.597 72.6931L257.053 72.9211C257.281 72.9211 257.281 73.149 257.509 73.149C257.737 73.149 257.964 73.149 257.964 72.9211L259.104 72.2371C259.332 72.2371 259.332 72.0091 259.332 72.0091C259.332 72.0091 259.332 71.7812 259.104 71.7812L258.648 71.5532C258.648 71.3252 258.42 71.3252 258.192 71.3252ZM257.964 71.5532C258.192 71.3252 258.42 71.3252 258.648 71.5532L258.876 71.7812C259.104 71.7812 259.104 72.0091 258.876 72.2371L257.737 72.9211C257.509 73.149 257.281 73.149 257.053 72.9211L256.825 72.6931C256.597 72.4651 256.597 72.4651 256.825 72.2371L257.964 71.5532Z" fill="#FFC440"/>
<path d="M256.369 70.1855C256.142 70.1855 255.914 70.1856 255.914 70.4135L254.774 71.0975C254.546 71.0975 254.546 71.3254 254.546 71.3254C254.546 71.3254 254.546 71.5534 254.774 71.5534L255.23 71.7814C255.458 71.7814 255.458 72.0094 255.686 72.0094C255.914 72.0094 256.142 72.0094 256.142 71.7814L257.281 71.0975C257.509 71.0975 257.509 70.8695 257.509 70.8695C257.509 70.8695 257.509 70.6415 257.281 70.6415L256.825 70.4135C256.825 70.4135 256.597 70.1855 256.369 70.1855ZM256.142 70.6415C256.369 70.4135 256.597 70.4135 256.825 70.6415L257.053 70.8695C257.281 70.8695 257.281 71.0975 257.053 71.3254L255.914 71.7814C255.686 72.0094 255.458 72.0094 255.23 71.7814L255.002 71.5534C254.774 71.3255 254.774 71.3255 255.002 71.0975L256.142 70.6415Z" fill="#FFC440"/>
<path d="M254.543 69.2734C254.315 69.2734 254.087 69.2734 254.087 69.5014L252.948 70.1854C252.72 70.1854 252.72 70.4133 252.72 70.4133C252.72 70.4133 252.72 70.6413 252.948 70.6413L253.404 70.8693C253.631 70.8693 253.631 71.0973 253.859 71.0973C254.087 71.0973 254.315 71.0973 254.315 70.8693L255.454 70.1854C255.682 70.1854 255.682 69.9574 255.682 69.9574C255.682 69.9574 255.682 69.7294 255.454 69.7294L254.999 69.5014C254.999 69.2734 254.771 69.2734 254.543 69.2734ZM254.315 69.5014C254.543 69.2734 254.771 69.2734 254.999 69.5014L255.227 69.7294C255.455 69.7294 255.455 69.9574 255.227 70.1854L254.087 70.8693C253.859 71.0973 253.631 71.0973 253.404 70.8693L253.176 70.6413C252.948 70.4133 252.948 70.4133 253.176 70.1854L254.315 69.5014Z" fill="#FFC440"/>
<path d="M252.724 68.1338C252.496 68.1338 252.268 68.1338 252.268 68.3618L251.128 69.0457C250.9 69.0457 250.9 69.2737 250.9 69.2737C250.9 69.2737 250.9 69.5017 251.128 69.5017L251.584 69.7296C251.812 69.7296 251.812 69.9576 252.04 69.9576C252.268 69.9576 252.496 69.9576 252.496 69.7296L253.635 69.0457C253.863 69.0457 253.863 68.8177 253.863 68.8177C253.863 68.8177 253.863 68.5897 253.635 68.5897L253.179 68.3618C253.179 68.1338 252.951 68.1338 252.724 68.1338ZM252.496 68.3618C252.723 68.1338 252.951 68.1338 253.179 68.3618L253.407 68.5897C253.635 68.5897 253.635 68.8177 253.407 69.0457L252.268 69.7296C252.04 69.9576 251.812 69.9576 251.584 69.7296L251.356 69.5017C251.128 69.2737 251.128 69.2737 251.356 69.0457L252.496 68.3618Z" fill="#FFC440"/>
<path d="M248.391 65.626C248.163 65.626 247.935 65.626 247.935 65.854L246.795 66.5379C246.567 66.5379 246.567 66.7659 246.567 66.7659C246.567 66.7659 246.567 66.9939 246.795 66.9939L247.251 67.2218C247.479 67.2218 247.479 67.4498 247.707 67.4498C247.935 67.4498 248.163 67.4498 248.163 67.2218L249.302 66.5379C249.53 66.5379 249.53 66.3099 249.53 66.3099C249.53 66.3099 249.53 66.0819 249.302 66.0819L248.846 65.854C248.846 65.626 248.618 65.626 248.391 65.626ZM248.163 65.854C248.391 65.626 248.618 65.626 248.846 65.854L249.074 66.0819C249.302 66.0819 249.302 66.3099 249.074 66.5379L247.935 67.2218C247.707 67.4498 247.479 67.4498 247.251 67.2218L247.023 66.9939C246.795 66.7659 246.795 66.7659 247.023 66.5379L248.163 65.854Z" fill="#FFC440"/>
<path d="M246.567 64.4863C246.34 64.4863 246.112 64.4863 246.112 64.7143L244.972 65.3983C244.744 65.3983 244.744 65.6262 244.744 65.6262C244.744 65.6262 244.744 65.8542 244.972 65.8542L245.428 66.0822C245.656 66.0822 245.656 66.3102 245.884 66.3102C246.112 66.3102 246.34 66.3102 246.34 66.0822L247.479 65.3983C247.707 65.3983 247.707 65.1703 247.707 65.1703C247.707 65.1703 247.707 64.9423 247.479 64.9423L247.023 64.7143C247.023 64.7143 246.795 64.4863 246.567 64.4863ZM246.34 64.9423C246.567 64.7143 246.795 64.7143 247.023 64.9423L247.251 65.1703C247.479 65.1703 247.479 65.3982 247.251 65.6262L246.112 66.3102C245.884 66.5381 245.656 66.5381 245.428 66.3102L245.2 66.0822C244.972 65.8542 244.972 65.8542 245.2 65.6262L246.34 64.9423Z" fill="#FFC440"/>
<path d="M244.748 63.5742C244.52 63.5742 244.292 63.5742 244.292 63.8022L243.153 64.4861C242.925 64.4861 242.925 64.7141 242.925 64.7141C242.925 64.7141 242.925 64.9421 243.153 64.9421L243.609 65.1701C243.837 65.1701 243.836 65.3981 244.064 65.3981C244.292 65.3981 244.52 65.3981 244.52 65.1701L245.66 64.4861C245.887 64.4861 245.887 64.2582 245.887 64.2582C245.887 64.2582 245.887 64.0302 245.66 64.0302L245.204 63.8022C245.204 63.5742 244.976 63.5742 244.748 63.5742ZM244.52 63.8022C244.748 63.5742 244.976 63.5742 245.204 63.8022L245.432 64.0302C245.66 64.0302 245.66 64.2582 245.432 64.4861L244.292 65.1701C244.064 65.3981 243.837 65.3981 243.609 65.1701L243.381 64.9421C243.153 64.7141 243.153 64.7141 243.381 64.4861L244.52 63.8022Z" fill="#FFC440"/>
<path d="M242.922 62.4346C242.694 62.4346 242.466 62.4346 242.466 62.6625L241.326 63.3465C241.099 63.3465 241.099 63.5745 241.099 63.5745C241.099 63.5745 241.099 63.8024 241.326 63.8024L241.782 64.0304C242.01 64.0304 242.01 64.2584 242.238 64.2584C242.466 64.2584 242.694 64.2584 242.694 64.0304L243.833 63.3465C244.061 63.3465 244.061 63.1185 244.061 63.1185C244.061 63.1185 244.061 62.8905 243.833 62.8905L243.377 62.6625C243.377 62.6625 243.149 62.4346 242.922 62.4346ZM242.694 62.8905C242.922 62.6625 243.149 62.6625 243.377 62.8905L243.605 63.1185C243.833 63.1185 243.833 63.3465 243.605 63.5745L242.466 64.2584C242.238 64.4864 242.01 64.4864 241.782 64.2584L241.554 64.0304C241.326 63.8024 241.326 63.8025 241.554 63.5745L242.694 62.8905Z" fill="#FFC440"/>
<path d="M238.592 59.9258C238.364 59.9258 238.136 59.9258 238.136 60.1538L236.997 60.8377C236.769 60.8377 236.769 61.0657 236.769 61.0657C236.769 61.0657 236.769 61.2937 236.997 61.2937L237.453 61.5216C237.68 61.5216 237.681 61.7496 237.908 61.7496C238.136 61.7496 238.364 61.7496 238.364 61.5216L239.504 60.8377C239.731 60.8377 239.731 60.6097 239.731 60.6097C239.731 60.6097 239.731 60.3817 239.504 60.3817L239.048 60.1538C239.048 59.9258 238.82 59.9258 238.592 59.9258ZM238.364 60.1538C238.592 59.9258 238.82 59.9258 239.048 60.1538L239.276 60.3817C239.504 60.3817 239.504 60.6097 239.276 60.8377L238.136 61.5216C237.908 61.7496 237.68 61.7496 237.453 61.5216L237.225 61.2937C236.997 61.0657 236.997 61.0657 237.225 60.8377L238.364 60.1538Z" fill="#FFC440"/>
<path d="M236.769 59.0146C236.541 59.0146 236.313 59.0146 236.313 59.2426L235.174 59.9266C234.946 59.9266 234.946 60.1545 234.946 60.1545C234.946 60.1545 234.946 60.3825 235.174 60.3825L235.63 60.6105C235.858 60.6105 235.858 60.8385 236.085 60.8385C236.313 60.8385 236.541 60.8385 236.541 60.6105L237.681 59.9266C237.909 59.9266 237.909 59.6986 237.909 59.6986C237.909 59.6986 237.909 59.4706 237.681 59.4706L237.225 59.2426C237.225 59.0146 236.997 59.0146 236.769 59.0146ZM236.541 59.2426C236.769 59.0146 236.997 59.0146 237.225 59.2426L237.453 59.4706C237.681 59.4706 237.681 59.6986 237.453 59.9266L236.313 60.6105C236.085 60.8385 235.858 60.8385 235.63 60.6105L235.402 60.3825C235.174 60.1545 235.174 60.1545 235.402 59.9266L236.541 59.2426Z" fill="#FFC440"/>
<path d="M234.946 57.874C234.718 57.874 234.49 57.874 234.49 58.102L233.351 58.7859C233.123 58.7859 233.123 59.0139 233.123 59.0139C233.123 59.0139 233.123 59.2419 233.351 59.2419L233.807 59.4699C234.035 59.4699 234.035 59.6979 234.262 59.6979C234.49 59.6979 234.718 59.6979 234.718 59.4699L235.858 58.7859C236.086 58.7859 236.086 58.558 236.086 58.558C236.086 58.558 236.086 58.33 235.858 58.33L235.402 58.102C235.402 57.874 235.174 57.874 234.946 57.874ZM234.718 58.102C234.946 57.874 235.174 57.874 235.402 58.102L235.63 58.33C235.858 58.33 235.858 58.558 235.63 58.7859L234.49 59.4699C234.262 59.6979 234.035 59.6979 233.807 59.4699L233.579 59.2419C233.351 59.0139 233.351 59.0139 233.579 58.7859L234.718 58.102Z" fill="#FFC440"/>
<path d="M233.127 56.7344C232.899 56.7344 232.671 56.7344 232.671 56.9624L231.531 57.6463C231.303 57.6463 231.304 57.8743 231.304 57.8743C231.304 57.8743 231.303 58.1023 231.531 58.1023L231.987 58.3302C232.215 58.3302 232.215 58.5582 232.443 58.5582C232.671 58.5582 232.899 58.5582 232.899 58.3302L234.038 57.6463C234.266 57.6463 234.266 57.4183 234.266 57.4183C234.266 57.4183 234.266 57.1903 234.038 57.1903L233.582 56.9624C233.582 56.9624 233.354 56.7344 233.127 56.7344ZM232.899 57.1903C233.127 56.9623 233.354 56.9623 233.582 57.1903L233.81 57.4183C234.038 57.4183 234.038 57.6463 233.81 57.8743L232.671 58.5582C232.443 58.7862 232.215 58.7862 231.987 58.5582L231.759 58.3302C231.531 58.1022 231.531 58.1023 231.759 57.8743L232.899 57.1903Z" fill="#FFC440"/>
<path d="M228.794 54.2266C228.566 54.2266 228.338 54.2266 228.338 54.4545L227.198 55.1385C226.971 55.1385 226.971 55.3665 226.971 55.3665C226.971 55.3665 226.971 55.5944 227.198 55.5944L227.654 55.8224C227.882 55.8224 227.882 56.0504 228.11 56.0504C228.338 56.0504 228.566 56.0504 228.566 55.8224L229.705 55.1385C229.933 55.1385 229.933 54.9105 229.933 54.9105C229.933 54.9105 229.933 54.6825 229.705 54.6825L229.249 54.4545C229.249 54.4545 229.022 54.2266 228.794 54.2266ZM228.566 54.6825C228.794 54.4545 229.022 54.4545 229.249 54.6825L229.477 54.9105C229.705 54.9105 229.705 55.1385 229.477 55.3665L228.338 56.0504C228.11 56.2784 227.882 56.2784 227.654 56.0504L227.426 55.8224C227.198 55.5944 227.198 55.5944 227.426 55.3665L228.566 54.6825Z" fill="#FFC440"/>
<path d="M226.971 53.3145C226.743 53.3145 226.515 53.3144 226.515 53.5424L225.375 54.2264C225.148 54.2264 225.148 54.4544 225.148 54.4544C225.148 54.4544 225.148 54.6823 225.375 54.6823L225.831 54.9103C226.059 54.9103 226.059 55.1383 226.287 55.1383C226.515 55.1383 226.743 55.1383 226.743 54.9103L227.882 54.2264C228.11 54.2264 228.11 53.9984 228.11 53.9984C228.11 53.9984 228.11 53.7704 227.882 53.7704L227.426 53.5424C227.426 53.3144 227.199 53.3145 226.971 53.3145ZM226.743 53.5424C226.971 53.3144 227.199 53.3144 227.426 53.5424L227.654 53.7704C227.882 53.7704 227.882 53.9984 227.654 54.2264L226.515 54.9103C226.287 55.1383 226.059 55.1383 225.831 54.9103L225.603 54.6823C225.375 54.4544 225.375 54.4543 225.603 54.2264L226.743 53.5424Z" fill="#FFC440"/>
<path d="M225.151 52.1748C224.923 52.1748 224.695 52.1748 224.695 52.4028L223.556 53.0867C223.328 53.0867 223.328 53.3147 223.328 53.3147C223.328 53.3147 223.328 53.5427 223.556 53.5427L224.012 53.7707C224.24 53.7707 224.24 53.9986 224.467 53.9986C224.695 53.9986 224.923 53.9986 224.923 53.7707L226.063 53.0867C226.291 53.0867 226.291 52.8587 226.291 52.8587C226.291 52.8587 226.291 52.6308 226.063 52.6308L225.607 52.4028C225.607 52.1748 225.379 52.1748 225.151 52.1748ZM224.923 52.4028C225.151 52.1748 225.379 52.1748 225.607 52.4028L225.835 52.6308C226.063 52.6308 226.063 52.8587 225.835 53.0867L224.695 53.7707C224.467 53.9986 224.24 53.9986 224.012 53.7707L223.784 53.5427C223.556 53.3147 223.556 53.3147 223.784 53.0867L224.923 52.4028Z" fill="#FFC440"/>
<path d="M222.869 51.2631L221.73 51.9471C221.502 51.9471 221.502 52.1751 221.502 52.1751C221.502 52.1751 221.502 52.403 221.73 52.403L222.185 52.631C222.413 52.631 222.413 52.859 222.641 52.859C222.869 52.859 223.097 52.859 223.097 52.631L224.236 51.9471C224.464 51.9471 224.464 51.7191 224.464 51.7191C224.464 51.7191 224.464 51.4911 224.236 51.4911L223.78 51.2631C223.553 51.2631 223.553 51.0352 223.325 51.0352C223.097 51.2631 223.097 51.2631 222.869 51.2631ZM223.097 51.4911C223.325 51.2631 223.553 51.2631 223.78 51.4911L224.008 51.7191C224.236 51.7191 224.236 51.9471 224.008 52.1751L222.869 52.859C222.641 53.087 222.413 53.087 222.185 52.859L221.957 52.631C221.73 52.403 221.73 52.403 221.957 52.1751L223.097 51.4911Z" fill="#FFC440"/>
<path d="M229.936 47.16L231.759 46.248L232.671 46.704C232.899 46.704 232.899 46.932 232.899 46.932C232.899 46.932 232.899 47.16 232.671 47.16L231.759 47.6159C231.531 47.6159 231.531 47.8439 231.303 47.8439C231.076 47.8439 231.075 47.8439 230.848 47.6159L229.936 47.16ZM230.62 47.16L231.076 47.3879C231.303 47.3879 231.303 47.3879 231.531 47.3879L232.443 46.932C232.671 46.932 232.671 46.704 232.443 46.704L231.987 46.476C231.759 46.476 230.62 47.16 230.62 47.16Z" fill="#FFC440"/>
<path d="M232.674 48.756L231.763 48.3001L233.586 47.1602L234.497 47.6161L234.269 47.8441L233.586 47.3881L233.13 47.6161L233.586 48.0721L233.358 48.3001L232.674 48.0721L231.99 48.3001L232.674 48.756C232.902 48.528 232.674 48.756 232.674 48.756Z" fill="#FFC440"/>
<path d="M233.125 48.9842L234.948 48.0723L235.631 48.5282C235.859 48.5282 235.859 48.7562 235.859 48.7562C235.859 48.7562 235.859 48.9842 235.631 48.9842H235.403C235.176 48.9842 234.948 48.9842 234.948 48.9842C234.948 48.9842 234.948 48.9842 234.948 49.2122C234.948 49.2122 234.948 49.4402 234.72 49.4402H234.492C234.264 49.4402 234.264 49.6681 234.036 49.6681C233.808 49.6681 233.808 49.6681 233.58 49.4402L233.125 48.9842C232.897 48.9842 232.897 48.9842 233.125 48.9842ZM234.264 48.5282L234.72 48.7562C234.948 48.7562 234.948 48.7562 235.175 48.7562H235.403C235.631 48.7562 235.631 48.5282 235.403 48.5282L234.948 48.3003C234.948 48.0723 234.264 48.5282 234.264 48.5282ZM233.58 48.9842L234.036 49.2122C234.264 49.2122 234.264 49.2122 234.492 49.2122H234.72C234.948 49.2122 234.948 48.9842 234.72 48.9842L234.264 48.7562C234.036 48.5282 233.58 48.9842 233.58 48.9842Z" fill="#FFC440"/>
<path d="M236.772 48.9838L234.949 49.8958H234.721L236.544 48.7559L236.772 48.9838Z" fill="#FFC440"/>
<path d="M235.859 50.5802C235.631 50.3523 237.226 49.4403 237.226 49.4403L236.77 49.2124L236.998 48.9844L238.138 49.6683L237.91 49.8963L237.454 49.6683C237.454 49.6683 235.859 50.5802 235.859 50.5802Z" fill="#FFC440"/>
<path d="M237.915 51.7194L237.687 51.4915C237.459 51.4915 237.459 51.2635 237.459 51.2635C237.459 51.2635 237.459 51.0355 237.687 51.0355L238.599 50.5795C238.827 50.5795 238.827 50.3516 239.055 50.3516C239.282 50.3516 239.282 50.3516 239.51 50.5795L239.738 50.8075C239.966 50.8075 239.966 51.0355 239.966 51.0355C239.966 51.0355 239.966 51.2635 239.738 51.2635H239.51H239.282L239.51 51.0355C239.738 51.0355 239.738 50.8075 239.51 50.8075L239.282 50.5795C239.055 50.5795 239.054 50.5795 238.827 50.5795L237.915 51.0355C237.687 51.0355 237.687 51.2635 237.915 51.2635V51.7194C238.143 51.7194 238.371 51.7194 238.599 51.4915H238.827H239.055L238.827 51.7194C238.599 51.7194 238.599 51.9474 238.371 51.9474C238.371 51.9474 238.143 51.9474 237.915 51.7194Z" fill="#FFC440"/>
<path d="M238.822 52.4031C238.594 52.1752 240.873 51.4912 240.873 51.4912C240.873 51.4912 240.873 51.4912 241.101 51.4912L241.329 51.7192L240.189 53.0871H239.961L240.189 52.8591L239.505 52.4031H238.822C239.05 52.4031 239.05 52.4031 238.822 52.4031ZM240.873 51.7192L239.733 52.1752L240.189 52.4031L240.873 51.7192Z" fill="#FFC440"/>
<path d="M240.648 53.3157C240.421 53.0877 242.244 52.1758 242.244 52.1758L242.927 52.6317C243.155 52.6317 243.155 52.8597 243.155 52.8597C243.155 52.8597 243.155 53.0877 242.927 53.0877L242.699 53.3157C242.472 53.5437 242.244 53.5437 242.016 53.3157L241.56 53.9996H241.332L241.56 53.3157L241.332 53.0877C241.332 52.8597 240.648 53.3157 240.648 53.3157ZM241.788 52.8597L242.244 53.0877C242.472 53.0877 242.472 53.0877 242.699 53.0877L242.927 52.8597C243.155 52.8597 243.155 52.6317 242.927 52.6317L242.472 52.4038C242.244 52.4038 241.56 52.8597 241.788 52.8597C241.56 52.8597 241.56 52.8597 241.788 52.8597Z" fill="#FFC440"/>
<path d="M242.017 53.9988L243.84 53.0869L244.751 53.5429C244.979 53.5429 244.979 53.7709 244.979 53.7709C244.979 53.7709 244.979 53.9988 244.751 53.9988L243.84 54.4548C243.612 54.4548 243.612 54.6828 243.384 54.6828C243.156 54.6828 243.156 54.6828 242.928 54.4548L242.017 53.9988C242.017 53.9988 242.017 54.2268 242.017 53.9988ZM242.472 54.2268L242.928 54.4548C243.156 54.4548 243.156 54.4548 243.384 54.4548L244.296 53.9988C244.523 53.9988 244.523 53.7709 244.296 53.7709L243.84 53.5429C243.84 53.3149 242.472 53.9988 242.472 54.2268Z" fill="#FFC440"/>
<defs>
<linearGradient id="paint0_linear_14822_171209" x1="149.549" y1="160.649" x2="195.208" y2="160.649" gradientUnits="userSpaceOnUse">
<stop stop-color="#F0EFEC"/>
<stop offset="1" stop-color="#FFFEFB"/>
</linearGradient>
<linearGradient id="paint1_linear_14822_171209" x1="167.799" y1="143.158" x2="172.904" y2="151.998" gradientUnits="userSpaceOnUse">
<stop stop-color="#C2C1BF"/>
<stop offset="1" stop-color="#E3E2DF"/>
</linearGradient>
<linearGradient id="paint2_linear_14822_171209" x1="155.608" y1="204.426" x2="150.806" y2="204.426" gradientUnits="userSpaceOnUse">
<stop stop-color="#D2D1CE"/>
<stop offset="1" stop-color="#B6B5B3"/>
</linearGradient>
<linearGradient id="paint3_linear_14822_171209" x1="124.643" y1="195.601" x2="236.864" y2="195.601" gradientUnits="userSpaceOnUse">
<stop stop-color="#F0EFEC"/>
<stop offset="1" stop-color="#F6F5F2"/>
</linearGradient>
<radialGradient id="paint4_radial_14822_171209" cx="0" cy="0" r="1" gradientUnits="userSpaceOnUse" gradientTransform="translate(254.278 156.196) scale(28.101 28.1129)">
<stop stop-color="#FDFCF9"/>
<stop offset="1" stop-color="#D2D1CE"/>
</radialGradient>
<linearGradient id="paint5_linear_14822_171209" x1="227.989" y1="87.0654" x2="232.558" y2="94.9755" gradientUnits="userSpaceOnUse">
<stop offset="0.5025" stop-color="#F8F5F4"/>
<stop offset="1" stop-color="#E8E5E5"/>
</linearGradient>
<linearGradient id="paint6_linear_14822_171209" x1="252.594" y1="106.817" x2="259.36" y2="118.532" gradientUnits="userSpaceOnUse">
<stop offset="0.5025" stop-color="#F8F5F4"/>
<stop offset="1" stop-color="#E8E5E5"/>
</linearGradient>
<linearGradient id="paint7_linear_14822_171209" x1="207.896" y1="62.9692" x2="271.966" y2="62.9692" gradientUnits="userSpaceOnUse">
<stop stop-color="#2735AE"/>
<stop offset="1" stop-color="#4563FF"/>
</linearGradient>
<linearGradient id="paint8_linear_14822_171209" x1="211.827" y1="58.8997" x2="223.542" y2="58.8997" gradientUnits="userSpaceOnUse">
<stop stop-color="#AE5B27"/>
<stop offset="1" stop-color="#BE642D"/>
</linearGradient>
</defs>
</svg>
