<svg width="415" height="263" viewBox="0 0 415 263" fill="none" xmlns="http://www.w3.org/2000/svg">
<rect width="415" height="263" rx="5" fill="#AEB5D1"/>
<path opacity="0.4" d="M241.576 139.481H147.232L26.4542 209.243L31.2397 210.611H118.291L161.133 185.989L163.412 185.533C167.286 184.622 171.616 185.305 175.034 187.357L186.201 193.741C186.428 193.969 186.656 193.969 187.112 193.969H189.163L193.037 184.166L188.479 170.259L241.576 139.481Z" fill="#7B7794"/>
<path opacity="0.4" d="M179.821 247.088C179.594 247.316 179.366 247.316 178.91 247.316C177.998 247.316 176.175 247.316 175.72 247.088L149.285 231.813C148.601 231.357 148.601 230.673 149.285 230.218L231.779 183.026C232.918 182.342 234.969 182.342 236.109 183.026L262.543 198.3C262.999 198.528 185.746 243.668 179.821 247.088Z" fill="#ADA6A3"/>
<path opacity="0.4" d="M285.786 176.87C280.317 175.046 270.29 174.59 265.96 177.098C259.124 181.429 263.681 185.305 269.151 188.725C283.051 197.16 287.609 197.616 295.357 193.968C297.636 192.828 299.003 191.233 299.003 189.637C299.003 188.041 295.357 180.062 285.786 176.87Z" fill="#ADA6A3"/>
<path d="M207.845 165.472L175.485 184.166L188.931 191.917L221.29 173.223L207.845 165.472Z" fill="url(#paint0_linear_14822_171208)"/>
<path d="M221.289 173.45C221.289 173.45 221.289 173.222 221.289 173.45C221.061 173.222 188.93 191.916 188.93 191.916C189.158 192.144 189.158 192.144 189.158 192.144C189.385 192.6 189.385 193.74 189.158 193.74L221.289 175.046C221.517 175.046 221.517 173.906 221.289 173.45Z" fill="#D2D1CE"/>
<path d="M205.11 162.279C204.427 160.911 204.427 159.543 204.882 158.631L213.542 139.253L181.41 158.175L172.751 177.554C172.295 178.466 172.523 179.833 172.979 181.201C173.207 181.885 173.662 182.569 174.118 183.253C174.574 183.709 175.03 184.165 175.485 184.393L207.617 165.699C207.161 165.471 206.705 165.015 206.25 164.559C205.794 163.647 205.566 162.963 205.11 162.279Z" fill="url(#paint1_linear_14822_171208)"/>
<path d="M188.931 191.916L175.486 184.165C174.347 183.481 173.435 182.341 172.979 180.973C172.296 179.605 172.296 178.237 172.752 177.325L181.411 157.947V157.491V138.569C181.411 138.113 180.955 137.429 180.5 137.201C180.044 136.973 179.588 137.201 179.588 137.657V156.351L170.928 175.501C170.245 176.869 170.473 178.921 171.384 180.973C172.296 183.025 173.663 184.849 175.486 185.761L188.931 193.512C189.387 193.968 189.387 192.144 188.931 191.916Z" fill="#B6B5B3"/>
<path d="M213.542 119.418C213.542 119.19 213.314 118.962 213.314 118.962C213.314 118.734 213.086 118.734 212.858 118.734C212.63 118.506 212.402 118.506 212.174 118.734L180.043 137.429C180.271 137.429 180.499 137.429 180.727 137.429C180.954 137.429 180.954 137.657 181.182 137.657C181.41 137.885 181.41 137.885 181.41 138.113C181.41 138.341 181.638 138.569 181.638 138.797V157.719V158.175L213.77 139.481V139.025V120.102C213.77 119.874 213.77 119.646 213.542 119.418Z" fill="#B6B5B3"/>
<path d="M129.686 197.616L127.179 196.248V95.4805L129.686 97.0763V197.616Z" fill="#B6B5B3"/>
<path d="M129.686 97.0764L127.179 95.4806L261.174 18.1953L263.681 19.5632L129.686 97.0764Z" fill="#FFFEFB"/>
<path d="M263.681 19.5635V120.331L129.686 197.616V97.0767L263.681 19.5635Z" fill="#D2D1CE"/>
<path d="M130.145 97.5324L263.001 20.7031V108.02L130.145 184.621V97.5324Z" fill="#101014"/>
<path d="M205.341 148.601L200.555 151.337C199.872 151.793 199.416 151.565 199.416 150.881C199.416 150.197 199.872 149.513 200.555 149.057L205.341 146.321C206.025 145.865 206.48 146.093 206.48 146.777C206.48 147.461 206.025 148.145 205.341 148.601Z" fill="#2280D6"/>
<path d="M150.652 229.762V231.13C150.652 231.358 150.88 231.586 151.108 231.814L177.542 247.089C178.226 247.545 179.365 247.545 180.049 247.089L262.315 199.669C262.771 199.441 262.771 199.213 262.771 198.985V197.617L150.652 229.762Z" fill="url(#paint2_linear_14822_171208)"/>
<path d="M262.318 198.301L180.052 245.721C179.368 246.177 178.229 246.177 177.545 245.721L151.111 230.447C150.427 229.991 150.427 229.307 151.111 228.851L233.377 181.431C234.061 180.975 235.2 180.975 235.884 181.431L262.318 196.706C263.002 197.161 263.002 197.845 262.318 198.301Z" fill="url(#paint3_linear_14822_171208)"/>
<path d="M221.753 191.234C221.753 191.234 221.753 191.006 221.753 191.234C221.753 191.006 221.753 191.006 221.753 191.006C221.753 190.778 221.753 190.778 221.981 190.55L225.399 188.498C225.627 188.27 226.31 188.27 226.538 188.498L229.273 190.094C229.501 190.094 229.501 190.322 229.501 190.55C229.501 190.55 229.501 190.55 229.501 190.778C229.501 190.778 229.501 190.778 229.501 191.006C229.501 191.234 229.501 191.234 229.273 191.462L225.855 193.513C225.627 193.741 224.943 193.741 224.715 193.513L221.981 191.918C221.753 191.462 221.753 191.234 221.753 191.234ZM227.45 188.498L230.184 190.094C230.412 190.322 231.096 190.322 231.324 190.094L234.742 188.042C234.97 188.042 234.97 187.814 234.97 187.586C234.97 187.586 234.97 187.586 234.97 187.358C234.97 187.358 234.97 187.358 234.97 187.13C234.97 186.902 234.97 186.902 234.742 186.674L232.007 185.078C231.78 184.85 231.096 184.85 230.868 185.078L227.45 187.13C227.222 187.13 227.222 187.358 227.222 187.586C227.222 187.586 227.222 187.586 227.222 187.814C227.222 187.814 227.222 187.814 227.222 188.042C227.222 188.27 227.222 188.27 227.45 188.498ZM216.511 194.653L219.246 196.249C219.474 196.477 220.158 196.477 220.385 196.249L223.804 194.197C224.032 194.197 224.032 193.969 224.032 193.741C224.032 193.741 224.032 193.741 224.032 193.513C224.032 193.513 224.032 193.513 224.032 193.285C224.032 193.058 224.032 193.058 223.804 192.83L221.069 191.234C220.841 191.006 220.158 191.006 219.93 191.234L216.511 193.285C216.283 193.285 216.284 193.513 216.284 193.741C216.284 193.741 216.284 193.741 216.284 193.969C216.284 193.969 216.284 193.969 216.284 194.197C216.284 194.425 216.283 194.653 216.511 194.653ZM172.53 231.586L175.265 233.182C175.492 233.41 176.176 233.41 176.404 233.182L179.822 231.13C180.05 231.13 180.05 230.902 180.05 230.674C180.05 230.674 180.05 230.674 180.05 230.446C180.05 230.446 180.05 230.446 180.05 230.218C180.05 229.99 180.05 229.99 179.822 229.762L177.088 228.166C176.86 227.938 176.176 227.938 175.948 228.166L172.53 230.218C172.302 230.218 172.302 230.446 172.302 230.674C172.302 230.674 172.302 230.674 172.302 230.902C172.302 230.902 172.302 230.902 172.302 231.13C172.302 231.358 172.302 231.358 172.53 231.586ZM184.38 213.12L187.114 214.716C187.342 214.944 188.026 214.944 188.254 214.716L191.672 212.664C191.9 212.664 191.9 212.436 191.9 212.208C191.9 212.208 191.9 212.208 191.9 211.98C191.9 211.98 191.9 211.98 191.9 211.752C191.9 211.524 191.9 211.524 191.672 211.296L188.938 209.7C188.71 209.472 188.026 209.472 187.798 209.7L184.38 211.752C184.152 211.752 184.152 211.98 184.152 212.208C184.152 212.208 184.152 212.208 184.152 212.436C184.152 212.436 184.152 212.436 184.152 212.664C184.152 212.892 184.152 213.12 184.38 213.12ZM195.318 206.964L198.053 208.56C198.281 208.788 198.964 208.788 199.192 208.56L202.611 206.508C202.838 206.508 202.838 206.28 202.838 206.052C202.838 206.052 202.838 206.052 202.838 205.824C202.838 205.824 202.838 205.824 202.838 205.596C202.838 205.368 202.838 205.368 202.611 205.14L199.876 203.545C199.648 203.317 198.964 203.317 198.736 203.545L195.318 205.596C195.09 205.596 195.09 205.824 195.09 206.052C195.09 206.052 195.09 206.052 195.09 206.28C195.09 206.28 195.09 206.28 195.09 206.508C195.09 206.736 195.09 206.736 195.318 206.964ZM206.257 200.581L208.991 202.177C209.219 202.405 209.903 202.405 210.131 202.177L215.372 199.213C215.6 199.213 215.6 198.985 215.6 198.757C215.6 198.757 215.6 198.757 215.6 198.529C215.6 198.529 215.6 198.529 215.6 198.301C215.6 198.073 215.6 198.073 215.372 197.845L212.637 196.249C212.41 196.021 211.726 196.021 211.498 196.249L206.257 199.213C206.029 199.213 206.029 199.441 206.029 199.669C206.029 199.669 206.029 199.669 206.029 199.897C206.029 199.897 206.029 199.897 206.029 200.125C206.029 200.353 206.029 200.581 206.257 200.581ZM200.787 203.773L203.522 205.368C203.75 205.596 204.434 205.596 204.661 205.368L208.08 203.317C208.308 203.317 208.308 203.089 208.308 202.861C208.308 202.861 208.308 202.861 208.308 202.633C208.308 202.633 208.308 202.633 208.308 202.405C208.308 202.177 208.308 202.177 208.08 201.949L205.345 200.353C205.117 200.125 204.434 200.125 204.206 200.353L200.787 202.405C200.56 202.405 200.56 202.633 200.56 202.861C200.56 202.861 200.56 202.861 200.56 203.089C200.56 203.089 200.56 203.089 200.56 203.317C200.56 203.545 200.56 203.545 200.787 203.773ZM189.849 209.928L192.584 211.524C192.811 211.752 193.495 211.752 193.723 211.524L197.141 209.472C197.369 209.472 197.369 209.244 197.369 209.016C197.369 209.016 197.369 209.016 197.369 208.788C197.369 208.788 197.369 208.788 197.369 208.56C197.369 208.332 197.369 208.332 197.141 208.104L194.407 206.508C194.179 206.28 193.495 206.28 193.267 206.508L189.849 208.56C189.621 208.56 189.621 208.788 189.621 209.016C189.621 209.016 189.621 209.016 189.621 209.244C189.621 209.244 189.621 209.244 189.621 209.472C189.621 209.7 189.621 209.928 189.849 209.928ZM213.093 202.405L215.828 204.001C216.056 204.229 216.739 204.229 216.967 204.001L220.385 201.949C220.613 201.949 220.613 201.721 220.613 201.493C220.613 201.493 220.613 201.493 220.613 201.265C220.613 201.265 220.613 201.265 220.613 201.037C220.613 200.809 220.613 200.809 220.385 200.581L217.651 198.985C217.423 198.757 216.739 198.757 216.511 198.985L213.093 201.037C212.865 201.037 212.865 201.265 212.865 201.493C212.865 201.493 212.865 201.493 212.865 201.721C212.865 201.721 212.865 201.721 212.865 201.949C212.865 202.177 212.865 202.405 213.093 202.405ZM169.567 227.71L172.302 229.306C172.53 229.534 173.214 229.534 173.441 229.306L176.86 227.255C177.088 227.255 177.088 227.027 177.088 226.799C177.088 226.799 177.088 226.799 177.088 226.571C177.088 226.571 177.088 226.571 177.088 226.343C177.088 226.115 177.088 226.115 176.86 225.887L174.125 224.291C173.897 224.063 173.214 224.063 172.986 224.291L169.567 226.343C169.34 226.343 169.34 226.571 169.34 226.799C169.34 226.799 169.34 226.799 169.34 227.027C169.34 227.027 169.34 227.027 169.34 227.255C169.112 227.255 169.34 227.483 169.567 227.71ZM207.624 205.596L210.359 207.192C210.586 207.42 211.27 207.42 211.498 207.192L214.916 205.14C215.144 205.14 215.144 204.912 215.144 204.685C215.144 204.685 215.144 204.685 215.144 204.457C215.144 204.457 215.144 204.457 215.144 204.229C215.144 204.001 215.144 204.001 214.916 203.773L212.182 202.177C211.954 201.949 211.27 201.949 211.042 202.177L207.624 204.229C207.396 204.229 207.396 204.457 207.396 204.685C207.396 204.685 207.396 204.684 207.396 204.912C207.396 204.912 207.396 204.912 207.396 205.14C207.396 205.368 207.396 205.368 207.624 205.596ZM202.155 208.788L204.889 210.384C205.117 210.612 205.801 210.612 206.029 210.384L209.447 208.332C209.675 208.332 209.675 208.104 209.675 207.876C209.675 207.876 209.675 207.876 209.675 207.648C209.675 207.648 209.675 207.648 209.675 207.42C209.675 207.192 209.675 207.192 209.447 206.964L206.712 205.368C206.485 205.14 205.801 205.14 205.573 205.368L202.155 207.42C201.927 207.42 201.927 207.648 201.927 207.876C201.927 207.876 201.927 207.876 201.927 208.104C201.927 208.104 201.927 208.104 201.927 208.332C201.927 208.56 201.927 208.56 202.155 208.788ZM196.686 211.98L199.42 213.576C199.648 213.804 200.332 213.804 200.56 213.576L203.978 211.524C204.206 211.524 204.206 211.296 204.206 211.068C204.206 211.068 204.206 211.068 204.206 210.84C204.206 210.84 204.206 210.84 204.206 210.612C204.206 210.384 204.206 210.384 203.978 210.156L201.243 208.56C201.015 208.332 200.332 208.332 200.104 208.56L196.686 210.612C196.458 210.612 196.458 210.84 196.458 211.068C196.458 211.068 196.458 211.068 196.458 211.296C196.458 211.296 196.458 211.296 196.458 211.524C196.458 211.524 196.458 211.752 196.686 211.98ZM175.037 224.519L177.771 226.115C177.999 226.343 178.683 226.343 178.911 226.115L182.329 224.063C182.557 224.063 182.557 223.835 182.557 223.607C182.557 223.607 182.557 223.607 182.557 223.379C182.557 223.379 182.557 223.379 182.557 223.151C182.557 222.923 182.557 222.923 182.329 222.695L179.594 221.099C179.366 220.871 178.683 220.871 178.455 221.099L175.037 223.151C174.809 223.151 174.809 223.379 174.809 223.607C174.809 223.607 174.809 223.607 174.809 223.835C174.809 223.835 174.809 223.835 174.809 224.063C174.581 224.291 174.809 224.291 175.037 224.519ZM180.278 221.327L183.013 222.923C183.24 223.151 183.924 223.151 184.152 222.923L187.57 220.871C187.798 220.871 187.798 220.643 187.798 220.415C187.798 220.415 187.798 220.415 187.798 220.187C187.798 220.187 187.798 220.187 187.798 219.959C187.798 219.731 187.798 219.731 187.57 219.503C183.468 216.995 184.836 217.223 180.278 219.731C180.05 219.731 180.05 219.959 180.05 220.187C180.05 220.187 180.05 220.187 180.05 220.415C180.05 220.415 180.05 220.415 180.05 220.643C180.05 221.099 180.278 221.099 180.278 221.327ZM185.747 218.135L188.482 219.731C188.71 219.959 189.393 219.959 189.621 219.731L193.039 217.679C193.267 217.679 193.267 217.451 193.267 217.223C193.267 217.223 193.267 217.223 193.267 216.995C193.267 216.995 193.267 216.995 193.267 216.767C193.267 216.539 193.267 216.539 193.039 216.311L190.305 214.716C190.077 214.488 189.393 214.488 189.165 214.716L185.747 216.767C185.519 216.767 185.519 216.995 185.519 217.223C185.519 217.223 185.519 217.223 185.519 217.451C185.519 217.451 185.519 217.451 185.519 217.679C185.519 217.907 185.747 218.135 185.747 218.135ZM191.216 214.944C193.951 216.539 194.407 216.995 195.318 216.539L198.736 214.488C198.964 214.488 198.964 214.26 198.964 214.032C198.964 214.032 198.964 214.032 198.964 213.804C198.964 213.804 198.964 213.804 198.964 213.576C198.964 213.348 198.964 213.348 198.736 213.12L196.002 211.524C195.774 211.296 195.09 211.296 194.862 211.524L191.444 213.576C191.216 213.576 191.216 213.804 191.216 214.032C191.216 214.032 191.216 214.032 191.216 214.26C191.216 214.26 191.216 214.26 191.216 214.488C190.988 214.716 190.988 214.944 191.216 214.944ZM181.645 235.69C181.645 235.462 181.645 235.462 181.645 235.462C181.645 235.234 181.645 235.234 181.417 235.006L178.683 233.41C178.455 233.182 177.771 233.182 177.543 233.41L172.302 236.374C172.074 236.374 172.074 236.602 172.074 236.83C172.074 236.83 172.074 236.83 172.074 237.058C172.074 237.058 172.074 237.058 172.074 237.286C172.074 237.514 172.074 237.514 172.302 237.742L175.037 239.337C175.265 239.565 175.948 239.565 176.176 239.337L181.417 236.374C181.645 236.146 181.645 235.918 181.645 235.69ZM174.809 233.866C174.809 233.638 174.809 233.638 174.809 233.638C174.809 233.41 174.809 233.41 174.581 233.182L171.846 231.586C171.618 231.358 170.935 231.358 170.707 231.586L167.289 233.638C167.061 233.638 167.061 233.866 167.061 234.094C167.061 234.094 167.061 234.094 167.061 234.322C167.061 234.322 167.061 234.322 167.061 234.55C167.061 234.778 167.061 234.778 167.289 235.006L170.023 236.602C170.251 236.83 170.935 236.83 171.163 236.602L174.581 234.55C174.809 234.322 174.809 234.094 174.809 233.866ZM178.911 216.311C183.012 218.591 181.645 218.819 186.203 216.084C186.431 216.084 186.431 215.856 186.431 215.628C186.431 215.628 186.431 215.628 186.431 215.4C186.431 215.4 186.431 215.4 186.431 215.172C186.431 214.944 186.431 214.944 186.203 214.716L183.468 213.12C183.24 212.892 182.557 212.892 182.329 213.12L178.911 215.172C178.683 215.172 178.683 215.4 178.683 215.628C178.683 215.628 178.683 215.628 178.683 215.856C178.683 215.856 178.683 215.856 178.683 216.084L178.911 216.311ZM239.072 202.633C239.072 202.405 239.072 202.405 239.072 202.405C239.072 202.177 239.072 202.177 238.844 201.949L236.109 200.353C235.881 200.125 235.198 200.125 234.97 200.353L231.552 202.405C231.324 202.405 231.324 202.633 231.324 202.861C231.324 202.861 231.324 202.861 231.324 203.089C231.324 203.089 231.324 203.089 231.324 203.317C231.324 203.545 231.324 203.545 231.552 203.773L234.286 205.368C234.514 205.596 235.198 205.596 235.426 205.368L238.844 203.317C239.072 202.861 239.072 202.861 239.072 202.633ZM171.618 229.99C171.618 229.762 171.618 229.762 171.618 229.762C171.618 229.534 171.618 229.534 171.39 229.306L168.656 227.71C168.428 227.483 167.744 227.483 167.516 227.71L162.275 230.674C162.047 230.674 162.047 230.902 162.047 231.13C162.047 231.13 162.047 231.13 162.047 231.358C162.047 231.358 162.047 231.358 162.047 231.586C162.047 231.814 162.047 231.814 162.275 232.042L165.01 233.638C165.238 233.866 165.921 233.866 166.149 233.638L171.39 230.674C171.618 230.446 171.618 230.218 171.618 229.99ZM173.441 219.503L176.176 221.099C176.404 221.327 177.088 221.327 177.315 221.099L180.734 219.047C180.962 219.047 180.962 218.819 180.962 218.591C180.962 218.591 180.962 218.591 180.962 218.363C180.962 218.363 180.962 218.363 180.962 218.135C180.962 217.907 180.962 217.907 180.734 217.679L177.999 216.084C177.771 215.856 177.088 215.856 176.86 216.084L173.441 218.135C173.214 218.135 173.214 218.363 173.214 218.591C173.214 218.591 173.214 218.591 173.214 218.819C173.214 218.819 173.214 218.819 173.214 219.047C173.214 219.275 173.441 219.275 173.441 219.503ZM168.2 222.695L170.935 224.291C171.163 224.519 171.846 224.519 172.074 224.291L175.492 222.239C175.72 222.239 175.72 222.011 175.72 221.783C175.72 221.783 175.72 221.783 175.72 221.555C175.72 221.555 175.72 221.555 175.72 221.327C175.72 221.099 175.72 221.099 175.492 220.871L172.758 219.275C172.53 219.047 171.846 219.047 171.618 219.275L168.2 221.327C167.972 221.327 167.972 221.555 167.972 221.783C167.972 221.783 167.972 221.783 167.972 222.011C167.972 222.011 167.972 222.011 167.972 222.239C167.744 222.467 167.972 222.467 168.2 222.695ZM164.782 228.166C164.782 227.938 164.782 227.938 164.782 227.938C164.782 227.71 164.782 227.71 164.554 227.483L161.819 225.887C161.591 225.659 160.908 225.659 160.68 225.887L157.262 227.938C157.034 227.938 157.034 228.166 157.034 228.394C157.034 228.394 157.034 228.394 157.034 228.622C157.034 228.622 157.034 228.622 157.034 228.85C157.034 229.078 157.034 229.078 157.262 229.306L159.996 230.902C160.224 231.13 160.908 231.13 161.136 230.902L164.554 228.85C164.782 228.622 164.782 228.394 164.782 228.166ZM162.731 225.887L165.465 227.483C165.693 227.71 166.377 227.71 166.605 227.483L170.023 225.431C170.251 225.431 170.251 225.203 170.251 224.975C170.251 224.975 170.251 224.975 170.251 224.747C170.251 224.747 170.251 224.747 170.251 224.519C170.251 224.291 170.251 224.291 170.023 224.063L167.289 222.467C167.061 222.239 166.377 222.239 166.149 222.467L162.731 224.519C162.503 224.519 162.503 224.747 162.503 224.975C162.503 224.975 162.503 224.975 162.503 225.203C162.503 225.203 162.503 225.203 162.503 225.431C162.503 225.431 162.503 225.659 162.731 225.887ZM255.024 198.985C255.024 198.757 255.024 198.757 254.796 198.529L252.061 196.933C251.833 196.705 251.15 196.705 250.922 196.933L247.504 198.985C247.276 198.985 247.276 199.213 247.276 199.441C247.276 199.441 247.276 199.441 247.276 199.669C247.276 199.669 247.276 199.669 247.276 199.897C247.276 200.125 247.276 200.125 247.504 200.353L250.238 201.949C250.466 202.177 251.15 202.177 251.378 201.949L254.796 199.897C255.024 199.897 255.024 199.669 255.024 199.441C255.024 199.213 255.024 199.213 255.024 198.985ZM235.198 193.741L231.552 191.69C231.096 191.462 230.412 191.462 230.184 191.69L221.525 196.705C221.297 196.933 221.297 196.933 221.297 197.161C221.297 197.161 221.297 197.161 221.297 197.389C221.297 197.389 221.297 197.389 221.297 197.617C221.297 197.845 221.297 198.073 221.525 198.073L229.045 202.405C229.501 202.633 230.184 202.633 230.412 202.405L244.541 194.197C244.769 193.969 244.769 193.969 244.769 193.741C244.769 193.741 244.769 193.741 244.769 193.513C244.769 193.513 244.769 193.513 244.769 193.285C244.769 193.058 244.769 192.83 244.541 192.83L241.806 191.234C241.579 191.006 241.123 191.006 240.895 191.234L236.109 193.969C235.881 193.741 235.426 193.741 235.198 193.741ZM230.412 206.736L227.678 205.14C227.45 204.912 226.766 204.912 226.538 205.14L223.12 207.192C222.892 207.192 222.892 207.42 222.892 207.648C222.892 207.648 222.892 207.648 222.892 207.876C222.892 207.876 222.892 207.876 222.892 208.104C222.892 208.332 222.892 208.332 223.12 208.56L225.855 210.156C226.082 210.384 226.766 210.384 226.994 210.156L230.412 208.104C230.64 208.104 230.64 207.876 230.64 207.648C230.64 207.648 230.64 207.648 230.64 207.42C230.64 207.42 230.64 207.42 230.64 207.192C230.64 206.964 230.64 206.964 230.412 206.736ZM244.313 198.757L241.579 197.161C241.351 196.933 240.667 196.933 240.439 197.161L237.021 199.213C236.793 199.213 236.793 199.441 236.793 199.669C236.793 199.669 236.793 199.669 236.793 199.897C236.793 199.897 236.793 199.897 236.793 200.125C236.793 200.353 236.793 200.353 237.021 200.581L239.756 202.177C239.983 202.405 240.667 202.405 240.895 202.177L244.313 200.125C244.541 200.125 244.541 199.897 244.541 199.669C244.541 199.669 244.541 199.669 244.541 199.441C244.541 199.441 244.541 199.441 244.541 199.213C244.541 198.985 244.541 198.985 244.313 198.757ZM219.474 213.12L216.739 211.524C216.511 211.296 215.828 211.296 215.6 211.524L212.182 213.576C211.954 213.576 211.954 213.804 211.954 214.032C211.954 214.032 211.954 214.032 211.954 214.26C211.954 214.26 211.954 214.26 211.954 214.488C211.954 214.716 211.954 214.716 212.182 214.944L214.916 216.539C215.144 216.767 215.828 216.767 216.056 216.539L219.474 214.488C219.702 214.488 219.702 214.26 219.702 214.032C219.702 214.032 219.702 214.032 219.702 213.804C219.702 213.804 219.702 213.804 219.702 213.576C219.702 213.348 219.702 213.12 219.474 213.12ZM242.034 196.477C242.034 196.705 242.034 196.705 242.034 196.705C242.034 196.933 242.034 196.933 242.262 197.161L244.997 198.757C245.225 198.985 245.908 198.985 246.136 198.757L249.554 196.705C249.782 196.705 249.782 196.477 249.782 196.249C249.782 196.249 249.782 196.249 249.782 196.021C249.782 196.021 249.782 196.021 249.782 195.793C249.782 195.565 249.782 195.565 249.554 195.337L246.82 193.741C246.592 193.513 245.908 193.513 245.68 193.741L242.262 195.793C242.034 196.021 242.034 196.249 242.034 196.477ZM197.597 225.659L194.862 224.063C194.635 223.835 193.951 223.835 193.723 224.063L190.305 226.115C190.077 226.115 190.077 226.343 190.077 226.571C190.077 226.571 190.077 226.571 190.077 226.799C190.077 226.799 190.077 226.799 190.077 227.027C190.077 227.255 190.077 227.255 190.305 227.483L193.039 229.078C193.267 229.306 193.951 229.306 194.179 229.078L197.597 227.027C197.825 227.027 197.825 226.799 197.825 226.571C197.825 226.571 197.825 226.571 197.825 226.343C197.825 226.343 197.825 226.343 197.825 226.115C198.053 225.887 197.825 225.887 197.597 225.659ZM208.535 219.503L205.801 217.907C205.573 217.679 204.889 217.679 204.661 217.907L201.243 219.959C201.015 219.959 201.015 220.187 201.015 220.415C201.015 220.415 201.015 220.415 201.015 220.643C201.015 220.643 201.015 220.643 201.015 220.871C201.015 221.099 201.015 221.099 201.243 221.327L203.978 222.923C204.206 223.151 204.889 223.151 205.117 222.923L208.535 220.871C208.763 220.871 208.763 220.643 208.763 220.415C208.763 220.415 208.763 220.415 208.763 220.187C208.763 220.187 208.763 220.187 208.763 219.959C208.763 219.731 208.763 219.503 208.535 219.503ZM203.066 222.467L200.332 220.871C200.104 220.643 199.42 220.643 199.192 220.871L195.774 222.923C195.546 222.923 195.546 223.151 195.546 223.379C195.546 223.379 195.546 223.379 195.546 223.607C195.546 223.607 195.546 223.607 195.546 223.835C195.546 224.063 195.546 224.063 195.774 224.291L198.509 225.887C198.736 226.115 199.42 226.115 199.648 225.887L203.066 223.835C203.294 223.835 203.294 223.607 203.294 223.379C203.294 223.379 203.294 223.379 203.294 223.151C203.294 223.151 203.294 223.151 203.294 222.923C203.294 222.923 203.294 222.695 203.066 222.467ZM192.356 228.85L189.621 227.255C189.393 227.027 188.71 227.027 188.482 227.255L185.063 229.306C184.836 229.306 184.836 229.534 184.836 229.762C184.836 229.762 184.836 229.762 184.836 229.99C184.836 229.99 184.836 229.99 184.836 230.218C184.836 230.446 184.836 230.446 185.063 230.674L187.798 232.27C188.026 232.498 188.71 232.498 188.938 232.27L192.356 230.218C192.584 230.218 192.584 229.99 192.584 229.762C192.584 229.762 192.584 229.762 192.584 229.534C192.584 229.534 192.584 229.534 192.584 229.306C192.584 229.078 192.356 228.85 192.356 228.85ZM186.887 232.042L184.152 230.446C183.924 230.218 183.24 230.218 183.013 230.446L179.594 232.498C179.366 232.498 179.366 232.726 179.366 232.954C179.366 232.954 179.366 232.954 179.366 233.182C179.366 233.182 179.366 233.182 179.366 233.41C179.366 233.638 179.366 233.638 179.594 233.866L182.329 235.462C182.557 235.69 183.24 235.69 183.468 235.462L186.887 233.41C187.114 233.41 187.114 233.182 187.114 232.954C187.114 232.954 187.114 232.954 187.114 232.726C187.114 232.726 187.114 232.726 187.114 232.498C187.114 232.27 186.887 232.042 186.887 232.042ZM214.005 216.311L211.27 214.716C211.042 214.488 210.359 214.488 210.131 214.716L206.712 216.767C206.485 216.767 206.485 216.995 206.485 217.223C206.485 217.223 206.485 217.223 206.485 217.451C206.485 217.451 206.485 217.451 206.485 217.679C206.485 217.907 206.485 217.907 206.712 218.135L209.447 219.731C209.675 219.959 210.359 219.959 210.586 219.731L214.005 217.679C214.233 217.679 214.233 217.451 214.233 217.223C214.233 217.223 214.233 217.223 214.233 216.995C214.233 216.995 214.233 216.995 214.233 216.767C214.233 216.539 214.233 216.311 214.005 216.311ZM224.943 209.928L222.208 208.332C221.981 208.104 221.297 208.104 221.069 208.332L217.651 210.384C217.423 210.384 217.423 210.612 217.423 210.84C217.423 210.84 217.423 210.84 217.423 211.068C217.423 211.068 217.423 211.068 217.423 211.296C217.423 211.524 217.423 211.524 217.651 211.752L220.385 212.892C220.613 213.12 221.297 213.12 221.525 212.892L224.943 210.84C225.171 210.84 225.171 210.612 225.171 210.384C225.171 210.384 225.171 210.384 225.171 210.156C225.171 210.156 225.171 210.156 225.171 209.928C225.171 210.156 225.171 210.156 224.943 209.928ZM195.318 232.726L192.584 231.13C192.356 230.902 191.672 230.902 191.444 231.13L188.026 233.182C187.798 233.182 187.798 233.41 187.798 233.638C187.798 233.638 187.798 233.638 187.798 233.866C187.798 233.866 187.798 233.866 187.798 234.094C187.798 234.322 187.798 234.322 188.026 234.55L190.761 236.146C190.988 236.374 191.672 236.374 191.9 236.146L195.318 234.094C195.546 234.094 195.546 233.866 195.546 233.638C195.546 233.638 195.546 233.638 195.546 233.41C195.546 233.41 195.546 233.41 195.546 233.182C195.546 232.954 195.546 232.726 195.318 232.726ZM200.787 229.534L198.053 227.938C197.825 227.71 197.141 227.71 196.913 227.938L193.495 229.99C193.267 229.99 193.267 230.218 193.267 230.446C193.267 230.446 193.267 230.446 193.267 230.674C193.267 230.674 193.267 230.674 193.267 230.902C193.267 231.13 193.267 231.13 193.495 231.358L196.23 232.954C196.458 233.182 197.141 233.182 197.369 232.954L200.787 230.902C201.015 230.902 201.015 230.674 201.015 230.446C201.015 230.446 201.015 230.446 201.015 230.218C201.015 230.218 201.015 230.218 201.015 229.99C201.015 229.762 201.015 229.762 200.787 229.534ZM189.849 235.918L187.114 234.322C186.887 234.094 186.203 234.094 185.975 234.322L182.557 236.374C182.329 236.374 182.329 236.602 182.329 236.83C182.329 236.83 182.329 236.83 182.329 237.058C182.329 237.058 182.329 237.058 182.329 237.286C182.329 237.514 182.329 237.514 182.557 237.742L185.291 239.337C185.519 239.565 186.203 239.565 186.431 239.337L189.849 237.286C190.077 237.286 190.077 237.058 190.077 236.83C190.077 236.83 190.077 236.83 190.077 236.602C190.077 236.602 190.077 236.602 190.077 236.374C190.077 236.146 190.077 235.918 189.849 235.918ZM184.38 239.11L181.645 237.514C181.417 237.286 180.734 237.286 180.506 237.514L177.088 239.565C176.86 239.565 176.86 239.793 176.86 240.021C176.86 240.021 176.86 240.021 176.86 240.249C176.86 240.249 176.86 240.249 176.86 240.477C176.86 240.705 176.86 240.705 177.088 240.933L179.822 242.529C180.05 242.757 180.734 242.757 180.962 242.529L184.38 240.477C184.608 240.477 184.608 240.249 184.608 240.021C184.608 240.021 184.608 240.021 184.608 239.793C184.608 239.793 184.608 239.793 184.608 239.565C184.608 239.337 184.608 239.11 184.38 239.11ZM225.399 204.001L222.664 202.405C222.436 202.177 221.753 202.177 221.525 202.405L216.284 205.368C216.056 205.368 216.056 205.596 216.056 205.824C216.056 205.824 216.056 205.824 216.056 206.052C216.056 206.052 216.056 206.052 216.056 206.28C216.056 206.508 216.056 206.508 216.284 206.736L219.018 208.332C219.246 208.56 219.93 208.56 220.158 208.332L225.399 205.368C225.627 205.368 225.627 205.14 225.627 204.912C225.627 204.912 225.627 204.912 225.627 204.685C225.627 204.685 225.627 204.685 225.627 204.457C225.627 204.229 225.627 204.001 225.399 204.001ZM235.198 209.7L232.463 208.104C232.235 207.876 231.552 207.876 231.324 208.104L226.082 211.068C225.855 211.068 225.855 211.296 225.855 211.524C225.855 211.524 225.855 211.524 225.855 211.752C225.855 211.752 225.855 211.752 225.855 211.98C225.855 212.208 225.855 212.208 226.082 212.436L228.817 214.032C229.045 214.26 229.729 214.26 229.957 214.032L235.198 211.068C235.426 211.068 235.426 210.84 235.426 210.612C235.426 210.612 235.426 210.612 235.426 210.384C235.426 210.384 235.426 210.384 235.426 210.156C235.426 209.928 235.426 209.7 235.198 209.7ZM249.327 201.721L246.592 200.125C246.364 199.897 245.68 199.897 245.453 200.125L242.034 202.177C241.806 202.177 241.806 202.405 241.806 202.633C241.806 202.633 241.806 202.633 241.806 202.861C241.806 202.861 241.806 202.861 241.806 203.089C241.806 203.317 241.806 203.317 242.034 203.545L244.769 205.14C244.997 205.368 245.68 205.368 245.908 205.14L249.327 203.089C249.555 203.089 249.554 202.861 249.554 202.633C249.554 202.633 249.554 202.633 249.554 202.405C249.554 202.405 249.554 202.405 249.554 202.177C249.554 201.949 249.555 201.721 249.327 201.721ZM243.857 204.912L241.123 203.317C240.895 203.089 240.211 203.089 239.983 203.317L236.565 205.368C236.337 205.368 236.337 205.596 236.337 205.824C236.337 205.824 236.337 205.824 236.337 206.052C236.337 206.052 236.337 206.052 236.337 206.28C236.337 206.508 236.337 206.508 236.565 206.736L239.3 208.332C239.528 208.56 240.211 208.56 240.439 208.332L243.857 206.28C244.085 206.28 244.085 206.052 244.085 205.824C244.085 205.824 244.085 205.824 244.085 205.596C244.085 205.596 244.085 205.596 244.085 205.368C244.085 205.14 244.085 204.912 243.857 204.912ZM228.133 213.804L225.399 212.208C225.171 211.98 224.487 211.98 224.259 212.208L198.964 226.799C198.736 226.799 198.736 227.027 198.736 227.255C198.736 227.255 198.736 227.255 198.736 227.483C198.736 227.483 198.736 227.483 198.736 227.71C198.736 227.938 198.736 227.938 198.964 228.166L201.699 229.762C201.927 229.99 202.61 229.99 202.838 229.762L228.133 215.172C228.361 215.172 228.361 214.944 228.361 214.716C228.361 214.716 228.361 214.716 228.361 214.488C228.361 214.488 228.361 214.488 228.361 214.26C228.361 214.032 228.361 214.032 228.133 213.804ZM207.168 214.488L204.434 212.892C204.206 212.664 203.522 212.664 203.294 212.892L199.876 214.944C199.648 214.944 199.648 215.172 199.648 215.4C199.648 215.4 199.648 215.4 199.648 215.628C199.648 215.628 199.648 215.628 199.648 215.856C199.648 216.084 199.648 216.084 199.876 216.311L202.611 217.907C202.838 218.135 203.522 218.135 203.75 217.907L207.168 215.856C207.396 215.856 207.396 215.628 207.396 215.4C207.396 215.4 207.396 215.4 207.396 215.172C207.396 215.172 207.396 215.172 207.396 214.944C207.396 214.716 207.396 214.488 207.168 214.488ZM201.699 217.679L198.964 216.084C198.736 215.856 198.053 215.856 197.825 216.084L194.407 218.135C194.179 218.135 194.179 218.363 194.179 218.591C194.179 218.591 194.179 218.591 194.179 218.819C194.179 218.819 194.179 218.819 194.179 219.047C194.179 219.275 194.179 219.275 194.407 219.503L197.141 221.099C197.369 221.327 198.053 221.327 198.281 221.099L201.699 219.047C201.927 219.047 201.927 218.819 201.927 218.591C201.927 218.591 201.927 218.591 201.927 218.363C201.927 218.363 201.927 218.363 201.927 218.135C201.927 217.907 201.927 217.679 201.699 217.679ZM212.637 211.296L209.903 209.7C209.675 209.472 208.991 209.472 208.763 209.7L205.345 211.752C205.117 211.752 205.117 211.98 205.117 212.208C205.117 212.208 205.117 212.208 205.117 212.436C205.117 212.436 205.117 212.436 205.117 212.664C205.117 212.892 205.117 212.892 205.345 213.12L208.08 214.716C208.308 214.944 208.991 214.944 209.219 214.716L212.637 212.664C212.865 212.664 212.865 212.436 212.865 212.208C212.865 212.208 212.865 212.208 212.865 211.98C212.865 211.98 212.865 211.98 212.865 211.752C212.865 211.524 212.865 211.296 212.637 211.296ZM232.235 190.55C232.235 190.778 232.235 190.778 232.235 190.55C232.235 190.778 232.235 190.778 232.235 190.778C232.235 191.006 232.235 191.006 232.463 191.234L235.198 192.83C235.426 193.058 236.109 193.058 236.337 192.83L239.756 190.778C239.983 190.778 239.983 190.55 239.983 190.322C239.983 190.322 239.983 190.322 239.983 190.094C239.983 190.094 239.983 190.094 239.983 189.866C239.983 189.638 239.983 189.638 239.756 189.41L237.021 187.814C236.793 187.586 236.109 187.586 235.881 187.814L232.463 189.866C232.235 190.322 232.007 190.55 232.235 190.55ZM218.107 208.104L215.372 206.508C215.144 206.28 214.46 206.28 214.233 206.508L210.814 208.56C210.586 208.56 210.586 208.788 210.586 209.016C210.586 209.016 210.586 209.016 210.586 209.244C210.586 209.244 210.586 209.244 210.586 209.472C210.586 209.7 210.586 209.7 210.814 209.928L213.549 211.524C213.777 211.752 214.46 211.752 214.688 211.524L218.107 209.472C218.334 209.472 218.334 209.244 218.334 209.016C218.334 209.016 218.334 209.016 218.334 208.788C218.334 208.788 218.334 208.788 218.334 208.56C218.334 208.332 218.334 208.332 218.107 208.104ZM196.23 220.643L193.495 219.047C193.267 218.819 192.584 218.819 192.356 219.047L188.938 221.099C188.71 221.099 188.71 221.327 188.71 221.555C188.71 221.555 188.71 221.555 188.71 221.783C188.71 221.783 188.71 221.783 188.71 222.011C188.71 222.239 188.71 222.239 188.938 222.467L191.672 224.063C191.9 224.291 192.584 224.291 192.812 224.063L196.23 222.011C196.458 222.011 196.458 221.783 196.458 221.555C196.458 221.555 196.458 221.555 196.458 221.327C196.458 221.327 196.458 221.327 196.458 221.099C196.458 220.871 196.458 220.871 196.23 220.643ZM185.519 227.027L182.785 225.431C182.557 225.203 181.873 225.203 181.645 225.431L178.227 227.483C177.999 227.483 177.999 227.71 177.999 227.938C177.999 227.938 177.999 227.938 177.999 228.166C177.999 228.166 177.999 228.166 177.999 228.394C177.999 228.622 177.999 228.622 178.227 228.85L180.962 230.446C181.189 230.674 181.873 230.674 182.101 230.446L185.519 228.394C185.747 228.394 185.747 228.166 185.747 227.938C185.747 227.938 185.747 227.938 185.747 227.71C185.747 227.71 185.747 227.71 185.747 227.483C185.747 227.255 185.519 227.027 185.519 227.027ZM190.761 223.835L188.026 222.239C187.798 222.011 187.114 222.011 186.887 222.239L183.468 224.291C183.24 224.291 183.24 224.519 183.24 224.747C183.24 224.747 183.24 224.747 183.24 224.975C183.24 224.975 183.24 224.975 183.24 225.203C183.24 225.431 183.24 225.431 183.468 225.659L186.203 227.255C186.431 227.483 187.114 227.483 187.342 227.255L190.761 225.203C190.988 225.203 190.988 224.975 190.988 224.747C190.988 224.747 190.988 224.747 190.988 224.519C190.988 224.519 190.988 224.519 190.988 224.291C191.216 224.063 190.988 224.063 190.761 223.835Z" fill="#D2D1CE"/>
<path d="M164.556 228.167L161.137 230.219C160.91 230.447 160.226 230.447 159.998 230.219L157.263 228.623C157.036 228.395 157.036 228.167 157.263 227.939L160.682 225.887C160.91 225.659 161.593 225.659 161.821 225.887L164.556 227.483C165.012 227.711 165.012 227.939 164.556 228.167ZM170.025 224.291L167.29 222.695C167.062 222.467 166.379 222.467 166.151 222.695L162.733 224.747C162.505 224.975 162.505 225.203 162.733 225.431L165.467 227.027C165.695 227.255 166.379 227.255 166.607 227.027L170.025 224.975C170.481 224.747 170.481 224.519 170.025 224.291ZM175.494 221.1L172.76 219.504C172.532 219.276 171.848 219.276 171.62 219.504L168.202 221.556C167.974 221.784 167.974 222.012 168.202 222.24L170.936 223.835C171.164 224.063 171.848 224.063 172.076 223.835L175.494 221.784C175.722 221.556 175.722 221.328 175.494 221.1ZM180.963 217.908L178.229 216.312C178.001 216.084 177.317 216.084 177.089 216.312L173.671 218.364C173.443 218.592 173.443 218.82 173.671 219.048L176.406 220.644C176.634 220.872 177.317 220.872 177.545 220.644L180.963 218.592C181.191 218.592 181.191 218.136 180.963 217.908ZM186.433 214.944L183.698 213.348C183.47 213.12 182.786 213.12 182.559 213.348L179.14 215.4C178.912 215.628 178.912 215.856 179.14 216.084L181.875 217.68C182.103 217.908 182.786 217.908 183.014 217.68L186.433 215.628C186.66 215.4 186.66 214.944 186.433 214.944ZM191.902 211.752L189.167 210.157C188.939 209.929 188.256 209.929 188.028 210.157L184.609 212.208C184.382 212.436 184.382 212.664 184.609 212.892L187.344 214.488C187.572 214.716 188.256 214.716 188.483 214.488L191.902 212.436C192.13 212.208 192.13 211.98 191.902 211.752ZM197.371 208.561L194.636 206.965C194.409 206.737 193.725 206.737 193.497 206.965L190.079 209.017C189.851 209.245 189.851 209.473 190.079 209.701L192.813 211.296C193.041 211.524 193.725 211.524 193.953 211.296L197.371 209.245C197.599 209.017 197.599 208.789 197.371 208.561ZM202.84 205.369L199.878 203.773C199.65 203.545 198.966 203.545 198.738 203.773L195.32 205.825C195.092 206.053 195.092 206.281 195.32 206.509L198.055 208.105C198.283 208.333 198.966 208.333 199.194 208.105L202.612 206.053C203.068 205.825 203.068 205.597 202.84 205.369ZM208.309 202.177L205.575 200.581C205.347 200.353 204.663 200.353 204.435 200.581L201.017 202.633C200.789 202.861 200.789 203.089 201.017 203.317L203.752 204.913C203.98 205.141 204.663 205.141 204.891 204.913L208.309 202.861C208.537 202.861 208.537 202.405 208.309 202.177ZM215.374 198.074L212.639 196.478C212.411 196.25 211.728 196.25 211.5 196.478L206.258 199.441C206.03 199.669 206.03 199.897 206.258 200.125L208.993 201.721C209.221 201.949 209.905 201.949 210.132 201.721L215.374 198.758C215.829 198.53 215.829 198.302 215.374 198.074ZM238.846 201.949L236.111 200.353C235.883 200.125 235.2 200.125 234.972 200.353L231.553 202.405C231.326 202.633 231.326 202.861 231.553 203.089L234.288 204.685C234.516 204.913 235.2 204.913 235.428 204.685L238.846 202.633C239.074 202.405 239.074 201.949 238.846 201.949ZM244.315 198.758L241.58 197.162C241.352 196.934 240.669 196.934 240.441 197.162L237.023 199.214C236.795 199.441 236.795 199.669 237.023 199.897L239.757 201.493C239.985 201.721 240.669 201.721 240.897 201.493L244.315 199.441C244.543 199.214 244.543 198.986 244.315 198.758ZM249.784 195.566L247.05 193.97C246.822 193.742 246.138 193.742 245.91 193.97L242.492 196.022C242.264 196.25 242.264 196.478 242.492 196.706L245.226 198.302C245.454 198.53 246.138 198.53 246.366 198.302L249.784 196.25C250.012 196.022 250.012 195.794 249.784 195.566ZM243.859 204.685L241.125 203.089C240.897 202.861 240.213 202.861 239.985 203.089L236.567 205.141C236.339 205.369 236.339 205.597 236.567 205.825L239.301 207.421C239.529 207.649 240.213 207.649 240.441 207.421L243.859 205.369C244.087 205.141 244.087 204.913 243.859 204.685ZM249.328 201.493L246.594 199.897C246.366 199.669 245.682 199.669 245.454 199.897L242.036 201.949C241.808 202.177 241.808 202.405 242.036 202.633L244.771 204.229C244.999 204.457 245.682 204.457 245.91 204.229L249.328 202.177C249.556 202.177 249.556 201.721 249.328 201.493ZM254.798 198.53L252.063 196.934C251.835 196.706 251.151 196.706 250.924 196.934L247.505 198.986C247.277 199.214 247.277 199.441 247.505 199.669L250.24 201.265C250.468 201.493 251.151 201.493 251.379 201.265L254.798 199.214C255.025 198.986 255.025 198.53 254.798 198.53ZM171.392 229.307L168.658 227.711C168.43 227.483 167.746 227.483 167.518 227.711L162.277 230.675C162.049 230.903 162.049 231.131 162.277 231.359L165.012 232.955C165.239 233.183 165.923 233.183 166.151 232.955L171.392 229.991C171.848 229.763 171.848 229.535 171.392 229.307ZM176.861 226.115L174.127 224.519C173.899 224.291 173.215 224.291 172.987 224.519L169.569 226.571C169.341 226.799 169.341 227.027 169.569 227.255L172.304 228.851C172.532 229.079 173.215 229.079 173.443 228.851L176.861 226.799C177.317 226.571 177.317 226.343 176.861 226.115ZM182.331 222.923L179.596 221.328C179.368 221.1 178.685 221.1 178.457 221.328L175.038 223.379C174.811 223.607 174.811 223.835 175.038 224.063L177.773 225.659C178.001 225.887 178.684 225.887 178.912 225.659L182.331 223.607C182.559 223.379 182.559 223.151 182.331 222.923ZM187.8 219.732L185.065 218.136C184.837 217.908 184.154 217.908 183.926 218.136L180.508 220.188C180.28 220.416 180.28 220.644 180.508 220.872L183.242 222.467C183.47 222.695 184.154 222.695 184.382 222.467L187.8 220.416C188.028 220.416 188.028 219.96 187.8 219.732ZM193.269 216.768L190.534 215.172C190.307 214.944 189.623 214.944 189.395 215.172L185.977 217.224C185.749 217.452 185.749 217.68 185.977 217.908L188.711 219.504C188.939 219.732 189.623 219.732 189.851 219.504L193.269 217.452C193.497 217.224 193.497 216.768 193.269 216.768ZM198.738 213.576L196.004 211.98C195.776 211.752 195.092 211.752 194.864 211.98L191.446 214.032C191.218 214.26 191.218 214.488 191.446 214.716L194.181 216.312C194.408 216.54 195.092 216.54 195.32 216.312L198.738 214.26C198.966 214.032 198.966 213.804 198.738 213.576ZM204.207 210.385L201.473 208.789C201.245 208.561 200.561 208.561 200.333 208.789L196.915 210.84C196.687 211.068 196.687 211.296 196.915 211.524L199.65 213.12C199.878 213.348 200.561 213.348 200.789 213.12L204.207 211.068C204.435 210.84 204.435 210.613 204.207 210.385ZM209.677 207.193L206.942 205.597C206.714 205.369 206.031 205.369 205.803 205.597L202.384 207.649C202.157 207.877 202.157 208.105 202.384 208.333L205.119 209.929C205.347 210.157 206.03 210.157 206.258 209.929L209.677 207.877C209.905 207.649 209.905 207.421 209.677 207.193ZM215.146 204.001L212.411 202.405C212.183 202.177 211.5 202.177 211.272 202.405L207.854 204.457C207.626 204.685 207.626 204.913 207.854 205.141L210.588 206.737C210.816 206.965 211.5 206.965 211.728 206.737L215.146 204.685C215.374 204.685 215.374 204.229 215.146 204.001ZM220.615 201.037L217.88 199.441C217.653 199.214 216.969 199.214 216.741 199.441L213.323 201.493C213.095 201.721 213.095 201.949 213.323 202.177L216.057 203.773C216.285 204.001 216.969 204.001 217.197 203.773L220.615 201.721C220.843 201.493 220.843 201.037 220.615 201.037ZM174.583 233.183L171.848 231.587C171.62 231.359 170.937 231.359 170.709 231.587L167.29 233.639C167.062 233.866 167.062 234.094 167.29 234.322L170.025 235.918C170.253 236.146 170.936 236.146 171.164 235.918L174.583 233.866C174.81 233.639 174.81 233.411 174.583 233.183ZM180.052 229.991L177.317 228.395C177.089 228.167 176.406 228.167 176.178 228.395L172.76 230.447C172.532 230.675 172.532 230.903 172.76 231.131L175.494 232.727C175.722 232.955 176.406 232.955 176.634 232.727L180.052 230.675C180.28 230.447 180.28 230.219 180.052 229.991ZM185.521 226.799L182.786 225.203C182.559 224.975 181.875 224.975 181.647 225.203L178.229 227.255C178.001 227.483 178.001 227.711 178.229 227.939L180.963 229.535C181.191 229.763 181.875 229.763 182.103 229.535L185.521 227.483C185.749 227.255 185.749 227.027 185.521 226.799ZM190.762 223.607L188.028 222.012C187.8 221.784 187.116 221.784 186.888 222.012L183.47 224.063C183.242 224.291 183.242 224.519 183.47 224.747L186.205 226.343C186.433 226.571 187.116 226.571 187.344 226.343L190.762 224.291C191.218 224.291 191.218 223.835 190.762 223.607ZM184.382 238.882L181.647 237.286C181.419 237.058 180.735 237.058 180.508 237.286L177.089 239.338C176.861 239.566 176.861 239.794 177.089 240.022L179.824 241.618C180.052 241.846 180.735 241.846 180.963 241.618L184.382 239.566C184.61 239.338 184.61 239.11 184.382 238.882ZM189.851 235.69L187.116 234.094C186.888 233.867 186.205 233.867 185.977 234.094L182.559 236.146C182.331 236.374 182.331 236.602 182.559 236.83L185.293 238.426C185.521 238.654 186.205 238.654 186.433 238.426L189.851 236.374C190.079 236.146 190.079 235.918 189.851 235.69ZM195.32 232.499L192.585 230.903C192.357 230.675 191.674 230.675 191.446 230.903L188.028 232.955C187.8 233.183 187.8 233.411 188.028 233.639L190.762 235.234C190.99 235.462 191.674 235.462 191.902 235.234L195.32 233.183C195.548 233.183 195.548 232.727 195.32 232.499ZM200.789 229.535L198.055 227.939C197.827 227.711 197.143 227.711 196.915 227.939L193.497 229.991C193.269 230.219 193.269 230.447 193.497 230.675L196.232 232.271C196.459 232.499 197.143 232.499 197.371 232.271L200.789 230.219C201.017 229.991 201.017 229.535 200.789 229.535ZM235.2 209.473L232.465 207.877C232.237 207.649 231.553 207.649 231.326 207.877L226.084 210.84C225.856 211.068 225.856 211.296 226.084 211.524L228.819 213.12C229.047 213.348 229.73 213.348 229.958 213.12L235.2 210.157C235.427 209.929 235.427 209.701 235.2 209.473ZM196.232 220.644L193.497 219.048C193.269 218.82 192.585 218.82 192.358 219.048L188.939 221.1C188.711 221.328 188.711 221.556 188.939 221.784L191.674 223.379C191.902 223.607 192.585 223.607 192.813 223.379L196.232 221.328C196.687 221.1 196.687 220.872 196.232 220.644ZM201.701 217.452L198.966 215.856C198.738 215.628 198.055 215.628 197.827 215.856L194.408 217.908C194.181 218.136 194.181 218.364 194.408 218.592L197.143 220.188C197.371 220.416 198.055 220.416 198.282 220.188L201.701 218.136C202.156 217.908 202.156 217.68 201.701 217.452ZM207.17 214.26L204.435 212.664C204.207 212.436 203.524 212.436 203.296 212.664L199.878 214.716C199.65 214.944 199.65 215.172 199.878 215.4L202.612 216.996C202.84 217.224 203.524 217.224 203.752 216.996L207.17 214.944C207.626 214.716 207.626 214.488 207.17 214.26ZM212.639 211.068L209.905 209.473C209.677 209.245 208.993 209.245 208.765 209.473L205.347 211.524C205.119 211.752 205.119 211.98 205.347 212.208L208.081 213.804C208.309 214.032 208.993 214.032 209.221 213.804L212.639 211.752C213.095 211.524 213.095 211.296 212.639 211.068ZM218.108 207.877L215.374 206.281C215.146 206.053 214.462 206.053 214.234 206.281L210.816 208.333C210.588 208.561 210.588 208.789 210.816 209.017L213.551 210.613C213.779 210.84 214.462 210.84 214.69 210.613L218.108 208.561C218.336 208.561 218.336 208.105 218.108 207.877ZM225.401 203.773L222.666 202.177C222.438 201.949 221.754 201.949 221.527 202.177L216.285 205.141C216.057 205.369 216.057 205.597 216.285 205.825L219.02 207.421C219.248 207.649 219.931 207.649 220.159 207.421L225.401 204.457C225.629 204.229 225.629 204.001 225.401 203.773ZM181.419 235.006L178.685 233.411C178.457 233.183 177.773 233.183 177.545 233.411L172.304 236.374C172.076 236.602 172.076 236.83 172.304 237.058L175.038 238.654C175.266 238.882 175.95 238.882 176.178 238.654L181.419 235.69C181.647 235.462 181.647 235.234 181.419 235.006ZM186.888 231.815L184.154 230.219C183.926 229.991 183.242 229.991 183.014 230.219L179.596 232.271C179.368 232.499 179.368 232.727 179.596 232.955L182.331 234.55C182.559 234.778 183.242 234.778 183.47 234.55L186.888 232.499C187.116 232.271 187.116 232.043 186.888 231.815ZM192.358 228.623L189.623 227.027C189.395 226.799 188.711 226.799 188.483 227.027L185.065 229.079C184.837 229.307 184.837 229.535 185.065 229.763L187.8 231.359C188.028 231.587 188.711 231.587 188.939 231.359L192.358 229.307C192.585 229.307 192.585 228.851 192.358 228.623ZM197.599 225.659L194.864 224.063C194.636 223.835 193.953 223.835 193.725 224.063L190.307 226.115C190.079 226.343 190.079 226.571 190.307 226.799L193.041 228.395C193.269 228.623 193.953 228.623 194.181 228.395L197.599 226.343C198.055 226.115 198.055 225.659 197.599 225.659ZM203.068 222.467L200.333 220.872C200.106 220.644 199.422 220.644 199.194 220.872L195.776 222.923C195.548 223.151 195.548 223.379 195.776 223.607L198.51 225.203C198.738 225.431 199.422 225.431 199.65 225.203L203.068 223.151C203.524 222.923 203.524 222.695 203.068 222.467ZM228.135 213.576L225.401 211.98C225.173 211.752 224.489 211.752 224.261 211.98L198.966 226.571C198.738 226.799 198.738 227.027 198.966 227.255L201.701 228.851C201.929 229.079 202.612 229.079 202.84 228.851L228.135 214.26C228.363 214.26 228.363 213.804 228.135 213.576ZM208.537 219.276L205.803 217.68C205.575 217.452 204.891 217.452 204.663 217.68L201.245 219.732C201.017 219.96 201.017 220.188 201.245 220.416L203.98 222.012C204.207 222.24 204.891 222.24 205.119 222.012L208.537 219.96C208.993 219.732 208.993 219.504 208.537 219.276ZM214.006 216.084L211.272 214.488C211.044 214.26 210.36 214.26 210.132 214.488L206.714 216.54C206.486 216.768 206.486 216.996 206.714 217.224L209.449 218.82C209.677 219.048 210.36 219.048 210.588 218.82L214.006 216.768C214.462 216.54 214.462 216.312 214.006 216.084ZM219.476 212.892L216.741 211.296C216.513 211.068 215.829 211.068 215.602 211.296L212.183 213.348C211.955 213.576 211.955 213.804 212.183 214.032L214.918 215.628C215.146 215.856 215.83 215.856 216.057 215.628L219.476 213.576C219.931 213.348 219.931 213.12 219.476 212.892ZM224.945 209.701L222.21 208.105C221.982 207.877 221.299 207.877 221.071 208.105L217.653 210.157C217.425 210.385 217.425 210.613 217.653 210.84L220.387 212.436C220.615 212.664 221.299 212.664 221.527 212.436L224.945 210.385C225.173 210.385 225.173 209.929 224.945 209.701ZM230.414 206.737L227.679 205.141C227.452 204.913 226.768 204.913 226.54 205.141L223.122 207.193C222.894 207.421 222.894 207.649 223.122 207.877L225.856 209.473C226.084 209.701 226.768 209.701 226.996 209.473L230.414 207.421C230.642 207.193 230.642 206.737 230.414 206.737ZM223.805 193.286L221.071 191.69C220.843 191.462 220.159 191.462 219.931 191.69L216.513 193.742C216.285 193.97 216.285 194.198 216.513 194.426L219.248 196.022C219.476 196.25 220.159 196.25 220.387 196.022L223.805 193.97C224.261 193.742 224.261 193.514 223.805 193.286ZM229.275 190.094L226.54 188.498C226.312 188.27 225.629 188.27 225.401 188.498L221.982 190.55C221.755 190.778 221.755 191.006 221.982 191.234L224.717 192.83C224.945 193.058 225.628 193.058 225.856 192.83L229.275 190.778C229.73 190.55 229.73 190.322 229.275 190.094ZM234.744 186.903L232.009 185.307C231.781 185.079 231.098 185.079 230.87 185.307L227.452 187.359C227.224 187.587 227.224 187.815 227.452 188.042L230.186 189.638C230.414 189.866 231.098 189.866 231.326 189.638L234.744 187.587C235.2 187.359 235.2 187.131 234.744 186.903ZM239.757 189.866L237.023 188.27C236.795 188.042 236.111 188.042 235.883 188.27L232.465 190.322C232.237 190.55 232.237 190.778 232.465 191.006L235.2 192.602C235.427 192.83 236.111 192.83 236.339 192.602L239.757 190.55C240.213 190.322 240.213 190.094 239.757 189.866ZM244.543 192.374L241.808 190.778C241.58 190.55 241.125 190.55 240.897 190.778L236.111 193.514C235.883 193.742 235.427 193.742 235.2 193.514L231.553 191.462C231.098 191.234 230.414 191.234 230.186 191.462L221.527 196.478C221.071 196.706 221.071 197.162 221.527 197.39L229.047 201.721C229.502 201.949 230.186 201.949 230.414 201.721L244.543 193.514C244.999 193.058 244.999 192.602 244.543 192.374Z" fill="#FFFEFB"/>
<path d="M298.772 187.358C297.633 184.394 293.303 178.694 286.467 176.186C281.225 174.135 274.389 172.083 266.413 176.642C266.185 176.87 265.729 177.098 265.501 177.098C262.539 179.15 262.767 182.798 265.729 184.85C271.426 188.725 278.263 192.601 278.263 192.601C279.858 193.513 281.681 194.197 283.732 194.653C288.29 195.793 292.392 195.337 295.81 193.513C298.089 192.145 299 190.549 299 188.953C299.228 188.725 299 188.041 298.772 187.358Z" fill="url(#paint4_radial_14822_171208)"/>
<path opacity="0.6" d="M276.437 177.326L274.158 176.186C273.474 175.958 272.563 175.73 271.651 176.642C271.195 177.098 271.423 177.326 272.107 177.554L274.386 178.694C275.069 178.922 276.209 179.15 276.665 178.694C277.12 178.238 277.12 177.782 276.437 177.326Z" fill="#D2D1CE"/>
<path d="M275.074 175.502C274.39 175.046 273.479 175.046 272.795 175.502L275.986 180.746C277.581 179.378 276.897 176.642 275.074 175.502Z" fill="#FFFEFB"/>
<path d="M275.986 178.01C275.53 176.87 274.846 176.186 274.163 175.73C273.707 175.502 273.479 175.502 273.023 175.502C272.795 175.502 272.795 175.502 272.567 175.73C272.339 175.958 271.884 176.186 271.656 177.098C271.2 179.15 273.479 182.341 275.758 181.201C276.213 180.518 276.441 179.378 275.986 178.01Z" fill="#B6B5B3"/>
<path opacity="0.5" d="M274.389 178.694C274.161 178.011 273.706 177.555 273.25 177.327C273.022 177.099 272.794 177.099 272.566 177.099C271.883 177.099 271.655 178.011 272.11 178.922C272.338 179.606 272.794 180.062 273.25 180.29C273.478 180.518 273.706 180.518 273.933 180.518C274.617 180.518 274.845 179.606 274.389 178.694Z" fill="#CCCECE"/>
<path d="M276.213 178.01C276.213 177.782 276.213 177.782 276.213 178.01C275.986 177.326 275.53 176.87 275.302 176.414C275.074 176.186 274.618 175.73 274.39 175.502C273.935 175.274 273.707 175.274 273.251 175.274C273.023 175.274 273.023 175.274 272.795 175.502L272.567 175.73C272.795 175.73 272.795 175.502 273.023 175.502C273.479 175.502 273.707 175.502 274.163 175.73C274.39 175.958 274.846 176.186 275.074 176.642C275.302 177.098 275.758 177.554 275.986 178.01C275.986 178.01 275.986 178.01 276.213 178.01C276.441 179.378 276.213 180.518 275.758 180.974L275.986 180.746C276.441 180.29 276.669 179.15 276.213 178.01Z" fill="#F0EFEC"/>
<path opacity="0.6" d="M296.492 192.145C293.074 194.197 288.972 194.653 284.415 193.285C282.592 192.829 280.768 192.145 278.945 191.233C278.945 191.233 272.109 187.586 266.412 183.482C264.589 182.342 263.905 180.746 264.133 179.15C263.221 181.202 263.905 183.482 266.184 185.078C271.881 188.954 278.717 192.829 278.717 192.829C280.313 193.741 282.136 194.425 284.187 194.881C288.744 196.021 292.846 195.565 296.264 193.741C298.315 192.601 299.455 191.005 299.455 189.409C298.771 190.321 297.86 191.233 296.492 192.145Z" fill="#D2D1CE"/>
<path opacity="0.6" d="M296.265 192.83C292.847 194.882 288.745 195.338 284.187 193.97C282.364 193.514 280.541 192.83 278.718 191.918C278.718 191.918 271.881 188.27 266.184 184.166C264.361 182.799 263.678 181.203 263.905 179.379C263.222 181.203 263.905 183.483 265.956 184.85C271.653 188.726 278.49 192.602 278.49 192.602C280.085 193.514 281.908 194.198 283.959 194.654C288.517 195.793 292.619 195.338 296.037 193.514C297.86 192.374 299 191.006 299.227 189.638C298.772 190.778 297.632 191.918 296.265 192.83Z" fill="#D2D1CE"/>
<path opacity="0.2" d="M272.103 112.807L139.475 189.409V107.336L272.103 30.7344V112.807Z" fill="#788EFF"/>
<path opacity="0.2" d="M272.103 112.807L139.475 189.409V107.336L272.103 30.7344V112.807Z" fill="#3852D4"/>
<path opacity="0.5" d="M141.302 111.211V186.216L237.468 130.589L272.107 110.527V35.5215L141.302 111.211Z" fill="#213FD8"/>
<path d="M272.103 31.1898L139.475 107.791V102.548L272.103 25.9463V31.1898Z" fill="#788EFF"/>
<path d="M227.204 136.518L139.469 187.129V124.891L227.204 74.2793V136.518Z" fill="#788EFF"/>
<path d="M227.204 132.186L139.469 183.026V124.891L227.204 74.2793V132.186Z" fill="#C2CCFF"/>
<path d="M200.77 112.809L166.36 132.643C164.536 133.555 163.169 133.099 163.169 131.275C163.169 129.451 164.536 127.171 166.36 126.031L200.77 106.197C202.593 105.285 203.96 105.741 203.96 107.565C203.96 109.389 202.593 111.897 200.77 112.809Z" fill="#FFFFD6"/>
<path d="M200.77 124.436L166.36 144.27C164.536 145.182 163.169 144.726 163.169 142.902C163.169 141.078 164.536 138.798 166.36 137.658L200.77 117.824C202.593 116.912 203.96 117.368 203.96 119.192C203.96 121.016 202.593 123.296 200.77 124.436Z" fill="#FFFFD6"/>
<path d="M188.008 143.358L178.209 149.058C176.386 149.97 175.018 149.514 175.018 147.69C175.018 145.866 176.386 143.586 178.209 142.446L188.008 136.747C189.831 135.835 191.198 136.291 191.198 138.115C191.198 139.939 189.831 142.219 188.008 143.358Z" fill="#788EFF"/>
<path d="M167.269 140.394C167.269 140.85 166.813 141.306 166.585 141.762C166.13 141.99 165.902 141.762 165.902 141.306C165.902 140.85 166.357 140.394 166.585 139.938C166.813 139.938 167.269 139.938 167.269 140.394Z" fill="#9F9F9F"/>
<path d="M170.463 138.57C170.463 139.026 170.007 139.482 169.779 139.938C169.323 140.166 169.095 139.938 169.095 139.482C169.095 139.026 169.551 138.57 169.779 138.114C170.007 138.114 170.463 138.114 170.463 138.57Z" fill="#9F9F9F"/>
<path d="M173.653 136.747C173.653 137.203 173.197 137.658 172.969 138.114C172.513 138.342 172.286 138.114 172.286 137.658C172.286 137.203 172.741 136.747 172.969 136.291C173.425 136.063 173.653 136.291 173.653 136.747Z" fill="#9F9F9F"/>
<path d="M176.843 134.922C176.843 135.378 176.387 135.834 176.159 136.29C175.704 136.518 175.476 136.29 175.476 135.834C175.476 135.378 175.932 134.922 176.159 134.466C176.615 134.238 176.843 134.466 176.843 134.922Z" fill="#9F9F9F"/>
<path d="M180.037 133.099C180.037 133.555 179.581 134.011 179.353 134.467C178.897 134.695 178.669 134.467 178.669 134.011C178.669 133.555 179.125 133.099 179.353 132.643C179.809 132.415 180.037 132.643 180.037 133.099Z" fill="#9F9F9F"/>
<path d="M183.455 131.047C183.455 131.503 182.999 131.959 182.771 132.415C182.315 132.643 182.087 132.415 182.087 131.959C182.087 131.503 182.543 131.047 182.771 130.591C182.999 130.591 183.455 130.591 183.455 131.047Z" fill="#9F9F9F"/>
<path d="M186.641 129.224C186.641 129.68 186.186 130.135 185.958 130.591C185.502 130.819 185.274 130.591 185.274 130.135C185.274 129.68 185.73 129.224 185.958 128.768C186.186 128.768 186.641 128.768 186.641 129.224Z" fill="#9F9F9F"/>
<path d="M189.832 127.4C189.832 127.856 189.376 128.312 189.148 128.768C188.692 128.996 188.464 128.768 188.464 128.312C188.464 127.856 188.92 127.4 189.148 126.944C189.376 126.716 189.832 126.944 189.832 127.4Z" fill="#9F9F9F"/>
<path d="M166.59 128.539V130.363C166.59 130.819 166.818 130.819 167.273 130.591C167.729 130.363 167.957 129.907 167.957 129.679V127.627L168.413 127.399V129.451V130.135L168.185 130.363V129.907C167.957 130.135 167.729 130.591 167.273 130.819C166.818 131.047 166.362 130.819 166.362 130.363V128.539H166.59Z" fill="#9F9F9F"/>
<path d="M170.691 128.084C170.691 127.628 170.463 127.856 170.008 128.084C169.324 128.54 169.096 128.312 169.096 127.856C169.096 127.4 169.552 126.716 170.008 126.488C170.691 126.032 170.919 126.26 170.919 126.944L170.463 127.172C170.463 126.716 170.236 126.716 169.78 126.944C169.324 127.172 169.096 127.4 169.096 127.856C169.096 128.084 169.324 128.312 169.78 127.856C170.463 127.628 170.691 127.628 170.691 128.084C170.691 128.54 170.236 129.224 169.552 129.452C168.868 129.908 168.413 129.68 168.413 129.224L168.868 128.996C168.868 129.224 169.096 129.452 169.552 129.224C170.463 128.768 170.691 128.312 170.691 128.084Z" fill="#9F9F9F"/>
<path d="M171.831 126.943C171.831 127.627 172.059 127.855 172.742 127.399C173.198 127.171 173.426 126.715 173.426 126.259L173.654 126.031C173.654 126.487 173.198 127.171 172.514 127.627C171.603 128.083 171.375 127.627 171.375 126.943V126.715C171.375 126.031 171.831 125.119 172.514 124.663C173.198 124.207 173.654 124.663 173.654 125.347V125.575L171.831 126.943ZM171.831 126.487L173.426 125.575C173.426 124.891 173.198 124.663 172.742 125.119C172.286 125.347 171.831 126.031 171.831 126.487Z" fill="#9F9F9F"/>
<path d="M175.704 123.067V123.523C175.249 123.751 175.021 124.207 175.021 124.435V126.487L174.565 126.715V124.663V123.979L174.793 123.751V123.979C175.021 123.751 175.249 123.295 175.704 123.067C175.477 123.067 175.704 123.067 175.704 123.067Z" fill="#9F9F9F"/>
<path d="M177.759 124.892L177.303 125.12V121.016L177.759 120.788V124.892Z" fill="#9F9F9F"/>
<path d="M179.582 123.752L178.442 124.436V120.332L179.582 119.648C180.493 119.192 181.177 119.192 181.177 120.788V121.016C181.177 122.384 180.493 123.068 179.582 123.752ZM179.582 123.296C180.265 122.84 180.721 122.156 180.721 121.016V120.788C180.721 119.648 180.265 119.42 179.582 119.876L178.898 120.332V123.752L179.582 123.296Z" fill="#9F9F9F"/>
<path d="M139.475 112.123V125.802L227.21 75.1905V61.5117L139.475 112.123Z" fill="#788EFF"/>
<path d="M263.905 34.6088L261.17 36.2047V33.4689L263.905 31.873V34.6088Z" fill="#5373F9"/>
<path d="M267.551 32.557L264.588 34.1529V31.4171L267.551 29.8213V32.557Z" fill="#5373F9"/>
<path d="M265.044 31.6458V33.6976L267.095 32.5577V30.5059L265.044 31.6458ZM266.639 32.3297L265.272 33.0136V31.6458L266.639 30.9618V32.3297Z" fill="#F7F8FF"/>
<path d="M270.969 30.5053L268.234 32.1012V29.3654L270.969 27.7695V30.5053Z" fill="#5373F9"/>
<path d="M268.693 29.821L269.377 30.049L268.693 31.1889L268.921 31.4169L269.605 30.277L270.288 30.5049L270.744 30.049L269.833 29.821L270.744 28.6811L270.288 28.4531L269.605 29.821L268.921 29.365L268.693 29.821Z" fill="#F7F8FF"/>
<path d="M263.445 34.3803L261.622 35.5202V35.0643L263.445 34.1523V34.3803Z" fill="#F7F8FF"/>
<path d="M266.414 91.3766L234.055 110.071V103.688L266.414 84.9932V91.3766Z" fill="#788EFF"/>
<path d="M235.65 104.601L264.819 87.7305V90.4662L235.65 107.337V104.601Z" fill="#291B2A"/>
<path d="M281.682 139.253L280.315 138.569C279.403 138.113 278.72 137.429 277.808 136.517C276.897 135.605 276.213 134.237 275.529 133.097C274.846 131.73 274.618 130.362 274.618 128.994V105.284C274.618 103.916 274.162 102.32 273.706 100.952C273.251 99.5843 272.339 98.4444 271.427 97.3045C270.744 96.3926 269.832 95.7086 268.921 95.2527L258.438 89.3252L237.701 101.408L248.183 107.336C249.095 107.792 250.006 108.704 250.69 109.387C251.602 110.527 252.285 111.667 252.969 113.035C253.653 114.403 253.881 115.999 253.881 117.367V141.077C253.881 142.445 254.336 143.812 254.792 145.18C255.248 146.32 256.159 147.688 257.071 148.6C257.755 149.512 258.666 150.196 259.578 150.652L260.945 151.336C262.54 152.248 263.907 152.248 264.819 151.792L285.556 139.709C284.645 140.165 283.277 140.165 281.682 139.253Z" fill="url(#paint5_linear_14822_171208)"/>
<path d="M268.464 131.273C267.552 131.957 266.869 133.097 266.869 134.921V148.372C266.869 150.196 266.185 151.564 265.273 152.02L286.011 139.937C287.15 139.253 287.606 138.113 287.606 136.289V122.838C287.606 121.014 288.29 119.874 289.201 119.19L268.464 131.273Z" fill="#DAD7D7"/>
<path d="M305.84 153.16L304.473 152.476C303.561 152.02 302.878 151.336 301.966 150.424C301.054 149.512 300.371 148.144 299.687 147.004C299.003 145.636 298.776 144.268 298.776 142.901V129.45C298.776 128.082 298.32 126.486 297.864 125.118C297.408 123.75 296.497 122.61 295.585 121.47C294.902 120.558 293.99 119.875 293.079 119.419C291.483 118.507 289.888 118.507 288.977 118.963L268.239 130.818C269.379 130.134 270.746 130.362 272.341 131.274C273.253 131.729 274.164 132.641 274.848 133.325C275.759 134.465 276.443 135.605 277.127 136.973C277.81 138.341 278.038 139.937 278.038 141.305V154.755C278.038 156.123 278.494 157.491 278.95 158.859C279.406 159.999 280.317 161.367 281.229 162.279C281.912 163.191 282.824 163.875 283.735 164.331L285.103 165.015C286.698 165.926 288.065 165.926 288.977 165.471L309.714 153.388C308.803 154.3 307.435 154.072 305.84 153.16Z" fill="url(#paint6_linear_14822_171208)"/>
<path d="M292.618 155.895C291.707 156.579 291.023 157.719 291.023 159.543V162.279C291.023 164.103 290.339 165.471 289.428 165.927L310.165 153.844C311.305 153.16 311.76 152.02 311.76 150.196V147.46C311.76 145.636 312.444 144.496 313.356 143.812L292.618 155.895Z" fill="#DAD7D7"/>
<path d="M317.233 143.813C315.638 142.901 314.042 142.901 313.131 143.357L292.394 155.44C293.533 154.756 294.9 154.984 296.495 155.896L309.941 163.647L330.678 151.564L317.233 143.813Z" fill="#F8F5F4"/>
<path d="M309.94 163.874L296.495 156.123C293.305 154.299 290.57 155.667 290.57 159.542V162.278C290.57 165.926 288.063 167.294 284.873 165.47L283.506 164.786C280.315 162.962 277.809 158.63 278.036 155.211V141.76C278.036 138.112 275.53 133.553 272.339 131.729C269.149 129.905 266.414 131.273 266.414 135.148V148.599C266.414 152.247 263.908 153.615 260.717 151.791L259.35 151.107C256.16 149.283 253.653 144.952 253.881 141.532V117.822C253.881 114.174 251.374 109.615 248.184 107.791L237.701 101.863V102.091L248.184 108.019C251.374 109.843 253.881 114.174 253.653 117.594V141.304C253.653 144.952 256.16 149.511 259.35 151.335L260.717 152.019C263.908 153.843 266.642 152.475 266.642 148.599V135.148C266.642 131.501 269.149 130.133 272.339 131.957C275.53 133.781 278.037 138.112 277.809 141.532V154.983C277.809 158.63 280.315 163.19 283.506 165.014L284.873 165.698C288.063 167.522 290.798 166.154 290.798 162.278V159.542C290.798 155.895 293.305 154.527 296.495 156.351L309.94 164.102L330.678 152.019V151.791L309.94 163.874Z" fill="#F3F0F0"/>
<path d="M266.414 65.3883L234.054 84.0827V77.6993L266.414 59.0049V65.3883Z" fill="#788EFF"/>
<path d="M235.65 78.6117L264.82 61.7412V64.477L235.65 81.3475V78.6117Z" fill="#291B2A"/>
<path d="M234.061 76.786C234.061 77.242 234.289 77.6979 234.973 77.9259L271.89 99.356C273.029 100.04 274.624 100.04 275.536 99.584L297.641 86.8171C298.096 86.5891 298.324 86.1332 298.324 85.9052C298.324 85.6772 298.324 85.4492 298.324 85.2213C298.324 84.7653 298.096 84.5373 297.413 84.0814L260.496 62.6512C259.356 61.9673 257.761 61.9673 256.85 62.4232L234.745 75.1901C234.289 75.4181 234.061 75.6461 234.061 76.1021C233.833 76.33 234.061 76.558 234.061 76.786Z" fill="url(#paint7_linear_14822_171208)"/>
<path d="M293.083 84.5371C293.31 84.765 293.538 84.993 293.538 85.221C293.538 85.449 293.538 85.677 293.083 85.9049L291.715 86.8169C291.26 87.0449 290.12 87.0449 289.436 86.8169L284.195 83.8531C283.967 83.6252 283.739 83.3972 283.739 83.1692C283.739 82.9412 283.739 82.7132 284.195 82.4852L285.562 81.5733C286.018 81.3453 287.158 81.3453 287.841 81.5733L293.083 84.5371Z" fill="#FFD7FB"/>
<path d="M249.099 77.243C249.327 77.471 249.555 77.699 249.555 77.927C249.555 78.155 249.555 78.3829 249.099 78.6109L246.364 80.2068C245.908 80.4348 244.769 80.4348 244.085 80.2068L238.388 76.7871C238.16 76.5591 237.933 76.3311 237.933 76.1031C237.933 75.8752 237.932 75.6472 238.388 75.4192L241.123 73.8233C241.579 73.5953 242.718 73.5953 243.402 73.8233L249.099 77.243Z" fill="url(#paint8_linear_14822_171208)"/>
<path d="M238.616 76.7871L244.313 80.2068C244.769 80.4348 245.681 80.6628 246.136 80.2068L248.871 78.6109C249.327 78.383 249.327 77.927 248.643 77.471L242.946 74.0513C242.49 73.8234 241.579 73.5954 241.123 74.0513L238.388 75.6472C237.932 75.8752 237.933 76.3311 238.616 76.7871Z" fill="#FFC440"/>
<g opacity="0.6">
<path d="M242.946 74.0518C242.718 74.0518 242.718 74.0518 242.946 74.0518L238.388 76.5595C238.388 76.5595 238.388 76.5595 238.616 76.7875L239.756 76.1036L241.579 77.2435C241.123 77.4715 241.351 78.1554 241.807 78.3834C242.49 78.6114 243.174 78.8393 243.857 78.6114L245.681 79.7513L244.541 80.4352H244.769L249.099 77.9274C249.099 77.9274 249.099 77.9274 248.871 77.6994L247.732 78.3834L245.908 77.2435C246.364 77.0155 246.136 76.3316 245.681 76.1036C244.997 75.6476 244.313 75.6476 243.63 75.8756L241.807 74.7357L242.946 74.0518ZM243.857 78.1554L245.681 77.0155L247.504 78.1554L245.681 79.2953L243.857 78.1554ZM241.807 78.1554C241.351 77.9274 241.123 77.4715 241.579 77.2435L243.63 78.3834C242.946 78.3834 242.262 78.3834 241.807 78.1554ZM245.453 76.1036C245.908 76.3316 246.136 76.7875 245.681 77.0155L243.63 75.8756C244.085 75.6476 244.997 75.6476 245.453 76.1036ZM243.402 75.8756L245.453 77.0155L243.63 78.1554L241.579 77.0155L243.402 75.8756ZM243.402 75.8756L241.579 77.0155L239.756 76.1036L241.579 74.9637L243.402 75.8756Z" fill="#D88C1D"/>
</g>
<path d="M271.661 93.8846C270.749 94.3405 269.382 94.3405 268.471 93.8846C267.559 93.4286 267.559 92.5167 268.471 92.0607C269.382 91.6048 270.749 91.6048 271.661 92.0607C272.572 92.5167 272.572 93.4286 271.661 93.8846Z" fill="#9B2C2C"/>
<path d="M273.712 96.392C274.97 96.392 275.99 95.7796 275.99 95.0241C275.99 94.2687 274.97 93.6562 273.712 93.6562C272.453 93.6562 271.433 94.2687 271.433 95.0241C271.433 95.7796 272.453 96.392 273.712 96.392Z" fill="#FFDF43"/>
<path d="M284.192 89.3252C283.964 89.3252 283.737 89.3252 283.737 89.5532L282.597 90.2371C282.369 90.2371 282.369 90.4651 282.369 90.4651C282.369 90.4651 282.369 90.6931 282.597 90.6931L283.053 90.9211C283.281 90.9211 283.281 91.149 283.509 91.149C283.737 91.149 283.964 91.149 283.964 90.9211L285.104 90.2371C285.332 90.2371 285.332 90.0091 285.332 90.0091C285.332 90.0091 285.332 89.7812 285.104 89.7812L284.648 89.5532C284.648 89.3252 284.42 89.3252 284.192 89.3252ZM283.964 89.5532C284.192 89.3252 284.42 89.3252 284.648 89.5532L284.876 89.7812C285.104 89.7812 285.104 90.0091 284.876 90.2371L283.737 90.9211C283.509 91.149 283.281 91.149 283.053 90.9211L282.825 90.6931C282.597 90.4651 282.597 90.4651 282.825 90.2371L283.964 89.5532Z" fill="#FFC440"/>
<path d="M282.369 88.1855C282.142 88.1855 281.914 88.1856 281.914 88.4135L280.774 89.0975C280.546 89.0975 280.546 89.3254 280.546 89.3254C280.546 89.3254 280.546 89.5534 280.774 89.5534L281.23 89.7814C281.458 89.7814 281.458 90.0094 281.686 90.0094C281.914 90.0094 282.142 90.0094 282.142 89.7814L283.281 89.0975C283.509 89.0975 283.509 88.8695 283.509 88.8695C283.509 88.8695 283.509 88.6415 283.281 88.6415L282.825 88.4135C282.825 88.4135 282.597 88.1855 282.369 88.1855ZM282.142 88.6415C282.369 88.4135 282.597 88.4135 282.825 88.6415L283.053 88.8695C283.281 88.8695 283.281 89.0975 283.053 89.3254L281.914 89.7814C281.686 90.0094 281.458 90.0094 281.23 89.7814L281.002 89.5534C280.774 89.3255 280.774 89.3255 281.002 89.0975L282.142 88.6415Z" fill="#FFC440"/>
<path d="M280.543 87.2734C280.315 87.2734 280.087 87.2734 280.087 87.5014L278.948 88.1854C278.72 88.1854 278.72 88.4133 278.72 88.4133C278.72 88.4133 278.72 88.6413 278.948 88.6413L279.404 88.8693C279.631 88.8693 279.631 89.0973 279.859 89.0973C280.087 89.0973 280.315 89.0973 280.315 88.8693L281.454 88.1854C281.682 88.1854 281.682 87.9574 281.682 87.9574C281.682 87.9574 281.682 87.7294 281.454 87.7294L280.999 87.5014C280.999 87.2734 280.771 87.2734 280.543 87.2734ZM280.315 87.5014C280.543 87.2734 280.771 87.2734 280.999 87.5014L281.227 87.7294C281.455 87.7294 281.455 87.9574 281.227 88.1854L280.087 88.8693C279.859 89.0973 279.631 89.0973 279.404 88.8693L279.176 88.6413C278.948 88.4133 278.948 88.4133 279.176 88.1854L280.315 87.5014Z" fill="#FFC440"/>
<path d="M278.724 86.1338C278.496 86.1338 278.268 86.1338 278.268 86.3618L277.128 87.0457C276.9 87.0457 276.9 87.2737 276.9 87.2737C276.9 87.2737 276.9 87.5017 277.128 87.5017L277.584 87.7296C277.812 87.7296 277.812 87.9576 278.04 87.9576C278.268 87.9576 278.496 87.9576 278.496 87.7296L279.635 87.0457C279.863 87.0457 279.863 86.8177 279.863 86.8177C279.863 86.8177 279.863 86.5897 279.635 86.5897L279.179 86.3618C279.179 86.1338 278.951 86.1338 278.724 86.1338ZM278.496 86.3618C278.723 86.1338 278.951 86.1338 279.179 86.3618L279.407 86.5897C279.635 86.5897 279.635 86.8177 279.407 87.0457L278.268 87.7296C278.04 87.9576 277.812 87.9576 277.584 87.7296L277.356 87.5017C277.128 87.2737 277.128 87.2737 277.356 87.0457L278.496 86.3618Z" fill="#FFC440"/>
<path d="M274.391 83.626C274.163 83.626 273.935 83.626 273.935 83.854L272.795 84.5379C272.567 84.5379 272.567 84.7659 272.567 84.7659C272.567 84.7659 272.567 84.9939 272.795 84.9939L273.251 85.2218C273.479 85.2218 273.479 85.4498 273.707 85.4498C273.935 85.4498 274.163 85.4498 274.163 85.2218L275.302 84.5379C275.53 84.5379 275.53 84.3099 275.53 84.3099C275.53 84.3099 275.53 84.0819 275.302 84.0819L274.846 83.854C274.846 83.626 274.618 83.626 274.391 83.626ZM274.163 83.854C274.391 83.626 274.618 83.626 274.846 83.854L275.074 84.0819C275.302 84.0819 275.302 84.3099 275.074 84.5379L273.935 85.2218C273.707 85.4498 273.479 85.4498 273.251 85.2218L273.023 84.9939C272.795 84.7659 272.795 84.7659 273.023 84.5379L274.163 83.854Z" fill="#FFC440"/>
<path d="M272.567 82.4863C272.34 82.4863 272.112 82.4863 272.112 82.7143L270.972 83.3983C270.744 83.3983 270.744 83.6262 270.744 83.6262C270.744 83.6262 270.744 83.8542 270.972 83.8542L271.428 84.0822C271.656 84.0822 271.656 84.3102 271.884 84.3102C272.112 84.3102 272.34 84.3102 272.34 84.0822L273.479 83.3983C273.707 83.3983 273.707 83.1703 273.707 83.1703C273.707 83.1703 273.707 82.9423 273.479 82.9423L273.023 82.7143C273.023 82.7143 272.795 82.4863 272.567 82.4863ZM272.34 82.9423C272.567 82.7143 272.795 82.7143 273.023 82.9423L273.251 83.1703C273.479 83.1703 273.479 83.3982 273.251 83.6262L272.112 84.3102C271.884 84.5381 271.656 84.5381 271.428 84.3102L271.2 84.0822C270.972 83.8542 270.972 83.8542 271.2 83.6262L272.34 82.9423Z" fill="#FFC440"/>
<path d="M270.748 81.5742C270.52 81.5742 270.292 81.5742 270.292 81.8022L269.153 82.4861C268.925 82.4861 268.925 82.7141 268.925 82.7141C268.925 82.7141 268.925 82.9421 269.153 82.9421L269.609 83.1701C269.837 83.1701 269.836 83.3981 270.064 83.3981C270.292 83.3981 270.52 83.3981 270.52 83.1701L271.66 82.4861C271.887 82.4861 271.887 82.2582 271.887 82.2582C271.887 82.2582 271.887 82.0302 271.66 82.0302L271.204 81.8022C271.204 81.5742 270.976 81.5742 270.748 81.5742ZM270.52 81.8022C270.748 81.5742 270.976 81.5742 271.204 81.8022L271.432 82.0302C271.66 82.0302 271.66 82.2582 271.432 82.4861L270.292 83.1701C270.064 83.3981 269.837 83.3981 269.609 83.1701L269.381 82.9421C269.153 82.7141 269.153 82.7141 269.381 82.4861L270.52 81.8022Z" fill="#FFC440"/>
<path d="M268.922 80.4346C268.694 80.4346 268.466 80.4346 268.466 80.6625L267.326 81.3465C267.099 81.3465 267.099 81.5745 267.099 81.5745C267.099 81.5745 267.099 81.8024 267.326 81.8024L267.782 82.0304C268.01 82.0304 268.01 82.2584 268.238 82.2584C268.466 82.2584 268.694 82.2584 268.694 82.0304L269.833 81.3465C270.061 81.3465 270.061 81.1185 270.061 81.1185C270.061 81.1185 270.061 80.8905 269.833 80.8905L269.377 80.6625C269.377 80.6625 269.149 80.4346 268.922 80.4346ZM268.694 80.8905C268.922 80.6625 269.149 80.6625 269.377 80.8905L269.605 81.1185C269.833 81.1185 269.833 81.3465 269.605 81.5745L268.466 82.2584C268.238 82.4864 268.01 82.4864 267.782 82.2584L267.554 82.0304C267.326 81.8024 267.326 81.8025 267.554 81.5745L268.694 80.8905Z" fill="#FFC440"/>
<path d="M264.592 77.9258C264.364 77.9258 264.136 77.9258 264.136 78.1538L262.997 78.8377C262.769 78.8377 262.769 79.0657 262.769 79.0657C262.769 79.0657 262.769 79.2937 262.997 79.2937L263.453 79.5216C263.68 79.5216 263.681 79.7496 263.908 79.7496C264.136 79.7496 264.364 79.7496 264.364 79.5216L265.504 78.8377C265.731 78.8377 265.731 78.6097 265.731 78.6097C265.731 78.6097 265.731 78.3817 265.504 78.3817L265.048 78.1538C265.048 77.9258 264.82 77.9258 264.592 77.9258ZM264.364 78.1538C264.592 77.9258 264.82 77.9258 265.048 78.1538L265.276 78.3817C265.504 78.3817 265.504 78.6097 265.276 78.8377L264.136 79.5216C263.908 79.7496 263.68 79.7496 263.453 79.5216L263.225 79.2937C262.997 79.0657 262.997 79.0657 263.225 78.8377L264.364 78.1538Z" fill="#FFC440"/>
<path d="M262.769 77.0146C262.541 77.0146 262.313 77.0146 262.313 77.2426L261.174 77.9266C260.946 77.9266 260.946 78.1545 260.946 78.1545C260.946 78.1545 260.946 78.3825 261.174 78.3825L261.63 78.6105C261.858 78.6105 261.858 78.8385 262.085 78.8385C262.313 78.8385 262.541 78.8385 262.541 78.6105L263.681 77.9266C263.909 77.9266 263.909 77.6986 263.909 77.6986C263.909 77.6986 263.909 77.4706 263.681 77.4706L263.225 77.2426C263.225 77.0146 262.997 77.0146 262.769 77.0146ZM262.541 77.2426C262.769 77.0146 262.997 77.0146 263.225 77.2426L263.453 77.4706C263.681 77.4706 263.681 77.6986 263.453 77.9266L262.313 78.6105C262.085 78.8385 261.858 78.8385 261.63 78.6105L261.402 78.3825C261.174 78.1545 261.174 78.1545 261.402 77.9266L262.541 77.2426Z" fill="#FFC440"/>
<path d="M260.946 75.874C260.718 75.874 260.49 75.874 260.49 76.102L259.351 76.7859C259.123 76.7859 259.123 77.0139 259.123 77.0139C259.123 77.0139 259.123 77.2419 259.351 77.2419L259.807 77.4699C260.035 77.4699 260.035 77.6979 260.262 77.6979C260.49 77.6979 260.718 77.6979 260.718 77.4699L261.858 76.7859C262.086 76.7859 262.086 76.558 262.086 76.558C262.086 76.558 262.086 76.33 261.858 76.33L261.402 76.102C261.402 75.874 261.174 75.874 260.946 75.874ZM260.718 76.102C260.946 75.874 261.174 75.874 261.402 76.102L261.63 76.33C261.858 76.33 261.858 76.558 261.63 76.7859L260.49 77.4699C260.262 77.6979 260.035 77.6979 259.807 77.4699L259.579 77.2419C259.351 77.0139 259.351 77.0139 259.579 76.7859L260.718 76.102Z" fill="#FFC440"/>
<path d="M259.127 74.7344C258.899 74.7344 258.671 74.7344 258.671 74.9624L257.531 75.6463C257.303 75.6463 257.304 75.8743 257.304 75.8743C257.304 75.8743 257.303 76.1023 257.531 76.1023L257.987 76.3302C258.215 76.3302 258.215 76.5582 258.443 76.5582C258.671 76.5582 258.899 76.5582 258.899 76.3302L260.038 75.6463C260.266 75.6463 260.266 75.4183 260.266 75.4183C260.266 75.4183 260.266 75.1903 260.038 75.1903L259.582 74.9624C259.582 74.9624 259.354 74.7344 259.127 74.7344ZM258.899 75.1903C259.127 74.9623 259.354 74.9623 259.582 75.1903L259.81 75.4183C260.038 75.4183 260.038 75.6463 259.81 75.8743L258.671 76.5582C258.443 76.7862 258.215 76.7862 257.987 76.5582L257.759 76.3302C257.531 76.1022 257.531 76.1023 257.759 75.8743L258.899 75.1903Z" fill="#FFC440"/>
<path d="M254.794 72.2266C254.566 72.2266 254.338 72.2266 254.338 72.4545L253.198 73.1385C252.971 73.1385 252.971 73.3665 252.971 73.3665C252.971 73.3665 252.971 73.5944 253.198 73.5944L253.654 73.8224C253.882 73.8224 253.882 74.0504 254.11 74.0504C254.338 74.0504 254.566 74.0504 254.566 73.8224L255.705 73.1385C255.933 73.1385 255.933 72.9105 255.933 72.9105C255.933 72.9105 255.933 72.6825 255.705 72.6825L255.249 72.4545C255.249 72.4545 255.022 72.2266 254.794 72.2266ZM254.566 72.6825C254.794 72.4545 255.022 72.4545 255.249 72.6825L255.477 72.9105C255.705 72.9105 255.705 73.1385 255.477 73.3665L254.338 74.0504C254.11 74.2784 253.882 74.2784 253.654 74.0504L253.426 73.8224C253.198 73.5944 253.198 73.5944 253.426 73.3665L254.566 72.6825Z" fill="#FFC440"/>
<path d="M252.971 71.3145C252.743 71.3145 252.515 71.3144 252.515 71.5424L251.375 72.2264C251.148 72.2264 251.148 72.4544 251.148 72.4544C251.148 72.4544 251.148 72.6823 251.375 72.6823L251.831 72.9103C252.059 72.9103 252.059 73.1383 252.287 73.1383C252.515 73.1383 252.743 73.1383 252.743 72.9103L253.882 72.2264C254.11 72.2264 254.11 71.9984 254.11 71.9984C254.11 71.9984 254.11 71.7704 253.882 71.7704L253.426 71.5424C253.426 71.3144 253.199 71.3145 252.971 71.3145ZM252.743 71.5424C252.971 71.3144 253.199 71.3144 253.426 71.5424L253.654 71.7704C253.882 71.7704 253.882 71.9984 253.654 72.2264L252.515 72.9103C252.287 73.1383 252.059 73.1383 251.831 72.9103L251.603 72.6823C251.375 72.4544 251.375 72.4543 251.603 72.2264L252.743 71.5424Z" fill="#FFC440"/>
<path d="M251.151 70.1748C250.923 70.1748 250.695 70.1748 250.695 70.4028L249.556 71.0867C249.328 71.0867 249.328 71.3147 249.328 71.3147C249.328 71.3147 249.328 71.5427 249.556 71.5427L250.012 71.7707C250.24 71.7707 250.24 71.9986 250.467 71.9986C250.695 71.9986 250.923 71.9986 250.923 71.7707L252.063 71.0867C252.291 71.0867 252.291 70.8587 252.291 70.8587C252.291 70.8587 252.291 70.6308 252.063 70.6308L251.607 70.4028C251.607 70.1748 251.379 70.1748 251.151 70.1748ZM250.923 70.4028C251.151 70.1748 251.379 70.1748 251.607 70.4028L251.835 70.6308C252.063 70.6308 252.063 70.8587 251.835 71.0867L250.695 71.7707C250.467 71.9986 250.24 71.9986 250.012 71.7707L249.784 71.5427C249.556 71.3147 249.556 71.3147 249.784 71.0867L250.923 70.4028Z" fill="#FFC440"/>
<path d="M248.869 69.2631L247.73 69.9471C247.502 69.9471 247.502 70.1751 247.502 70.1751C247.502 70.1751 247.502 70.403 247.73 70.403L248.185 70.631C248.413 70.631 248.413 70.859 248.641 70.859C248.869 70.859 249.097 70.859 249.097 70.631L250.236 69.9471C250.464 69.9471 250.464 69.7191 250.464 69.7191C250.464 69.7191 250.464 69.4911 250.236 69.4911L249.78 69.2631C249.553 69.2631 249.553 69.0352 249.325 69.0352C249.097 69.2631 249.097 69.2631 248.869 69.2631ZM249.097 69.4911C249.325 69.2631 249.553 69.2631 249.78 69.4911L250.008 69.7191C250.236 69.7191 250.236 69.9471 250.008 70.1751L248.869 70.859C248.641 71.087 248.413 71.087 248.185 70.859L247.957 70.631C247.73 70.403 247.73 70.403 247.957 70.1751L249.097 69.4911Z" fill="#FFC440"/>
<path d="M255.936 65.16L257.759 64.248L258.671 64.704C258.899 64.704 258.899 64.932 258.899 64.932C258.899 64.932 258.899 65.16 258.671 65.16L257.759 65.6159C257.531 65.6159 257.531 65.8439 257.303 65.8439C257.076 65.8439 257.075 65.8439 256.848 65.6159L255.936 65.16ZM256.62 65.16L257.076 65.3879C257.303 65.3879 257.303 65.3879 257.531 65.3879L258.443 64.932C258.671 64.932 258.671 64.704 258.443 64.704L257.987 64.476C257.759 64.476 256.62 65.16 256.62 65.16Z" fill="#FFC440"/>
<path d="M258.674 66.756L257.763 66.3001L259.586 65.1602L260.497 65.6161L260.269 65.8441L259.586 65.3881L259.13 65.6161L259.586 66.0721L259.358 66.3001L258.674 66.0721L257.99 66.3001L258.674 66.756C258.674 66.756 258.902 66.528 258.674 66.756Z" fill="#FFC440"/>
<path d="M259.125 66.9842L260.948 66.0723L261.631 66.5282C261.859 66.5282 261.859 66.7562 261.859 66.7562C261.859 66.7562 261.859 66.9842 261.631 66.9842H261.403C261.176 66.9842 260.948 66.9842 260.948 66.9842C260.948 66.9842 260.948 66.9842 260.948 67.2122C260.948 67.2122 260.948 67.4402 260.72 67.4402H260.492C260.264 67.4402 260.264 67.6681 260.036 67.6681C259.808 67.6681 259.808 67.6681 259.58 67.4402L259.125 66.9842C258.897 66.9842 258.897 66.9842 259.125 66.9842ZM260.264 66.5282L260.72 66.7562C260.948 66.7562 260.948 66.7562 261.175 66.7562H261.403C261.631 66.7562 261.631 66.5282 261.403 66.5282L260.948 66.3003C260.948 66.0723 260.264 66.5282 260.264 66.5282ZM259.58 66.9842L260.036 67.2122C260.264 67.2122 260.264 67.2122 260.492 67.2122H260.72C260.948 67.2122 260.948 66.9842 260.72 66.9842L260.264 66.7562C260.036 66.5282 259.58 66.9842 259.58 66.9842Z" fill="#FFC440"/>
<path d="M262.772 66.9838L260.949 67.8958H260.721L262.544 66.7559L262.772 66.9838Z" fill="#FFC440"/>
<path d="M261.859 68.5802C261.631 68.3523 263.226 67.4403 263.226 67.4403L262.77 67.2124L262.998 66.9844L264.138 67.6683L263.91 67.8963L263.454 67.6683L261.859 68.5802Z" fill="#FFC440"/>
<path d="M263.915 69.7194L263.687 69.4915C263.459 69.4915 263.459 69.2635 263.459 69.2635C263.459 69.2635 263.459 69.0355 263.687 69.0355L264.599 68.5795C264.827 68.5795 264.827 68.3516 265.055 68.3516C265.282 68.3516 265.282 68.3516 265.51 68.5795L265.738 68.8075C265.966 68.8075 265.966 69.0355 265.966 69.0355C265.966 69.0355 265.966 69.2635 265.738 69.2635H265.51H265.282L265.51 69.0355C265.738 69.0355 265.738 68.8075 265.51 68.8075L265.282 68.5795C265.055 68.5795 265.054 68.5795 264.827 68.5795L263.915 69.0355C263.687 69.0355 263.687 69.2635 263.915 69.2635V69.7194C264.143 69.7194 264.371 69.7194 264.599 69.4915H264.827H265.055L264.827 69.7194C264.599 69.7194 264.599 69.9474 264.371 69.9474C264.371 69.9474 264.143 69.9474 263.915 69.7194Z" fill="#FFC440"/>
<path d="M264.822 70.4031C264.594 70.1752 266.873 69.4912 266.873 69.4912C266.873 69.4912 266.873 69.4912 267.101 69.4912L267.329 69.7192L266.189 71.0871H265.961L266.189 70.8591L265.505 70.4031H264.822C265.05 70.4031 265.05 70.4031 264.822 70.4031ZM266.873 69.7192L265.733 70.1752L266.189 70.4031L266.873 69.7192Z" fill="#FFC440"/>
<path d="M266.648 71.3157C266.421 71.0877 268.244 70.1758 268.244 70.1758L268.927 70.6317C269.155 70.6317 269.155 70.8597 269.155 70.8597C269.155 70.8597 269.155 71.0877 268.927 71.0877L268.699 71.3157C268.472 71.5437 268.244 71.5437 268.016 71.3157L267.56 71.9996H267.332L267.56 71.3157L267.332 71.0877C267.332 70.8597 266.648 71.3157 266.648 71.3157ZM267.788 70.8597L268.244 71.0877C268.472 71.0877 268.472 71.0877 268.699 71.0877L268.927 70.8597C269.155 70.8597 269.155 70.6317 268.927 70.6317L268.472 70.4038C268.244 70.4038 267.56 70.8597 267.788 70.8597C267.56 70.8597 267.56 70.8597 267.788 70.8597Z" fill="#FFC440"/>
<path d="M268.017 71.9988L269.84 71.0869L270.751 71.5429C270.979 71.5429 270.979 71.7709 270.979 71.7709C270.979 71.7709 270.979 71.9988 270.751 71.9988L269.84 72.4548C269.612 72.4548 269.612 72.6828 269.384 72.6828C269.156 72.6828 269.156 72.6828 268.928 72.4548L268.017 71.9988C268.017 72.2268 268.017 71.9988 268.017 71.9988ZM268.472 72.2268L268.928 72.4548C269.156 72.4548 269.156 72.4548 269.384 72.4548L270.296 71.9988C270.523 71.9988 270.523 71.7709 270.296 71.7709L269.84 71.5429C269.84 71.3149 268.472 71.9988 268.472 72.2268Z" fill="#FFC440"/>
<defs>
<linearGradient id="paint0_linear_14822_171208" x1="175.549" y1="178.649" x2="221.208" y2="178.649" gradientUnits="userSpaceOnUse">
<stop stop-color="#F0EFEC"/>
<stop offset="1" stop-color="#FFFEFB"/>
</linearGradient>
<linearGradient id="paint1_linear_14822_171208" x1="193.799" y1="161.158" x2="198.904" y2="169.998" gradientUnits="userSpaceOnUse">
<stop stop-color="#C2C1BF"/>
<stop offset="1" stop-color="#E3E2DF"/>
</linearGradient>
<linearGradient id="paint2_linear_14822_171208" x1="181.608" y1="222.426" x2="176.806" y2="222.426" gradientUnits="userSpaceOnUse">
<stop stop-color="#D2D1CE"/>
<stop offset="1" stop-color="#B6B5B3"/>
</linearGradient>
<linearGradient id="paint3_linear_14822_171208" x1="150.643" y1="213.601" x2="262.864" y2="213.601" gradientUnits="userSpaceOnUse">
<stop stop-color="#F0EFEC"/>
<stop offset="1" stop-color="#F6F5F2"/>
</linearGradient>
<radialGradient id="paint4_radial_14822_171208" cx="0" cy="0" r="1" gradientUnits="userSpaceOnUse" gradientTransform="translate(280.278 174.196) scale(28.101 28.1129)">
<stop stop-color="#FDFCF9"/>
<stop offset="1" stop-color="#D2D1CE"/>
</radialGradient>
<linearGradient id="paint5_linear_14822_171208" x1="253.989" y1="105.065" x2="258.558" y2="112.976" gradientUnits="userSpaceOnUse">
<stop offset="0.5025" stop-color="#F8F5F4"/>
<stop offset="1" stop-color="#E8E5E5"/>
</linearGradient>
<linearGradient id="paint6_linear_14822_171208" x1="278.594" y1="124.817" x2="285.36" y2="136.532" gradientUnits="userSpaceOnUse">
<stop offset="0.5025" stop-color="#F8F5F4"/>
<stop offset="1" stop-color="#E8E5E5"/>
</linearGradient>
<linearGradient id="paint7_linear_14822_171208" x1="233.896" y1="80.9692" x2="297.966" y2="80.9692" gradientUnits="userSpaceOnUse">
<stop stop-color="#2735AE"/>
<stop offset="1" stop-color="#4563FF"/>
</linearGradient>
<linearGradient id="paint8_linear_14822_171208" x1="237.827" y1="76.8997" x2="249.542" y2="76.8997" gradientUnits="userSpaceOnUse">
<stop stop-color="#AE5B27"/>
<stop offset="1" stop-color="#BE642D"/>
</linearGradient>
</defs>
</svg>
