<svg width="72" height="72" viewBox="0 0 72 72" fill="none" xmlns="http://www.w3.org/2000/svg">
<path d="M43 1H6C3.23858 1 1 3.23858 1 6V55C1 57.7614 3.23858 60 6 60H54C50.6863 60 48 57.3137 48 54V6C48 3.23858 45.7614 1 43 1Z" stroke="#7B7794" stroke-width="2"/>
<line x1="22" y1="48" x2="9" y2="48" stroke="#7B7794" stroke-width="2" stroke-linecap="round"/>
<circle cx="30.5" cy="48.5" r="2.5" fill="#7B7794"/>
<circle cx="39.5" cy="48.5" r="2.5" fill="#7B7794"/>
<line x1="41" y1="39" x2="9" y2="39" stroke="#7B7794" stroke-width="2" stroke-linecap="round"/>
<line x1="41" y1="31" x2="9" y2="31" stroke="#7B7794" stroke-width="2" stroke-linecap="round"/>
<line x1="41" y1="23" x2="31" y2="23" stroke="#7B7794" stroke-width="2" stroke-linecap="round"/>
<line x1="41" y1="15" x2="31" y2="15" stroke="#7B7794" stroke-width="2" stroke-linecap="round"/>
<rect x="9" y="9" width="14" height="14" rx="2" stroke="#7B7794" stroke-width="2"/>
<path d="M48 24H56C58.2091 24 60 25.7909 60 28V54C60 57.3137 57.3137 60 54 60C50.6863 60 48 57.3137 48 54V24Z" stroke="#7B7794" stroke-width="2"/>
</svg>
