<svg width="128" height="129" viewBox="0 0 128 129" fill="none" xmlns="http://www.w3.org/2000/svg">
<g clip-path="url(#clip0_14814_151726)">
<path d="M37.2013 26.2311L19.6013 22.5311C18.6013 22.3311 17.5013 22.5311 16.6013 23.1311C15.7013 23.7311 15.1013 24.6311 14.9013 25.6311L-0.398654 98.0311C-0.898654 100.231 0.501322 102.331 2.70132 102.731L20.3013 106.431C20.6013 106.531 20.9013 106.531 21.1013 106.531C21.9013 106.531 22.6013 106.331 23.3013 105.831C24.2013 105.231 24.8014 104.331 25.0014 103.331L40.3013 30.9311C40.7013 28.8311 39.3013 26.7311 37.2013 26.2311ZM22.2013 104.231C21.8013 104.531 21.2013 104.631 20.7013 104.531L3.10135 100.831C2.00135 100.631 1.30131 99.5311 1.50131 98.4311L16.8013 26.0311C16.9013 25.5311 17.2013 25.0311 17.7013 24.7311C18.0013 24.5311 18.4013 24.4311 18.8013 24.4311C18.9013 24.4311 19.1013 24.4311 19.2013 24.4311L36.8013 28.1311C37.9013 28.3311 38.6013 29.4311 38.4013 30.5311L23.1013 102.931C22.9013 103.531 22.6013 103.931 22.2013 104.231Z" fill="#4563FF"/>
<path d="M15.9013 83.6311C13.8013 83.2311 11.7013 83.6311 9.90129 84.7311C8.10129 85.9311 6.90129 87.7311 6.40129 89.8311C5.50129 94.1311 8.30136 98.4311 12.6014 99.3311C13.2014 99.4311 13.7013 99.5311 14.3013 99.5311C18.0013 99.5311 21.3014 96.9311 22.1014 93.2311C22.5014 91.1311 22.1014 89.0311 21.0014 87.2311C19.8014 85.3311 18.0013 84.0311 15.9013 83.6311ZM20.1014 92.6311C19.4014 95.8311 16.2014 97.9311 13.0014 97.2311C9.80138 96.5311 7.70129 93.3311 8.40129 90.1311C8.70129 88.5311 9.70138 87.2311 11.0014 86.3311C12.0014 85.7311 13.1013 85.3311 14.3013 85.3311C14.7013 85.3311 15.1014 85.3311 15.6014 85.4311C17.2014 85.7311 18.5013 86.7311 19.4013 88.0311C20.0013 89.0311 20.4013 90.1311 20.4013 91.3311C20.2013 91.8311 20.2014 92.2311 20.1014 92.6311Z" fill="#4563FF"/>
<path d="M64.4014 23.5303H46.4014C44.2014 23.5303 42.4014 25.3303 42.4014 27.5303V101.53C42.4014 103.73 44.2014 105.53 46.4014 105.53H64.4014C66.6014 105.53 68.4014 103.73 68.4014 101.53V27.5303C68.4014 25.3303 66.6014 23.5303 64.4014 23.5303ZM55.4014 100.03C51.0014 100.03 47.4014 96.4303 47.4014 92.0303C47.4014 87.6303 51.0014 84.0303 55.4014 84.0303C59.8014 84.0303 63.4014 87.6303 63.4014 92.0303C63.4014 96.4303 59.8014 100.03 55.4014 100.03Z" fill="#4563FF"/>
<path d="M92.4014 23.5303H74.4014C72.2014 23.5303 70.4014 25.3303 70.4014 27.5303V101.53C70.4014 103.73 72.2014 105.53 74.4014 105.53H92.4014C94.6014 105.53 96.4014 103.73 96.4014 101.53V27.5303C96.4014 25.3303 94.6014 23.5303 92.4014 23.5303ZM83.4014 100.03C79.0014 100.03 75.4014 96.4303 75.4014 92.0303C75.4014 87.6303 79.0014 84.0303 83.4014 84.0303C87.8014 84.0303 91.4014 87.6303 91.4014 92.0303C91.4014 96.4303 87.8014 100.03 83.4014 100.03Z" fill="#FF0029"/>
</g>
<defs>
<clipPath id="clip0_14814_151726">
<rect width="128" height="128" fill="white" transform="translate(0 0.530273)"/>
</clipPath>
</defs>
</svg>
