<svg width="75" height="63" viewBox="0 0 75 63" fill="none" xmlns="http://www.w3.org/2000/svg">
<path opacity="0.61" d="M10.8938 57.2514L10.1404 57.1357C10.3822 57.1953 10.6345 57.2339 10.8938 57.2514Z" fill="#4664FF"/>
<path d="M71.2472 4.94727H8.35282C6.28169 4.94727 4.60303 6.62589 4.60303 8.69702V11.003H65.0583C67.508 11.003 69.495 12.99 69.495 15.4396V38.2991C69.495 38.7863 69.099 39.1788 68.6154 39.1788H67.4099L67.3958 57.2617H68.8993C70.9704 57.2617 72.649 55.5831 72.649 53.512L72.6665 42.3117H74.1454C74.6185 42.3117 75.0005 41.9298 75.0005 41.4567V8.69352C74.997 6.62589 73.3184 4.94727 71.2472 4.94727Z" fill="#4664FF"/>
<path d="M26.2217 12.6535V5.23811C26.2217 3.45084 27.6725 2 29.4598 2H39.3143C41.1016 2 42.5524 3.45084 42.5524 5.23811V12.6535" stroke="#FF0028" stroke-width="3.50445" stroke-miterlimit="10" stroke-linejoin="round"/>
<path d="M62.5101 61.5305C64.2974 61.5305 65.7482 60.0797 65.7482 58.2924L65.7658 37.546H67.7773V15.8885C67.7773 14.1012 66.3265 12.6504 64.5392 12.6504H4.23811C2.45084 12.6504 1 14.1012 1 15.8885V37.546H3.02203V57.8999C3.02203 59.9044 4.64814 61.5305 6.65268 61.5305H62.5101Z" stroke="#4664FF" stroke-width="1.577" stroke-miterlimit="10" stroke-linecap="round" stroke-linejoin="round"/>
<path d="M53.3567 37.5459H67.774" stroke="#4664FF" stroke-width="1.577" stroke-miterlimit="10" stroke-linecap="round" stroke-linejoin="round"/>
<path d="M15.4173 34.2656H11.6641V40.8225H15.4173V34.2656Z" fill="#4664FF" stroke="#4664FF" stroke-width="1.577" stroke-miterlimit="10" stroke-linecap="round" stroke-linejoin="round"/>
<path d="M57.11 34.2656H53.3567V40.8225H57.11V34.2656Z" fill="#4664FF" stroke="#4664FF" stroke-width="1.577" stroke-miterlimit="10" stroke-linecap="round" stroke-linejoin="round"/>
<path d="M17.0857 37.5459H59.2128" stroke="#4664FF" stroke-width="1.577" stroke-miterlimit="10" stroke-linecap="round" stroke-linejoin="round"/>
<path d="M1 37.5459H17.0854" stroke="#4664FF" stroke-width="1.577" stroke-miterlimit="10" stroke-linecap="round" stroke-linejoin="round"/>
<path d="M24.2698 30.6072V26.3773C24.2698 25.9323 24.6308 25.5713 25.0758 25.5713H43.702C44.1471 25.5713 44.508 25.9323 44.508 26.3773V30.6072C44.508 31.0523 44.1471 31.4132 43.702 31.4132H25.0758C24.6308 31.4132 24.2698 31.0523 24.2698 30.6072Z" fill="#FF0028" stroke="#FF0028" stroke-width="1.577" stroke-miterlimit="10" stroke-linecap="round" stroke-linejoin="round"/>
<path d="M10.3288 61.5304H5.73095C4.63406 61.5304 3.02197 59.6941 3.02197 58.5972V54.2236H6.60005C8.66067 54.2236 10.3288 55.8953 10.3288 57.9524V61.5304Z" fill="#4664FF" stroke="#4664FF" stroke-width="0.700891" stroke-miterlimit="10" stroke-linecap="round" stroke-linejoin="round"/>
<path d="M65.7238 54.2236V58.9476C65.7238 60.0445 64.301 61.5304 63.2041 61.5304H58.417V57.9524C58.417 55.8918 60.0886 54.2236 62.1457 54.2236H65.7238Z" fill="#4664FF" stroke="#4664FF" stroke-width="0.700891" stroke-miterlimit="10" stroke-linecap="round" stroke-linejoin="round"/>
</svg>
