<svg width="75" height="87" viewBox="0 0 75 87" fill="none" xmlns="http://www.w3.org/2000/svg">
<path d="M11.2592 16.0873C11.2592 13.4428 13.4033 11.2943 16.0522 11.2943H62.4813L67.7532 16.1046L74.0001 21.8079V80.4115C74.0001 83.0561 71.856 85.2045 69.2071 85.2045H16.0479C13.4033 85.2045 11.2549 83.0604 11.2549 80.4115V16.0873H11.2592Z" stroke="#4664FF" stroke-width="1.94137" stroke-miterlimit="10" stroke-linecap="round" stroke-linejoin="round"/>
<path d="M19.5 59.3323H65.3812" stroke="#4664FF" stroke-width="1.94137" stroke-miterlimit="10" stroke-linecap="round" stroke-linejoin="round"/>
<path d="M19.5 67.0769H65.3812" stroke="#4664FF" stroke-width="1.94137" stroke-miterlimit="10" stroke-linecap="round" stroke-linejoin="round"/>
<path d="M19.5 74.8163H65.3812" stroke="#4664FF" stroke-width="1.94137" stroke-miterlimit="10" stroke-linecap="round" stroke-linejoin="round"/>
<path d="M51.8363 50.4282H33.0481C32.3147 50.4282 31.7236 49.8803 31.7236 49.203V34.5349C31.7236 34.3709 31.797 34.2113 31.9221 34.0948L42.44 24.6252L52.9579 34.0948C53.0874 34.2113 53.1564 34.3666 53.1564 34.5349V49.203C53.1607 49.8803 52.5654 50.4282 51.8363 50.4282Z" fill="#FF0028" stroke="#FF0028" stroke-width="1.94137" stroke-miterlimit="10" stroke-linecap="round" stroke-linejoin="round"/>
<path d="M56.4852 34.8154L42.3391 22.0757L28.4043 34.8154H56.4852Z" fill="#FF0028" stroke="#FF0028" stroke-width="1.94137" stroke-miterlimit="10" stroke-linecap="round" stroke-linejoin="round"/>
<path d="M62.4766 11.2986V19.4178C62.4766 20.7423 63.5508 21.8122 64.8709 21.8122H73.9954L62.4766 11.2986Z" fill="#4664FF" stroke="#4664FF" stroke-width="1.94137" stroke-miterlimit="10" stroke-linecap="round" stroke-linejoin="round"/>
<path d="M8.09769 75.0622V13.8528C8.09769 10.6733 10.6732 8.09769 13.8528 8.09769H63.4527V3.8353C63.4527 1.71704 61.7357 0 59.6174 0H3.8353C1.71704 0 0 1.71704 0 3.8353V71.2269C0 73.3451 1.71704 75.0622 3.8353 75.0622H8.09769Z" fill="#4664FF"/>
</svg>
