<svg width="128" height="128" viewBox="0 0 128 128" fill="none" xmlns="http://www.w3.org/2000/svg">
<path fill-rule="evenodd" clip-rule="evenodd" d="M7 47C7 44.7909 8.79086 43 11 43H86C88.2091 43 90 44.7909 90 47V94C90 96.2091 88.2091 98 86 98H85V54C85 50.6863 82.3137 48 79 48H7V47Z" fill="#4563FF"/>
<rect x="1" y="51" width="81" height="53" rx="3" stroke="#4563FF" stroke-width="2"/>
<path d="M7 57L35.7089 81.1321C39.0568 83.9463 43.9432 83.9463 47.2911 81.1321L76 57" stroke="#4563FF" stroke-width="2"/>
<path d="M50.3 21C52.7 21 54.6 22.9 54.6 25.3C54.6 27.7 52.7 29.6 50.3 29.6C47.9 29.6 46 27.7 46 25.3C46.1 22.9 48 21 50.3 21ZM50.3 19C46.8 19 44 21.8 44 25.3C44 28.8 46.8 31.6 50.3 31.6C53.8 31.6 56.6 28.8 56.6 25.3C56.6 21.8 53.8 19 50.3 19Z" fill="#4563FF"/>
<path d="M83.8996 31.6C87.379 31.6 90.1996 28.7794 90.1996 25.3C90.1996 21.8206 87.379 19 83.8996 19C80.4202 19 77.5996 21.8206 77.5996 25.3C77.5996 28.7794 80.4202 31.6 83.8996 31.6Z" fill="#FF0029"/>
<path d="M67.3 31.6C70.7794 31.6 73.6 28.7794 73.6 25.3C73.6 21.8206 70.7794 19 67.3 19C63.8206 19 61 21.8206 61 25.3C61 28.7794 63.8206 31.6 67.3 31.6Z" fill="#4563FF"/>
</svg>
