<svg width="92" height="73" viewBox="0 0 92 73" fill="none" xmlns="http://www.w3.org/2000/svg">
<path d="M88.3 0H85.8275H12.2627C10.2255 0 8.57031 1.64407 8.57031 3.67668V7.45151H76.9477C79.8967 7.45151 82.2871 9.83174 82.2871 12.7682C82.2871 12.7682 82.2788 50.7251 82.2747 64.2458C82.2747 66.9205 84.4515 69.084 87.1376 69.084C89.8238 69.084 92.0006 66.9164 92.0006 64.2417V3.67258C91.9924 1.64816 90.3372 0 88.3 0Z" fill="#4664FF"/>
<path d="M5.56319 72.0001H86.102L83.4364 70.6096C81.161 69.4236 79.7316 67.076 79.7316 64.5159V13.7621C79.7316 11.7336 78.0805 10.0854 76.0392 10.0854H73.5668H4.69245C2.65526 10.0854 1 11.7295 1 13.7621V67.4564C1.00411 69.9634 3.04545 72.0001 5.56319 72.0001Z" stroke="#4664FF" stroke-width="1.84826" stroke-miterlimit="10" stroke-linecap="round" stroke-linejoin="round"/>
<path d="M31.9531 35.3242L50.2057 46.3829" stroke="#4664FF" stroke-width="1.84826" stroke-miterlimit="10" stroke-linecap="round" stroke-linejoin="round"/>
<path d="M27.7565 37.4297C30.6509 37.4297 32.9973 35.0933 32.9973 32.2112C32.9973 29.3291 30.6509 26.9927 27.7565 26.9927C24.862 26.9927 22.5156 29.3291 22.5156 32.2112C22.5156 35.0933 24.862 37.4297 27.7565 37.4297Z" stroke="#4664FF" stroke-width="1.84826" stroke-miterlimit="10"/>
<path d="M25.48 36.9062L17.1875 53.0403" stroke="#4664FF" stroke-width="1.84826" stroke-miterlimit="10" stroke-linecap="round" stroke-linejoin="round"/>
<path d="M51.7031 43.4543L63.076 26.3633" stroke="#4664FF" stroke-width="1.84826" stroke-miterlimit="10" stroke-linecap="round" stroke-linejoin="round"/>
<path d="M50.4283 51.2373C53.3228 51.2373 55.6692 48.9009 55.6692 46.0188C55.6692 43.1367 53.3228 40.8003 50.4283 40.8003C47.5339 40.8003 45.1875 43.1367 45.1875 46.0188C45.1875 48.9009 47.5339 51.2373 50.4283 51.2373Z" fill="#FF0028" stroke="#FF0028" stroke-width="1.84826" stroke-miterlimit="10"/>
<path d="M16.9788 56.5289C18.2832 56.5289 19.3405 55.476 19.3405 54.1773C19.3405 52.8785 18.2832 51.8257 16.9788 51.8257C15.6745 51.8257 14.6172 52.8785 14.6172 54.1773C14.6172 55.476 15.6745 56.5289 16.9788 56.5289Z" fill="#4664FF" stroke="#4664FF" stroke-width="1.84826" stroke-miterlimit="10"/>
<path d="M63.0726 28.7149C64.3769 28.7149 65.4343 27.6621 65.4343 26.3633C65.4343 25.0646 64.3769 24.0117 63.0726 24.0117C61.7683 24.0117 60.7109 25.0646 60.7109 26.3633C60.7109 27.6621 61.7683 28.7149 63.0726 28.7149Z" fill="#4664FF" stroke="#4664FF" stroke-width="1.84826" stroke-miterlimit="10"/>
</svg>
