<svg width="121" height="22" viewBox="0 0 121 22" fill="none" xmlns="http://www.w3.org/2000/svg">
<g clip-path="url(#clip0_10789_13530)">
<path d="M52.9561 0.0602493V21.9999H49.1393V12.4138H37.7827V22.0017H33.9658V0.0602493H37.7827V8.97146H49.1393V0.0602493H52.9561Z" fill="black"/>
<path d="M68.29 8.69527C73.2526 8.69527 76.0517 11.1535 76.0517 15.3329C76.0517 19.5124 73.2526 22.0017 68.29 22.0017H58.0791V0.0602493H74.1743V3.40927H61.896V8.69527H68.29ZM67.6222 18.7423C71.0253 18.7423 72.2029 17.451 72.2029 15.2397C72.2029 13.0576 70.9632 11.7681 67.6222 11.7681H61.896V18.7442H67.6222V18.7423Z" fill="black"/>
<path d="M79.8115 0.0602493H83.6284V9.03364H89.7685L94.1272 0.0602493H98.072L92.9815 10.7237L98.3579 22.0017H94.4131L89.7685 12.3827H83.6284V21.9999H79.8115V0.0602493Z" fill="black"/>
<path d="M105.444 0.0602493V17.1456H106.208L115.591 0.0602493H121V21.9999H117.373V4.91459H116.609L107.226 21.9999H101.817V0.0602493H105.444Z" fill="black"/>
<path d="M4.13825 16.7836C4.96784 16.7836 5.64318 17.4311 5.64318 18.2286C5.64318 19.0261 4.96784 19.6736 4.13825 19.6736C3.30866 19.6736 2.63332 19.0261 2.63332 18.2286C2.63332 17.433 3.30866 16.7836 4.13825 16.7836ZM4.13825 16.052C2.89104 16.052 1.88086 17.0269 1.88086 18.2286C1.88086 19.4303 2.89104 20.4052 4.13825 20.4052C5.38546 20.4052 6.39565 19.4303 6.39565 18.2286C6.39565 17.0269 5.38546 16.052 4.13825 16.052Z" fill="#4563FF"/>
<path d="M7.71289 21.9488H15.2375V0H7.71289V21.9488ZM11.4752 20.4855C10.228 20.4855 9.21782 19.5033 9.21782 18.2907C9.21782 17.078 10.228 16.0958 11.4752 16.0958C12.7224 16.0958 13.7326 17.078 13.7326 18.2907C13.7326 19.5033 12.7224 20.4855 11.4752 20.4855Z" fill="#4563FF"/>
<path d="M20.8808 0H15.2373V21.9488H20.8808C21.9192 21.9488 22.7619 21.1294 22.7619 20.1197V1.82907C22.7619 0.819421 21.9192 0 20.8808 0ZM18.9996 20.4855C17.7524 20.4855 16.7422 19.5033 16.7422 18.2907C16.7422 17.078 17.7524 16.0958 18.9996 16.0958C20.2468 16.0958 21.257 17.078 21.257 18.2907C21.257 19.5033 20.2468 20.4855 18.9996 20.4855Z" fill="#FF0029"/>
<path d="M8.08899 0.731626V21.2172H1.88116C1.2585 21.2172 0.752464 20.7251 0.752464 20.1197V1.82907C0.752464 1.22364 1.2585 0.731626 1.88116 0.731626H8.08899ZM8.84145 0H1.88116C0.84276 0 0 0.819421 0 1.82907V20.1197C0 21.1294 0.84276 21.9488 1.88116 21.9488H8.84145V0Z" fill="#4563FF"/>
</g>
<defs>
<clipPath id="clip0_10789_13530">
<rect width="121" height="22" fill="white"/>
</clipPath>
</defs>
</svg>
