<svg width="101" height="76" viewBox="0 0 101 76" fill="none" xmlns="http://www.w3.org/2000/svg">
<path d="M27.5902 25.6073C34.9837 25.6073 40.9773 22.4142 40.9773 18.4753C40.9773 14.5364 34.9837 11.3433 27.5902 11.3433C20.1967 11.3433 14.2031 14.5364 14.2031 18.4753C14.2031 22.4142 20.1967 25.6073 27.5902 25.6073Z" fill="#4664FF" stroke="#4664FF" stroke-width="2.93487" stroke-miterlimit="10" stroke-linecap="round" stroke-linejoin="round"/>
<path d="M40.9773 27.4656C40.9773 31.4041 34.9844 34.5976 27.5902 34.5976C20.196 34.5976 14.2031 31.4041 14.2031 27.4656" stroke="#4664FF" stroke-width="2.93487" stroke-miterlimit="10" stroke-linecap="round" stroke-linejoin="round"/>
<path d="M60.1371 16.264C67.5306 16.264 73.5241 13.0709 73.5241 9.132C73.5241 5.1931 67.5306 2 60.1371 2C52.7436 2 46.75 5.1931 46.75 9.132C46.75 13.0709 52.7436 16.264 60.1371 16.264Z" fill="#4664FF" stroke="#4664FF" stroke-width="2.93487" stroke-miterlimit="10" stroke-linecap="round" stroke-linejoin="round"/>
<path d="M73.5241 18.1213C73.5241 22.0599 67.5313 25.2533 60.1371 25.2533C52.7429 25.2533 46.75 22.0599 46.75 18.1213" stroke="#4664FF" stroke-width="2.93487" stroke-miterlimit="10" stroke-linecap="round" stroke-linejoin="round"/>
<path d="M73.5241 27.4534C73.5241 31.3919 67.5313 34.5854 60.1371 34.5854C52.7429 34.5854 46.75 31.3919 46.75 27.4534" stroke="#4664FF" stroke-width="2.93487" stroke-miterlimit="10" stroke-linecap="round" stroke-linejoin="round"/>
<path d="M2.71734 45.4008C4.13655 42.9998 7.07037 41.9413 9.712 42.8697L38.0962 54.0941C37.3806 53.2425 36.9334 52.1603 36.8917 50.9716C36.7843 48.0325 39.1576 45.596 42.1213 45.596L95.6457 45.7202C97.4048 45.7202 98.8359 47.1336 98.8359 48.884V70.8359C98.8359 72.5805 97.4108 73.9998 95.6457 73.9998H76.4148C74.3039 73.9998 72.5806 72.3144 72.5567 70.2209L72.4256 67.5952L45.556 70.7413C42.8786 71.0311 40.1713 70.5639 37.7503 69.3871L8.99643 55.3951C5.54381 53.7097 0.0220347 50.8238 2.71734 45.4008Z" stroke="#4664FF" stroke-width="2.93487" stroke-miterlimit="10" stroke-linecap="round" stroke-linejoin="round"/>
<path d="M62.013 56.2936H43.9926C40.1643 56.2936 37.0278 54.0819 36.8906 51.2847" stroke="#4664FF" stroke-width="2.93487" stroke-miterlimit="10" stroke-linecap="round" stroke-linejoin="round"/>
<path d="M72.4141 67.5903V45.6621" stroke="#4664FF" stroke-width="1.30439" stroke-miterlimit="10" stroke-linecap="round" stroke-linejoin="round"/>
<path d="M95.5992 47.0676H73.5V69.67C73.5 71.6807 75.1279 73.307 77.1434 73.307H95.6051C96.8156 73.307 97.7995 72.3253 97.7995 71.1189V49.2616C97.7935 48.0434 96.8097 47.0676 95.5992 47.0676Z" fill="#4664FF" stroke="#4664FF" stroke-width="1.30439" stroke-miterlimit="10" stroke-linecap="round" stroke-linejoin="round"/>
</svg>
