<svg width="72" height="73" viewBox="0 0 72 73" fill="none" xmlns="http://www.w3.org/2000/svg">
<path fill-rule="evenodd" clip-rule="evenodd" d="M6 2.16992C3.79086 2.16992 2 3.96078 2 6.16992V66.1699C2 68.3791 3.79086 70.1699 6 70.1699H52C54.2091 70.1699 56 68.3791 56 66.1699V21.0528L39.0538 2.16992H6ZM0 6.16992C0 2.85622 2.68629 0.169922 6 0.169922H39.5C39.784 0.169922 40.0546 0.290662 40.2442 0.502012L57.7442 20.002C57.9089 20.1855 58 20.4234 58 20.6699V66.1699C58 69.4836 55.3137 72.1699 52 72.1699H6C2.68629 72.1699 0 69.4836 0 66.1699V6.16992Z" fill="#7B7794"/>
<path fill-rule="evenodd" clip-rule="evenodd" d="M38 16.1699V2.16992H40V16.1699C40 18.3791 41.7909 20.1699 44 20.1699H56V22.1699H44C40.6863 22.1699 38 19.4836 38 16.1699Z" fill="#7B7794"/>
</svg>
