<svg width="67" height="65" viewBox="0 0 67 65" fill="none" xmlns="http://www.w3.org/2000/svg">
<path d="M59.6807 28.8887L65.0973 28.8887" stroke="#7B7794" stroke-width="2" stroke-linecap="round"/>
<path d="M59.6807 10.833L65.0973 10.833" stroke="#7B7794" stroke-width="2" stroke-linecap="round"/>
<path d="M59.6807 46.9443L65.0973 46.9443" stroke="#7B7794" stroke-width="2" stroke-linecap="round"/>
<path d="M9.125 35.208V50.5552C9.125 53.0482 11.1459 55.0691 13.6389 55.0691V55.0691C16.1318 55.0691 18.1528 53.0482 18.1528 50.5552V39.7219" stroke="#7B7794" stroke-width="2" stroke-linecap="round"/>
<rect x="41.625" y="8.125" width="9.02778" height="41.5278" rx="3" stroke="#7B7794" stroke-width="2"/>
<path d="M41.6246 43.3332L26.9815 34.7196C26.5204 34.4485 25.9953 34.3054 25.4604 34.3054H4.90234C3.24549 34.3054 1.90234 32.9623 1.90234 31.3054V26.4721C1.90234 24.8153 3.24549 23.4721 4.90234 23.4721H25.4604C25.9953 23.4721 26.5204 23.3291 26.9815 23.0579L41.6246 14.4443V43.3332Z" stroke="#7B7794" stroke-width="2"/>
<path d="M55.264 33.4031V24.3753H53.264V33.4031H55.264ZM55.264 24.3753C55.264 22.3273 53.6037 20.667 51.5557 20.667V22.667C52.4992 22.667 53.264 23.4318 53.264 24.3753H55.264ZM51.5557 37.1114C53.6037 37.1114 55.264 35.4512 55.264 33.4031H53.264C53.264 34.3466 52.4991 35.1114 51.5557 35.1114V37.1114Z" fill="#7B7794"/>
<path d="M29 30V34" stroke="#7B7794" stroke-width="2" stroke-linecap="round"/>
</svg>
