<svg width="129" height="128" viewBox="0 0 129 128" fill="none" xmlns="http://www.w3.org/2000/svg">
<g clip-path="url(#clip0_11713_133701)">
<path d="M69.2838 82.4954C74.3388 82.4954 78.4366 80.294 78.4366 77.5785C78.4366 74.863 74.3388 72.6616 69.2838 72.6616C64.2288 72.6616 60.1309 74.863 60.1309 77.5785C60.1309 80.294 64.2288 82.4954 69.2838 82.4954Z" fill="#4664FF" stroke="#4664FF" stroke-width="2.0066" stroke-miterlimit="10" stroke-linecap="round" stroke-linejoin="round"/>
<path d="M78.4425 83.7764C78.4425 86.4917 74.3451 88.6932 69.2896 88.6932C64.2341 88.6932 60.1367 86.4917 60.1367 83.7764" stroke="#4664FF" stroke-width="2.0066" stroke-miterlimit="10" stroke-linecap="round" stroke-linejoin="round"/>
<path d="M91.5338 76.054C96.5888 76.054 100.687 73.8526 100.687 71.1371C100.687 68.4216 96.5888 66.2202 91.5338 66.2202C86.4788 66.2202 82.3809 68.4216 82.3809 71.1371C82.3809 73.8526 86.4788 76.054 91.5338 76.054Z" fill="#4664FF" stroke="#4664FF" stroke-width="2.0066" stroke-miterlimit="10" stroke-linecap="round" stroke-linejoin="round"/>
<path d="M100.687 77.3341C100.687 80.0494 96.5893 82.251 91.5338 82.251C86.4783 82.251 82.3809 80.0494 82.3809 77.3341" stroke="#4664FF" stroke-width="2.0066" stroke-miterlimit="10" stroke-linecap="round" stroke-linejoin="round"/>
<path d="M100.687 83.7676C100.687 86.4829 96.5893 88.6845 91.5338 88.6845C86.4783 88.6845 82.3809 86.4829 82.3809 83.7676" stroke="#4664FF" stroke-width="2.0066" stroke-miterlimit="10" stroke-linecap="round" stroke-linejoin="round"/>
<path d="M52.2795 96.1416C53.2498 94.4863 55.2557 93.7565 57.0618 94.3966L76.4685 102.135C75.9792 101.548 75.6734 100.802 75.6449 99.9821C75.5715 97.9558 77.1942 96.2761 79.2204 96.2761L115.816 96.3617C117.018 96.3617 117.997 97.3361 117.997 98.5429V113.677C117.997 114.88 117.023 115.858 115.816 115.858H102.667C101.224 115.858 100.046 114.696 100.03 113.253L99.9398 111.443L81.5688 113.612C79.7382 113.811 77.8873 113.489 76.232 112.678L56.5726 103.032C54.212 101.87 50.4367 99.8802 52.2795 96.1416Z" stroke="#4664FF" stroke-width="2.0066" stroke-miterlimit="10" stroke-linecap="round" stroke-linejoin="round"/>
<path d="M92.819 103.651H80.4983C77.8808 103.651 75.7363 102.127 75.6426 100.198" stroke="#4664FF" stroke-width="2.0066" stroke-miterlimit="10" stroke-linecap="round" stroke-linejoin="round"/>
<path d="M99.9414 111.439V96.321" stroke="#4664FF" stroke-width="2" stroke-miterlimit="10" stroke-linecap="round" stroke-linejoin="round"/>
<path d="M66.7174 57.0755C65.7471 55.4202 63.7412 54.6905 61.9351 55.3306L42.5285 63.0687C43.0177 62.4816 43.3235 61.7355 43.352 60.9161C43.4254 58.8898 41.8028 57.2101 39.7765 57.2101L3.18122 57.2957C1.9785 57.2957 1 58.2701 1 59.4769V74.6108C1 75.8135 1.97442 76.792 3.18122 76.792H16.3296C17.7729 76.792 18.9511 75.63 18.9674 74.1868L19.0571 72.3766L37.4282 74.5455C39.2587 74.7453 41.1097 74.4232 42.765 73.6119L62.4243 63.9657C64.7849 62.8078 68.5602 60.8141 66.7174 57.0755Z" stroke="#4664FF" stroke-width="2.0066" stroke-miterlimit="10" stroke-linecap="round" stroke-linejoin="round"/>
<path d="M26.1758 64.5853H38.4965C41.114 64.5853 43.2585 63.0605 43.3523 61.1321" stroke="#4664FF" stroke-width="2.0066" stroke-miterlimit="10" stroke-linecap="round" stroke-linejoin="round"/>
<path d="M19.0547 72.3768V57.2593" stroke="#4664FF" stroke-width="2" stroke-miterlimit="10" stroke-linecap="round" stroke-linejoin="round"/>
<path d="M49.6175 48.473H24.9108C23.9486 48.473 23.1699 47.7514 23.1699 46.8626V27.5742C23.1699 27.3581 23.2637 27.1502 23.4349 26.9994L37.2682 14.5441L51.1016 26.9994C51.2687 27.1502 51.3666 27.3581 51.3666 27.5742V46.8626C51.3625 47.7514 50.5797 48.473 49.6175 48.473Z" fill="#FF0028" stroke="#FF0028" stroke-width="2.0066" stroke-miterlimit="10" stroke-linecap="round" stroke-linejoin="round"/>
<path d="M55.7325 27.9413L37.1291 11.1848L18.7988 27.9413H55.7325Z" fill="#FF0028" stroke="#FF0028" stroke-width="2.0066" stroke-miterlimit="10" stroke-linecap="round" stroke-linejoin="round"/>
</g>
<defs>
<clipPath id="clip0_11713_133701">
<rect width="128" height="128" fill="white" transform="translate(0.5)"/>
</clipPath>
</defs>
</svg>
