<svg width="128" height="128" viewBox="0 0 128 128" fill="none" xmlns="http://www.w3.org/2000/svg">
<path d="M119.699 16.0996H35.1992C32.3992 16.0996 30.1992 18.2996 30.1992 21.0996V22.5996H110.299C114.699 22.5996 118.299 26.1996 118.299 30.5996V72.8996H119.799C122.599 72.8996 124.799 70.6996 124.799 67.8996V21.0996C124.699 18.2996 122.399 16.0996 119.699 16.0996Z" fill="#4563FF"/>
<path d="M79.8984 37.0996C82.6984 37.0996 84.8984 39.2996 84.8984 42.0996C84.8984 44.8996 82.6984 47.0996 79.8984 47.0996C77.0984 47.0996 74.8984 44.8996 74.8984 42.0996C74.8984 39.2996 77.0984 37.0996 79.8984 37.0996ZM79.8984 35.0996C75.9984 35.0996 72.8984 38.1996 72.8984 42.0996C72.8984 45.9996 75.9984 49.0996 79.8984 49.0996C83.7984 49.0996 86.8984 45.9996 86.8984 42.0996C86.8984 38.1996 83.6984 35.0996 79.8984 35.0996Z" fill="#4563FF"/>
<path d="M98.5 49.0996C102.366 49.0996 105.5 45.9656 105.5 42.0996C105.5 38.2336 102.366 35.0996 98.5 35.0996C94.634 35.0996 91.5 38.2336 91.5 42.0996C91.5 45.9656 94.634 49.0996 98.5 49.0996Z" fill="#FF0029"/>
<path d="M110.199 24.5H25.6992C22.3992 24.5 19.6992 27.2 19.6992 30.5V59.6C10.4992 61.9 3.69922 70.1 3.69922 80C3.69922 91.6 13.0992 101 24.6992 101C35.1992 101 43.7992 93.3 45.3992 83.3H110.199C113.499 83.3 116.199 80.6 116.199 77.3V30.5C116.199 27.2 113.499 24.5 110.199 24.5ZM24.6992 99C14.1992 99 5.69922 90.5 5.69922 80C5.69922 69.5 14.1992 61 24.6992 61C35.1992 61 43.6992 69.5 43.6992 80C43.6992 90.5 35.0992 99 24.6992 99ZM114.199 77.3C114.199 79.5 112.399 81.3 110.199 81.3H45.5992C45.5992 80.9 45.6992 80.5 45.6992 80C45.6992 68.4 36.2992 59 24.6992 59C23.6992 59 22.6992 59.1 21.6992 59.2V30.5C21.6992 28.3 23.4992 26.5 25.6992 26.5H110.199C112.399 26.5 114.199 28.3 114.199 30.5V77.3Z" fill="#4563FF"/>
<path d="M26.0821 78.1961V70.837H23.8369V78.1961L24.2361 83.9336H25.658L26.0821 78.1961ZM23.6623 85.7547V88.6484H26.2567V85.7547H23.6623Z" fill="#4563FF"/>
</svg>
