<svg width="128" height="128" viewBox="0 0 128 128" fill="none" xmlns="http://www.w3.org/2000/svg">
<path opacity="0.61" d="M15.6362 97.157L14.5977 96.9976C14.931 97.0797 15.2788 97.1328 15.6362 97.157Z" fill="#4664FF"/>
<path d="M98.8262 25.0625H12.134C9.27916 25.0625 6.96533 27.3763 6.96533 30.2311V33.4095H90.2956C93.6721 33.4095 96.411 36.1484 96.411 39.5249V71.034C96.411 71.7054 95.8652 72.2464 95.1986 72.2464H93.5369L93.5176 97.1716H95.5899C98.4447 97.1716 100.758 94.8578 100.758 92.003L100.783 76.5649H102.821C103.473 76.5649 104 76.0384 104 75.3862V30.2263C103.995 27.3763 101.681 25.0625 98.8262 25.0625Z" fill="#4664FF"/>
<path d="M36.7646 35.6846V25.4633C36.7646 22.9998 38.7645 21 41.228 21H54.8112C57.2748 21 59.2746 22.9998 59.2746 25.4633V35.6846" stroke="#FF0028" stroke-width="4.83046" stroke-miterlimit="10" stroke-linejoin="round"/>
<path d="M86.7842 103.055C89.2478 103.055 91.2476 101.056 91.2476 98.5921L91.2717 69.9958H94.0444V40.1435C94.0444 37.68 92.0446 35.6802 89.5811 35.6802H6.46334C3.99981 35.6802 2 37.68 2 40.1435V69.9958H4.78713V98.0511C4.78713 100.814 7.02851 103.055 9.79154 103.055H86.7842Z" stroke="#4664FF" stroke-width="2.17371" stroke-miterlimit="10" stroke-linecap="round" stroke-linejoin="round"/>
<path d="M74.167 69.9954H94.0395" stroke="#4664FF" stroke-width="2.17371" stroke-miterlimit="10" stroke-linecap="round" stroke-linejoin="round"/>
<path d="M21.8726 65.4742H16.6992V74.512H21.8726V65.4742Z" fill="#4664FF" stroke="#4664FF" stroke-width="2.17371" stroke-miterlimit="10" stroke-linecap="round" stroke-linejoin="round"/>
<path d="M79.3405 65.4742H74.167V74.512H79.3405V65.4742Z" fill="#4664FF" stroke="#4664FF" stroke-width="2.17371" stroke-miterlimit="10" stroke-linecap="round" stroke-linejoin="round"/>
<path d="M24.1719 69.9954H82.2389" stroke="#4664FF" stroke-width="2.17371" stroke-miterlimit="10" stroke-linecap="round" stroke-linejoin="round"/>
<path d="M2 69.9954H24.1718" stroke="#4664FF" stroke-width="2.17371" stroke-miterlimit="10" stroke-linecap="round" stroke-linejoin="round"/>
<path d="M34.0742 60.4311V54.6008C34.0742 53.9873 34.5718 53.4897 35.1852 53.4897H60.8592C61.4726 53.4897 61.9701 53.9873 61.9701 54.6008V60.4311C61.9701 61.0446 61.4726 61.5421 60.8592 61.5421H35.1852C34.5718 61.5421 34.0742 61.0446 34.0742 60.4311Z" fill="#FF0028" stroke="#FF0028" stroke-width="2.17371" stroke-miterlimit="10" stroke-linecap="round" stroke-linejoin="round"/>
<path d="M14.8587 103.055H8.52111C7.00917 103.055 4.78711 100.524 4.78711 99.0118V92.9834H9.71905C12.5594 92.9834 14.8587 95.2875 14.8587 98.123V103.055Z" fill="#4664FF" stroke="#4664FF" stroke-width="0.966092" stroke-miterlimit="10" stroke-linecap="round" stroke-linejoin="round"/>
<path d="M91.2141 92.9834V99.4949C91.2141 101.007 89.2529 103.055 87.741 103.055H81.1426V98.123C81.1426 95.2827 83.4467 92.9834 86.2822 92.9834H91.2141Z" fill="#4664FF" stroke="#4664FF" stroke-width="0.966092" stroke-miterlimit="10" stroke-linecap="round" stroke-linejoin="round"/>
</svg>
