<svg width="72" height="72" viewBox="0 0 72 72" fill="none" xmlns="http://www.w3.org/2000/svg">
<path d="M57 49V66C57 68.7614 54.7614 71 52 71H6C3.23858 71 1 68.7614 1 66V6C1 3.23858 3.23858 1 6 1H52C54.7614 1 57 3.23858 57 6V29.5" stroke="#7B7794" stroke-width="2" stroke-linecap="round"/>
<line x1="9" y1="11" x2="49" y2="11" stroke="#7B7794" stroke-width="2" stroke-linecap="round"/>
<line x1="9" y1="20" x2="49" y2="20" stroke="#7B7794" stroke-width="2" stroke-linecap="round"/>
<line x1="9" y1="29" x2="49" y2="29" stroke="#7B7794" stroke-width="2" stroke-linecap="round"/>
<line x1="9" y1="38" x2="29" y2="38" stroke="#7B7794" stroke-width="2" stroke-linecap="round"/>
<circle cx="10.5" cy="61.5" r="2.5" fill="#7B7794"/>
<circle cx="19.5" cy="61.5" r="2.5" fill="#7B7794"/>
<path d="M69 28L49 47.2593L39 37.2593" stroke="#7B7794" stroke-width="3.7037" stroke-linecap="round"/>
</svg>
