<svg width="72" height="72" viewBox="0 0 72 72" fill="none" xmlns="http://www.w3.org/2000/svg">
<path d="M57 49V66C57 68.7614 54.7614 71 52 71H6C3.23858 71 1 68.7614 1 66V6C1 3.23858 3.23858 1 6 1H52C54.7614 1 57 3.23858 57 6V29.5" stroke="#7B7794" stroke-width="2" stroke-linecap="round"/>
<circle cx="14.666" cy="10.5" r="2.5" stroke="#7B7794" stroke-width="2"/>
<path d="M20.4987 20.9996C20.4987 17.9927 17.887 15.5552 14.6654 15.5552C11.4437 15.5552 8.83203 17.9927 8.83203 20.9996" stroke="#7B7794" stroke-width="2" stroke-linecap="round"/>
<line x1="29" y1="12" x2="49" y2="12" stroke="#7B7794" stroke-width="2" stroke-linecap="round"/>
<line x1="29" y1="21" x2="49" y2="21" stroke="#7B7794" stroke-width="2" stroke-linecap="round"/>
<line x1="9" y1="30" x2="49" y2="30" stroke="#7B7794" stroke-width="2" stroke-linecap="round"/>
<line x1="9" y1="39" x2="33" y2="39" stroke="#7B7794" stroke-width="2" stroke-linecap="round"/>
<circle cx="10.5" cy="61.5" r="2.5" fill="#7B7794"/>
<circle cx="19.5" cy="61.5" r="2.5" fill="#7B7794"/>
<path d="M42 54L69 28" stroke="#7B7794" stroke-width="5" stroke-linecap="round"/>
</svg>
