<svg width="251" height="159" viewBox="0 0 251 159" fill="none" xmlns="http://www.w3.org/2000/svg">
<rect width="251" height="159" rx="5" fill="#AEB5D1"/>
<path opacity="0.4" d="M146.11 84.3252H89.049L16 126.501L18.8944 127.328H71.5448L97.4565 112.442L98.8348 112.167C101.178 111.615 103.797 112.029 105.864 113.269L112.618 117.128C112.755 117.266 112.893 117.266 113.169 117.266H114.409L116.752 111.34L113.996 102.932L146.11 84.3252Z" fill="#7B7794"/>
<path opacity="0.4" d="M108.76 149.38C108.622 149.518 108.484 149.518 108.208 149.518C107.657 149.518 106.554 149.518 106.279 149.38L90.2906 140.146C89.8771 139.87 89.8771 139.457 90.2906 139.181L140.184 110.65C140.874 110.237 142.114 110.237 142.803 110.65L158.791 119.885C159.067 120.023 112.343 147.313 108.76 149.38Z" fill="#ADA6A3"/>
<path opacity="0.4" d="M172.849 106.929C169.541 105.826 163.476 105.551 160.857 107.067C156.723 109.685 159.479 112.029 162.787 114.096C171.195 119.196 173.951 119.471 178.637 117.266C180.016 116.577 180.843 115.612 180.843 114.647C180.843 113.683 178.637 108.859 172.849 106.929Z" fill="#ADA6A3"/>
<path d="M125.708 100.038L106.137 111.34L114.269 116.026L133.84 104.724L125.708 100.038Z" fill="url(#paint0_linear_14822_160602)"/>
<path d="M133.841 104.862C133.841 104.862 133.841 104.724 133.841 104.862C133.703 104.724 114.27 116.026 114.27 116.026C114.407 116.163 114.407 116.163 114.407 116.163C114.545 116.439 114.545 117.128 114.407 117.128L133.841 105.826C133.979 105.826 133.979 105.137 133.841 104.862Z" fill="#D2D1CE"/>
<path d="M124.054 98.1082C123.64 97.2812 123.64 96.4542 123.916 95.9029L129.154 84.1875L109.72 95.6273L104.482 107.343C104.207 107.894 104.344 108.721 104.62 109.548C104.758 109.961 105.034 110.375 105.309 110.788C105.585 111.064 105.861 111.34 106.136 111.478L125.57 100.176C125.294 100.038 125.019 99.7621 124.743 99.4864C124.467 98.9351 124.33 98.5217 124.054 98.1082Z" fill="url(#paint1_linear_14822_160602)"/>
<path d="M114.27 116.025L106.138 111.339C105.448 110.926 104.897 110.237 104.622 109.41C104.208 108.583 104.208 107.756 104.484 107.204L109.721 95.489V95.2134V83.7736C109.721 83.498 109.445 83.0845 109.17 82.9466C108.894 82.8088 108.619 82.9466 108.619 83.2223V94.5242L103.381 106.102C102.968 106.929 103.105 108.169 103.657 109.41C104.208 110.65 105.035 111.753 106.138 112.304L114.27 116.99C114.545 117.266 114.545 116.163 114.27 116.025Z" fill="#B6B5B3"/>
<path d="M129.155 72.1961C129.155 72.0582 129.017 71.9204 129.017 71.9204C129.017 71.7826 128.88 71.7826 128.742 71.7826C128.604 71.6447 128.466 71.6447 128.328 71.7826L108.895 83.0845C109.032 83.0845 109.17 83.0845 109.308 83.0845C109.446 83.0845 109.446 83.2223 109.584 83.2223C109.722 83.3601 109.722 83.3601 109.722 83.498C109.722 83.6358 109.859 83.7736 109.859 83.9115V95.3512V95.6269L129.293 84.3249V84.0493V72.6095C129.293 72.4717 129.293 72.3339 129.155 72.1961Z" fill="#B6B5B3"/>
<path d="M78.436 119.471L76.9199 118.644V57.7236L78.436 58.6884V119.471Z" fill="#B6B5B3"/>
<path d="M78.436 58.6886L76.9199 57.7238L157.963 11L159.479 11.827L78.436 58.6886Z" fill="#FFFEFB"/>
<path d="M159.479 11.8271V72.7473L78.4355 119.471V58.6888L159.479 11.8271Z" fill="#D2D1CE"/>
<path d="M78.7129 58.9643L159.067 12.5161V65.3044L78.7129 111.615V58.9643Z" fill="#101014"/>
<path d="M124.193 89.8386L121.299 91.4925C120.885 91.7682 120.609 91.6304 120.609 91.2169C120.609 90.8034 120.885 90.3899 121.299 90.1142L124.193 88.4603C124.606 88.1847 124.882 88.3225 124.882 88.736C124.882 89.1494 124.606 89.5629 124.193 89.8386Z" fill="#2280D6"/>
<path d="M91.1172 138.905V139.732C91.1172 139.87 91.255 140.008 91.3929 140.146L107.381 149.38C107.794 149.656 108.484 149.656 108.897 149.38L158.653 120.712C158.929 120.574 158.929 120.436 158.929 120.299V119.472L91.1172 138.905Z" fill="url(#paint2_linear_14822_160602)"/>
<path d="M158.654 119.885L108.898 148.553C108.485 148.829 107.796 148.829 107.382 148.553L91.3941 139.319C90.9806 139.043 90.9806 138.63 91.3941 138.354L141.15 109.686C141.564 109.41 142.253 109.41 142.666 109.686L158.654 118.92C159.068 119.196 159.068 119.609 158.654 119.885Z" fill="url(#paint3_linear_14822_160602)"/>
<path d="M134.12 115.612C134.12 115.612 134.12 115.475 134.12 115.612C134.12 115.475 134.12 115.475 134.12 115.475C134.12 115.337 134.12 115.337 134.258 115.199L136.325 113.958C136.463 113.821 136.876 113.821 137.014 113.958L138.668 114.923C138.806 114.923 138.806 115.061 138.806 115.199C138.806 115.199 138.806 115.199 138.806 115.337C138.806 115.337 138.806 115.337 138.806 115.475C138.806 115.612 138.806 115.612 138.668 115.75L136.601 116.991C136.463 117.128 136.049 117.128 135.912 116.991L134.258 116.026C134.12 115.75 134.12 115.612 134.12 115.612ZM137.565 113.958L139.219 114.923C139.357 115.061 139.771 115.061 139.909 114.923L141.976 113.683C142.114 113.683 142.114 113.545 142.114 113.407C142.114 113.407 142.114 113.407 142.114 113.269C142.114 113.269 142.114 113.269 142.114 113.131C142.114 112.994 142.114 112.994 141.976 112.856L140.322 111.891C140.184 111.753 139.771 111.753 139.633 111.891L137.565 113.131C137.428 113.131 137.428 113.269 137.428 113.407C137.428 113.407 137.428 113.407 137.428 113.545C137.428 113.545 137.428 113.545 137.428 113.683C137.428 113.821 137.428 113.821 137.565 113.958ZM130.95 117.68L132.604 118.645C132.742 118.782 133.155 118.782 133.293 118.645L135.36 117.404C135.498 117.404 135.498 117.266 135.498 117.128C135.498 117.128 135.498 117.128 135.498 116.991C135.498 116.991 135.498 116.991 135.498 116.853C135.498 116.715 135.498 116.715 135.36 116.577L133.706 115.612C133.568 115.475 133.155 115.475 133.017 115.612L130.95 116.853C130.812 116.853 130.812 116.991 130.812 117.128C130.812 117.128 130.812 117.128 130.812 117.266C130.812 117.266 130.812 117.266 130.812 117.404C130.812 117.542 130.812 117.68 130.95 117.68ZM104.349 140.008L106.003 140.973C106.141 141.111 106.554 141.111 106.692 140.973L108.759 139.732C108.897 139.732 108.897 139.594 108.897 139.457C108.897 139.457 108.897 139.457 108.897 139.319C108.897 139.319 108.897 139.319 108.897 139.181C108.897 139.043 108.897 139.043 108.759 138.905L107.105 137.941C106.968 137.803 106.554 137.803 106.416 137.941L104.349 139.181C104.211 139.181 104.211 139.319 104.211 139.457C104.211 139.457 104.211 139.457 104.211 139.594C104.211 139.594 104.211 139.594 104.211 139.732C104.211 139.87 104.211 139.87 104.349 140.008ZM111.516 128.844L113.17 129.809C113.308 129.946 113.721 129.946 113.859 129.809L115.926 128.568C116.064 128.568 116.064 128.43 116.064 128.293C116.064 128.293 116.064 128.293 116.064 128.155C116.064 128.155 116.064 128.155 116.064 128.017C116.064 127.879 116.064 127.879 115.926 127.741L114.273 126.776C114.135 126.639 113.721 126.639 113.583 126.776L111.516 128.017C111.378 128.017 111.378 128.155 111.378 128.293C111.378 128.293 111.378 128.293 111.378 128.43C111.378 128.43 111.378 128.43 111.378 128.568C111.378 128.706 111.378 128.844 111.516 128.844ZM118.132 125.122L119.786 126.087C119.923 126.225 120.337 126.225 120.475 126.087L122.542 124.847C122.68 124.847 122.68 124.709 122.68 124.571C122.68 124.571 122.68 124.571 122.68 124.433C122.68 124.433 122.68 124.433 122.68 124.296C122.68 124.158 122.68 124.158 122.542 124.02L120.888 123.055C120.75 122.917 120.337 122.917 120.199 123.055L118.132 124.296C117.994 124.296 117.994 124.433 117.994 124.571C117.994 124.571 117.994 124.571 117.994 124.709C117.994 124.709 117.994 124.709 117.994 124.847C117.994 124.985 117.994 124.985 118.132 125.122ZM124.747 121.263L126.401 122.228C126.539 122.366 126.953 122.366 127.091 122.228L130.261 120.436C130.398 120.436 130.398 120.298 130.398 120.161C130.398 120.161 130.398 120.161 130.398 120.023C130.398 120.023 130.398 120.023 130.398 119.885C130.398 119.747 130.398 119.747 130.261 119.609L128.607 118.645C128.469 118.507 128.055 118.507 127.918 118.645L124.747 120.436C124.61 120.436 124.61 120.574 124.61 120.712C124.61 120.712 124.61 120.712 124.61 120.85C124.61 120.85 124.61 120.85 124.61 120.988C124.61 121.125 124.61 121.263 124.747 121.263ZM121.44 123.193L123.094 124.158C123.231 124.296 123.645 124.296 123.783 124.158L125.85 122.917C125.988 122.917 125.988 122.779 125.988 122.642C125.988 122.642 125.988 122.642 125.988 122.504C125.988 122.504 125.988 122.504 125.988 122.366C125.988 122.228 125.988 122.228 125.85 122.09L124.196 121.125C124.058 120.988 123.645 120.988 123.507 121.125L121.44 122.366C121.302 122.366 121.302 122.504 121.302 122.642C121.302 122.642 121.302 122.642 121.302 122.779C121.302 122.779 121.302 122.779 121.302 122.917C121.302 123.055 121.302 123.055 121.44 123.193ZM114.824 126.914L116.478 127.879C116.616 128.017 117.029 128.017 117.167 127.879L119.234 126.639C119.372 126.639 119.372 126.501 119.372 126.363C119.372 126.363 119.372 126.363 119.372 126.225C119.372 126.225 119.372 126.225 119.372 126.087C119.372 125.949 119.372 125.949 119.234 125.812L117.58 124.847C117.443 124.709 117.029 124.709 116.891 124.847L114.824 126.087C114.686 126.087 114.686 126.225 114.686 126.363C114.686 126.363 114.686 126.363 114.686 126.501C114.686 126.501 114.686 126.501 114.686 126.639C114.686 126.776 114.686 126.914 114.824 126.914ZM128.882 122.366L130.536 123.331C130.674 123.469 131.088 123.469 131.225 123.331L133.293 122.09C133.431 122.09 133.431 121.952 133.431 121.815C133.431 121.815 133.431 121.815 133.431 121.677C133.431 121.677 133.431 121.677 133.431 121.539C133.431 121.401 133.431 121.401 133.293 121.263L131.639 120.298C131.501 120.161 131.088 120.161 130.95 120.298L128.882 121.539C128.744 121.539 128.744 121.677 128.744 121.815C128.744 121.815 128.744 121.815 128.744 121.952C128.744 121.952 128.744 121.952 128.744 122.09C128.744 122.228 128.744 122.366 128.882 122.366ZM102.557 137.665L104.211 138.63C104.349 138.767 104.762 138.767 104.9 138.63L106.968 137.389C107.105 137.389 107.105 137.251 107.105 137.114C107.105 137.114 107.105 137.114 107.105 136.976C107.105 136.976 107.105 136.976 107.105 136.838C107.105 136.7 107.105 136.7 106.968 136.562L105.314 135.597C105.176 135.46 104.762 135.46 104.625 135.597L102.557 136.838C102.419 136.838 102.419 136.976 102.419 137.114C102.419 137.114 102.419 137.114 102.419 137.251C102.419 137.251 102.419 137.251 102.419 137.389C102.281 137.389 102.419 137.527 102.557 137.665ZM125.574 124.296L127.228 125.26C127.366 125.398 127.78 125.398 127.918 125.26L129.985 124.02C130.123 124.02 130.123 123.882 130.123 123.744C130.123 123.744 130.123 123.744 130.123 123.606C130.123 123.606 130.123 123.606 130.123 123.469C130.123 123.331 130.123 123.331 129.985 123.193L128.331 122.228C128.193 122.09 127.78 122.09 127.642 122.228L125.574 123.469C125.437 123.469 125.437 123.606 125.437 123.744C125.437 123.744 125.437 123.744 125.437 123.882C125.437 123.882 125.437 123.882 125.437 124.02C125.437 124.158 125.437 124.158 125.574 124.296ZM122.267 126.225L123.921 127.19C124.058 127.328 124.472 127.328 124.61 127.19L126.677 125.949C126.815 125.949 126.815 125.812 126.815 125.674C126.815 125.674 126.815 125.674 126.815 125.536C126.815 125.536 126.815 125.536 126.815 125.398C126.815 125.26 126.815 125.26 126.677 125.122L125.023 124.158C124.885 124.02 124.472 124.02 124.334 124.158L122.267 125.398C122.129 125.398 122.129 125.536 122.129 125.674C122.129 125.674 122.129 125.674 122.129 125.812C122.129 125.812 122.129 125.812 122.129 125.949C122.129 126.087 122.129 126.087 122.267 126.225ZM118.959 128.155L120.613 129.12C120.75 129.257 121.164 129.257 121.302 129.12L123.369 127.879C123.507 127.879 123.507 127.741 123.507 127.603C123.507 127.603 123.507 127.603 123.507 127.466C123.507 127.466 123.507 127.466 123.507 127.328C123.507 127.19 123.507 127.19 123.369 127.052L121.715 126.087C121.577 125.949 121.164 125.949 121.026 126.087L118.959 127.328C118.821 127.328 118.821 127.466 118.821 127.603C118.821 127.603 118.821 127.603 118.821 127.741C118.821 127.741 118.821 127.741 118.821 127.879C118.821 127.879 118.821 128.017 118.959 128.155ZM105.865 135.735L107.519 136.7C107.657 136.838 108.07 136.838 108.208 136.7L110.275 135.46C110.413 135.46 110.413 135.322 110.413 135.184C110.413 135.184 110.413 135.184 110.413 135.046C110.413 135.046 110.413 135.046 110.413 134.908C110.413 134.77 110.413 134.77 110.275 134.633L108.622 133.668C108.484 133.53 108.07 133.53 107.932 133.668L105.865 134.908C105.727 134.908 105.727 135.046 105.727 135.184C105.727 135.184 105.727 135.184 105.727 135.322C105.727 135.322 105.727 135.322 105.727 135.46C105.589 135.597 105.727 135.597 105.865 135.735ZM109.035 133.806L110.689 134.77C110.827 134.908 111.24 134.908 111.378 134.77L113.446 133.53C113.583 133.53 113.583 133.392 113.583 133.254C113.583 133.254 113.583 133.254 113.583 133.117C113.583 133.117 113.583 133.117 113.583 132.979C113.583 132.841 113.583 132.841 113.446 132.703C110.965 131.187 111.792 131.325 109.035 132.841C108.897 132.841 108.897 132.979 108.897 133.117C108.897 133.117 108.897 133.117 108.897 133.254C108.897 133.254 108.897 133.254 108.897 133.392C108.897 133.668 109.035 133.668 109.035 133.806ZM112.343 131.876L113.997 132.841C114.135 132.979 114.548 132.979 114.686 132.841L116.753 131.6C116.891 131.6 116.891 131.463 116.891 131.325C116.891 131.325 116.891 131.325 116.891 131.187C116.891 131.187 116.891 131.187 116.891 131.049C116.891 130.911 116.891 130.911 116.753 130.773L115.099 129.809C114.962 129.671 114.548 129.671 114.41 129.809L112.343 131.049C112.205 131.049 112.205 131.187 112.205 131.325C112.205 131.325 112.205 131.325 112.205 131.463C112.205 131.463 112.205 131.463 112.205 131.6C112.205 131.738 112.343 131.876 112.343 131.876ZM115.651 129.946C117.305 130.911 117.58 131.187 118.132 130.911L120.199 129.671C120.337 129.671 120.337 129.533 120.337 129.395C120.337 129.395 120.337 129.395 120.337 129.257C120.337 129.257 120.337 129.257 120.337 129.12C120.337 128.982 120.337 128.982 120.199 128.844L118.545 127.879C118.407 127.741 117.994 127.741 117.856 127.879L115.789 129.12C115.651 129.12 115.651 129.257 115.651 129.395C115.651 129.395 115.651 129.395 115.651 129.533C115.651 129.533 115.651 129.533 115.651 129.671C115.513 129.809 115.513 129.946 115.651 129.946ZM109.862 142.489C109.862 142.351 109.862 142.351 109.862 142.351C109.862 142.213 109.862 142.213 109.724 142.075L108.07 141.111C107.932 140.973 107.519 140.973 107.381 141.111L104.211 142.902C104.073 142.902 104.073 143.04 104.073 143.178C104.073 143.178 104.073 143.178 104.073 143.316C104.073 143.316 104.073 143.316 104.073 143.454C104.073 143.591 104.073 143.591 104.211 143.729L105.865 144.694C106.003 144.832 106.416 144.832 106.554 144.694L109.724 142.902C109.862 142.765 109.862 142.627 109.862 142.489ZM105.727 141.386C105.727 141.248 105.727 141.248 105.727 141.248C105.727 141.111 105.727 141.111 105.589 140.973L103.935 140.008C103.798 139.87 103.384 139.87 103.246 140.008L101.179 141.248C101.041 141.248 101.041 141.386 101.041 141.524C101.041 141.524 101.041 141.524 101.041 141.662C101.041 141.662 101.041 141.662 101.041 141.8C101.041 141.938 101.041 141.938 101.179 142.075L102.833 143.04C102.971 143.178 103.384 143.178 103.522 143.04L105.589 141.8C105.727 141.662 105.727 141.524 105.727 141.386ZM108.208 130.773C110.689 132.152 109.862 132.29 112.619 130.636C112.756 130.636 112.756 130.498 112.756 130.36C112.756 130.36 112.756 130.36 112.756 130.222C112.756 130.222 112.756 130.222 112.756 130.084C112.756 129.946 112.756 129.946 112.619 129.809L110.965 128.844C110.827 128.706 110.413 128.706 110.275 128.844L108.208 130.084C108.07 130.084 108.07 130.222 108.07 130.36C108.07 130.36 108.07 130.36 108.07 130.498C108.07 130.498 108.07 130.498 108.07 130.636L108.208 130.773ZM144.595 122.504C144.595 122.366 144.595 122.366 144.595 122.366C144.595 122.228 144.595 122.228 144.457 122.09L142.803 121.125C142.665 120.988 142.252 120.988 142.114 121.125L140.046 122.366C139.909 122.366 139.909 122.504 139.909 122.642C139.909 122.642 139.909 122.642 139.909 122.779C139.909 122.779 139.909 122.779 139.909 122.917C139.909 123.055 139.909 123.055 140.046 123.193L141.7 124.158C141.838 124.296 142.252 124.296 142.389 124.158L144.457 122.917C144.595 122.642 144.595 122.642 144.595 122.504ZM103.798 139.043C103.798 138.905 103.798 138.905 103.798 138.905C103.798 138.767 103.798 138.767 103.66 138.63L102.006 137.665C101.868 137.527 101.454 137.527 101.317 137.665L98.1466 139.457C98.0088 139.457 98.0088 139.594 98.0088 139.732C98.0088 139.732 98.0088 139.732 98.0088 139.87C98.0088 139.87 98.0088 139.87 98.0088 140.008C98.0088 140.146 98.0088 140.146 98.1466 140.284L99.8006 141.248C99.9384 141.386 100.352 141.386 100.49 141.248L103.66 139.457C103.798 139.319 103.798 139.181 103.798 139.043ZM104.9 132.703L106.554 133.668C106.692 133.806 107.105 133.806 107.243 133.668L109.311 132.427C109.449 132.427 109.449 132.29 109.449 132.152C109.449 132.152 109.449 132.152 109.449 132.014C109.449 132.014 109.449 132.014 109.449 131.876C109.449 131.738 109.449 131.738 109.311 131.6L107.657 130.636C107.519 130.498 107.105 130.498 106.968 130.636L104.9 131.876C104.762 131.876 104.762 132.014 104.762 132.152C104.762 132.152 104.762 132.152 104.762 132.29C104.762 132.29 104.762 132.29 104.762 132.427C104.762 132.565 104.9 132.565 104.9 132.703ZM101.73 134.633L103.384 135.597C103.522 135.735 103.935 135.735 104.073 135.597L106.141 134.357C106.278 134.357 106.278 134.219 106.278 134.081C106.278 134.081 106.278 134.081 106.278 133.943C106.278 133.943 106.278 133.943 106.278 133.806C106.278 133.668 106.278 133.668 106.141 133.53L104.487 132.565C104.349 132.427 103.935 132.427 103.798 132.565L101.73 133.806C101.592 133.806 101.592 133.943 101.592 134.081C101.592 134.081 101.592 134.081 101.592 134.219C101.592 134.219 101.592 134.219 101.592 134.357C101.454 134.495 101.592 134.495 101.73 134.633ZM99.6627 137.941C99.6627 137.803 99.6627 137.803 99.6627 137.803C99.6627 137.665 99.6627 137.665 99.5249 137.527L97.8709 136.562C97.7331 136.424 97.3196 136.424 97.1818 136.562L95.1144 137.803C94.9765 137.803 94.9766 137.941 94.9766 138.078C94.9766 138.078 94.9766 138.078 94.9766 138.216C94.9766 138.216 94.9766 138.216 94.9766 138.354C94.9766 138.492 94.9765 138.492 95.1144 138.63L96.7683 139.594C96.9061 139.732 97.3196 139.732 97.4575 139.594L99.5249 138.354C99.6627 138.216 99.6627 138.078 99.6627 137.941ZM98.4223 136.562L100.076 137.527C100.214 137.665 100.627 137.665 100.765 137.527L102.833 136.287C102.971 136.287 102.971 136.149 102.971 136.011C102.971 136.011 102.971 136.011 102.971 135.873C102.971 135.873 102.971 135.873 102.971 135.735C102.971 135.597 102.971 135.597 102.833 135.46L101.179 134.495C101.041 134.357 100.628 134.357 100.49 134.495L98.4223 135.735C98.2844 135.735 98.2844 135.873 98.2844 136.011C98.2844 136.011 98.2844 136.011 98.2844 136.149C98.2844 136.149 98.2844 136.149 98.2844 136.287C98.2844 136.287 98.2844 136.424 98.4223 136.562ZM154.243 120.298C154.243 120.161 154.243 120.161 154.105 120.023L152.451 119.058C152.313 118.92 151.9 118.92 151.762 119.058L149.694 120.298C149.557 120.298 149.557 120.436 149.557 120.574C149.557 120.574 149.557 120.574 149.557 120.712C149.557 120.712 149.557 120.712 149.557 120.85C149.557 120.988 149.557 120.988 149.694 121.125L151.348 122.09C151.486 122.228 151.9 122.228 152.037 122.09L154.105 120.85C154.243 120.85 154.243 120.712 154.243 120.574C154.243 120.436 154.243 120.436 154.243 120.298ZM142.252 117.128L140.046 115.888C139.771 115.75 139.357 115.75 139.219 115.888L133.982 118.92C133.844 119.058 133.844 119.058 133.844 119.196C133.844 119.196 133.844 119.196 133.844 119.334C133.844 119.334 133.844 119.334 133.844 119.472C133.844 119.609 133.844 119.747 133.982 119.747L138.53 122.366C138.806 122.504 139.219 122.504 139.357 122.366L147.903 117.404C148.04 117.266 148.04 117.266 148.04 117.128C148.04 117.128 148.04 117.128 148.04 116.991C148.04 116.991 148.04 116.991 148.04 116.853C148.04 116.715 148.04 116.577 147.903 116.577L146.249 115.612C146.111 115.475 145.835 115.475 145.697 115.612L142.803 117.266C142.665 117.128 142.389 117.128 142.252 117.128ZM139.357 124.985L137.703 124.02C137.566 123.882 137.152 123.882 137.014 124.02L134.947 125.26C134.809 125.26 134.809 125.398 134.809 125.536C134.809 125.536 134.809 125.536 134.809 125.674C134.809 125.674 134.809 125.674 134.809 125.812C134.809 125.949 134.809 125.949 134.947 126.087L136.601 127.052C136.739 127.19 137.152 127.19 137.29 127.052L139.357 125.812C139.495 125.812 139.495 125.674 139.495 125.536C139.495 125.536 139.495 125.536 139.495 125.398C139.495 125.398 139.495 125.398 139.495 125.26C139.495 125.122 139.495 125.122 139.357 124.985ZM147.765 120.161L146.111 119.196C145.973 119.058 145.56 119.058 145.422 119.196L143.354 120.436C143.216 120.436 143.216 120.574 143.216 120.712C143.216 120.712 143.216 120.712 143.216 120.85C143.216 120.85 143.216 120.85 143.216 120.988C143.216 121.125 143.216 121.125 143.354 121.263L145.008 122.228C145.146 122.366 145.56 122.366 145.697 122.228L147.765 120.988C147.903 120.988 147.903 120.85 147.903 120.712C147.903 120.712 147.903 120.712 147.903 120.574C147.903 120.574 147.903 120.574 147.903 120.436C147.903 120.298 147.903 120.298 147.765 120.161ZM132.742 128.844L131.088 127.879C130.95 127.741 130.536 127.741 130.398 127.879L128.331 129.12C128.193 129.12 128.193 129.257 128.193 129.395C128.193 129.395 128.193 129.395 128.193 129.533C128.193 129.533 128.193 129.533 128.193 129.671C128.193 129.809 128.193 129.809 128.331 129.946L129.985 130.911C130.123 131.049 130.536 131.049 130.674 130.911L132.742 129.671C132.879 129.671 132.879 129.533 132.879 129.395C132.879 129.395 132.879 129.395 132.879 129.257C132.879 129.257 132.879 129.257 132.879 129.12C132.879 128.982 132.879 128.844 132.742 128.844ZM146.387 118.782C146.387 118.92 146.387 118.92 146.387 118.92C146.387 119.058 146.387 119.058 146.524 119.196L148.178 120.161C148.316 120.298 148.73 120.298 148.867 120.161L150.935 118.92C151.073 118.92 151.073 118.782 151.073 118.645C151.073 118.645 151.073 118.645 151.073 118.507C151.073 118.507 151.073 118.507 151.073 118.369C151.073 118.231 151.073 118.231 150.935 118.093L149.281 117.128C149.143 116.991 148.73 116.991 148.592 117.128L146.524 118.369C146.387 118.507 146.387 118.645 146.387 118.782ZM119.51 136.424L117.856 135.46C117.718 135.322 117.305 135.322 117.167 135.46L115.099 136.7C114.962 136.7 114.962 136.838 114.962 136.976C114.962 136.976 114.962 136.976 114.962 137.114C114.962 137.114 114.962 137.114 114.962 137.251C114.962 137.389 114.962 137.389 115.099 137.527L116.753 138.492C116.891 138.63 117.305 138.63 117.443 138.492L119.51 137.251C119.648 137.251 119.648 137.114 119.648 136.976C119.648 136.976 119.648 136.976 119.648 136.838C119.648 136.838 119.648 136.838 119.648 136.7C119.786 136.562 119.648 136.562 119.51 136.424ZM126.126 132.703L124.472 131.738C124.334 131.6 123.92 131.6 123.783 131.738L121.715 132.979C121.577 132.979 121.577 133.117 121.577 133.254C121.577 133.254 121.577 133.254 121.577 133.392C121.577 133.392 121.577 133.392 121.577 133.53C121.577 133.668 121.577 133.668 121.715 133.806L123.369 134.77C123.507 134.908 123.92 134.908 124.058 134.77L126.126 133.53C126.264 133.53 126.264 133.392 126.264 133.254C126.264 133.254 126.264 133.254 126.264 133.117C126.264 133.117 126.264 133.117 126.264 132.979C126.264 132.841 126.264 132.703 126.126 132.703ZM122.818 134.495L121.164 133.53C121.026 133.392 120.613 133.392 120.475 133.53L118.407 134.77C118.27 134.77 118.27 134.908 118.27 135.046C118.27 135.046 118.27 135.046 118.27 135.184C118.27 135.184 118.27 135.184 118.27 135.322C118.27 135.46 118.27 135.46 118.407 135.597L120.061 136.562C120.199 136.7 120.613 136.7 120.75 136.562L122.818 135.322C122.956 135.322 122.956 135.184 122.956 135.046C122.956 135.046 122.956 135.046 122.956 134.908C122.956 134.908 122.956 134.908 122.956 134.77C122.956 134.77 122.956 134.633 122.818 134.495ZM116.34 138.354L114.686 137.389C114.548 137.251 114.135 137.251 113.997 137.389L111.929 138.63C111.792 138.63 111.792 138.767 111.792 138.905C111.792 138.905 111.792 138.905 111.792 139.043C111.792 139.043 111.792 139.043 111.792 139.181C111.792 139.319 111.792 139.319 111.929 139.457L113.583 140.421C113.721 140.559 114.135 140.559 114.273 140.421L116.34 139.181C116.478 139.181 116.478 139.043 116.478 138.905C116.478 138.905 116.478 138.905 116.478 138.767C116.478 138.767 116.478 138.767 116.478 138.63C116.478 138.492 116.34 138.354 116.34 138.354ZM113.032 140.284L111.378 139.319C111.24 139.181 110.827 139.181 110.689 139.319L108.622 140.559C108.484 140.559 108.484 140.697 108.484 140.835C108.484 140.835 108.484 140.835 108.484 140.973C108.484 140.973 108.484 140.973 108.484 141.111C108.484 141.248 108.484 141.248 108.622 141.386L110.275 142.351C110.413 142.489 110.827 142.489 110.965 142.351L113.032 141.111C113.17 141.111 113.17 140.973 113.17 140.835C113.17 140.835 113.17 140.835 113.17 140.697C113.17 140.697 113.17 140.697 113.17 140.559C113.17 140.421 113.032 140.284 113.032 140.284ZM129.434 130.773L127.78 129.809C127.642 129.671 127.228 129.671 127.091 129.809L125.023 131.049C124.885 131.049 124.885 131.187 124.885 131.325C124.885 131.325 124.885 131.325 124.885 131.463C124.885 131.463 124.885 131.463 124.885 131.6C124.885 131.738 124.885 131.738 125.023 131.876L126.677 132.841C126.815 132.979 127.228 132.979 127.366 132.841L129.434 131.6C129.571 131.6 129.571 131.463 129.571 131.325C129.571 131.325 129.571 131.325 129.571 131.187C129.571 131.187 129.571 131.187 129.571 131.049C129.571 130.911 129.571 130.773 129.434 130.773ZM136.049 126.914L134.395 125.949C134.258 125.812 133.844 125.812 133.706 125.949L131.639 127.19C131.501 127.19 131.501 127.328 131.501 127.466C131.501 127.466 131.501 127.466 131.501 127.603C131.501 127.603 131.501 127.603 131.501 127.741C131.501 127.879 131.501 127.879 131.639 128.017L133.293 128.706C133.431 128.844 133.844 128.844 133.982 128.706L136.049 127.466C136.187 127.466 136.187 127.328 136.187 127.19C136.187 127.19 136.187 127.19 136.187 127.052C136.187 127.052 136.187 127.052 136.187 126.914C136.187 127.052 136.187 127.052 136.049 126.914ZM118.132 140.697L116.478 139.732C116.34 139.594 115.926 139.594 115.789 139.732L113.721 140.973C113.583 140.973 113.583 141.111 113.583 141.248C113.583 141.248 113.583 141.248 113.583 141.386C113.583 141.386 113.583 141.386 113.583 141.524C113.583 141.662 113.583 141.662 113.721 141.8L115.375 142.764C115.513 142.902 115.926 142.902 116.064 142.764L118.132 141.524C118.27 141.524 118.27 141.386 118.27 141.248C118.27 141.248 118.27 141.248 118.27 141.111C118.27 141.111 118.27 141.111 118.27 140.973C118.27 140.835 118.27 140.697 118.132 140.697ZM121.44 138.767L119.786 137.803C119.648 137.665 119.234 137.665 119.097 137.803L117.029 139.043C116.891 139.043 116.891 139.181 116.891 139.319C116.891 139.319 116.891 139.319 116.891 139.457C116.891 139.457 116.891 139.457 116.891 139.594C116.891 139.732 116.891 139.732 117.029 139.87L118.683 140.835C118.821 140.973 119.234 140.973 119.372 140.835L121.44 139.594C121.577 139.594 121.577 139.457 121.577 139.319C121.577 139.319 121.577 139.319 121.577 139.181C121.577 139.181 121.577 139.181 121.577 139.043C121.577 138.905 121.577 138.905 121.44 138.767ZM114.824 142.627L113.17 141.662C113.032 141.524 112.619 141.524 112.481 141.662L110.413 142.902C110.275 142.902 110.275 143.04 110.275 143.178C110.275 143.178 110.275 143.178 110.275 143.316C110.275 143.316 110.275 143.316 110.275 143.454C110.275 143.591 110.275 143.591 110.413 143.729L112.067 144.694C112.205 144.832 112.619 144.832 112.756 144.694L114.824 143.454C114.962 143.454 114.962 143.316 114.962 143.178C114.962 143.178 114.962 143.178 114.962 143.04C114.962 143.04 114.962 143.04 114.962 142.902C114.962 142.765 114.962 142.627 114.824 142.627ZM111.516 144.556L109.862 143.591C109.724 143.454 109.311 143.454 109.173 143.591L107.105 144.832C106.968 144.832 106.968 144.97 106.968 145.108C106.968 145.108 106.968 145.108 106.968 145.245C106.968 145.245 106.968 145.245 106.968 145.383C106.968 145.521 106.968 145.521 107.105 145.659L108.759 146.624C108.897 146.762 109.311 146.762 109.449 146.624L111.516 145.383C111.654 145.383 111.654 145.245 111.654 145.108C111.654 145.108 111.654 145.108 111.654 144.97C111.654 144.97 111.654 144.97 111.654 144.832C111.654 144.694 111.654 144.556 111.516 144.556ZM136.325 123.331L134.671 122.366C134.533 122.228 134.12 122.228 133.982 122.366L130.812 124.158C130.674 124.158 130.674 124.296 130.674 124.433C130.674 124.433 130.674 124.433 130.674 124.571C130.674 124.571 130.674 124.571 130.674 124.709C130.674 124.847 130.674 124.847 130.812 124.985L132.466 125.949C132.604 126.087 133.017 126.087 133.155 125.949L136.325 124.158C136.463 124.158 136.463 124.02 136.463 123.882C136.463 123.882 136.463 123.882 136.463 123.744C136.463 123.744 136.463 123.744 136.463 123.606C136.463 123.469 136.463 123.331 136.325 123.331ZM142.252 126.776L140.598 125.812C140.46 125.674 140.046 125.674 139.909 125.812L136.739 127.603C136.601 127.603 136.601 127.741 136.601 127.879C136.601 127.879 136.601 127.879 136.601 128.017C136.601 128.017 136.601 128.017 136.601 128.155C136.601 128.293 136.601 128.293 136.739 128.43L138.392 129.395C138.53 129.533 138.944 129.533 139.082 129.395L142.252 127.603C142.389 127.603 142.389 127.466 142.389 127.328C142.389 127.328 142.389 127.328 142.389 127.19C142.389 127.19 142.389 127.19 142.389 127.052C142.389 126.914 142.389 126.776 142.252 126.776ZM150.797 121.952L149.143 120.988C149.005 120.85 148.592 120.85 148.454 120.988L146.387 122.228C146.249 122.228 146.249 122.366 146.249 122.504C146.249 122.504 146.249 122.504 146.249 122.642C146.249 122.642 146.249 122.642 146.249 122.779C146.249 122.917 146.249 122.917 146.387 123.055L148.04 124.02C148.178 124.158 148.592 124.158 148.73 124.02L150.797 122.779C150.935 122.779 150.935 122.642 150.935 122.504C150.935 122.504 150.935 122.504 150.935 122.366C150.935 122.366 150.935 122.366 150.935 122.228C150.935 122.09 150.935 121.952 150.797 121.952ZM147.489 123.882L145.835 122.917C145.697 122.779 145.284 122.779 145.146 122.917L143.079 124.158C142.941 124.158 142.941 124.296 142.941 124.433C142.941 124.433 142.941 124.433 142.941 124.571C142.941 124.571 142.941 124.571 142.941 124.709C142.941 124.847 142.941 124.847 143.079 124.985L144.733 125.949C144.87 126.087 145.284 126.087 145.422 125.949L147.489 124.709C147.627 124.709 147.627 124.571 147.627 124.433C147.627 124.433 147.627 124.433 147.627 124.296C147.627 124.296 147.627 124.296 147.627 124.158C147.627 124.02 147.627 123.882 147.489 123.882ZM137.979 129.257L136.325 128.293C136.187 128.155 135.774 128.155 135.636 128.293L120.337 137.114C120.199 137.114 120.199 137.251 120.199 137.389C120.199 137.389 120.199 137.389 120.199 137.527C120.199 137.527 120.199 137.527 120.199 137.665C120.199 137.803 120.199 137.803 120.337 137.941L121.991 138.905C122.129 139.043 122.542 139.043 122.68 138.905L137.979 130.084C138.117 130.084 138.117 129.946 138.117 129.809C138.117 129.809 138.117 129.809 138.117 129.671C138.117 129.671 138.117 129.671 138.117 129.533C138.117 129.395 138.117 129.395 137.979 129.257ZM125.299 129.671L123.645 128.706C123.507 128.568 123.094 128.568 122.956 128.706L120.888 129.946C120.75 129.946 120.75 130.084 120.75 130.222C120.75 130.222 120.75 130.222 120.75 130.36C120.75 130.36 120.75 130.36 120.75 130.498C120.75 130.636 120.75 130.636 120.888 130.773L122.542 131.738C122.68 131.876 123.094 131.876 123.231 131.738L125.299 130.498C125.437 130.498 125.437 130.36 125.437 130.222C125.437 130.222 125.437 130.222 125.437 130.084C125.437 130.084 125.437 130.084 125.437 129.946C125.437 129.809 125.437 129.671 125.299 129.671ZM121.991 131.6L120.337 130.636C120.199 130.498 119.786 130.498 119.648 130.636L117.58 131.876C117.443 131.876 117.443 132.014 117.443 132.152C117.443 132.152 117.443 132.152 117.443 132.29C117.443 132.29 117.443 132.29 117.443 132.427C117.443 132.565 117.443 132.565 117.58 132.703L119.234 133.668C119.372 133.806 119.786 133.806 119.923 133.668L121.991 132.427C122.129 132.427 122.129 132.29 122.129 132.152C122.129 132.152 122.129 132.152 122.129 132.014C122.129 132.014 122.129 132.014 122.129 131.876C122.129 131.738 122.129 131.6 121.991 131.6ZM128.607 127.741L126.953 126.776C126.815 126.639 126.401 126.639 126.264 126.776L124.196 128.017C124.058 128.017 124.058 128.155 124.058 128.293C124.058 128.293 124.058 128.293 124.058 128.43C124.058 128.43 124.058 128.43 124.058 128.568C124.058 128.706 124.058 128.706 124.196 128.844L125.85 129.809C125.988 129.946 126.401 129.946 126.539 129.809L128.607 128.568C128.744 128.568 128.744 128.43 128.744 128.293C128.744 128.293 128.744 128.293 128.744 128.155C128.744 128.155 128.744 128.155 128.744 128.017C128.744 127.879 128.744 127.741 128.607 127.741ZM140.46 115.199C140.46 115.337 140.46 115.337 140.46 115.199C140.46 115.337 140.46 115.337 140.46 115.337C140.46 115.475 140.46 115.475 140.598 115.612L142.252 116.577C142.389 116.715 142.803 116.715 142.941 116.577L145.008 115.337C145.146 115.337 145.146 115.199 145.146 115.061C145.146 115.061 145.146 115.061 145.146 114.923C145.146 114.923 145.146 114.923 145.146 114.785C145.146 114.648 145.146 114.648 145.008 114.51L143.354 113.545C143.216 113.407 142.803 113.407 142.665 113.545L140.598 114.785C140.46 115.061 140.322 115.199 140.46 115.199ZM131.915 125.812L130.261 124.847C130.123 124.709 129.709 124.709 129.571 124.847L127.504 126.087C127.366 126.087 127.366 126.225 127.366 126.363C127.366 126.363 127.366 126.363 127.366 126.501C127.366 126.501 127.366 126.501 127.366 126.639C127.366 126.776 127.366 126.776 127.504 126.914L129.158 127.879C129.296 128.017 129.709 128.017 129.847 127.879L131.915 126.639C132.052 126.639 132.052 126.501 132.052 126.363C132.052 126.363 132.052 126.363 132.052 126.225C132.052 126.225 132.052 126.225 132.052 126.087C132.052 125.949 132.052 125.949 131.915 125.812ZM118.683 133.392L117.029 132.427C116.891 132.29 116.478 132.29 116.34 132.427L114.273 133.668C114.135 133.668 114.135 133.806 114.135 133.943C114.135 133.943 114.135 133.943 114.135 134.081C114.135 134.081 114.135 134.081 114.135 134.219C114.135 134.357 114.135 134.357 114.273 134.495L115.926 135.46C116.064 135.597 116.478 135.597 116.616 135.46L118.683 134.219C118.821 134.219 118.821 134.081 118.821 133.943C118.821 133.943 118.821 133.943 118.821 133.806C118.821 133.806 118.821 133.806 118.821 133.668C118.821 133.53 118.821 133.53 118.683 133.392ZM112.205 137.251L110.551 136.287C110.413 136.149 110 136.149 109.862 136.287L107.795 137.527C107.657 137.527 107.657 137.665 107.657 137.803C107.657 137.803 107.657 137.803 107.657 137.941C107.657 137.941 107.657 137.941 107.657 138.078C107.657 138.216 107.657 138.216 107.795 138.354L109.449 139.319C109.586 139.457 110 139.457 110.138 139.319L112.205 138.078C112.343 138.078 112.343 137.941 112.343 137.803C112.343 137.803 112.343 137.803 112.343 137.665C112.343 137.665 112.343 137.665 112.343 137.527C112.343 137.389 112.205 137.251 112.205 137.251ZM115.375 135.322L113.721 134.357C113.583 134.219 113.17 134.219 113.032 134.357L110.965 135.597C110.827 135.597 110.827 135.735 110.827 135.873C110.827 135.873 110.827 135.873 110.827 136.011C110.827 136.011 110.827 136.011 110.827 136.149C110.827 136.287 110.827 136.287 110.965 136.424L112.619 137.389C112.756 137.527 113.17 137.527 113.308 137.389L115.375 136.149C115.513 136.149 115.513 136.011 115.513 135.873C115.513 135.873 115.513 135.873 115.513 135.735C115.513 135.735 115.513 135.735 115.513 135.597C115.651 135.46 115.513 135.46 115.375 135.322Z" fill="#D2D1CE"/>
<path d="M99.5256 137.94L97.4582 139.181C97.3204 139.319 96.9069 139.319 96.769 139.181L95.1151 138.216C94.9773 138.078 94.9773 137.94 95.1151 137.803L97.1825 136.562C97.3203 136.424 97.7338 136.424 97.8717 136.562L99.5256 137.527C99.8013 137.665 99.8013 137.803 99.5256 137.94ZM102.833 135.597L101.18 134.633C101.042 134.495 100.628 134.495 100.49 134.633L98.423 135.873C98.2852 136.011 98.2852 136.149 98.423 136.286L100.077 137.251C100.215 137.389 100.628 137.389 100.766 137.251L102.833 136.011C103.109 135.873 103.109 135.735 102.833 135.597ZM106.141 133.668L104.487 132.703C104.35 132.565 103.936 132.565 103.798 132.703L101.731 133.943C101.593 134.081 101.593 134.219 101.731 134.357L103.385 135.322C103.523 135.459 103.936 135.459 104.074 135.322L106.141 134.081C106.279 133.943 106.279 133.806 106.141 133.668ZM109.449 131.738L107.795 130.773C107.657 130.635 107.244 130.635 107.106 130.773L105.039 132.014C104.901 132.152 104.901 132.289 105.039 132.427L106.693 133.392C106.831 133.53 107.244 133.53 107.382 133.392L109.449 132.152C109.587 132.152 109.587 131.876 109.449 131.738ZM112.757 129.946L111.103 128.982C110.965 128.844 110.552 128.844 110.414 128.982L108.347 130.222C108.209 130.36 108.209 130.498 108.347 130.635L110.001 131.6C110.138 131.738 110.552 131.738 110.69 131.6L112.757 130.36C112.895 130.222 112.895 129.946 112.757 129.946ZM116.065 128.017L114.411 127.052C114.273 126.914 113.86 126.914 113.722 127.052L111.654 128.292C111.517 128.43 111.517 128.568 111.654 128.706L113.308 129.671C113.446 129.809 113.86 129.809 113.998 129.671L116.065 128.43C116.203 128.292 116.203 128.155 116.065 128.017ZM119.373 126.087L117.719 125.122C117.581 124.985 117.168 124.985 117.03 125.122L114.962 126.363C114.825 126.501 114.825 126.638 114.962 126.776L116.616 127.741C116.754 127.879 117.168 127.879 117.305 127.741L119.373 126.501C119.511 126.363 119.511 126.225 119.373 126.087ZM122.681 124.158L120.889 123.193C120.751 123.055 120.338 123.055 120.2 123.193L118.132 124.433C117.995 124.571 117.995 124.709 118.132 124.847L119.786 125.811C119.924 125.949 120.338 125.949 120.476 125.811L122.543 124.571C122.819 124.433 122.819 124.295 122.681 124.158ZM125.989 122.228L124.335 121.263C124.197 121.125 123.783 121.125 123.646 121.263L121.578 122.504C121.44 122.641 121.44 122.779 121.578 122.917L123.232 123.882C123.37 124.02 123.783 124.02 123.921 123.882L125.989 122.641C126.126 122.641 126.126 122.366 125.989 122.228ZM130.261 119.747L128.607 118.782C128.47 118.644 128.056 118.644 127.918 118.782L124.748 120.574C124.61 120.712 124.61 120.85 124.748 120.988L126.402 121.952C126.54 122.09 126.953 122.09 127.091 121.952L130.261 120.161C130.537 120.023 130.537 119.885 130.261 119.747ZM144.458 122.09L142.804 121.125C142.666 120.988 142.252 120.988 142.115 121.125L140.047 122.366C139.909 122.504 139.909 122.641 140.047 122.779L141.701 123.744C141.839 123.882 142.252 123.882 142.39 123.744L144.458 122.504C144.595 122.366 144.595 122.09 144.458 122.09ZM147.766 120.161L146.112 119.196C145.974 119.058 145.56 119.058 145.422 119.196L143.355 120.436C143.217 120.574 143.217 120.712 143.355 120.85L145.009 121.814C145.147 121.952 145.56 121.952 145.698 121.814L147.766 120.574C147.903 120.436 147.903 120.298 147.766 120.161ZM151.073 118.231L149.419 117.266C149.282 117.128 148.868 117.128 148.73 117.266L146.663 118.507C146.525 118.644 146.525 118.782 146.663 118.92L148.317 119.885C148.455 120.023 148.868 120.023 149.006 119.885L151.073 118.644C151.211 118.507 151.211 118.369 151.073 118.231ZM147.49 123.744L145.836 122.779C145.698 122.641 145.285 122.641 145.147 122.779L143.079 124.02C142.942 124.158 142.942 124.295 143.079 124.433L144.733 125.398C144.871 125.536 145.285 125.536 145.422 125.398L147.49 124.158C147.628 124.02 147.628 123.882 147.49 123.744ZM150.798 121.814L149.144 120.85C149.006 120.712 148.592 120.712 148.455 120.85L146.387 122.09C146.249 122.228 146.249 122.366 146.387 122.504L148.041 123.468C148.179 123.606 148.593 123.606 148.73 123.468L150.798 122.228C150.936 122.228 150.936 121.952 150.798 121.814ZM154.106 120.023L152.452 119.058C152.314 118.92 151.9 118.92 151.763 119.058L149.695 120.298C149.557 120.436 149.557 120.574 149.695 120.712L151.349 121.677C151.487 121.814 151.9 121.814 152.038 121.677L154.106 120.436C154.243 120.298 154.243 120.023 154.106 120.023ZM103.66 138.63L102.007 137.665C101.869 137.527 101.455 137.527 101.317 137.665L98.1473 139.456C98.0095 139.594 98.0095 139.732 98.1473 139.87L99.8013 140.835C99.9391 140.973 100.353 140.973 100.49 140.835L103.66 139.043C103.936 138.905 103.936 138.767 103.66 138.63ZM106.968 136.7L105.314 135.735C105.177 135.597 104.763 135.597 104.625 135.735L102.558 136.976C102.42 137.113 102.42 137.251 102.558 137.389L104.212 138.354C104.35 138.492 104.763 138.492 104.901 138.354L106.968 137.113C107.244 136.976 107.244 136.838 106.968 136.7ZM110.276 134.77L108.622 133.806C108.484 133.668 108.071 133.668 107.933 133.806L105.866 135.046C105.728 135.184 105.728 135.322 105.866 135.459L107.52 136.424C107.657 136.562 108.071 136.562 108.209 136.424L110.276 135.184C110.414 135.046 110.414 134.908 110.276 134.77ZM113.584 132.841L111.93 131.876C111.792 131.738 111.379 131.738 111.241 131.876L109.174 133.116C109.036 133.254 109.036 133.392 109.174 133.53L110.828 134.495C110.965 134.632 111.379 134.632 111.517 134.495L113.584 133.254C113.722 133.254 113.722 132.979 113.584 132.841ZM116.892 131.049L115.238 130.084C115.1 129.946 114.687 129.946 114.549 130.084L112.481 131.325C112.344 131.462 112.344 131.6 112.481 131.738L114.135 132.703C114.273 132.841 114.687 132.841 114.825 132.703L116.892 131.462C117.03 131.325 117.03 131.049 116.892 131.049ZM120.2 129.119L118.546 128.155C118.408 128.017 117.995 128.017 117.857 128.155L115.789 129.395C115.652 129.533 115.652 129.671 115.789 129.809L117.443 130.773C117.581 130.911 117.995 130.911 118.132 130.773L120.2 129.533C120.338 129.395 120.338 129.257 120.2 129.119ZM123.508 127.19L121.854 126.225C121.716 126.087 121.303 126.087 121.165 126.225L119.097 127.465C118.959 127.603 118.959 127.741 119.097 127.879L120.751 128.844C120.889 128.982 121.302 128.982 121.44 128.844L123.508 127.603C123.646 127.465 123.646 127.328 123.508 127.19ZM126.816 125.26L125.162 124.295C125.024 124.158 124.61 124.158 124.473 124.295L122.405 125.536C122.267 125.674 122.267 125.811 122.405 125.949L124.059 126.914C124.197 127.052 124.61 127.052 124.748 126.914L126.816 125.674C126.953 125.536 126.953 125.398 126.816 125.26ZM130.124 123.331L128.47 122.366C128.332 122.228 127.918 122.228 127.78 122.366L125.713 123.606C125.575 123.744 125.575 123.882 125.713 124.02L127.367 124.985C127.505 125.122 127.918 125.122 128.056 124.985L130.124 123.744C130.261 123.744 130.261 123.468 130.124 123.331ZM133.431 121.539L131.777 120.574C131.64 120.436 131.226 120.436 131.088 120.574L129.021 121.814C128.883 121.952 128.883 122.09 129.021 122.228L130.675 123.193C130.813 123.331 131.226 123.331 131.364 123.193L133.431 121.952C133.569 121.814 133.569 121.539 133.431 121.539ZM105.59 140.973L103.936 140.008C103.798 139.87 103.385 139.87 103.247 140.008L101.18 141.248C101.042 141.386 101.042 141.524 101.18 141.662L102.833 142.627C102.971 142.764 103.385 142.764 103.523 142.627L105.59 141.386C105.728 141.248 105.728 141.11 105.59 140.973ZM108.898 139.043L107.244 138.078C107.106 137.94 106.693 137.94 106.555 138.078L104.487 139.319C104.35 139.456 104.35 139.594 104.487 139.732L106.141 140.697C106.279 140.835 106.693 140.835 106.83 140.697L108.898 139.456C109.036 139.319 109.036 139.181 108.898 139.043ZM112.206 137.113L110.552 136.149C110.414 136.011 110.001 136.011 109.863 136.149L107.795 137.389C107.657 137.527 107.657 137.665 107.795 137.803L109.449 138.767C109.587 138.905 110.001 138.905 110.138 138.767L112.206 137.527C112.344 137.389 112.344 137.251 112.206 137.113ZM115.376 135.184L113.722 134.219C113.584 134.081 113.171 134.081 113.033 134.219L110.965 135.459C110.828 135.597 110.828 135.735 110.965 135.873L112.619 136.838C112.757 136.976 113.171 136.976 113.308 136.838L115.376 135.597C115.652 135.597 115.652 135.322 115.376 135.184ZM111.517 144.418L109.863 143.454C109.725 143.316 109.311 143.316 109.174 143.454L107.106 144.694C106.968 144.832 106.968 144.97 107.106 145.107L108.76 146.072C108.898 146.21 109.311 146.21 109.449 146.072L111.517 144.832C111.655 144.694 111.655 144.556 111.517 144.418ZM114.825 142.489L113.171 141.524C113.033 141.386 112.619 141.386 112.481 141.524L110.414 142.764C110.276 142.902 110.276 143.04 110.414 143.178L112.068 144.143C112.206 144.28 112.619 144.28 112.757 144.143L114.825 142.902C114.962 142.764 114.962 142.627 114.825 142.489ZM118.132 140.559L116.478 139.594C116.341 139.456 115.927 139.456 115.789 139.594L113.722 140.835C113.584 140.973 113.584 141.11 113.722 141.248L115.376 142.213C115.514 142.351 115.927 142.351 116.065 142.213L118.132 140.973C118.27 140.973 118.27 140.697 118.132 140.559ZM121.44 138.767L119.786 137.803C119.649 137.665 119.235 137.665 119.097 137.803L117.03 139.043C116.892 139.181 116.892 139.319 117.03 139.456L118.684 140.421C118.822 140.559 119.235 140.559 119.373 140.421L121.44 139.181C121.578 139.043 121.578 138.767 121.44 138.767ZM142.252 126.638L140.598 125.674C140.461 125.536 140.047 125.536 139.909 125.674L136.739 127.465C136.601 127.603 136.601 127.741 136.739 127.879L138.393 128.844C138.531 128.982 138.945 128.982 139.082 128.844L142.252 127.052C142.39 126.914 142.39 126.776 142.252 126.638ZM118.684 133.392L117.03 132.427C116.892 132.289 116.479 132.289 116.341 132.427L114.273 133.668C114.135 133.806 114.135 133.943 114.273 134.081L115.927 135.046C116.065 135.184 116.478 135.184 116.616 135.046L118.684 133.806C118.959 133.668 118.959 133.53 118.684 133.392ZM121.992 131.462L120.338 130.498C120.2 130.36 119.786 130.36 119.649 130.498L117.581 131.738C117.443 131.876 117.443 132.014 117.581 132.152L119.235 133.116C119.373 133.254 119.786 133.254 119.924 133.116L121.992 131.876C122.267 131.738 122.267 131.6 121.992 131.462ZM125.3 129.533L123.646 128.568C123.508 128.43 123.094 128.43 122.956 128.568L120.889 129.809C120.751 129.946 120.751 130.084 120.889 130.222L122.543 131.187C122.681 131.325 123.094 131.325 123.232 131.187L125.3 129.946C125.575 129.809 125.575 129.671 125.3 129.533ZM128.607 127.603L126.953 126.638C126.816 126.501 126.402 126.501 126.264 126.638L124.197 127.879C124.059 128.017 124.059 128.155 124.197 128.292L125.851 129.257C125.989 129.395 126.402 129.395 126.54 129.257L128.607 128.017C128.883 127.879 128.883 127.741 128.607 127.603ZM131.915 125.674L130.261 124.709C130.123 124.571 129.71 124.571 129.572 124.709L127.505 125.949C127.367 126.087 127.367 126.225 127.505 126.363L129.159 127.328C129.297 127.465 129.71 127.465 129.848 127.328L131.915 126.087C132.053 126.087 132.053 125.811 131.915 125.674ZM136.326 123.193L134.672 122.228C134.534 122.09 134.121 122.09 133.983 122.228L130.813 124.02C130.675 124.158 130.675 124.295 130.813 124.433L132.467 125.398C132.604 125.536 133.018 125.536 133.156 125.398L136.326 123.606C136.464 123.468 136.464 123.331 136.326 123.193ZM109.725 142.075L108.071 141.11C107.933 140.973 107.52 140.973 107.382 141.11L104.212 142.902C104.074 143.04 104.074 143.178 104.212 143.316L105.866 144.28C106.004 144.418 106.417 144.418 106.555 144.28L109.725 142.489C109.863 142.351 109.863 142.213 109.725 142.075ZM113.033 140.146L111.379 139.181C111.241 139.043 110.828 139.043 110.69 139.181L108.622 140.421C108.484 140.559 108.484 140.697 108.622 140.835L110.276 141.8C110.414 141.937 110.828 141.937 110.965 141.8L113.033 140.559C113.171 140.421 113.171 140.283 113.033 140.146ZM116.341 138.216L114.687 137.251C114.549 137.113 114.135 137.113 113.998 137.251L111.93 138.492C111.792 138.63 111.792 138.767 111.93 138.905L113.584 139.87C113.722 140.008 114.135 140.008 114.273 139.87L116.341 138.63C116.479 138.63 116.479 138.354 116.341 138.216ZM119.511 136.424L117.857 135.459C117.719 135.322 117.305 135.322 117.168 135.459L115.1 136.7C114.962 136.838 114.962 136.976 115.1 137.113L116.754 138.078C116.892 138.216 117.305 138.216 117.443 138.078L119.511 136.838C119.786 136.7 119.786 136.424 119.511 136.424ZM122.819 134.495L121.165 133.53C121.027 133.392 120.613 133.392 120.476 133.53L118.408 134.77C118.27 134.908 118.27 135.046 118.408 135.184L120.062 136.149C120.2 136.286 120.613 136.286 120.751 136.149L122.819 134.908C123.094 134.77 123.094 134.632 122.819 134.495ZM137.98 129.119L136.326 128.155C136.188 128.017 135.774 128.017 135.637 128.155L120.338 136.976C120.2 137.113 120.2 137.251 120.338 137.389L121.992 138.354C122.129 138.492 122.543 138.492 122.681 138.354L137.98 129.533C138.118 129.533 138.118 129.257 137.98 129.119ZM126.126 132.565L124.473 131.6C124.335 131.462 123.921 131.462 123.783 131.6L121.716 132.841C121.578 132.979 121.578 133.116 121.716 133.254L123.37 134.219C123.508 134.357 123.921 134.357 124.059 134.219L126.126 132.979C126.402 132.841 126.402 132.703 126.126 132.565ZM129.434 130.635L127.78 129.671C127.643 129.533 127.229 129.533 127.091 129.671L125.024 130.911C124.886 131.049 124.886 131.187 125.024 131.325L126.678 132.289C126.816 132.427 127.229 132.427 127.367 132.289L129.434 131.049C129.71 130.911 129.71 130.773 129.434 130.635ZM132.742 128.706L131.088 127.741C130.95 127.603 130.537 127.603 130.399 127.741L128.332 128.982C128.194 129.119 128.194 129.257 128.332 129.395L129.986 130.36C130.124 130.498 130.537 130.498 130.675 130.36L132.742 129.119C133.018 128.982 133.018 128.844 132.742 128.706ZM136.05 126.776L134.396 125.811C134.258 125.674 133.845 125.674 133.707 125.811L131.64 127.052C131.502 127.19 131.502 127.328 131.64 127.465L133.294 128.43C133.431 128.568 133.845 128.568 133.983 128.43L136.05 127.19C136.188 127.19 136.188 126.914 136.05 126.776ZM139.358 124.985L137.704 124.02C137.566 123.882 137.153 123.882 137.015 124.02L134.948 125.26C134.81 125.398 134.81 125.536 134.948 125.674L136.601 126.638C136.739 126.776 137.153 126.776 137.291 126.638L139.358 125.398C139.496 125.26 139.496 124.985 139.358 124.985ZM135.361 116.853L133.707 115.888C133.569 115.75 133.156 115.75 133.018 115.888L130.95 117.128C130.813 117.266 130.813 117.404 130.95 117.542L132.604 118.507C132.742 118.644 133.156 118.644 133.294 118.507L135.361 117.266C135.637 117.128 135.637 116.99 135.361 116.853ZM138.669 114.923L137.015 113.958C136.877 113.82 136.464 113.82 136.326 113.958L134.258 115.199C134.121 115.337 134.121 115.474 134.258 115.612L135.912 116.577C136.05 116.715 136.464 116.715 136.601 116.577L138.669 115.337C138.944 115.199 138.944 115.061 138.669 114.923ZM141.977 112.993L140.323 112.029C140.185 111.891 139.771 111.891 139.634 112.029L137.566 113.269C137.428 113.407 137.428 113.545 137.566 113.683L139.22 114.647C139.358 114.785 139.771 114.785 139.909 114.647L141.977 113.407C142.252 113.269 142.252 113.131 141.977 112.993ZM145.009 114.785L143.355 113.82C143.217 113.683 142.804 113.683 142.666 113.82L140.598 115.061C140.461 115.199 140.461 115.337 140.598 115.474L142.252 116.439C142.39 116.577 142.804 116.577 142.942 116.439L145.009 115.199C145.285 115.061 145.285 114.923 145.009 114.785ZM147.903 116.301L146.249 115.337C146.112 115.199 145.836 115.199 145.698 115.337L142.804 116.99C142.666 117.128 142.39 117.128 142.252 116.99L140.047 115.75C139.771 115.612 139.358 115.612 139.22 115.75L133.983 118.782C133.707 118.92 133.707 119.196 133.983 119.334L138.531 121.952C138.807 122.09 139.22 122.09 139.358 121.952L147.903 116.99C148.179 116.715 148.179 116.439 147.903 116.301Z" fill="#FFFEFB"/>
<path d="M180.703 113.269C180.013 111.478 177.395 108.032 173.26 106.516C170.09 105.275 165.955 104.035 161.131 106.792C160.993 106.929 160.717 107.067 160.58 107.067C158.788 108.308 158.926 110.513 160.717 111.753C164.163 114.096 168.298 116.44 168.298 116.44C169.263 116.991 170.365 117.404 171.606 117.68C174.362 118.369 176.843 118.093 178.911 116.991C180.289 116.164 180.84 115.199 180.84 114.234C180.978 114.096 180.84 113.683 180.703 113.269Z" fill="url(#paint4_radial_14822_160602)"/>
<path opacity="0.6" d="M167.194 107.205L165.816 106.516C165.402 106.378 164.851 106.24 164.3 106.792C164.024 107.067 164.162 107.205 164.575 107.343L165.954 108.032C166.367 108.17 167.056 108.308 167.332 108.032C167.608 107.756 167.608 107.481 167.194 107.205Z" fill="#D2D1CE"/>
<path d="M166.369 106.102C165.955 105.827 165.404 105.827 164.99 106.102L166.92 109.272C167.885 108.445 167.471 106.791 166.369 106.102Z" fill="#FFFEFB"/>
<path d="M166.92 107.619C166.644 106.93 166.231 106.516 165.817 106.24C165.542 106.103 165.404 106.103 165.128 106.103C164.99 106.103 164.99 106.103 164.852 106.24C164.715 106.378 164.439 106.516 164.301 107.067C164.025 108.308 165.404 110.237 166.782 109.548C167.058 109.135 167.195 108.446 166.92 107.619Z" fill="#B6B5B3"/>
<path opacity="0.5" d="M165.955 108.033C165.817 107.619 165.542 107.344 165.266 107.206C165.128 107.068 164.99 107.068 164.853 107.068C164.439 107.068 164.301 107.619 164.577 108.17C164.715 108.584 164.99 108.86 165.266 108.997C165.404 109.135 165.542 109.135 165.68 109.135C166.093 109.135 166.231 108.584 165.955 108.033Z" fill="#CCCECE"/>
<path d="M167.057 107.618C167.057 107.48 167.057 107.48 167.057 107.618C166.919 107.205 166.643 106.929 166.506 106.653C166.368 106.516 166.092 106.24 165.954 106.102C165.679 105.964 165.541 105.964 165.265 105.964C165.127 105.964 165.127 105.964 164.989 106.102L164.852 106.24C164.989 106.24 164.989 106.102 165.127 106.102C165.403 106.102 165.541 106.102 165.816 106.24C165.954 106.378 166.23 106.516 166.368 106.791C166.506 107.067 166.781 107.343 166.919 107.618C166.919 107.618 166.919 107.618 167.057 107.618C167.195 108.445 167.057 109.134 166.781 109.41L166.919 109.272C167.195 108.997 167.332 108.307 167.057 107.618Z" fill="#F0EFEC"/>
<path opacity="0.6" d="M179.323 116.164C177.256 117.404 174.775 117.68 172.019 116.853C170.916 116.577 169.813 116.164 168.711 115.613C168.711 115.613 164.576 113.407 161.13 110.926C160.028 110.237 159.614 109.272 159.752 108.308C159.201 109.548 159.614 110.926 160.992 111.891C164.438 114.234 168.573 116.577 168.573 116.577C169.538 117.129 170.64 117.542 171.881 117.818C174.637 118.507 177.118 118.231 179.186 117.129C180.426 116.439 181.115 115.475 181.115 114.51C180.702 115.061 180.15 115.613 179.323 116.164Z" fill="#D2D1CE"/>
<path opacity="0.6" d="M179.186 116.578C177.118 117.818 174.637 118.094 171.881 117.267C170.778 116.991 169.676 116.578 168.573 116.026C168.573 116.026 164.438 113.821 160.992 111.34C159.89 110.513 159.476 109.548 159.614 108.446C159.201 109.548 159.614 110.927 160.854 111.754C164.3 114.097 168.435 116.44 168.435 116.44C169.4 116.991 170.502 117.405 171.743 117.68C174.499 118.369 176.98 118.094 179.048 116.991C180.15 116.302 180.84 115.475 180.977 114.648C180.702 115.337 180.013 116.026 179.186 116.578Z" fill="#D2D1CE"/>
<path opacity="0.2" d="M164.574 68.1988L84.3574 114.509V64.8909L164.574 18.5806V68.1988Z" fill="#788EFF"/>
<path opacity="0.2" d="M164.574 68.1988L84.3574 114.509V64.8909L164.574 18.5806V68.1988Z" fill="#3852D4"/>
<path opacity="0.5" d="M85.4609 67.2341V112.58L143.624 78.9495L164.574 66.8206V21.4751L85.4609 67.2341Z" fill="#213FD8"/>
<path d="M164.574 18.8561L84.3574 65.1664V61.9963L164.574 15.686V18.8561Z" fill="#788EFF"/>
<path d="M137.417 82.5334L84.3535 113.131V75.5041L137.417 44.9062V82.5334Z" fill="#788EFF"/>
<path d="M137.417 79.9146L84.3535 110.65V75.5041L137.417 44.9062V79.9146Z" fill="#C2CCFF"/>
<path d="M121.429 68.1994L100.617 80.1905C99.5145 80.7418 98.6875 80.4662 98.6875 79.3635C98.6875 78.2609 99.5145 76.8826 100.617 76.1935L121.429 64.2024C122.532 63.6511 123.359 63.9268 123.359 65.0294C123.359 66.132 122.532 67.6481 121.429 68.1994Z" fill="#FFFFD6"/>
<path d="M121.429 75.2287L100.617 87.2198C99.5145 87.7711 98.6875 87.4955 98.6875 86.3928C98.6875 85.2902 99.5145 83.9119 100.617 83.2228L121.429 71.2317C122.532 70.6804 123.359 70.9561 123.359 72.0587C123.359 73.1613 122.532 74.5396 121.429 75.2287Z" fill="#FFFFD6"/>
<path d="M113.71 86.6682L107.783 90.1139C106.68 90.6652 105.854 90.3896 105.854 89.2869C105.854 88.1843 106.68 86.806 107.783 86.1169L113.71 82.6712C114.812 82.1199 115.639 82.3955 115.639 83.4981C115.639 84.6008 114.812 85.979 113.71 86.6682Z" fill="#788EFF"/>
<path d="M101.167 84.8767C101.167 85.1524 100.891 85.428 100.753 85.7037C100.478 85.8415 100.34 85.7037 100.34 85.428C100.34 85.1524 100.615 84.8767 100.753 84.6011C100.891 84.6011 101.167 84.6011 101.167 84.8767Z" fill="#9F9F9F"/>
<path d="M103.098 83.7742C103.098 84.0499 102.823 84.3255 102.685 84.6012C102.409 84.739 102.271 84.6012 102.271 84.3255C102.271 84.0499 102.547 83.7742 102.685 83.4985C102.823 83.4985 103.098 83.4985 103.098 83.7742Z" fill="#9F9F9F"/>
<path d="M105.028 82.671C105.028 82.9467 104.753 83.2223 104.615 83.498C104.339 83.6358 104.201 83.498 104.201 83.2223C104.201 82.9467 104.477 82.671 104.615 82.3954C104.89 82.2576 105.028 82.3954 105.028 82.671Z" fill="#9F9F9F"/>
<path d="M106.958 81.5685C106.958 81.8442 106.682 82.1198 106.544 82.3955C106.269 82.5333 106.131 82.3955 106.131 82.1198C106.131 81.8442 106.407 81.5685 106.544 81.2928C106.82 81.155 106.958 81.2928 106.958 81.5685Z" fill="#9F9F9F"/>
<path d="M108.889 80.466C108.889 80.7416 108.614 81.0173 108.476 81.2929C108.2 81.4308 108.062 81.2929 108.062 81.0173C108.062 80.7416 108.338 80.466 108.476 80.1903C108.752 80.0525 108.889 80.1903 108.889 80.466Z" fill="#9F9F9F"/>
<path d="M110.956 79.2254C110.956 79.501 110.68 79.7767 110.542 80.0523C110.267 80.1902 110.129 80.0523 110.129 79.7767C110.129 79.501 110.405 79.2254 110.542 78.9497C110.68 78.9497 110.956 78.9497 110.956 79.2254Z" fill="#9F9F9F"/>
<path d="M112.884 78.1233C112.884 78.399 112.608 78.6746 112.47 78.9503C112.194 79.0881 112.057 78.9503 112.057 78.6746C112.057 78.399 112.332 78.1233 112.47 77.8477C112.608 77.8477 112.884 77.8477 112.884 78.1233Z" fill="#9F9F9F"/>
<path d="M114.813 77.0206C114.813 77.2963 114.538 77.572 114.4 77.8476C114.124 77.9854 113.986 77.8476 113.986 77.572C113.986 77.2963 114.262 77.0206 114.4 76.745C114.538 76.6072 114.813 76.745 114.813 77.0206Z" fill="#9F9F9F"/>
<path d="M100.757 77.7092V78.8118C100.757 79.0874 100.895 79.0874 101.17 78.9496C101.446 78.8118 101.584 78.5361 101.584 78.3983V77.1578L101.86 77.02V78.2605V78.674L101.722 78.8118V78.5361C101.584 78.674 101.446 78.9496 101.17 79.0874C100.895 79.2253 100.619 79.0874 100.619 78.8118V77.7092H100.757Z" fill="#9F9F9F"/>
<path d="M103.238 77.4339C103.238 77.1582 103.1 77.2961 102.824 77.4339C102.411 77.7096 102.273 77.5717 102.273 77.2961C102.273 77.0204 102.548 76.6069 102.824 76.4691C103.238 76.1934 103.375 76.3313 103.375 76.7448L103.1 76.8826C103.1 76.6069 102.962 76.6069 102.686 76.7448C102.411 76.8826 102.273 77.0204 102.273 77.2961C102.273 77.4339 102.411 77.5717 102.686 77.2961C103.1 77.1582 103.238 77.1582 103.238 77.4339C103.238 77.7096 102.962 78.123 102.549 78.2609C102.135 78.5365 101.859 78.3987 101.859 78.123L102.135 77.9852C102.135 78.123 102.273 78.2609 102.549 78.123C103.1 77.8474 103.238 77.5717 103.238 77.4339Z" fill="#9F9F9F"/>
<path d="M103.926 76.7441C103.926 77.1576 104.064 77.2954 104.477 77.0198C104.753 76.882 104.891 76.6063 104.891 76.3306L105.029 76.1928C105.029 76.4685 104.753 76.882 104.34 77.1576C103.788 77.4333 103.65 77.1576 103.65 76.7441V76.6063C103.65 76.1928 103.926 75.6415 104.34 75.3658C104.753 75.0902 105.029 75.3658 105.029 75.7793V75.9172L103.926 76.7441ZM103.926 76.4685L104.891 75.9172C104.891 75.5037 104.753 75.3658 104.477 75.6415C104.202 75.7793 103.926 76.1928 103.926 76.4685Z" fill="#9F9F9F"/>
<path d="M106.269 74.4014V74.677C105.994 74.8149 105.856 75.0905 105.856 75.2283V76.4688L105.58 76.6066V75.3662V74.9527L105.718 74.8149V74.9527C105.856 74.8149 105.994 74.5392 106.269 74.4014C106.131 74.4014 106.269 74.4014 106.269 74.4014Z" fill="#9F9F9F"/>
<path d="M107.512 75.5039L107.236 75.6417V73.1608L107.512 73.0229V75.5039Z" fill="#9F9F9F"/>
<path d="M108.615 74.8148L107.926 75.2283V72.7474L108.615 72.3339C109.166 72.0582 109.58 72.0582 109.58 73.023V73.1609C109.58 73.9878 109.166 74.4013 108.615 74.8148ZM108.615 74.5391C109.028 74.2635 109.304 73.85 109.304 73.1609V73.023C109.304 72.3339 109.028 72.1961 108.615 72.4717L108.201 72.7474V74.8148L108.615 74.5391Z" fill="#9F9F9F"/>
<path d="M84.3574 67.7854V76.0551L137.421 45.4572V37.1875L84.3574 67.7854Z" fill="#788EFF"/>
<path d="M159.615 20.923L157.961 21.8878V20.2338L159.615 19.269V20.923Z" fill="#5373F9"/>
<path d="M161.819 19.6823L160.027 20.6471V18.9931L161.819 18.0283V19.6823Z" fill="#5373F9"/>
<path d="M160.305 19.1315V20.372L161.545 19.6828V18.4424L160.305 19.1315ZM161.269 19.545L160.443 19.9585V19.1315L161.269 18.718V19.545Z" fill="#F7F8FF"/>
<path d="M163.886 18.442L162.232 19.4068V17.7529L163.886 16.7881V18.442Z" fill="#5373F9"/>
<path d="M162.512 18.0286L162.925 18.1665L162.512 18.8556L162.65 18.9934L163.063 18.3043L163.476 18.4421L163.752 18.1665L163.201 18.0286L163.752 17.3395L163.476 17.2017L163.063 18.0286L162.65 17.753L162.512 18.0286Z" fill="#F7F8FF"/>
<path d="M159.337 20.7848L158.234 21.4739V21.1983L159.337 20.647V20.7848Z" fill="#F7F8FF"/>
<path d="M161.132 55.2425L141.561 66.5444V62.6852L161.132 51.3833V55.2425Z" fill="#788EFF"/>
<path d="M142.525 63.2374L160.167 53.0381V54.692L142.525 64.8913V63.2374Z" fill="#291B2A"/>
<path d="M170.366 84.1863L169.539 83.7729C168.988 83.4972 168.575 83.0837 168.023 82.5324C167.472 81.9811 167.059 81.1541 166.645 80.465C166.232 79.638 166.094 78.8111 166.094 77.9841V63.6499C166.094 62.823 165.818 61.8582 165.542 61.0312C165.267 60.2042 164.716 59.5151 164.164 58.8259C163.751 58.2746 163.199 57.8611 162.648 57.5855L156.308 54.002L143.766 61.3069L150.106 64.8904C150.657 65.166 151.208 65.7174 151.622 66.1308C152.173 66.82 152.587 67.5091 153 68.3361C153.414 69.1631 153.551 70.1279 153.551 70.9548V85.289C153.551 86.116 153.827 86.9429 154.103 87.7699C154.378 88.459 154.93 89.286 155.481 89.8373C155.895 90.3886 156.446 90.8021 156.997 91.0778L157.824 91.4913C158.789 92.0426 159.616 92.0426 160.167 91.7669L172.71 84.462C172.158 84.7377 171.331 84.7377 170.366 84.1863Z" fill="url(#paint5_linear_14822_160602)"/>
<path d="M162.371 79.3625C161.82 79.776 161.406 80.4651 161.406 81.5678V89.6996C161.406 90.8023 160.993 91.6292 160.441 91.9049L172.984 84.6C173.673 84.1865 173.949 83.4974 173.949 82.3947V74.2629C173.949 73.1602 174.362 72.4711 174.913 72.0576L162.371 79.3625Z" fill="#DAD7D7"/>
<path d="M184.978 92.5941L184.151 92.1806C183.6 91.9049 183.186 91.4915 182.635 90.9401C182.084 90.3888 181.67 89.5619 181.257 88.8727C180.843 88.0457 180.705 87.2188 180.705 86.3918V78.2599C180.705 77.433 180.43 76.4682 180.154 75.6412C179.878 74.8142 179.327 74.1251 178.776 73.4359C178.362 72.8846 177.811 72.4711 177.26 72.1955C176.295 71.6442 175.33 71.6442 174.779 71.9198L162.236 79.0869C162.925 78.6734 163.752 78.8113 164.717 79.3626C165.269 79.6382 165.82 80.1895 166.233 80.603C166.785 81.2922 167.198 81.9813 167.612 82.8083C168.025 83.6352 168.163 84.6 168.163 85.427V93.5589C168.163 94.3858 168.439 95.2128 168.714 96.0398C168.99 96.7289 169.541 97.5559 170.093 98.1072C170.506 98.6585 171.057 99.072 171.609 99.3477L172.436 99.7612C173.4 100.312 174.227 100.312 174.779 100.037L187.321 92.7319C186.77 93.2832 185.943 93.1454 184.978 92.5941Z" fill="url(#paint6_linear_14822_160602)"/>
<path d="M176.98 94.2478C176.429 94.6613 176.016 95.3504 176.016 96.453V98.107C176.016 99.2096 175.602 100.037 175.051 100.312L187.593 93.0073C188.282 92.5938 188.558 91.9047 188.558 90.8021V89.1481C188.558 88.0455 188.971 87.3564 189.523 86.9429L176.98 94.2478Z" fill="#DAD7D7"/>
<path d="M191.869 86.943C190.904 86.3917 189.939 86.3917 189.388 86.6674L176.846 93.9723C177.535 93.5588 178.362 93.6966 179.327 94.248L187.458 98.9341L200.001 91.6292L191.869 86.943Z" fill="#F8F5F4"/>
<path d="M187.457 99.0713L179.325 94.3852C177.396 93.2825 175.742 94.1095 175.742 96.4526V98.1065C175.742 100.312 174.226 101.139 172.296 100.036L171.469 99.6226C169.54 98.52 168.023 95.9013 168.161 93.8339V85.702C168.161 83.4967 166.645 80.7402 164.716 79.6375C162.786 78.5349 161.132 79.3619 161.132 81.705V89.8368C161.132 92.0421 159.616 92.8691 157.686 91.7664L156.859 91.3529C154.93 90.2503 153.414 87.6316 153.551 85.5642V71.23C153.551 69.0248 152.035 66.2682 150.106 65.1656L143.766 61.582V61.7199L150.106 65.3034C152.035 66.406 153.551 69.0248 153.414 71.0922V85.4263C153.414 87.6316 154.93 90.3881 156.859 91.4908L157.686 91.9043C159.616 93.0069 161.27 92.1799 161.27 89.8368V81.705C161.27 79.4997 162.786 78.6727 164.716 79.7754C166.645 80.878 168.161 83.4967 168.023 85.5642V93.696C168.023 95.9013 169.54 98.6578 171.469 99.7605L172.296 100.174C174.226 101.277 175.88 100.45 175.88 98.1065V96.4526C175.88 94.2473 177.396 93.4204 179.325 94.523L187.457 99.2092L200 91.9043V91.7664L187.457 99.0713Z" fill="#F3F0F0"/>
<path d="M161.132 39.5311L141.561 50.833V46.9738L161.132 35.6719V39.5311Z" fill="#788EFF"/>
<path d="M142.525 47.5255L160.167 37.3262V38.9801L142.525 49.1794V47.5255Z" fill="#291B2A"/>
<path d="M141.565 46.4217C141.565 46.6973 141.703 46.973 142.116 47.1108L164.445 60.0667C165.134 60.4802 166.099 60.4802 166.65 60.2045L180.019 52.4861C180.295 52.3483 180.433 52.0726 180.433 51.9348C180.433 51.797 180.433 51.6592 180.433 51.5213C180.433 51.2457 180.295 51.1078 179.881 50.8322L157.553 37.8763C156.864 37.4628 155.899 37.4628 155.348 37.7385L141.979 45.4569C141.703 45.5947 141.565 45.7325 141.565 46.0082C141.427 46.146 141.565 46.2839 141.565 46.4217Z" fill="url(#paint7_linear_14822_160602)"/>
<path d="M177.262 51.108C177.4 51.2459 177.538 51.3837 177.538 51.5215C177.538 51.6593 177.538 51.7972 177.262 51.935L176.435 52.4863C176.16 52.6241 175.471 52.6241 175.057 52.4863L171.887 50.6945C171.749 50.5567 171.611 50.4189 171.611 50.2811C171.611 50.1432 171.611 50.0054 171.887 49.8676L172.714 49.3163C172.99 49.1784 173.679 49.1784 174.092 49.3163L177.262 51.108Z" fill="#FFD7FB"/>
<path d="M150.66 46.6977C150.798 46.8355 150.935 46.9733 150.935 47.1111C150.935 47.249 150.935 47.3868 150.66 47.5246L149.006 48.4894C148.73 48.6272 148.041 48.6272 147.628 48.4894L144.182 46.422C144.044 46.2842 143.906 46.1463 143.906 46.0085C143.906 45.8707 143.906 45.7329 144.182 45.595L145.836 44.6302C146.111 44.4924 146.801 44.4924 147.214 44.6302L150.66 46.6977Z" fill="url(#paint8_linear_14822_160602)"/>
<path d="M144.32 46.422L147.766 48.4894C148.042 48.6272 148.593 48.7651 148.869 48.4894L150.522 47.5246C150.798 47.3868 150.798 47.1111 150.385 46.8355L146.939 44.768C146.663 44.6302 146.112 44.4924 145.836 44.768L144.182 45.7328C143.907 45.8707 143.907 46.1463 144.32 46.422Z" fill="#FFC440"/>
<g opacity="0.6">
<path d="M146.938 44.7681C146.8 44.7681 146.8 44.7681 146.938 44.7681L144.182 46.2842C144.182 46.2842 144.182 46.2842 144.319 46.422L145.009 46.0085L146.111 46.6977C145.836 46.8355 145.973 47.249 146.249 47.3868C146.663 47.5246 147.076 47.6625 147.49 47.5246L148.592 48.2138L147.903 48.6273H148.041L150.66 47.1111C150.66 47.1111 150.66 47.1112 150.522 46.9733L149.833 47.3868L148.73 46.6977C149.006 46.5598 148.868 46.1464 148.592 46.0085C148.179 45.7329 147.765 45.7329 147.352 45.8707L146.249 45.1816L146.938 44.7681ZM147.49 47.249L148.592 46.5598L149.695 47.249L148.592 47.9381L147.49 47.249ZM146.249 47.249C145.973 47.1112 145.836 46.8355 146.111 46.6977L147.352 47.3868C146.938 47.3868 146.525 47.3868 146.249 47.249ZM148.454 46.0085C148.73 46.1464 148.868 46.422 148.592 46.5598L147.352 45.8707C147.627 45.7329 148.179 45.7329 148.454 46.0085ZM147.214 45.8707L148.454 46.5598L147.352 47.249L146.111 46.5598L147.214 45.8707ZM147.214 45.8707L146.111 46.5598L145.009 46.0085L146.111 45.3194L147.214 45.8707Z" fill="#D88C1D"/>
</g>
<path d="M164.306 56.7586C163.755 57.0342 162.928 57.0342 162.376 56.7586C161.825 56.4829 161.825 55.9316 162.376 55.656C162.928 55.3803 163.755 55.3803 164.306 55.656C164.857 55.9316 164.857 56.4829 164.306 56.7586Z" fill="#9B2C2C"/>
<path d="M165.546 58.2745C166.307 58.2745 166.925 57.9043 166.925 57.4476C166.925 56.9909 166.307 56.6206 165.546 56.6206C164.785 56.6206 164.168 56.9909 164.168 57.4476C164.168 57.9043 164.785 58.2745 165.546 58.2745Z" fill="#FFDF43"/>
<path d="M171.884 54.0024C171.746 54.0024 171.608 54.0024 171.608 54.1403L170.919 54.5538C170.781 54.5538 170.781 54.6916 170.781 54.6916C170.781 54.6916 170.781 54.8294 170.919 54.8294L171.195 54.9672C171.333 54.9672 171.333 55.1051 171.47 55.1051C171.608 55.1051 171.746 55.1051 171.746 54.9672L172.435 54.5538C172.573 54.5538 172.573 54.4159 172.573 54.4159C172.573 54.4159 172.573 54.2781 172.435 54.2781L172.16 54.1403C172.16 54.0024 172.022 54.0024 171.884 54.0024ZM171.746 54.1403C171.884 54.0024 172.022 54.0024 172.16 54.1403L172.297 54.2781C172.435 54.2781 172.435 54.4159 172.297 54.5538L171.608 54.9672C171.47 55.1051 171.333 55.1051 171.195 54.9672L171.057 54.8294C170.919 54.6916 170.919 54.6916 171.057 54.5538L171.746 54.1403Z" fill="#FFC440"/>
<path d="M170.782 53.3135C170.645 53.3135 170.507 53.3135 170.507 53.4513L169.818 53.8648C169.68 53.8648 169.68 54.0026 169.68 54.0026C169.68 54.0026 169.68 54.1404 169.818 54.1404L170.093 54.2783C170.231 54.2783 170.231 54.4161 170.369 54.4161C170.507 54.4161 170.645 54.4161 170.645 54.2783L171.334 53.8648C171.471 53.8648 171.471 53.727 171.471 53.727C171.471 53.727 171.471 53.5891 171.334 53.5891L171.058 53.4513C171.058 53.4513 170.92 53.3135 170.782 53.3135ZM170.645 53.5891C170.782 53.4513 170.92 53.4513 171.058 53.5891L171.196 53.727C171.334 53.727 171.334 53.8648 171.196 54.0026L170.507 54.2783C170.369 54.4161 170.231 54.4161 170.093 54.2783L169.955 54.1404C169.818 54.0026 169.818 54.0026 169.955 53.8648L170.645 53.5891Z" fill="#FFC440"/>
<path d="M169.677 52.7622C169.539 52.7622 169.401 52.7622 169.401 52.9L168.712 53.3135C168.574 53.3135 168.574 53.4513 168.574 53.4513C168.574 53.4513 168.574 53.5892 168.712 53.5892L168.988 53.727C169.126 53.727 169.126 53.8648 169.263 53.8648C169.401 53.8648 169.539 53.8648 169.539 53.727L170.228 53.3135C170.366 53.3135 170.366 53.1757 170.366 53.1757C170.366 53.1757 170.366 53.0379 170.228 53.0379L169.953 52.9C169.953 52.7622 169.815 52.7622 169.677 52.7622ZM169.539 52.9C169.677 52.7622 169.815 52.7622 169.953 52.9L170.09 53.0379C170.228 53.0379 170.228 53.1757 170.09 53.3135L169.401 53.727C169.263 53.8648 169.126 53.8648 168.988 53.727L168.85 53.5892C168.712 53.4513 168.712 53.4513 168.85 53.3135L169.539 52.9Z" fill="#FFC440"/>
<path d="M168.577 52.0728C168.439 52.0728 168.302 52.0728 168.302 52.2106L167.612 52.6241C167.475 52.6241 167.475 52.7619 167.475 52.7619C167.475 52.7619 167.475 52.8997 167.612 52.8997L167.888 53.0375C168.026 53.0375 168.026 53.1754 168.164 53.1754C168.302 53.1754 168.439 53.1754 168.439 53.0375L169.129 52.6241C169.266 52.6241 169.266 52.4862 169.266 52.4862C169.266 52.4862 169.266 52.3484 169.129 52.3484L168.853 52.2106C168.853 52.0728 168.715 52.0728 168.577 52.0728ZM168.439 52.2106C168.577 52.0728 168.715 52.0728 168.853 52.2106L168.991 52.3484C169.129 52.3484 169.129 52.4862 168.991 52.6241L168.302 53.0375C168.164 53.1754 168.026 53.1754 167.888 53.0375L167.75 52.8997C167.612 52.7619 167.612 52.7619 167.75 52.6241L168.439 52.2106Z" fill="#FFC440"/>
<path d="M165.956 50.5566C165.818 50.5566 165.68 50.5566 165.68 50.6945L164.991 51.108C164.854 51.108 164.854 51.2458 164.854 51.2458C164.854 51.2458 164.854 51.3836 164.991 51.3836L165.267 51.5214C165.405 51.5214 165.405 51.6593 165.543 51.6593C165.68 51.6593 165.818 51.6593 165.818 51.5214L166.507 51.108C166.645 51.108 166.645 50.9701 166.645 50.9701C166.645 50.9701 166.645 50.8323 166.507 50.8323L166.232 50.6945C166.232 50.5566 166.094 50.5566 165.956 50.5566ZM165.818 50.6945C165.956 50.5566 166.094 50.5566 166.232 50.6945L166.37 50.8323C166.507 50.8323 166.507 50.9701 166.37 51.108L165.68 51.5214C165.543 51.6593 165.405 51.6593 165.267 51.5214L165.129 51.3836C164.991 51.2458 164.991 51.2458 165.129 51.108L165.818 50.6945Z" fill="#FFC440"/>
<path d="M164.855 49.8677C164.717 49.8677 164.579 49.8677 164.579 50.0055L163.89 50.419C163.752 50.419 163.752 50.5568 163.752 50.5568C163.752 50.5568 163.752 50.6946 163.89 50.6946L164.165 50.8325C164.303 50.8325 164.303 50.9703 164.441 50.9703C164.579 50.9703 164.717 50.9703 164.717 50.8325L165.406 50.419C165.544 50.419 165.544 50.2812 165.544 50.2812C165.544 50.2812 165.544 50.1433 165.406 50.1433L165.13 50.0055C165.13 50.0055 164.992 49.8677 164.855 49.8677ZM164.717 50.1433C164.855 50.0055 164.992 50.0055 165.13 50.1433L165.268 50.2812C165.406 50.2812 165.406 50.419 165.268 50.5568L164.579 50.9703C164.441 51.1081 164.303 51.1081 164.165 50.9703L164.028 50.8325C163.89 50.6946 163.89 50.6946 164.028 50.5568L164.717 50.1433Z" fill="#FFC440"/>
<path d="M163.753 49.3164C163.615 49.3164 163.477 49.3164 163.477 49.4542L162.788 49.8677C162.65 49.8677 162.65 50.0055 162.65 50.0055C162.65 50.0055 162.65 50.1434 162.788 50.1434L163.064 50.2812C163.202 50.2812 163.202 50.419 163.34 50.419C163.477 50.419 163.615 50.419 163.615 50.2812L164.304 49.8677C164.442 49.8677 164.442 49.7299 164.442 49.7299C164.442 49.7299 164.442 49.5921 164.304 49.5921L164.029 49.4542C164.029 49.3164 163.891 49.3164 163.753 49.3164ZM163.615 49.4542C163.753 49.3164 163.891 49.3164 164.029 49.4542L164.167 49.5921C164.304 49.5921 164.304 49.7299 164.167 49.8677L163.477 50.2812C163.34 50.419 163.202 50.419 163.064 50.2812L162.926 50.1434C162.788 50.0055 162.788 50.0055 162.926 49.8677L163.615 49.4542Z" fill="#FFC440"/>
<path d="M162.649 48.6274C162.512 48.6274 162.374 48.6274 162.374 48.7653L161.685 49.1788C161.547 49.1788 161.547 49.3166 161.547 49.3166C161.547 49.3166 161.547 49.4544 161.685 49.4544L161.96 49.5922C162.098 49.5922 162.098 49.7301 162.236 49.7301C162.374 49.7301 162.512 49.7301 162.512 49.5922L163.201 49.1788C163.339 49.1788 163.339 49.0409 163.339 49.0409C163.339 49.0409 163.339 48.9031 163.201 48.9031L162.925 48.7653C162.925 48.7653 162.787 48.6274 162.649 48.6274ZM162.512 48.9031C162.65 48.7653 162.787 48.7653 162.925 48.9031L163.063 49.0409C163.201 49.0409 163.201 49.1788 163.063 49.3166L162.374 49.7301C162.236 49.8679 162.098 49.8679 161.96 49.7301L161.823 49.5922C161.685 49.4544 161.685 49.4544 161.823 49.3166L162.512 48.9031Z" fill="#FFC440"/>
<path d="M160.03 47.1108C159.893 47.1108 159.755 47.1108 159.755 47.2487L159.066 47.6622C158.928 47.6622 158.928 47.8 158.928 47.8C158.928 47.8 158.928 47.9378 159.066 47.9378L159.341 48.0756C159.479 48.0756 159.479 48.2135 159.617 48.2135C159.755 48.2135 159.893 48.2135 159.893 48.0756L160.582 47.6622C160.719 47.6622 160.719 47.5243 160.719 47.5243C160.719 47.5243 160.719 47.3865 160.582 47.3865L160.306 47.2487C160.306 47.1108 160.168 47.1108 160.03 47.1108ZM159.893 47.2487C160.03 47.1108 160.168 47.1108 160.306 47.2487L160.444 47.3865C160.582 47.3865 160.582 47.5243 160.444 47.6622L159.755 48.0756C159.617 48.2135 159.479 48.2135 159.341 48.0756L159.203 47.9378C159.066 47.8 159.066 47.8 159.203 47.6622L159.893 47.2487Z" fill="#FFC440"/>
<path d="M158.927 46.5601C158.789 46.5601 158.651 46.5601 158.651 46.6979L157.962 47.1114C157.824 47.1114 157.824 47.2492 157.824 47.2492C157.824 47.2492 157.824 47.387 157.962 47.387L158.238 47.5249C158.376 47.5249 158.376 47.6627 158.513 47.6627C158.651 47.6627 158.789 47.6627 158.789 47.5249L159.478 47.1114C159.616 47.1114 159.616 46.9735 159.616 46.9735C159.616 46.9735 159.616 46.8357 159.478 46.8357L159.203 46.6979C159.203 46.5601 159.065 46.5601 158.927 46.5601ZM158.789 46.6979C158.927 46.5601 159.065 46.5601 159.203 46.6979L159.34 46.8357C159.478 46.8357 159.478 46.9735 159.34 47.1114L158.651 47.5249C158.513 47.6627 158.376 47.6627 158.238 47.5249L158.1 47.387C157.962 47.2492 157.962 47.2492 158.1 47.1114L158.789 46.6979Z" fill="#FFC440"/>
<path d="M157.825 45.8706C157.687 45.8706 157.55 45.8706 157.55 46.0084L156.86 46.4219C156.723 46.4219 156.723 46.5597 156.723 46.5597C156.723 46.5597 156.723 46.6976 156.86 46.6976L157.136 46.8354C157.274 46.8354 157.274 46.9732 157.412 46.9732C157.55 46.9732 157.687 46.9732 157.687 46.8354L158.377 46.4219C158.514 46.4219 158.514 46.2841 158.514 46.2841C158.514 46.2841 158.514 46.1463 158.377 46.1463L158.101 46.0084C158.101 45.8706 157.963 45.8706 157.825 45.8706ZM157.687 46.0084C157.825 45.8706 157.963 45.8706 158.101 46.0084L158.239 46.1463C158.377 46.1463 158.377 46.2841 158.239 46.4219L157.55 46.8354C157.412 46.9732 157.274 46.9732 157.136 46.8354L156.998 46.6976C156.861 46.5597 156.861 46.5597 156.998 46.4219L157.687 46.0084Z" fill="#FFC440"/>
<path d="M156.724 45.1812C156.586 45.1812 156.448 45.1812 156.448 45.319L155.759 45.7325C155.621 45.7325 155.621 45.8703 155.621 45.8703C155.621 45.8703 155.621 46.0081 155.759 46.0081L156.035 46.1459C156.172 46.1459 156.172 46.2838 156.31 46.2838C156.448 46.2838 156.586 46.2838 156.586 46.1459L157.275 45.7325C157.413 45.7325 157.413 45.5946 157.413 45.5946C157.413 45.5946 157.413 45.4568 157.275 45.4568L156.999 45.319C156.999 45.319 156.862 45.1812 156.724 45.1812ZM156.586 45.4568C156.724 45.319 156.862 45.319 156.999 45.4568L157.137 45.5946C157.275 45.5946 157.275 45.7325 157.137 45.8703L156.448 46.2838C156.31 46.4216 156.172 46.4216 156.035 46.2838L155.897 46.1459C155.759 46.0081 155.759 46.0081 155.897 45.8703L156.586 45.4568Z" fill="#FFC440"/>
<path d="M154.105 43.6655C153.967 43.6655 153.829 43.6655 153.829 43.8034L153.14 44.2168C153.002 44.2168 153.002 44.3547 153.002 44.3547C153.002 44.3547 153.002 44.4925 153.14 44.4925L153.415 44.6303C153.553 44.6303 153.553 44.7682 153.691 44.7682C153.829 44.7682 153.967 44.7682 153.967 44.6303L154.656 44.2168C154.794 44.2168 154.794 44.079 154.794 44.079C154.794 44.079 154.794 43.9412 154.656 43.9412L154.38 43.8034C154.38 43.8034 154.242 43.6655 154.105 43.6655ZM153.967 43.9412C154.105 43.8034 154.242 43.8034 154.38 43.9412L154.518 44.079C154.656 44.079 154.656 44.2168 154.518 44.3547L153.829 44.7682C153.691 44.906 153.553 44.906 153.415 44.7682L153.278 44.6303C153.14 44.4925 153.14 44.4925 153.278 44.3547L153.967 43.9412Z" fill="#FFC440"/>
<path d="M153.001 43.1143C152.863 43.1143 152.725 43.1143 152.725 43.2521L152.036 43.6656C151.898 43.6656 151.898 43.8034 151.898 43.8034C151.898 43.8034 151.898 43.9412 152.036 43.9412L152.312 44.0791C152.45 44.0791 152.45 44.2169 152.588 44.2169C152.725 44.2169 152.863 44.2169 152.863 44.0791L153.552 43.6656C153.69 43.6656 153.69 43.5277 153.69 43.5277C153.69 43.5277 153.69 43.3899 153.552 43.3899L153.277 43.2521C153.277 43.1143 153.139 43.1143 153.001 43.1143ZM152.863 43.2521C153.001 43.1143 153.139 43.1143 153.277 43.2521L153.415 43.3899C153.552 43.3899 153.552 43.5277 153.415 43.6656L152.725 44.0791C152.588 44.2169 152.45 44.2169 152.312 44.0791L152.174 43.9412C152.036 43.8034 152.036 43.8034 152.174 43.6656L152.863 43.2521Z" fill="#FFC440"/>
<path d="M151.901 42.4248C151.764 42.4248 151.626 42.4248 151.626 42.5626L150.937 42.9761C150.799 42.9761 150.799 43.1139 150.799 43.1139C150.799 43.1139 150.799 43.2518 150.937 43.2518L151.212 43.3896C151.35 43.3896 151.35 43.5274 151.488 43.5274C151.626 43.5274 151.764 43.5274 151.764 43.3896L152.453 42.9761C152.591 42.9761 152.591 42.8383 152.591 42.8383C152.591 42.8383 152.591 42.7005 152.453 42.7005L152.177 42.5626C152.177 42.4248 152.039 42.4248 151.901 42.4248ZM151.764 42.5626C151.901 42.4248 152.039 42.4248 152.177 42.5626L152.315 42.7005C152.453 42.7005 152.453 42.8383 152.315 42.9761L151.626 43.3896C151.488 43.5274 151.35 43.5274 151.212 43.3896L151.074 43.2518C150.937 43.1139 150.937 43.1139 151.074 42.9761L151.764 42.5626Z" fill="#FFC440"/>
<path d="M150.52 41.8737L149.831 42.2871C149.693 42.2871 149.693 42.425 149.693 42.425C149.693 42.425 149.693 42.5628 149.831 42.5628L150.107 42.7006C150.245 42.7006 150.245 42.8385 150.383 42.8385C150.52 42.8385 150.658 42.8385 150.658 42.7006L151.347 42.2871C151.485 42.2871 151.485 42.1493 151.485 42.1493C151.485 42.1493 151.485 42.0115 151.347 42.0115L151.072 41.8737C150.934 41.8737 150.934 41.7358 150.796 41.7358C150.658 41.8737 150.658 41.8737 150.52 41.8737ZM150.658 42.0115C150.796 41.8737 150.934 41.8737 151.072 42.0115L151.209 42.1493C151.347 42.1493 151.347 42.2872 151.209 42.425L150.52 42.8385C150.383 42.9763 150.245 42.9763 150.107 42.8385L149.969 42.7006C149.831 42.5628 149.831 42.5628 149.969 42.425L150.658 42.0115Z" fill="#FFC440"/>
<path d="M154.795 39.3931L155.898 38.8418L156.449 39.1175C156.587 39.1175 156.587 39.2553 156.587 39.2553C156.587 39.2553 156.587 39.3931 156.449 39.3931L155.898 39.6688C155.76 39.6688 155.76 39.8066 155.622 39.8066C155.484 39.8066 155.484 39.8066 155.346 39.6688L154.795 39.3931ZM155.208 39.3931L155.484 39.5309C155.622 39.5309 155.622 39.5309 155.76 39.5309L156.311 39.2553C156.449 39.2553 156.449 39.1175 156.311 39.1175L156.035 38.9796C155.898 38.9796 155.208 39.3931 155.208 39.3931Z" fill="#FFC440"/>
<path d="M156.452 40.3579L155.9 40.0822L157.003 39.3931L157.554 39.6687L157.417 39.8066L157.003 39.5309L156.727 39.6687L157.003 39.9444L156.865 40.0822L156.452 39.9444L156.038 40.0822L156.452 40.3579C156.452 40.3579 156.59 40.22 156.452 40.3579Z" fill="#FFC440"/>
<path d="M156.723 40.4957L157.825 39.9443L158.239 40.22C158.376 40.22 158.376 40.3578 158.376 40.3578C158.376 40.3578 158.376 40.4957 158.239 40.4957H158.101C157.963 40.4957 157.825 40.4957 157.825 40.4957C157.825 40.4957 157.825 40.4956 157.825 40.6335C157.825 40.6335 157.825 40.7713 157.687 40.7713H157.549C157.412 40.7713 157.412 40.9091 157.274 40.9091C157.136 40.9091 157.136 40.9091 156.998 40.7713L156.723 40.4957C156.585 40.4957 156.585 40.4957 156.723 40.4957ZM157.412 40.22L157.687 40.3578C157.825 40.3578 157.825 40.3578 157.963 40.3578H158.101C158.239 40.3578 158.239 40.22 158.101 40.22L157.825 40.0822C157.825 39.9443 157.412 40.22 157.412 40.22ZM156.998 40.4957L157.274 40.6335C157.412 40.6335 157.412 40.6335 157.549 40.6335H157.687C157.825 40.6335 157.825 40.4957 157.687 40.4957L157.412 40.3578C157.274 40.22 156.998 40.4957 156.998 40.4957Z" fill="#FFC440"/>
<path d="M158.93 40.4957L157.827 41.0471H157.689L158.792 40.3579L158.93 40.4957Z" fill="#FFC440"/>
<path d="M158.377 41.4609C158.239 41.3231 159.204 40.7718 159.204 40.7718L158.928 40.6339L159.066 40.4961L159.755 40.9096L159.617 41.0474L159.342 40.9096L158.377 41.4609Z" fill="#FFC440"/>
<path d="M159.621 42.1497L159.484 42.0119C159.346 42.0119 159.346 41.8741 159.346 41.8741C159.346 41.8741 159.346 41.7362 159.484 41.7362L160.035 41.4606C160.173 41.4606 160.173 41.3228 160.311 41.3228C160.448 41.3228 160.448 41.3228 160.586 41.4606L160.724 41.5984C160.862 41.5984 160.862 41.7362 160.862 41.7362C160.862 41.7362 160.862 41.8741 160.724 41.8741H160.586H160.448L160.586 41.7362C160.724 41.7362 160.724 41.5984 160.586 41.5984L160.448 41.4606C160.311 41.4606 160.311 41.4606 160.173 41.4606L159.621 41.7362C159.484 41.7362 159.484 41.8741 159.621 41.8741V42.1497C159.759 42.1497 159.897 42.1497 160.035 42.0119H160.173H160.311L160.173 42.1497C160.035 42.1497 160.035 42.2876 159.897 42.2876C159.897 42.2876 159.759 42.2876 159.621 42.1497Z" fill="#FFC440"/>
<path d="M160.17 42.563C160.032 42.4252 161.41 42.0117 161.41 42.0117C161.41 42.0117 161.41 42.0117 161.548 42.0117L161.686 42.1496L160.997 42.9765H160.859L160.997 42.8387L160.583 42.563H160.17C160.308 42.563 160.308 42.563 160.17 42.563ZM161.41 42.1496L160.721 42.4252L160.997 42.563L161.41 42.1496Z" fill="#FFC440"/>
<path d="M161.274 43.1149C161.136 42.9771 162.238 42.4258 162.238 42.4258L162.652 42.7014C162.79 42.7014 162.79 42.8393 162.79 42.8393C162.79 42.8393 162.79 42.9771 162.652 42.9771L162.514 43.1149C162.376 43.2528 162.238 43.2528 162.101 43.1149L161.825 43.5284H161.687L161.825 43.1149L161.687 42.9771C161.687 42.8393 161.274 43.1149 161.274 43.1149ZM161.963 42.8393L162.238 42.9771C162.376 42.9771 162.376 42.9771 162.514 42.9771L162.652 42.8393C162.79 42.8393 162.79 42.7014 162.652 42.7014L162.376 42.5636C162.238 42.5636 161.825 42.8393 161.963 42.8393C161.825 42.8393 161.825 42.8393 161.963 42.8393Z" fill="#FFC440"/>
<path d="M162.102 43.5279L163.204 42.9766L163.756 43.2522C163.893 43.2522 163.893 43.39 163.893 43.39C163.893 43.39 163.893 43.5279 163.756 43.5279L163.204 43.8035C163.066 43.8035 163.066 43.9414 162.929 43.9414C162.791 43.9414 162.791 43.9414 162.653 43.8035L162.102 43.5279C162.102 43.6657 162.102 43.5279 162.102 43.5279ZM162.377 43.6657L162.653 43.8035C162.791 43.8035 162.791 43.8035 162.929 43.8035L163.48 43.5279C163.618 43.5279 163.618 43.39 163.48 43.39L163.204 43.2522C163.204 43.1144 162.377 43.5279 162.377 43.6657Z" fill="#FFC440"/>
<defs>
<linearGradient id="paint0_linear_14822_160602" x1="106.175" y1="108.005" x2="133.791" y2="108.005" gradientUnits="userSpaceOnUse">
<stop stop-color="#F0EFEC"/>
<stop offset="1" stop-color="#FFFEFB"/>
</linearGradient>
<linearGradient id="paint1_linear_14822_160602" x1="117.212" y1="97.4306" x2="120.298" y2="102.776" gradientUnits="userSpaceOnUse">
<stop stop-color="#C2C1BF"/>
<stop offset="1" stop-color="#E3E2DF"/>
</linearGradient>
<linearGradient id="paint2_linear_14822_160602" x1="109.84" y1="134.47" x2="106.936" y2="134.47" gradientUnits="userSpaceOnUse">
<stop stop-color="#D2D1CE"/>
<stop offset="1" stop-color="#B6B5B3"/>
</linearGradient>
<linearGradient id="paint3_linear_14822_160602" x1="91.1109" y1="129.135" x2="158.984" y2="129.135" gradientUnits="userSpaceOnUse">
<stop stop-color="#F0EFEC"/>
<stop offset="1" stop-color="#F6F5F2"/>
</linearGradient>
<radialGradient id="paint4_radial_14822_160602" cx="0" cy="0" r="1" gradientUnits="userSpaceOnUse" gradientTransform="translate(169.517 105.312) scale(16.996 16.996)">
<stop stop-color="#FDFCF9"/>
<stop offset="1" stop-color="#D2D1CE"/>
</radialGradient>
<linearGradient id="paint5_linear_14822_160602" x1="153.617" y1="63.5179" x2="156.378" y2="68.3011" gradientUnits="userSpaceOnUse">
<stop offset="0.5025" stop-color="#F8F5F4"/>
<stop offset="1" stop-color="#E8E5E5"/>
</linearGradient>
<linearGradient id="paint6_linear_14822_160602" x1="168.499" y1="75.4594" x2="172.589" y2="82.5431" gradientUnits="userSpaceOnUse">
<stop offset="0.5025" stop-color="#F8F5F4"/>
<stop offset="1" stop-color="#E8E5E5"/>
</linearGradient>
<linearGradient id="paint7_linear_14822_160602" x1="141.466" y1="48.9507" x2="180.216" y2="48.9507" gradientUnits="userSpaceOnUse">
<stop stop-color="#2735AE"/>
<stop offset="1" stop-color="#4563FF"/>
</linearGradient>
<linearGradient id="paint8_linear_14822_160602" x1="143.843" y1="46.4901" x2="150.928" y2="46.4901" gradientUnits="userSpaceOnUse">
<stop stop-color="#AE5B27"/>
<stop offset="1" stop-color="#BE642D"/>
</linearGradient>
</defs>
</svg>
