<svg width="251" height="159" viewBox="0 0 251 159" fill="none" xmlns="http://www.w3.org/2000/svg">
<rect width="251" height="159" rx="5" fill="#AEB5D1"/>
<path opacity="0.4" d="M98.5151 85.9419L50 114.014L89.819 136.898H129.18L133.147 139.186H139.86L98.5151 85.9419Z" fill="#7B7794"/>
<path d="M135.436 128.355L188.222 97.5371V105.776L135.436 136.593V128.355Z" fill="#D2D1CE"/>
<path d="M126.736 94.7912L179.676 64.126L188.219 97.5373L135.432 128.355L126.736 94.7912Z" fill="#E0DED7"/>
<path opacity="0.6" d="M133.146 98.7579L176.627 73.585L183.187 99.2156L139.859 124.389L133.146 98.7579Z" fill="#B6B5B3"/>
<path d="M123.383 76.6364L176.17 45.9712L180.899 64.889L128.112 95.5543L123.383 76.6364Z" fill="#E0DED7"/>
<path d="M125.367 77.5513L175.103 48.7168L178.917 63.9731L129.181 92.8076L125.367 77.5513Z" fill="#788EFF"/>
<path d="M86.0039 55.1247L138.791 24.4595L176.169 45.9709L123.382 76.6361L86.0039 55.1247Z" fill="url(#paint0_linear_14822_159405)"/>
<path d="M123.382 76.6364L128.111 95.5543L126.738 94.7915L135.434 128.355V136.594L86.1565 108.064L86.0039 55.125L123.382 76.6364Z" fill="#B6B5B3"/>
<path d="M139.86 124.388L183.188 99.2152L181.815 93.8755L177.543 96.0114L138.334 118.591L139.86 124.388Z" fill="url(#paint1_linear_14822_159405)"/>
<path d="M177.542 96.0112L183.187 99.2151L176.627 73.5845L164.727 80.4498L177.542 96.0112Z" fill="#B6B5B3"/>
<path d="M172.508 98.9091L159.54 83.3477L154.811 86.0938L167.778 101.655L171.44 103.791L176.322 101.045L172.508 98.9091Z" fill="#A09F9F"/>
<path d="M145.809 114.318L132.841 98.7568L128.111 101.503L141.079 117.064L144.893 119.2L149.623 116.454L145.809 114.318Z" fill="#A09F9F"/>
<path d="M163.968 92.1963C161.222 88.9925 159.238 87.0092 156.492 85.0259H156.34L152.373 87.3143C152.373 87.3143 152.373 87.3143 152.526 87.3143C155.272 89.2977 157.255 91.2809 160.001 94.4848L160.154 94.6373L164.12 92.3489C163.968 92.3489 163.968 92.1963 163.968 92.1963Z" fill="#312F2C"/>
<path d="M158.172 82.737C158.019 82.5844 158.019 82.5844 158.019 82.737L154.053 85.0254C154.053 85.0254 154.053 85.0254 154.205 85.0254C156.646 87.9241 158.325 90.5177 160.46 94.4843L164.427 92.1959C162.291 88.2292 160.766 85.6357 158.172 82.737Z" fill="#312F2C"/>
<path d="M162.442 85.1784C161.984 84.1105 161.527 83.0426 160.916 81.9746C160.916 81.9746 160.916 81.9746 160.764 81.9746L156.645 84.2631C156.645 84.2631 156.645 84.2631 156.797 84.2631C157.407 85.331 157.865 86.399 158.323 87.4669C159.238 89.6028 160.001 91.7386 160.916 94.4848L164.883 92.1963C164.12 89.4502 163.357 87.3143 162.442 85.1784Z" fill="#312F2C"/>
<path d="M164.119 82.5847C163.967 82.5847 163.967 82.4321 164.119 82.5847C163.967 82.4321 163.967 82.4321 163.967 82.4321C163.814 82.4321 159.848 84.7206 159.848 84.7206C160 84.7206 160 84.7206 160 84.7206C160 84.7206 160 84.7206 160 84.8732C161.068 88.5347 161.373 91.1283 161.526 94.9423L165.492 92.6539C165.34 88.8398 165.187 86.2462 164.119 82.5847Z" fill="#312F2C"/>
<path d="M174.953 100.13C174.8 99.9772 174.8 99.9772 174.8 99.9772C173.732 99.5195 172.817 99.0618 171.902 98.6042C170.223 97.6888 168.698 96.4683 166.867 95.0952L162.9 97.3837C164.731 98.7567 166.257 99.9772 167.935 100.893C168.85 101.35 169.766 101.808 170.834 102.266C170.834 102.266 170.834 102.266 170.986 102.418C170.986 102.418 170.986 102.418 170.986 102.571C170.986 102.571 170.986 102.571 170.986 102.723V102.876L174.953 100.587C174.953 100.435 174.953 100.282 174.953 100.13C174.953 100.282 174.953 100.282 174.953 100.13Z" fill="#312F2C"/>
<path d="M167.477 84.7209C167.477 84.7209 167.477 84.5684 167.477 84.7209C167.477 84.5684 167.477 84.5684 167.324 84.5684H167.172L163.205 86.8568C163.205 86.8568 163.205 86.8568 163.357 86.8568C163.357 86.8568 163.357 86.8568 163.357 87.0094C163.357 87.0094 163.357 87.0094 163.357 87.162C163.51 90.5183 162.9 92.5017 161.984 95.5529L165.951 93.2645C167.019 90.0607 167.477 87.9248 167.477 84.7209Z" fill="#312F2C"/>
<path d="M174.495 96.1631C174.495 96.1631 174.495 96.0105 174.495 96.1631C174.343 96.0105 174.343 96.0105 174.343 96.0105C171.902 96.1631 169.613 95.5528 166.867 94.4849L162.9 96.7733C165.799 97.8413 167.935 98.4515 170.376 98.2989C170.376 98.2989 170.376 98.299 170.376 98.4515C170.376 98.6041 170.376 98.6041 170.376 98.6041L174.343 96.3156C174.495 96.3156 174.495 96.1631 174.495 96.1631Z" fill="#312F2C"/>
<path d="M170.529 87.7722C170.376 87.6196 170.376 87.6196 170.224 87.6196L166.257 89.9081C166.257 89.9081 166.257 89.9081 166.41 89.9081C166.562 90.0606 166.562 90.0607 166.562 90.0607V90.2132C165.647 92.8068 164.426 94.1799 162.596 95.8581L166.562 93.5696C168.546 91.7389 169.766 90.3658 170.529 87.9248C170.529 87.9248 170.529 87.9248 170.529 87.7722Z" fill="#312F2C"/>
<path d="M172.97 91.8909C172.97 91.7383 172.818 91.7383 172.97 91.8909C172.818 91.7383 172.818 91.7383 172.665 91.7383L170.682 92.9588C169.461 93.4165 168.088 93.7216 166.41 93.8742L162.443 96.1626C164.427 96.01 166.105 95.7049 167.631 94.7895L168.698 94.1793C168.851 94.3319 168.851 94.4844 168.698 94.4844C168.241 94.7895 167.783 95.2472 167.325 95.3998L171.292 93.1113C171.75 92.8062 172.207 92.5011 172.665 92.196C172.97 92.0434 172.97 91.8909 172.97 91.8909Z" fill="#312F2C"/>
<path d="M170.681 102.418C169.613 101.96 168.698 101.503 167.782 101.045C166.104 100.13 164.579 98.909 162.748 97.5359C165.799 98.6038 167.935 99.0616 170.376 98.7564C170.376 98.7564 170.529 98.6039 170.376 98.6039L170.223 98.4513C167.782 98.6039 165.494 97.9936 162.748 96.9257C165.494 96.468 167.172 96.0103 169.003 94.4846C169.003 94.4846 169.003 94.3321 169.003 94.1795C169.003 94.1795 169.003 94.027 168.85 94.027H168.698C166.867 95.5526 164.884 95.8577 162.443 96.0103C164.426 94.1795 165.646 92.8065 166.409 90.3655C166.409 90.2129 166.409 90.2129 166.257 90.0603C166.104 89.9077 166.104 90.0603 166.104 90.0603C165.189 92.6539 163.816 93.8744 161.985 95.4C162.9 92.5013 163.511 90.3654 163.358 87.009C163.358 86.8565 163.358 86.8565 163.205 86.7039C163.053 86.7039 163.053 86.7039 163.053 86.8565C163.053 90.2129 162.443 92.3488 161.527 94.9424C161.375 91.1283 161.07 88.5347 160.002 85.0257C160.002 84.8732 159.849 84.8732 159.849 84.8732C159.697 84.8732 159.697 84.8732 159.697 85.0257C160.764 88.6873 160.917 91.4334 160.917 94.6372C159.697 90.518 158.629 87.7719 156.798 84.2629C156.798 84.2629 156.798 84.1104 156.645 84.1104C156.645 84.1104 156.645 84.1104 156.493 84.1104C156.493 84.1104 156.493 84.2629 156.493 84.4155C158.323 87.9245 159.239 90.8231 160.307 94.6372C158.171 90.6706 156.493 88.077 154.052 85.1783H153.899C153.899 85.1783 153.899 85.3308 153.899 85.4834C156.34 88.5347 158.018 91.2808 159.849 94.7898C156.95 91.586 154.967 89.4501 152.221 87.4668C152.068 87.4668 152.068 87.4668 152.068 87.4668C152.068 87.6193 152.068 87.6193 152.221 87.7719C155.425 90.2129 157.713 92.8065 160.612 96.468L161.527 97.2308C163.816 98.909 165.494 100.282 167.325 101.197C168.393 101.808 169.461 102.418 170.681 102.723C170.834 102.723 170.834 102.723 170.834 102.571C170.986 102.571 170.834 102.418 170.681 102.418Z" fill="#252321"/>
<path d="M137.265 107.606C134.519 104.402 132.535 102.419 129.789 100.436H129.637L125.67 102.724C125.67 102.724 125.67 102.724 125.822 102.724C128.569 104.707 130.552 106.691 133.298 109.894L133.451 110.047L137.417 107.759C137.265 107.759 137.265 107.606 137.265 107.606Z" fill="#312F2C"/>
<path d="M131.467 98.1466C131.314 97.9941 131.314 97.9941 131.314 98.1466L127.348 100.435C127.348 100.435 127.348 100.435 127.5 100.435C129.941 103.334 131.619 105.927 133.755 109.894L137.722 107.606C135.586 103.639 134.06 101.045 131.467 98.1466Z" fill="#312F2C"/>
<path d="M135.741 100.588C135.283 99.5201 134.825 98.4522 134.215 97.3843C134.215 97.3843 134.215 97.3843 134.063 97.3843L129.943 99.6727C129.943 99.6727 129.943 99.6727 130.096 99.6727C130.706 100.741 131.164 101.809 131.622 102.877C132.537 105.012 133.3 107.148 134.215 109.894L138.182 107.606C137.419 104.86 136.656 102.724 135.741 100.588Z" fill="#312F2C"/>
<path d="M137.418 97.9944C137.266 97.9944 137.266 97.8418 137.418 97.9944C137.266 97.8418 137.266 97.8418 137.266 97.8418C137.113 97.8418 133.146 100.13 133.146 100.13C133.299 100.13 133.299 100.13 133.299 100.13C133.299 100.13 133.299 100.13 133.299 100.283C134.367 103.944 134.672 106.538 134.825 110.352L138.791 108.064C138.639 104.249 138.486 101.656 137.418 97.9944Z" fill="#312F2C"/>
<path d="M148.25 115.539C148.097 115.387 148.097 115.387 148.097 115.387C147.029 114.929 146.114 114.472 145.198 114.014C143.52 113.098 141.995 111.878 140.164 110.505L136.197 112.793C138.028 114.166 139.554 115.387 141.232 116.302C142.147 116.76 143.063 117.218 144.131 117.675C144.131 117.675 144.131 117.675 144.283 117.828C144.283 117.828 144.283 117.828 144.283 117.981C144.283 117.981 144.283 117.98 144.283 118.133V118.286L148.25 115.997C148.25 115.845 148.25 115.692 148.25 115.539C148.25 115.692 148.25 115.692 148.25 115.539Z" fill="#312F2C"/>
<path d="M140.774 100.131C140.774 100.131 140.774 99.978 140.774 100.131C140.774 99.978 140.774 99.978 140.621 99.978H140.468L136.502 102.266C136.502 102.266 136.502 102.266 136.654 102.266C136.654 102.266 136.654 102.266 136.654 102.419C136.654 102.419 136.654 102.419 136.654 102.572C136.807 105.928 136.197 107.911 135.281 110.963L139.248 108.674C140.316 105.47 140.774 103.334 140.774 100.131Z" fill="#312F2C"/>
<path d="M147.792 111.573C147.792 111.573 147.792 111.42 147.792 111.573C147.64 111.42 147.64 111.42 147.64 111.42C147.64 111.42 147.64 111.42 147.487 111.42C145.046 111.573 142.758 110.962 140.012 109.895L136.045 112.183C138.944 113.251 141.08 113.861 143.521 113.709C143.521 113.709 143.521 113.709 143.521 113.861C143.521 114.014 143.521 114.014 143.521 114.014L147.487 111.725C147.792 111.725 147.945 111.573 147.792 111.573Z" fill="#312F2C"/>
<path d="M143.826 103.182C143.673 103.029 143.673 103.029 143.521 103.029L139.554 105.318C139.554 105.318 139.554 105.318 139.707 105.318C139.859 105.47 139.859 105.47 139.859 105.47V105.623C138.944 108.216 137.723 109.59 135.893 111.268L139.859 108.979C141.843 107.148 143.063 105.775 143.826 103.334C143.826 103.334 143.826 103.334 143.826 103.182Z" fill="#312F2C"/>
<path d="M146.265 107.301C146.265 107.148 146.113 107.148 146.265 107.301C146.113 107.148 146.113 107.148 145.96 107.148L143.977 108.368C142.756 108.826 141.383 109.131 139.705 109.284L135.738 111.572C137.722 111.42 139.4 111.115 140.925 110.199L141.993 109.589C142.146 109.742 142.146 109.894 141.993 109.894C141.536 110.199 141.078 110.657 140.62 110.809L144.587 108.521C145.045 108.216 145.502 107.911 145.96 107.606C146.265 107.453 146.265 107.301 146.265 107.301Z" fill="#312F2C"/>
<path d="M144.13 117.828C143.062 117.37 142.147 116.912 141.232 116.455C139.553 115.539 138.028 114.319 136.197 112.946C139.248 114.014 141.384 114.471 143.825 114.166C143.825 114.166 143.978 114.014 143.825 114.014L143.673 113.861C141.232 114.014 138.943 113.403 136.197 112.335C138.943 111.878 140.621 111.42 142.452 109.894C142.452 109.894 142.452 109.742 142.452 109.589C142.452 109.589 142.452 109.437 142.3 109.437H142.147C140.316 110.962 138.333 111.267 135.892 111.42C137.875 109.589 139.096 108.216 139.859 105.775C139.859 105.623 139.859 105.623 139.706 105.47C139.553 105.317 139.553 105.47 139.553 105.47C138.638 108.064 137.265 109.284 135.434 110.81C136.35 107.911 136.96 105.775 136.807 102.419C136.807 102.266 136.807 102.266 136.655 102.114C136.502 102.114 136.502 102.114 136.502 102.266C136.502 105.623 135.892 107.758 134.976 110.352C134.824 106.538 134.519 103.944 133.451 100.435C133.451 100.283 133.298 100.283 133.298 100.283C133.146 100.283 133.146 100.283 133.146 100.435C134.214 104.097 134.366 106.843 134.366 110.047C133.146 105.928 132.078 103.182 130.247 99.6726C130.247 99.6726 130.247 99.52 130.094 99.52C130.094 99.52 130.094 99.52 129.942 99.52C129.942 99.52 129.942 99.6726 129.942 99.8251C131.773 103.334 132.688 106.233 133.756 110.047C131.62 106.08 129.942 103.487 127.501 100.588H127.348C127.348 100.588 127.348 100.741 127.348 100.893C129.789 103.944 131.468 106.69 133.298 110.199C130.4 106.996 128.416 104.86 125.67 102.876C125.518 102.876 125.518 102.876 125.518 102.876C125.518 103.029 125.518 103.029 125.67 103.182C128.874 105.623 131.162 108.216 134.061 111.878L134.976 112.64C137.265 114.319 138.943 115.692 140.774 116.607C141.842 117.217 142.91 117.828 144.13 118.133C144.283 118.133 144.283 118.133 144.283 117.98L144.13 117.828Z" fill="#252321"/>
<path opacity="0.4" d="M133.146 98.7574L176.627 73.5845L183.187 99.2151L139.859 124.388L133.146 98.7574Z" fill="url(#paint2_linear_14822_159405)"/>
<path d="M150.997 36.5117L169.762 47.3437L126.282 72.3641L97.2949 55.5821L150.997 36.5117Z" fill="#E0DED7"/>
<path d="M98.0598 50.3947L132.387 30.4089L113.774 15L79.5996 34.9858L98.0598 50.3947Z" fill="url(#paint3_linear_14822_159405)"/>
<path d="M79.5998 34.9858L79.4473 35.5961L97.7549 51.6153L98.06 50.3947L79.5998 34.9858Z" fill="#B6B5B3"/>
<path d="M91.9551 52.5301L107.669 61.6839V57.2595L91.9551 48.2583V52.5301Z" fill="#B6B5B3"/>
<path d="M107.669 57.2599L150.997 32.2395L135.436 23.2383L91.9551 48.2586L107.669 57.2599Z" fill="url(#paint4_linear_14822_159405)"/>
<path d="M150.999 36.5117L169.765 47.3437L147.338 38.6476L150.999 36.5117Z" fill="#B6B5B3"/>
<path d="M107.67 61.684L110.874 63.5147L150.998 40.3251V32.2393L107.67 57.2596V61.684Z" fill="#D2D1CE"/>
<path d="M150.083 38.3418V40.9354L110.874 63.5147L108.738 62.2942L150.083 38.3418Z" fill="#B6B5B3"/>
<path d="M139.859 139.187L126.281 131.254L135.435 128.355L139.859 130.949V139.187Z" fill="#B6B5B3"/>
<path d="M192.799 108.369L139.859 139.186V130.948L192.799 100.283V108.369Z" fill="#D2D1CE"/>
<path d="M139.86 130.949L135.436 128.355L188.222 97.5371L192.799 100.283L139.86 130.949Z" fill="url(#paint5_linear_14822_159405)"/>
<path d="M178.915 103.335L141.842 124.694V104.555L178.915 83.1963V103.335Z" fill="#E8E3CD"/>
<path d="M142.453 105.165V123.32L178.458 102.572V84.4165L142.453 105.165ZM177.848 99.3677C177.848 100.283 177.238 101.351 176.475 101.809L144.284 120.421C143.521 120.879 142.911 120.574 142.911 119.659V108.369C142.911 107.454 143.521 106.386 144.284 105.928L176.475 87.3152C177.238 86.8575 177.848 87.1626 177.848 88.078V99.3677Z" fill="#4563FF"/>
<path d="M160.455 94.7908C156.946 96.9267 153.895 102.572 153.895 107.606C153.895 112.641 156.793 114.929 160.455 112.793C163.964 110.657 167.015 105.013 167.015 99.978C166.862 95.096 163.964 92.8075 160.455 94.7908ZM160.455 112.793C156.946 114.777 154.047 112.488 154.047 107.606C154.047 102.724 156.946 97.0793 160.455 94.9434C163.964 92.9601 166.862 95.2485 166.862 100.131C166.71 105.013 163.964 110.657 160.455 112.793Z" fill="#969B91"/>
<path d="M166.557 100.284C166.557 105.013 163.811 110.658 160.302 112.641C156.793 114.625 154.047 112.336 154.047 107.607C154.047 102.877 156.793 97.2323 160.302 95.249C163.811 93.1131 166.557 95.4016 166.557 100.284Z" fill="#969B91"/>
<path d="M165.64 100.741C165.64 104.861 163.199 109.59 160.301 111.268C157.402 112.946 154.961 110.963 154.961 106.844C154.961 102.725 157.402 97.9953 160.301 96.3171C163.352 94.7914 165.64 96.6222 165.64 100.741Z" fill="#E8E3CD"/>
<path d="M169.76 100.894L168.539 101.657V102.115L169.76 101.504V100.894Z" fill="#5F6F4A"/>
<path d="M170.369 100.588V101.046L175.709 97.9948V97.5371L170.369 100.588Z" fill="#5F6F4A"/>
<path d="M145.963 114.625L144.742 115.387V115.998L145.963 115.235V114.625Z" fill="#5F6F4A"/>
<path d="M146.572 114.319V114.777L151.912 111.725V111.268L146.572 114.319Z" fill="#5F6F4A"/>
<path d="M144.129 107.301V108.064L150.537 104.402V103.64L144.129 107.301Z" fill="#5F6F4A"/>
<path d="M170.066 92.35V93.1128L176.474 89.4513V88.6885L170.066 92.35Z" fill="#969B91"/>
<path d="M173.727 102.267V100.741L173.117 101.199V101.351H173.27C173.27 101.351 173.422 101.351 173.422 101.504V102.725C173.422 102.877 173.422 102.877 173.27 102.877L173.117 103.03V103.182L174.033 102.725V102.572L173.727 102.267C173.727 102.419 173.727 102.419 173.727 102.267Z" fill="#5F6F4A"/>
<path d="M174.95 99.9781C174.492 100.283 174.34 100.741 174.34 101.199C174.34 101.656 174.492 102.114 174.95 101.809C175.408 101.504 175.56 101.046 175.56 100.588C175.56 99.9781 175.408 99.673 174.95 99.9781ZM174.95 101.656C174.798 101.809 174.798 101.351 174.798 101.046C174.798 100.741 174.798 100.283 174.95 100.131C175.103 99.9781 175.103 100.436 175.103 100.741C175.103 101.046 175.103 101.656 174.95 101.656Z" fill="#5F6F4A"/>
<path d="M176.319 99.2154C175.862 99.5205 175.709 99.9783 175.709 100.436C175.709 100.894 175.862 101.351 176.319 101.046C176.777 100.741 176.929 100.283 176.929 99.8257C176.929 99.2154 176.777 98.9103 176.319 99.2154ZM176.319 100.894C176.167 101.046 176.167 100.588 176.167 100.283C176.167 99.9782 176.167 99.5205 176.319 99.368C176.472 99.2154 176.472 99.6731 176.472 99.9782C176.472 100.283 176.472 100.741 176.319 100.894Z" fill="#5F6F4A"/>
<path d="M173.878 88.3838V87.3159L173.42 87.621H173.572V88.3838V88.5364L173.42 88.689L174.03 88.3838C174.03 88.3838 173.878 88.5364 173.878 88.3838C173.878 88.5364 173.878 88.5364 173.878 88.3838Z" fill="#E8E3CD"/>
<path d="M174.641 86.8584C174.336 87.011 174.184 87.4687 174.184 87.7738C174.184 88.079 174.336 88.3841 174.641 88.2316C174.946 88.079 175.099 87.6213 175.099 87.3162C175.099 87.011 174.946 86.7059 174.641 86.8584ZM174.641 88.079C174.489 88.2315 174.489 87.7738 174.489 87.6213C174.489 87.4687 174.489 87.011 174.641 87.011C174.794 86.8585 174.794 87.3162 174.794 87.4687C174.794 87.6213 174.794 87.9264 174.641 88.079Z" fill="#E8E3CD"/>
<path d="M175.555 86.4005C175.25 86.553 175.098 87.0107 175.098 87.3159C175.098 87.621 175.25 87.9261 175.555 87.7735C175.86 87.621 176.013 87.1633 176.013 86.8581C176.013 86.4005 175.86 86.2479 175.555 86.4005ZM175.555 87.4684C175.403 87.621 175.403 87.1633 175.403 87.0107C175.403 86.8582 175.403 86.4005 175.555 86.4005C175.708 86.2479 175.708 86.7056 175.708 86.8581C175.708 87.1633 175.708 87.4684 175.555 87.4684Z" fill="#E8E3CD"/>
<path d="M145.655 104.708V103.64L145.197 103.945H145.35V104.708V104.86L145.197 105.013L145.808 104.708C145.96 104.708 145.808 104.708 145.655 104.708C145.808 104.708 145.655 104.708 145.655 104.708Z" fill="#E8E3CD"/>
<path d="M146.569 103.182C146.264 103.335 146.111 103.792 146.111 104.098C146.111 104.403 146.264 104.708 146.569 104.555C146.874 104.403 147.027 103.945 147.027 103.64C146.874 103.182 146.874 103.03 146.569 103.182ZM146.569 104.25C146.416 104.403 146.416 103.945 146.416 103.792C146.416 103.64 146.416 103.182 146.569 103.182C146.722 103.03 146.722 103.487 146.722 103.64C146.722 103.792 146.722 104.25 146.569 104.25Z" fill="#E8E3CD"/>
<path d="M147.485 102.572C147.18 102.724 147.027 103.182 147.027 103.487C147.027 103.792 147.18 104.097 147.485 103.945C147.79 103.792 147.943 103.335 147.943 103.03C147.943 102.724 147.79 102.419 147.485 102.572ZM147.485 103.792C147.332 103.945 147.332 103.487 147.332 103.335C147.332 103.182 147.332 102.724 147.485 102.724C147.638 102.572 147.638 103.03 147.638 103.182C147.638 103.335 147.638 103.64 147.485 103.792Z" fill="#E8E3CD"/>
<path d="M145.198 120.422C145.198 120.727 145.045 120.879 145.045 120.879L143.824 121.642C143.672 121.642 143.672 121.642 143.672 121.49V121.337C143.672 121.184 143.672 121.032 143.824 121.032L143.977 120.879V119.201H143.824C143.672 119.201 143.672 119.201 143.672 119.048V118.896C143.672 118.743 143.672 118.743 143.824 118.591L144.587 117.981H144.74C144.74 117.981 144.892 117.981 144.892 118.133V120.269L145.045 120.116C145.045 120.269 145.198 120.269 145.198 120.422ZM149.164 117.065C149.164 117.981 148.859 118.743 148.096 119.048C147.639 119.354 147.333 119.201 147.181 118.743C147.028 119.354 146.723 119.811 146.265 120.116C145.655 120.422 145.198 120.116 145.198 119.201C145.198 118.286 145.503 117.523 146.265 117.218C146.723 116.913 147.028 117.065 147.181 117.523C147.333 116.913 147.639 116.455 148.096 116.15C148.859 115.692 149.164 115.997 149.164 117.065Z" fill="#E8E3CD"/>
<path d="M144.587 120.574V118.438L143.824 119.048V119.201H143.977C144.129 119.201 144.129 119.201 144.129 119.353V121.032C144.129 121.184 144.129 121.184 143.977 121.184L143.824 121.337V121.489L145.045 120.726V120.574H144.587C144.74 120.574 144.587 120.574 144.587 120.574Z" fill="#969B91"/>
<path d="M146.265 117.37C145.655 117.675 145.502 118.438 145.502 119.048C145.502 119.659 145.655 120.116 146.265 119.811C146.875 119.506 147.028 118.743 147.028 118.133C147.18 117.523 146.875 117.065 146.265 117.37ZM146.265 119.811C145.96 119.964 145.96 119.353 145.96 118.896C145.96 118.438 145.96 117.828 146.265 117.675C146.57 117.523 146.57 118.133 146.57 118.591C146.57 118.896 146.57 119.659 146.265 119.811Z" fill="#969B91"/>
<path d="M148.097 116.302C147.487 116.607 147.334 117.37 147.334 117.98C147.334 118.591 147.487 119.048 148.097 118.743C148.707 118.438 148.86 117.675 148.86 117.065C149.012 116.455 148.86 115.997 148.097 116.302ZM148.097 118.743C147.792 118.896 147.792 118.286 147.792 117.828C147.792 117.37 147.792 116.76 148.097 116.607C148.402 116.455 148.402 117.065 148.402 117.523C148.402 117.828 148.402 118.591 148.097 118.743Z" fill="#969B91"/>
<path d="M172.2 94.0284C171.132 94.6387 170.217 96.1643 170.217 97.3848C170.217 98.6053 171.132 99.063 172.2 98.4527C173.268 97.8425 174.183 96.3169 174.183 95.0964C174.183 93.8759 173.421 93.4181 172.2 94.0284ZM172.2 98.1476C171.132 98.7579 170.369 98.3002 170.369 97.2322C170.369 96.1643 171.132 94.7912 172.2 94.181C173.268 93.5707 174.031 94.0284 174.031 95.0964C174.031 96.3169 173.268 97.5374 172.2 98.1476Z" fill="#969B91"/>
<path d="M148.403 107.759C147.335 108.37 146.42 109.895 146.42 111.116C146.42 112.336 147.335 112.794 148.403 112.184C149.471 111.573 150.387 110.048 150.387 108.827C150.387 107.607 149.471 107.149 148.403 107.759ZM148.403 111.879C147.335 112.489 146.572 112.031 146.572 110.963C146.572 109.895 147.335 108.522 148.403 107.912C149.471 107.302 150.234 107.759 150.234 108.827C150.234 110.048 149.319 111.421 148.403 111.879Z" fill="#969B91"/>
<path d="M172.965 94.7912C172.813 94.9437 172.66 95.0963 172.508 95.0963C172.355 95.0963 172.202 95.0963 172.05 95.4014V95.554C171.897 95.7066 171.745 95.8591 171.592 95.8591C171.44 95.8591 171.287 96.0117 171.287 96.1642V97.2322C171.287 97.3848 171.287 97.3848 171.44 97.3848L172.202 97.8424L173.118 96.4694C173.118 96.3168 173.27 96.1642 173.27 96.1642V94.7912C173.118 94.6386 172.965 94.6386 172.965 94.7912Z" fill="#5F6F4A"/>
<path d="M149.012 108.522C148.86 108.674 148.707 108.827 148.554 108.827C148.402 108.827 148.249 108.827 148.097 109.132V109.284C147.944 109.437 147.792 109.59 147.639 109.59C147.487 109.59 147.334 109.742 147.334 109.895V110.963C147.334 111.115 147.334 111.115 147.487 111.115L148.249 111.573L149.165 110.2C149.165 110.047 149.317 109.895 149.317 109.895V108.522C149.317 108.369 149.165 108.369 149.012 108.522Z" fill="#5F6F4A"/>
<path d="M161.217 102.267L160.607 102.42V99.521C160.912 99.3684 161.37 99.521 161.675 100.284C161.827 100.436 161.827 100.589 162.133 100.436C162.438 100.284 163.048 99.6735 163.048 99.0633C163.048 98.453 162.285 97.9954 160.607 98.9107V97.8428L159.844 98.3004V99.3684C158.318 100.284 157.098 101.809 157.098 103.488C157.098 104.708 158.013 105.013 159.081 104.861L159.691 104.708V107.912C159.386 108.065 158.929 108.065 158.471 106.997C158.318 106.691 158.166 106.691 157.861 106.844C157.556 106.997 156.945 107.759 156.945 108.37C156.945 108.827 157.556 109.59 159.691 108.522V109.895L160.454 109.438V108.065C161.675 107.454 163.2 105.776 163.2 103.64C163.506 102.267 162.59 101.962 161.217 102.267ZM159.997 102.42C159.386 102.572 158.929 102.42 158.929 101.809C158.929 101.047 159.386 100.284 159.997 99.8261V102.42ZM160.607 107.454V104.403C161.37 104.25 161.827 104.556 161.827 105.471C161.827 106.234 161.37 106.997 160.607 107.454Z" fill="#5F6F4A"/>
<path d="M169.915 104.708L166.711 106.539V106.386L169.915 104.555V104.708Z" fill="#969B91"/>
<path d="M153.895 113.862L150.844 115.692V115.54L153.895 113.709V113.862Z" fill="#969B91"/>
<path d="M179.221 103.487L142.301 124.846L144.132 105.318L181.052 83.959L179.221 103.487Z" fill="#E8E3CD"/>
<path d="M144.438 105.928L142.76 123.473L178.765 102.724L180.443 85.1792L144.438 105.928ZM178.765 99.8252C178.612 100.588 178.002 101.656 177.239 102.114L144.896 120.726C144.133 121.184 143.523 120.879 143.675 120.116L144.743 109.132C144.896 108.369 145.506 107.301 146.269 106.843L178.46 88.2305C179.222 87.7728 179.833 88.0779 179.68 88.8407L178.765 99.8252Z" fill="#4563FF"/>
<path d="M162.438 95.5538C158.929 97.6897 155.573 103.182 155.115 108.064C154.657 112.946 157.251 115.082 160.76 113.099C164.269 110.963 167.625 105.47 168.083 100.588C168.693 95.8589 166.099 93.5705 162.438 95.5538ZM160.912 112.946C157.403 114.929 154.81 112.793 155.268 108.064C155.725 103.335 158.929 97.6897 162.438 95.7064C165.947 93.7231 168.54 95.8589 168.083 100.588C167.625 105.47 164.421 110.963 160.912 112.946Z" fill="#969B91"/>
<path d="M167.932 100.741C167.474 105.471 164.423 110.81 160.914 112.794C157.405 114.777 155.117 112.641 155.422 107.912C155.727 103.182 158.931 97.8426 162.44 95.8593C165.949 93.876 168.39 96.1644 167.932 100.741Z" fill="#969B91"/>
<path d="M167.016 101.352C166.711 105.319 163.965 109.896 161.067 111.574C158.168 113.252 156.032 111.421 156.49 107.454C156.795 103.488 159.541 98.911 162.44 97.2328C165.338 95.402 167.322 97.3853 167.016 101.352Z" fill="#E8E3CD"/>
<path d="M170.832 101.353L169.611 102.115V102.573L170.832 101.81V101.353Z" fill="#5F6F4A"/>
<path d="M171.441 101.047V101.505L176.781 98.4533V97.9956L171.441 101.047Z" fill="#5F6F4A"/>
<path d="M147.029 115.083L145.809 115.846L145.656 116.304L146.877 115.693L147.029 115.083Z" fill="#5F6F4A"/>
<path d="M147.641 114.777V115.235L152.98 112.184V111.726L147.641 114.777Z" fill="#5F6F4A"/>
<path d="M145.963 108.064L145.811 108.675L152.218 105.013L152.371 104.403L145.963 108.064Z" fill="#4563FF"/>
<path d="M171.898 93.1129V93.7232L178.306 90.0616V89.2988L171.898 93.1129Z" fill="#969B91"/>
<path d="M174.339 102.572L174.492 101.046L173.881 101.504V101.657H174.034C174.034 101.657 174.186 101.657 174.034 101.809L173.881 103.03C173.881 103.182 173.881 103.182 173.729 103.182L173.576 103.335V103.487L174.492 103.03V102.877L174.339 102.572C174.492 102.725 174.339 102.725 174.339 102.572Z" fill="#5F6F4A"/>
<path d="M175.712 100.283C175.254 100.588 175.102 101.046 174.949 101.504C174.949 101.962 174.949 102.267 175.559 102.114C176.017 101.809 176.17 101.351 176.322 100.894C176.322 100.436 176.17 100.131 175.712 100.283ZM175.559 102.114C175.407 102.267 175.407 101.809 175.407 101.504C175.407 101.199 175.559 100.741 175.712 100.588C175.865 100.436 175.865 100.894 175.865 101.199C175.865 101.504 175.865 101.962 175.559 102.114Z" fill="#5F6F4A"/>
<path d="M177.237 99.5207C176.78 99.8258 176.627 100.283 176.475 100.741C176.475 101.199 176.475 101.504 177.085 101.351C177.543 101.046 177.695 100.589 177.848 100.131C177.695 99.6732 177.695 99.2155 177.237 99.5207ZM177.085 101.199C176.932 101.351 176.932 100.894 176.932 100.589C176.932 100.283 177.085 99.8258 177.237 99.6732C177.39 99.5207 177.39 99.9784 177.39 100.283C177.237 100.589 177.237 101.046 177.085 101.199Z" fill="#5F6F4A"/>
<path d="M175.864 89.1456L176.016 88.0776L175.559 88.3827H175.711L175.559 89.1456V89.2981L175.406 89.4507L176.016 89.1456H175.864C175.864 89.2981 175.864 89.2981 175.864 89.1456Z" fill="#E8E3CD"/>
<path d="M176.778 87.6202C176.473 87.7728 176.32 88.0779 176.32 88.5356C176.32 88.8407 176.32 89.1459 176.625 88.8407C176.931 88.6882 177.083 88.383 177.083 87.9253C177.236 87.7728 177.083 87.4676 176.778 87.6202ZM176.625 88.8407C176.473 88.9933 176.473 88.5356 176.473 88.383C176.473 88.2304 176.473 87.7728 176.625 87.7728C176.778 87.6202 176.778 88.0779 176.778 88.2305C176.778 88.383 176.778 88.6882 176.625 88.8407Z" fill="#E8E3CD"/>
<path d="M177.694 87.1624C177.389 87.315 177.236 87.6201 177.236 88.0778C177.236 88.3829 177.236 88.688 177.541 88.3829C177.847 88.2303 177.999 87.9252 177.999 87.4675C178.152 87.1624 177.999 87.0098 177.694 87.1624ZM177.541 88.2303C177.389 88.3829 177.389 87.9252 177.389 87.7726C177.389 87.6201 177.389 87.1624 177.541 87.1624C177.694 87.0098 177.694 87.4675 177.694 87.6201C177.847 87.7726 177.694 88.2303 177.541 88.2303Z" fill="#E8E3CD"/>
<path d="M147.639 105.47L147.792 104.402L147.334 104.707H147.487L147.334 105.47V105.623L147.182 105.775L147.792 105.47C147.944 105.47 147.792 105.47 147.639 105.47C147.792 105.47 147.639 105.47 147.639 105.47Z" fill="#E8E3CD"/>
<path d="M148.553 103.946C148.248 104.098 148.096 104.403 148.096 104.861C148.096 105.166 148.096 105.471 148.401 105.166C148.706 105.014 148.859 104.708 148.859 104.251C149.011 103.946 149.011 103.793 148.553 103.946ZM148.553 105.014C148.401 105.166 148.401 104.708 148.401 104.556C148.401 104.403 148.401 103.946 148.553 103.946C148.706 103.793 148.706 104.251 148.706 104.403C148.706 104.708 148.706 105.014 148.553 105.014Z" fill="#E8E3CD"/>
<path d="M149.624 103.335C149.319 103.488 149.166 103.793 149.166 104.25C149.166 104.556 149.166 104.861 149.471 104.556C149.776 104.403 149.929 104.098 149.929 103.64C149.929 103.488 149.929 103.182 149.624 103.335ZM149.471 104.556C149.319 104.708 149.319 104.25 149.319 104.098C149.319 103.945 149.319 103.488 149.471 103.488C149.624 103.335 149.624 103.793 149.624 103.945C149.624 104.098 149.624 104.403 149.471 104.556Z" fill="#E8E3CD"/>
<path d="M145.807 120.727C145.807 121.032 145.654 121.032 145.654 121.185L144.434 121.947C144.281 121.947 144.281 121.947 144.281 121.795V121.642C144.281 121.49 144.434 121.337 144.434 121.337L144.586 121.185L144.739 119.659H144.586C144.434 119.659 144.434 119.659 144.434 119.506V119.354C144.434 119.201 144.586 119.201 144.586 119.049L145.349 118.439H145.502C145.502 118.439 145.654 118.439 145.654 118.591L145.502 120.574L145.807 120.727C145.654 120.574 145.807 120.574 145.807 120.727ZM149.926 117.371C149.774 118.286 149.468 119.049 148.706 119.354C148.248 119.659 147.943 119.506 147.79 119.049C147.638 119.659 147.18 120.117 146.722 120.422C146.112 120.727 145.807 120.422 145.807 119.659C145.959 118.744 146.265 117.981 147.027 117.676C147.485 117.371 147.79 117.523 147.943 117.981C148.095 117.371 148.553 116.913 149.011 116.608C149.621 116.15 149.926 116.455 149.926 117.371Z" fill="#E8E3CD"/>
<path d="M145.197 120.879L145.349 118.743L144.434 119.353V119.506H144.587C144.739 119.506 144.739 119.506 144.739 119.659L144.587 121.337C144.587 121.489 144.587 121.489 144.434 121.489L144.129 121.642V121.794L145.349 121.032V120.879H145.197C145.349 120.879 145.197 120.879 145.197 120.879Z" fill="#969B91"/>
<path d="M147.029 117.829C146.418 118.134 146.113 118.897 146.113 119.507C146.113 120.117 146.266 120.575 146.876 120.27C147.486 119.965 147.791 119.202 147.791 118.591C147.944 117.829 147.791 117.371 147.029 117.829ZM146.876 120.117C146.571 120.27 146.571 119.659 146.724 119.202C146.724 118.744 146.876 118.134 147.181 117.981C147.486 117.829 147.486 118.439 147.334 118.897C147.181 119.202 147.181 119.964 146.876 120.117Z" fill="#969B91"/>
<path d="M149.011 116.76C148.401 117.065 148.096 117.828 148.096 118.438C148.096 119.049 148.248 119.506 148.859 119.201C149.469 118.896 149.774 118.133 149.774 117.523C149.774 116.76 149.621 116.303 149.011 116.76ZM148.706 118.896C148.401 119.049 148.401 118.438 148.553 117.981C148.553 117.523 148.706 116.913 149.011 116.76C149.316 116.608 149.316 117.218 149.164 117.676C149.164 118.133 149.011 118.744 148.706 118.896Z" fill="#969B91"/>
<path d="M173.729 94.6381C172.661 95.2483 171.593 96.774 171.441 97.9945C171.288 99.215 172.203 99.6727 173.271 98.9099C174.339 98.2996 175.407 96.774 175.56 95.5535C175.712 94.3329 174.949 93.8753 173.729 94.6381ZM173.424 98.6047C172.356 99.215 171.746 98.7573 171.746 97.6893C171.746 96.6214 172.814 95.2483 173.729 94.7906C174.797 94.1804 175.407 94.6381 175.407 95.706C175.255 96.774 174.492 97.9945 173.424 98.6047Z" fill="#969B91"/>
<path d="M149.928 108.369C148.86 108.979 147.792 110.505 147.64 111.725C147.487 112.946 148.403 113.404 149.47 112.641C150.538 112.031 151.606 110.505 151.759 109.284C151.911 108.064 151.149 107.759 149.928 108.369ZM149.623 112.336C148.555 112.946 147.945 112.488 147.945 111.42C148.097 110.352 149.013 108.979 149.928 108.522C150.996 107.911 151.606 108.369 151.606 109.437C151.454 110.505 150.538 111.878 149.623 112.336Z" fill="#969B91"/>
<path d="M174.341 95.4018C174.188 95.5543 174.035 95.7069 173.883 95.7069C173.73 95.7069 173.578 95.7069 173.425 96.012V96.1646C173.273 96.3172 173.12 96.4697 172.967 96.4697C172.815 96.4697 172.662 96.6223 172.662 96.7748L172.51 97.8428C172.51 97.9954 172.51 97.9954 172.662 97.9954L173.425 98.4531L174.341 97.08C174.493 96.9274 174.493 96.7748 174.493 96.7748L174.646 95.7069C174.646 95.2492 174.493 95.2492 174.341 95.4018Z" fill="#5F6F4A"/>
<path d="M150.538 109.132C150.385 109.285 150.233 109.437 150.08 109.437C149.928 109.437 149.775 109.437 149.622 109.742V109.895C149.47 110.048 149.317 110.2 149.165 110.2C149.012 110.2 148.86 110.353 148.86 110.505L148.707 111.573C148.707 111.726 148.707 111.726 148.86 111.726L149.622 112.184L150.538 110.81C150.69 110.658 150.69 110.505 150.69 110.505L150.843 109.437C150.843 108.98 150.69 108.98 150.538 109.132Z" fill="#5F6F4A"/>
<path d="M162.744 102.725L162.134 102.877L162.439 100.131C162.744 99.9785 163.05 100.131 163.355 100.894C163.355 101.046 163.507 101.199 163.812 101.046C164.117 100.894 164.728 100.284 164.88 99.6734C164.88 99.0632 164.27 98.6055 162.592 99.6734L162.744 98.6055L161.982 99.0631L161.829 100.131C160.303 101.046 159.083 102.572 158.93 104.25C158.778 105.471 159.541 105.623 160.761 105.471L161.371 105.318L161.066 108.522C160.761 108.675 160.303 108.675 159.998 107.607C159.846 107.302 159.846 107.302 159.541 107.454C159.235 107.607 158.625 108.369 158.473 108.98C158.473 109.437 158.93 110.2 161.066 109.132L160.914 110.505L161.676 110.048L161.829 108.675C163.05 108.064 164.728 106.386 164.88 104.403C164.728 102.725 163.965 102.572 162.744 102.725ZM161.371 103.03C160.761 103.182 160.303 103.03 160.303 102.42C160.303 101.809 160.914 100.894 161.524 100.589L161.371 103.03ZM161.676 107.912L161.982 105.013C162.592 104.861 163.05 105.166 163.05 105.928C162.897 106.691 162.287 107.454 161.676 107.912Z" fill="#5F6F4A"/>
<path d="M170.526 105.013L167.475 106.844V106.692L170.678 104.861L170.526 105.013Z" fill="#969B91"/>
<path d="M154.659 114.32L151.455 115.998V115.845L154.659 114.015V114.32Z" fill="#969B91"/>
<path d="M179.678 103.793L142.758 125.152L147.03 105.624L184.102 84.2646L179.678 103.793Z" fill="#E8E3CD"/>
<path d="M147.336 106.233L143.521 123.778L179.526 103.03L183.341 85.4849L147.336 106.233ZM179.679 100.131C179.526 100.894 178.764 101.962 177.848 102.419L145.657 121.032C144.895 121.49 144.437 121.185 144.589 120.422L147.03 109.437C147.183 108.674 147.946 107.607 148.861 107.149L181.052 88.5361C181.815 88.0784 182.273 88.3836 182.12 89.1464L179.679 100.131Z" fill="#4563FF"/>
<path d="M165.337 96.0123C161.828 98.1482 158.014 103.64 156.946 108.522C155.878 113.252 157.862 115.54 161.523 113.405C165.032 111.269 168.846 105.776 169.914 100.894C170.982 96.1649 168.846 93.8764 165.337 96.0123ZM161.523 113.252C158.014 115.235 156.031 113.099 157.099 108.37C158.167 103.64 161.828 98.1482 165.337 96.0123C168.846 94.0289 170.83 96.1649 169.762 100.894C168.694 105.776 165.032 111.269 161.523 113.252Z" fill="#969B91"/>
<path d="M169.608 101.047C168.54 105.624 165.031 111.116 161.522 113.099C158.013 115.082 156.182 112.947 157.097 108.217C158.165 103.64 161.674 98.1479 165.183 96.1646C168.692 94.3338 170.675 96.4697 169.608 101.047Z" fill="#969B91"/>
<path d="M168.693 101.657C167.778 105.624 164.727 110.201 161.828 111.879C158.929 113.557 157.251 111.726 158.166 107.76C159.082 103.793 162.133 99.2161 165.032 97.5379C167.931 95.7072 169.609 97.6905 168.693 101.657Z" fill="#E8E3CD"/>
<path d="M172.203 101.657L170.983 102.42L170.83 102.877L172.051 102.114L172.203 101.657Z" fill="#5F6F4A"/>
<path d="M172.814 101.352V101.809L178.002 98.7582L178.154 98.1479L172.814 101.352Z" fill="#5F6F4A"/>
<path d="M148.404 115.389L147.184 116.151L147.031 116.609L148.252 115.999L148.404 115.389Z" fill="#5F6F4A"/>
<path d="M149.014 115.083L148.861 115.541L154.201 112.489L154.354 112.032L149.014 115.083Z" fill="#5F6F4A"/>
<path d="M148.403 108.37L148.25 109.132L154.658 105.318L154.81 104.708L148.403 108.37Z" fill="#4563FF"/>
<path d="M174.338 93.4181L174.186 94.0283L180.593 90.3668L180.746 89.604L174.338 93.4181Z" fill="#969B91"/>
<path d="M175.407 102.878L175.712 101.352L175.102 101.81V101.962H175.255C175.255 101.962 175.407 101.962 175.255 102.115L174.95 103.335C174.95 103.488 174.95 103.488 174.797 103.488L174.645 103.64V103.793L175.56 103.335V103.183L175.407 102.878C175.407 103.03 175.407 103.03 175.407 102.878Z" fill="#5F6F4A"/>
<path d="M176.933 100.589C176.476 100.894 176.17 101.351 176.17 101.809C176.018 102.267 176.171 102.572 176.628 102.419C177.086 102.114 177.391 101.656 177.391 101.199C177.391 100.741 177.391 100.436 176.933 100.589ZM176.628 102.267C176.476 102.419 176.476 101.962 176.628 101.656C176.628 101.351 176.781 100.894 177.086 100.741C177.238 100.589 177.238 101.046 177.086 101.351C176.933 101.656 176.781 102.267 176.628 102.267Z" fill="#5F6F4A"/>
<path d="M178.306 99.8262C177.849 100.131 177.544 100.589 177.544 101.047C177.391 101.504 177.544 101.81 178.001 101.657C178.459 101.352 178.764 100.894 178.764 100.437C178.917 99.8263 178.764 99.5211 178.306 99.8262ZM178.001 101.504C177.849 101.657 177.849 101.199 178.001 100.894C178.001 100.589 178.154 100.131 178.459 99.9788C178.611 99.8262 178.611 100.284 178.459 100.589C178.306 100.894 178.154 101.352 178.001 101.504Z" fill="#5F6F4A"/>
<path d="M178.458 89.4513L178.61 88.3833L178.153 88.6884H178.305L178.153 89.4513V89.6038H178C178 89.909 178.61 89.6038 178.458 89.4513C178.61 89.4513 178.61 89.6038 178.458 89.4513C178.458 89.6038 178.458 89.6038 178.458 89.4513Z" fill="#E8E3CD"/>
<path d="M179.524 87.9259C179.219 88.0784 179.067 88.3836 178.914 88.8412C178.914 89.1464 178.914 89.4515 179.219 89.1463C179.524 88.9938 179.677 88.6887 179.829 88.231C179.982 88.0784 179.829 87.7733 179.524 87.9259ZM179.372 89.1463C179.219 89.2989 179.219 88.8412 179.372 88.6887C179.372 88.5361 179.524 88.0784 179.677 88.0784C179.829 87.9259 179.829 88.3835 179.677 88.5361C179.524 88.6887 179.372 88.9938 179.372 89.1463Z" fill="#E8E3CD"/>
<path d="M180.44 87.4681C180.135 87.6206 179.983 87.9257 179.83 88.3834C179.83 88.6885 179.83 88.9937 180.135 88.6885C180.44 88.536 180.593 88.2308 180.745 87.7732C180.898 87.468 180.745 87.3155 180.44 87.4681ZM180.288 88.536C180.135 88.6885 180.135 88.2309 180.288 88.0783C180.288 87.9257 180.44 87.4681 180.593 87.4681C180.745 87.3155 180.745 87.7732 180.593 87.9257C180.44 88.2309 180.44 88.536 180.288 88.536Z" fill="#E8E3CD"/>
<path d="M150.385 105.776L150.538 104.708L150.08 105.013H150.233L150.08 105.776V105.928H149.928C149.928 106.234 150.538 105.776 150.385 105.776C150.538 105.776 150.385 105.776 150.385 105.776Z" fill="#E8E3CD"/>
<path d="M151.452 104.251C151.147 104.403 150.994 104.708 150.842 105.166C150.842 105.471 150.842 105.776 151.147 105.471C151.452 105.319 151.605 105.014 151.757 104.556C151.757 104.251 151.757 104.098 151.452 104.251ZM151.147 105.319C150.994 105.471 150.994 105.014 151.147 104.861C151.147 104.708 151.3 104.251 151.452 104.251C151.605 104.098 151.605 104.556 151.452 104.708C151.452 105.014 151.3 105.319 151.147 105.319Z" fill="#E8E3CD"/>
<path d="M152.368 103.64C152.063 103.793 151.91 104.098 151.758 104.556C151.758 104.861 151.758 105.166 152.063 104.861C152.368 104.708 152.521 104.403 152.673 103.945C152.673 103.793 152.673 103.488 152.368 103.64ZM152.063 104.861C151.91 105.013 151.91 104.556 152.063 104.403C152.063 104.25 152.215 103.793 152.368 103.793C152.521 103.64 152.521 104.098 152.368 104.251C152.368 104.403 152.216 104.708 152.063 104.861Z" fill="#E8E3CD"/>
<path d="M146.573 120.879C146.573 121.184 146.42 121.184 146.268 121.337L145.047 122.1C144.895 122.1 144.895 122.1 144.895 121.947V121.795C144.895 121.642 145.047 121.642 145.047 121.489L145.2 121.337L145.505 119.811H145.352C145.2 119.811 145.2 119.811 145.2 119.659V119.506C145.2 119.354 145.352 119.354 145.352 119.201L146.115 118.591H146.268C146.268 118.591 146.268 118.591 146.268 118.743L145.81 120.727L146.573 120.879ZM150.844 117.523C150.692 118.438 150.234 119.201 149.471 119.506C149.014 119.811 148.709 119.659 148.709 119.201C148.403 119.811 148.098 120.269 147.641 120.574C147.03 120.879 146.725 120.727 146.878 119.811C147.03 118.896 147.488 118.133 148.251 117.828C148.709 117.523 149.014 117.675 149.014 118.133C149.319 117.523 149.624 117.065 150.082 116.76C150.692 116.455 150.997 116.76 150.844 117.523Z" fill="#E8E3CD"/>
<path d="M145.962 121.032L146.42 118.896L145.505 119.506V119.659H145.657C145.81 119.659 145.81 119.659 145.81 119.811L145.505 121.49C145.505 121.642 145.505 121.642 145.352 121.642L145.047 121.795V121.947L146.267 121.184V121.032H145.962C146.115 121.184 145.962 121.184 145.962 121.032Z" fill="#969B91"/>
<path d="M148.098 118.133C147.487 118.438 147.182 119.201 147.03 119.811C146.877 120.421 147.03 120.879 147.64 120.574C148.25 120.269 148.555 119.506 148.708 118.896C148.86 118.133 148.708 117.675 148.098 118.133ZM147.64 120.269C147.335 120.421 147.487 119.811 147.64 119.353C147.792 118.896 147.945 118.285 148.25 118.133C148.555 117.98 148.403 118.591 148.25 119.048C148.098 119.506 147.945 120.116 147.64 120.269Z" fill="#969B91"/>
<path d="M150.082 116.912C149.472 117.217 149.167 117.98 149.014 118.59C148.861 119.201 149.014 119.658 149.624 119.353C150.235 119.048 150.54 118.285 150.692 117.675C150.692 117.065 150.692 116.607 150.082 116.912ZM149.472 119.201C149.167 119.353 149.319 118.743 149.472 118.285C149.624 117.827 149.777 117.217 150.082 117.065C150.387 116.912 150.234 117.522 150.082 117.98C149.929 118.438 149.777 119.048 149.472 119.201Z" fill="#969B91"/>
<path d="M175.862 94.9438C174.794 95.554 173.574 97.0797 173.421 98.3002C173.116 99.5207 173.879 99.9784 174.947 99.2155C176.015 98.6053 177.235 97.0797 177.388 95.8592C177.693 94.6387 176.93 94.3335 175.862 94.9438ZM174.947 98.9105C173.879 99.5207 173.269 99.063 173.574 97.9951C173.879 96.9271 174.794 95.5541 175.862 95.0964C176.93 94.4861 177.541 94.9438 177.235 96.0117C176.93 97.0797 176.015 98.3002 174.947 98.9105Z" fill="#969B91"/>
<path d="M152.064 108.675C150.996 109.285 149.775 110.811 149.622 112.031C149.317 113.252 150.08 113.709 151.148 112.946C152.216 112.184 153.437 110.811 153.589 109.59C153.894 108.522 153.131 108.064 152.064 108.675ZM151.148 112.641C150.08 113.252 149.47 112.794 149.775 111.726C150.08 110.658 150.996 109.285 152.064 108.827C153.131 108.217 153.742 108.675 153.437 109.743C153.131 110.811 152.216 112.184 151.148 112.641Z" fill="#969B91"/>
<path d="M176.321 95.7071C176.169 95.8597 176.016 96.0122 175.864 96.0122C175.711 96.0122 175.558 96.0123 175.406 96.3174V96.47C175.253 96.6225 175.101 96.7751 174.948 96.7751C174.796 96.7751 174.643 96.9276 174.643 97.0802L174.338 98.1482C174.338 98.3007 174.338 98.3007 174.338 98.3007L174.948 98.6058L176.016 97.2328C176.169 97.0802 176.169 96.9276 176.169 96.9276L176.474 95.8597C176.626 95.5546 176.474 95.5546 176.321 95.7071Z" fill="#5F6F4A"/>
<path d="M152.52 109.438C152.368 109.591 152.215 109.743 152.063 109.743C151.91 109.743 151.758 109.743 151.605 110.048V110.201C151.452 110.353 151.3 110.506 151.147 110.506C150.995 110.506 150.842 110.659 150.842 110.811L150.537 111.879C150.537 112.032 150.537 112.032 150.537 112.032L151.147 112.337L152.215 110.964C152.368 110.811 152.368 110.659 152.368 110.659L152.673 109.591C152.673 109.286 152.52 109.286 152.52 109.438Z" fill="#5F6F4A"/>
<path d="M164.574 103.03L163.963 103.182L164.574 100.436C164.879 100.284 165.184 100.436 165.336 101.199C165.336 101.352 165.489 101.504 165.794 101.352C166.099 101.199 166.709 100.589 166.862 99.9786C167.015 99.3683 166.404 99.0632 164.726 99.9786L165.031 98.9106L164.269 99.3683L163.963 100.436C162.438 101.352 161.065 102.877 160.76 104.555C160.454 105.776 161.217 105.929 162.285 105.776L162.895 105.623L162.133 108.827C161.828 108.98 161.522 108.98 161.217 107.912C161.217 107.759 161.065 107.607 160.76 107.759C160.454 107.912 159.692 108.675 159.692 109.285C159.539 109.743 159.844 110.505 161.98 109.438L161.675 110.811L162.438 110.353L162.743 108.98C163.963 108.37 165.642 106.691 166.099 104.708C166.404 103.03 165.794 102.877 164.574 103.03ZM163.353 103.335C162.743 103.488 162.438 103.335 162.438 102.725C162.59 102.114 163.201 101.199 163.811 100.894L163.353 103.335ZM162.895 108.064L163.506 105.166C164.116 105.013 164.421 105.318 164.269 106.081C164.116 106.996 163.506 107.759 162.895 108.064Z" fill="#5F6F4A"/>
<path d="M171.593 105.319L168.389 107.149V106.997L171.593 105.166V105.319Z" fill="#969B91"/>
<path d="M155.575 114.472L152.371 116.303L152.524 116.151L155.575 114.32V114.472Z" fill="#969B91"/>
<path d="M180.137 103.945L143.217 125.304L149.93 106.081L186.85 84.7217L180.137 103.945Z" fill="#E8E3CD"/>
<path d="M150.083 106.69L143.98 124.083L179.985 103.334L186.088 85.9419L150.083 106.69ZM180.596 100.283C180.291 101.046 179.375 102.114 178.612 102.571L146.421 121.184C145.659 121.642 145.201 121.337 145.506 120.574L149.32 109.742C149.625 108.979 150.541 107.911 151.304 107.453L183.494 88.8406C184.257 88.3829 184.715 88.688 184.41 89.4508L180.596 100.283Z" fill="#4563FF"/>
<path d="M168.084 96.3167C164.575 98.4526 160.303 103.945 158.625 108.674C156.947 113.404 158.473 115.692 162.134 113.556C165.643 111.42 169.915 105.928 171.593 101.199C173.119 96.4693 171.593 94.3334 168.084 96.3167ZM162.134 113.556C158.625 115.54 157.1 113.404 158.625 108.674C160.303 103.945 164.423 98.4526 167.932 96.4693C171.44 94.4859 172.966 96.6218 171.44 101.351C169.762 105.928 165.643 111.42 162.134 113.556Z" fill="#969B91"/>
<path d="M171.287 101.351C169.609 105.928 165.642 111.267 162.133 113.251C158.625 115.234 157.251 113.098 158.777 108.521C160.455 103.944 164.422 98.6047 167.931 96.6214C171.44 94.6381 172.813 96.7739 171.287 101.351Z" fill="#969B91"/>
<path d="M170.373 101.962C169 105.928 165.491 110.505 162.593 112.183C159.694 113.862 158.321 112.031 159.694 108.064C161.067 104.098 164.576 99.5206 167.475 97.8424C170.373 96.1642 171.746 97.995 170.373 101.962Z" fill="#E8E3CD"/>
<path d="M173.576 101.961L172.356 102.724L172.203 103.182L173.424 102.419L173.576 101.961Z" fill="#5F6F4A"/>
<path d="M174.186 101.656L174.033 102.114L179.373 99.0629L179.525 98.4526L174.186 101.656Z" fill="#5F6F4A"/>
<path d="M149.778 115.693L148.557 116.456L148.252 116.913L149.625 116.303L149.778 115.693Z" fill="#5F6F4A"/>
<path d="M150.389 115.387L150.236 115.845L155.576 112.794L155.729 112.336L150.389 115.387Z" fill="#5F6F4A"/>
<path d="M150.694 108.674L150.541 109.437L156.949 105.775L157.101 105.012L150.694 108.674Z" fill="#4563FF"/>
<path d="M176.631 93.723L176.479 94.4858L182.886 90.6718L183.039 90.0615L176.631 93.723Z" fill="#969B91"/>
<path d="M176.321 103.182L176.779 101.656L176.169 102.114V102.266H176.321C176.321 102.266 176.321 102.267 176.321 102.419L175.864 103.64C175.864 103.792 175.864 103.792 175.711 103.792L175.559 103.945V104.097L176.474 103.64V103.487L176.321 103.182C176.321 103.334 176.321 103.334 176.321 103.182Z" fill="#5F6F4A"/>
<path d="M177.999 100.893C177.541 101.198 177.236 101.656 177.083 102.114C176.931 102.571 176.931 102.877 177.389 102.724C177.846 102.419 178.151 101.961 178.304 101.503C178.456 101.046 178.457 100.588 177.999 100.893ZM177.389 102.571C177.236 102.724 177.389 102.266 177.389 101.961C177.541 101.656 177.694 101.198 177.846 101.046C177.999 100.893 177.846 101.351 177.846 101.656C177.846 101.961 177.694 102.419 177.389 102.571Z" fill="#5F6F4A"/>
<path d="M179.372 100.13C178.914 100.436 178.609 100.893 178.456 101.351C178.304 101.809 178.304 102.114 178.762 101.961C179.219 101.656 179.524 101.198 179.677 100.741C179.982 100.13 179.83 99.8253 179.372 100.13ZM178.914 101.809C178.762 101.961 178.914 101.504 178.914 101.198C179.067 100.893 179.219 100.436 179.372 100.283C179.524 100.13 179.372 100.588 179.372 100.893C179.219 101.198 179.067 101.656 178.914 101.809Z" fill="#5F6F4A"/>
<path d="M181.054 89.9087L181.359 88.8408L180.901 89.1459H181.054L180.748 89.9087C180.748 89.9087 180.748 90.0613 180.596 90.0613L180.443 90.2139C180.596 90.2139 181.206 89.9087 181.054 89.9087C181.206 89.9087 181.054 89.9087 181.054 89.9087Z" fill="#E8E3CD"/>
<path d="M182.275 88.3836C181.97 88.5361 181.817 88.8413 181.665 89.299C181.512 89.6041 181.512 89.9092 181.817 89.6041C182.122 89.4515 182.275 89.1464 182.427 88.6887C182.58 88.3836 182.58 88.231 182.275 88.3836ZM181.817 89.4515C181.665 89.6041 181.817 89.1464 181.817 88.9939C181.817 88.8413 181.97 88.5361 182.122 88.3836C182.275 88.231 182.122 88.6887 182.122 88.8413C182.122 89.1464 181.97 89.4515 181.817 89.4515Z" fill="#E8E3CD"/>
<path d="M183.189 87.773C182.884 87.9256 182.731 88.2307 182.579 88.6884C182.426 88.9935 182.426 89.2987 182.731 88.9936C183.036 88.841 183.189 88.5359 183.342 88.0782C183.494 87.9256 183.494 87.6205 183.189 87.773ZM182.731 88.9936C182.579 89.1461 182.731 88.6884 182.731 88.5358C182.731 88.3833 182.884 88.0782 183.036 87.9256C183.189 87.773 183.036 88.2307 183.036 88.3833C183.036 88.5358 182.884 88.841 182.731 88.9936Z" fill="#E8E3CD"/>
<path d="M152.981 106.08L153.286 105.012L152.829 105.317H152.981L152.676 106.08C152.676 106.08 152.676 106.233 152.524 106.233H152.371C152.371 106.538 152.981 106.233 152.981 106.08C152.981 106.08 152.981 106.233 152.981 106.08C152.829 106.233 152.829 106.233 152.981 106.08Z" fill="#E8E3CD"/>
<path d="M154.05 104.555C153.745 104.707 153.593 105.012 153.44 105.47C153.287 105.775 153.287 106.08 153.593 105.775C153.898 105.623 154.05 105.318 154.203 104.86C154.355 104.707 154.355 104.402 154.05 104.555ZM153.745 105.775C153.593 105.928 153.745 105.47 153.745 105.318C153.745 105.165 153.898 104.86 154.05 104.707C154.203 104.555 154.05 105.012 154.05 105.165C153.898 105.318 153.898 105.623 153.745 105.775Z" fill="#E8E3CD"/>
<path d="M154.964 104.097C154.659 104.25 154.507 104.555 154.354 105.012C154.202 105.317 154.202 105.623 154.507 105.317C154.812 105.165 154.964 104.86 155.117 104.402C155.269 104.097 155.269 103.944 154.964 104.097ZM154.659 105.165C154.507 105.317 154.659 104.86 154.659 104.707C154.659 104.555 154.812 104.25 154.964 104.097C155.117 103.944 154.964 104.402 154.964 104.555C154.964 104.86 154.812 105.165 154.659 105.165Z" fill="#E8E3CD"/>
<path d="M147.184 121.184C147.032 121.489 147.032 121.489 146.879 121.642L145.658 122.404C145.506 122.404 145.506 122.404 145.506 122.252V122.099C145.506 121.947 145.658 121.947 145.811 121.794L145.964 121.642L146.574 120.116H146.421C146.269 120.116 146.269 120.116 146.269 119.963V119.811C146.269 119.658 146.421 119.658 146.421 119.506L147.337 118.896H147.489C147.489 118.896 147.489 118.896 147.489 119.048L146.726 121.031L147.184 121.184C147.184 121.031 147.337 121.184 147.184 121.184ZM151.608 117.828C151.303 118.743 150.693 119.506 150.083 119.811C149.625 120.116 149.32 119.963 149.473 119.658C149.167 120.269 148.71 120.726 148.252 121.031C147.642 121.337 147.337 121.184 147.642 120.269C147.947 119.353 148.557 118.59 149.167 118.285C149.625 117.98 149.93 118.133 149.778 118.438C150.083 117.828 150.54 117.37 150.998 117.065C151.761 116.607 151.914 116.912 151.608 117.828Z" fill="#E8E3CD"/>
<path d="M146.726 121.336L147.489 119.353L146.574 119.963V120.116H146.726C146.879 120.116 146.879 120.116 146.726 120.268L146.116 121.947C146.116 122.099 145.963 122.099 145.963 122.099L145.658 122.252V122.404L146.879 121.641V121.489L146.726 121.336C146.726 121.489 146.726 121.489 146.726 121.336Z" fill="#969B91"/>
<path d="M149.169 118.285C148.558 118.59 148.101 119.353 147.948 119.963C147.795 120.574 147.795 121.031 148.406 120.726C149.016 120.421 149.474 119.658 149.626 119.048C149.779 118.438 149.779 117.98 149.169 118.285ZM148.406 120.574C148.101 120.726 148.253 120.116 148.406 119.658C148.558 119.2 148.863 118.59 149.016 118.438C149.321 118.285 149.169 118.895 149.016 119.353C148.863 119.811 148.558 120.421 148.406 120.574Z" fill="#969B91"/>
<path d="M150.999 117.218C150.388 117.523 149.931 118.286 149.778 118.896C149.626 119.506 149.626 119.964 150.236 119.659C150.846 119.354 151.304 118.591 151.456 117.981C151.609 117.37 151.609 116.913 150.999 117.218ZM150.236 119.506C149.931 119.659 150.083 119.048 150.236 118.591C150.388 118.133 150.693 117.523 150.846 117.37C151.151 117.218 150.999 117.828 150.846 118.286C150.693 118.743 150.541 119.354 150.236 119.506Z" fill="#969B91"/>
<path d="M177.847 95.249C176.779 95.8592 175.406 97.3849 175.101 98.6054C174.796 99.8259 175.254 100.131 176.474 99.5208C177.542 98.9105 178.915 97.3849 179.22 96.1644C179.526 94.9439 179.068 94.6387 177.847 95.249ZM176.474 99.2156C175.406 99.8259 174.949 99.3682 175.254 98.4528C175.559 97.3849 176.779 96.1644 177.695 95.5541C178.763 94.9439 179.221 95.4016 178.915 96.3169C178.61 97.2323 177.542 98.6054 176.474 99.2156Z" fill="#969B91"/>
<path d="M154.05 108.979C152.982 109.589 151.609 111.115 151.304 112.335C150.847 113.556 151.457 113.861 152.677 113.251C153.745 112.64 155.118 111.115 155.423 109.894C155.729 108.826 155.118 108.369 154.05 108.979ZM152.677 112.946C151.609 113.556 151.152 113.098 151.457 112.183C151.762 111.115 152.982 109.894 153.898 109.284C154.966 108.674 155.424 109.131 155.118 110.047C154.813 111.115 153.593 112.488 152.677 112.946Z" fill="#969B91"/>
<path d="M178.154 96.0118C178.001 96.1644 177.849 96.317 177.696 96.317C177.543 96.317 177.391 96.317 177.238 96.6221L177.086 96.7746C176.933 96.9272 176.781 97.0798 176.628 97.0798C176.475 97.0798 176.323 97.2324 176.323 97.3849L175.865 98.4529C175.865 98.6054 175.865 98.6054 175.865 98.6054L176.323 98.9106L177.543 97.5375C177.696 97.3849 177.696 97.2324 177.696 97.2324L178.001 96.1644C178.459 95.8593 178.306 95.8593 178.154 96.0118Z" fill="#4563FF"/>
<path d="M154.355 109.742C154.202 109.895 154.05 110.047 153.897 110.047C153.745 110.047 153.592 110.047 153.439 110.353L153.287 110.505C153.134 110.658 152.982 110.81 152.829 110.81C152.677 110.81 152.524 110.963 152.524 111.115L152.066 112.183C152.066 112.336 152.066 112.336 152.066 112.336L152.524 112.641L153.745 111.268C153.897 111.115 153.897 110.963 153.897 110.963L154.202 109.895C154.507 109.59 154.507 109.59 154.355 109.742Z" fill="#4563FF"/>
<path d="M172.356 105.623L169.305 107.454V107.149L172.509 105.318L172.356 105.623Z" fill="#969B91"/>
<path d="M156.489 114.777L153.285 116.607L153.438 116.455L156.489 114.624V114.777Z" fill="#969B91"/>
<path d="M149.471 114.471L150.539 115.081V124.693L147.641 123.015L149.471 114.471Z" fill="#B6B5B3"/>
<path d="M159.693 119.506L150.539 124.693V115.082L159.693 109.895V119.506Z" fill="#D2D1CE"/>
<path d="M150.539 115.082L149.471 114.472L158.624 109.132L159.692 109.895L150.539 115.082Z" fill="url(#paint6_linear_14822_159405)"/>
<path d="M170.678 102.267L171.899 102.877V112.488L168.848 110.81L170.678 102.267Z" fill="#B6B5B3"/>
<path d="M180.9 107.301L171.898 112.488V102.876L180.9 97.5366V107.301Z" fill="#D2D1CE"/>
<path d="M171.898 102.877L170.678 102.266L179.832 96.9268L180.899 97.537L171.898 102.877Z" fill="url(#paint7_linear_14822_159405)"/>
<path d="M153.743 66.8714L152.523 67.6343C151.912 67.9394 151.302 67.7868 151.15 67.3291L150.844 66.2612C150.692 65.8035 151.15 65.0406 151.607 64.7355L152.828 63.9727C153.438 63.6676 154.048 63.8202 154.201 64.2778L154.506 65.3458C154.658 65.8035 154.353 66.5663 153.743 66.8714Z" fill="#B8C6FF"/>
<path d="M158.319 64.1258L157.099 64.8886C156.489 65.1937 155.878 65.0412 155.726 64.5835L155.421 63.5155C155.268 63.0579 155.726 62.295 156.183 61.9899L157.404 61.2271C158.014 60.922 158.624 61.0746 158.777 61.5322L159.082 62.6002C159.387 63.2104 158.93 63.8207 158.319 64.1258Z" fill="#B8C6FF"/>
<path d="M163.048 61.5321L161.827 62.2949C161.217 62.6 160.607 62.4474 160.454 61.9898L160.149 60.9218C159.997 60.4641 160.454 59.7013 160.912 59.3962L162.132 58.6333C162.743 58.3282 163.353 58.4808 163.505 58.9385L163.811 60.0065C163.963 60.4641 163.658 61.227 163.048 61.5321Z" fill="#B8C6FF"/>
<path d="M154.657 70.6859L153.437 71.4487C152.826 71.7538 152.216 71.6013 152.064 71.1436L151.758 70.0756C151.606 69.6179 152.064 68.8551 152.521 68.55L153.742 67.7872C154.352 67.482 154.962 67.6346 155.115 68.0923L155.42 69.1603C155.725 69.7705 155.267 70.3808 154.657 70.6859Z" fill="#B8C6FF"/>
<path d="M159.39 68.0923L158.016 68.8551C157.406 69.1603 156.796 69.0077 156.643 68.55L156.491 67.3295C156.338 66.8718 156.796 66.109 157.254 65.8039L158.474 65.0411C159.084 64.7359 159.695 64.8885 159.847 65.3462L160.152 66.4141C160.305 67.0244 160 67.6346 159.39 68.0923Z" fill="#B8C6FF"/>
<path d="M163.966 65.3461L162.745 66.1089C162.135 66.414 161.525 66.2614 161.372 65.8037L161.067 64.7358C160.914 64.2781 161.372 63.5153 161.83 63.2101L163.05 62.4473C163.661 62.1422 164.271 62.2948 164.423 62.7525L164.729 63.8204C165.034 64.2781 164.576 65.0409 163.966 65.3461Z" fill="#B8C6FF"/>
<path d="M155.727 74.4999L154.507 75.2627C153.897 75.5678 153.286 75.4152 153.134 74.9575L152.829 73.8896C152.676 73.4319 153.134 72.6691 153.592 72.3639L154.812 71.6011C155.422 71.296 156.033 71.4486 156.185 71.9063L156.49 72.9742C156.643 73.5845 156.338 74.1947 155.727 74.4999Z" fill="#B8C6FF"/>
<path d="M134.369 86.8571L132.69 87.7724C132.385 87.925 132.08 87.925 132.08 87.6199V87.1622C132.08 86.8571 132.233 86.5519 132.538 86.3994L134.216 85.484C134.521 85.3314 134.826 85.3314 134.826 85.6366L134.979 86.0942C134.979 86.3994 134.674 86.7045 134.369 86.8571Z" fill="#B8C6FF"/>
<path d="M138.488 84.5685L136.81 85.4839C136.505 85.6364 136.199 85.6364 136.199 85.3313L136.047 84.8736C136.047 84.5685 136.199 84.2634 136.505 84.1108L138.183 83.1954C138.488 83.0429 138.793 83.0429 138.793 83.348L138.946 83.8057C138.946 83.9582 138.793 84.4159 138.488 84.5685Z" fill="#B8C6FF"/>
<path d="M142.605 82.1281L140.927 83.0434C140.622 83.196 140.317 83.196 140.317 82.8909L140.164 82.4332C140.164 82.1281 140.317 81.8229 140.622 81.6704L142.3 80.755C142.605 80.6024 142.91 80.6024 142.91 80.9076L143.063 81.3653C143.063 81.6704 142.91 81.9755 142.605 82.1281Z" fill="#B8C6FF"/>
<path d="M171.136 65.651L169.458 66.5664C169.153 66.719 168.848 66.7189 168.848 66.4138L168.695 65.9561C168.695 65.651 168.848 65.3459 169.153 65.1933L170.831 64.2779C171.136 64.1254 171.441 64.1254 171.441 64.4305L171.594 64.8882C171.594 65.1933 171.441 65.4984 171.136 65.651Z" fill="#B8C6FF"/>
<path d="M175.103 63.3624L173.425 64.2778C173.12 64.4304 172.815 64.4304 172.815 64.1252L172.662 63.6676C172.662 63.3624 172.815 63.0573 173.12 62.9048L174.798 61.9894C175.103 61.8368 175.408 61.8368 175.408 62.1419L175.561 62.5996C175.713 62.7522 175.408 63.2099 175.103 63.3624Z" fill="#B8C6FF"/>
<path d="M160.304 71.9061L159.083 72.6689C158.473 72.974 157.863 72.8214 157.71 72.3637L157.405 71.2958C157.252 70.8381 157.71 70.0753 158.168 69.7702L159.388 69.0074C159.998 68.7023 160.609 68.8548 160.761 69.3125L161.066 70.3804C161.372 70.8381 160.914 71.601 160.304 71.9061Z" fill="#B8C6FF"/>
<path d="M165.032 69.16L163.812 69.9228C163.201 70.228 162.591 70.0754 162.439 69.6177L162.133 68.5497C161.981 68.092 162.439 67.3292 162.896 67.0241L164.117 66.2613C164.727 65.9562 165.337 66.1087 165.49 66.5664L165.795 67.6344C165.948 68.2446 165.642 68.8549 165.032 69.16Z" fill="#B8C6FF"/>
<path d="M143.369 77.2462L130.248 84.8744L128.57 78.009L141.538 70.3809L143.369 77.2462Z" fill="#1F5E89"/>
<path opacity="0.3" d="M141.538 70.3809L141.233 70.686L142.911 77.0936L130.096 84.4167L130.248 84.8744L143.369 77.2462L141.538 70.3809Z" fill="#1F5E89"/>
<path opacity="0.1" d="M116.822 77.2461L92.5647 63.2102C91.3442 62.4474 89.666 63.3628 89.666 64.8884L89.8186 104.707C89.8186 105.47 90.2763 106.233 90.8865 106.538L131.621 130.033V129.118C131.621 128.965 131.621 128.812 131.621 128.507L119.263 80.4499C118.958 79.0768 118.043 78.0089 116.822 77.2461Z" fill="#B6B5B3"/>
<path opacity="0.2" d="M131.621 128.507L92.4119 105.775C91.8017 105.318 91.344 104.707 91.344 103.945L91.1914 64.1255C91.1914 63.6678 91.344 63.3627 91.4965 63.0576C90.5812 63.2102 89.8184 63.973 89.8184 64.8883L89.9709 104.707C89.9709 105.47 90.4286 106.233 91.0389 106.538L131.773 130.033V129.117C131.621 128.965 131.621 128.66 131.621 128.507Z" fill="#B6B5B3"/>
<defs>
<linearGradient id="paint0_linear_14822_159405" x1="85.9961" y1="50.5292" x2="176.203" y2="50.5292" gradientUnits="userSpaceOnUse">
<stop stop-color="#F0EFEC"/>
<stop offset="1" stop-color="#F7F6F3"/>
</linearGradient>
<linearGradient id="paint1_linear_14822_159405" x1="138.34" y1="109.144" x2="183.225" y2="109.144" gradientUnits="userSpaceOnUse">
<stop stop-color="#F0EFEC"/>
<stop offset="1" stop-color="#F7F6F3"/>
</linearGradient>
<linearGradient id="paint2_linear_14822_159405" x1="151.786" y1="87.8427" x2="159.189" y2="100.666" gradientUnits="userSpaceOnUse">
<stop stop-color="#B6B5B3"/>
<stop offset="0.4268" stop-color="#DCDBDB"/>
<stop offset="0.7872" stop-color="#F6F5F5"/>
<stop offset="1" stop-color="white"/>
</linearGradient>
<linearGradient id="paint3_linear_14822_159405" x1="79.5448" y1="32.6877" x2="132.391" y2="32.6877" gradientUnits="userSpaceOnUse">
<stop stop-color="#F0EFEC"/>
<stop offset="1" stop-color="#F7F6F3"/>
</linearGradient>
<linearGradient id="paint4_linear_14822_159405" x1="91.979" y1="40.2466" x2="151.037" y2="40.2466" gradientUnits="userSpaceOnUse">
<stop stop-color="#F0EFEC"/>
<stop offset="1" stop-color="#F7F6F3"/>
</linearGradient>
<linearGradient id="paint5_linear_14822_159405" x1="135.41" y1="114.283" x2="192.798" y2="114.283" gradientUnits="userSpaceOnUse">
<stop stop-color="#F0EFEC"/>
<stop offset="1" stop-color="#F7F6F3"/>
</linearGradient>
<linearGradient id="paint6_linear_14822_159405" x1="149.493" y1="112.159" x2="159.752" y2="112.159" gradientUnits="userSpaceOnUse">
<stop stop-color="#F0EFEC"/>
<stop offset="1" stop-color="#F7F6F3"/>
</linearGradient>
<linearGradient id="paint7_linear_14822_159405" x1="170.711" y1="99.9095" x2="180.97" y2="99.9095" gradientUnits="userSpaceOnUse">
<stop stop-color="#F0EFEC"/>
<stop offset="1" stop-color="#F7F6F3"/>
</linearGradient>
</defs>
</svg>
