<svg width="16" height="14" viewBox="0 0 16 14" fill="none" xmlns="http://www.w3.org/2000/svg">
<path fill-rule="evenodd" clip-rule="evenodd" d="M0 1.66602C0 1.11373 0.447715 0.666016 1 0.666016H15C15.5523 0.666016 16 1.11373 16 1.66602C16 2.2183 15.5523 2.66602 15 2.66602H1C0.447715 2.66602 0 2.2183 0 1.66602ZM0 7C0 6.44772 0.447715 6 1 6H15C15.5523 6 16 6.44772 16 7C16 7.55228 15.5523 8 15 8H1C0.447715 8 0 7.55228 0 7ZM1 11.332C0.447715 11.332 0 11.7797 0 12.332C0 12.8843 0.447715 13.332 1 13.332H15C15.5523 13.332 16 12.8843 16 12.332C16 11.7797 15.5523 11.332 15 11.332H1Z" fill="#4563FF"/>
</svg>
