<svg width="251" height="159" viewBox="0 0 251 159" fill="none" xmlns="http://www.w3.org/2000/svg">
<rect width="251" height="159" rx="5" fill="#AEB5D1"/>
<g opacity="0.4">
<path d="M165.746 130.077C165.882 130.077 166.154 130.213 166.29 130.213L135.392 112.382C135.256 112.246 135.12 112.246 134.848 112.246C134.167 112.11 133.078 112.382 131.853 112.654L124.094 108.162C124.367 108.026 124.639 107.89 124.911 107.754C139.476 99.3148 139.339 85.567 124.775 77.1278C117.152 72.7721 107.08 70.5943 97.1434 70.8665C87.2069 70.7304 77.1343 72.7721 69.5118 77.1278C54.9473 85.567 55.0834 99.3148 69.6479 107.754C77.2704 112.11 87.343 114.288 97.2795 114.015C103.813 114.151 110.347 113.335 116.2 111.429L124.911 116.465C124.639 116.738 124.367 117.146 124.094 117.418C123.822 117.963 123.822 118.371 124.231 118.507L154.993 136.338C155.129 136.475 155.265 136.475 155.537 136.475C157.171 136.747 160.71 135.522 163.432 133.752C164.793 132.799 165.746 131.983 166.154 131.302C166.699 130.758 166.563 130.213 165.746 130.077ZM97.5517 113.743C88.568 113.607 79.5844 111.565 72.7785 107.618C58.4863 99.3148 58.3502 85.8393 72.6425 77.5362C79.4483 73.5888 88.2958 71.5471 97.2795 71.4109C106.263 71.5471 115.247 73.5888 122.053 77.5362C136.345 85.8393 136.481 99.3148 122.189 107.618C115.383 111.429 106.535 113.471 97.5517 113.743Z" fill="#7B7794"/>
<path d="M64.3394 83.6611L51 91.2837L119.875 131.03H127.361L64.3394 83.6611Z" fill="#ADA6A3"/>
</g>
<path d="M127.499 131.03L57.127 90.4671V83.7974L127.499 97.6812V131.03Z" fill="#D2CFCC"/>
<path d="M177.315 102.309L127.496 131.03V97.6814L177.315 95.6396V102.309Z" fill="#E9E6E6"/>
<path d="M177.316 95.6397L127.497 124.36L57.125 83.7976L106.944 54.9409L177.316 95.6397Z" fill="#F8F5F4"/>
<path d="M109.531 80.3954L108.578 80.5315L108.986 80.8037L99.7305 86.2484L100.275 86.5206L109.531 81.076L109.939 81.3482L110.211 80.8037L110.484 80.2593L109.531 80.3954Z" fill="#86B1FF"/>
<path d="M106.534 88.1545L106.806 87.61L107.351 87.8823L116.607 82.5737L117.015 82.8459L107.759 88.1545L108.303 88.4267L107.215 88.699L106.262 88.8351L106.534 88.1545Z" fill="#2D6AD8"/>
<path d="M94.0124 92.3736L94.2847 92.9181L94.8291 92.6458L102.179 96.8654L102.588 96.5932L95.2375 92.3736L95.782 92.1014L94.693 91.9652L93.7402 91.8291L94.0124 92.3736Z" fill="#2D6AD8"/>
<path d="M121.917 77.1286L120.964 76.9925L121.508 76.7202L114.158 72.3645L114.567 72.0923L121.917 76.448L122.461 76.1758L122.734 76.7202L123.006 77.2647L121.917 77.1286Z" fill="#86B1FF"/>
<path d="M101.228 86.657L85.1661 95.9129L77.6797 91.5572L93.7414 82.3013L101.228 86.657Z" fill="#86B1FF"/>
<path d="M128.316 71.1399L112.254 80.3958L104.768 76.0401L120.693 66.7842L128.316 71.1399Z" fill="#86B1FF"/>
<path d="M95.6471 83.5263L93.7414 82.3013L77.6797 91.5572L79.5853 92.7822L95.6471 83.5263Z" fill="#2D6AD8"/>
<path d="M122.735 67.8731L120.693 66.7842L104.768 76.0401L106.673 77.129L122.735 67.8731Z" fill="#2D6AD8"/>
<path d="M112.113 93.0544L96.0508 102.31L88.5645 97.9546L104.626 88.6987L112.113 93.0544Z" fill="#86B1FF"/>
<path d="M139.202 77.4016L123.14 86.6575L115.518 82.3018L131.579 73.0459L139.202 77.4016Z" fill="#86B1FF"/>
<path d="M106.532 89.7876L104.626 88.6987L88.5645 97.9546L90.4701 99.0436L106.532 89.7876Z" fill="#2D6AD8"/>
<path d="M133.621 74.1348L131.579 73.0459L115.518 82.3018L117.559 83.3907L133.621 74.1348Z" fill="#2D6AD8"/>
<path d="M109.389 109.659L109.117 109.795L107.211 108.706L107.483 108.57L109.389 109.659Z" fill="#7B9FE1"/>
<path d="M111.84 111.021L111.568 111.157L109.662 110.068L109.934 109.932L111.84 111.021Z" fill="#7B9FE1"/>
<path d="M114.152 112.381L113.88 112.518L111.975 111.429L112.247 111.292L114.152 112.381Z" fill="#7B9FE1"/>
<path d="M116.604 113.743L116.331 113.879L114.426 112.79L114.698 112.654L116.604 113.743Z" fill="#7B9FE1"/>
<path d="M118.916 115.104L118.644 115.24L116.738 114.151L117.01 114.015L118.916 115.104Z" fill="#7B9FE1"/>
<path d="M121.369 116.465L121.097 116.601L119.191 115.512L119.464 115.376L121.369 116.465Z" fill="#7B9FE1"/>
<path d="M127.63 98.7703L109.799 109.115L108.438 108.298L126.269 97.9536L127.63 98.7703Z" fill="#44BFE5"/>
<path d="M128.173 101.22L112.111 110.476L110.75 109.659L126.812 100.403L128.173 101.22Z" fill="#86B1FF"/>
<path d="M121.776 107.617L114.562 111.837L113.201 111.02L120.415 106.801L121.776 107.617Z" fill="#86B1FF"/>
<path d="M129.67 105.848L116.875 113.199L115.514 112.382L128.309 105.032L129.67 105.848Z" fill="#97CC66"/>
<path d="M131.168 107.618L119.326 114.56L117.965 113.879L129.943 106.938L131.168 107.618Z" fill="#F25A5A"/>
<path d="M131.169 110.476L121.64 115.921L120.279 115.24L129.807 109.66L131.169 110.476Z" fill="#86B1FF"/>
<path d="M122.865 106.257C123.137 106.393 123.137 106.665 122.865 106.801C122.592 106.937 122.32 106.937 122.048 106.801C121.776 106.665 121.776 106.393 122.048 106.257C122.184 106.121 122.592 106.121 122.865 106.257Z" fill="#86B1FF"/>
<path d="M130.759 104.488C131.031 104.624 131.031 104.896 130.759 105.032C130.487 105.168 130.215 105.168 129.942 105.032C129.67 104.896 129.67 104.624 129.942 104.488C130.079 104.352 130.487 104.352 130.759 104.488Z" fill="#97CC66"/>
<path d="M132.392 106.256C132.664 106.393 132.664 106.665 132.392 106.801C132.12 106.937 131.848 106.937 131.575 106.801C131.303 106.665 131.303 106.393 131.575 106.256C131.711 106.12 132.12 106.12 132.392 106.256Z" fill="#F25A5A"/>
<path d="M128.581 97.4092C128.854 97.5453 128.854 97.8176 128.581 97.9537C128.309 98.0898 128.037 98.0898 127.765 97.9537C127.492 97.8176 127.492 97.5453 127.765 97.4092C128.037 97.2731 128.445 97.2731 128.581 97.4092Z" fill="#44BFE5"/>
<path d="M132.257 109.115C132.529 109.251 132.529 109.524 132.257 109.66C131.985 109.796 131.713 109.796 131.441 109.66C131.168 109.524 131.168 109.251 131.441 109.115C131.577 108.979 131.985 108.979 132.257 109.115Z" fill="#86B1FF"/>
<path d="M129.126 99.8589C129.399 99.995 129.399 100.267 129.126 100.403C128.854 100.54 128.582 100.54 128.31 100.403C128.037 100.267 128.037 99.995 128.31 99.8589C128.582 99.7228 128.99 99.7228 129.126 99.8589Z" fill="#86B1FF"/>
<path d="M72.3649 87.2014L71.8204 87.4736L66.1035 84.2068L66.648 83.9346L72.3649 87.2014Z" fill="#7B9FE1"/>
<path d="M72.7741 86.9291L72.2296 87.2014L67.1934 84.2068L67.7378 83.9346L72.7741 86.9291Z" fill="#2D6AD8"/>
<path d="M74.1342 86.1112L73.7259 86.3834L68.2812 83.2527L68.8257 82.9805L74.1342 86.1112Z" fill="#7B9FE1"/>
<path d="M74.6787 85.8389L74.1342 86.1112L68.2812 82.7083L68.8257 82.436L74.6787 85.8389Z" fill="#2D6AD8"/>
<path d="M76.0417 85.0226L75.4972 85.2948L68.6914 81.3474L69.2359 81.0752L76.0417 85.0226Z" fill="#7B9FE1"/>
<path d="M76.4513 84.7507L76.0429 85.0229L72.5039 83.1173L73.0484 82.709L76.4513 84.7507Z" fill="#2D6AD8"/>
<path d="M77.8103 83.9336L77.402 84.2058L71.1406 80.6668L71.549 80.3945L77.8103 83.9336Z" fill="#7B9FE1"/>
<path d="M78.3532 83.6613L77.8087 83.9336L72.0918 80.6668L72.6363 80.3945L78.3532 83.6613Z" fill="#2D6AD8"/>
<path d="M83.3918 80.803L82.9834 81.0753L76.5859 77.4001L76.9943 77.1279L83.3918 80.803Z" fill="#7B9FE1"/>
<path d="M83.9352 80.5308L83.3907 80.803L79.4434 78.489L79.8517 78.2168L83.9352 80.5308Z" fill="#2D6AD8"/>
<path d="M85.2989 79.7138L84.7545 79.9861L79.582 76.9915L80.1265 76.7192L85.2989 79.7138Z" fill="#7B9FE1"/>
<path d="M85.7074 79.4418L85.163 79.714L80.9434 77.2639L81.4879 76.9917L85.7074 79.4418Z" fill="#2D6AD8"/>
<path d="M87.0687 78.6252L86.6604 78.8974L78.7656 74.4055L79.174 74.1333L87.0687 78.6252Z" fill="#7B9FE1"/>
<path d="M87.6133 78.3531L87.0689 78.6254L80.127 74.678L80.6714 74.4058L87.6133 78.3531Z" fill="#2D6AD8"/>
<path d="M88.9702 77.5361L88.4257 77.8084L81.3477 73.7249L81.756 73.4526L88.9702 77.5361Z" fill="#7B9FE1"/>
<path d="M89.3787 77.2641L88.9703 77.5363L82.709 73.9973L83.1173 73.7251L89.3787 77.2641Z" fill="#2D6AD8"/>
<path d="M90.7409 76.583L90.3326 76.719L85.1602 73.8606L85.5685 73.5884L90.7409 76.583Z" fill="#7B9FE1"/>
<path d="M91.2861 76.175L90.7417 76.5834L84.8887 73.1805L85.4331 72.9082L91.2861 76.175Z" fill="#2D6AD8"/>
<path d="M79.7145 82.9803L79.1701 83.2526L76.9922 81.8914L77.4006 81.6191L79.7145 82.9803Z" fill="#7B9FE1"/>
<path d="M80.1233 82.7085L79.7149 82.9807L75.7676 80.6668L76.312 80.3945L80.1233 82.7085Z" fill="#2D6AD8"/>
<path d="M81.4847 81.8924L81.0763 82.1646L78.8984 80.8035L79.3068 80.5312L81.4847 81.8924Z" fill="#7B9FE1"/>
<path d="M82.0294 81.6198L81.485 81.892L79.8516 80.9392L80.396 80.667L82.0294 81.6198Z" fill="#2D6AD8"/>
<path d="M92.1045 76.1755L71.5509 88.0177L71.1426 87.7454L91.6961 75.9033L92.1045 76.1755Z" fill="#7B9FE1"/>
<path d="M94.9668 74.1332L94.5584 74.4054L91.4277 72.4998L91.9722 72.2275L94.9668 74.1332Z" fill="#7B9FE1"/>
<path d="M95.5122 73.7249L94.9677 74.1333L92.5176 72.636L92.926 72.3638L95.5122 73.7249Z" fill="#2D6AD8"/>
<path d="M96.8736 73.0439L96.4653 73.3161L95.2402 72.6355L95.6486 72.3633L96.8736 73.0439Z" fill="#7B9FE1"/>
<path d="M97.4181 72.7716L96.8736 73.0439L95.2402 72.0911L95.6486 71.8188L97.4181 72.7716Z" fill="#2D6AD8"/>
<path d="M98.7749 71.9548L98.2304 72.2271L94.6914 70.1853L95.0998 69.9131L98.7749 71.9548Z" fill="#7B9FE1"/>
<path d="M99.1818 71.6827L98.6373 71.9549L97.0039 71.0021L97.4122 70.5938L99.1818 71.6827Z" fill="#2D6AD8"/>
<path d="M100.544 70.8666L100.135 71.1389L98.9102 70.4583L99.3185 70.186L100.544 70.8666Z" fill="#7B9FE1"/>
<path d="M101.086 70.5942L100.542 70.8664L98.5 69.6414L99.0445 69.3691L101.086 70.5942Z" fill="#2D6AD8"/>
<path d="M106.127 67.7356L105.582 67.8717L99.0488 64.1966L99.5933 63.9243L106.127 67.7356Z" fill="#7B9FE1"/>
<path d="M106.536 67.3272L106.128 67.7356L100.139 64.1966L100.683 63.9243L106.536 67.3272Z" fill="#2D6AD8"/>
<path d="M107.897 66.6458L107.489 66.918L99.1855 62.0179L99.5939 61.7456L107.897 66.6458Z" fill="#7B9FE1"/>
<path d="M108.441 66.3736L107.897 66.6458L100.002 62.0179L100.546 61.7456L108.441 66.3736Z" fill="#2D6AD8"/>
<path d="M109.801 65.5576L109.393 65.8298L103.268 62.2908L103.676 62.0186L109.801 65.5576Z" fill="#7B9FE1"/>
<path d="M110.345 65.2854L109.801 65.5577L104.492 62.427L104.901 62.1548L110.345 65.2854Z" fill="#2D6AD8"/>
<path d="M111.709 64.4679L111.164 64.7402L106.4 62.0179L106.945 61.7456L111.709 64.4679Z" fill="#7B9FE1"/>
<path d="M112.117 64.1959L111.709 64.4681L107.762 62.2903L108.306 62.0181L112.117 64.1959Z" fill="#2D6AD8"/>
<path d="M113.476 63.3802L113.068 63.6525L110.754 62.2913L111.162 62.019L113.476 63.3802Z" fill="#7B9FE1"/>
<path d="M114.022 63.1079L113.477 63.3801L111.436 62.1551L111.98 61.8828L114.022 63.1079Z" fill="#2D6AD8"/>
<path d="M102.449 69.776L101.905 70.0482L98.0938 67.8704L98.5021 67.5981L102.449 69.776Z" fill="#7B9FE1"/>
<path d="M102.859 69.5042L102.45 69.7764L97.8223 67.1902L98.3667 66.918L102.859 69.5042Z" fill="#2D6AD8"/>
<path d="M104.222 68.6876L103.813 68.9599L100.002 66.782L100.546 66.5098L104.222 68.6876Z" fill="#7B9FE1"/>
<path d="M104.767 68.4155L104.222 68.6877L101.092 66.9182L101.636 66.646L104.767 68.4155Z" fill="#2D6AD8"/>
<path d="M114.837 63.1072L94.2834 74.9493L93.875 74.6771L114.429 62.835L114.837 63.1072Z" fill="#7B9FE1"/>
<path d="M148.593 85.5669C142.059 85.1586 136.07 87.8809 135.253 91.6921C134.437 95.5034 139.201 98.9063 145.87 99.3147C152.404 99.723 158.393 97.0007 159.21 93.1894C160.026 89.5143 155.262 86.1114 148.593 85.5669ZM154.037 92.9172C153.629 95.0951 150.226 96.5924 146.551 96.3201C142.876 96.0479 140.153 94.1422 140.562 91.9644C140.97 89.7865 144.373 88.2892 148.048 88.5615C151.723 88.8337 154.446 90.8755 154.037 92.9172Z" fill="#2D6AD8"/>
<path d="M158.392 93.1893C159.072 89.6503 154.717 86.5196 148.591 86.1113C142.466 85.7029 136.885 88.2891 136.205 91.8281C135.524 95.3672 139.88 98.4979 146.005 98.9062C152.13 99.3146 157.711 96.7283 158.392 93.1893ZM138.519 91.9643C139.063 89.1058 143.419 87.0641 148.319 87.4724C153.219 87.7447 156.758 90.3309 156.214 93.1893C155.669 96.0477 151.314 98.0895 146.414 97.6812C141.377 97.2728 137.838 94.8227 138.519 91.9643Z" fill="#2D6AD8"/>
<path d="M147.774 87.4725C147.774 87.4725 149.271 87.6086 149.816 87.6086L150.496 86.3835C149.816 86.2474 148.046 86.1113 147.774 86.1113C146.277 86.1113 144.371 86.2474 143.01 86.6558L143.826 87.8808C145.052 87.4725 146.685 87.4725 147.774 87.4725Z" fill="#86B1FF"/>
<path d="M138.929 91.0115L139.065 90.8754C139.882 89.5142 141.651 88.4253 143.829 87.8808L143.012 86.6558C140.29 87.3363 138.112 88.5614 136.887 90.3309C136.887 90.3309 136.343 91.4198 136.479 91.692L138.657 91.8282C138.521 91.5559 138.657 91.2837 138.929 91.0115Z" fill="#F25A5A"/>
<path d="M156.078 91.9641L158.392 91.828C158.119 90.3307 157.03 88.9695 155.261 88.0167L154.853 87.7445C153.764 87.2 152.402 86.6555 150.905 86.3833L150.225 87.6083C151.45 87.8806 152.402 88.1528 153.355 88.6973L154.036 89.1056C153.9 89.1056 155.669 90.1946 156.078 91.9641Z" fill="#97CC66"/>
<path d="M149.273 98.9062L148.865 97.6811C148.048 97.8173 147.095 97.8173 146.278 97.6811C143.42 97.545 140.97 96.4561 139.609 95.0949L139.2 94.5505C138.656 93.7338 138.384 92.9171 138.52 91.9642L136.342 91.8281C136.206 93.0532 136.478 94.1421 137.295 95.0949L137.431 95.3672L137.839 95.6394C139.609 97.4089 142.603 98.6339 146.278 98.7701C147.095 99.0423 148.184 98.9062 149.273 98.9062Z" fill="#44BFE5"/>
<path d="M158.669 93.3263C159.349 89.6511 154.857 86.3843 148.596 85.976C142.335 85.5676 136.618 88.1538 135.937 91.829C135.257 95.5041 139.749 98.7709 146.01 99.1792C152.271 99.4515 157.988 96.8653 158.669 93.3263ZM136.21 91.829C136.89 88.2899 142.471 85.7038 148.596 86.1121C154.721 86.5205 159.077 89.6511 158.396 93.1901C157.716 96.7292 152.135 99.3154 146.01 98.907C139.885 98.4987 135.529 95.368 136.21 91.829Z" fill="#2D6AD8"/>
<path d="M156.219 93.0542C156.764 90.1958 153.225 87.7457 148.324 87.3374C143.424 87.0651 139.068 89.1068 138.524 91.8292C137.98 94.6876 141.519 97.1377 146.419 97.5461C151.183 97.9544 155.539 95.9127 156.219 93.0542ZM138.66 91.9653C139.205 89.243 143.424 87.2012 148.188 87.6096C152.952 87.8818 156.355 90.3319 155.811 93.1903C155.266 95.9127 151.047 97.9544 146.283 97.5461C141.655 97.1377 138.252 94.6876 138.66 91.9653Z" fill="#2D6AD8"/>
<path d="M158.395 93.1899C158.531 92.7815 158.531 92.3732 158.395 91.9648L156.217 92.101C156.217 92.3732 156.217 92.7815 156.217 93.0538C155.809 95.2316 152.951 97.0012 149.275 97.5456L149.684 98.7707C154.176 98.2262 157.851 95.9122 158.395 93.1899Z" fill="#86B1FF"/>
<path d="M91.018 81.6196L75.6369 90.4671L73.459 89.106L88.8401 80.3945L91.018 81.6196Z" fill="#2D6AD8"/>
<path d="M77.1341 89.6502L75.6369 90.4669L73.459 89.1058L74.9563 88.2891L77.1341 89.6502Z" fill="#F25A5A"/>
<path d="M104.903 73.5893L89.6583 82.4369L87.4805 81.0757L102.725 72.3643L104.903 73.5893Z" fill="#2D6AD8"/>
<path d="M91.0195 81.62L89.6583 82.4367L87.4805 81.0755L88.8416 80.2588L91.0195 81.62Z" fill="#97CC66"/>
<path d="M118.784 65.5584L103.539 74.2699L101.361 73.0448L116.606 64.1973L118.784 65.5584Z" fill="#2D6AD8"/>
<path d="M104.9 73.4531L103.539 74.2698L101.361 73.0447L102.722 72.228L104.9 73.4531Z" fill="#44BFE5"/>
<path d="M124.772 118.916C125.148 118.916 125.453 118.733 125.453 118.507C125.453 118.282 125.148 118.099 124.772 118.099C124.397 118.099 124.092 118.282 124.092 118.507C124.092 118.733 124.397 118.916 124.772 118.916Z" fill="#7B9FE1"/>
<path d="M127.63 119.596C127.902 119.732 127.902 120.005 127.63 120.141C127.357 120.277 126.949 120.277 126.677 120.141C126.405 120.005 126.405 119.732 126.677 119.596C126.949 119.46 127.357 119.46 127.63 119.596Z" fill="#7B9FE1"/>
<path d="M148.456 105.304C148.832 105.304 149.137 105.121 149.137 104.896C149.137 104.67 148.832 104.487 148.456 104.487C148.08 104.487 147.775 104.67 147.775 104.896C147.775 105.121 148.08 105.304 148.456 105.304Z" fill="#7B9FE1"/>
<path d="M151.317 105.984C151.589 106.121 151.589 106.393 151.317 106.529C151.045 106.665 150.637 106.665 150.364 106.529C150.092 106.393 150.092 106.121 150.364 105.984C150.637 105.848 151.045 105.848 151.317 105.984Z" fill="#7B9FE1"/>
<path d="M137.976 111.429L139.337 110.613L139.201 110.476L137.84 111.293L137.976 111.429ZM131.715 115.104L134.846 113.199L134.709 113.063L131.579 114.968L131.715 115.104ZM135.118 113.199L137.84 111.701L137.704 111.565L134.982 113.063L135.118 113.199ZM131.443 115.24L131.307 115.104L126.815 117.691L126.951 117.827L131.443 115.24ZM139.746 110.476L141.788 109.251L141.651 109.115L139.61 110.34L139.746 110.476ZM126.134 117.418L127.631 116.602L127.495 116.466L125.998 117.282L126.134 117.418ZM139.201 109.66L139.337 109.796L141.107 108.707L140.971 108.571L139.201 109.66ZM135.935 111.838L139.201 109.932L139.065 109.796L135.798 111.701L135.935 111.838ZM134.301 112.79L135.662 111.974L135.526 111.838L134.165 112.654L134.301 112.79ZM132.259 113.879L134.029 112.79L133.893 112.654L132.123 113.743L132.259 113.879ZM127.904 116.466L131.987 114.152L131.851 114.015L127.768 116.329L127.904 116.466Z" fill="#7B9FE1"/>
<path d="M136.478 113.879L136.614 114.015L139.336 112.518L139.064 112.382L136.478 113.879ZM136.341 114.151L136.205 114.015L133.075 115.921L133.211 116.057L136.341 114.151ZM137.022 114.424L137.158 114.56L138.928 113.471L138.791 113.335L137.022 114.424ZM138.928 113.335L139.064 113.471L140.425 112.654L140.289 112.518L138.928 113.335ZM143.828 110.476L140.561 112.382L140.697 112.518L143.964 110.612L143.828 110.476ZM132.53 117.282L132.394 117.146L128.991 119.188L129.127 119.324L132.53 117.282ZM142.331 110.476L139.336 112.11L139.472 112.246L142.467 110.612L142.331 110.476ZM132.938 116.193L132.802 116.057L128.311 118.643L128.447 118.779L132.938 116.193ZM142.603 110.34L142.739 110.476L144.508 109.523L144.372 109.387L142.603 110.34ZM136.886 114.696L136.75 114.56L132.666 116.874L132.802 117.01L136.886 114.696Z" fill="#7B9FE1"/>
<path d="M155.262 101.356L158.393 99.4508L158.257 99.3147L155.126 101.22L155.262 101.356ZM158.801 99.4508L161.524 97.9535L161.388 97.8174L158.665 99.3147L158.801 99.4508ZM154.99 101.629L154.854 101.493L150.362 104.079L150.498 104.215L154.99 101.629ZM149.818 103.807L151.315 102.99L151.179 102.854L149.682 103.67L149.818 103.807ZM162.885 96.0479L163.021 96.184L164.791 95.0951L164.654 94.959L162.885 96.0479ZM159.618 98.0896L162.885 96.184L162.749 96.0479L159.482 97.9535L159.618 98.0896ZM157.849 99.0425L159.21 98.2258L159.074 98.0896L157.713 98.9063L157.849 99.0425ZM155.943 100.268L157.713 99.1786L157.576 99.0425L155.807 100.131L155.943 100.268ZM151.587 102.718L155.671 100.404L155.535 100.268L151.451 102.581L151.587 102.718Z" fill="#7B9FE1"/>
<path d="M162.068 99.1784L162.341 99.3145L164.927 97.8172L164.791 97.6812L162.068 99.1784Z" fill="#7B9FE1"/>
<path d="M159.617 101.492H159.889L161.659 100.539L161.387 100.403L159.617 101.492Z" fill="#7B9FE1"/>
<path d="M161.933 99.3149L158.666 101.221H158.802L162.069 99.4511L161.933 99.3149Z" fill="#7B9FE1"/>
<path d="M164.382 98.6343L161.66 100.268L161.932 100.404L164.655 98.7704L164.382 98.6343Z" fill="#7B9FE1"/>
<path d="M158.666 101.356H158.394L151.996 105.032L152.132 105.168L158.666 101.356Z" fill="#7B9FE1"/>
<path d="M165.062 97.5447H165.199L166.696 96.728H166.424L165.062 97.5447Z" fill="#7B9FE1"/>
<path d="M155.263 104.215L155.126 104.079L152.812 105.44L152.949 105.576L155.263 104.215Z" fill="#7B9FE1"/>
<path d="M159.345 101.628L155.262 103.942L155.534 104.078L159.617 101.765L159.345 101.628Z" fill="#7B9FE1"/>
<path d="M166.697 96.5926H166.833L168.058 95.912L167.922 95.7759L166.697 96.5926Z" fill="#7B9FE1"/>
<path d="M118.783 100.131L118.511 99.9952L124.5 96.5923L124.773 96.7284L118.783 100.131ZM117.286 101.084L117.014 100.948L118.103 100.267L118.375 100.404L117.286 101.084ZM110.208 105.032L109.936 104.895L116.469 101.22L116.742 101.356L110.208 105.032ZM105.58 107.754L105.308 107.618L109.528 105.168L109.8 105.304L105.58 107.754ZM119.872 97.5452L125.861 94.1422L126.134 94.2784L120.145 97.6813L119.872 97.5452ZM126.27 93.7339L128.856 92.2366L129.128 92.3727L126.542 93.87L126.27 93.7339ZM118.511 98.4979L118.239 98.3619L119.328 97.6813L119.6 97.8174L118.511 98.4979ZM111.569 102.581L111.297 102.445L117.831 98.7702L118.103 98.9063L111.569 102.581ZM104.083 106.937L103.811 106.801L110.753 102.718L111.025 102.854L104.083 106.937ZM142.195 83.2529L141.923 83.1168L145.462 81.0751L145.734 81.2112L142.195 83.2529ZM137.431 85.9753L137.159 85.8391L141.515 83.3891L141.787 83.5252L137.431 85.9753ZM134.573 87.6086L134.301 87.4726L136.751 86.1114L137.023 86.2475L134.573 87.6086ZM129.809 90.331L129.537 90.1949L133.756 87.7448L134.028 87.8809L129.809 90.331ZM125.453 92.9172L125.181 92.7811L128.992 90.6032L129.264 90.7393L125.453 92.9172ZM120.417 95.9117L120.145 95.7756L124.773 93.0533L125.045 93.1894L120.417 95.9117ZM115.381 98.7702L115.108 98.6341L119.736 96.0479L120.008 96.184L115.381 98.7702ZM108.983 102.445L108.711 102.309L114.564 98.9063L114.836 99.0424L108.983 102.445ZM102.722 106.12L102.449 105.984L108.166 102.581L108.439 102.718L102.722 106.12ZM134.709 85.9753L134.437 85.8391L144.101 80.2584L144.373 80.3945L134.709 85.9753ZM129.945 88.6976L129.673 88.5615L134.028 86.1114L134.301 86.2475L129.945 88.6976ZM124.773 91.6921L124.5 91.556L129.128 88.8337L129.4 88.9698L124.773 91.6921ZM122.322 93.0533L122.05 92.9172L124.092 91.6921L124.364 91.8283L122.322 93.0533ZM119.328 94.8228L119.056 94.6867L121.642 93.1894L121.914 93.3255L119.328 94.8228ZM112.794 98.4979L112.522 98.3619L118.511 94.959L118.783 95.095L112.794 98.4979ZM111.297 99.4508L111.025 99.3146L112.114 98.6341L112.386 98.7702L111.297 99.4508ZM104.355 103.534L104.083 103.398L110.616 99.723L110.889 99.8591L104.355 103.534ZM101.224 105.168L100.952 105.032L103.538 103.534L103.811 103.67L101.224 105.168ZM141.651 80.2584L141.379 80.1222L142.604 79.4417L142.876 79.5778L141.651 80.2584ZM139.337 81.6195L139.065 81.4834L140.97 80.3945L141.243 80.5306L139.337 81.6195ZM134.573 84.3419L134.301 84.2057L138.656 81.7557L138.929 81.8918L134.573 84.3419ZM129.4 87.3364L129.128 87.2003L133.756 84.478L134.028 84.6141L129.4 87.3364ZM126.95 88.6976L126.678 88.5615L128.72 87.3364L128.992 87.4726L126.95 88.6976ZM122.595 91.2838L122.322 91.1477L126.134 88.9698L126.406 89.1059L122.595 91.2838ZM117.422 94.1422L117.15 94.0061L121.778 91.2838L122.05 91.4199L117.422 94.1422ZM112.386 97.1368L112.114 97.0007L116.742 94.4145L117.014 94.5506L112.386 97.1368ZM105.989 100.812L105.716 100.676L111.569 97.2729L111.842 97.409L105.989 100.812ZM99.8633 104.351L99.591 104.215L105.308 100.948L105.58 101.084L99.8633 104.351ZM133.348 83.3891L133.076 83.2529L141.107 78.625L141.379 78.7611L133.348 83.3891ZM128.584 86.1114L128.312 85.9753L132.667 83.5252L132.94 83.6613L128.584 86.1114ZM123.548 89.1059L123.275 88.9698L127.903 86.2475L128.175 86.3836L123.548 89.1059ZM120.961 90.4671L120.689 90.331L122.731 89.1059L123.003 89.2421L120.961 90.4671ZM117.967 92.2366L117.694 92.1005L120.281 90.6032L120.553 90.7393L117.967 92.2366ZM111.569 95.9117L111.297 95.7756L117.286 92.3727L117.558 92.5088L111.569 95.9117ZM109.936 96.8646L109.664 96.7284L110.753 96.0479L111.025 96.184L109.936 96.8646ZM102.994 100.948L102.722 100.812L109.255 97.1368L109.528 97.2729L102.994 100.948ZM98.366 103.534L98.0938 103.398L102.313 100.948L102.586 101.084L98.366 103.534Z" fill="#7B9FE1"/>
<path d="M106.399 71.0027L104.221 72.2278L103.949 72.0916L106.263 70.7305L106.399 71.0027Z" fill="#E1E9F4"/>
<path d="M107.762 70.1859L106.809 70.7304L106.537 70.5943L107.49 70.0498L107.762 70.1859Z" fill="#E1E9F4"/>
<path d="M106.398 72.0912L105.173 72.9079L104.9 72.7718L106.262 71.9551L106.398 72.0912Z" fill="#E1E9F4"/>
<path d="M109.668 70.3217L106.809 71.955L106.537 71.819L109.396 70.1855L109.668 70.3217Z" fill="#E1E9F4"/>
<path d="M111.572 69.2328L110.075 70.0495L109.803 69.9133L111.3 69.0967L111.572 69.2328Z" fill="#E1E9F4"/>
<path d="M92.6487 78.8978L90.3347 80.259L90.0625 80.1229L92.3765 78.7617L92.6487 78.8978Z" fill="#E1E9F4"/>
<path d="M94.0102 78.0819L93.0574 78.6264L92.7852 78.4903L93.738 77.9458L94.0102 78.0819Z" fill="#E1E9F4"/>
<path d="M92.6496 80.1239L91.4246 80.8045L91.1523 80.6684L92.3774 79.9878L92.6496 80.1239Z" fill="#E1E9F4"/>
<path d="M95.9158 78.2177L93.0574 79.8511L92.7852 79.715L95.6436 78.0815L95.9158 78.2177Z" fill="#E1E9F4"/>
<path d="M97.8223 77.1288L96.1889 78.0816L96.0527 77.9455L97.55 76.9927L97.8223 77.1288Z" fill="#E1E9F4"/>
<path d="M78.9026 86.9286L76.5887 88.1536L76.3164 88.0175L78.6304 86.7925L78.9026 86.9286Z" fill="#E1E9F4"/>
<path d="M80.2641 86.1127L79.3113 86.6571L79.0391 86.521L79.9919 85.9766L80.2641 86.1127Z" fill="#E1E9F4"/>
<path d="M78.9035 88.018L77.6785 88.8347L77.4062 88.6985L78.6313 87.8818L78.9035 88.018Z" fill="#E1E9F4"/>
<path d="M82.0336 86.2484L79.3113 87.8818L79.0391 87.7457L81.7614 86.1123L82.0336 86.2484Z" fill="#E1E9F4"/>
<path d="M84.0755 85.1596L82.4421 85.9763L82.1699 85.8401L83.8033 85.0234L84.0755 85.1596Z" fill="#E1E9F4"/>
<path d="M122.865 70.4586L123.682 69.9141L123.409 69.778L122.593 70.3225L122.865 70.4586ZM115.651 74.6782L119.326 72.6364L119.054 72.5003L115.379 74.5421L115.651 74.6782ZM119.598 72.3642L122.593 70.5947L122.32 70.4586L119.326 72.2281L119.598 72.3642ZM115.379 74.8143L115.106 74.6782L109.934 77.6727L110.206 77.8089L115.379 74.8143ZM109.389 77.2644L111.023 76.3116L110.751 76.1754L109.117 77.1283L109.389 77.2644ZM120.551 70.8669L122.865 69.5058L122.593 69.3696L120.279 70.7308L120.551 70.8669ZM118.645 71.9558L120.279 71.003L120.006 70.8669L118.373 71.8197L118.645 71.9558ZM116.331 73.317L118.373 72.092L118.101 71.9558L116.059 73.1809L116.331 73.317ZM111.431 76.0393L116.059 73.317L115.787 73.1809L111.159 75.9032L111.431 76.0393Z" fill="#E1E9F4"/>
<path d="M124.362 70.3228L124.634 70.4589L122.728 71.5478L122.456 71.4117L124.362 70.3228ZM119.598 73.9979L119.87 74.134L121.912 72.909L121.639 72.7728L119.598 73.9979ZM122.048 71.6839L118.372 73.7257L118.645 73.8618L122.32 71.82L122.048 71.6839ZM123.681 71.6839L121.775 72.7728L122.048 72.909L123.953 71.82L123.681 71.6839ZM118.372 73.9979L118.1 73.8618L110.75 78.0814L111.022 78.2175L118.372 73.9979ZM114.561 77.1286L114.289 76.9924L111.703 78.4897L111.975 78.6259L114.561 77.1286ZM119.189 74.2701L114.561 76.9924L114.833 77.1286L119.461 74.4062L119.189 74.2701Z" fill="#E1E9F4"/>
<path d="M99.8656 96.5925L105.719 93.1896L105.446 93.0535L99.5934 96.4564L99.8656 96.5925ZM99.5934 96.7286L99.3211 96.5925L94.1487 99.5871L94.421 99.7232L99.5934 96.7286ZM93.6043 99.1787L95.2377 98.2259L94.9654 98.0898L93.332 99.0426L93.6043 99.1787ZM102.86 93.8702L104.494 92.9174L104.221 92.7812L102.588 93.734L102.86 93.8702ZM100.546 95.2313L102.588 94.0063L102.316 93.8702L100.274 95.0952L100.546 95.2313ZM95.646 98.0898L100.274 95.3675L100.002 95.2313L95.3738 97.9537L95.646 98.0898Z" fill="#E1E9F4"/>
<path d="M102.179 96.865L102.451 97.0011L104.901 95.64L104.629 95.5038L102.179 96.865ZM104.901 94.2788L102.587 95.64L102.86 95.7761L105.174 94.4149L104.901 94.2788ZM102.587 95.9122L102.315 95.7761L94.9648 99.9957L95.2371 100.132L102.587 95.9122ZM98.7761 99.0429L98.5039 98.9068L95.9176 100.404L96.1899 100.54L98.7761 99.0429ZM101.907 97.0011L98.7761 98.7706L99.0483 98.9068L102.179 97.1372L101.907 97.0011Z" fill="#E1E9F4"/>
<path d="M129.811 78.0801L130.083 78.2162L132.941 76.5828L132.669 76.4467L129.811 78.0801ZM129.675 78.3523L129.402 78.2162L125.591 80.3941L125.863 80.5302L129.675 78.3523ZM127.769 80.1218L128.041 80.2579L130.083 79.0329L129.811 78.8968L127.769 80.1218ZM130.083 78.8968L130.355 79.0329L134.439 76.7189L134.166 76.5828L130.083 78.8968ZM125.183 81.8913L124.911 81.7552L120.963 84.0692L121.235 84.2053L125.183 81.8913ZM133.622 75.7661L132.805 76.1744L133.078 76.3106L133.894 75.9022L133.622 75.7661ZM125.591 80.6663L125.319 80.5302L120.146 83.5247L120.419 83.6608L125.591 80.6663ZM127.633 80.5302L127.361 80.3941L125.183 81.6191L125.455 81.7552L127.633 80.5302Z" fill="#E1E9F4"/>
<path d="M128.313 82.0278L131.988 79.9861L131.716 79.8499L128.041 81.8917L128.313 82.0278ZM132.26 79.7138L134.983 78.0804L134.71 77.9443L131.988 79.5777L132.26 79.7138ZM128.041 82.1639L127.768 82.0278L122.596 85.0223L122.868 85.1585L128.041 82.1639ZM122.052 84.614L123.685 83.6612L123.413 83.5251L121.779 84.4779L122.052 84.614ZM133.213 78.2165L135.527 76.8554L135.255 76.7192L132.941 78.0804L133.213 78.2165ZM131.307 79.3055L132.941 78.3527L132.669 78.2165L131.035 79.1694L131.307 79.3055ZM128.993 80.6666L131.035 79.4416L130.763 79.3055L128.721 80.5305L128.993 80.6666ZM124.093 83.5251L128.721 80.8027L128.449 80.6666L123.821 83.389L124.093 83.5251Z" fill="#E1E9F4"/>
<path d="M91.6975 87.2013L91.9697 87.3374L94.8281 85.704L94.5559 85.5679L91.6975 87.2013ZM91.5613 87.4736L91.2891 87.3374L87.4779 89.5153L87.7501 89.6514L91.5613 87.4736ZM89.6557 89.3792L89.9279 89.5153L91.9697 88.2902L91.6975 88.1541L89.6557 89.3792ZM91.9697 88.018L92.2419 88.1541L96.3254 85.8401L96.0532 85.704L91.9697 88.018ZM87.0695 91.1487L86.7973 91.0125L82.8499 93.3265L83.1221 93.4627L87.0695 91.1487ZM95.6448 85.0234L94.8281 85.4318L95.1004 85.5679L95.917 85.1596L95.6448 85.0234ZM87.4779 89.9236L87.2056 89.7875L82.0332 92.7821L82.3054 92.9182L87.4779 89.9236ZM89.5196 89.6514L89.2473 89.5153L87.0695 90.7403L87.3417 90.8765L89.5196 89.6514Z" fill="#E1E9F4"/>
<path d="M90.2002 91.1489L93.8753 89.1071L93.6031 88.971L89.928 91.0127L90.2002 91.1489ZM94.1476 88.971L96.8699 87.3376L96.5977 87.2015L93.8753 88.8349L94.1476 88.971ZM89.928 91.285L89.6558 91.1489L84.4833 94.1434L84.7556 94.2796L89.928 91.285ZM84.075 93.7351L85.7084 92.7823L85.4361 92.6461L83.8027 93.599L84.075 93.7351ZM95.1004 87.3376L97.4144 85.9765L97.1422 85.8403L94.8282 87.2015L95.1004 87.3376ZM93.1947 88.4265L94.8282 87.4737L94.5559 87.3376L92.9225 88.2904L93.1947 88.4265ZM90.8808 89.7877L92.9225 88.5627L92.6503 88.4265L90.6085 89.6516L90.8808 89.7877ZM85.9806 92.6461L90.6085 89.9238L90.3363 89.7877L85.7084 92.51L85.9806 92.6461Z" fill="#E1E9F4"/>
<path opacity="0.4" d="M138.251 107.073L147.915 112.654V119.324L137.026 125.585V118.916L127.362 113.335C126.954 113.063 126.954 112.654 127.226 112.246C127.362 111.974 127.634 111.701 128.043 111.293L119.331 106.257C113.478 108.026 107.081 108.979 100.547 108.843L99.8665 108.435C100.003 108.435 100.275 108.435 100.411 108.435C109.395 108.299 118.242 106.257 125.048 102.309C139.34 94.0063 139.204 80.5308 124.912 72.2277C118.106 68.2803 109.122 66.2386 100.139 66.1025C94.1496 66.2386 88.2965 67.1914 82.988 68.9609L86.3909 67.0553C90.7466 66.1025 95.5107 65.6941 100.139 65.8302C110.075 65.6941 120.148 67.7358 127.77 72.0916C142.335 80.5308 142.471 94.2785 127.906 102.718C127.634 102.854 127.362 102.99 127.09 103.126L134.848 107.618C136.073 107.21 137.162 107.073 137.843 107.21C137.979 106.937 138.115 107.073 138.251 107.073ZM63.9317 79.8502C62.5706 82.0281 61.89 84.2059 61.7539 86.3838L64.8846 88.1533C64.4762 84.0698 66.1096 80.1224 69.7848 76.4473L63.9317 79.8502Z" fill="#ADA6A3"/>
<path d="M151.863 62.5636V68.4166C151.863 62.8358 148.187 57.255 140.837 53.0354C126.273 44.5962 102.589 44.5962 88.0241 53.0354C80.8099 57.255 77.2709 62.6997 77.1348 68.2805V62.4274C77.1348 56.9828 80.8099 51.402 88.0241 47.1824C102.589 38.7432 126.273 38.7432 140.837 47.1824C148.187 51.402 151.863 56.9828 151.863 62.5636Z" fill="url(#paint0_linear_14822_160826)"/>
<path d="M179.495 65.5582L117.835 101.085L55.7656 65.286L117.426 29.6235L179.495 65.5582Z" fill="#F8F5F4"/>
<path d="M148.596 54.9407L146.826 55.2129L147.779 55.7574L131.445 65.1494L132.262 65.6939L148.596 56.1657L149.413 56.7102L149.821 55.6212L150.365 54.6685L148.596 54.9407Z" fill="#86B1FF"/>
<path d="M143.285 68.6884L143.83 67.7356L144.646 68.2801L160.98 58.752L161.933 59.2964L145.463 68.6884L146.28 69.2329L144.646 69.5051L142.877 69.7774L143.285 68.6884Z" fill="#2D6AD8"/>
<path d="M121.236 76.0382L121.781 77.1272L122.598 76.5827L135.665 84.0691L136.481 83.6608L123.414 76.0382L124.231 75.6299L122.461 75.3577L120.828 75.0854L121.236 76.0382Z" fill="#2D6AD8"/>
<path d="M170.511 49.0874L168.878 48.8152L169.695 48.2707L156.764 40.7843L157.58 40.376L170.511 47.8624L171.328 47.3179L171.873 48.4068L172.281 49.3597L170.511 49.0874Z" fill="#86B1FF"/>
<path d="M134.027 66.1034L105.714 82.4373L92.375 74.6787L120.687 58.3447L134.027 66.1034Z" fill="#86B1FF"/>
<path d="M181.668 38.6077L153.356 54.9417L140.152 47.1831L168.328 30.8491L181.668 38.6077Z" fill="#86B1FF"/>
<path d="M124.09 60.3865L120.687 58.3447L92.375 74.6787L95.7779 76.7204L124.09 60.3865Z" fill="#2D6AD8"/>
<path d="M171.867 32.8909L168.328 30.8491L140.152 47.1831L143.555 49.2248L171.867 32.8909Z" fill="#2D6AD8"/>
<path d="M153.218 77.1284L124.906 93.5985L111.566 85.8398L139.879 69.5059L153.218 77.1284Z" fill="#86B1FF"/>
<path d="M200.995 49.6328L172.683 65.9667L159.344 58.3442L187.656 42.0103L200.995 49.6328Z" fill="#86B1FF"/>
<path d="M143.418 71.5476L139.879 69.5059L111.566 85.8398L115.105 87.8816L143.418 71.5476Z" fill="#2D6AD8"/>
<path d="M191.059 43.9159L187.656 42.0103L159.344 58.3442L162.747 60.2499L191.059 43.9159Z" fill="#2D6AD8"/>
<path d="M82.8528 66.9186L82.0361 67.3269L72.0996 61.61L72.9163 61.2017L82.8528 66.9186Z" fill="#7B9FE1"/>
<path d="M83.8056 66.3741L82.8528 66.9186L73.8691 61.7461L74.8219 61.2017L83.8056 66.3741Z" fill="#2D6AD8"/>
<path d="M86.1169 65.0135L85.3002 65.558L75.9082 59.9772L76.7249 59.5688L86.1169 65.0135Z" fill="#7B9FE1"/>
<path d="M87.0691 64.6048L86.1163 65.0132L75.7715 59.1602L76.7243 58.6157L87.0691 64.6048Z" fill="#2D6AD8"/>
<path d="M89.3867 63.1071L88.57 63.6516L76.5918 56.7096L77.4085 56.3013L89.3867 63.1071Z" fill="#7B9FE1"/>
<path d="M90.3398 62.6987L89.387 63.107L83.2617 59.568L84.2145 59.1597L90.3398 62.6987Z" fill="#2D6AD8"/>
<path d="M92.6526 61.2018L91.8359 61.7462L80.8105 55.3488L81.6272 54.9404L92.6526 61.2018Z" fill="#7B9FE1"/>
<path d="M93.4694 60.7935L92.6527 61.3379L82.5801 55.4849L83.3968 54.9404L93.4694 60.7935Z" fill="#2D6AD8"/>
<path d="M102.451 55.6205L101.634 56.0289L90.4727 49.6314L91.2894 49.0869L102.451 55.6205Z" fill="#7B9FE1"/>
<path d="M103.266 55.0762L102.449 55.6206L95.3711 51.5371L96.3239 50.9927L103.266 55.0762Z" fill="#2D6AD8"/>
<path d="M105.72 53.7154L104.903 54.2598L95.7832 48.9513L96.5999 48.543L105.72 53.7154Z" fill="#7B9FE1"/>
<path d="M106.535 53.1712L105.718 53.7156L98.0957 49.3599L99.0485 48.8154L106.535 53.1712Z" fill="#2D6AD8"/>
<path d="M108.985 51.8097L108.168 52.3541L94.1484 44.1871L94.9651 43.7788L108.985 51.8097Z" fill="#7B9FE1"/>
<path d="M109.803 51.4013L108.987 51.8096L96.7363 44.7316L97.553 44.3232L109.803 51.4013Z" fill="#2D6AD8"/>
<path d="M112.253 49.9041L111.436 50.4486L98.7773 43.0983L99.594 42.6899L112.253 49.9041Z" fill="#7B9FE1"/>
<path d="M113.071 49.4956L112.254 49.904L101.229 43.6426L102.045 43.0981L113.071 49.4956Z" fill="#2D6AD8"/>
<path d="M115.522 48.1342L114.706 48.5426L105.586 43.2341L106.403 42.8257L115.522 48.1342Z" fill="#7B9FE1"/>
<path d="M116.337 47.5902L115.521 48.1346L105.176 42.1455L105.992 41.6011L116.337 47.5902Z" fill="#2D6AD8"/>
<path d="M95.9203 59.4322L95.1037 59.8405L91.1562 57.5265L91.973 57.1182L95.9203 59.4322Z" fill="#7B9FE1"/>
<path d="M96.7371 58.8878L95.9204 59.4323L88.9785 55.3488L89.9313 54.9404L96.7371 58.8878Z" fill="#2D6AD8"/>
<path d="M99.1859 57.5264L98.3692 57.9347L94.4219 55.7569L95.2385 55.2124L99.1859 57.5264Z" fill="#7B9FE1"/>
<path d="M100.003 56.9815L99.1866 57.526L96.3281 55.8926L97.1448 55.3481L100.003 56.9815Z" fill="#2D6AD8"/>
<path d="M117.971 47.4537L81.6278 68.4157L80.9473 68.0073L117.29 47.0454L117.971 47.4537Z" fill="#7B9FE1"/>
<path d="M123.005 43.7791L122.189 44.1875L116.744 41.0568L117.561 40.6484L123.005 43.7791Z" fill="#7B9FE1"/>
<path d="M123.822 43.2347L123.006 43.7791L118.514 41.1929L119.467 40.6484L123.822 43.2347Z" fill="#2D6AD8"/>
<path d="M126.274 41.873L125.458 42.4175L123.416 41.1924L124.233 40.6479L126.274 41.873Z" fill="#7B9FE1"/>
<path d="M127.091 41.3282L126.274 41.8727L123.416 40.2393L124.233 39.6948L127.091 41.3282Z" fill="#2D6AD8"/>
<path d="M129.538 39.9676L128.722 40.5121L122.324 36.8369L123.141 36.2925L129.538 39.9676Z" fill="#7B9FE1"/>
<path d="M130.356 39.5594L129.539 39.9678L126.408 38.1983L127.361 37.6538L130.356 39.5594Z" fill="#2D6AD8"/>
<path d="M132.809 38.0615L131.992 38.6059L129.814 37.3809L130.631 36.8364L132.809 38.0615Z" fill="#7B9FE1"/>
<path d="M133.625 37.653L132.808 38.0613L129.133 36.0196L130.086 35.4751L133.625 37.653Z" fill="#2D6AD8"/>
<path d="M142.609 32.4807L141.793 32.8891L130.223 26.2194L131.039 25.811L142.609 32.4807Z" fill="#7B9FE1"/>
<path d="M143.426 31.9364L142.609 32.4809L131.992 26.3556L132.945 25.9473L143.426 31.9364Z" fill="#2D6AD8"/>
<path d="M145.873 30.5758L145.056 30.9842L130.355 22.5449L131.036 22.0005L145.873 30.5758Z" fill="#7B9FE1"/>
<path d="M146.69 30.0313L145.873 30.5758L131.717 22.4088L132.67 22.0005L146.69 30.0313Z" fill="#2D6AD8"/>
<path d="M149.14 28.6696L148.323 29.214L137.434 22.9527L138.25 22.4082L149.14 28.6696Z" fill="#7B9FE1"/>
<path d="M149.956 28.1258L149.139 28.6703L139.611 23.2256L140.564 22.6812L149.956 28.1258Z" fill="#2D6AD8"/>
<path d="M152.408 26.7641L151.592 27.3085L143.152 22.4083L143.969 22L152.408 26.7641Z" fill="#7B9FE1"/>
<path d="M153.226 26.3551L152.409 26.7635L145.604 22.9522L146.42 22.4077L153.226 26.3551Z" fill="#2D6AD8"/>
<path d="M155.675 24.8594L154.858 25.4039L150.639 22.9538L151.455 22.5454L155.675 24.8594Z" fill="#7B9FE1"/>
<path d="M156.492 24.4508L155.675 24.9953L152 22.8174L152.817 22.2729L156.492 24.4508Z" fill="#2D6AD8"/>
<path d="M136.073 36.2925L135.256 36.7008L128.314 32.7534L129.131 32.209L136.073 36.2925Z" fill="#7B9FE1"/>
<path d="M136.891 35.7481L136.074 36.2925L128.043 31.6646L128.86 31.1201L136.891 35.7481Z" fill="#2D6AD8"/>
<path d="M139.34 34.3868L138.523 34.7952L131.854 30.9839L132.67 30.4395L139.34 34.3868Z" fill="#7B9FE1"/>
<path d="M140.157 33.8425L139.341 34.387L133.76 31.1202L134.576 30.5757L140.157 33.8425Z" fill="#2D6AD8"/>
<path d="M158.125 24.3141L121.782 45.276L120.965 44.8677L157.308 23.9058L158.125 24.3141Z" fill="#7B9FE1"/>
<path d="M115.79 56.9815L88.8386 72.6349L85.0273 70.4571L111.978 54.8037L115.79 56.9815Z" fill="#2D6AD8"/>
<path d="M91.4248 71.1378L88.8386 72.6351L85.0273 70.4572L87.4775 68.96L91.4248 71.1378Z" fill="#F25A5A"/>
<path d="M140.426 42.8258L113.475 58.4792L109.664 56.1652L136.615 40.6479L140.426 42.8258Z" fill="#2D6AD8"/>
<path d="M115.925 56.9815L113.475 58.4788L109.664 56.1649L112.114 54.8037L115.925 56.9815Z" fill="#97CC66"/>
<path d="M164.926 28.6696L137.975 44.1868L134.164 42.0089L161.115 26.4917L164.926 28.6696Z" fill="#2D6AD8"/>
<path d="M140.562 42.8252L137.975 44.1863L134.164 42.0085L136.75 40.5112L140.562 42.8252Z" fill="#44BFE5"/>
<path d="M143.152 38.1985L139.205 40.5125L138.66 40.3764L142.744 37.9263L143.152 38.1985Z" fill="#E1E9F4"/>
<path d="M145.602 36.8372L143.832 37.79L143.424 37.6539L145.057 36.5649L145.602 36.8372Z" fill="#E1E9F4"/>
<path d="M143.153 40.3758L140.975 41.6008L140.566 41.3286L142.744 40.1035L143.153 40.3758Z" fill="#E1E9F4"/>
<path d="M148.868 37.1092L143.832 39.9676L143.424 39.6954L148.46 36.8369L148.868 37.1092Z" fill="#E1E9F4"/>
<path d="M152.269 35.0673L149.547 36.7006L149.139 36.4284L151.861 34.9312L152.269 35.0673Z" fill="#E1E9F4"/>
<path d="M118.787 52.3538L114.839 54.6677L114.295 54.3955L118.378 52.0815L118.787 52.3538Z" fill="#E1E9F4"/>
<path d="M121.236 50.9924L119.467 51.9453L119.059 51.673L120.828 50.7202L121.236 50.9924Z" fill="#E1E9F4"/>
<path d="M118.787 54.3957L116.61 55.7569L116.201 55.4847L118.379 54.1235L118.787 54.3957Z" fill="#E1E9F4"/>
<path d="M124.503 51.1292L119.467 53.9876L119.059 53.8515L124.095 50.8569L124.503 51.1292Z" fill="#E1E9F4"/>
<path d="M127.904 49.2234L125.182 50.7207L124.773 50.5846L127.496 48.9512L127.904 49.2234Z" fill="#E1E9F4"/>
<path d="M94.5576 66.3743L90.4741 68.6883L89.9297 68.416L94.0132 66.1021L94.5576 66.3743Z" fill="#E1E9F4"/>
<path d="M96.8712 65.013L95.1017 65.9658L94.6934 65.6936L96.4629 64.7407L96.8712 65.013Z" fill="#E1E9F4"/>
<path d="M94.5583 68.4164L92.2443 69.7776L91.8359 69.5053L94.0138 68.2803L94.5583 68.4164Z" fill="#E1E9F4"/>
<path d="M100.138 65.2859L95.1017 68.1443L94.6934 67.8721L99.7297 65.0137L100.138 65.2859Z" fill="#E1E9F4"/>
<path d="M103.539 63.2439L100.817 64.8773L100.408 64.6051L103.131 62.9717L103.539 63.2439Z" fill="#E1E9F4"/>
<path d="M172.145 37.3806L173.643 36.5639L173.234 36.2917L171.737 37.1084L172.145 37.3806ZM159.35 44.7309L165.748 41.0558L165.339 40.7835L158.942 44.4587L159.35 44.7309ZM166.292 40.7835L171.601 37.6529L171.193 37.3806L165.884 40.5113L166.292 40.7835ZM158.942 45.0031L158.534 44.7309L149.414 50.0394L149.822 50.3117L158.942 45.0031ZM148.461 49.3589L151.456 47.5893L151.047 47.3171L148.053 49.0866L148.461 49.3589ZM168.062 38.0612L172.145 35.6111L171.737 35.3389L167.653 37.789L168.062 38.0612ZM164.659 39.9668L167.517 38.3334L167.109 38.0612L164.251 39.6946L164.659 39.9668ZM160.575 42.2808L164.114 40.2391L163.706 39.9668L160.167 42.0086L160.575 42.2808ZM151.864 47.3171L160.031 42.5531L159.623 42.2808L151.456 47.0449L151.864 47.3171Z" fill="#E1E9F4"/>
<path d="M174.731 37.1079L175.139 37.3801L171.736 39.4219L171.328 39.1497L174.731 37.1079ZM166.291 43.6415L166.7 43.9137L170.239 41.872L169.83 41.5997L166.291 43.6415ZM170.783 39.4219L164.386 43.097L164.794 43.3692L171.191 39.6941L170.783 39.4219ZM173.642 39.4219L170.375 41.3275L170.783 41.5997L174.05 39.6941L173.642 39.4219ZM164.25 43.6415L163.841 43.3692L150.91 50.8556L151.318 51.1279L164.25 43.6415ZM157.444 49.2223L157.035 48.95L152.407 51.6723L152.816 51.9446L157.444 49.2223ZM165.747 44.0498L157.58 48.8139L157.988 49.0861L166.155 44.3221L165.747 44.0498Z" fill="#E1E9F4"/>
<path d="M131.582 83.389L141.927 77.3998L141.519 77.1276L131.174 83.1167L131.582 83.389ZM131.038 83.6612L130.629 83.389L121.51 88.6975L121.918 88.9697L131.038 83.6612ZM120.557 88.0169L123.551 86.2474L123.143 85.9752L120.148 87.7447L120.557 88.0169ZM136.755 78.6249L139.613 76.9915L139.205 76.7192L136.346 78.3527L136.755 78.6249ZM132.671 81.075L136.21 79.0332L135.802 78.761L132.263 80.8027L132.671 81.075ZM123.96 86.1113L132.127 81.3472L131.718 81.075L123.551 85.839L123.96 86.1113Z" fill="#E1E9F4"/>
<path d="M135.665 83.9333L136.073 84.2055L140.429 81.7554L140.02 81.4832L135.665 83.9333ZM140.565 79.4414L136.481 81.7554L136.89 82.0276L140.973 79.7137L140.565 79.4414ZM136.345 82.2999L135.937 82.0276L123.006 89.514L123.414 89.7863L136.345 82.2999ZM129.539 87.8806L129.131 87.6084L124.503 90.3307L124.911 90.603L129.539 87.8806ZM135.256 84.2055L129.812 87.3362L130.22 87.6084L135.665 84.4777L135.256 84.2055Z" fill="#E1E9F4"/>
<path d="M184.394 50.7213L184.802 50.9935L189.839 48.1351L189.43 47.8629L184.394 50.7213ZM184.258 51.2658L183.85 50.9935L177.044 54.9409L177.452 55.2132L184.258 51.2658ZM180.719 54.5326L181.127 54.8048L184.666 52.7631L184.258 52.4908L180.719 54.5326ZM184.802 52.2186L185.211 52.4908L192.289 48.4073L191.88 48.1351L184.802 52.2186ZM176.227 57.6632L175.819 57.391L168.877 61.3384L169.285 61.6106L176.227 57.6632ZM191.336 46.7739L189.975 47.5906L190.383 47.8629L191.744 47.0462L191.336 46.7739ZM177.044 55.4854L176.635 55.2132L167.516 60.5217L167.924 60.7939L177.044 55.4854ZM180.719 55.077L180.311 54.8048L176.363 57.1188L176.772 57.391L180.719 55.077Z" fill="#E1E9F4"/>
<path d="M181.807 57.6635L188.204 53.9884L187.796 53.7161L181.398 57.3913L181.807 57.6635ZM188.749 53.7161L193.649 50.8577L193.241 50.5855L188.34 53.4439L188.749 53.7161ZM181.398 57.9357L180.99 57.6635L171.87 62.9721L172.279 63.2443L181.398 57.9357ZM170.781 62.4276L173.776 60.6581L173.368 60.3858L170.373 62.1554L170.781 62.4276ZM190.518 50.9938L194.602 48.5437L194.193 48.2715L190.11 50.7216L190.518 50.9938ZM187.115 53.0356L189.974 51.4022L189.565 51.1299L186.707 52.7633L187.115 53.0356ZM183.032 55.3495L186.571 53.3078L186.163 53.0356L182.624 55.0773L183.032 55.3495ZM174.32 60.3858L182.487 55.6218L182.079 55.3495L173.912 60.1136L174.32 60.3858Z" fill="#E1E9F4"/>
<path d="M117.15 67.0552L117.558 67.3274L122.595 64.4689L122.186 64.1967L117.15 67.0552ZM117.014 67.4635L116.605 67.1913L109.8 71.1387L110.208 71.4109L117.014 67.4635ZM113.475 70.7303L113.883 71.0025L117.422 68.9608L117.014 68.6885L113.475 70.7303ZM117.558 68.4163L117.967 68.6885L125.045 64.6051L124.636 64.3328L117.558 68.4163ZM108.983 73.861L108.575 73.5887L101.633 77.5361L102.041 77.8083L108.983 73.861ZM123.956 62.9717L122.595 63.7883L123.003 64.0606L124.364 63.2439L123.956 62.9717ZM109.8 71.6831L109.391 71.4109L100.271 76.7194L100.68 76.9916L109.8 71.6831ZM113.339 71.2747L112.93 71.0025L108.983 73.3165L109.391 73.5887L113.339 71.2747Z" fill="#E1E9F4"/>
<path d="M114.563 73.9975L120.96 70.3224L120.552 70.0501L114.154 73.7253L114.563 73.9975ZM121.505 69.914L126.405 67.0556L125.996 66.7833L121.096 69.6418L121.505 69.914ZM114.018 74.2697L113.61 73.9975L104.49 79.3061L104.898 79.5783L114.018 74.2697ZM103.537 78.6255L106.532 76.8559L106.123 76.5837L103.129 78.3532L103.537 78.6255ZM123.138 67.3278L127.221 64.8777L126.813 64.6055L122.73 67.0556L123.138 67.3278ZM119.871 69.2334L122.73 67.6L122.321 67.3278L119.463 68.9612L119.871 69.2334ZM115.788 71.5474L119.327 69.5057L118.918 69.2334L115.379 71.2752L115.788 71.5474ZM107.076 76.5837L115.243 71.8197L114.835 71.5474L106.668 76.3115L107.076 76.5837Z" fill="#E1E9F4"/>
<path d="M88.0264 51.4015C102.591 42.9623 126.275 42.9623 140.84 51.4015C147.645 55.3489 151.184 60.3851 151.729 65.4214C152.409 59.4323 148.734 53.3071 140.84 48.8152C126.275 40.376 102.591 40.376 88.0264 48.8152C80.2678 53.3071 76.5927 59.4323 77.2732 65.2853C77.8177 60.249 81.3567 55.2127 88.0264 51.4015Z" fill="#6F96C1"/>
<path d="M152.545 62.5634V68.4164C152.545 73.9972 148.87 79.5779 141.519 83.9336C126.819 92.509 102.59 92.509 87.7533 83.9336C80.2669 79.5779 76.5918 73.9972 76.5918 68.2803V62.4272C76.5918 68.1441 80.2669 73.7249 87.7533 78.0806C102.59 86.6559 126.683 86.6559 141.519 78.0806C148.87 73.7249 152.545 68.1441 152.545 62.5634Z" fill="url(#paint1_linear_14822_160826)"/>
<path d="M141.246 46.91C156.082 55.4853 156.218 69.5053 141.382 78.0806C126.681 86.656 102.452 86.656 87.6157 78.0806C72.7791 69.5053 72.6429 55.4853 87.4796 46.91C102.316 38.3347 126.409 38.3347 141.246 46.91ZM88.1602 77.8084C102.725 86.2476 126.409 86.2476 140.973 77.8084C155.538 69.3692 155.402 55.6215 140.837 47.1823C126.273 38.7431 102.588 38.7431 88.0241 47.1823C73.5957 55.6215 73.5957 69.3692 88.1602 77.8084Z" fill="url(#paint2_linear_14822_160826)"/>
<path d="M151.453 85.5667C151.589 85.5667 151.725 85.7028 151.861 85.7028L141.652 79.8498C141.516 79.8498 141.38 79.7137 141.244 79.7137C140.155 79.4415 138.249 80.5304 137.16 82.0277C136.616 82.7083 136.344 83.525 136.344 84.0695C136.344 84.4778 136.48 84.8861 136.888 85.0222L147.097 90.8753C147.233 90.8753 147.369 91.0113 147.505 91.0113C148.594 91.2836 150.5 90.1947 151.589 88.6974C152.133 88.0168 152.405 87.2001 152.405 86.6557C152.405 86.1112 151.997 85.7028 151.453 85.5667Z" fill="#C7C6C4"/>
<path d="M153.359 84.3419C153.223 84.2058 152.951 84.2058 152.815 84.0697C151.045 83.7974 148.187 85.4308 146.281 87.7448C145.328 88.9698 144.92 90.0588 144.92 91.0116C144.92 91.6921 145.192 92.2366 145.737 92.5089L179.902 112.11C180.038 112.246 180.31 112.246 180.446 112.382C182.216 112.654 185.074 111.021 186.98 108.707C187.933 107.482 188.341 106.393 188.341 105.44C188.341 104.759 188.069 104.351 187.66 103.943C187.524 103.943 153.359 84.3419 153.359 84.3419Z" fill="url(#paint3_linear_14822_160826)"/>
<path d="M186.706 104.896C186.298 104.487 184.937 104.896 183.439 106.121C182.078 107.21 181.262 108.571 181.67 108.979C182.078 109.388 183.439 108.979 184.937 107.754C186.298 106.665 187.115 105.304 186.706 104.896Z" fill="url(#paint4_linear_14822_160826)"/>
<defs>
<linearGradient id="paint0_linear_14822_160826" x1="77.1998" y1="54.6607" x2="151.82" y2="54.6607" gradientUnits="userSpaceOnUse">
<stop stop-color="#E4E2E2"/>
<stop offset="1" stop-color="#D6D5D4"/>
</linearGradient>
<linearGradient id="paint1_linear_14822_160826" x1="76.5315" y1="76.3529" x2="152.494" y2="76.3529" gradientUnits="userSpaceOnUse">
<stop stop-color="#D6D5D4"/>
<stop offset="1" stop-color="#E4E2E2"/>
</linearGradient>
<linearGradient id="paint2_linear_14822_160826" x1="76.5465" y1="62.488" x2="152.492" y2="62.488" gradientUnits="userSpaceOnUse">
<stop stop-color="#F0EFEC"/>
<stop offset="1" stop-color="#FFFEFB"/>
</linearGradient>
<linearGradient id="paint3_linear_14822_160826" x1="145.034" y1="98.2851" x2="188.31" y2="98.2851" gradientUnits="userSpaceOnUse">
<stop stop-color="#312F2C"/>
<stop offset="1" stop-color="#252321"/>
</linearGradient>
<linearGradient id="paint4_linear_14822_160826" x1="183.455" y1="106.085" x2="184.833" y2="107.616" gradientUnits="userSpaceOnUse">
<stop stop-color="#312F2C"/>
<stop offset="1" stop-color="#252321"/>
</linearGradient>
</defs>
</svg>
