<svg width="251" height="159" viewBox="0 0 251 159" fill="none" xmlns="http://www.w3.org/2000/svg">
<rect width="251" height="159" rx="5" fill="#AEB5D1"/>
<g opacity="0.4">
<path d="M57.2881 62.9385L39 73.3888L133.924 128.253H144.2L57.2881 62.9385Z" fill="#ADA6A3"/>
</g>
<path d="M144.376 128.253L47.3613 72.1696V62.9385L144.376 82.0975V128.253Z" fill="#D2CFCC"/>
<path d="M212.997 88.5424L144.373 128.254V82.0979L212.997 79.4854V88.5424Z" fill="#E9E6E6"/>
<path d="M213 79.4845L144.376 119.022L47.3613 62.9381L115.985 23.4009L213 79.4845Z" fill="#F8F5F4"/>
<path d="M67.7435 67.4673L67.2209 67.8156L62.1699 64.8547L62.6924 64.5063L67.7435 67.4673Z" fill="#7B9FE1"/>
<path d="M68.4432 67.1186L67.7466 67.467L63.5664 65.0285L64.2631 64.6802L68.4432 67.1186Z" fill="#2D6AD8"/>
<path d="M70.3541 65.8992L69.6574 66.2475L65.1289 63.6349L65.6514 63.2866L70.3541 65.8992Z" fill="#7B9FE1"/>
<path d="M71.0508 65.5508L70.3541 65.8992L65.1289 62.9382L65.8256 62.5898L71.0508 65.5508Z" fill="#2D6AD8"/>
<path d="M72.9656 64.5061L72.269 64.8545L65.6504 61.0226L66.3471 60.6743L72.9656 64.5061Z" fill="#7B9FE1"/>
<path d="M73.4892 64.1579L72.7925 64.5062L68.0898 61.7194L68.7865 61.3711L73.4892 64.1579Z" fill="#2D6AD8"/>
<path d="M75.4073 62.9382L74.7106 63.4607L68.9629 59.9772L69.6596 59.6289L75.4073 62.9382Z" fill="#7B9FE1"/>
<path d="M76.1071 62.5898L75.4104 63.1124L70.3594 60.1514L71.0561 59.6289L76.1071 62.5898Z" fill="#2D6AD8"/>
<path d="M83.0697 58.5836L82.3731 58.9319L76.4512 55.4485L77.1479 55.1001L83.0697 58.5836Z" fill="#7B9FE1"/>
<path d="M83.7644 58.2352L83.0677 58.5836L77.4941 55.4485L78.1908 55.1001L83.7644 58.2352Z" fill="#2D6AD8"/>
<path d="M85.6799 57.1907L84.9832 57.539L80.6289 55.1006L81.3256 54.5781L85.6799 57.1907Z" fill="#7B9FE1"/>
<path d="M86.2022 56.6677L85.6797 57.1902L79.7578 53.7068L80.4545 53.3584L86.2022 56.6677Z" fill="#2D6AD8"/>
<path d="M88.1207 55.6226L87.5982 55.9709L79.4121 51.2682L80.1088 50.9199L88.1207 55.6226Z" fill="#7B9FE1"/>
<path d="M88.8176 55.2742L88.1209 55.6225L81.3281 51.7907L82.0248 51.4424L88.8176 55.2742Z" fill="#2D6AD8"/>
<path d="M90.7323 54.229L90.0356 54.5773L82.8945 50.3971L83.5912 50.0488L90.7323 54.229Z" fill="#7B9FE1"/>
<path d="M91.4291 53.8814L90.7324 54.2298L84.8105 50.7463L85.5073 50.3979L91.4291 53.8814Z" fill="#2D6AD8"/>
<path d="M93.344 52.662L92.6473 53.0104L88.293 50.5719L88.9897 50.2236L93.344 52.662Z" fill="#7B9FE1"/>
<path d="M93.8672 52.3139L93.1705 52.6623L87.9453 49.7013L88.642 49.353L93.8672 52.3139Z" fill="#2D6AD8"/>
<path d="M78.0193 61.545L77.3226 61.8933L74.1875 60.1515L74.8842 59.8032L78.0193 61.545Z" fill="#7B9FE1"/>
<path d="M78.7152 61.1966L78.0185 61.545L72.6191 58.4098L73.3158 58.0615L78.7152 61.1966Z" fill="#2D6AD8"/>
<path d="M80.4603 60.1518L79.9378 60.5001L76.8027 58.7584L77.4994 58.2358L80.4603 60.1518Z" fill="#7B9FE1"/>
<path d="M81.1602 59.6289L80.4635 60.1514L78.1992 58.758L78.8959 58.4097L81.1602 59.6289Z" fill="#2D6AD8"/>
<path d="M95.0885 52.3136L66.8725 68.6859L66.1758 68.3376L94.566 51.9653L95.0885 52.3136Z" fill="#7B9FE1"/>
<path d="M99.0917 49.353L98.395 49.7013L94.2148 47.2629L94.7373 46.9146L99.0917 49.353Z" fill="#7B9FE1"/>
<path d="M99.7915 49.0046L99.0948 49.353L95.6113 47.4371L96.308 46.9146L99.7915 49.0046Z" fill="#2D6AD8"/>
<path d="M101.704 47.9596L101.007 48.308L99.4395 47.2629L99.962 46.9146L101.704 47.9596Z" fill="#7B9FE1"/>
<path d="M102.226 47.437L101.704 47.9595L99.4395 46.5661L99.962 46.2178L102.226 47.437Z" fill="#2D6AD8"/>
<path d="M104.14 46.3922L103.617 46.7406L98.5664 43.9538L99.2631 43.6055L104.14 46.3922Z" fill="#7B9FE1"/>
<path d="M104.836 46.0442L104.14 46.3926L101.701 44.9992L102.398 44.6509L104.836 46.0442Z" fill="#2D6AD8"/>
<path d="M106.757 45.0001L106.06 45.3484L104.318 44.3034L105.015 43.9551L106.757 45.0001Z" fill="#7B9FE1"/>
<path d="M107.454 44.6514L106.757 44.9998L103.971 43.258L104.667 42.9097L107.454 44.6514Z" fill="#2D6AD8"/>
<path d="M114.418 40.4703L113.721 40.8186L107.451 37.3351L108.148 36.9868L114.418 40.4703Z" fill="#7B9FE1"/>
<path d="M115.116 40.1219L114.419 40.4703L109.02 37.3351L109.542 36.9868L115.116 40.1219Z" fill="#2D6AD8"/>
<path d="M116.854 39.0769L116.332 39.4252L107.623 34.3742L108.146 34.0259L116.854 39.0769Z" fill="#7B9FE1"/>
<path d="M117.549 38.7286L116.852 39.0769L108.666 34.3742L109.363 34.0259L117.549 38.7286Z" fill="#2D6AD8"/>
<path d="M119.473 37.5096L118.777 38.0322L113.203 34.7228L113.726 34.3745L119.473 37.5096Z" fill="#7B9FE1"/>
<path d="M120.172 37.1609L119.476 37.6834L114.947 34.8967L115.47 34.5483L120.172 37.1609Z" fill="#2D6AD8"/>
<path d="M122.085 36.116L121.388 36.4643L114.77 32.8067L115.466 32.2842L122.085 36.116Z" fill="#7B9FE1"/>
<path d="M122.607 35.7684L122.085 36.1168L116.686 33.1558L117.382 32.6333L122.607 35.7684Z" fill="#2D6AD8"/>
<path d="M124.517 34.722L123.995 35.0704L120.686 33.1545L121.382 32.8062L124.517 34.722Z" fill="#7B9FE1"/>
<path d="M125.212 34.1999L124.515 34.7224L121.729 32.9806L122.425 32.6323L125.212 34.1999Z" fill="#2D6AD8"/>
<path d="M109.191 43.4315L108.669 43.7798L103.27 40.8189L103.966 40.2964L109.191 43.4315Z" fill="#7B9FE1"/>
<path d="M109.889 43.0829L109.192 43.4312L102.922 39.9478L103.619 39.4253L109.889 43.0829Z" fill="#2D6AD8"/>
<path d="M111.81 42.0376L111.114 42.386L106.062 39.425L106.585 39.0767L111.81 42.0376Z" fill="#7B9FE1"/>
<path d="M112.51 41.6893L111.813 42.0376L107.459 39.425L108.156 39.0767L112.51 41.6893Z" fill="#2D6AD8"/>
<path d="M126.436 34.1999L98.046 50.5722L97.5234 50.2238L125.914 33.8516L126.436 34.1999Z" fill="#7B9FE1"/>
<path d="M93.5183 59.8013L72.4434 71.8192L69.4824 70.0775L90.5573 58.0596L93.5183 59.8013Z" fill="#2D6AD8"/>
<path d="M74.3593 70.7735L72.4434 71.8185L69.4824 70.0768L71.3983 69.0317L74.3593 70.7735Z" fill="#F25A5A"/>
<path d="M112.68 48.6553L91.6055 60.8474L88.6445 59.1057L109.719 46.9136L112.68 48.6553Z" fill="#2D6AD8"/>
<path d="M93.5214 59.6275L91.6055 60.8466L88.6445 59.1049L90.5604 57.8857L93.5214 59.6275Z" fill="#97CC66"/>
<path d="M131.835 37.5083L110.76 49.7004L107.799 47.9587L128.874 35.7666L131.835 37.5083Z" fill="#2D6AD8"/>
<path d="M112.85 48.6553L110.76 49.7003L107.799 47.9586L109.715 46.9136L112.85 48.6553Z" fill="#44BFE5"/>
<path d="M114.941 44.9979L111.632 46.9138L111.283 46.7396L114.593 44.8237L114.941 44.9979Z" fill="#E1E9F4"/>
<path d="M116.681 43.9535L115.287 44.8243L115.113 44.476L116.332 43.7793L116.681 43.9535Z" fill="#E1E9F4"/>
<path d="M114.942 46.7401L113.2 47.7851L112.852 47.4368L114.593 46.5659L114.942 46.7401Z" fill="#E1E9F4"/>
<path d="M119.293 44.1273L115.462 46.3915L115.113 46.2173L118.945 43.9531L119.293 44.1273Z" fill="#E1E9F4"/>
<path d="M121.907 42.5599L119.817 43.7791L119.469 43.6049L121.559 42.3857L121.907 42.5599Z" fill="#E1E9F4"/>
<path d="M95.7842 55.9711L92.6491 57.887L92.3008 57.7128L95.4359 55.7969L95.7842 55.9711Z" fill="#E1E9F4"/>
<path d="M97.6988 54.9266L96.3054 55.7975L95.957 55.4492L97.3504 54.7524L97.6988 54.9266Z" fill="#E1E9F4"/>
<path d="M95.7851 57.7132L94.0433 58.7583L93.8691 58.4099L95.4367 57.5391L95.7851 57.7132Z" fill="#E1E9F4"/>
<path d="M100.311 55.1005L96.3054 57.3647L95.957 57.1905L99.963 54.9263L100.311 55.1005Z" fill="#E1E9F4"/>
<path d="M102.925 53.5331L100.835 54.7522L100.486 54.5781L102.576 53.3589L102.925 53.5331Z" fill="#E1E9F4"/>
<path d="M76.7979 66.9432L73.6628 68.8591L73.3145 68.6849L76.4495 66.769L76.7979 66.9432Z" fill="#E1E9F4"/>
<path d="M78.7124 65.8988L77.319 66.7697L76.9707 66.4213L78.3641 65.7246L78.7124 65.8988Z" fill="#E1E9F4"/>
<path d="M76.801 68.6854L75.0593 69.7304L74.7109 69.3821L76.4527 68.5112L76.801 68.6854Z" fill="#E1E9F4"/>
<path d="M81.325 66.0726L77.319 68.3368L76.9707 68.1627L80.9767 65.8984L81.325 66.0726Z" fill="#E1E9F4"/>
<path d="M83.9384 64.5052L81.8483 65.7245L81.5 65.5503L83.5901 64.3311L83.9384 64.5052Z" fill="#E1E9F4"/>
<path d="M155.348 69.0351C146.814 73.9119 133.228 73.9119 124.694 69.0351C116.159 64.1583 116.159 56.1463 124.694 51.2694C133.228 46.3926 146.814 46.3926 155.348 51.2694C163.883 56.1463 163.883 64.1583 155.348 69.0351Z" fill="#4188EF"/>
<path d="M155.35 69.0352C146.815 73.912 133.23 73.912 124.695 69.0352V70.7769C133.23 75.6537 146.815 75.6537 155.35 70.7769C159.704 68.3385 161.794 65.0292 161.62 61.8941V60.1523C161.794 63.2875 159.704 66.5967 155.35 69.0352Z" fill="#2D6AD8"/>
<path d="M140.371 54.4032L140.197 59.9767H139.848L124.695 51.2681V45.3462L140.371 54.4032Z" fill="#2D6AD8"/>
<path d="M140.195 54.4043V60.152L155.523 51.2692V45.5215L140.195 54.4043Z" fill="#2D6AD8"/>
<path opacity="0.4" d="M155.522 45.5211L140.195 54.4039L124.693 45.5211C133.228 40.4701 146.987 40.6442 155.522 45.5211Z" fill="#4188EF"/>
<path d="M118.25 56.4941V59.4551L140.196 59.9776V56.4941H118.25Z" fill="#2D6AD8"/>
<path opacity="0.4" d="M124.694 47.437C120.514 49.8754 118.25 53.1847 118.25 56.494H140.196L124.694 47.437Z" fill="#4188EF"/>
<path d="M124.694 67.1187C121.559 65.3769 119.469 63.1127 118.598 60.3259C118.424 59.6292 118.25 58.9325 118.25 58.2358V58.7584C118.25 59.8034 118.25 62.416 118.598 63.461V63.6352C119.295 66.2478 121.385 68.6862 124.869 70.6021C125.043 70.6021 125.217 70.7763 125.217 70.7763V67.2928C125.043 67.467 124.869 67.2928 124.694 67.1187Z" fill="#2D6AD8"/>
<path d="M140.196 58.4097V60.1514L125.217 69.3826V67.4667L140.196 58.4097Z" fill="#2D6AD8"/>
<path opacity="0.4" d="M140.196 58.41L125.217 67.467C125.043 67.2929 124.869 67.2928 124.694 67.1187C121.559 65.3769 119.469 63.1127 118.598 60.3259C118.424 59.6292 118.25 58.9325 118.25 58.2358L140.196 58.41Z" fill="#4188EF"/>
<path d="M95.4332 71.6474L84.9829 77.7434L83.7637 77.0467L94.3882 70.9507L95.4332 71.6474Z" fill="#F25A5A"/>
<path d="M92.1237 76.0014L86.8985 78.9623L85.8535 78.2656L90.9045 75.3047L92.1237 76.0014Z" fill="#F25A5A"/>
<path d="M105.537 70.4276L88.9904 80.0071L87.9453 79.4846L104.492 69.731L105.537 70.4276Z" fill="#97CC66"/>
<path d="M115.463 67.1181L90.9044 81.2261L89.8594 80.5294L114.244 66.4214L115.463 67.1181Z" fill="#97CC66"/>
<path d="M115.637 69.3823L92.9942 82.4452L91.9492 81.7485L114.417 68.6855L115.637 69.3823Z" fill="#97CC66"/>
<path d="M114.42 72.3438L95.0864 83.4908L93.8672 82.9683L113.2 71.8213L114.42 72.3438Z" fill="#2D6AD8"/>
<path d="M112.501 75.6524L97.0001 84.7094L95.9551 84.0127L111.456 75.1299L112.501 75.6524Z" fill="#2D6AD8"/>
<path d="M111.282 78.788L99.0899 85.9291L98.0449 85.2324L110.237 78.0913L111.282 78.788Z" fill="#44BFE5"/>
<path d="M120.515 75.8272L101.008 86.9742L99.9629 86.4517L119.296 75.3047L120.515 75.8272Z" fill="#44BFE5"/>
<path d="M123.302 76.5229L103.098 88.1924L102.053 87.67L122.257 75.8262L123.302 76.5229Z" fill="#86B1FF"/>
<path d="M121.907 79.6583L105.186 89.412L103.967 88.7152L120.687 79.1357L121.907 79.6583Z" fill="#86B1FF"/>
<path d="M120.863 82.619L107.104 90.631L106.059 89.9343L119.818 81.9224L120.863 82.619Z" fill="#2D6AD8"/>
<path d="M128.527 80.5297L109.193 91.6767L108.148 91.1542L127.482 79.833L128.527 80.5297Z" fill="#F25A5A"/>
<path d="M131.834 81.0521L111.108 92.8959L110.062 92.1992L130.789 80.3555L131.834 81.0521Z" fill="#F25A5A"/>
<path d="M111.805 93.07L111.109 93.4184L82.8926 77.0461L83.5893 76.6978L111.805 93.07Z" fill="#86B1FF"/>
<path d="M120.688 97.4243C121.384 97.7727 121.384 98.4694 120.688 98.8178C119.991 99.1661 118.946 99.1661 118.249 98.8178C117.552 98.4694 117.552 97.7727 118.249 97.4243C118.946 97.076 119.991 97.076 120.688 97.4243Z" fill="#2D6AD8"/>
<path d="M126.436 100.733C127.132 101.081 127.132 101.778 126.436 102.126C125.739 102.475 124.694 102.475 123.997 102.126C123.3 101.778 123.3 101.081 123.997 100.733C124.868 100.385 125.913 100.385 126.436 100.733Z" fill="#2D6AD8"/>
<path d="M132.355 104.043C133.052 104.391 133.052 105.088 132.355 105.436C131.659 105.785 130.614 105.785 129.917 105.436C129.22 105.088 129.22 104.391 129.917 104.043C130.614 103.695 131.659 103.695 132.355 104.043Z" fill="#2D6AD8"/>
<path d="M138.104 107.527C138.8 107.875 138.8 108.572 138.104 108.92C137.407 109.268 136.362 109.268 135.665 108.92C134.968 108.572 134.968 107.875 135.665 107.527C136.362 107.004 137.407 107.004 138.104 107.527Z" fill="#2D6AD8"/>
<path d="M143.852 110.835C144.548 111.184 144.548 111.88 143.852 112.229C143.155 112.577 142.11 112.577 141.413 112.229C140.716 111.88 140.716 111.184 141.413 110.835C142.11 110.487 143.155 110.487 143.852 110.835Z" fill="#2D6AD8"/>
<path d="M151.863 80.8778L155.346 78.7878L154.824 78.6136L151.34 80.7037L151.863 80.8778ZM136.362 89.9348L144.199 85.4063L143.677 85.2321L135.839 89.7606L136.362 89.9348ZM144.722 85.058L151.166 81.2262L150.644 81.052L144.199 84.8838L144.722 85.058ZM135.665 90.2832L135.142 90.109L124.169 96.5534L124.692 96.7276L135.665 90.2832ZM155.869 78.6136L160.746 75.8268L160.223 75.6526L155.346 78.4394L155.869 78.6136ZM122.95 95.5084L126.608 93.4183L126.085 93.2441L122.428 95.3342L122.95 95.5084ZM154.824 76.6977L155.346 76.8719L159.701 74.4335L159.178 74.2593L154.824 76.6977ZM146.812 81.7487L154.65 77.2202L154.127 77.0461L146.289 81.5746L146.812 81.7487ZM142.632 84.1871L146.115 82.0971L145.593 81.9229L142.109 84.013L142.632 84.1871ZM137.755 86.9739L142.109 84.5355L141.587 84.3613L137.232 86.7997L137.755 86.9739ZM127.305 93.0699L137.232 87.3222L136.71 87.1481L126.782 92.8958L127.305 93.0699Z" fill="#86B1FF"/>
<path d="M148.034 86.7996L148.557 86.9737L155.001 83.1419L154.479 82.9678L148.034 86.7996ZM147.86 87.4963L147.337 87.3221L139.5 91.8506L140.022 92.0248L147.86 87.4963ZM149.253 88.1929L149.776 88.3671L154.13 85.9287L153.608 85.7545L149.253 88.1929ZM154.13 85.4062L154.653 85.5803L158.136 83.4903L157.614 83.3161L154.13 85.4062ZM166.148 78.4393L158.31 82.9678L158.833 83.1419L166.671 78.6134L166.148 78.4393ZM138.455 94.9857L137.932 94.8115L129.746 99.5142L130.269 99.6884L138.455 94.9857ZM162.316 78.6134L155.175 82.7936L155.698 82.9678L162.839 78.7876L162.316 78.6134ZM139.5 92.3731L138.977 92.1989L127.83 98.6433L128.353 98.8175L139.5 92.3731ZM162.839 78.2651L163.361 78.4393L167.541 76.0008L167.019 75.8267L162.839 78.2651ZM149.079 88.8896L148.557 88.7154L138.629 94.4632L139.151 94.6374L149.079 88.8896Z" fill="#86B1FF"/>
<path d="M150.821 92.1995L151.343 92.3736L155.697 89.9352L155.175 89.7611L150.821 92.1995ZM151.866 94.1154L151.343 93.9412L143.679 98.2955L144.202 98.4697L151.866 94.1154ZM159.181 87.3226L155.697 89.4127L156.22 89.5869L159.703 87.4968L159.181 87.3226ZM159.878 86.9743L160.4 87.1485L168.238 82.62L167.715 82.4458L159.878 86.9743ZM167.889 84.8842L172.418 82.2716L171.895 82.0975L167.367 84.7101L167.889 84.8842ZM140.022 98.8181L139.499 98.6439L133.926 101.953L134.448 102.127L140.022 98.8181ZM150.124 92.5478L140.196 98.2955L140.719 98.4697L150.646 92.722L150.124 92.5478ZM152.04 93.4187L152.562 93.5929L160.4 89.0644L159.878 88.8902L152.04 93.4187ZM166.844 84.8842L160.4 88.716L160.923 88.8902L167.367 85.0584L166.844 84.8842ZM170.502 80.7041L168.238 82.0975L168.76 82.2716L171.025 80.8782L170.502 80.7041ZM143.505 98.8181L142.983 98.6439L135.668 102.824L136.19 102.998L143.505 98.8181Z" fill="#86B1FF"/>
<path d="M153.608 99.8631L161.445 95.3345L160.923 95.1604L153.085 99.6889L153.608 99.8631ZM161.968 94.9862L168.412 91.1544L167.89 90.9802L161.445 94.812L161.968 94.9862ZM152.911 100.211L152.388 100.037L141.416 106.482L141.938 106.656L152.911 100.211ZM140.196 105.437L143.854 103.347L143.331 103.172L139.674 105.262L140.196 105.437ZM172.07 86.6259L172.592 86.8001L176.947 84.3616L176.424 84.1875L172.07 86.6259ZM164.058 91.6769L171.896 87.1484L171.373 86.9742L163.535 91.5027L164.058 91.6769ZM159.878 94.1153L163.361 92.0253L162.839 91.8511L159.355 93.9411L159.878 94.1153ZM155.001 96.9021L159.355 94.4637L158.833 94.2895L154.479 96.7279L155.001 96.9021ZM144.551 102.998L154.479 97.2505L153.956 97.0763L144.028 102.824L144.551 102.998Z" fill="#86B1FF"/>
<path d="M170.152 94.2885L170.501 94.6369L177.119 90.805L176.597 90.6309L170.152 94.2885Z" fill="#86B1FF"/>
<path d="M164.055 99.8628L164.577 100.037L168.932 97.5985L168.409 97.4243L164.055 99.8628Z" fill="#86B1FF"/>
<path d="M169.459 94.6377L161.795 99.1661L162.143 99.3403L169.981 94.986L169.459 94.6377Z" fill="#86B1FF"/>
<path d="M175.726 93.0698L169.107 97.0758L169.456 97.25L176.248 93.4182L175.726 93.0698Z" fill="#86B1FF"/>
<path d="M161.62 99.6883L161.097 99.5142L145.422 108.571L145.944 108.745L161.62 99.6883Z" fill="#86B1FF"/>
<path d="M177.293 90.2835L177.641 90.4576L181.125 88.5417L180.602 88.1934L177.293 90.2835Z" fill="#86B1FF"/>
<path d="M153.434 106.481L152.911 106.307L147.338 109.616L147.86 109.791L153.434 106.481Z" fill="#86B1FF"/>
<path d="M163.535 100.211L153.607 105.959L153.956 106.133L163.884 100.385L163.535 100.211Z" fill="#86B1FF"/>
<path d="M181.301 87.8448L181.823 88.1931L184.61 86.4514L184.262 86.103L181.301 87.8448Z" fill="#86B1FF"/>
<path d="M59.2056 92.7217V90.4574L51.0195 85.5806V87.8448C51.0195 88.3673 51.1937 88.7157 51.542 88.8898L59.7282 93.7667C59.3798 93.5925 59.2056 93.2442 59.2056 92.7217Z" fill="#5169CE"/>
<path d="M61.1224 78.6134C60.774 78.4393 60.4257 78.4393 60.0773 78.7876L52.5879 83.1419L60.774 88.0187L68.2634 83.6644C68.6118 83.4903 69.1343 83.3161 69.3085 83.4902L61.1224 78.6134Z" fill="#788EFF"/>
<path d="M59.2076 90.4586L51.0215 85.5818C51.0215 84.5368 51.7182 83.4918 52.589 82.9692L60.7752 87.8461C59.9043 88.3686 59.2076 89.5878 59.2076 90.4586Z" fill="#788EFF"/>
<path d="M68.2621 83.491C69.1329 82.9685 69.8296 83.3169 69.8296 84.3619V86.6262C69.8296 87.6712 69.1329 88.7163 68.2621 89.2388L60.7726 93.5931C59.9018 94.1156 59.2051 93.7673 59.2051 92.7222V90.4579C59.2051 89.4129 59.9018 88.3679 60.7726 87.8454L68.2621 83.491Z" fill="#252321"/>
<path d="M103.101 102.475L64.0859 79.8325C64.6085 79.4842 64.9568 79.4842 65.3051 79.6583L104.32 102.301C103.971 102.127 103.623 102.301 103.101 102.475Z" fill="#373431"/>
<path d="M92.6495 113.1V110.662L53.6348 88.019V90.4575C53.6348 90.98 53.8089 91.3283 54.1573 91.5025L93.172 114.145C92.8236 113.971 92.6495 113.622 92.6495 113.1Z" fill="#1E1B19"/>
<path d="M94.392 107.525L55.2031 84.883L63.9118 79.832L103.101 102.474L94.392 107.525Z" fill="#2D2B29"/>
<path d="M92.6495 110.487L53.6348 87.8442C53.6348 86.7992 54.3315 85.4058 55.3765 84.8833L94.3912 107.526C93.3461 108.048 92.6495 109.442 92.6495 110.487Z" fill="#373431"/>
<path d="M103.099 102.475C104.144 101.953 104.841 102.301 104.841 103.52V105.959C104.841 107.004 104.144 108.397 103.099 108.92L94.3902 113.971C93.3451 114.493 92.6484 114.145 92.6484 112.926V110.487C92.6484 109.442 93.3451 108.049 94.3902 107.526L103.099 102.475Z" fill="#252321"/>
<path d="M103.796 104.043C103.622 103.869 103.274 103.869 102.925 104.217L95.436 108.572C94.7393 108.92 94.2168 109.965 94.2168 110.836V112.578C94.2168 112.926 94.391 113.274 94.5651 113.448L104.841 115.539C104.841 115.539 105.364 115.713 105.712 115.364L107.454 114.319C108.151 113.971 108.325 111.01 108.325 111.01L103.796 104.043Z" fill="#1E1B19"/>
<path d="M111.983 113.099L106.932 110.138C107.106 109.964 107.454 109.964 107.628 110.138L112.679 113.099C112.505 113.099 112.331 113.099 111.983 113.099Z" fill="#373431"/>
<path d="M109.022 117.28V115.886L103.971 112.925V114.319C103.971 114.667 104.145 114.841 104.319 114.841L109.37 117.802C109.196 117.802 109.022 117.628 109.022 117.28Z" fill="#1E1B19"/>
<path d="M109.891 114.319L105.014 111.358L106.93 110.313L111.981 113.1L109.891 114.319Z" fill="#2D2B29"/>
<path d="M109.024 115.886L103.973 112.926C103.973 112.403 104.321 111.706 104.844 111.358L109.895 114.319C109.372 114.667 109.024 115.364 109.024 115.886Z" fill="#373431"/>
<path d="M111.982 113.099C112.505 112.751 112.853 113.099 112.853 113.622V115.015C112.853 115.538 112.505 116.234 111.982 116.583L109.892 117.802C109.37 118.15 109.021 117.802 109.021 117.279V115.886C109.021 115.363 109.37 114.667 109.892 114.318L111.982 113.099Z" fill="#252321"/>
<path d="M112.327 113.796L109.715 115.364V117.106L112.676 118.847C112.85 119.022 113.024 118.847 113.024 118.673L113.721 116.583V116.409V115.016C113.721 114.841 113.547 114.667 113.372 114.493L112.327 113.796Z" fill="#788EFF"/>
<path d="M71.224 90.4574L61.6445 85.0581L64.6055 83.3164L74.185 88.8899L71.224 90.4574Z" fill="#3F474F"/>
<path d="M76.9712 92.0254L78.1904 92.7221L78.0162 92.8962L76.797 92.1995L76.9712 92.0254ZM75.9261 92.7221L76.1003 92.5479L75.2294 92.0254L74.7069 91.677L74.5327 91.8512L75.0553 92.1995L75.9261 92.7221ZM74.3586 91.5028L72.9652 90.632L72.791 90.8061L74.1844 91.677L74.3586 91.5028ZM75.7519 91.677L76.4486 92.0254L76.6228 91.8512L75.5778 91.1545L73.836 90.1095L73.6619 90.2836L75.7519 91.677ZM74.8811 90.1095L76.2745 90.9803L76.4486 90.8061L75.0553 89.9353L74.5327 89.5869L74.3586 89.7611L74.8811 90.1095ZM77.842 91.677L78.3645 92.0254L78.5387 91.8512L77.842 91.5028L76.9712 90.9803L76.797 91.1545L77.842 91.677ZM81.848 93.7671L81.1513 93.4187L80.9771 93.5929L81.6738 93.9412L81.848 93.7671ZM80.8029 93.2446L80.2805 92.8962L80.1063 93.0704L80.6288 93.4187L80.8029 93.2446ZM80.9771 94.2896L79.9321 93.7671L79.7579 93.9412L80.8029 94.4638L80.9771 94.2896ZM78.5387 93.9412L78.0162 93.7671L77.842 93.9412L78.3645 94.1154L78.5387 93.9412ZM78.8871 94.2896L78.7129 94.4638L79.9321 95.1605L80.1063 94.9863L78.8871 94.2896Z" fill="#3F474F"/>
<path d="M51.0201 109.442V107.178L42.834 102.301V104.565C42.834 105.088 43.0082 105.436 43.3565 105.611L51.5426 110.487C51.1943 110.313 51.0201 109.965 51.0201 109.442Z" fill="#CE307C"/>
<path d="M52.9368 95.3341C52.5885 95.16 52.2401 95.16 51.8918 95.5083L44.4023 99.8626L52.5885 104.739L60.0779 100.385C60.4262 100.211 60.9488 100.037 61.1229 100.211L52.9368 95.3341Z" fill="#FF398F"/>
<path d="M51.0201 107.352L42.834 102.475C42.834 101.43 43.5307 100.385 44.4015 99.8623L52.5877 104.739C51.7168 105.087 51.0201 106.307 51.0201 107.352Z" fill="#FF398F"/>
<path d="M60.0765 100.385C60.9474 99.8626 61.6441 100.211 61.6441 101.256V103.52C61.6441 104.565 60.9474 105.61 60.0765 106.133L52.5871 110.487C51.7162 111.01 51.0195 110.661 51.0195 109.616V107.352C51.0195 106.307 51.7162 105.262 52.5871 104.739L60.0765 100.385Z" fill="#252321"/>
<path d="M94.7354 119.196L55.7207 96.5532C56.2432 96.2049 56.5916 96.2049 56.9399 96.3791L95.9546 119.022C95.7805 119.022 95.2579 119.021 94.7354 119.196Z" fill="#373431"/>
<path d="M84.2881 129.821V127.382L45.2734 104.74V107.178C45.2734 107.701 45.4476 108.049 45.796 108.223L84.8107 130.866C84.4623 130.866 84.2881 130.343 84.2881 129.821Z" fill="#1E1B19"/>
<path d="M86.0284 124.246L47.0137 101.603L55.7223 96.5522L94.737 119.195L86.0284 124.246Z" fill="#2D2B29"/>
<path d="M84.2881 127.382L45.2734 104.739C45.2734 103.694 45.9701 102.301 47.0152 101.778L86.0299 124.421C85.159 124.769 84.2881 126.163 84.2881 127.382Z" fill="#373431"/>
<path d="M94.7375 119.196C95.7825 118.674 96.4792 119.022 96.4792 120.241V122.68C96.4792 123.725 95.7825 125.118 94.7375 125.64L86.0288 130.691C84.9838 131.214 84.2871 130.866 84.2871 129.646V127.208C84.2871 126.163 84.9838 124.77 86.0288 124.247L94.7375 119.196Z" fill="#252321"/>
<path d="M95.433 120.764C95.2588 120.59 94.9105 120.59 94.5622 120.938L87.0727 125.292C86.376 125.641 85.8535 126.686 85.8535 127.557V129.298C85.8535 129.647 86.0277 129.995 86.2019 130.169L96.478 132.259C96.478 132.259 97.0006 132.433 97.3489 132.085L99.0906 131.04C99.7873 130.692 99.9615 127.731 99.9615 127.731L95.433 120.764Z" fill="#1E1B19"/>
<path d="M103.791 129.996L98.7402 127.035C98.9144 126.861 99.2628 126.861 99.4369 127.035L104.488 129.996C104.14 129.822 103.965 129.822 103.791 129.996Z" fill="#373431"/>
<path d="M100.655 134.002V132.608L95.6035 129.647V131.041C95.6035 131.389 95.7777 131.563 95.9519 131.563L101.003 134.524C100.829 134.524 100.655 134.35 100.655 134.002Z" fill="#1E1B19"/>
<path d="M101.699 131.215L96.6484 128.254L98.7385 127.035L103.79 129.996L101.699 131.215Z" fill="#2D2B29"/>
<path d="M100.653 132.783L95.6016 129.822C95.6016 129.299 95.9499 128.603 96.4724 128.254L101.523 131.215C101.175 131.39 100.653 132.086 100.653 132.783Z" fill="#373431"/>
<path d="M103.789 129.996C104.312 129.647 104.66 129.996 104.66 130.518V131.912C104.66 132.434 104.312 133.131 103.789 133.479L101.699 134.698C101.176 135.047 100.828 134.698 100.828 134.176V132.782C100.828 132.26 101.176 131.563 101.699 131.215L103.789 129.996Z" fill="#252321"/>
<path d="M103.966 130.517L101.354 132.085V133.826L104.314 135.568C104.489 135.742 104.663 135.568 104.663 135.394L105.359 133.304V133.13V131.736C105.359 131.562 105.185 131.388 105.011 131.214L103.966 130.517Z" fill="#FF398F"/>
<path d="M62.8585 107.352L53.4531 101.778L56.4141 100.037L65.8194 105.61L62.8585 107.352Z" fill="#3F474F"/>
<path d="M68.7821 108.92L70.0013 109.616L69.8271 109.791L68.6079 109.094L68.7821 108.92ZM67.737 109.616L67.9112 109.442L67.0403 108.92L66.5178 108.571L66.3436 108.746L66.8662 109.094L67.737 109.616ZM65.9953 108.397L64.6019 107.526L64.4277 107.701L65.8211 108.571L65.9953 108.397ZM67.3887 108.397L68.0854 108.746L68.2595 108.571L67.2145 107.875L65.4728 106.83L65.2986 107.004L67.3887 108.397ZM66.692 106.83L68.0854 107.701L68.2595 107.526L66.8662 106.655L66.3436 106.307L66.1695 106.481L66.692 106.83ZM69.4787 108.571L70.0013 108.92L70.1754 108.746L69.4787 108.397L68.6079 107.875L68.4337 108.049L69.4787 108.571ZM73.6589 110.661L72.9622 110.313L72.788 110.487L73.4847 110.836L73.6589 110.661ZM72.4397 109.965L71.9172 109.616L71.743 109.791L72.2655 110.139L72.4397 109.965ZM72.6138 111.184L71.5688 110.661L71.3946 110.836L72.4397 111.358L72.6138 111.184ZM70.1754 110.661L69.6529 110.487L69.4787 110.661L70.0013 110.836L70.1754 110.661ZM70.698 111.01L70.5238 111.184L71.743 111.881L71.9172 111.706L70.698 111.01Z" fill="#3F474F"/>
</svg>
