<svg width="251" height="159" viewBox="0 0 251 159" fill="none" xmlns="http://www.w3.org/2000/svg">
<rect width="251" height="159" rx="5" fill="#AEB5D1"/>
<path opacity="0.4" d="M54 138.577L60.9863 142.63H104.301L117.436 101.969L54 138.577Z" fill="#7B7794"/>
<path d="M92.4215 76.1204C91.8626 77.3779 85.2955 91.0711 79.1475 105.183C79.1475 105.183 79.1475 105.183 79.0078 105.323L149.57 64.5231C149.57 64.5231 149.57 64.5231 149.709 64.3833C155.997 50.1313 162.424 36.4381 162.983 35.3203L92.4215 76.1204Z" fill="#191715"/>
<path d="M167.594 43.8432L163.961 35.1802C163.961 35.0404 163.821 35.0404 163.821 35.0404L163.681 34.9007L162.703 34.3418C162.564 34.3418 162.564 34.3418 162.424 34.3418L92.002 75.1419C92.002 75.1419 92.1417 75.1419 92.2814 75.1419L93.2595 75.7008L93.3992 75.8405L93.5389 75.9802L97.1718 84.6432C97.3115 84.783 97.1718 85.0624 97.1718 85.0624L167.734 44.2624C167.734 44.2624 167.734 43.9829 167.594 43.8432Z" fill="#373431"/>
<path d="M97.0328 84.6431L93.3999 75.9801C93.3999 75.8403 93.2602 75.7006 93.1205 75.7006L92.1424 75.1417C92.0027 75.002 91.8629 75.1417 91.8629 75.1417C91.8629 75.2814 85.2958 88.9746 78.4492 104.484C78.4492 104.624 78.4492 104.903 78.5889 105.043L78.7287 105.183C78.8684 105.323 79.0081 105.183 79.0081 105.183C85.2958 90.9308 91.7232 77.2376 92.2821 76.1198L92.841 76.3992L96.8931 86.1801C97.1725 86.3198 97.1725 84.9225 97.0328 84.6431Z" fill="#1E1B19"/>
<path d="M104.299 142.629L103.321 142.07C101.924 138.577 100.107 138.298 97.4525 138.717L96.7539 138.298V84.2238L124.699 76.8184L104.299 142.629Z" fill="#1E1B19"/>
<path d="M175.002 101.829L104.301 142.629V88.555L175.002 47.7549V101.829Z" fill="#4563FF"/>
<path d="M104.299 88.5549L96.7539 84.0837L167.455 43.4233L175.001 47.7549L104.299 88.5549Z" fill="#373431"/>
<path d="M98.2891 84.0838L167.454 44.1221L173.601 47.755L104.297 87.7167L98.2891 84.0838Z" fill="#191715"/>
<path d="M118.27 112.449L117.152 111.75V104.484L118.27 105.183V112.449Z" fill="#B6B5B3"/>
<path d="M127.214 107.278L118.271 112.448V105.183L127.214 100.013V107.278Z" fill="#E0DED7"/>
<path d="M118.27 105.182L117.152 104.484L125.955 99.314L127.213 100.013L118.27 105.182Z" fill="url(#paint0_linear_14822_160171)"/>
<path d="M156.135 90.5117L155.018 89.9528V82.687L156.135 83.2459V90.5117Z" fill="#B6B5B3"/>
<path d="M165.079 85.4807L156.137 90.5108V83.245L165.079 78.0752V85.4807Z" fill="#E0DED7"/>
<path d="M156.135 83.2453L155.018 82.6864L163.96 77.5166L165.078 78.0755L156.135 83.2453Z" fill="url(#paint1_linear_14822_160171)"/>
<path d="M159.632 83.3861L112.404 113.288L109.051 37.9751L156.418 8.07373L159.632 83.3861Z" fill="url(#paint2_linear_14822_160171)"/>
<path d="M163.682 84.2248L116.314 111.192L116.873 33.6439L164.241 6.67676L163.682 84.2248Z" fill="url(#paint3_linear_14822_160171)"/>
<path d="M161.026 82.4083L113.52 109.795V32.3863L161.026 5V82.4083Z" fill="#F8F5F4"/>
<path d="M117.158 43.005L116.879 43.1447V41.1886L117.158 41.0488V43.005Z" fill="#7B9FE1"/>
<path d="M117.158 45.6594L116.879 45.7991V43.7032L117.158 43.5635V45.6594Z" fill="#7B9FE1"/>
<path d="M117.158 48.3151L116.879 48.4549V46.359L117.158 46.2192V48.3151Z" fill="#7B9FE1"/>
<path d="M117.158 50.8292L116.879 51.1086V49.0127L117.158 48.873V50.8292Z" fill="#7B9FE1"/>
<path d="M117.158 53.4841L116.879 53.6238V51.5279L117.158 51.3882V53.4841Z" fill="#7B9FE1"/>
<path d="M117.158 56.1389L116.879 56.2786V54.1827L117.158 54.043V56.1389Z" fill="#7B9FE1"/>
<path d="M134.761 32.5257L117.715 42.4462V40.9093L134.761 31.1284V32.5257Z" fill="#44BFE5"/>
<path d="M132.945 36.2977L117.715 45.1005V43.5635L132.945 34.7607V36.2977Z" fill="#86B1FF"/>
<path d="M124.701 43.7035L117.715 47.6158V46.2186L124.701 42.1665V43.7035Z" fill="#86B1FF"/>
<path d="M129.871 43.2846L117.715 50.2709V48.7339L129.871 41.7476V43.2846Z" fill="#97CC66"/>
<path d="M129.172 46.3578L117.715 52.9249V51.3879L129.172 44.8208V46.3578Z" fill="#F25A5A"/>
<path d="M126.797 50.2709L117.715 55.4407V54.0435L126.797 48.7339V50.2709Z" fill="#86B1FF"/>
<path d="M126.235 42.0276C126.235 42.3071 126.095 42.5865 125.816 42.7262C125.536 42.866 125.396 42.7263 125.396 42.4468C125.396 42.1674 125.536 41.8879 125.816 41.7482C126.095 41.6085 126.235 41.7482 126.235 42.0276Z" fill="#86B1FF"/>
<path d="M131.545 41.4684C131.545 41.7478 131.406 42.0273 131.126 42.167C130.847 42.3067 130.707 42.167 130.707 41.8876C130.707 41.6081 130.847 41.3287 131.126 41.189C131.406 41.189 131.545 41.3287 131.545 41.4684Z" fill="#97CC66"/>
<path d="M130.709 44.6824C130.709 44.9619 130.57 45.2413 130.29 45.3811C130.011 45.5208 129.871 45.381 129.871 45.1016C129.871 44.8221 130.011 44.5427 130.29 44.403C130.57 44.2632 130.709 44.403 130.709 44.6824Z" fill="#F25A5A"/>
<path d="M136.301 30.9895C136.301 31.269 136.162 31.5484 135.882 31.6882C135.603 31.8279 135.463 31.6882 135.463 31.4087C135.463 31.1293 135.603 30.8498 135.882 30.7101C136.162 30.5704 136.301 30.7101 136.301 30.9895Z" fill="#44BFE5"/>
<path d="M128.471 48.5955C128.471 48.875 128.331 49.1544 128.052 49.2941C127.773 49.4339 127.633 49.2941 127.633 49.0147C127.633 48.7352 127.773 48.4558 128.052 48.316C128.192 48.1763 128.471 48.3161 128.471 48.5955Z" fill="#86B1FF"/>
<path d="M134.62 34.4835C134.62 34.763 134.48 35.0424 134.2 35.1822C133.921 35.3219 133.781 35.1822 133.781 34.9027C133.781 34.6233 133.921 34.3438 134.2 34.2041C134.34 34.2041 134.62 34.3438 134.62 34.4835Z" fill="#86B1FF"/>
<path d="M117.999 73.4644L117.58 73.7438V67.5959L117.999 67.3164V73.4644Z" fill="#7B9FE1"/>
<path d="M118.419 73.1852L118 73.4647V67.8756L118.419 67.5962V73.1852Z" fill="#2D6AD8"/>
<path d="M119.673 72.4872L119.254 72.7666V66.8981L119.673 66.6187V72.4872Z" fill="#7B9FE1"/>
<path d="M120.233 72.2072L119.674 72.4867V66.0593L120.233 65.7798V72.2072Z" fill="#2D6AD8"/>
<path d="M121.489 71.5081L121.07 71.7876V64.2424L121.489 63.9629V71.5081Z" fill="#7B9FE1"/>
<path d="M121.909 71.2282L121.49 71.5076V67.735L121.909 67.4556V71.2282Z" fill="#2D6AD8"/>
<path d="M123.167 70.3915L122.748 70.6709V63.8243L123.167 63.5449V70.3915Z" fill="#7B9FE1"/>
<path d="M123.727 70.252L123.168 70.5315V64.2438L123.727 63.9644V70.252Z" fill="#2D6AD8"/>
<path d="M128.476 67.457L128.057 67.5967V60.6104L128.476 60.4707V67.457Z" fill="#7B9FE1"/>
<path d="M129.035 67.1778L128.477 67.4572V62.986L129.035 62.7065V67.1778Z" fill="#2D6AD8"/>
<path d="M130.294 66.339L129.875 66.6185V61.0294L130.294 60.75V66.339Z" fill="#7B9FE1"/>
<path d="M130.714 66.0592L130.295 66.3387V61.7277L130.714 61.4482V66.0592Z" fill="#2D6AD8"/>
<path d="M131.972 65.3608L131.553 65.6403V56.9772L131.972 56.6978V65.3608Z" fill="#7B9FE1"/>
<path d="M132.532 65.0813L131.973 65.3608V57.8156L132.532 57.5361V65.0813Z" fill="#2D6AD8"/>
<path d="M133.786 64.3823L133.367 64.6618V56.6974L133.786 56.418V64.3823Z" fill="#7B9FE1"/>
<path d="M134.206 64.1029L133.787 64.3823V57.5358L134.206 57.2563V64.1029Z" fill="#2D6AD8"/>
<path d="M135.605 63.4051L135.186 63.5448V57.9557L135.605 57.6763V63.4051Z" fill="#7B9FE1"/>
<path d="M136.025 63.1252L135.605 63.4046V56.9772L136.025 56.6978V63.1252Z" fill="#2D6AD8"/>
<path d="M124.984 69.4134L124.564 69.6929V67.1778L124.984 67.0381V69.4134Z" fill="#7B9FE1"/>
<path d="M125.404 69.1338L124.984 69.4132V65.0817L125.404 64.8022V69.1338Z" fill="#2D6AD8"/>
<path d="M126.802 68.4336L126.383 68.713V66.1979L126.802 65.9185V68.4336Z" fill="#7B9FE1"/>
<path d="M127.222 68.1533L126.803 68.4328V66.6163L127.222 66.3369V68.1533Z" fill="#2D6AD8"/>
<path d="M136.439 63.265L116.877 74.5828V74.0239L136.439 62.7061V63.265Z" fill="#7B9FE1"/>
<path d="M139.647 61.0308L139.088 61.3102V57.8171L139.647 57.5376V61.0308Z" fill="#7B9FE1"/>
<path d="M140.067 60.7511L139.508 61.0305V58.236L140.067 57.9565V60.7511Z" fill="#2D6AD8"/>
<path d="M141.325 60.052L140.906 60.1917V58.9342L141.325 58.6548V60.052Z" fill="#7B9FE1"/>
<path d="M141.745 59.772L141.326 60.0515V58.235L141.745 57.9556V59.772Z" fill="#2D6AD8"/>
<path d="M143.138 58.9338L142.719 59.2133V55.3009L143.138 55.0215V58.9338Z" fill="#7B9FE1"/>
<path d="M143.558 58.6534L143.139 58.9328V57.1164L143.558 56.8369V58.6534Z" fill="#2D6AD8"/>
<path d="M144.818 57.9559L144.398 58.2353V56.838L144.818 56.5586V57.9559Z" fill="#7B9FE1"/>
<path d="M145.377 57.677L144.818 57.9565V55.7209L145.377 55.4414V57.677Z" fill="#2D6AD8"/>
<path d="M150.126 54.8819L149.707 55.1614V47.8956L150.126 47.7559V54.8819Z" fill="#7B9FE1"/>
<path d="M150.546 54.6022L150.127 54.8816V48.3145L150.546 48.1748V54.6022Z" fill="#2D6AD8"/>
<path d="M151.945 53.904L151.525 54.1835V44.9616L151.945 44.6821V53.904Z" fill="#7B9FE1"/>
<path d="M152.364 53.6246L151.945 53.904V45.1012L152.364 44.8218V53.6246Z" fill="#2D6AD8"/>
<path d="M153.618 52.9261L153.199 53.2055V46.359L153.618 46.2192V52.9261Z" fill="#7B9FE1"/>
<path d="M154.178 52.6468L153.619 52.9263V47.0577L154.178 46.7783V52.6468Z" fill="#2D6AD8"/>
<path d="M155.441 51.808L155.021 52.0875V46.9176L155.441 46.6382V51.808Z" fill="#7B9FE1"/>
<path d="M155.861 51.6679L155.441 51.8076V47.6159L155.861 47.3364V51.6679Z" fill="#2D6AD8"/>
<path d="M157.114 50.8305L156.695 51.11V48.4552L157.114 48.3154V50.8305Z" fill="#7B9FE1"/>
<path d="M157.674 50.5511L157.115 50.8305V48.5949L157.674 48.3154V50.5511Z" fill="#2D6AD8"/>
<path d="M146.632 56.9785L146.213 57.258V52.9264L146.632 52.647V56.9785Z" fill="#7B9FE1"/>
<path d="M147.052 56.6981L146.633 56.9775V51.9474L147.052 51.668V56.6981Z" fill="#2D6AD8"/>
<path d="M148.312 56.0004L147.893 56.1401V52.0881L148.312 51.8086V56.0004Z" fill="#7B9FE1"/>
<path d="M148.871 55.7207L148.312 56.0001V52.507L148.871 52.2275V55.7207Z" fill="#2D6AD8"/>
<path d="M158.091 50.6902L138.529 62.008V61.5888L158.091 50.271V50.6902Z" fill="#7B9FE1"/>
<path d="M155.578 19.5321C152.784 17.1568 147.753 19.3924 144.26 24.5623C140.767 29.7321 140.208 36.0198 143.003 38.3952C145.797 40.7705 150.827 38.5349 154.321 33.365C157.814 28.1952 158.373 22.0472 155.578 19.5321ZM152.085 31.5486C150.129 34.4828 147.334 35.7403 145.658 34.3431C144.121 32.9458 144.4 29.4527 146.356 26.5184C148.312 23.5842 151.107 22.3266 152.784 23.7239C154.321 25.1212 154.041 28.6143 152.085 31.5486Z" fill="#2D6AD8"/>
<path d="M153.906 33.0855C157.12 28.1951 157.679 22.4663 155.164 20.2307C152.649 17.9951 147.898 20.091 144.684 24.9814C141.471 29.8718 140.912 35.6006 143.427 37.8362C145.942 40.0718 150.693 37.976 153.906 33.0855ZM145.523 25.8198C148.178 21.9074 151.95 20.2307 153.906 22.0472C156.002 23.8636 155.583 28.4746 152.928 32.3869C150.273 36.2992 146.501 37.976 144.545 36.1595C142.449 34.3431 143.008 29.7321 145.523 25.8198Z" fill="#2D6AD8"/>
<path d="M153.765 21.9074C153.765 21.9074 154.463 22.4663 154.603 22.7457L156 21.2087C155.721 20.9293 155.022 20.0909 155.022 19.9512C154.324 19.532 153.206 19.2526 152.368 19.3923L151.809 21.3485C152.367 21.2087 153.206 21.6279 153.765 21.9074Z" fill="#86B1FF"/>
<path d="M146.498 24.5624L146.638 24.4227C148.175 22.746 149.852 21.6282 151.389 21.3487L151.947 19.3926C149.991 19.672 148.035 20.6501 145.939 23.0254C145.939 23.0254 144.821 24.4227 144.682 24.8419L145.66 25.6803C145.939 25.2611 146.219 24.9816 146.498 24.5624Z" fill="#F25A5A"/>
<path d="M153.906 30.7103L155.024 31.1295C156.142 29.0336 156.701 26.798 156.701 24.8418V24.4226C156.701 23.3048 156.421 22.187 155.862 21.3486L154.465 22.8856C154.884 23.5843 155.024 24.2829 155.024 25.261V26.0993C155.164 26.0993 155.164 28.0555 153.906 30.7103Z" fill="#97CC66"/>
<path d="M144.962 38.6749L145.8 36.7188C145.381 36.579 144.822 36.4393 144.542 36.1599C143.285 35.0421 143.005 33.0859 143.425 30.7105L143.704 29.8722C144.123 28.6147 144.682 27.3571 145.521 26.0996L144.542 25.2612C143.425 26.9379 142.726 28.6146 142.307 30.2914L142.027 30.7105V31.1297C141.468 34.064 141.888 36.579 143.425 37.9763C143.844 38.2558 144.403 38.5352 144.962 38.6749Z" fill="#44BFE5"/>
<path d="M154.042 33.2257C157.395 28.1956 157.954 22.3271 155.299 20.0915C152.645 17.7161 147.754 19.9517 144.541 24.8422C141.187 29.8723 140.628 35.7408 143.283 37.9764C145.938 40.3517 150.689 38.2559 154.042 33.2257ZM144.541 24.9819C147.754 20.0915 152.505 17.9956 155.02 20.2312C157.535 22.4668 157.116 28.1956 153.763 33.086C150.549 37.9764 145.798 40.0723 143.283 37.8367C140.768 35.6011 141.327 29.8723 144.541 24.9819Z" fill="#2D6AD8"/>
<path d="M153.062 32.3874C155.717 28.4751 156.136 23.8641 154.04 22.0477C151.944 20.2312 148.172 21.9079 145.657 25.8203C143.002 29.7326 142.583 34.3436 144.679 36.16C146.635 37.8367 150.407 36.16 153.062 32.3874ZM145.657 25.96C148.172 22.1874 151.805 20.5107 153.761 22.3271C155.717 24.0038 155.298 28.6148 152.783 32.2477C150.268 36.0203 146.635 37.697 144.679 35.8805C142.722 34.0641 143.142 29.5929 145.657 25.96Z" fill="#2D6AD8"/>
<path d="M153.902 33.0857C154.322 32.5268 154.601 31.9679 154.88 31.2693L153.763 30.8501C153.483 31.2693 153.204 31.8282 152.924 32.2474C150.968 35.1816 148.034 36.998 145.938 36.7186L145.1 38.6748C147.894 39.0939 151.387 36.8583 153.902 33.0857Z" fill="#86B1FF"/>
<path d="M131.41 70.6702L116.879 79.0538V76.6785L131.41 68.2949V70.6702Z" fill="#2D6AD8"/>
<path d="M118.276 78.2152L116.879 79.0535V76.6782L118.276 75.8398V78.2152Z" fill="#F25A5A"/>
<path d="M144.684 62.9852L130.152 71.3688V68.9934L144.684 60.6099V62.9852Z" fill="#2D6AD8"/>
<path d="M131.55 70.6694L130.152 71.368V68.9927L131.55 68.1543V70.6694Z" fill="#97CC66"/>
<path d="M157.955 55.3006L143.424 63.6842V61.3089L157.955 52.9253V55.3006Z" fill="#2D6AD8"/>
<path d="M144.821 62.9857L143.424 63.6843V61.309L144.821 60.6104V62.9857Z" fill="#44BFE5"/>
<path d="M117.571 59.7732C117.571 60.0527 117.291 60.4719 117.152 60.6116C116.872 60.7513 116.732 60.6116 116.732 60.3321C116.732 60.0527 117.012 59.6335 117.152 59.4938C117.291 59.3541 117.571 59.4938 117.571 59.7732Z" fill="#7B9FE1"/>
<path d="M117.571 62.4279C117.571 62.7074 117.291 63.1266 117.152 63.2663C116.872 63.406 116.732 63.2663 116.732 62.9868C116.732 62.7074 116.872 62.2882 117.152 62.1485C117.291 62.0088 117.571 62.0088 117.571 62.4279Z" fill="#7B9FE1"/>
<path d="M140.067 46.7781C140.067 47.0575 139.787 47.4767 139.648 47.6164C139.368 47.7561 139.229 47.6164 139.229 47.337C139.229 47.0575 139.508 46.6383 139.648 46.4986C139.927 46.3589 140.067 46.3589 140.067 46.7781Z" fill="#7B9FE1"/>
<path d="M140.067 49.2933C140.067 49.5727 139.787 49.9919 139.648 50.1316C139.368 50.2714 139.229 50.1316 139.229 49.8522C139.229 49.5727 139.508 49.1535 139.648 49.0138C139.927 48.8741 140.067 49.0138 140.067 49.2933Z" fill="#7B9FE1"/>
<path d="M129.168 53.6249L130.565 52.7865V52.6468L129.168 53.4851V53.6249ZM123.16 57.118L126.234 55.3015V55.1619L123.16 56.9783V57.118ZM126.373 55.1619L128.889 53.7646V53.6249L126.373 55.0221V55.1619ZM122.88 57.2578V56.9783L118.549 59.4933V59.6331L122.88 57.2578ZM130.845 52.6468L132.801 51.529V51.3892L130.845 52.507V52.6468ZM118.689 58.9344L120.086 58.0961V57.9564L118.689 58.7947V58.9344ZM131.264 51.3892V51.529L132.941 50.5509V50.4111L131.264 51.3892ZM127.91 53.4851L130.984 51.6687V51.529L127.91 53.3454V53.4851ZM126.373 54.4632L127.771 53.6249V53.4851L126.373 54.3235V54.4632ZM124.417 55.581L126.094 54.6029V54.4632L124.417 55.4413V55.581ZM120.365 57.9564L124.278 55.7208V55.581L120.365 57.8166V57.9564Z" fill="#7B9FE1"/>
<path d="M126.513 56.6992V56.8389L129.028 55.4416V55.3019L126.513 56.6992ZM126.234 56.9786V56.8389L123.16 58.6554V58.795L126.234 56.9786ZM126.234 57.5375V57.6773L127.91 56.6992V56.5595L126.234 57.5375ZM128.19 56.4197V56.5595L129.587 55.7211V55.5814L128.19 56.4197ZM132.801 53.7649L129.727 55.5814V55.7211L132.801 53.9046V53.7649ZM121.902 60.332V60.1923L118.689 62.0088V62.1485L121.902 60.332ZM131.963 53.4855L129.168 55.1622V55.3019L131.963 53.6252V53.4855ZM122.88 58.795V58.6554L118.549 61.1704V61.3101L122.88 58.795ZM132.242 53.3457V53.4855L133.919 52.5074V52.3677L132.242 53.3457ZM125.954 57.9567V57.817L122.042 60.0526V60.1923L125.954 57.9567Z" fill="#7B9FE1"/>
<path d="M145.657 43.9837L148.731 42.1673V42.0275L145.657 43.844V43.9837ZM149.01 42.0275L151.525 40.6303V40.4906L149.01 41.8878V42.0275ZM145.517 44.1234V43.9837L141.186 46.4988V46.6385L145.517 44.1234ZM141.186 45.8002L142.583 44.9618V44.8221L141.186 45.6604V45.8002ZM153.761 38.255V38.3947L155.438 37.4166V37.2769L153.761 38.255ZM150.547 40.3508L153.621 38.5344V38.3947L150.547 40.2111V40.3508ZM148.87 41.3289L150.268 40.4906V40.3508L148.87 41.1892V41.3289ZM147.054 42.4467L148.731 41.4686V41.3289L147.054 42.307V42.4467ZM142.862 44.8221L146.775 42.5865V42.4467L142.862 44.6824V44.8221Z" fill="#7B9FE1"/>
<path d="M150.828 42.7259V42.8657L153.343 41.4684V41.189L150.828 42.7259Z" fill="#7B9FE1"/>
<path d="M147.75 45.2413V45.381L149.427 44.4029V44.2632L147.75 45.2413Z" fill="#7B9FE1"/>
<path d="M150.545 42.8667L147.471 44.5434V44.8229L150.545 43.0064V42.8667Z" fill="#7B9FE1"/>
<path d="M152.364 42.5869L149.709 44.1239V44.2636L152.364 42.8663V42.5869Z" fill="#7B9FE1"/>
<path d="M147.334 44.9616V44.6821L141.186 48.1753V48.4547L147.334 44.9616Z" fill="#7B9FE1"/>
<path d="M153.619 41.0498V41.3292L155.016 40.4909V40.2114L153.619 41.0498Z" fill="#7B9FE1"/>
<path d="M143.421 47.8961V47.7563L141.186 49.0139V49.1536L143.421 47.8961Z" fill="#7B9FE1"/>
<path d="M147.472 45.3813L143.699 47.6169V47.7567L147.472 45.521V45.3813Z" fill="#7B9FE1"/>
<path d="M155.158 40.0716V40.3511L156.276 39.6524V39.5127L155.158 40.0716Z" fill="#7B9FE1"/>
<path d="M129.446 32.1067V31.8272L135.175 28.6135V28.893L129.446 32.1067ZM127.909 32.9451V32.6656L129.027 32.1067V32.3861L127.909 32.9451ZM121.342 36.8574V36.5779L127.49 33.0848V33.3642L121.342 36.8574ZM116.871 39.3725V39.093L120.783 36.8574V37.1368L116.871 39.3725ZM132.101 28.6135L137.83 25.3998V25.6793L132.101 28.893V28.6135ZM138.249 25.1204L140.625 23.7231V24.0026L138.249 25.3998V25.1204ZM130.564 29.7314V29.4519L131.682 28.893V29.1725L130.564 29.7314ZM123.997 33.6437V33.3642L130.145 29.8711V30.1505L123.997 33.6437ZM116.871 37.6958V37.4163L123.578 33.6437V33.9231L116.871 37.6958ZM154.457 14.3615V14.082L157.811 12.1258V12.4053L154.457 14.3615ZM149.986 17.0163V16.7368L154.038 14.3615V14.6409L149.986 17.0163ZM147.192 18.693V18.4135L149.567 17.0163V17.2957L147.192 18.693ZM142.72 21.208V20.9286L146.772 18.5533V18.8327L142.72 21.208ZM138.529 23.5834V23.3039L142.162 21.208V21.4875L138.529 23.5834ZM133.638 26.3779V26.0985L138.109 23.5834V23.8629L133.638 26.3779ZM128.888 29.1725V28.893L133.219 26.3779V26.6574L128.888 29.1725ZM122.879 32.6656V32.3861L128.468 29.1725V29.4519L122.879 32.6656ZM116.871 36.1588V35.8793L122.32 32.6656V32.9451L116.871 36.1588ZM148.729 16.1779V15.8985L157.811 10.5889V10.8683L148.729 16.1779ZM144.118 18.8327V18.5533L148.17 16.1779V16.4574L144.118 18.8327ZM139.227 21.6272V21.3478L143.699 18.8327V19.1122L139.227 21.6272ZM136.852 23.0245V22.745L138.808 21.6272V21.9067L136.852 23.0245ZM134.057 24.7012V24.4218L136.433 23.0245V23.3039L134.057 24.7012ZM127.909 28.1944V27.9149L133.638 24.7012V24.9807L127.909 28.1944ZM126.372 29.0327V28.7533L127.49 28.1944V28.4738L126.372 29.0327ZM119.805 32.9451V32.6656L125.953 29.1725V29.4519L119.805 32.9451ZM116.871 34.6218V34.3423L119.246 32.9451V33.2245L116.871 34.6218Z" fill="#7B9FE1"/>
<path d="M147.611 59.6339L145.375 60.8914V60.612L147.611 59.3545V59.6339Z" fill="#E1E9F4"/>
<path d="M148.87 58.9352L148.031 59.4941V59.2147L148.87 58.6558V58.9352Z" fill="#E1E9F4"/>
<path d="M146.633 61.4504L145.375 62.149V61.8695L146.633 61.1709V61.4504Z" fill="#E1E9F4"/>
<path d="M149.707 59.6339L146.912 61.1709V60.8914L149.707 59.3545V59.6339Z" fill="#E1E9F4"/>
<path d="M151.523 58.5157L149.986 59.4938V59.2143L151.523 58.376V58.5157Z" fill="#E1E9F4"/>
<path d="M134.476 67.318L132.24 68.5755V68.2961L134.476 67.0386V67.318Z" fill="#E1E9F4"/>
<path d="M135.735 66.4801L134.896 67.039V66.7596L135.735 66.2007V66.4801Z" fill="#E1E9F4"/>
<path d="M133.498 68.9953L132.24 69.6939V69.4145L133.498 68.7158V68.9953Z" fill="#E1E9F4"/>
<path d="M136.572 67.1788L133.777 68.8556V68.5761L136.572 66.8994V67.1788Z" fill="#E1E9F4"/>
<path d="M138.389 66.2004L136.852 67.0387V66.7593L138.389 65.9209V66.2004Z" fill="#E1E9F4"/>
<path d="M121.343 74.8634L119.107 76.121V75.8415L121.343 74.584V74.8634Z" fill="#E1E9F4"/>
<path d="M122.602 74.1642L121.764 74.5834V74.4437L122.602 73.8848V74.1642Z" fill="#E1E9F4"/>
<path d="M120.365 76.5397L119.107 77.2384V76.9589L120.365 76.2603V76.5397Z" fill="#E1E9F4"/>
<path d="M123.439 74.8634L120.645 76.4004V76.121L123.439 74.584V74.8634Z" fill="#E1E9F4"/>
<path d="M125.256 73.7458L123.719 74.5841V74.3047L125.256 73.4663V73.7458Z" fill="#E1E9F4"/>
<defs>
<linearGradient id="paint0_linear_14822_160171" x1="117.115" y1="102.246" x2="127.163" y2="102.246" gradientUnits="userSpaceOnUse">
<stop stop-color="#F0EFEC"/>
<stop offset="1" stop-color="#F7F6F3"/>
</linearGradient>
<linearGradient id="paint1_linear_14822_160171" x1="154.993" y1="80.3776" x2="165.04" y2="80.3776" gradientUnits="userSpaceOnUse">
<stop stop-color="#F0EFEC"/>
<stop offset="1" stop-color="#F7F6F3"/>
</linearGradient>
<linearGradient id="paint2_linear_14822_160171" x1="142.663" y1="77.9434" x2="118.933" y2="28.6307" gradientUnits="userSpaceOnUse">
<stop stop-color="#DEDBD9"/>
<stop offset="1" stop-color="#F8F5F4"/>
</linearGradient>
<linearGradient id="paint3_linear_14822_160171" x1="139.588" y1="62.0237" x2="153.557" y2="0.593219" gradientUnits="userSpaceOnUse">
<stop stop-color="#DEDBD9"/>
<stop offset="1" stop-color="#F8F5F4"/>
</linearGradient>
</defs>
</svg>
