<svg width="251" height="159" viewBox="0 0 251 159" fill="none" xmlns="http://www.w3.org/2000/svg">
<rect width="251" height="159" rx="5" fill="#AEB5D1"/>
<g opacity="0.4">
<path d="M163.617 90.6734L123.83 68.8228L75.2363 96.8699L129.7 128.178H169.977L163.617 90.6734Z" fill="#ADA6A3"/>
<path d="M142.578 98.0123L102.791 76.1616L54.1973 104.209L108.498 135.517H148.938L142.578 98.0123Z" fill="#ADA6A3"/>
<path d="M121.381 105.35L81.5932 83.499L33 111.546L87.3005 142.855H127.741L121.381 105.35Z" fill="#7B7794"/>
</g>
<path d="M182.694 36.5363V120.025L133.938 91.8152V8.32617L182.694 36.5363Z" fill="#D2CFCC"/>
<path d="M181.393 104.371V39.9603L134.268 12.5654V92.304L169.49 112.687L181.393 104.371Z" fill="#F8F5F4"/>
<path d="M180.742 104.86V40.286L133.453 13.0542V92.7928L168.838 113.176L180.742 104.86Z" fill="#F8F5F4"/>
<path d="M179.925 105.512V40.7752L132.8 13.5435L132.637 93.282L168.022 113.665L179.925 105.512Z" fill="#F8F5F4"/>
<path d="M179.11 106.001V41.2645L131.984 14.0327V93.6082L167.369 114.154L179.11 106.001Z" fill="#F8F5F4"/>
<path d="M178.294 106.654L178.457 41.5912L131.168 14.3594V94.098L166.716 114.644L178.294 106.654Z" fill="#F8F5F4"/>
<path d="M177.642 107.143V42.0804L130.354 14.8486V94.5872L165.902 115.133L177.642 107.143Z" fill="#F8F5F4"/>
<path d="M165.251 115.46L176.829 107.796V42.5697L129.703 15.3379V95.0765L165.251 115.623V115.46Z" fill="#F8F5F4"/>
<path d="M165.25 115.46L176.012 108.285V43.0589L128.887 15.6641V95.4026L164.435 115.949L165.25 115.46Z" fill="#F8F5F4"/>
<path d="M165.251 115.46L175.361 108.774V43.3851L128.072 16.1533V95.8919L163.783 116.438L165.251 115.46Z" fill="#F8F5F4"/>
<path d="M165.252 115.459L174.547 109.426V43.8739L127.421 16.6421L127.258 96.3807L162.969 116.927L165.252 115.459Z" fill="#F8F5F4"/>
<path d="M165.252 115.459L173.731 109.915V44.3626L126.605 17.1309V96.7064L162.317 117.416L165.252 115.459Z" fill="#F8F5F4"/>
<path d="M165.251 115.459L172.915 110.404L173.078 44.6893L125.789 17.4575V97.1961L161.5 117.905L165.251 115.459Z" fill="#F8F5F4"/>
<path d="M165.252 115.459L172.263 110.894V45.1786L124.975 17.9468V97.6854L160.686 118.231L165.252 115.459Z" fill="#F8F5F4"/>
<path d="M165.25 115.459L171.446 111.546V45.6678L124.32 18.436V98.1746L160.031 118.721L165.25 115.459Z" fill="#F8F5F4"/>
<path d="M120.566 16.1533V99.6424L169.975 128.179V44.6896L120.566 16.1533Z" fill="#D2CFCC"/>
<path d="M169.977 44.6894V128.178L184 120.025V36.5361L169.977 44.6894ZM177.804 107.143C176.01 108.121 174.705 107.306 174.705 105.349C174.705 103.393 176.173 100.947 177.804 99.9683C179.597 98.9899 180.902 99.8052 180.902 101.762C180.902 103.719 179.597 106.165 177.804 107.143Z" fill="#E9E6E6"/>
<path d="M181.879 91.1629L172.584 96.544V50.0706L181.879 44.6895V91.1629Z" fill="#F8F5F4"/>
<path d="M177.799 107.144C176.006 108.122 174.701 107.307 174.701 105.35C174.701 103.394 176.169 100.948 177.799 99.9693C179.593 98.9909 180.898 99.8062 180.898 101.763C180.898 103.72 179.593 106.166 177.799 107.144Z" fill="#2D2B29"/>
<path d="M180.088 100.293L179.599 99.9673C180.088 100.293 180.414 100.783 180.414 101.761C180.414 103.555 179.273 105.675 177.642 106.49C176.827 106.979 176.175 106.979 175.686 106.653L176.175 106.979C176.664 107.305 177.316 107.305 178.132 106.816C179.599 106.001 180.904 103.881 180.904 102.087C180.904 101.109 180.577 100.456 180.088 100.293Z" fill="#B7BBBC"/>
<path d="M180.087 99.1531C179.435 98.8269 178.62 98.8269 177.641 99.3161C175.847 100.458 174.217 103.067 174.217 105.186C174.217 106.328 174.543 106.98 175.195 107.306L175.684 107.632C175.032 107.306 174.706 106.491 174.706 105.513C174.706 103.393 176.174 100.784 178.13 99.6423C179.109 99.1531 179.924 98.99 180.576 99.4792L180.087 99.1531Z" fill="#B7BBBC"/>
<path d="M178.129 99.6422C176.336 100.784 174.705 103.393 174.705 105.513C174.705 107.632 176.173 108.448 178.129 107.469C179.923 106.328 181.554 103.719 181.554 101.599C181.554 99.4791 180.086 98.6638 178.129 99.6422ZM178.293 106.654C176.825 107.469 175.52 106.817 175.52 105.023C175.52 103.23 176.662 101.11 178.293 100.294C179.76 99.4791 181.065 100.131 181.065 101.925C180.902 103.719 179.76 105.839 178.293 106.654Z" fill="#CFD2D3"/>
<path d="M134.59 8L133.938 8.32613L182.694 36.5363L169.975 43.8742L121.219 15.664L120.566 16.1532L169.975 44.6895L183.999 36.5363L134.59 8Z" fill="#F8F5F4"/>
<path d="M161.66 43.8747L161.497 127.364L112.74 99.1536V15.6646L161.66 43.8747Z" fill="#5E78E5"/>
<path d="M160.357 111.709V47.1356L113.068 19.9038V99.6424L148.453 120.025L160.357 111.709Z" fill="#F8F5F4"/>
<path d="M159.543 112.198V47.6244L112.417 20.3926L112.254 100.131L147.639 120.514L159.543 112.198Z" fill="#F8F5F4"/>
<path d="M158.725 112.85V48.1136L111.6 20.8818V100.62L146.985 121.003L158.725 112.85Z" fill="#F8F5F4"/>
<path d="M158.074 113.339V48.6024L110.785 21.2075V100.946L146.17 121.492L158.074 113.339Z" fill="#F8F5F4"/>
<path d="M157.257 113.992V48.9291L110.132 21.6973L109.969 101.436L145.517 121.982L157.257 113.992Z" fill="#F8F5F4"/>
<path d="M156.444 114.481V49.4183L109.318 22.1865V101.925L144.866 122.471L156.444 114.481Z" fill="#F8F5F4"/>
<path d="M144.215 122.797L155.63 114.97L155.793 49.9076L108.504 22.6758V102.251L144.052 122.797H144.215Z" fill="#F8F5F4"/>
<path d="M144.214 122.797L154.976 115.623V50.2337L107.688 23.002V102.741L143.399 123.287L144.214 122.797Z" fill="#F8F5F4"/>
<path d="M144.212 122.798L154.159 116.112V50.723L107.033 23.4912V103.23L142.581 123.776L144.212 122.798Z" fill="#F8F5F4"/>
<path d="M144.215 122.797L153.346 116.601V51.2118L106.221 23.98V103.719L141.769 124.265L144.215 122.797Z" fill="#F8F5F4"/>
<path d="M144.216 122.797L152.695 117.253V51.701L105.406 24.3062V104.045L141.117 124.754L144.216 122.797Z" fill="#F8F5F4"/>
<path d="M144.215 122.797L151.879 117.742V52.0272L104.753 24.7954L104.59 104.534L140.301 125.08L144.215 122.797Z" fill="#F8F5F4"/>
<path d="M144.214 122.797L151.063 118.231V52.5165L103.938 25.2847V105.023L139.649 125.569L144.214 122.797Z" fill="#F8F5F4"/>
<path d="M144.213 122.798L150.247 118.721L150.41 53.0062L103.121 25.7744V105.35L138.832 126.059L144.213 122.798Z" fill="#F8F5F4"/>
<path d="M99.3672 23.4917V106.981L148.939 135.517V52.028L99.3672 23.4917Z" fill="#5E78E5"/>
<path d="M148.939 52.0277V135.517L162.963 127.364V43.8745L148.939 52.0277ZM156.603 114.481C154.81 115.46 153.505 114.645 153.505 112.688C153.505 110.731 154.973 108.285 156.603 107.307C158.397 106.328 159.702 107.144 159.702 109.1C159.865 111.057 158.397 113.503 156.603 114.481Z" fill="#788EFF"/>
<path d="M160.679 98.5012L151.385 103.719V57.409L160.679 52.0278V98.5012Z" fill="#F8F5F4"/>
<path d="M156.6 114.482C154.806 115.461 153.502 114.646 153.502 112.689C153.502 110.732 154.97 108.286 156.6 107.308C158.394 106.329 159.698 107.145 159.698 109.101C159.861 111.058 158.394 113.504 156.6 114.482Z" fill="#2D2B29"/>
<path d="M159.051 107.633L158.562 107.307C159.051 107.633 159.377 108.122 159.377 109.1C159.377 110.894 158.236 113.014 156.605 113.829C155.79 114.318 155.138 114.318 154.648 113.992L155.138 114.318C155.627 114.645 156.279 114.645 157.094 114.155C158.562 113.34 159.866 111.22 159.866 109.426C159.866 108.448 159.54 107.796 159.051 107.633Z" fill="#B7BBBC"/>
<path d="M158.888 106.491C158.236 106.165 157.42 106.165 156.442 106.655C154.648 107.796 153.018 110.405 153.018 112.525C153.018 113.666 153.344 114.319 153.996 114.645L154.485 114.971C153.833 114.645 153.507 113.829 153.507 112.851C153.507 110.731 154.974 108.122 156.931 106.981C157.91 106.491 158.725 106.328 159.377 106.818L158.888 106.491Z" fill="#B7BBBC"/>
<path d="M157.096 106.981C155.303 108.122 153.672 110.731 153.672 112.851C153.672 114.971 155.139 115.786 157.096 114.808C158.89 113.666 160.521 111.057 160.521 108.937C160.521 106.818 158.89 106.002 157.096 106.981ZM157.096 113.992C155.629 114.808 154.324 114.155 154.324 112.362C154.324 110.568 155.466 108.448 157.096 107.633C158.564 106.818 159.868 107.47 159.868 109.263C159.868 111.057 158.564 113.177 157.096 113.992Z" fill="#CFD2D3"/>
<path d="M113.391 15.3384L112.738 15.6645L161.658 43.8747L148.939 51.2126L100.019 23.0024L99.3672 23.4916L148.939 52.0279L162.962 43.8747L113.391 15.3384Z" fill="#92ACFF"/>
<path d="M140.464 51.2136V134.703L91.5449 106.492L91.708 23.0034L140.464 51.2136Z" fill="#FF0029"/>
<path d="M139.159 119.047V54.4735L92.0332 27.2417V106.98L127.255 127.363L139.159 119.047Z" fill="#F8F5F4"/>
<path d="M138.342 119.536L138.506 54.9623L91.2168 27.7305V107.469L126.602 127.852L138.342 119.536Z" fill="#F8F5F4"/>
<path d="M137.693 120.188V55.4515L90.4043 28.2197V107.795L125.789 128.341L137.693 120.188Z" fill="#F8F5F4"/>
<path d="M136.88 120.677V55.7772L89.7539 28.5454V108.284L125.139 128.83L136.88 120.677Z" fill="#F8F5F4"/>
<path d="M136.065 121.166V56.2665L88.9395 29.0347V108.773L124.324 129.319L136.065 121.166Z" fill="#F8F5F4"/>
<path d="M135.412 121.819V56.7562L88.123 29.5244V109.263L123.671 129.646L135.412 121.819Z" fill="#F8F5F4"/>
<path d="M123.02 130.136L134.597 122.309V57.2459L87.4717 29.8511L87.3086 109.59L123.02 130.136Z" fill="#F8F5F4"/>
<path d="M123.018 130.135L133.78 122.961V57.5716L86.6543 30.3398V110.078L122.202 130.625L123.018 130.135Z" fill="#F8F5F4"/>
<path d="M123.017 130.135L132.964 123.45L133.127 58.0609L85.8379 30.8291V110.568L121.386 131.114L123.017 130.135Z" fill="#F8F5F4"/>
<path d="M123.019 130.135L132.314 123.939V58.5497L85.0254 31.3179V110.893L120.737 131.603L123.019 130.135Z" fill="#F8F5F4"/>
<path d="M123.015 130.135L131.495 124.591V58.8758L84.3691 31.644V111.383L119.917 132.092L123.015 130.135Z" fill="#F8F5F4"/>
<path d="M123.018 130.135L130.682 125.08V59.3646L83.5566 32.1328V111.871L119.268 132.418L123.018 130.135Z" fill="#F8F5F4"/>
<path d="M123.019 130.136L130.031 125.57V59.8548L82.7422 32.623V112.362L118.453 132.908L123.019 130.136Z" fill="#F8F5F4"/>
<path d="M123.018 130.136L129.215 126.059V60.3441L82.0888 32.9492L81.9258 112.688L117.8 133.397L123.018 130.136Z" fill="#F8F5F4"/>
<path d="M78.3349 30.8306L78.1719 114.32L127.744 142.856L128.07 59.2038L78.3349 30.8306Z" fill="#FF0029"/>
<path d="M127.744 59.3661V142.855L141.768 134.702V51.2129L127.744 59.3661ZM135.571 121.82C133.778 122.798 132.473 121.983 132.473 120.026C132.473 118.069 133.941 115.623 135.571 114.645C137.365 113.667 138.669 114.482 138.669 116.439C138.669 118.396 137.365 120.678 135.571 121.82Z" fill="#FF0029"/>
<path d="M139.481 105.84L130.35 111.058V64.7473L139.481 59.3662V105.84Z" fill="#F8F5F4"/>
<path d="M135.897 121.821C134.103 122.799 132.799 121.984 132.799 120.027C132.799 118.07 134.266 115.624 135.897 114.646C137.691 113.668 138.995 114.483 138.995 116.44C139.158 118.397 137.691 120.842 135.897 121.821Z" fill="#2D2B29"/>
<path d="M137.856 114.809L137.367 114.482C137.856 114.809 138.182 115.298 138.182 116.276C138.182 118.07 137.041 120.19 135.41 121.005C134.595 121.494 133.942 121.494 133.453 121.168L133.942 121.494C134.432 121.82 135.084 121.82 135.899 121.331C137.367 120.516 138.671 118.396 138.671 116.602C138.671 115.787 138.345 115.135 137.856 114.809Z" fill="#B7BBBC"/>
<path d="M137.855 113.83C137.202 113.504 136.387 113.504 135.409 113.993C133.615 115.135 131.984 117.744 131.984 119.864C131.984 121.005 132.311 121.657 132.963 121.984L133.452 122.31C132.8 121.984 132.474 121.168 132.474 120.19C132.474 118.07 133.941 115.461 135.898 114.32C136.876 113.83 137.692 113.667 138.344 114.156L137.855 113.83Z" fill="#B7BBBC"/>
<path d="M135.897 114.319C134.103 115.46 132.473 118.07 132.473 120.189C132.473 122.309 133.94 123.124 135.897 122.146C137.691 121.005 139.321 118.396 139.321 116.276C139.321 114.156 137.854 113.178 135.897 114.319ZM135.897 121.331C134.429 122.146 133.125 121.494 133.125 119.7C133.125 117.906 134.266 115.787 135.897 114.971C137.365 114.156 138.669 114.808 138.669 116.602C138.669 118.396 137.528 120.515 135.897 121.331Z" fill="#CFD2D3"/>
<path d="M92.3575 22.6768L91.7053 23.0029L140.462 51.2131L127.743 58.551L78.9862 30.3408L78.334 30.83L127.743 59.3663L141.766 51.2131L92.3575 22.6768Z" fill="#FF0029"/>
</svg>
