<svg width="18" height="18" viewBox="0 0 18 18" fill="none" xmlns="http://www.w3.org/2000/svg">
<path fill-rule="evenodd" clip-rule="evenodd" d="M17.2636 2.12132C17.6541 1.7308 17.6541 1.09763 17.2636 0.707108C16.8731 0.316584 16.2399 0.316584 15.8494 0.707108L8.77734 7.77915L1.70711 0.70891C1.31658 0.318386 0.683417 0.318386 0.292893 0.70891C-0.0976311 1.09943 -0.0976311 1.7326 0.292893 2.12312L7.36313 9.19336L0.293032 16.2635C-0.0974914 16.654 -0.0974919 17.2871 0.293032 17.6777C0.683557 18.0682 1.31672 18.0682 1.70725 17.6777L8.77734 10.6076L15.8492 17.6795C16.2398 18.07 16.8729 18.07 17.2635 17.6795C17.654 17.2889 17.654 16.6558 17.2635 16.2653L10.1916 9.19336L17.2636 2.12132Z" fill="#4563FF"/>
</svg>
