<svg width="408" height="346" viewBox="0 0 408 346" fill="none" xmlns="http://www.w3.org/2000/svg">
<g filter="url(#filter0_f_1_170765)">
<circle cx="234" cy="171" r="170" fill="#4563FF" fill-opacity="0.2"/>
</g>
<ellipse cx="237" cy="174.5" rx="170" ry="171.5" fill="#4563FF"/>
<rect x="34.1777" y="14.5" width="627" height="194" rx="3.27404" fill="white"/>
<rect x="58.2075" y="40.1469" width="240.784" height="35.476" rx="1.88702" fill="white"/>
<path d="M77.8646 61.3849L76.0998 56.059H77.0298L78.5198 60.5395H78.953L80.3902 56.059H81.3307L79.5448 61.3849H77.8646ZM82.4303 53.7025H83.3285V61.3849H82.4303V53.7025ZM88.4539 61.3849V60.8248H88.2215C87.8551 61.2898 87.3021 61.5223 86.5624 61.5223C85.9777 61.5223 85.5127 61.3532 85.1675 61.0151C84.8223 60.6769 84.6497 60.2683 84.6497 59.7893C84.6497 59.3032 84.8188 58.8875 85.1569 58.5423C85.4951 58.1971 86.0058 58.0245 86.6892 58.0245H88.4222V57.8132C88.4222 57.475 88.3166 57.2073 88.1052 57.01C87.8939 56.8057 87.5663 56.7036 87.1225 56.7036C86.3475 56.7036 85.9354 56.9607 85.8861 57.475H84.9879C85.0231 56.9889 85.2309 56.6085 85.6113 56.3337C85.9988 56.059 86.4955 55.9216 87.1013 55.9216C87.7847 55.9216 88.3201 56.0801 88.7076 56.3971C89.1021 56.7142 89.2993 57.1686 89.2993 57.7603V61.3849H88.4539ZM86.7843 60.7403C87.2281 60.7403 87.6121 60.5959 87.9361 60.307C88.2602 60.0112 88.4222 59.6519 88.4222 59.2292V58.7431H86.8266C85.9741 58.7431 85.5479 59.0812 85.5479 59.7575C85.5479 60.0605 85.6536 60.3 85.8649 60.4761C86.0833 60.6522 86.3898 60.7403 86.7843 60.7403ZM94.8117 53.7025H95.7099V61.3849H94.8434V60.8143H94.6109C94.2305 61.2863 93.6774 61.5223 92.9518 61.5223C92.2332 61.5223 91.6626 61.2581 91.2399 60.7297C90.8243 60.2014 90.6164 59.5321 90.6164 58.722C90.6164 57.8977 90.8243 57.2249 91.2399 56.7036C91.6626 56.1823 92.2332 55.9216 92.9518 55.9216C93.6704 55.9216 94.2128 56.1576 94.5792 56.6296H94.8117V53.7025ZM93.1526 60.7403C93.7091 60.7403 94.1248 60.5466 94.3995 60.1591C94.6813 59.7716 94.8222 59.2926 94.8222 58.722C94.8222 58.1513 94.6813 57.6723 94.3995 57.2848C94.1248 56.8973 93.7091 56.7036 93.1526 56.7036C92.6313 56.7036 92.2262 56.8903 91.9374 57.2637C91.6556 57.63 91.5147 58.1161 91.5147 58.722C91.5147 59.3278 91.6556 59.8174 91.9374 60.1908C92.2262 60.5571 92.6313 60.7403 93.1526 60.7403ZM98.3965 54.6747H97.4454V53.7025H98.3965V54.6747ZM98.3648 56.059V61.3849H97.4665V56.059H98.3648ZM105.719 55.9216C106.31 55.9216 106.751 56.1013 107.04 56.4605C107.328 56.8128 107.473 57.3059 107.473 57.94V61.3849H106.575V58.0351C106.575 57.1615 106.233 56.7247 105.55 56.7247C105.141 56.7247 104.82 56.8692 104.588 57.158C104.362 57.4398 104.25 57.8096 104.25 58.2676V61.3849H103.352V58.0562C103.352 57.1686 103.013 56.7247 102.337 56.7247C101.907 56.7247 101.58 56.8832 101.354 57.2003C101.136 57.5173 101.027 57.9294 101.027 58.4366V61.3849H100.129V56.059H100.995V56.5768H101.228C101.509 56.14 101.96 55.9216 102.58 55.9216C103.235 55.9216 103.704 56.1576 103.986 56.6296H104.218C104.542 56.1576 105.042 55.9216 105.719 55.9216ZM110.068 54.6747H109.117V53.7025H110.068V54.6747ZM110.036 56.059V61.3849H109.138V56.059H110.036ZM114.843 56.059V56.9044H114.4C113.864 56.9044 113.445 57.0629 113.142 57.3799C112.846 57.6969 112.698 58.1443 112.698 58.722V61.3849H111.8V56.059H112.667V56.693H112.899C113.237 56.2703 113.751 56.059 114.442 56.059H114.843ZM122.425 62.0612L122.731 62.5896C121.914 63.125 120.994 63.3927 119.973 63.3927C118.684 63.3927 117.659 63.0017 116.898 62.2197C116.137 61.4448 115.757 60.4198 115.757 59.1446C115.757 57.6864 116.218 56.4746 117.141 55.5095C118.064 54.5373 119.258 54.0512 120.723 54.0512C121.893 54.0512 122.879 54.3929 123.682 55.0762C124.485 55.7596 124.887 56.6825 124.887 57.8449C124.887 58.7043 124.675 59.4441 124.253 60.064C123.837 60.6839 123.266 60.9939 122.541 60.9939C121.942 60.9939 121.554 60.7931 121.378 60.3916H121.178C120.804 60.7931 120.35 60.9939 119.814 60.9939C119.286 60.9939 118.87 60.8248 118.567 60.4867C118.272 60.1485 118.124 59.6801 118.124 59.0812C118.124 58.3627 118.331 57.7498 118.747 57.2425C119.17 56.7283 119.716 56.4711 120.385 56.4711C120.653 56.4711 120.885 56.524 121.082 56.6296C121.287 56.7353 121.428 56.8551 121.505 56.9889H121.717L121.801 56.6191H122.551L122.108 59.3032L122.086 59.5251C122.065 59.673 122.055 59.7787 122.055 59.8421C122.055 60.2084 122.255 60.3916 122.657 60.3916C123.08 60.3916 123.443 60.1591 123.745 59.6941C124.055 59.2292 124.21 58.6022 124.21 57.8132C124.21 56.8762 123.883 56.1154 123.228 55.5306C122.572 54.9459 121.706 54.6535 120.628 54.6535C119.423 54.6535 118.423 55.0692 117.627 55.9005C116.831 56.7318 116.433 57.8096 116.433 59.1341C116.433 59.6272 116.503 60.0887 116.644 60.5184C116.785 60.9481 116.993 61.3321 117.268 61.6702C117.549 62.0154 117.926 62.2867 118.398 62.4839C118.87 62.6882 119.409 62.7904 120.015 62.7904C120.861 62.7904 121.664 62.5473 122.425 62.0612ZM119.973 60.307C120.389 60.307 120.734 60.1274 121.009 59.7681C121.283 59.4018 121.421 58.9368 121.421 58.3732C121.421 57.9012 121.326 57.5807 121.135 57.4116C120.945 57.2425 120.699 57.158 120.396 57.158C119.98 57.158 119.638 57.3552 119.371 57.7498C119.103 58.1372 118.969 58.5775 118.969 59.0707C118.969 59.4511 119.05 59.754 119.212 59.9795C119.374 60.1979 119.628 60.307 119.973 60.307ZM131.93 55.9216C132.522 55.9216 132.963 56.1013 133.251 56.4605C133.54 56.8128 133.685 57.3059 133.685 57.94V61.3849H132.786V58.0351C132.786 57.1615 132.445 56.7247 131.761 56.7247C131.353 56.7247 131.032 56.8692 130.8 57.158C130.574 57.4398 130.462 57.8096 130.462 58.2676V61.3849H129.563V58.0562C129.563 57.1686 129.225 56.7247 128.549 56.7247C128.119 56.7247 127.792 56.8832 127.566 57.2003C127.348 57.5173 127.239 57.9294 127.239 58.4366V61.3849H126.34V56.059H127.207V56.5768H127.439C127.721 56.14 128.172 55.9216 128.792 55.9216C129.447 55.9216 129.916 56.1576 130.197 56.6296H130.43C130.754 56.1576 131.254 55.9216 131.93 55.9216ZM138.721 61.3849V60.8248H138.488C138.122 61.2898 137.569 61.5223 136.829 61.5223C136.245 61.5223 135.78 61.3532 135.434 61.0151C135.089 60.6769 134.917 60.2683 134.917 59.7893C134.917 59.3032 135.086 58.8875 135.424 58.5423C135.762 58.1971 136.273 58.0245 136.956 58.0245H138.689V57.8132C138.689 57.475 138.584 57.2073 138.372 57.01C138.161 56.8057 137.833 56.7036 137.389 56.7036C136.614 56.7036 136.202 56.9607 136.153 57.475H135.255C135.29 56.9889 135.498 56.6085 135.878 56.3337C136.266 56.059 136.762 55.9216 137.368 55.9216C138.052 55.9216 138.587 56.0801 138.975 56.3971C139.369 56.7142 139.566 57.1686 139.566 57.7603V61.3849H138.721ZM137.051 60.7403C137.495 60.7403 137.879 60.5959 138.203 60.307C138.527 60.0112 138.689 59.6519 138.689 59.2292V58.7431H137.094C136.241 58.7431 135.815 59.0812 135.815 59.7575C135.815 60.0605 135.921 60.3 136.132 60.4761C136.35 60.6522 136.657 60.7403 137.051 60.7403ZM142.162 54.6747H141.211V53.7025H142.162V54.6747ZM142.13 56.059V61.3849H141.232V56.059H142.13ZM143.894 53.7025H144.792V61.3849H143.894V53.7025ZM147.572 61.3849H146.473V60.1591H147.572V61.3849ZM152.293 56.059V56.9044H151.85C151.314 56.9044 150.895 57.0629 150.592 57.3799C150.296 57.6969 150.148 58.1443 150.148 58.722V61.3849H149.25V56.059H150.116V56.693H150.349C150.687 56.2703 151.201 56.059 151.892 56.059H152.293ZM153.386 56.059H154.284V59.2503C154.284 60.2296 154.735 60.7192 155.637 60.7192C156.095 60.7192 156.472 60.5466 156.768 60.2014C157.071 59.8562 157.222 59.437 157.222 58.9439V56.059H158.12V61.3849H157.254V60.8143H157.021C156.866 61.0256 156.648 61.1982 156.366 61.3321C156.084 61.4589 155.767 61.5223 155.415 61.5223C154.767 61.5223 154.267 61.3391 153.915 60.9728C153.562 60.5994 153.386 60.0887 153.386 59.4405V56.059Z" fill="black"/>
<rect x="58.2075" y="40.1469" width="240.784" height="35.476" rx="1.88702" stroke="#4563FF" stroke-width="0.754808"/>
<path d="M58.1848 31.7187H58.9019C58.9925 32.0156 59.1585 32.2495 59.4001 32.4206C59.6466 32.5867 59.9536 32.6697 60.3209 32.6697C60.8795 32.6697 61.3097 32.4861 61.6117 32.1187C61.9136 31.7463 62.0746 31.2784 62.0947 30.7148H59.5661V30.1109H62.0872C62.0318 29.5826 61.8582 29.1498 61.5664 28.8127C61.2745 28.4755 60.8619 28.3069 60.3285 28.3069C59.629 28.3069 59.1736 28.5912 58.9623 29.1599H58.2452C58.361 28.702 58.6 28.3447 58.9623 28.088C59.3296 27.8264 59.7825 27.6955 60.3209 27.6955C61.1009 27.6955 61.7098 27.9572 62.1476 28.4805C62.5854 28.9988 62.8043 29.6681 62.8043 30.4883C62.8043 31.3035 62.5829 31.9728 62.14 32.4961C61.7022 33.0195 61.0959 33.2811 60.3209 33.2811C59.7523 33.2811 59.2793 33.1402 58.9019 32.8584C58.5295 32.5716 58.2905 32.1917 58.1848 31.7187ZM63.3187 33.183V32.5791H63.447C63.7137 32.5791 63.9049 32.4559 64.0206 32.2093C64.1364 31.9577 64.1942 31.5048 64.1942 30.8506V29.3788H67.1078V33.183H66.4587V29.9373H64.7905V30.8657C64.7905 31.7262 64.6849 32.3275 64.4735 32.6697C64.2672 33.0119 63.925 33.183 63.447 33.183H63.3187ZM71.6396 31.0544V31.2733H68.7412C68.7512 31.7312 68.8594 32.0885 69.0657 32.3452C69.2721 32.5968 69.5689 32.7226 69.9564 32.7226C70.4798 32.7226 70.8018 32.5263 70.9226 32.1338H71.5717C71.5063 32.476 71.3327 32.7528 71.0509 32.9641C70.7741 33.1754 70.4093 33.2811 69.9564 33.2811C69.3777 33.2811 68.9248 33.0924 68.5978 32.715C68.2707 32.3376 68.1071 31.847 68.1071 31.2431C68.1071 30.6494 68.2707 30.1738 68.5978 29.8166C68.9248 29.4593 69.3727 29.2806 69.9413 29.2806C70.4798 29.2806 70.8949 29.4517 71.1868 29.7939C71.4786 30.1311 71.6296 30.5512 71.6396 31.0544ZM69.9262 29.8392C69.5991 29.8392 69.3375 29.9247 69.1412 30.0958C68.945 30.2619 68.8242 30.4758 68.7789 30.7374H70.9754C70.9553 30.4808 70.8521 30.2669 70.6659 30.0958C70.4798 29.9247 70.2332 29.8392 69.9262 29.8392ZM75.2653 33.183L74.4199 31.5073H73.2801V33.183H72.6385V29.3788H73.2801V30.9488H74.435L75.2275 29.3788H75.8993L74.9709 31.2129L75.9521 33.183H75.2653ZM76.4697 29.9373V29.3788H79.7456V29.9373H78.4322V33.183H77.7906V29.9373H76.4697ZM82.4186 29.8392C82.0211 29.8392 81.7217 29.9776 81.5204 30.2543C81.3242 30.5311 81.226 30.8733 81.226 31.2809C81.226 31.6885 81.3242 32.0307 81.5204 32.3074C81.7217 32.5842 82.0211 32.7226 82.4186 32.7226C82.791 32.7226 83.0778 32.5917 83.2791 32.3301C83.4854 32.0634 83.5886 31.7136 83.5886 31.2809C83.5886 30.8481 83.4854 30.5009 83.2791 30.2392C83.0778 29.9725 82.791 29.8392 82.4186 29.8392ZM80.592 29.3788H81.211V29.7864H81.377C81.6487 29.4492 82.0438 29.2806 82.5621 29.2806C83.0753 29.2806 83.4804 29.4693 83.7773 29.8467C84.0792 30.2241 84.2302 30.7022 84.2302 31.2809C84.2302 31.8696 84.0792 32.3502 83.7773 32.7226C83.4804 33.0949 83.0753 33.2811 82.5621 33.2811C82.0387 33.2811 81.6513 33.1125 81.3997 32.7754H81.2336V34.6926H80.592V29.3788ZM85.5 29.8467C85.8372 29.4693 86.2951 29.2806 86.8738 29.2806C87.4525 29.2806 87.9079 29.4693 88.24 29.8467C88.5771 30.2241 88.7457 30.7022 88.7457 31.2809C88.7457 31.8596 88.5771 32.3376 88.24 32.715C87.9079 33.0924 87.4525 33.2811 86.8738 33.2811C86.2951 33.2811 85.8372 33.0924 85.5 32.715C85.1679 32.3376 85.0019 31.8596 85.0019 31.2809C85.0019 30.7022 85.1679 30.2241 85.5 29.8467ZM85.9605 32.3074C86.1718 32.5842 86.4762 32.7226 86.8738 32.7226C87.2713 32.7226 87.5758 32.5842 87.7871 32.3074C87.9984 32.0256 88.1041 31.6834 88.1041 31.2809C88.1041 30.8783 87.9984 30.5387 87.7871 30.2619C87.5758 29.9801 87.2713 29.8392 86.8738 29.8392C86.4762 29.8392 86.1718 29.9801 85.9605 30.2619C85.7491 30.5387 85.6434 30.8783 85.6434 31.2809C85.6434 31.6834 85.7491 32.0256 85.9605 32.3074ZM93.1361 33.183H92.4945V31.5073H90.3886V33.183H89.747V29.3788H90.3886V30.9488H92.4945V29.3788H93.1361V33.183ZM97.7652 33.183H97.1236V31.5073H95.0177V33.183H94.3761V29.3788H95.0177V30.9488H97.1236V29.3788H97.7652V33.183ZM101.428 33.183V32.7829H101.262C101 33.1151 100.605 33.2811 100.077 33.2811C99.6594 33.2811 99.3272 33.1604 99.0807 32.9188C98.8341 32.6773 98.7108 32.3854 98.7108 32.0432C98.7108 31.696 98.8316 31.3991 99.0731 31.1526C99.3147 30.906 99.6795 30.7827 100.168 30.7827H101.405V30.6317C101.405 30.3902 101.33 30.199 101.179 30.0581C101.028 29.9122 100.794 29.8392 100.477 29.8392C99.9235 29.8392 99.6292 30.0229 99.5939 30.3902H98.9524C98.9775 30.043 99.126 29.7713 99.3977 29.575C99.6745 29.3788 100.029 29.2806 100.462 29.2806C100.95 29.2806 101.333 29.3939 101.609 29.6203C101.891 29.8467 102.032 30.1713 102.032 30.594V33.183H101.428ZM100.236 32.7226C100.553 32.7226 100.827 32.6194 101.058 32.4131C101.29 32.2017 101.405 31.9451 101.405 31.6432V31.296H100.266C99.6568 31.296 99.3524 31.5375 99.3524 32.0206C99.3524 32.237 99.4279 32.4081 99.5788 32.5339C99.7348 32.6597 99.9537 32.7226 100.236 32.7226ZM104.437 29.3788H106.332V33.183H105.683V31.6809H104.528C104.427 31.6809 104.349 31.6784 104.294 31.6734L103.72 33.183H103.048L103.69 31.53C103.297 31.3438 103.101 31.0117 103.101 30.5336C103.101 30.1663 103.214 29.882 103.441 29.6807C103.672 29.4794 104.004 29.3788 104.437 29.3788ZM105.683 29.9222H104.505C104.228 29.9222 104.032 29.9751 103.916 30.0807C103.801 30.1864 103.743 30.3399 103.743 30.5412C103.743 30.7374 103.801 30.8859 103.916 30.9865C104.032 31.0871 104.228 31.1375 104.505 31.1375H105.683V29.9222ZM113.023 33.183H112.381V29.9373H110.305V33.183H109.664V29.3788H113.023V33.183ZM114.528 29.8467C114.865 29.4693 115.323 29.2806 115.901 29.2806C116.48 29.2806 116.936 29.4693 117.268 29.8467C117.605 30.2241 117.773 30.7022 117.773 31.2809C117.773 31.8596 117.605 32.3376 117.268 32.715C116.936 33.0924 116.48 33.2811 115.901 33.2811C115.323 33.2811 114.865 33.0924 114.528 32.715C114.196 32.3376 114.03 31.8596 114.03 31.2809C114.03 30.7022 114.196 30.2241 114.528 29.8467ZM114.988 32.3074C115.199 32.5842 115.504 32.7226 115.901 32.7226C116.299 32.7226 116.603 32.5842 116.815 32.3074C117.026 32.0256 117.132 31.6834 117.132 31.2809C117.132 30.8783 117.026 30.5387 116.815 30.2619C116.603 29.9801 116.299 29.8392 115.901 29.8392C115.504 29.8392 115.199 29.9801 114.988 30.2619C114.777 30.5387 114.671 30.8783 114.671 31.2809C114.671 31.6834 114.777 32.0256 114.988 32.3074ZM118.556 29.3788H119.197V30.4506C119.197 30.5714 119.205 30.667 119.22 30.7374C119.235 30.8028 119.27 30.8783 119.326 30.9639C119.381 31.0494 119.477 31.1123 119.612 31.1526C119.753 31.1928 119.935 31.2129 120.156 31.2129C120.488 31.2129 120.805 31.1802 121.107 31.1148V29.3788H121.756V33.183H121.107V31.6809C120.77 31.7514 120.408 31.7866 120.02 31.7866C119.753 31.7866 119.524 31.7614 119.333 31.7111C119.147 31.6558 119.004 31.5929 118.903 31.5224C118.807 31.4469 118.732 31.3463 118.677 31.2205C118.621 31.0947 118.586 30.9815 118.571 30.8808C118.561 30.7802 118.556 30.6544 118.556 30.5034V29.3788ZM122.539 29.9373V29.3788H125.815V29.9373H124.502V33.183H123.86V29.9373H122.539ZM129.085 33.183V32.7829H128.919C128.657 33.1151 128.262 33.2811 127.734 33.2811C127.316 33.2811 126.984 33.1604 126.737 32.9188C126.491 32.6773 126.367 32.3854 126.367 32.0432C126.367 31.696 126.488 31.3991 126.73 31.1526C126.971 30.906 127.336 30.7827 127.824 30.7827H129.062V30.6317C129.062 30.3902 128.987 30.199 128.836 30.0581C128.685 29.9122 128.451 29.8392 128.134 29.8392C127.58 29.8392 127.286 30.0229 127.251 30.3902H126.609C126.634 30.043 126.783 29.7713 127.054 29.575C127.331 29.3788 127.686 29.2806 128.119 29.2806C128.607 29.2806 128.989 29.3939 129.266 29.6203C129.548 29.8467 129.689 30.1713 129.689 30.594V33.183H129.085ZM127.892 32.7226C128.209 32.7226 128.483 32.6194 128.715 32.4131C128.946 32.2017 129.062 31.9451 129.062 31.6432V31.296H127.922C127.313 31.296 127.009 31.5375 127.009 32.0206C127.009 32.237 127.085 32.4081 127.235 32.5339C127.391 32.6597 127.61 32.7226 127.892 32.7226Z" fill="#4563FF"/>
<path d="M312.134 47.4183H316.452V52.8076H315.772V48.0372H312.813V52.8076H312.134V47.4183ZM318.021 49.4714C318.358 49.094 318.816 48.9053 319.395 48.9053C319.973 48.9053 320.429 49.094 320.761 49.4714C321.098 49.8488 321.267 50.3268 321.267 50.9055C321.267 51.4842 321.098 51.9622 320.761 52.3396C320.429 52.717 319.973 52.9057 319.395 52.9057C318.816 52.9057 318.358 52.717 318.021 52.3396C317.689 51.9622 317.523 51.4842 317.523 50.9055C317.523 50.3268 317.689 49.8488 318.021 49.4714ZM318.481 51.932C318.693 52.2088 318.997 52.3472 319.395 52.3472C319.792 52.3472 320.097 52.2088 320.308 51.932C320.519 51.6502 320.625 51.3081 320.625 50.9055C320.625 50.5029 320.519 50.1633 320.308 49.8865C320.097 49.6047 319.792 49.4638 319.395 49.4638C318.997 49.4638 318.693 49.6047 318.481 49.8865C318.27 50.1633 318.164 50.5029 318.164 50.9055C318.164 51.3081 318.27 51.6502 318.481 51.932ZM324.842 51.6603H325.483C325.408 52.0427 325.229 52.3472 324.947 52.5736C324.671 52.795 324.316 52.9057 323.883 52.9057C323.31 52.9057 322.857 52.7196 322.525 52.3472C322.197 51.9698 322.034 51.4892 322.034 50.9055C322.034 50.3168 322.197 49.8362 322.525 49.4638C322.852 49.0914 323.305 48.9053 323.883 48.9053C324.321 48.9053 324.676 49.016 324.947 49.2374C325.224 49.4538 325.395 49.7431 325.461 50.1054H324.819C324.683 49.6777 324.371 49.4638 323.883 49.4638C323.476 49.4638 323.171 49.5997 322.97 49.8714C322.774 50.1381 322.676 50.4778 322.676 50.8904C322.676 51.3081 322.776 51.6553 322.977 51.932C323.179 52.2088 323.481 52.3472 323.883 52.3472C324.417 52.3472 324.736 52.1182 324.842 51.6603ZM326.01 52.8076V52.2038H326.138C326.405 52.2038 326.596 52.0805 326.712 51.8339C326.827 51.5823 326.885 51.1294 326.885 50.4753V49.0034H329.799V52.8076H329.15V49.5619H327.482V50.4904C327.482 51.3508 327.376 51.9522 327.165 52.2943C326.958 52.6365 326.616 52.8076 326.138 52.8076H326.01ZM334.331 50.6791V50.898H331.432C331.442 51.3559 331.551 51.7131 331.757 51.9698C331.963 52.2214 332.26 52.3472 332.648 52.3472C333.171 52.3472 333.493 52.1509 333.614 51.7584H334.263C334.197 52.1006 334.024 52.3774 333.742 52.5887C333.465 52.8001 333.1 52.9057 332.648 52.9057C332.069 52.9057 331.616 52.717 331.289 52.3396C330.962 51.9622 330.798 51.4716 330.798 50.8678C330.798 50.274 330.962 49.7985 331.289 49.4412C331.616 49.0839 332.064 48.9053 332.632 48.9053C333.171 48.9053 333.586 49.0764 333.878 49.4185C334.17 49.7557 334.321 50.1759 334.331 50.6791ZM332.617 49.4638C332.29 49.4638 332.029 49.5494 331.832 49.7205C331.636 49.8865 331.515 50.1004 331.47 50.362H333.667C333.646 50.1054 333.543 49.8915 333.357 49.7205C333.171 49.5494 332.924 49.4638 332.617 49.4638ZM340.004 51.6603H340.646C340.57 52.0427 340.392 52.3472 340.11 52.5736C339.833 52.795 339.478 52.9057 339.046 52.9057C338.472 52.9057 338.019 52.7196 337.687 52.3472C337.36 51.9698 337.196 51.4892 337.196 50.9055C337.196 50.3168 337.36 49.8362 337.687 49.4638C338.014 49.0914 338.467 48.9053 339.046 48.9053C339.483 48.9053 339.838 49.016 340.11 49.2374C340.387 49.4538 340.558 49.7431 340.623 50.1054H339.982C339.846 49.6777 339.534 49.4638 339.046 49.4638C338.638 49.4638 338.334 49.5997 338.132 49.8714C337.936 50.1381 337.838 50.4778 337.838 50.8904C337.838 51.3081 337.939 51.6553 338.14 51.932C338.341 52.2088 338.643 52.3472 339.046 52.3472C339.579 52.3472 339.899 52.1182 340.004 51.6603ZM341.867 49.4714C342.204 49.094 342.662 48.9053 343.24 48.9053C343.819 48.9053 344.274 49.094 344.607 49.4714C344.944 49.8488 345.112 50.3268 345.112 50.9055C345.112 51.4842 344.944 51.9622 344.607 52.3396C344.274 52.717 343.819 52.9057 343.24 52.9057C342.662 52.9057 342.204 52.717 341.867 52.3396C341.535 51.9622 341.368 51.4842 341.368 50.9055C341.368 50.3268 341.535 49.8488 341.867 49.4714ZM342.327 51.932C342.538 52.2088 342.843 52.3472 343.24 52.3472C343.638 52.3472 343.942 52.2088 344.154 51.932C344.365 51.6502 344.471 51.3081 344.471 50.9055C344.471 50.5029 344.365 50.1633 344.154 49.8865C343.942 49.6047 343.638 49.4638 343.24 49.4638C342.843 49.4638 342.538 49.6047 342.327 49.8865C342.116 50.1633 342.01 50.5029 342.01 50.9055C342.01 51.3081 342.116 51.6502 342.327 51.932ZM348.547 52.8076L347.603 51.215H347.332L346.365 52.8076H345.663L346.848 50.8602L345.784 49.0034H346.463L347.339 50.513H347.611L348.501 49.0034H349.173L348.094 50.8376L349.271 52.8076H348.547ZM351.994 49.4638C351.597 49.4638 351.297 49.6022 351.096 49.879C350.9 50.1557 350.802 50.4979 350.802 50.9055C350.802 51.3131 350.9 51.6553 351.096 51.932C351.297 52.2088 351.597 52.3472 351.994 52.3472C352.367 52.3472 352.654 52.2164 352.855 51.9547C353.061 51.688 353.164 51.3383 353.164 50.9055C353.164 50.4727 353.061 50.1255 352.855 49.8639C352.654 49.5972 352.367 49.4638 351.994 49.4638ZM350.168 49.0034H350.787V49.411H350.953C351.225 49.0738 351.62 48.9053 352.138 48.9053C352.651 48.9053 353.056 49.094 353.353 49.4714C353.655 49.8488 353.806 50.3268 353.806 50.9055C353.806 51.4943 353.655 51.9748 353.353 52.3472C353.056 52.7196 352.651 52.9057 352.138 52.9057C351.614 52.9057 351.227 52.7372 350.975 52.4H350.809V54.3172H350.168V49.0034ZM357.235 52.8076V52.4076H357.068C356.807 52.7397 356.412 52.9057 355.883 52.9057C355.466 52.9057 355.134 52.785 354.887 52.5434C354.641 52.3019 354.517 52.01 354.517 51.6679C354.517 51.3206 354.638 51.0238 354.88 50.7772C355.121 50.5306 355.486 50.4073 355.974 50.4073H357.212V50.2564C357.212 50.0148 357.136 49.8236 356.985 49.6827C356.834 49.5368 356.601 49.4638 356.283 49.4638C355.73 49.4638 355.436 49.6475 355.4 50.0148H354.759C354.784 49.6676 354.932 49.3959 355.204 49.1996C355.481 49.0034 355.836 48.9053 356.268 48.9053C356.756 48.9053 357.139 49.0185 357.416 49.2449C357.697 49.4714 357.838 49.7959 357.838 50.2186V52.8076H357.235ZM356.042 52.3472C356.359 52.3472 356.633 52.244 356.865 52.0377C357.096 51.8264 357.212 51.5697 357.212 51.2678V50.9206H356.072C355.463 50.9206 355.159 51.1621 355.159 51.6452C355.159 51.8616 355.234 52.0327 355.385 52.1585C355.541 52.2843 355.76 52.3472 356.042 52.3472ZM362.402 52.8076H361.761V51.1319H359.655V52.8076H359.013V49.0034H359.655V50.5734H361.761V49.0034H362.402V52.8076ZM366.941 50.6791V50.898H364.042C364.052 51.3559 364.161 51.7131 364.367 51.9698C364.573 52.2214 364.87 52.3472 365.258 52.3472C365.781 52.3472 366.103 52.1509 366.224 51.7584H366.873C366.807 52.1006 366.634 52.3774 366.352 52.5887C366.075 52.8001 365.71 52.9057 365.258 52.9057C364.679 52.9057 364.226 52.717 363.899 52.3396C363.572 51.9622 363.408 51.4716 363.408 50.8678C363.408 50.274 363.572 49.7985 363.899 49.4412C364.226 49.0839 364.674 48.9053 365.242 48.9053C365.781 48.9053 366.196 49.0764 366.488 49.4185C366.78 49.7557 366.931 50.1759 366.941 50.6791ZM365.227 49.4638C364.9 49.4638 364.639 49.5494 364.442 49.7205C364.246 49.8865 364.125 50.1004 364.08 50.362H366.277C366.256 50.1054 366.153 49.8915 365.967 49.7205C365.781 49.5494 365.534 49.4638 365.227 49.4638ZM371.329 52.8076H370.687V51.1319H368.581V52.8076H367.94V49.0034H368.581V50.5734H370.687V49.0034H371.329V52.8076ZM373.475 52.8076H372.569V49.0034H373.195V51.9471H373.361L375.029 49.0034H375.965V52.8076H375.339V49.8639H375.173L373.475 52.8076ZM378.436 49.0034H380.33V52.8076H379.681V51.3055H378.526C378.425 51.3055 378.347 51.303 378.292 51.298L377.718 52.8076H377.047L377.688 51.1546C377.296 50.9684 377.1 50.6363 377.1 50.1582C377.1 49.7909 377.213 49.5066 377.439 49.3053C377.671 49.104 378.003 49.0034 378.436 49.0034ZM379.681 49.5468H378.503C378.227 49.5468 378.03 49.5997 377.915 49.7054C377.799 49.811 377.741 49.9645 377.741 50.1658C377.741 50.362 377.799 50.5105 377.915 50.6111C378.03 50.7118 378.227 50.7621 378.503 50.7621H379.681V49.5468ZM381.901 52.8076H381.524V51.932H382.309V52.951L381.886 53.6756H381.479L381.901 52.951V52.8076ZM388.997 52.8076H388.356V51.1319H386.25V52.8076H385.608V49.0034H386.25V50.5734H388.356V49.0034H388.997V52.8076ZM392.66 52.8076V52.4076H392.494C392.233 52.7397 391.838 52.9057 391.309 52.9057C390.892 52.9057 390.559 52.785 390.313 52.5434C390.066 52.3019 389.943 52.01 389.943 51.6679C389.943 51.3206 390.064 51.0238 390.305 50.7772C390.547 50.5306 390.912 50.4073 391.4 50.4073H392.638V50.2564C392.638 50.0148 392.562 49.8236 392.411 49.6827C392.26 49.5368 392.026 49.4638 391.709 49.4638C391.156 49.4638 390.861 49.6475 390.826 50.0148H390.185C390.21 49.6676 390.358 49.3959 390.63 49.1996C390.907 49.0034 391.261 48.9053 391.694 48.9053C392.182 48.9053 392.565 49.0185 392.842 49.2449C393.123 49.4714 393.264 49.7959 393.264 50.2186V52.8076H392.66ZM391.468 52.3472C391.785 52.3472 392.059 52.244 392.291 52.0377C392.522 51.8264 392.638 51.5697 392.638 51.2678V50.9206H391.498C390.889 50.9206 390.585 51.1621 390.585 51.6452C390.585 51.8616 390.66 52.0327 390.811 52.1585C390.967 52.2843 391.186 52.3472 391.468 52.3472ZM396.298 51.7056H396.925C397.03 52.1333 397.37 52.3472 397.944 52.3472C398.291 52.3472 398.565 52.2365 398.766 52.0151C398.973 51.7937 399.086 51.5043 399.106 51.147H397.393V50.6036H399.099C399.068 50.2564 398.955 49.9796 398.759 49.7733C398.568 49.567 398.296 49.4638 397.944 49.4638C397.4 49.4638 397.071 49.6626 396.955 50.0601H396.328C396.404 49.7079 396.583 49.4286 396.864 49.2223C397.146 49.0109 397.503 48.9053 397.936 48.9053C398.5 48.9053 398.945 49.0914 399.272 49.4638C399.599 49.8312 399.763 50.3117 399.763 50.9055C399.763 51.5043 399.599 51.9874 399.272 52.3547C398.945 52.7221 398.497 52.9057 397.929 52.9057C397.501 52.9057 397.139 52.795 396.842 52.5736C396.55 52.3522 396.369 52.0629 396.298 51.7056ZM400.297 49.5619V49.0034H403.573V49.5619H402.26V52.8076H401.618V49.5619H400.297ZM404.625 49.4714C404.962 49.094 405.42 48.9053 405.999 48.9053C406.577 48.9053 407.033 49.094 407.365 49.4714C407.702 49.8488 407.87 50.3268 407.87 50.9055C407.87 51.4842 407.702 51.9622 407.365 52.3396C407.033 52.717 406.577 52.9057 405.999 52.9057C405.42 52.9057 404.962 52.717 404.625 52.3396C404.293 51.9622 404.127 51.4842 404.127 50.9055C404.127 50.3268 404.293 49.8488 404.625 49.4714ZM405.085 51.932C405.297 52.2088 405.601 52.3472 405.999 52.3472C406.396 52.3472 406.701 52.2088 406.912 51.932C407.123 51.6502 407.229 51.3081 407.229 50.9055C407.229 50.5029 407.123 50.1633 406.912 49.8865C406.701 49.6047 406.396 49.4638 405.999 49.4638C405.601 49.4638 405.297 49.6047 405.085 49.8865C404.874 50.1633 404.768 50.5029 404.768 50.9055C404.768 51.3081 404.874 51.6502 405.085 51.932ZM408.406 49.5619V49.0034H411.681V49.5619H410.368V52.8076H409.726V49.5619H408.406ZM416.749 52.8076V52.4076H416.583C416.322 52.7397 415.927 52.9057 415.398 52.9057C414.981 52.9057 414.648 52.785 414.402 52.5434C414.155 52.3019 414.032 52.01 414.032 51.6679C414.032 51.3206 414.153 51.0238 414.394 50.7772C414.636 50.5306 415.001 50.4073 415.489 50.4073H416.727V50.2564C416.727 50.0148 416.651 49.8236 416.5 49.6827C416.349 49.5368 416.115 49.4638 415.798 49.4638C415.245 49.4638 414.95 49.6475 414.915 50.0148H414.274C414.299 49.6676 414.447 49.3959 414.719 49.1996C414.996 49.0034 415.35 48.9053 415.783 48.9053C416.271 48.9053 416.654 49.0185 416.931 49.2449C417.212 49.4714 417.353 49.7959 417.353 50.2186V52.8076H416.749ZM415.557 52.3472C415.874 52.3472 416.148 52.244 416.38 52.0377C416.611 51.8264 416.727 51.5697 416.727 51.2678V50.9206H415.587C414.978 50.9206 414.674 51.1621 414.674 51.6452C414.674 51.8616 414.749 52.0327 414.9 52.1585C415.056 52.2843 415.275 52.3472 415.557 52.3472ZM421.917 52.2491H422.619V53.887H421.993V52.8076H418.702V53.887H418.075V52.2491H418.581C418.893 51.5848 419.049 50.8501 419.049 50.045V49.0034H421.917V52.2491ZM421.275 52.2491V49.5619H419.645V50.045C419.645 50.9055 419.507 51.6402 419.23 52.2491H421.275ZM425.279 49.4638C424.881 49.4638 424.582 49.6022 424.38 49.879C424.184 50.1557 424.086 50.4979 424.086 50.9055C424.086 51.3131 424.184 51.6553 424.38 51.932C424.582 52.2088 424.881 52.3472 425.279 52.3472C425.651 52.3472 425.938 52.2164 426.139 51.9547C426.345 51.688 426.449 51.3383 426.449 50.9055C426.449 50.4727 426.345 50.1255 426.139 49.8639C425.938 49.5972 425.651 49.4638 425.279 49.4638ZM423.452 49.0034H424.071V49.411H424.237C424.509 49.0738 424.904 48.9053 425.422 48.9053C425.935 48.9053 426.34 49.094 426.637 49.4714C426.939 49.8488 427.09 50.3268 427.09 50.9055C427.09 51.4943 426.939 51.9748 426.637 52.3472C426.34 52.7196 425.935 52.9057 425.422 52.9057C424.899 52.9057 424.511 52.7372 424.26 52.4H424.094V54.3172H423.452V49.0034ZM431.394 50.6791V50.898H428.496C428.506 51.3559 428.614 51.7131 428.82 51.9698C429.027 52.2214 429.324 52.3472 429.711 52.3472C430.234 52.3472 430.556 52.1509 430.677 51.7584H431.326C431.261 52.1006 431.087 52.3774 430.806 52.5887C430.529 52.8001 430.164 52.9057 429.711 52.9057C429.132 52.9057 428.679 52.717 428.352 52.3396C428.025 51.9622 427.862 51.4716 427.862 50.8678C427.862 50.274 428.025 49.7985 428.352 49.4412C428.679 49.0839 429.127 48.9053 429.696 48.9053C430.234 48.9053 430.65 49.0764 430.941 49.4185C431.233 49.7557 431.384 50.1759 431.394 50.6791ZM429.681 49.4638C429.354 49.4638 429.092 49.5494 428.896 49.7205C428.7 49.8865 428.579 50.1004 428.534 50.362H430.73C430.71 50.1054 430.607 49.8915 430.421 49.7205C430.234 49.5494 429.988 49.4638 429.681 49.4638ZM434.967 51.6603H435.609C435.533 52.0427 435.355 52.3472 435.073 52.5736C434.796 52.795 434.441 52.9057 434.008 52.9057C433.435 52.9057 432.982 52.7196 432.65 52.3472C432.323 51.9698 432.159 51.4892 432.159 50.9055C432.159 50.3168 432.323 49.8362 432.65 49.4638C432.977 49.0914 433.43 48.9053 434.008 48.9053C434.446 48.9053 434.801 49.016 435.073 49.2374C435.349 49.4538 435.521 49.7431 435.586 50.1054H434.944C434.809 49.6777 434.497 49.4638 434.008 49.4638C433.601 49.4638 433.296 49.5997 433.095 49.8714C432.899 50.1381 432.801 50.4778 432.801 50.8904C432.801 51.3081 432.901 51.6553 433.103 51.932C433.304 52.2088 433.606 52.3472 434.008 52.3472C434.542 52.3472 434.861 52.1182 434.967 51.6603ZM440.402 49.0411C440.961 49.0411 441.401 49.2248 441.723 49.5921C442.045 49.9544 442.206 50.4149 442.206 50.9734C442.206 51.527 442.035 51.9874 441.693 52.3547C441.356 52.7221 440.9 52.9057 440.327 52.9057C439.723 52.9057 439.255 52.707 438.923 52.3094C438.596 51.9119 438.432 51.3433 438.432 50.6036C438.432 50.3168 438.44 50.0601 438.455 49.8337C438.475 49.6072 438.515 49.3707 438.575 49.1242C438.641 48.8776 438.726 48.6688 438.832 48.4977C438.938 48.3215 439.084 48.1681 439.27 48.0372C439.456 47.9064 439.677 47.8209 439.934 47.7806L440.946 47.6145C441.086 47.5944 441.18 47.5667 441.225 47.5315C441.275 47.4963 441.305 47.4258 441.315 47.3202H441.912C441.902 47.5567 441.844 47.7454 441.738 47.8863C441.632 48.0221 441.441 48.1152 441.164 48.1656L439.994 48.3618C439.677 48.4172 439.443 48.5505 439.293 48.7618C439.147 48.9682 439.051 49.2449 439.006 49.5921H439.172C439.328 49.3858 439.501 49.2424 439.693 49.1619C439.889 49.0814 440.125 49.0411 440.402 49.0411ZM439.391 51.9471C439.607 52.2138 439.914 52.3472 440.312 52.3472C440.709 52.3472 441.013 52.2138 441.225 51.9471C441.441 51.6754 441.549 51.3483 441.549 50.9659C441.549 50.5835 441.441 50.2589 441.225 49.9922C441.013 49.7255 440.709 49.5921 440.312 49.5921C439.914 49.5921 439.607 49.7255 439.391 49.9922C439.179 50.2589 439.074 50.5835 439.074 50.9659C439.074 51.3483 439.179 51.6754 439.391 51.9471ZM444.108 54.3172H443.459L444.244 52.4529L442.621 49.0034H443.308L444.47 51.5093H444.659L445.716 49.0034H446.387L444.108 54.3172ZM450.355 52.2491H451.057V53.887H450.431V52.8076H447.14V53.887H446.513V52.2491H447.019C447.331 51.5848 447.487 50.8501 447.487 50.045V49.0034H450.355V52.2491ZM449.713 52.2491V49.5619H448.083V50.045C448.083 50.9055 447.945 51.6402 447.668 52.2491H449.713ZM455.188 50.6791V50.898H452.29C452.3 51.3559 452.408 51.7131 452.615 51.9698C452.821 52.2214 453.118 52.3472 453.505 52.3472C454.029 52.3472 454.351 52.1509 454.471 51.7584H455.12C455.055 52.1006 454.881 52.3774 454.6 52.5887C454.323 52.8001 453.958 52.9057 453.505 52.9057C452.926 52.9057 452.474 52.717 452.147 52.3396C451.819 51.9622 451.656 51.4716 451.656 50.8678C451.656 50.274 451.819 49.7985 452.147 49.4412C452.474 49.0839 452.921 48.9053 453.49 48.9053C454.029 48.9053 454.444 49.0764 454.736 49.4185C455.027 49.7557 455.178 50.1759 455.188 50.6791ZM453.475 49.4638C453.148 49.4638 452.886 49.5494 452.69 49.7205C452.494 49.8865 452.373 50.1004 452.328 50.362H454.524C454.504 50.1054 454.401 49.8915 454.215 49.7205C454.029 49.5494 453.782 49.4638 453.475 49.4638ZM455.669 49.5619V49.0034H458.945V49.5619H457.632V52.8076H456.99V49.5619H455.669ZM312.33 58.4714C312.668 58.094 313.125 57.9053 313.704 57.9053C314.283 57.9053 314.738 58.094 315.07 58.4714C315.407 58.8488 315.576 59.3268 315.576 59.9055C315.576 60.4842 315.407 60.9622 315.07 61.3396C314.738 61.717 314.283 61.9057 313.704 61.9057C313.125 61.9057 312.668 61.717 312.33 61.3396C311.998 60.9622 311.832 60.4842 311.832 59.9055C311.832 59.3268 311.998 58.8488 312.33 58.4714ZM312.791 60.932C313.002 61.2088 313.307 61.3472 313.704 61.3472C314.102 61.3472 314.406 61.2088 314.617 60.932C314.829 60.6502 314.934 60.3081 314.934 59.9055C314.934 59.5029 314.829 59.1633 314.617 58.8865C314.406 58.6047 314.102 58.4638 313.704 58.4638C313.307 58.4638 313.002 58.6047 312.791 58.8865C312.579 59.1633 312.474 59.5029 312.474 59.9055C312.474 60.3081 312.579 60.6502 312.791 60.932ZM316.111 58.5619V58.0034H319.387V58.5619H318.074V61.8076H317.432V58.5619H316.111ZM323.592 61.8076H322.951V58.5619H320.875V61.8076H320.233V58.0034H323.592V61.8076ZM326.66 58.4638C326.262 58.4638 325.963 58.6022 325.761 58.879C325.565 59.1557 325.467 59.4979 325.467 59.9055C325.467 60.3131 325.565 60.6553 325.761 60.932C325.963 61.2088 326.262 61.3472 326.66 61.3472C327.032 61.3472 327.319 61.2164 327.52 60.9547C327.727 60.688 327.83 60.3383 327.83 59.9055C327.83 59.4727 327.727 59.1255 327.52 58.8639C327.319 58.5972 327.032 58.4638 326.66 58.4638ZM324.833 58.0034H325.452V58.411H325.618C325.89 58.0738 326.285 57.9053 326.803 57.9053C327.316 57.9053 327.721 58.094 328.018 58.4714C328.32 58.8488 328.471 59.3268 328.471 59.9055C328.471 60.4943 328.32 60.9748 328.018 61.3472C327.721 61.7196 327.316 61.9057 326.803 61.9057C326.28 61.9057 325.892 61.7372 325.641 61.4H325.475V63.3172H324.833V58.0034ZM331.9 61.8076V61.4076H331.734C331.472 61.7397 331.077 61.9057 330.549 61.9057C330.131 61.9057 329.799 61.785 329.552 61.5434C329.306 61.3019 329.183 61.01 329.183 60.6679C329.183 60.3206 329.303 60.0238 329.545 59.7772C329.786 59.5306 330.151 59.4073 330.639 59.4073H331.877V59.2564C331.877 59.0148 331.802 58.8236 331.651 58.6827C331.5 58.5368 331.266 58.4638 330.949 58.4638C330.395 58.4638 330.101 58.6475 330.066 59.0148H329.424C329.449 58.6676 329.598 58.3959 329.869 58.1996C330.146 58.0034 330.501 57.9053 330.934 57.9053C331.422 57.9053 331.804 58.0185 332.081 58.2449C332.363 58.4714 332.504 58.7959 332.504 59.2186V61.8076H331.9ZM330.707 61.3472C331.024 61.3472 331.299 61.244 331.53 61.0377C331.761 60.8264 331.877 60.5697 331.877 60.2678V59.9206H330.737C330.129 59.9206 329.824 60.1621 329.824 60.6452C329.824 60.8616 329.9 61.0327 330.051 61.1585C330.207 61.2843 330.425 61.3472 330.707 61.3472ZM336.358 59.7093V59.8753C336.544 59.9206 336.693 60.0212 336.803 60.1772C336.919 60.3332 336.977 60.5295 336.977 60.766C336.977 61.4604 336.529 61.8076 335.633 61.8076H333.678V58.0034H335.565C335.948 58.0034 336.242 58.0889 336.449 58.26C336.66 58.4261 336.766 58.6601 336.766 58.962C336.766 59.1381 336.725 59.2916 336.645 59.4224C336.569 59.5533 336.474 59.6489 336.358 59.7093ZM334.313 61.2642H335.596C336.089 61.2642 336.335 61.0755 336.335 60.698C336.335 60.3156 336.089 60.1244 335.596 60.1244H334.313V61.2642ZM334.313 58.5468V59.5809H335.505C335.721 59.5809 335.877 59.5331 335.973 59.4375C336.074 59.3419 336.124 59.2186 336.124 59.0677C336.124 58.7205 335.918 58.5468 335.505 58.5468H334.313ZM337.546 61.8076V61.2038H337.674C337.941 61.2038 338.132 61.0805 338.248 60.8339C338.363 60.5823 338.421 60.1294 338.421 59.4753V58.0034H341.335V61.8076H340.686V58.5619H339.017V59.4904C339.017 60.3508 338.912 60.9522 338.7 61.2943C338.494 61.6365 338.152 61.8076 337.674 61.8076H337.546ZM345.867 59.6791V59.898H342.968C342.978 60.3559 343.086 60.7131 343.293 60.9698C343.499 61.2214 343.796 61.3472 344.183 61.3472C344.707 61.3472 345.029 61.1509 345.15 60.7584H345.799C345.733 61.1006 345.56 61.3774 345.278 61.5887C345.001 61.8001 344.636 61.9057 344.183 61.9057C343.605 61.9057 343.152 61.717 342.825 61.3396C342.498 60.9622 342.334 60.4716 342.334 59.8678C342.334 59.274 342.498 58.7985 342.825 58.4412C343.152 58.0839 343.6 57.9053 344.168 57.9053C344.707 57.9053 345.122 58.0764 345.414 58.4185C345.706 58.7557 345.857 59.1759 345.867 59.6791ZM344.153 58.4638C343.826 58.4638 343.564 58.5494 343.368 58.7205C343.172 58.8865 343.051 59.1004 343.006 59.362H345.202C345.182 59.1054 345.079 58.8915 344.893 58.7205C344.707 58.5494 344.46 58.4638 344.153 58.4638ZM350.255 61.8076H349.613V60.1319H347.507V61.8076H346.865V58.0034H347.507V59.5734H349.613V58.0034H350.255V61.8076ZM351.759 58.4714C352.096 58.094 352.554 57.9053 353.133 57.9053C353.711 57.9053 354.167 58.094 354.499 58.4714C354.836 58.8488 355.004 59.3268 355.004 59.9055C355.004 60.4842 354.836 60.9622 354.499 61.3396C354.167 61.717 353.711 61.9057 353.133 61.9057C352.554 61.9057 352.096 61.717 351.759 61.3396C351.427 60.9622 351.261 60.4842 351.261 59.9055C351.261 59.3268 351.427 58.8488 351.759 58.4714ZM352.219 60.932C352.431 61.2088 352.735 61.3472 353.133 61.3472C353.53 61.3472 353.834 61.2088 354.046 60.932C354.257 60.6502 354.363 60.3081 354.363 59.9055C354.363 59.5029 354.257 59.1633 354.046 58.8865C353.834 58.6047 353.53 58.4638 353.133 58.4638C352.735 58.4638 352.431 58.6047 352.219 58.8865C352.008 59.1633 351.902 59.5029 351.902 59.9055C351.902 60.3081 352.008 60.6502 352.219 60.932ZM361.465 61.8076H360.824V58.5619H358.748V61.8076H358.107V58.0034H361.465V61.8076ZM363.612 61.8076H362.706V58.0034H363.333V60.9471H363.499L365.167 58.0034H366.103V61.8076H365.476V58.8639H365.31L363.612 61.8076ZM369.916 60.6603H370.558C370.483 61.0427 370.304 61.3472 370.022 61.5736C369.745 61.795 369.391 61.9057 368.958 61.9057C368.384 61.9057 367.931 61.7196 367.599 61.3472C367.272 60.9698 367.109 60.4892 367.109 59.9055C367.109 59.3168 367.272 58.8362 367.599 58.4638C367.926 58.0914 368.379 57.9053 368.958 57.9053C369.396 57.9053 369.75 58.016 370.022 58.2374C370.299 58.4538 370.47 58.7431 370.535 59.1054H369.894C369.758 58.6777 369.446 58.4638 368.958 58.4638C368.55 58.4638 368.246 58.5997 368.045 58.8714C367.848 59.1381 367.75 59.4778 367.75 59.8904C367.75 60.3081 367.851 60.6553 368.052 60.932C368.253 61.2088 368.555 61.3472 368.958 61.3472C369.491 61.3472 369.811 61.1182 369.916 60.6603ZM372.156 58.0034V59.2715H373.281C373.739 59.2715 374.091 59.3822 374.338 59.6036C374.589 59.825 374.715 60.1345 374.715 60.532C374.715 60.9346 374.589 61.2491 374.338 61.4755C374.091 61.6969 373.739 61.8076 373.281 61.8076H371.515V58.0034H372.156ZM372.156 61.2491H373.19C373.507 61.2491 373.734 61.1887 373.87 61.0679C374.006 60.9471 374.073 60.7685 374.073 60.532C374.073 60.2955 374.006 60.1168 373.87 59.9961C373.734 59.8753 373.507 59.8149 373.19 59.8149H372.156V61.2491ZM375.628 61.8076V58.0034H376.647L377.583 59.7394H377.749L378.685 58.0034H379.689V61.8076H379.062V58.7506H378.896L378.013 60.381H377.303L376.42 58.7506H376.254V61.8076H375.628ZM381.192 58.4714C381.529 58.094 381.987 57.9053 382.566 57.9053C383.144 57.9053 383.6 58.094 383.932 58.4714C384.269 58.8488 384.438 59.3268 384.438 59.9055C384.438 60.4842 384.269 60.9622 383.932 61.3396C383.6 61.717 383.144 61.9057 382.566 61.9057C381.987 61.9057 381.529 61.717 381.192 61.3396C380.86 60.9622 380.694 60.4842 380.694 59.9055C380.694 59.3268 380.86 58.8488 381.192 58.4714ZM381.652 60.932C381.864 61.2088 382.168 61.3472 382.566 61.3472C382.963 61.3472 383.268 61.2088 383.479 60.932C383.69 60.6502 383.796 60.3081 383.796 59.9055C383.796 59.5029 383.69 59.1633 383.479 58.8865C383.268 58.6047 382.963 58.4638 382.566 58.4638C382.168 58.4638 381.864 58.6047 381.652 58.8865C381.441 59.1633 381.335 59.5029 381.335 59.9055C381.335 60.3081 381.441 60.6502 381.652 60.932ZM390.929 61.2491H391.631V62.887H391.004V61.8076H387.713V62.887H387.087V61.2491H387.592C387.904 60.5848 388.06 59.8501 388.06 59.045V58.0034H390.929V61.2491ZM390.287 61.2491V58.5619H388.657V59.045C388.657 59.9055 388.518 60.6402 388.242 61.2491H390.287ZM392.262 61.8076V61.2038H392.39C392.657 61.2038 392.848 61.0805 392.964 60.8339C393.08 60.5823 393.137 60.1294 393.137 59.4753V58.0034H396.051V61.8076H395.402V58.5619H393.734V59.4904C393.734 60.3508 393.628 60.9522 393.417 61.2943C393.21 61.6365 392.868 61.8076 392.39 61.8076H392.262ZM398.515 58.0034H400.409V61.8076H399.76V60.3055H398.605C398.505 60.3055 398.427 60.303 398.371 60.298L397.798 61.8076H397.126L397.767 60.1546C397.375 59.9684 397.179 59.6363 397.179 59.1582C397.179 58.7909 397.292 58.5066 397.518 58.3053C397.75 58.104 398.082 58.0034 398.515 58.0034ZM399.76 58.5468H398.583C398.306 58.5468 398.11 58.5997 397.994 58.7054C397.878 58.811 397.82 58.9645 397.82 59.1658C397.82 59.362 397.878 59.5105 397.994 59.6111C398.11 59.7118 398.306 59.7621 398.583 59.7621H399.76V58.5468ZM407.1 61.8076H406.459V58.5619H404.383V61.8076H403.741V58.0034H407.1V61.8076ZM408.605 58.4714C408.942 58.094 409.4 57.9053 409.979 57.9053C410.558 57.9053 411.013 58.094 411.345 58.4714C411.682 58.8488 411.851 59.3268 411.851 59.9055C411.851 60.4842 411.682 60.9622 411.345 61.3396C411.013 61.717 410.558 61.9057 409.979 61.9057C409.4 61.9057 408.942 61.717 408.605 61.3396C408.273 60.9622 408.107 60.4842 408.107 59.9055C408.107 59.3268 408.273 58.8488 408.605 58.4714ZM409.066 60.932C409.277 61.2088 409.581 61.3472 409.979 61.3472C410.376 61.3472 410.681 61.2088 410.892 60.932C411.104 60.6502 411.209 60.3081 411.209 59.9055C411.209 59.5029 411.104 59.1633 410.892 58.8865C410.681 58.6047 410.376 58.4638 409.979 58.4638C409.581 58.4638 409.277 58.6047 409.066 58.8865C408.854 59.1633 408.749 59.5029 408.749 59.9055C408.749 60.3081 408.854 60.6502 409.066 60.932ZM416.241 61.2491H416.943V62.887H416.317V61.8076H413.026V62.887H412.399V61.2491H412.905C413.217 60.5848 413.373 59.8501 413.373 59.045V58.0034H416.241V61.2491ZM415.6 61.2491V58.5619H413.969V59.045C413.969 59.9055 413.831 60.6402 413.554 61.2491H415.6ZM417.384 58.5619V58.0034H420.659V58.5619H419.346V61.8076H418.705V58.5619H417.384ZM424.186 59.7093V59.8753C424.372 59.9206 424.52 60.0212 424.631 60.1772C424.747 60.3332 424.804 60.5295 424.804 60.766C424.804 61.4604 424.357 61.8076 423.461 61.8076H421.506V58.0034H423.393C423.775 58.0034 424.07 58.0889 424.276 58.26C424.487 58.4261 424.593 58.6601 424.593 58.962C424.593 59.1381 424.553 59.2916 424.472 59.4224C424.397 59.5533 424.301 59.6489 424.186 59.7093ZM422.14 61.2642H423.423C423.916 61.2642 424.163 61.0755 424.163 60.698C424.163 60.3156 423.916 60.1244 423.423 60.1244H422.14V61.2642ZM422.14 58.5468V59.5809H423.333C423.549 59.5809 423.705 59.5331 423.801 59.4375C423.901 59.3419 423.952 59.2186 423.952 59.0677C423.952 58.7205 423.745 58.5468 423.333 58.5468H422.14ZM429.102 59.6791V59.898H426.203C426.213 60.3559 426.322 60.7131 426.528 60.9698C426.734 61.2214 427.031 61.3472 427.419 61.3472C427.942 61.3472 428.264 61.1509 428.385 60.7584H429.034C428.968 61.1006 428.795 61.3774 428.513 61.5887C428.236 61.8001 427.872 61.9057 427.419 61.9057C426.84 61.9057 426.387 61.717 426.06 61.3396C425.733 60.9622 425.569 60.4716 425.569 59.8678C425.569 59.274 425.733 58.7985 426.06 58.4412C426.387 58.0839 426.835 57.9053 427.404 57.9053C427.942 57.9053 428.357 58.0764 428.649 58.4185C428.941 58.7557 429.092 59.1759 429.102 59.6791ZM427.388 58.4638C427.061 58.4638 426.8 58.5494 426.603 58.7205C426.407 58.8865 426.286 59.1004 426.241 59.362H428.438C428.417 59.1054 428.314 58.8915 428.128 58.7205C427.942 58.5494 427.695 58.4638 427.388 58.4638ZM431.927 58.4638C431.53 58.4638 431.23 58.6022 431.029 58.879C430.833 59.1557 430.735 59.4979 430.735 59.9055C430.735 60.3131 430.833 60.6553 431.029 60.932C431.23 61.2088 431.53 61.3472 431.927 61.3472C432.3 61.3472 432.587 61.2164 432.788 60.9547C432.994 60.688 433.097 60.3383 433.097 59.9055C433.097 59.4727 432.994 59.1255 432.788 58.8639C432.587 58.5972 432.3 58.4638 431.927 58.4638ZM430.101 58.0034H430.72V58.411H430.886C431.157 58.0738 431.552 57.9053 432.071 57.9053C432.584 57.9053 432.989 58.094 433.286 58.4714C433.588 58.8488 433.739 59.3268 433.739 59.9055C433.739 60.4943 433.588 60.9748 433.286 61.3472C432.989 61.7196 432.584 61.9057 432.071 61.9057C431.547 61.9057 431.16 61.7372 430.908 61.4H430.742V63.3172H430.101V58.0034ZM435.824 60.1395L435.092 61.8076H434.42L435.28 59.8527L434.473 58.0034H435.137L435.824 59.5809H436.798V58.0034H437.417V59.5809H438.39L439.077 58.0034H439.741L438.934 59.8527L439.802 61.8076H439.122L438.39 60.1395H437.417V61.8076H436.798V60.1395H435.824ZM444.097 61.2491H444.799V62.887H444.172V61.8076H440.881V62.887H440.255V61.2491H440.761C441.073 60.5848 441.229 59.8501 441.229 59.045V58.0034H444.097V61.2491ZM443.455 61.2491V58.5619H441.825V59.045C441.825 59.9055 441.687 60.6402 441.41 61.2491H443.455ZM448.93 59.6791V59.898H446.032C446.042 60.3559 446.15 60.7131 446.356 60.9698C446.563 61.2214 446.86 61.3472 447.247 61.3472C447.77 61.3472 448.092 61.1509 448.213 60.7584H448.862C448.797 61.1006 448.623 61.3774 448.342 61.5887C448.065 61.8001 447.7 61.9057 447.247 61.9057C446.668 61.9057 446.215 61.717 445.888 61.3396C445.561 60.9622 445.398 60.4716 445.398 59.8678C445.398 59.274 445.561 58.7985 445.888 58.4412C446.215 58.0839 446.663 57.9053 447.232 57.9053C447.77 57.9053 448.186 58.0764 448.477 58.4185C448.769 58.7557 448.92 59.1759 448.93 59.6791ZM447.217 58.4638C446.89 58.4638 446.628 58.5494 446.432 58.7205C446.236 58.8865 446.115 59.1004 446.07 59.362H448.266C448.246 59.1054 448.143 58.8915 447.957 58.7205C447.77 58.5494 447.524 58.4638 447.217 58.4638ZM453.318 61.8076H452.677V60.1319H450.571V61.8076H449.929V58.0034H450.571V59.5734H452.677V58.0034H453.318V61.8076ZM455.464 61.8076H454.558V58.0034H455.185V60.9471H455.351L457.019 58.0034H457.955V61.8076H457.328V58.8639H457.162L455.464 61.8076ZM460.425 58.0034H462.32V61.8076H461.67V60.3055H460.516C460.415 60.3055 460.337 60.303 460.282 60.298L459.708 61.8076H459.036L459.678 60.1546C459.285 59.9684 459.089 59.6363 459.089 59.1582C459.089 58.7909 459.202 58.5066 459.429 58.3053C459.66 58.104 459.992 58.0034 460.425 58.0034ZM461.67 58.5468H460.493C460.216 58.5468 460.02 58.5997 459.904 58.7054C459.788 58.811 459.731 58.9645 459.731 59.1658C459.731 59.362 459.788 59.5105 459.904 59.6111C460.02 59.7118 460.216 59.7621 460.493 59.7621H461.67V58.5468ZM311.825 69.7056H312.451C312.557 70.1333 312.896 70.3472 313.47 70.3472C313.817 70.3472 314.092 70.2365 314.293 70.0151C314.499 69.7937 314.612 69.5043 314.633 69.147H312.919V68.6036H314.625C314.595 68.2564 314.482 67.9796 314.285 67.7733C314.094 67.567 313.822 67.4638 313.47 67.4638C312.927 67.4638 312.597 67.6626 312.481 68.0601H311.855C311.93 67.7079 312.109 67.4286 312.391 67.2223C312.673 67.0109 313.03 66.9053 313.463 66.9053C314.026 66.9053 314.472 67.0914 314.799 67.4638C315.126 67.8312 315.289 68.3117 315.289 68.9055C315.289 69.5043 315.126 69.9874 314.799 70.3547C314.472 70.7221 314.024 70.9057 313.455 70.9057C313.027 70.9057 312.665 70.795 312.368 70.5736C312.076 70.3522 311.895 70.0629 311.825 69.7056ZM315.86 70.8076V70.2038H315.988C316.255 70.2038 316.446 70.0805 316.562 69.8339C316.677 69.5823 316.735 69.1294 316.735 68.4753V67.0034H319.649V70.8076H319V67.5619H317.332V68.4904C317.332 69.3508 317.226 69.9522 317.015 70.2943C316.808 70.6365 316.466 70.8076 315.988 70.8076H315.86ZM324.181 68.6791V68.898H321.282C321.292 69.3559 321.4 69.7131 321.607 69.9698C321.813 70.2214 322.11 70.3472 322.497 70.3472C323.021 70.3472 323.343 70.1509 323.464 69.7584H324.113C324.047 70.1006 323.874 70.3774 323.592 70.5887C323.315 70.8001 322.95 70.9057 322.497 70.9057C321.919 70.9057 321.466 70.717 321.139 70.3396C320.812 69.9622 320.648 69.4716 320.648 68.8678C320.648 68.274 320.812 67.7985 321.139 67.4412C321.466 67.0839 321.914 66.9053 322.482 66.9053C323.021 66.9053 323.436 67.0764 323.728 67.4185C324.02 67.7557 324.171 68.1759 324.181 68.6791ZM322.467 67.4638C322.14 67.4638 321.878 67.5494 321.682 67.7205C321.486 67.8865 321.365 68.1004 321.32 68.362H323.516C323.496 68.1054 323.393 67.8915 323.207 67.7205C323.021 67.5494 322.774 67.4638 322.467 67.4638ZM327.806 70.8076L326.961 69.1319H325.821V70.8076H325.18V67.0034H325.821V68.5734H326.976L327.769 67.0034H328.44L327.512 68.8376L328.493 70.8076H327.806ZM329.011 67.5619V67.0034H332.287V67.5619H330.973V70.8076H330.332V67.5619H329.011ZM334.96 67.4638C334.562 67.4638 334.263 67.6022 334.061 67.879C333.865 68.1557 333.767 68.4979 333.767 68.9055C333.767 69.3131 333.865 69.6553 334.061 69.932C334.263 70.2088 334.562 70.3472 334.96 70.3472C335.332 70.3472 335.619 70.2164 335.82 69.9547C336.026 69.688 336.13 69.3383 336.13 68.9055C336.13 68.4727 336.026 68.1255 335.82 67.8639C335.619 67.5972 335.332 67.4638 334.96 67.4638ZM333.133 67.0034H333.752V67.411H333.918C334.19 67.0738 334.585 66.9053 335.103 66.9053C335.616 66.9053 336.021 67.094 336.318 67.4714C336.62 67.8488 336.771 68.3268 336.771 68.9055C336.771 69.4943 336.62 69.9748 336.318 70.3472C336.021 70.7196 335.616 70.9057 335.103 70.9057C334.58 70.9057 334.192 70.7372 333.941 70.4H333.775V72.3172H333.133V67.0034ZM338.041 67.4714C338.378 67.094 338.836 66.9053 339.415 66.9053C339.993 66.9053 340.449 67.094 340.781 67.4714C341.118 67.8488 341.287 68.3268 341.287 68.9055C341.287 69.4842 341.118 69.9622 340.781 70.3396C340.449 70.717 339.993 70.9057 339.415 70.9057C338.836 70.9057 338.378 70.717 338.041 70.3396C337.709 69.9622 337.543 69.4842 337.543 68.9055C337.543 68.3268 337.709 67.8488 338.041 67.4714ZM338.501 69.932C338.713 70.2088 339.017 70.3472 339.415 70.3472C339.812 70.3472 340.117 70.2088 340.328 69.932C340.539 69.6502 340.645 69.3081 340.645 68.9055C340.645 68.5029 340.539 68.1633 340.328 67.8865C340.117 67.6047 339.812 67.4638 339.415 67.4638C339.017 67.4638 338.713 67.6047 338.501 67.8865C338.29 68.1633 338.184 68.5029 338.184 68.9055C338.184 69.3081 338.29 69.6502 338.501 69.932ZM345.677 70.8076H345.035V69.1319H342.93V70.8076H342.288V67.0034H342.93V68.5734H345.035V67.0034H345.677V70.8076ZM350.306 70.8076H349.665V69.1319H347.559V70.8076H346.917V67.0034H347.559V68.5734H349.665V67.0034H350.306V70.8076ZM351.81 67.4714C352.148 67.094 352.605 66.9053 353.184 66.9053C353.763 66.9053 354.218 67.094 354.55 67.4714C354.887 67.8488 355.056 68.3268 355.056 68.9055C355.056 69.4842 354.887 69.9622 354.55 70.3396C354.218 70.717 353.763 70.9057 353.184 70.9057C352.605 70.9057 352.148 70.717 351.81 70.3396C351.478 69.9622 351.312 69.4842 351.312 68.9055C351.312 68.3268 351.478 67.8488 351.81 67.4714ZM352.271 69.932C352.482 70.2088 352.787 70.3472 353.184 70.3472C353.582 70.3472 353.886 70.2088 354.097 69.932C354.309 69.6502 354.414 69.3081 354.414 68.9055C354.414 68.5029 354.309 68.1633 354.097 67.8865C353.886 67.6047 353.582 67.4638 353.184 67.4638C352.787 67.4638 352.482 67.6047 352.271 67.8865C352.059 68.1633 351.954 68.5029 351.954 68.9055C351.954 69.3081 352.059 69.6502 352.271 69.932ZM356.963 70.8076H356.057V67.0034H356.684V69.9471H356.85L358.518 67.0034H359.454V70.8076H358.827V67.8639H358.661L356.963 70.8076ZM358.397 65.3428H358.918C358.908 65.6951 358.8 65.9668 358.593 66.158C358.387 66.3492 358.103 66.4448 357.741 66.4448C357.383 66.4448 357.101 66.3492 356.895 66.158C356.689 65.9668 356.581 65.6951 356.571 65.3428H357.091C357.101 65.7705 357.318 65.9844 357.741 65.9844C358.153 65.9844 358.372 65.7705 358.397 65.3428ZM366.153 70.8076H365.512V67.5619H363.436V70.8076H362.795V67.0034H366.153V70.8076ZM367.658 67.4714C367.996 67.094 368.453 66.9053 369.032 66.9053C369.611 66.9053 370.066 67.094 370.398 67.4714C370.735 67.8488 370.904 68.3268 370.904 68.9055C370.904 69.4842 370.735 69.9622 370.398 70.3396C370.066 70.717 369.611 70.9057 369.032 70.9057C368.453 70.9057 367.996 70.717 367.658 70.3396C367.326 69.9622 367.16 69.4842 367.16 68.9055C367.16 68.3268 367.326 67.8488 367.658 67.4714ZM368.119 69.932C368.33 70.2088 368.635 70.3472 369.032 70.3472C369.43 70.3472 369.734 70.2088 369.945 69.932C370.157 69.6502 370.262 69.3081 370.262 68.9055C370.262 68.5029 370.157 68.1633 369.945 67.8865C369.734 67.6047 369.43 67.4638 369.032 67.4638C368.635 67.4638 368.33 67.6047 368.119 67.8865C367.907 68.1633 367.802 68.5029 367.802 68.9055C367.802 69.3081 367.907 69.6502 368.119 69.932ZM371.686 67.0034H372.328V68.0752C372.328 68.196 372.336 68.2916 372.351 68.362C372.366 68.4275 372.401 68.5029 372.456 68.5885C372.512 68.674 372.607 68.7369 372.743 68.7772C372.884 68.8174 373.065 68.8376 373.287 68.8376C373.619 68.8376 373.936 68.8049 374.238 68.7394V67.0034H374.887V70.8076H374.238V69.3055C373.901 69.376 373.538 69.4112 373.151 69.4112C372.884 69.4112 372.655 69.3861 372.464 69.3357C372.278 69.2804 372.134 69.2175 372.034 69.147C371.938 69.0716 371.863 68.9709 371.807 68.8451C371.752 68.7193 371.717 68.6061 371.702 68.5055C371.691 68.4048 371.686 68.279 371.686 68.1281V67.0034ZM375.67 67.5619V67.0034H378.946V67.5619H377.633V70.8076H376.991V67.5619H375.67ZM379.793 67.0034H380.434V68.2715H381.483C381.941 68.2715 382.293 68.3822 382.54 68.6036C382.792 68.825 382.917 69.1345 382.917 69.532C382.917 69.9346 382.792 70.2491 382.54 70.4755C382.293 70.6969 381.941 70.8076 381.483 70.8076H379.793V67.0034ZM380.434 68.8149V70.2491H381.393C381.71 70.2491 381.936 70.1887 382.072 70.0679C382.208 69.9471 382.276 69.7685 382.276 69.532C382.276 69.2955 382.208 69.1168 382.072 68.9961C381.936 68.8753 381.71 68.8149 381.393 68.8149H380.434ZM383.529 67.0034H384.17V70.8076H383.529V67.0034Z" fill="#7B7794"/>
<rect x="95.9887" y="288.067" width="168.322" height="35.476" rx="3.39663" fill="#4563FF"/>
<path d="M151.992 308.547H153.282C153.074 309.443 152.639 310.159 151.978 310.693C151.317 311.219 150.47 311.481 149.437 311.481C148.024 311.481 146.924 311.015 146.136 310.082C145.348 309.149 144.954 307.94 144.954 306.454C144.954 304.969 145.352 303.76 146.149 302.827C146.947 301.894 148.047 301.427 149.451 301.427C150.429 301.427 151.244 301.672 151.897 302.161C152.549 302.641 152.974 303.302 153.174 304.144H151.883C151.503 303.076 150.692 302.541 149.451 302.541C148.382 302.541 147.572 302.917 147.019 303.669C146.467 304.421 146.19 305.349 146.19 306.454C146.19 307.568 146.462 308.501 147.005 309.253C147.558 309.996 148.369 310.367 149.437 310.367C150.108 310.367 150.66 310.209 151.095 309.892C151.53 309.566 151.829 309.117 151.992 308.547ZM155.548 305.299C156.155 304.62 156.979 304.28 158.021 304.28C159.063 304.28 159.882 304.62 160.48 305.299C161.087 305.979 161.391 306.839 161.391 307.881C161.391 308.922 161.087 309.783 160.48 310.462C159.882 311.142 159.063 311.481 158.021 311.481C156.979 311.481 156.155 311.142 155.548 310.462C154.95 309.783 154.652 308.922 154.652 307.881C154.652 306.839 154.95 305.979 155.548 305.299ZM156.377 309.729C156.757 310.227 157.305 310.476 158.021 310.476C158.737 310.476 159.285 310.227 159.665 309.729C160.045 309.221 160.236 308.605 160.236 307.881C160.236 307.156 160.045 306.545 159.665 306.047C159.285 305.539 158.737 305.286 158.021 305.286C157.305 305.286 156.757 305.539 156.377 306.047C155.997 306.545 155.806 307.156 155.806 307.881C155.806 308.605 155.997 309.221 156.377 309.729ZM167.572 311.305L165.874 308.438H165.385L163.646 311.305H162.382L164.516 307.799L162.6 304.457H163.823L165.399 307.174H165.888L167.491 304.457H168.7L166.757 307.759L168.877 311.305H167.572ZM173.778 305.286C173.063 305.286 172.524 305.535 172.161 306.033C171.808 306.531 171.632 307.147 171.632 307.881C171.632 308.614 171.808 309.23 172.161 309.729C172.524 310.227 173.063 310.476 173.778 310.476C174.449 310.476 174.965 310.24 175.327 309.769C175.698 309.289 175.884 308.66 175.884 307.881C175.884 307.102 175.698 306.477 175.327 306.006C174.965 305.526 174.449 305.286 173.778 305.286ZM170.49 304.457H171.604V305.191H171.903C172.392 304.584 173.103 304.28 174.036 304.28C174.96 304.28 175.689 304.62 176.224 305.299C176.767 305.979 177.039 306.839 177.039 307.881C177.039 308.941 176.767 309.806 176.224 310.476C175.689 311.146 174.96 311.481 174.036 311.481C173.094 311.481 172.397 311.178 171.944 310.571H171.645V314.022H170.49V304.457ZM183.21 311.305V310.585H182.912C182.441 311.182 181.73 311.481 180.778 311.481C180.027 311.481 179.429 311.264 178.985 310.829C178.541 310.394 178.319 309.869 178.319 309.253C178.319 308.628 178.537 308.094 178.971 307.65C179.406 307.206 180.063 306.984 180.942 306.984H183.17V306.712C183.17 306.278 183.034 305.933 182.762 305.68C182.49 305.417 182.069 305.286 181.499 305.286C180.502 305.286 179.972 305.616 179.909 306.278H178.754C178.799 305.653 179.067 305.163 179.556 304.81C180.054 304.457 180.692 304.28 181.471 304.28C182.35 304.28 183.038 304.484 183.537 304.892C184.044 305.299 184.297 305.884 184.297 306.644V311.305H183.21ZM181.064 310.476C181.634 310.476 182.128 310.29 182.545 309.919C182.961 309.538 183.17 309.076 183.17 308.533V307.908H181.118C180.022 307.908 179.474 308.343 179.474 309.212C179.474 309.602 179.61 309.91 179.882 310.136C180.163 310.363 180.557 310.476 181.064 310.476ZM192.512 311.305H191.358V308.288H187.567V311.305H186.412V304.457H187.567V307.283H191.358V304.457H192.512V311.305ZM196.375 311.305H194.744V304.457H195.872V309.756H196.171L199.174 304.457H200.858V311.305H199.731V306.006H199.432L196.375 311.305ZM202.384 305.462V304.457H208.28V305.462H205.916V311.305H204.761V305.462H202.384ZM210.959 304.457V306.74H212.983C213.807 306.74 214.441 306.939 214.885 307.337C215.338 307.736 215.564 308.293 215.564 309.008C215.564 309.733 215.338 310.299 214.885 310.707C214.441 311.105 213.807 311.305 212.983 311.305H209.804V304.457H210.959ZM210.959 310.299H212.82C213.391 310.299 213.798 310.19 214.043 309.973C214.287 309.756 214.41 309.434 214.41 309.008C214.41 308.583 214.287 308.261 214.043 308.044C213.798 307.826 213.391 307.718 212.82 307.718H210.959V310.299Z" fill="white"/>
<rect x="95.9887" y="288.067" width="168.322" height="35.476" rx="3.39663" stroke="#4563FF" stroke-width="0.754808"/>
<rect x="34.1777" y="14.5" width="627" height="194" rx="3.27404" stroke="#ECEEF6"/>
<rect x="34.1777" y="218.5" width="627" height="95" rx="3.27404" fill="white"/>
<path d="M64.6998 246.79H65.2916L68.7788 239.477H71.3783L64.1503 254.567H61.5719L63.7276 250.044L58.1481 239.477H60.8533L64.6998 246.79ZM81.878 254.567H79.4897V245.839H74.3752V254.567H71.987V243.81H81.878V254.567ZM90.4802 245.564C89.494 245.564 88.7472 245.909 88.24 246.6C87.7468 247.29 87.5003 248.149 87.5003 249.178C87.5003 250.221 87.7468 251.087 88.24 251.777C88.7472 252.468 89.494 252.813 90.4802 252.813C91.4242 252.813 92.1499 252.482 92.6571 251.82C93.1643 251.143 93.4179 250.263 93.4179 249.178C93.4179 248.093 93.1643 247.219 92.6571 246.557C92.1499 245.895 91.4242 245.564 90.4802 245.564ZM85.1754 243.81H87.4791V244.845H87.9864C88.6908 243.972 89.7476 243.535 91.1565 243.535C92.5796 243.535 93.7068 244.063 94.5381 245.12C95.3835 246.177 95.8062 247.529 95.8062 249.178C95.8062 250.841 95.3835 252.2 94.5381 253.257C93.7068 254.314 92.5796 254.842 91.1565 254.842C89.7617 254.842 88.7331 254.405 88.0709 253.532H87.5637V258.794H85.1754V243.81ZM105.188 254.567V253.574H104.681C104.004 254.419 102.948 254.842 101.511 254.842C100.327 254.842 99.39 254.504 98.6996 253.828C98.0092 253.137 97.664 252.299 97.664 251.313C97.664 250.34 98.0163 249.495 98.7208 248.776C99.4252 248.058 100.496 247.699 101.933 247.699H105.103V247.381C105.103 246.071 104.35 245.416 102.842 245.416C101.503 245.416 100.785 245.874 100.686 246.79H98.3192C98.3756 245.789 98.8053 245 99.6084 244.423C100.426 243.831 101.475 243.535 102.757 243.535C104.209 243.535 105.343 243.859 106.16 244.507C106.991 245.155 107.407 246.128 107.407 247.424V254.567H105.188ZM102.25 252.898C103.053 252.898 103.73 252.637 104.279 252.116C104.829 251.594 105.103 250.96 105.103 250.214V249.389H102.356C100.834 249.389 100.073 249.981 100.073 251.165C100.073 251.714 100.264 252.144 100.644 252.454C101.024 252.75 101.56 252.898 102.25 252.898ZM118.508 248.628V249.115C119.044 249.255 119.474 249.544 119.798 249.981C120.136 250.404 120.305 250.946 120.305 251.608C120.305 252.581 119.974 253.32 119.311 253.828C118.663 254.321 117.726 254.567 116.501 254.567H110.562V243.81H116.31C117.395 243.81 118.234 244.049 118.825 244.528C119.417 245.007 119.713 245.677 119.713 246.536C119.713 247.015 119.593 247.445 119.354 247.825C119.128 248.192 118.847 248.459 118.508 248.628ZM112.908 252.75H116.057C117.283 252.75 117.895 252.278 117.895 251.334C117.895 250.376 117.283 249.897 116.057 249.897H112.908V252.75ZM112.908 245.627V248.163H115.803C116.324 248.163 116.705 248.044 116.944 247.804C117.198 247.565 117.325 247.262 117.325 246.895C117.325 246.05 116.818 245.627 115.803 245.627H112.908ZM121.804 254.567V252.306H122.184C122.931 252.306 123.459 252.01 123.769 251.418C124.079 250.826 124.234 249.742 124.234 248.163V243.81H132.941V254.567H130.553V245.839H126.432V248.227C126.432 250.552 126.094 252.193 125.418 253.151C124.755 254.095 123.677 254.567 122.184 254.567H121.804ZM145.917 248.586V249.389H137.97C138.04 251.672 139.048 252.813 140.992 252.813C142.218 252.813 143 252.355 143.338 251.439H145.769C145.557 252.482 145.043 253.313 144.226 253.933C143.409 254.539 142.324 254.842 140.971 254.842C139.309 254.842 137.998 254.314 137.04 253.257C136.082 252.2 135.603 250.819 135.603 249.115C135.603 247.424 136.075 246.071 137.019 245.057C137.977 244.042 139.273 243.535 140.908 243.535C142.458 243.535 143.669 244.014 144.543 244.972C145.431 245.916 145.888 247.121 145.917 248.586ZM140.887 245.437C139.337 245.437 138.4 246.163 138.076 247.614H143.465C143.381 246.98 143.12 246.459 142.683 246.05C142.246 245.641 141.647 245.437 140.887 245.437ZM158.534 254.567H156.146V250.066H150.947V254.567H148.559V243.81H150.947V248.037H156.146V243.81H158.534V254.567ZM164.535 254.567H161.83V243.81H164.155V250.911H164.662L169.079 243.81H171.848V254.567H169.523V247.466H169.015L164.535 254.567ZM184.822 248.586V249.389H176.875C176.946 251.672 177.953 252.813 179.897 252.813C181.123 252.813 181.905 252.355 182.243 251.439H184.674C184.462 252.482 183.948 253.313 183.131 253.933C182.314 254.539 181.229 254.842 179.876 254.842C178.214 254.842 176.903 254.314 175.945 253.257C174.987 252.2 174.508 250.819 174.508 249.115C174.508 247.424 174.98 246.071 175.924 245.057C176.882 244.042 178.178 243.535 179.813 243.535C181.363 243.535 182.574 244.014 183.448 244.972C184.336 245.916 184.794 247.121 184.822 248.586ZM179.792 245.437C178.242 245.437 177.305 246.163 176.981 247.614H182.37C182.286 246.98 182.025 246.459 181.588 246.05C181.151 245.641 180.552 245.437 179.792 245.437ZM203.237 254.567H200.849V245.839H195.734V254.567H193.346V243.81H203.237V254.567ZM207.359 245.12C208.345 244.063 209.669 243.535 211.332 243.535C212.995 243.535 214.312 244.063 215.284 245.12C216.27 246.163 216.764 247.515 216.764 249.178C216.764 250.855 216.27 252.221 215.284 253.278C214.312 254.321 212.995 254.842 211.332 254.842C209.669 254.842 208.345 254.321 207.359 253.278C206.386 252.221 205.9 250.855 205.9 249.178C205.9 247.515 206.386 246.163 207.359 245.12ZM209.071 251.777C209.592 252.468 210.346 252.813 211.332 252.813C212.318 252.813 213.072 252.468 213.593 251.777C214.115 251.073 214.375 250.206 214.375 249.178C214.375 248.163 214.115 247.311 213.593 246.621C213.072 245.916 212.318 245.564 211.332 245.564C210.346 245.564 209.592 245.916 209.071 246.621C208.549 247.311 208.289 248.163 208.289 249.178C208.289 250.206 208.549 251.073 209.071 251.777ZM229.409 252.538H231.354V257.59H229.071V254.567H220.448V257.59H218.166V252.538H219.688C220.434 250.749 220.808 248.847 220.808 246.832V243.81H229.409V252.538ZM227.021 252.538V245.839H222.985V246.853C222.985 249.037 222.66 250.932 222.012 252.538H227.021ZM243.442 254.567H241.054V245.839H235.939V254.567H233.551V243.81H243.442V254.567ZM249.445 254.567H246.74V243.81H249.064V250.911H249.572L253.989 243.81H256.757V254.567H254.433V247.466H253.925L249.445 254.567ZM267.111 251.122H269.478C269.309 252.249 268.795 253.151 267.935 253.828C267.09 254.504 266.026 254.842 264.744 254.842C263.095 254.842 261.792 254.321 260.834 253.278C259.89 252.221 259.418 250.855 259.418 249.178C259.418 247.501 259.89 246.142 260.834 245.099C261.792 244.056 263.095 243.535 264.744 243.535C266.04 243.535 267.097 243.859 267.914 244.507C268.745 245.155 269.239 246.015 269.394 247.086H267.026C266.674 246.071 265.92 245.564 264.765 245.564C263.765 245.564 263.018 245.902 262.525 246.578C262.046 247.255 261.806 248.114 261.806 249.157C261.806 250.228 262.046 251.108 262.525 251.799C263.018 252.475 263.765 252.813 264.765 252.813C266.089 252.813 266.871 252.249 267.111 251.122ZM279.503 254.567L277.221 250.066H274.452V254.567H272.064V243.81H274.452V248.037H277.263L279.419 243.81H281.871L279.229 248.988L282.018 254.567H279.503ZM291.168 254.567V253.574H290.661C289.985 254.419 288.928 254.842 287.491 254.842C286.307 254.842 285.37 254.504 284.68 253.828C283.99 253.137 283.645 252.299 283.645 251.313C283.645 250.34 283.997 249.495 284.701 248.776C285.406 248.058 286.477 247.699 287.914 247.699H291.084V247.381C291.084 246.071 290.33 245.416 288.822 245.416C287.484 245.416 286.765 245.874 286.667 246.79H284.3C284.356 245.789 284.786 245 285.589 244.423C286.406 243.831 287.456 243.535 288.738 243.535C290.189 243.535 291.323 243.859 292.141 244.507C292.972 245.155 293.388 246.128 293.388 247.424V254.567H291.168ZM288.231 252.898C289.034 252.898 289.71 252.637 290.26 252.116C290.809 251.594 291.084 250.96 291.084 250.214V249.389H288.336C286.815 249.389 286.054 249.981 286.054 251.165C286.054 251.714 286.244 252.144 286.624 252.454C287.005 252.75 287.54 252.898 288.231 252.898ZM296.542 254.567V243.81H299.945L302.354 248.523H302.861L305.25 243.81H308.631V254.567H306.306V246.832H305.799L303.707 250.869H301.467L299.374 246.832H298.867V254.567H296.542ZM314.624 254.567H311.918V243.81H314.243V250.911H314.751L319.168 243.81H321.936V254.567H319.611V247.466H319.104L314.624 254.567Z" fill="black"/>
<rect x="58.2085" y="279.988" width="14.3413" height="14.3413" rx="1.88702" fill="#4563FF" stroke="#4563FF" stroke-width="0.754808"/>
<path d="M69.5305 283.762L64.4492 290.933C64.4492 290.933 63.3298 289.313 61.605 287.338" stroke="white" stroke-width="1.50962" stroke-linecap="round" stroke-linejoin="round"/>
<path d="M85.925 289.63L84.5663 287.184H84.287L82.8906 289.63H82.1509L83.7662 286.784L82.3849 284.24H83.1171L84.2946 286.392H84.5739L85.7664 284.24H86.4911L85.0947 286.754L86.7024 289.63H85.925ZM87.6076 286.293C87.9448 285.916 88.4027 285.727 88.9814 285.727C89.5601 285.727 90.0155 285.916 90.3476 286.293C90.6847 286.671 90.8533 287.149 90.8533 287.728C90.8533 288.306 90.6847 288.784 90.3476 289.162C90.0155 289.539 89.5601 289.728 88.9814 289.728C88.4027 289.728 87.9448 289.539 87.6076 289.162C87.2755 288.784 87.1095 288.306 87.1095 287.728C87.1095 287.149 87.2755 286.671 87.6076 286.293ZM88.0681 288.754C88.2794 289.031 88.5839 289.169 88.9814 289.169C89.3789 289.169 89.6834 289.031 89.8947 288.754C90.1061 288.472 90.2117 288.13 90.2117 287.728C90.2117 287.325 90.1061 286.985 89.8947 286.709C89.6834 286.427 89.3789 286.286 88.9814 286.286C88.5839 286.286 88.2794 286.427 88.0681 286.709C87.8567 286.985 87.7511 287.325 87.7511 287.728C87.7511 288.13 87.8567 288.472 88.0681 288.754ZM91.6357 285.825H92.2773V286.897C92.2773 287.018 92.2849 287.114 92.3 287.184C92.3151 287.25 92.3503 287.325 92.4056 287.411C92.461 287.496 92.5566 287.559 92.6925 287.599C92.8334 287.64 93.0145 287.66 93.2359 287.66C93.568 287.66 93.8851 287.627 94.187 287.562V285.825H94.8361V289.63H94.187V288.128C93.8498 288.198 93.4875 288.233 93.1001 288.233C92.8334 288.233 92.6044 288.208 92.4132 288.158C92.227 288.102 92.0836 288.04 91.9829 287.969C91.8873 287.894 91.8118 287.793 91.7565 287.667C91.7011 287.541 91.6659 287.428 91.6508 287.328C91.6408 287.227 91.6357 287.101 91.6357 286.95V285.825ZM97.0385 291.139H96.3894L97.1744 289.275L95.5515 285.825H96.2384L97.4008 288.331H97.5895L98.6462 285.825H99.318L97.0385 291.139ZM105.533 289.63H104.892V286.384H102.816V289.63H102.174V285.825H105.533V289.63ZM107.038 286.293C107.375 285.916 107.833 285.727 108.412 285.727C108.99 285.727 109.446 285.916 109.778 286.293C110.115 286.671 110.284 287.149 110.284 287.728C110.284 288.306 110.115 288.784 109.778 289.162C109.446 289.539 108.99 289.728 108.412 289.728C107.833 289.728 107.375 289.539 107.038 289.162C106.706 288.784 106.54 288.306 106.54 287.728C106.54 287.149 106.706 286.671 107.038 286.293ZM107.498 288.754C107.71 289.031 108.014 289.169 108.412 289.169C108.809 289.169 109.114 289.031 109.325 288.754C109.536 288.472 109.642 288.13 109.642 287.728C109.642 287.325 109.536 286.985 109.325 286.709C109.114 286.427 108.809 286.286 108.412 286.286C108.014 286.286 107.71 286.427 107.498 286.709C107.287 286.985 107.181 287.325 107.181 287.728C107.181 288.13 107.287 288.472 107.498 288.754ZM110.855 289.63V289.026H110.983C111.25 289.026 111.441 288.903 111.557 288.656C111.672 288.404 111.73 287.952 111.73 287.297V285.825H114.644V289.63H113.995V286.384H112.327V287.312C112.327 288.173 112.221 288.774 112.01 289.116C111.803 289.459 111.461 289.63 110.983 289.63H110.855ZM116.904 291.139H116.255L117.04 289.275L115.417 285.825H116.104L117.266 288.331H117.455L118.512 285.825H119.183L116.904 291.139ZM119.72 285.825H120.361V286.897C120.361 287.018 120.369 287.114 120.384 287.184C120.399 287.25 120.434 287.325 120.49 287.411C120.545 287.496 120.641 287.559 120.777 287.599C120.918 287.64 121.099 287.66 121.32 287.66C121.652 287.66 121.969 287.627 122.271 287.562V285.825H122.92V289.63H122.271V288.128C121.934 288.198 121.572 288.233 121.184 288.233C120.918 288.233 120.689 288.208 120.497 288.158C120.311 288.102 120.168 288.04 120.067 287.969C119.971 287.894 119.896 287.793 119.841 287.667C119.785 287.541 119.75 287.428 119.735 287.328C119.725 287.227 119.72 287.101 119.72 286.95V285.825ZM126.519 289.63V289.23H126.353C126.091 289.562 125.696 289.728 125.168 289.728C124.75 289.728 124.418 289.607 124.172 289.366C123.925 289.124 123.802 288.832 123.802 288.49C123.802 288.143 123.923 287.846 124.164 287.599C124.406 287.353 124.77 287.229 125.259 287.229H126.496V287.078C126.496 286.837 126.421 286.646 126.27 286.505C126.119 286.359 125.885 286.286 125.568 286.286C125.014 286.286 124.72 286.47 124.685 286.837H124.043C124.068 286.49 124.217 286.218 124.489 286.022C124.765 285.825 125.12 285.727 125.553 285.727C126.041 285.727 126.423 285.841 126.7 286.067C126.982 286.293 127.123 286.618 127.123 287.041V289.63H126.519ZM125.326 289.169C125.643 289.169 125.918 289.066 126.149 288.86C126.381 288.648 126.496 288.392 126.496 288.09V287.743H125.357C124.748 287.743 124.443 287.984 124.443 288.467C124.443 288.684 124.519 288.855 124.67 288.981C124.826 289.106 125.045 289.169 125.326 289.169ZM127.861 286.384V285.825H131.137V286.384H129.823V289.63H129.182V286.384H127.861ZM132.625 285.825V287.094H133.75C134.207 287.094 134.56 287.204 134.806 287.426C135.058 287.647 135.184 287.957 135.184 288.354C135.184 288.757 135.058 289.071 134.806 289.298C134.56 289.519 134.207 289.63 133.75 289.63H131.983V285.825H132.625ZM132.625 289.071H133.659C133.976 289.071 134.202 289.011 134.338 288.89C134.474 288.769 134.542 288.591 134.542 288.354C134.542 288.118 134.474 287.939 134.338 287.818C134.202 287.697 133.976 287.637 133.659 287.637H132.625V289.071ZM141.496 287.501V287.72H138.597C138.607 288.178 138.715 288.535 138.922 288.792C139.128 289.043 139.425 289.169 139.812 289.169C140.336 289.169 140.658 288.973 140.779 288.581H141.428C141.362 288.923 141.189 289.199 140.907 289.411C140.63 289.622 140.265 289.728 139.812 289.728C139.234 289.728 138.781 289.539 138.454 289.162C138.127 288.784 137.963 288.294 137.963 287.69C137.963 287.096 138.127 286.621 138.454 286.263C138.781 285.906 139.229 285.727 139.797 285.727C140.336 285.727 140.751 285.898 141.043 286.241C141.335 286.578 141.486 286.998 141.496 287.501ZM139.782 286.286C139.455 286.286 139.194 286.371 138.997 286.543C138.801 286.709 138.68 286.922 138.635 287.184H140.831C140.811 286.927 140.708 286.714 140.522 286.543C140.336 286.371 140.089 286.286 139.782 286.286ZM146.487 285.727C146.91 285.727 147.225 285.856 147.431 286.112C147.637 286.364 147.74 286.716 147.74 287.169V289.63H147.099V287.237C147.099 286.613 146.855 286.301 146.367 286.301C146.075 286.301 145.846 286.404 145.68 286.61C145.519 286.812 145.438 287.076 145.438 287.403V289.63H144.797V287.252C144.797 286.618 144.555 286.301 144.072 286.301C143.765 286.301 143.531 286.414 143.37 286.641C143.214 286.867 143.136 287.161 143.136 287.524V289.63H142.495V285.825H143.113V286.195H143.28C143.481 285.883 143.803 285.727 144.246 285.727C144.714 285.727 145.048 285.896 145.25 286.233H145.416C145.647 285.896 146.004 285.727 146.487 285.727ZM151.338 289.63V289.23H151.172C150.91 289.562 150.515 289.728 149.987 289.728C149.569 289.728 149.237 289.607 148.99 289.366C148.744 289.124 148.62 288.832 148.62 288.49C148.62 288.143 148.741 287.846 148.983 287.599C149.224 287.353 149.589 287.229 150.077 287.229H151.315V287.078C151.315 286.837 151.24 286.646 151.089 286.505C150.938 286.359 150.704 286.286 150.387 286.286C149.833 286.286 149.539 286.47 149.504 286.837H148.862C148.887 286.49 149.036 286.218 149.307 286.022C149.584 285.825 149.939 285.727 150.372 285.727C150.86 285.727 151.242 285.841 151.519 286.067C151.801 286.293 151.942 286.618 151.942 287.041V289.63H151.338ZM150.145 289.169C150.462 289.169 150.736 289.066 150.968 288.86C151.199 288.648 151.315 288.392 151.315 288.09V287.743H150.175C149.566 287.743 149.262 287.984 149.262 288.467C149.262 288.684 149.338 288.855 149.488 288.981C149.644 289.106 149.863 289.169 150.145 289.169ZM153.796 284.837H153.116V284.142H153.796V284.837ZM153.773 285.825V289.63H153.131V285.825H153.773ZM155.033 284.142H155.674V289.63H155.033V284.142ZM160.84 286.286C160.442 286.286 160.143 286.424 159.942 286.701C159.745 286.978 159.647 287.32 159.647 287.728C159.647 288.135 159.745 288.477 159.942 288.754C160.143 289.031 160.442 289.169 160.84 289.169C161.212 289.169 161.499 289.038 161.7 288.777C161.907 288.51 162.01 288.16 162.01 287.728C162.01 287.295 161.907 286.948 161.7 286.686C161.499 286.419 161.212 286.286 160.84 286.286ZM159.013 285.825H159.632V286.233H159.798C160.07 285.896 160.465 285.727 160.983 285.727C161.497 285.727 161.902 285.916 162.199 286.293C162.501 286.671 162.652 287.149 162.652 287.728C162.652 288.316 162.501 288.797 162.199 289.169C161.902 289.542 161.497 289.728 160.983 289.728C160.46 289.728 160.073 289.559 159.821 289.222H159.655V291.139H159.013V285.825ZM166.08 289.63V289.23H165.914C165.652 289.562 165.257 289.728 164.729 289.728C164.311 289.728 163.979 289.607 163.733 289.366C163.486 289.124 163.363 288.832 163.363 288.49C163.363 288.143 163.484 287.846 163.725 287.599C163.967 287.353 164.331 287.229 164.82 287.229H166.057V287.078C166.057 286.837 165.982 286.646 165.831 286.505C165.68 286.359 165.446 286.286 165.129 286.286C164.576 286.286 164.281 286.47 164.246 286.837H163.604C163.629 286.49 163.778 286.218 164.05 286.022C164.326 285.825 164.681 285.727 165.114 285.727C165.602 285.727 165.984 285.841 166.261 286.067C166.543 286.293 166.684 286.618 166.684 287.041V289.63H166.08ZM164.888 289.169C165.205 289.169 165.479 289.066 165.71 288.86C165.942 288.648 166.057 288.392 166.057 288.09V287.743H164.918C164.309 287.743 164.004 287.984 164.004 288.467C164.004 288.684 164.08 288.855 164.231 288.981C164.387 289.106 164.606 289.169 164.888 289.169ZM170.433 288.482H171.074C170.999 288.865 170.82 289.169 170.538 289.396C170.262 289.617 169.907 289.728 169.474 289.728C168.9 289.728 168.447 289.542 168.115 289.169C167.788 288.792 167.625 288.311 167.625 287.728C167.625 287.139 167.788 286.658 168.115 286.286C168.442 285.914 168.895 285.727 169.474 285.727C169.912 285.727 170.267 285.838 170.538 286.059C170.815 286.276 170.986 286.565 171.052 286.927H170.41C170.274 286.5 169.962 286.286 169.474 286.286C169.066 286.286 168.762 286.422 168.561 286.693C168.364 286.96 168.266 287.3 168.266 287.712C168.266 288.13 168.367 288.477 168.568 288.754C168.77 289.031 169.071 289.169 169.474 289.169C170.007 289.169 170.327 288.94 170.433 288.482ZM174.605 288.482H175.246C175.171 288.865 174.992 289.169 174.71 289.396C174.434 289.617 174.079 289.728 173.646 289.728C173.072 289.728 172.62 289.542 172.287 289.169C171.96 288.792 171.797 288.311 171.797 287.728C171.797 287.139 171.96 286.658 172.287 286.286C172.615 285.914 173.067 285.727 173.646 285.727C174.084 285.727 174.439 285.838 174.71 286.059C174.987 286.276 175.158 286.565 175.224 286.927H174.582C174.446 286.5 174.134 286.286 173.646 286.286C173.239 286.286 172.934 286.422 172.733 286.693C172.537 286.96 172.438 287.3 172.438 287.712C172.438 288.13 172.539 288.477 172.74 288.754C172.942 289.031 173.244 289.169 173.646 289.169C174.18 289.169 174.499 288.94 174.605 288.482ZM176.203 285.825H176.844V287.094H177.894C178.352 287.094 178.704 287.204 178.95 287.426C179.202 287.647 179.328 287.957 179.328 288.354C179.328 288.757 179.202 289.071 178.95 289.298C178.704 289.519 178.352 289.63 177.894 289.63H176.203V285.825ZM176.844 287.637V289.071H177.803C178.12 289.071 178.347 289.011 178.482 288.89C178.618 288.769 178.686 288.591 178.686 288.354C178.686 288.118 178.618 287.939 178.482 287.818C178.347 287.697 178.12 287.637 177.803 287.637H176.844ZM179.939 285.825H180.581V289.63H179.939V285.825ZM181.389 289.63V289.026H181.518C181.785 289.026 181.976 288.903 182.091 288.656C182.207 288.404 182.265 287.952 182.265 287.297V285.825H185.179V289.63H184.529V286.384H182.861V287.312C182.861 288.173 182.756 288.774 182.544 289.116C182.338 289.459 181.996 289.63 181.518 289.63H181.389ZM189.039 289.63L188.193 287.954H187.054V289.63H186.412V285.825H187.054V287.395H188.208L189.001 285.825H189.673L188.744 287.66L189.726 289.63H189.039ZM191.662 291.139H191.013L191.798 289.275L190.175 285.825H190.862L192.024 288.331H192.213L193.27 285.825H193.942L191.662 291.139Z" fill="black"/>
<rect x="34.1777" y="218.5" width="627" height="95" rx="3.27404" stroke="#ECEEF6"/>
<g filter="url(#filter1_i_1_170765)">
<circle cx="232.678" cy="177" r="176" fill="#4563FF" fill-opacity="0.01"/>
</g>
<defs>
<filter id="filter0_f_1_170765" x="0" y="-63" width="468" height="468" filterUnits="userSpaceOnUse" color-interpolation-filters="sRGB">
<feFlood flood-opacity="0" result="BackgroundImageFix"/>
<feBlend mode="normal" in="SourceGraphic" in2="BackgroundImageFix" result="shape"/>
<feGaussianBlur stdDeviation="32" result="effect1_foregroundBlur_1_170765"/>
</filter>
<filter id="filter1_i_1_170765" x="16.6777" y="1" width="392" height="352" filterUnits="userSpaceOnUse" color-interpolation-filters="sRGB">
<feFlood flood-opacity="0" result="BackgroundImageFix"/>
<feBlend mode="normal" in="SourceGraphic" in2="BackgroundImageFix" result="shape"/>
<feColorMatrix in="SourceAlpha" type="matrix" values="0 0 0 0 0 0 0 0 0 0 0 0 0 0 0 0 0 0 127 0" result="hardAlpha"/>
<feOffset dx="-40"/>
<feGaussianBlur stdDeviation="20"/>
<feComposite in2="hardAlpha" operator="arithmetic" k2="-1" k3="1"/>
<feColorMatrix type="matrix" values="0 0 0 0 0.241875 0 0 0 0 0.311734 0 0 0 0 0.675 0 0 0 0.04 0"/>
<feBlend mode="normal" in2="shape" result="effect1_innerShadow_1_170765"/>
</filter>
</defs>
</svg>
