<svg width="21" height="20" viewBox="0 0 21 20" fill="none" xmlns="http://www.w3.org/2000/svg">
<mask id="mask0_20103_14774" style="mask-type:alpha" maskUnits="userSpaceOnUse" x="0" y="0" width="21" height="20">
<rect x="0.909424" width="20" height="20" fill="#D9D9D9"/>
</mask>
<g mask="url(#mask0_20103_14774)">
</g>
<mask id="mask1_20103_14774" style="mask-type:alpha" maskUnits="userSpaceOnUse" x="0" y="0" width="21" height="20">
<rect x="0.909424" width="20" height="20" fill="#D9D9D9"/>
</mask>
<g mask="url(#mask1_20103_14774)">
<path d="M10.9113 13.2082C10.8139 13.2082 10.7166 13.1909 10.6193 13.1562C10.5219 13.1216 10.4319 13.0556 10.3493 12.9582L6.66125 9.29222C6.53592 9.15289 6.47692 8.98956 6.48425 8.80222C6.49092 8.61489 6.55692 8.45856 6.68225 8.33322C6.83492 8.19456 6.99458 8.12856 7.16125 8.13522C7.32792 8.14256 7.48058 8.20856 7.61925 8.33322L10.9113 11.6462L14.2233 8.35422C14.3486 8.21556 14.4946 8.14622 14.6613 8.14622C14.8279 8.14622 14.9876 8.21556 15.1403 8.35422C15.2796 8.49289 15.3493 8.65256 15.3493 8.83322C15.3493 9.01389 15.2796 9.16689 15.1403 9.29222L11.4733 12.9582C11.3906 13.0556 11.3006 13.1216 11.2033 13.1562C11.1059 13.1909 11.0086 13.2082 10.9113 13.2082Z" fill="#4563FF"/>
</g>
</svg>
