<svg width="91" height="90" viewBox="0 0 91 90" fill="none" xmlns="http://www.w3.org/2000/svg">
<g clip-path="url(#clip0_31620_19962)">
<path d="M71.3547 16.1719H69.3678H10.2532C8.61621 16.1719 7.28613 17.4987 7.28613 19.139V22.1853H62.2322C64.6019 22.1853 66.5228 24.1062 66.5228 26.4759C66.5228 26.4759 66.5162 57.1075 66.5129 68.0188C66.5129 70.1773 68.2621 71.9232 70.4206 71.9232C72.5791 71.9232 74.3284 70.174 74.3284 68.0155V19.1357C74.3218 17.502 72.9917 16.1719 71.3547 16.1719Z" fill="#4664FF"/>
<path d="M4.86997 74.2765H69.5886L67.4466 73.1543C65.6182 72.1972 64.4696 70.3027 64.4696 68.2366V27.2779C64.4696 25.6409 63.1428 24.3108 61.5025 24.3108H59.5157H4.17028C2.53325 24.3108 1.20312 25.6376 1.20312 27.2779V70.6096C1.20643 72.6328 2.84679 74.2765 4.86997 74.2765Z" stroke="#4664FF" stroke-width="2.11229" stroke-miterlimit="10" stroke-linecap="round" stroke-linejoin="round"/>
<path d="M26.0781 44.6782L40.7453 53.6027" stroke="#4664FF" stroke-width="2.11229" stroke-miterlimit="10" stroke-linecap="round" stroke-linejoin="round"/>
<path d="M22.7055 46.3776C25.0314 46.3776 26.9169 44.4921 26.9169 42.1662C26.9169 39.8403 25.0314 37.9548 22.7055 37.9548C20.3796 37.9548 18.4941 39.8403 18.4941 42.1662C18.4941 44.4921 20.3796 46.3776 22.7055 46.3776Z" stroke="#4664FF" stroke-width="2.11229" stroke-miterlimit="10"/>
<path d="M20.8736 45.9553L14.21 58.9756" stroke="#4664FF" stroke-width="2.11229" stroke-miterlimit="10" stroke-linecap="round" stroke-linejoin="round"/>
<path d="M41.9473 51.2394L51.0862 37.4468" stroke="#4664FF" stroke-width="2.11229" stroke-miterlimit="10" stroke-linecap="round" stroke-linejoin="round"/>
<path d="M40.9243 57.5204C43.2502 57.5204 45.1357 55.6349 45.1357 53.309C45.1357 50.9832 43.2502 49.0977 40.9243 49.0977C38.5984 49.0977 36.7129 50.9832 36.7129 53.309C36.7129 55.6349 38.5984 57.5204 40.9243 57.5204Z" fill="#FF0028" stroke="#FF0028" stroke-width="2.11229" stroke-miterlimit="10"/>
<path d="M14.0452 61.7909C15.0933 61.7909 15.943 60.9412 15.943 59.8931C15.943 58.845 15.0933 57.9954 14.0452 57.9954C12.9971 57.9954 12.1475 58.845 12.1475 59.8931C12.1475 60.9412 12.9971 61.7909 14.0452 61.7909Z" fill="#4664FF" stroke="#4664FF" stroke-width="2.11229" stroke-miterlimit="10"/>
<path d="M51.0862 39.3446C52.1343 39.3446 52.984 38.4949 52.984 37.4468C52.984 36.3987 52.1343 35.5491 51.0862 35.5491C50.0381 35.5491 49.1885 36.3987 49.1885 37.4468C49.1885 38.4949 50.0381 39.3446 51.0862 39.3446Z" fill="#4664FF" stroke="#4664FF" stroke-width="2.11229" stroke-miterlimit="10"/>
</g>
<defs>
<clipPath id="clip0_31620_19962">
<rect width="90" height="90" fill="white" transform="translate(0.5)"/>
</clipPath>
</defs>
</svg>
