<svg width="1081" height="668" viewBox="0 0 1081 668" fill="none" xmlns="http://www.w3.org/2000/svg">
<mask id="mask0_642_1450" style="mask-type:alpha" maskUnits="userSpaceOnUse" x="-166" y="0" width="1407" height="669">
<mask id="mask1_642_1450" style="mask-type:luminance" maskUnits="userSpaceOnUse" x="-166" y="0" width="1407" height="669">
<path d="M1240.29 0H-166V669H1240.29V0Z" fill="white"/>
</mask>
<g mask="url(#mask1_642_1450)">
<path d="M1107.2 422.949C1154.06 406.472 1196.94 381.726 1234.04 350.51C1234.17 360.209 1234.93 370.771 1236.33 380.193C1199.05 409.013 1156.84 431.933 1111.14 447.446L1110.41 433.101L1107.2 422.935V422.949ZM566.631 48.4243C566.631 225.805 685.435 376.409 848.938 427.478L853.335 454.283C673.675 403.799 541.798 240.967 541.798 48.4243C541.798 32.0491 542.791 15.8931 544.646 0H569.64C567.668 15.8785 566.631 32.0345 566.631 48.4243Z" fill="#003C51"/>
<path d="M1089.42 366.622C1149.05 345.164 1201.03 307.958 1240.09 260.147C1240.03 266.648 1240.09 273.133 1240.09 279.634L1238.23 287.683C1237.22 292.591 1236.46 297.178 1235.88 301.589C1197.26 340.562 1149.84 371.063 1096.8 389.951L1089.44 366.622H1089.42ZM626.596 48.4243C626.596 187.109 711.86 306.57 833.556 358.895L841.357 388.344C701.503 336.574 601.748 203.733 601.748 48.4243C601.748 32.0053 602.887 15.8493 605.049 0H630.131C627.823 15.8201 626.596 31.9907 626.596 48.4243Z" fill="#003C51"/>
<path d="M690.839 0C688.034 15.7324 686.559 31.9177 686.559 48.4243C686.559 156.491 749.225 250.433 840.727 297.017L834.329 321.163C732.149 271.424 661.726 167.856 661.726 48.4243C661.726 31.9469 663.084 15.7762 665.67 0L690.839 0ZM1238.74 201.308C1205.33 257.532 1154.1 302.349 1092.71 328.189L1096.35 299.705C1160.61 268.678 1211.29 214.557 1237.15 148.413C1237.3 153.818 1237.62 159.106 1238.13 164.102L1238.83 169.565L1238.58 186.905C1238.58 191.93 1238.61 196.662 1238.76 201.322L1238.74 201.308Z" fill="#003C51"/>
<path d="M1112.72 220.064C1118.77 215.243 1124.58 210.072 1130.16 204.594C1172.61 162.875 1195.99 107.424 1195.99 48.4243V0H1220.82V48.4243C1220.82 113.925 1194.86 175.525 1147.72 221.846C1134.87 234.482 1120.84 245.569 1105.9 255.02L1113.93 224.68L1112.71 220.064H1112.72ZM746.523 48.4243C746.523 128.956 790.624 199.555 856.329 238.134L849.843 262.616C773.46 220.634 721.705 140.365 721.705 48.4243C721.705 31.8446 723.4 15.6594 726.599 0H751.987C748.422 15.5863 746.538 31.8008 746.538 48.4243H746.523Z" fill="#003C51"/>
<path d="M1093.18 157.236C1119.79 128.474 1136.02 90.2751 1136.02 48.4242V-4.08124e-05H1160.85V48.4242C1160.85 101.026 1138.55 148.589 1102.77 182.508L1098.48 166.279L1093.19 157.222L1093.18 157.236ZM806.488 48.4242C806.488 92.2325 824.295 132.024 853.145 161.195L844.424 166.279L851.421 192.689C808.869 158.493 781.655 106.519 781.655 48.4096C781.655 31.6693 783.934 15.4402 788.17 -0.0146484H814.026C809.132 15.2795 806.503 31.5524 806.503 48.4096L806.488 48.4242Z" fill="#003C51"/>
<path d="M852.721 487.88C823.33 496.747 795.342 508.813 769.209 523.683L761.54 499.917C790.653 483.834 821.84 470.994 854.605 461.878L857.016 476.618L852.721 487.865V487.88ZM1236.58 568.149C1199.33 536.29 1156.12 511.004 1108.84 494.147L1112.88 481.482L1112.27 469.474C1158.44 485.294 1201.05 508.652 1238.55 538.043C1238.55 539.81 1238.55 541.534 1238.57 543.184L1238.8 552.227L1237.92 557.135C1237.35 560.889 1236.92 564.541 1236.58 568.164V568.149Z" fill="#003C51"/>
<path d="M831.847 558.362C813.85 566.221 796.657 575.54 780.428 586.189L782.049 563.489L780.106 557.456C798.03 546.763 816.932 537.546 836.667 529.935L834.856 534.668L831.847 558.377V558.362ZM1238.63 654.641C1200.05 608.057 1149.15 571.699 1090.85 550.445L1098.3 527.116C1150.6 545.989 1197.36 576.183 1235.54 614.631C1235.63 629.895 1236.24 641.304 1238.63 654.641Z" fill="#003C51"/>
<path d="M836.901 621.496C814.156 633.518 793.253 648.461 774.73 665.859L777.199 631.312C793.282 618.559 810.694 607.341 829.188 597.904L836.901 621.496ZM1171.05 669C1148.58 647.234 1122.48 629.092 1093.72 615.55L1085.76 585.502C1132.06 603.689 1172.89 632.554 1205.07 669H1171.05Z" fill="#003C51"/>
<path d="M825.697 669H852.429L847.842 654.991C840.203 659.286 832.811 663.96 825.697 669ZM1105.96 661.725L1107.89 669H1116.81C1113.26 666.487 1109.64 664.048 1105.96 661.725Z" fill="#003C51"/>
<path d="M806.488 421.021V495.973C806.488 502.707 800.937 508.17 794.072 508.17C787.206 508.17 781.655 502.707 781.655 495.973V421.021C781.655 414.287 787.221 408.824 794.072 408.824C800.923 408.824 806.488 414.287 806.488 421.021Z" fill="#003C51"/>
<path d="M446.717 0V209.094C446.717 215.828 441.151 221.291 434.3 221.291C427.449 221.291 421.884 215.828 421.884 209.094V0H446.717Z" fill="#003C51"/>
<path d="M506.681 0V225.513C506.681 232.247 501.13 237.71 494.264 237.71C487.399 237.71 481.848 232.247 481.848 225.513V0H506.681Z" fill="#003C51"/>
<path d="M566.631 0V250.141C566.631 256.875 561.08 262.338 554.214 262.338C547.349 262.338 541.798 256.875 541.798 250.141V0H566.631Z" fill="#003C51"/>
<path d="M871.902 0C870.105 20.0563 862.758 37.6438 858.127 48.7164C857.309 50.6592 856.593 52.3829 856.009 53.8583C855.366 55.4944 854.577 57.408 853.672 59.5699C849.07 70.584 841.357 89.0189 841.357 107.907C841.357 126.794 849.07 145.214 853.672 156.229C854.577 158.39 855.366 160.304 856.009 161.94C856.579 163.415 857.309 165.125 858.127 167.082C863.43 179.761 872.311 200.986 872.311 224.695C872.311 248.403 863.43 269.613 858.142 282.292C857.324 284.25 856.608 285.973 856.024 287.449C855.381 289.085 854.592 290.999 853.686 293.16C849.085 304.175 841.372 322.609 841.372 341.497C841.372 360.385 849.085 378.82 853.686 389.819C854.592 391.981 855.381 393.895 856.024 395.531C856.608 397.006 857.324 398.73 858.142 400.673C863.444 413.352 872.311 434.577 872.311 458.27C872.311 481.964 863.43 503.189 858.142 515.868C857.324 517.811 856.608 519.535 856.024 521.025C855.381 522.661 854.592 524.574 853.686 526.736C849.085 537.75 841.372 556.185 841.372 575.058C841.372 593.931 849.085 612.381 853.686 623.38C854.592 625.542 855.381 627.456 856.024 629.092C856.593 630.567 857.324 632.291 858.142 634.234C861.662 642.648 866.745 654.831 869.784 669H844.264C841.606 658.906 837.866 649.937 835.178 643.51C834.273 641.348 833.484 639.434 832.841 637.798C832.272 636.323 831.541 634.599 830.723 632.656C825.421 619.977 816.539 598.752 816.539 575.058C816.539 551.365 825.421 530.14 830.723 517.461C831.541 515.518 832.257 513.794 832.841 512.319C833.484 510.683 834.273 508.769 835.178 506.607C839.78 495.593 847.493 477.158 847.493 458.285C847.493 439.412 839.78 420.963 835.178 409.963C834.273 407.801 833.484 405.887 832.841 404.251C832.272 402.776 831.541 401.052 830.723 399.11C825.421 386.43 816.539 365.205 816.539 341.512C816.539 317.818 825.421 296.593 830.723 283.914C831.541 281.971 832.257 280.247 832.841 278.772C833.484 277.136 834.273 275.222 835.178 273.06C839.78 262.046 847.493 243.611 847.493 224.738C847.493 205.865 839.78 187.416 835.178 176.402C834.273 174.254 833.484 172.341 832.841 170.705C832.272 169.229 831.541 167.506 830.723 165.548C825.421 152.869 816.539 131.644 816.539 107.95C816.539 84.2568 825.421 63.0173 830.723 50.3525C831.541 48.3951 832.257 46.686 832.841 45.2106C833.484 43.5745 834.273 41.6609 835.178 39.5136C839.049 30.2378 845.126 15.7178 846.967 0.0730381H871.931L871.902 0Z" fill="#003C51"/>
<path d="M935.415 0C933.618 20.0563 926.27 37.6292 921.64 48.7018C920.822 50.6446 920.106 52.3683 919.521 53.8437C918.879 55.4798 918.09 57.3934 917.184 59.5553C912.583 70.5694 904.87 89.0043 904.87 107.892C904.87 126.78 912.568 145.2 917.184 156.214C918.09 158.376 918.893 160.289 919.521 161.926C920.091 163.401 920.822 165.125 921.64 167.067C926.942 179.747 935.824 200.972 935.824 224.665C935.824 248.359 926.957 269.584 921.64 282.263C920.822 284.221 920.106 285.944 919.521 287.42C918.879 289.056 918.09 290.969 917.184 293.131C912.583 304.145 904.87 322.58 904.87 341.468C904.87 360.355 912.568 378.79 917.184 389.79C918.09 391.952 918.893 393.865 919.521 395.501C920.091 396.977 920.822 398.701 921.64 400.643C926.942 413.323 935.824 434.548 935.824 458.241C935.824 481.935 926.957 503.16 921.64 515.839C920.822 517.782 920.106 519.506 919.521 520.996C918.879 522.632 918.09 524.545 917.184 526.707C912.583 537.721 904.87 556.156 904.87 575.029C904.87 593.902 912.568 612.352 917.184 623.351C918.09 625.513 918.893 627.427 919.521 629.063C920.091 630.538 920.822 632.262 921.64 634.205C925.16 642.619 930.258 654.801 933.282 668.971H907.762C905.104 658.877 901.364 649.908 898.676 643.481C897.771 641.319 896.982 639.405 896.339 637.769C895.755 636.294 895.039 634.57 894.221 632.627C888.918 619.948 880.037 598.723 880.037 575.029C880.037 551.336 888.918 530.111 894.221 517.431C895.039 515.488 895.755 513.765 896.339 512.289C896.967 510.653 897.771 508.74 898.676 506.578C903.278 495.564 910.991 477.129 910.991 458.256C910.991 439.383 903.278 420.933 898.676 409.934C897.771 407.772 896.982 405.858 896.339 404.222C895.755 402.747 895.039 401.023 894.221 399.08C888.918 386.401 880.037 365.176 880.037 341.482C880.037 317.789 888.918 296.564 894.221 283.885C895.039 281.942 895.755 280.218 896.339 278.743C896.967 277.107 897.771 275.193 898.676 273.031C903.278 262.017 910.991 243.582 910.991 224.709C910.991 205.836 903.278 187.387 898.676 176.387C897.771 174.225 896.982 172.312 896.339 170.675C895.755 169.2 895.039 167.476 894.221 165.534C888.918 152.854 880.037 131.629 880.037 107.936C880.037 84.2422 888.918 63.0027 894.221 50.3379C895.039 48.3805 895.755 46.6714 896.339 45.196C896.967 43.5599 897.771 41.6463 898.676 39.4844C902.547 30.2086 908.624 15.6886 910.45 0.0584305H935.415V0Z" fill="#003C51"/>
<path d="M998.929 0C997.133 20.0563 989.785 37.6292 985.154 48.7018C984.336 50.6446 983.62 52.3683 983.036 53.8437C982.408 55.4798 981.605 57.3934 980.699 59.5553C976.098 70.5694 968.385 89.0042 968.385 107.892C968.385 126.78 976.098 145.2 980.699 156.214C981.605 158.376 982.408 160.289 983.036 161.926C983.606 163.401 984.336 165.125 985.154 167.067C990.457 179.747 999.324 200.972 999.324 224.665C999.324 248.359 990.457 269.584 985.154 282.263C984.336 284.221 983.62 285.944 983.036 287.42C982.408 289.056 981.605 290.969 980.699 293.117C976.098 304.131 968.385 322.566 968.385 341.453C968.385 360.341 976.098 378.776 980.699 389.79C981.605 391.937 982.393 393.851 983.036 395.487C983.606 396.962 984.336 398.686 985.154 400.643C990.457 413.323 999.324 434.548 999.324 458.241C999.324 481.935 990.457 503.16 985.154 515.839C984.336 517.782 983.62 519.506 983.036 520.996C982.408 522.632 981.605 524.545 980.699 526.693C976.098 537.707 968.385 556.141 968.385 575.029C968.385 593.917 976.098 612.352 980.699 623.366C981.605 625.513 982.393 627.427 983.036 629.063C983.606 630.538 984.336 632.262 985.154 634.219C988.675 642.633 993.758 654.816 996.797 668.985H971.277C968.618 658.891 964.879 649.922 962.191 643.495C961.285 641.333 960.497 639.419 959.854 637.783C959.284 636.308 958.554 634.599 957.75 632.642C952.448 619.962 943.566 598.737 943.566 575.029C943.566 551.321 952.448 530.096 957.75 517.417C958.554 515.474 959.284 513.75 959.854 512.275C960.497 510.639 961.285 508.725 962.191 506.563C966.793 495.549 974.505 477.114 974.505 458.241C974.505 439.368 966.793 420.919 962.191 409.919C961.285 407.757 960.497 405.844 959.854 404.208C959.284 402.732 958.554 401.009 957.75 399.08C952.448 386.401 943.566 365.176 943.566 341.468C943.566 317.76 952.448 296.535 957.75 283.855C958.554 281.913 959.284 280.189 959.854 278.713C960.497 277.077 961.285 275.164 962.191 273.002C966.793 261.988 974.505 243.553 974.505 224.68C974.505 205.807 966.793 187.357 962.191 176.358C961.285 174.196 960.497 172.282 959.854 170.646C959.27 169.171 958.554 167.447 957.75 165.504C952.448 152.825 943.566 131.6 943.566 107.907C943.566 84.213 952.448 62.9735 957.75 50.3087C958.554 48.3512 959.284 46.6421 959.854 45.1668C960.497 43.5307 961.285 41.6171 962.191 39.4552C966.062 30.1794 972.139 15.6594 973.965 0.0292152H998.929V0Z" fill="#003C51"/>
<path d="M1062.44 -8.16286e-05C1060.65 20.0562 1053.3 37.6292 1048.67 48.7017C1047.85 50.6446 1047.13 52.3683 1046.55 53.8436C1045.91 55.4797 1045.12 57.3933 1044.21 59.5406C1039.61 70.5547 1031.9 88.9896 1031.9 107.877C1031.9 126.765 1039.61 145.2 1044.21 156.214C1045.12 158.376 1045.91 160.275 1046.55 161.911C1047.12 163.386 1047.85 165.11 1048.67 167.053C1053.97 179.732 1062.85 200.957 1062.85 224.651C1062.85 248.344 1053.97 269.569 1048.67 282.248C1047.85 284.206 1047.13 285.93 1046.55 287.405C1045.91 289.041 1045.12 290.955 1044.21 293.102C1039.61 304.116 1031.9 322.551 1031.9 341.439C1031.9 360.326 1039.61 378.761 1044.21 389.775C1045.12 391.922 1045.91 393.836 1046.55 395.472C1047.12 396.947 1047.85 398.671 1048.67 400.629C1053.97 413.308 1062.85 434.533 1062.85 458.226C1062.85 481.92 1053.97 503.16 1048.67 515.839C1047.86 517.782 1047.13 519.505 1046.55 520.981C1045.92 522.617 1045.12 524.53 1044.21 526.692C1039.61 537.707 1031.9 556.141 1031.9 575.014C1031.9 593.887 1039.61 612.337 1044.21 623.336C1045.12 625.498 1045.92 627.412 1046.55 629.048C1047.12 630.523 1047.85 632.247 1048.67 634.19C1052.19 642.604 1057.29 654.787 1060.31 668.956H1034.79C1032.13 658.848 1028.39 649.893 1025.7 643.466C1024.8 641.304 1024.01 639.405 1023.37 637.769C1022.78 636.293 1022.07 634.57 1021.25 632.612C1015.95 619.933 1007.06 598.708 1007.06 575.014C1007.06 551.321 1015.95 530.096 1021.25 517.417C1022.07 515.474 1022.78 513.75 1023.37 512.275C1023.99 510.639 1024.8 508.725 1025.7 506.578C1030.31 495.564 1038.02 477.129 1038.02 458.241C1038.02 439.353 1030.31 420.919 1025.7 409.904C1024.8 407.742 1024.01 405.829 1023.37 404.193C1022.78 402.717 1022.07 400.994 1021.26 399.051C1015.96 386.372 1007.08 365.147 1007.08 341.439C1007.08 317.73 1015.96 296.505 1021.26 283.826C1022.08 281.883 1022.8 280.16 1023.37 278.684C1023.99 277.048 1024.8 275.135 1025.7 272.973C1030.31 261.958 1038.02 243.524 1038.02 224.651C1038.02 205.778 1030.31 187.328 1025.7 176.329C1024.8 174.167 1024.01 172.253 1023.37 170.617C1022.78 169.142 1022.07 167.418 1021.26 165.475C1015.96 152.796 1007.08 131.571 1007.08 107.863C1007.08 84.1544 1015.96 62.9296 1021.26 50.2501C1022.08 48.3073 1022.8 46.5836 1023.37 45.1083C1023.99 43.4722 1024.8 41.5586 1025.7 39.3967C1029.57 30.1208 1035.65 15.6009 1037.48 -0.0292969H1062.44V-8.16286e-05Z" fill="#003C51"/>
<path d="M1125.94 0C1124.15 20.0563 1116.8 37.6438 1112.17 48.7164C1111.35 50.6592 1110.63 52.3829 1110.05 53.8583C1109.41 55.4944 1108.62 57.408 1107.71 59.5699C1103.11 70.584 1095.4 89.0189 1095.4 107.907C1095.4 126.794 1103.11 145.229 1107.71 156.229C1108.62 158.39 1109.41 160.304 1110.05 161.94C1110.62 163.415 1111.35 165.139 1112.17 167.082C1117.47 179.761 1126.35 200.986 1126.35 224.695C1126.35 248.403 1117.47 269.628 1112.17 282.307C1111.35 284.25 1110.63 285.973 1110.05 287.449C1109.41 289.085 1108.62 290.999 1107.71 293.16C1103.11 304.175 1095.4 322.609 1095.4 341.497C1095.4 360.385 1103.11 378.805 1107.71 389.819C1108.62 391.981 1109.41 393.895 1110.05 395.531C1110.62 397.006 1111.35 398.73 1112.17 400.673C1117.47 413.352 1126.35 434.577 1126.35 458.285C1126.35 481.993 1117.47 503.218 1112.17 515.898C1111.35 517.84 1110.63 519.564 1110.05 521.039C1109.41 522.675 1108.62 524.589 1107.71 526.751C1103.11 537.765 1095.4 556.2 1095.4 575.073C1095.4 593.946 1103.11 612.395 1107.71 623.395C1108.62 625.557 1109.41 627.471 1110.05 629.107C1110.62 630.582 1111.35 632.306 1112.17 634.234C1115.69 642.648 1120.79 654.831 1123.81 669.015H1098.29C1095.63 658.906 1091.89 649.952 1089.2 643.51C1088.3 641.362 1087.51 639.449 1086.87 637.813C1086.3 636.337 1085.57 634.614 1084.75 632.656C1079.45 619.977 1070.56 598.752 1070.56 575.058C1070.56 551.365 1079.45 530.14 1084.75 517.461C1085.55 515.518 1086.28 513.794 1086.87 512.319C1087.51 510.683 1088.3 508.769 1089.2 506.622C1093.81 495.608 1101.52 477.173 1101.52 458.285C1101.52 439.397 1093.81 420.963 1089.2 409.948C1088.3 407.786 1087.51 405.887 1086.87 404.251C1086.3 402.776 1085.57 401.052 1084.75 399.095C1079.45 386.415 1070.56 365.191 1070.56 341.497C1070.56 317.803 1079.45 296.579 1084.75 283.899C1085.57 281.956 1086.28 280.233 1086.87 278.757C1087.51 277.121 1088.3 275.208 1089.2 273.06C1093.81 262.046 1101.52 243.611 1101.52 224.724C1101.52 205.836 1093.81 187.401 1089.2 176.387C1088.3 174.225 1087.51 172.326 1086.87 170.69C1086.3 169.215 1085.57 167.491 1084.75 165.548C1079.45 152.869 1070.56 131.644 1070.56 107.936C1070.56 84.2276 1079.45 63.0027 1084.75 50.3233C1085.57 48.3805 1086.28 46.6568 1086.87 45.1814C1087.51 43.5453 1088.3 41.6317 1089.2 39.4844C1093.07 30.2086 1099.15 15.6886 1100.98 0.0438229H1125.94V0Z" fill="#003C51"/>
<path d="M767.004 669C769.166 652.362 770.291 635.417 770.291 618.209C770.291 398.949 588.776 220.575 365.674 220.575C142.572 220.575 -38.9424 398.949 -38.9424 618.209V669H-63.7754V618.209C-63.7754 385.495 128.87 196.166 365.674 196.166C602.478 196.166 795.124 385.495 795.124 618.209C795.124 635.403 794.043 652.348 791.998 669H766.99H767.004Z" fill="#003C51"/>
<path d="M706.455 669C708.997 652.42 710.326 635.461 710.326 618.209C710.326 431.451 555.719 279.502 365.674 279.502C175.629 279.502 21.0214 431.451 21.0214 618.209V669H-3.81152V618.209C-3.81152 417.997 161.941 255.107 365.674 255.107C569.406 255.107 735.159 417.997 735.159 618.209C735.159 635.446 733.903 652.406 731.522 669H706.44H706.455Z" fill="#003C51"/>
<path d="M645.702 669C648.785 652.406 650.362 635.432 650.362 618.209C650.362 463.938 522.648 338.429 365.674 338.429C208.701 338.429 80.9863 463.938 80.9863 618.209V669H56.1533V618.209C56.1533 450.484 194.999 314.035 365.674 314.035C536.35 314.035 675.195 450.484 675.195 618.209C675.195 635.402 673.749 652.376 670.915 669H645.702Z" fill="#003C51"/>
<path d="M584.394 669C588.323 652.683 590.398 635.68 590.398 618.209C590.398 496.425 489.576 397.356 365.674 397.356C241.772 397.356 140.95 496.425 140.95 618.209V669H116.117V618.209C116.117 482.971 228.07 372.961 365.674 372.961C503.278 372.961 615.23 482.986 615.23 618.209C615.23 635.621 613.361 652.61 609.84 669H584.394Z" fill="#003C51"/>
<path d="M522.121 669C527.511 653.019 530.433 635.943 530.433 618.209C530.433 528.928 456.518 456.284 365.673 456.284C274.829 456.284 200.914 528.928 200.914 618.209V669H176.081V618.209C176.081 515.474 261.141 431.889 365.673 431.889C470.206 431.889 555.266 515.474 555.266 618.209C555.266 635.812 552.768 652.844 548.108 669H522.121Z" fill="#003C51"/>
<path d="M528.797 641.07C518.236 645.598 504.314 652.405 493.695 662.85C491.708 664.807 489.853 666.867 488.115 668.999H458.184C462.829 661.097 468.686 652.916 476.136 645.583C492.555 629.442 513.284 620.94 525.671 615.857C527.438 615.126 529.031 614.484 530.374 613.899C530.418 615.331 530.433 616.762 530.433 618.209C530.433 625.965 529.878 633.605 528.797 641.07Z" fill="#003C51"/>
<path d="M526.007 580.901C517.184 585.707 508.872 589.111 502.664 591.667C500.78 592.441 499.1 593.128 497.698 593.741C496.135 594.428 494.265 595.187 492.161 596.064C481.483 600.446 463.589 607.794 450.617 620.517C437.66 633.255 430.181 650.843 425.726 661.345C424.849 663.405 424.061 665.246 423.374 666.779C423.067 667.466 422.746 668.196 422.395 669H395.43C396.525 666.546 397.489 664.282 398.337 662.266C399.213 660.191 400.002 658.365 400.688 656.817C401.317 655.444 402.018 653.793 402.807 651.938C407.978 639.77 416.625 619.407 433.059 603.251C449.478 587.109 470.206 578.608 482.593 573.524C484.492 572.75 486.158 572.064 487.575 571.45C489.138 570.764 491.007 570.004 493.111 569.127C499.699 566.425 509.019 562.598 518.251 557.076C521.435 564.731 524.05 572.692 526.022 580.887" fill="#003C51"/>
<path d="M501.365 526.473C486.582 538.262 470.09 545.025 459.601 549.334C457.717 550.108 456.037 550.795 454.635 551.409C453.072 552.095 451.202 552.855 449.098 553.731C438.406 558.113 420.511 565.446 407.554 578.199C394.597 590.937 387.118 608.51 382.663 619.013C381.787 621.087 380.998 622.913 380.297 624.461C379.668 625.834 378.982 627.485 378.193 629.34C373.957 639.332 367.354 654.845 356.048 669.015H320.42C323.911 666.56 327.286 663.814 330.382 660.776C343.354 648.038 350.818 630.45 355.274 619.948C356.15 617.888 356.924 616.047 357.626 614.513C358.254 613.126 358.955 611.475 359.744 609.635C364.915 597.466 373.562 577.103 389.996 560.962C406.43 544.82 427.143 536.319 439.531 531.235C441.429 530.461 443.095 529.775 444.497 529.161C446.06 528.475 447.93 527.715 450.033 526.839C459.207 523.084 473.654 517.139 485.764 507.498C491.431 513.429 496.646 519.783 501.365 526.488" fill="#003C51"/>
<path d="M458.14 484.257C443.386 495.972 426.982 502.706 416.523 507.001C414.638 507.775 412.958 508.462 411.556 509.075C409.993 509.762 408.123 510.536 406.02 511.383C395.327 515.766 377.447 523.113 364.476 535.851C351.519 548.589 344.054 566.162 339.584 576.665C338.708 578.739 337.919 580.565 337.218 582.114C336.59 583.487 335.888 585.137 335.1 586.992C329.929 599.161 321.281 619.538 304.847 635.68C288.428 651.821 267.7 660.323 255.327 665.406C253.443 666.18 251.763 666.867 250.346 667.495C249.294 667.963 248.097 668.459 246.782 669H200.899V664.72C213.535 656.189 226.492 650.886 235.257 647.293C237.141 646.519 238.821 645.832 240.223 645.218C241.786 644.532 243.656 643.758 245.759 642.896C256.438 638.514 274.332 631.166 287.289 618.443C300.246 605.705 307.725 588.117 312.18 577.614C313.057 575.555 313.831 573.714 314.532 572.18C315.16 570.793 315.861 569.142 316.65 567.287C321.821 555.119 330.469 534.756 346.888 518.614C363.322 502.473 384.035 493.971 396.422 488.888C398.321 488.113 399.987 487.427 401.389 486.813C402.952 486.127 404.822 485.367 406.925 484.491C414.054 481.569 424.381 477.333 434.329 471.052C442.656 474.821 450.602 479.247 458.11 484.272" fill="#003C51"/>
<path d="M388.973 457.905C383.144 460.695 377.798 462.901 373.459 464.668C371.575 465.443 369.895 466.129 368.493 466.743C366.93 467.429 365.06 468.203 362.956 469.065C352.264 473.448 334.369 480.795 321.412 493.518C308.455 506.256 300.991 523.829 296.521 534.332C295.645 536.406 294.856 538.232 294.155 539.781C293.526 541.169 292.825 542.805 292.036 544.674C286.865 556.842 278.218 577.206 261.799 593.347C245.365 609.488 224.651 617.99 212.264 623.073C210.38 623.848 208.7 624.534 207.298 625.148C205.735 625.834 203.865 626.594 201.761 627.47L200.914 627.821V618.195C200.914 612.352 201.235 606.581 201.849 600.899L202.696 600.549C213.389 596.166 231.269 588.819 244.24 576.095C257.197 563.358 264.662 545.785 269.132 535.267C270.008 533.193 270.797 531.367 271.498 529.818C272.126 528.431 272.827 526.78 273.616 524.925C278.787 512.757 287.435 492.394 303.869 476.252C309.551 470.658 315.759 465.983 321.953 462.054C335.889 458.285 350.555 456.254 365.688 456.254C373.591 456.254 381.377 456.824 388.987 457.876" fill="#003C51"/>
<path d="M189.9 245.7C223.643 187.912 243.027 121.038 243.29 49.8262L258.044 59.7009L267.115 77.42C263.215 133.469 248.155 186.554 224.081 234.51L189.914 245.7H189.9ZM-25.3584 422.949C-10.0935 417.588 4.73327 411.336 19.0926 404.28L-0.540085 439.747C-7.42028 442.479 -14.3735 445.065 -21.429 447.446L-22.1594 433.101L-25.373 422.934L-25.3584 422.949Z" fill="#003C51"/>
<path d="M-43.1504 366.622C88.8733 319.118 183.341 194.413 183.341 48.424V9.66992L208.174 26.2934V48.424C208.174 205.354 106.344 339.335 -35.7735 389.936L-43.1358 366.607L-43.1504 366.622Z" fill="#003C51"/>
<path d="M123.377 48.4243V0H148.21V48.4243C148.21 173.802 70.6142 281.693 -39.8633 328.189L-36.226 299.705C58.2123 254.114 123.377 158.61 123.377 48.4243Z" fill="#003C51"/>
<path d="M-19.8511 220.064C-13.8181 215.243 -7.9897 210.087 -2.40959 204.594C40.0402 162.875 63.4124 107.424 63.4124 48.4243V0H88.2453V48.4243C88.2453 113.925 62.2876 175.525 15.1488 221.846C2.29408 234.482 -11.7293 245.569 -26.6729 255.02L-18.6387 224.68L-19.8657 220.064H-19.8511Z" fill="#003C51"/>
<path d="M-39.3955 157.236C-12.7804 128.474 3.44865 90.2751 3.44865 48.4243V0H28.2816V48.4243C28.2816 101.026 5.97578 148.589 -29.8129 182.508L-34.1075 166.279L-39.3955 157.236Z" fill="#003C51"/>
<path d="M235.286 230.83C231.634 230.333 227.924 230.041 224.184 230.041C220.444 230.041 216.53 230.347 212.79 230.859L224.184 210.335L225.265 205.646C245.57 205.865 264.019 212.176 276.874 217.201L235.286 230.815V230.83Z" fill="#003C51"/>
<path d="M385.233 190.323C373.372 194.34 358.735 198.05 343.017 198.05C318.9 198.05 297.31 189.329 284.397 184.114C282.41 183.311 280.657 182.61 279.153 182.04C277.488 181.412 275.545 180.623 273.339 179.747C264.034 175.993 249.514 170.12 233.869 168.251L239.376 144.353C257.212 146.865 272.667 153.103 282.775 157.193C284.762 157.996 286.515 158.697 288.02 159.267C289.685 159.895 291.628 160.684 293.819 161.56C305.023 166.089 323.779 173.67 343.003 173.67L385.219 190.352L385.233 190.323Z" fill="#003C51"/>
<path d="M293.833 99.127C291.642 98.2359 289.699 97.4617 288.034 96.8336C286.529 96.2785 284.776 95.5627 282.789 94.7593C275.383 91.7647 265.114 87.6161 253.136 84.6216L247.644 108.447C257.825 111.047 266.853 114.699 273.338 117.313C275.53 118.205 277.472 118.993 279.152 119.607C280.657 120.177 282.41 120.878 284.382 121.681L293.818 99.1123L293.833 99.127Z" fill="#003C51"/>
<path d="M399.11 212.716L398.73 212.336C385.773 199.599 367.879 192.266 357.201 187.883C355.097 187.021 353.228 186.247 351.665 185.561C350.262 184.947 348.582 184.261 346.698 183.486C334.311 178.403 313.597 169.901 297.163 153.76C280.745 137.618 272.082 117.255 266.926 105.087C266.137 103.232 265.436 101.581 264.808 100.194C264.106 98.6599 263.332 96.8193 262.456 94.7597C258 84.2568 250.521 66.6692 237.564 53.9314C224.607 41.1935 206.713 33.8605 196.02 29.4782C193.917 28.6163 192.047 27.8421 190.484 27.1556C189.082 26.5421 187.402 25.8555 185.517 25.0813C174.386 20.5091 156.507 13.1761 141.066 0H188.936C191.156 0.949496 193.23 1.79674 195.085 2.55633C197.189 3.41818 199.059 4.19239 200.622 4.86434C202.024 5.47786 203.704 6.16442 205.588 6.93862C217.976 12.0221 238.704 20.5237 255.123 36.6651C271.556 52.8066 280.204 73.1842 285.375 85.3524C286.164 87.2075 286.865 88.8582 287.493 90.2313C288.194 91.7651 288.969 93.6057 289.845 95.6799C294.3 106.183 301.779 123.77 314.736 136.508C327.693 149.246 345.588 156.579 356.281 160.961C358.384 161.823 360.254 162.597 361.817 163.284C363.219 163.898 364.899 164.584 366.798 165.373C379.185 170.456 399.899 178.958 416.332 195.099C422.073 200.738 426.85 206.888 430.882 213.023L399.154 212.731L399.11 212.716Z" fill="#003C51"/>
<path d="M435.658 164.628C423.622 155.133 409.336 149.275 400.25 145.55C398.146 144.689 396.276 143.929 394.713 143.242C393.311 142.629 391.631 141.942 389.747 141.168C377.359 136.085 356.646 127.583 340.212 111.442C323.793 95.3002 315.146 74.9372 309.974 62.769C309.186 60.9138 308.485 59.2632 307.856 57.8755C307.155 56.3417 306.381 54.5011 305.505 52.4414C301.035 41.9385 293.57 24.351 280.613 11.6131C276.026 7.09935 270.826 3.27215 265.538 0.0146484H303.474C316.519 15.0313 323.837 32.2683 328.424 43.0487C329.213 44.9039 329.914 46.5545 330.527 47.9277C331.229 49.4615 332.003 51.302 332.894 53.3763C337.349 63.8792 344.828 81.4522 357.785 94.19C370.742 106.928 388.637 114.261 399.329 118.658C401.433 119.52 403.303 120.294 404.866 120.98C406.268 121.594 407.948 122.28 409.832 123.055C416.625 125.845 425.944 129.672 435.673 135.208V164.643L435.658 164.628Z" fill="#003C51"/>
<path d="M435.659 100.004C434.783 99.6386 433.819 99.2442 432.811 98.8352C420.438 93.7517 399.71 85.2501 383.291 69.1087C366.857 52.9526 358.21 32.5896 353.039 20.4215C352.25 18.5663 351.549 16.9302 350.935 15.5425C350.234 14.0087 349.46 12.1681 348.569 10.0939C347.327 7.18695 345.866 3.73955 344.113 0H371.181L371.473 0.701166C372.262 2.55633 372.963 4.207 373.592 5.59472C374.293 7.12852 375.067 8.96908 375.943 11.0288C380.413 21.5316 387.878 39.1192 400.835 51.8571C411.352 62.1993 425.127 68.9772 435.659 73.5056V100.004Z" fill="#003C51"/>
<path d="M435.66 34.8392C432.461 32.3851 429.335 29.6973 426.355 26.7758C417.838 18.4056 411.411 8.91065 406.474 0H435.66V34.8392Z" fill="#003C51"/>
</g>
</mask>
<g mask="url(#mask0_642_1450)">
<rect x="-3" width="1081" height="669" fill="url(#paint0_linear_642_1450)"/>
</g>
<defs>
<linearGradient id="paint0_linear_642_1450" x1="486.5" y1="680.5" x2="1056" y2="11.5" gradientUnits="userSpaceOnUse">
<stop stop-color="#0D2F3C"/>
<stop offset="1" stop-color="#0D4355"/>
</linearGradient>
</defs>
</svg>
