<svg width="18" height="18" viewBox="0 0 18 18" fill="none" xmlns="http://www.w3.org/2000/svg">
<g clip-path="url(#clip0_2024_2437)">
<path d="M16.6585 0.021416C15.4524 0.0863198 13.8081 1.09503 13.2835 1.62238L11.1417 3.7642L8.63206 3.59113C8.7808 3.20982 8.79703 2.73926 8.48062 2.42286C8.01277 1.95501 7.19606 2.21192 6.85802 2.55267L5.99264 3.41805L1.38447 3.11517L0.108023 4.43488L7.6585 7.22574L3.80754 11.0767H1.51427L0.0214844 12.5911L4.34841 13.6512L5.4085 17.9781L6.92293 16.4854V14.1705L10.7739 10.3195L13.5648 17.8916L14.8845 16.6152L14.5816 12.007L15.447 11.1416C15.7877 10.8036 16.0446 9.98686 15.5768 9.51901C15.2604 9.20261 14.7898 9.21883 14.4085 9.36757L14.2354 6.85795L16.3773 4.71613C17.0804 4.013 18.6435 1.29245 17.6753 0.324301C17.4319 0.0809115 17.0614 -0.000218628 16.6585 0.021416Z" fill="#373737"/>
</g>
<defs>
<clipPath id="clip0_2024_2437">
<rect width="18" height="18" fill="white"/>
</clipPath>
</defs>
</svg>
