<svg width="22" height="17" viewBox="0 0 22 17" fill="none" xmlns="http://www.w3.org/2000/svg">
<path d="M1.25125 0.181152C0.560313 0.181152 0 0.743184 0 1.4324V12.9412C0 13.6304 0.629063 14.2612 1.32 14.2612H3.12125C3.33094 15.509 4.41375 16.4612 5.72 16.4612C7.02625 16.4612 8.10906 15.509 8.31875 14.2612H12.3888C13.078 14.2612 13.64 13.6991 13.64 13.0099V1.4599C13.64 0.755215 13.0848 0.181152 12.4025 0.181152H1.25125ZM14.52 3.26115V14.2612C14.7314 15.5072 15.8538 16.4612 17.16 16.4612C18.4662 16.4612 19.5491 15.5072 19.7587 14.2612H20.68C21.3709 14.2612 22 13.6321 22 12.9412V8.70615C22 7.821 21.3623 6.91693 21.285 6.80865L19.4562 4.36115C19.0369 3.85584 18.3786 3.26115 17.6 3.26115H14.52ZM16.72 5.46115H19.1812L20.5837 7.33115C20.7333 7.54256 21.12 8.19053 21.12 8.70615V8.98115H16.72C16.28 8.98115 15.84 8.54115 15.84 8.10115V6.34115C15.84 5.85475 16.28 5.46115 16.72 5.46115ZM5.72 12.0612C6.69109 12.0612 7.48 12.8501 7.48 13.8212C7.48 14.7922 6.69109 15.5812 5.72 15.5812C4.74891 15.5812 3.96 14.7922 3.96 13.8212C3.96 12.8501 4.74891 12.0612 5.72 12.0612ZM17.16 12.0612C18.1311 12.0612 18.92 12.8501 18.92 13.8212C18.92 14.7922 18.1311 15.5812 17.16 15.5812C16.1889 15.5812 15.4 14.7922 15.4 13.8212C15.4 12.8501 16.1889 12.0612 17.16 12.0612Z" fill="#373737"/>
</svg>
