<svg width="38" height="38" viewBox="0 0 38 38" fill="none" xmlns="http://www.w3.org/2000/svg">
<rect width="38" height="38" rx="12" fill="white"/>
<path d="M15.1587 27.7166C15.1587 27.912 15.0023 28.0704 14.8095 28.0704C14.6166 28.0704 14.4603 27.912 14.4603 27.7166V21.3482C14.4603 21.1528 14.6166 20.9944 14.8095 20.9944C15.0023 20.9944 15.1587 21.1528 15.1587 21.3482V27.7166Z" fill="#888888"/>
<path d="M12.365 27.7166C12.365 27.912 12.2087 28.0704 12.0158 28.0704C11.823 28.0704 11.6666 27.912 11.6666 27.7166V21.3482C11.6666 21.1528 11.823 20.9944 12.0158 20.9944C12.2087 20.9944 12.365 21.1528 12.365 21.3482V27.7166Z" fill="#888888"/>
<path fill-rule="evenodd" clip-rule="evenodd" d="M28.198 20.2868L19.7427 13.6972C20.2152 13.3975 20.466 12.8416 20.3804 12.2834C20.2948 11.7254 19.8892 11.2726 19.3492 11.1325V10.0265H20.3968V8.61133H17.6031V10.0265H18.6507V11.4417C18.6507 11.6371 18.8071 11.7955 18.9999 11.7955C19.3856 11.7955 19.6984 12.1124 19.6984 12.5031C19.6984 12.8939 19.3856 13.2107 18.9999 13.2107C18.6143 13.2107 18.3015 12.8939 18.3015 12.5031C18.3015 12.3078 18.1452 12.1493 17.9523 12.1493C17.7595 12.1493 17.6031 12.3078 17.6031 12.5031C17.6043 12.9886 17.8512 13.4395 18.2572 13.6972L9.80191 20.2868H9.22217V28.778H28.7777V20.2868H28.198ZM27.0527 20.2868L18.9999 14.0111L10.9472 20.2868H27.0527ZM12.0158 28.0704C12.2087 28.0704 12.365 27.912 12.365 27.7166V21.3482C12.365 21.1528 12.2087 20.9944 12.0158 20.9944C11.823 20.9944 11.6666 21.1528 11.6666 21.3482V27.7166C11.6666 27.912 11.823 28.0704 12.0158 28.0704ZM14.8095 28.0704C15.0023 28.0704 15.1587 27.912 15.1587 27.7166V21.3482C15.1587 21.1528 15.0023 20.9944 14.8095 20.9944C14.6166 20.9944 14.4603 21.1528 14.4603 21.3482V27.7166C14.4603 27.912 14.6166 28.0704 14.8095 28.0704ZM17.6031 28.0704C17.796 28.0704 17.9523 27.912 17.9523 27.7166V21.3482C17.9523 21.1528 17.796 20.9944 17.6031 20.9944C17.4103 20.9944 17.2539 21.1528 17.2539 21.3482V27.7166C17.2539 27.912 17.4103 28.0704 17.6031 28.0704ZM20.3968 28.0704C20.5896 28.0704 20.746 27.912 20.746 27.7166V21.3482C20.746 21.1528 20.5896 20.9944 20.3968 20.9944C20.2039 20.9944 20.0476 21.1528 20.0476 21.3482V27.7166C20.0476 27.912 20.2039 28.0704 20.3968 28.0704ZM23.1904 28.0704C23.3833 28.0704 23.5396 27.912 23.5396 27.7166V21.3482C23.5396 21.1528 23.3833 20.9944 23.1904 20.9944C22.9976 20.9944 22.8412 21.1528 22.8412 21.3482V27.7166C22.8412 27.912 22.9976 28.0704 23.1904 28.0704ZM25.9841 28.0704C26.1769 28.0704 26.3333 27.912 26.3333 27.7166V21.3482C26.3333 21.1528 26.1769 20.9944 25.9841 20.9944C25.7912 20.9944 25.6349 21.1528 25.6349 21.3482V27.7166C25.6349 27.912 25.7912 28.0704 25.9841 28.0704Z" fill="#323232"/>
<path d="M17.9523 27.7166C17.9523 27.912 17.796 28.0704 17.6031 28.0704C17.4103 28.0704 17.2539 27.912 17.2539 27.7166V21.3482C17.2539 21.1528 17.4103 20.9944 17.6031 20.9944C17.796 20.9944 17.9523 21.1528 17.9523 21.3482V27.7166Z" fill="#888888"/>
<path d="M20.746 27.7166C20.746 27.912 20.5896 28.0704 20.3968 28.0704C20.2039 28.0704 20.0476 27.912 20.0476 27.7166V21.3482C20.0476 21.1528 20.2039 20.9944 20.3968 20.9944C20.5896 20.9944 20.746 21.1528 20.746 21.3482V27.7166Z" fill="#888888"/>
<path d="M23.5396 27.7166C23.5396 27.912 23.3833 28.0704 23.1904 28.0704C22.9976 28.0704 22.8412 27.912 22.8412 27.7166V21.3482C22.8412 21.1528 22.9976 20.9944 23.1904 20.9944C23.3833 20.9944 23.5396 21.1528 23.5396 21.3482V27.7166Z" fill="#888888"/>
<path d="M26.3333 27.7166C26.3333 27.912 26.1769 28.0704 25.9841 28.0704C25.7912 28.0704 25.6349 27.912 25.6349 27.7166V21.3482C25.6349 21.1528 25.7912 20.9944 25.9841 20.9944C26.1769 20.9944 26.3333 21.1528 26.3333 21.3482V27.7166Z" fill="#888888"/>
</svg>
