<svg width="22" height="22" viewBox="0 0 22 22" fill="none" xmlns="http://www.w3.org/2000/svg">
<path d="M9.53317 1.4668C9.12837 1.4668 8.79984 1.79533 8.79984 2.20013C8.79984 5.9086 3.6665 8.80013 3.6665 13.9335C3.6665 17.1249 5.77264 20.5335 11.7332 20.5335C15.7914 20.5335 18.3332 17.6148 18.3332 13.9335C18.3332 12.1691 17.4493 7.66846 16.8149 6.33086H16.8121C16.7043 6.05953 16.4426 5.8668 16.1332 5.8668C15.5208 5.8668 15.4127 6.46693 15.4127 6.46693C15.4127 6.46693 15.0772 7.97146 13.9332 8.80013C13.9332 5.89466 11.7352 3.0557 10.0588 1.69023C10.0588 1.69023 9.89177 1.4668 9.53317 1.4668ZM8.92158 10.1608C9.88298 10.1608 10.5114 10.821 10.5114 11.8352C10.5114 12.8457 9.88298 13.5095 8.92158 13.5095C7.96531 13.5095 7.33317 12.845 7.33317 11.8352C7.33317 10.8254 7.96165 10.1608 8.92158 10.1608ZM12.3777 10.3227H13.873L11.3994 13.7387L9.66781 16.798H8.1682L10.6002 13.4007L12.3777 10.3227ZM8.92158 11.1262C8.64805 11.1262 8.48187 11.3865 8.48187 11.8309C8.48187 12.2709 8.64805 12.5355 8.92158 12.5355C9.19071 12.5355 9.357 12.2701 9.357 11.8309C9.357 11.3821 9.20025 11.1262 8.92158 11.1262ZM13.0824 13.6112C14.0379 13.6112 14.6665 14.2714 14.6665 15.2812C14.6665 16.2962 14.0379 16.9599 13.0824 16.9599C12.1269 16.9599 11.4983 16.2954 11.4983 15.2812C11.4983 14.2714 12.1269 13.6112 13.0824 13.6112ZM13.0824 14.578C12.8089 14.578 12.6427 14.8383 12.6427 15.2827C12.6427 15.7227 12.8089 15.9874 13.0824 15.9874C13.3515 15.9874 13.5178 15.7227 13.5178 15.2827C13.5178 14.8331 13.3552 14.578 13.0824 14.578Z" fill="#8840FF"/>
</svg>
