<svg width="36" height="36" viewBox="0 0 36 36" fill="none" xmlns="http://www.w3.org/2000/svg">
<path d="M33 18C33 26.283 26.283 33 18 33C9.717 33 3 26.283 3 18C3 9.717 9.717 3 18 3C26.283 3 33 9.717 33 18Z" fill="#000"/>
<path d="M15 26.25H12.75V9.75H20.25C22.7318 9.75 24.75 11.7682 24.75 14.25C24.75 16.7318 22.7318 18.75 20.25 18.75H15V26.25ZM15 16.5H20.25C21.489 16.5 22.5 15.489 22.5 14.25C22.5 13.011 21.489 12 20.25 12H15V16.5Z" fill="white"/>
<path d="M11.25 21H18.75V23.25H11.25V21Z" fill="white"/>
</svg>
