<svg width="258" height="136" viewBox="0 0 258 136" fill="none" xmlns="http://www.w3.org/2000/svg">
<path fill-rule="evenodd" clip-rule="evenodd" d="M60.6449 8.77962L23.9746 2.35643L23.9611 2.35388C23.6161 2.28855 23.1849 2.49705 23.0805 3.04766L2.38957 126.583L2.38722 126.596C2.30281 127.062 2.59062 127.477 3.04303 127.568C3.04625 127.569 3.04947 127.569 3.05271 127.57L39.6733 133.984L39.6868 133.987C40.0319 134.052 40.4632 133.843 40.5674 133.292C40.568 133.289 40.5686 133.286 40.5692 133.283L61.3082 9.79712C61.3836 9.21743 60.9912 8.83207 60.6677 8.78307L60.6449 8.77962ZM63.2852 10.1008L42.5371 133.639C42.2545 135.2 40.8411 136.241 39.3147 135.952L2.68059 129.535C1.15417 129.246 0.136558 127.801 0.419228 126.24L21.1107 2.70117C21.3934 1.14032 22.8067 0.0997513 24.3332 0.388798L60.9673 6.80563C62.4937 7.03687 63.5113 8.53991 63.2852 10.1008Z" fill="#4563FF"/>
<path fill-rule="evenodd" clip-rule="evenodd" d="M24.6737 122.044C30.7086 122.044 35.6766 117.029 35.6766 110.748C35.6766 104.467 30.7086 99.4519 24.6737 99.4519C18.6389 99.4519 13.6709 104.467 13.6709 110.748C13.6709 117.029 18.6389 122.044 24.6737 122.044ZM24.6737 124.044C31.855 124.044 37.6766 118.091 37.6766 110.748C37.6766 103.405 31.855 97.4519 24.6737 97.4519C17.4925 97.4519 11.6709 103.405 11.6709 110.748C11.6709 118.091 17.4925 124.044 24.6737 124.044Z" fill="#4563FF"/>
<path d="M109.208 4H71.7906C70.2529 4 69 5.28155 69 6.85437V133.146C69 134.718 70.2529 136 71.7906 136H109.208C110.745 136 111.998 134.718 111.998 133.146V6.85437C112.055 5.28155 110.802 4 109.208 4ZM90.5275 127.262C83.4086 127.262 77.5996 121.379 77.5996 114.039C77.5996 106.757 83.3517 100.816 90.5275 100.816C97.6464 100.816 103.455 106.699 103.455 114.039C103.399 121.32 97.6464 127.262 90.5275 127.262Z" fill="#4563FF"/>
<path d="M157.591 4H121.042C119.54 4 118.316 5.28155 118.316 6.85437V133.146C118.316 134.718 119.54 136 121.042 136H157.591C159.093 136 160.316 134.718 160.316 133.146V6.85437C160.316 5.28155 159.093 4 157.591 4ZM139.289 127.262C132.335 127.262 126.661 121.379 126.661 114.039C126.661 106.757 132.279 100.816 139.289 100.816C146.298 100.816 151.916 106.699 151.916 114.039C151.916 121.32 146.298 127.262 139.289 127.262Z" fill="#FF0026"/>
<path fill-rule="evenodd" clip-rule="evenodd" d="M206.229 7.00391H169.087C168.707 7.00391 168.316 7.338 168.316 7.83656V133.167C168.316 133.666 168.707 134 169.087 134H206.229C206.61 134 207 133.666 207 133.167V7.83656C207 7.33801 206.61 7.00391 206.229 7.00391ZM206.229 5.00391H169.087C167.56 5.00391 166.316 6.27571 166.316 7.83656V133.167C166.316 134.728 167.56 136 169.087 136H206.229C207.756 136 209 134.728 209 133.167V7.83656C209 6.27571 207.756 5.00391 206.229 5.00391Z" fill="#4563FF"/>
<path d="M255.208 4H217.791C216.253 4 215 5.28155 215 6.85437V133.146C215 134.718 216.253 136 217.791 136H255.208C256.745 136 257.998 134.718 257.998 133.146V6.85437C258.055 5.28155 256.802 4 255.208 4ZM236.528 127.262C229.409 127.262 223.6 121.379 223.6 114.039C223.6 106.757 229.352 100.816 236.528 100.816C243.646 100.816 249.455 106.699 249.455 114.039C249.399 121.32 243.646 127.262 236.528 127.262Z" fill="#4563FF"/>
<path fill-rule="evenodd" clip-rule="evenodd" d="M188.003 124.762C194.038 124.762 199.006 119.747 199.006 113.466C199.006 107.185 194.038 102.17 188.003 102.17C181.968 102.17 177 107.185 177 113.466C177 119.747 181.968 124.762 188.003 124.762ZM188.003 126.762C195.184 126.762 201.006 120.81 201.006 113.466C201.006 106.123 195.184 100.17 188.003 100.17C180.822 100.17 175 106.123 175 113.466C175 120.81 180.822 126.762 188.003 126.762Z" fill="#4563FF"/>
</svg>
