<svg width="20" height="20" viewBox="0 0 20 20" fill="none" xmlns="http://www.w3.org/2000/svg">
<mask id="mask0_35515_231002" style="mask-type:alpha" maskUnits="userSpaceOnUse" x="0" y="0" width="20" height="20">
<rect x="20" width="20" height="20" transform="rotate(90 20 0)" fill="#D9D9D9"/>
</mask>
<g mask="url(#mask0_35515_231002)">
<path d="M4.104 9.542C4.25667 9.38866 4.413 9.312 4.573 9.312C4.73234 9.312 4.88867 9.38166 5.042 9.521L9.333 13.833V4.312C9.333 4.14533 9.399 3.99266 9.531 3.854C9.663 3.71533 9.81934 3.646 10 3.646C10.1807 3.646 10.337 3.71533 10.469 3.854C10.601 3.99266 10.667 4.14533 10.667 4.312V13.833L14.938 9.521C15.0907 9.38166 15.2503 9.312 15.417 9.312C15.5837 9.312 15.7433 9.38866 15.896 9.542C16.0347 9.69466 16.104 9.84733 16.104 10C16.104 10.1527 16.0347 10.3053 15.896 10.458L10.562 15.771C10.4793 15.8683 10.3893 15.9377 10.292 15.979C10.1947 16.021 10.0973 16.042 10 16.042C9.90267 16.042 9.80534 16.021 9.708 15.979C9.61067 15.9377 9.52067 15.8683 9.438 15.771L4.104 10.458C3.96534 10.3053 3.896 10.1527 3.896 10C3.896 9.84733 3.96534 9.69466 4.104 9.542Z" fill="#4563FF"/>
</g>
</svg>
