<svg width="24" height="24" viewBox="0 0 24 24" fill="none" xmlns="http://www.w3.org/2000/svg">
<mask id="mask0_33_4655" style="mask-type:alpha" maskUnits="userSpaceOnUse" x="0" y="0" width="24" height="24">
<rect width="24" height="24" fill="#D9D9D9"/>
</mask>
<g mask="url(#mask0_33_4655)">
</g>
<mask id="mask1_33_4655" style="mask-type:alpha" maskUnits="userSpaceOnUse" x="0" y="0" width="25" height="25">
<rect x="0.515625" y="0.00830078" width="24" height="24" fill="#D9D9D9"/>
</mask>
<g mask="url(#mask1_33_4655)">
<path d="M7.44123 14.4588C7.27403 14.3084 7.19043 14.1248 7.19043 13.908C7.19043 13.6912 7.27403 13.4996 7.44123 13.3332L11.8416 8.95803C11.9408 8.84123 12.0488 8.75803 12.1656 8.70843C12.2824 8.65883 12.3992 8.63403 12.516 8.63403C12.6328 8.63403 12.7496 8.65883 12.8664 8.70843C12.9832 8.75803 13.0912 8.84123 13.1904 8.95803L17.616 13.3584C17.7664 13.5248 17.8456 13.708 17.8536 13.908C17.8616 14.108 17.7824 14.2916 17.616 14.4588C17.4496 14.6252 17.262 14.7084 17.0532 14.7084C16.8452 14.7084 16.6576 14.6252 16.4904 14.4588L12.516 10.5336L8.54163 14.4828C8.39123 14.65 8.21203 14.7336 8.00403 14.7336C7.79523 14.7336 7.60763 14.642 7.44123 14.4588Z" fill="#4563FF"/>
</g>
</svg>
