<svg width="401" height="401" viewBox="0 0 401 401" fill="none" xmlns="http://www.w3.org/2000/svg">
<g filter="url(#filter0_f_31289_1034)">
<circle cx="200.203" cy="200.5" r="146.5" fill="#4563FF" fill-opacity="0.2"/>
</g>
<circle cx="233.5" cy="200.5" r="146.5" fill="#4563FF"/>
<mask id="mask0_31289_1034" style="mask-type:alpha" maskUnits="userSpaceOnUse" x="-112" y="54" width="493" height="293">
<path d="M233.506 347C314.416 347 380.006 281.41 380.006 200.5C380.006 119.59 314.416 54 233.506 54H-111.102V347H233.506Z" fill="#C4C4C4"/>
</mask>
<g mask="url(#mask0_31289_1034)">
<g filter="url(#filter1_d_31289_1034)">
<g clip-path="url(#clip0_31289_1034)">
<g filter="url(#filter2_d_31289_1034)">
<g clip-path="url(#clip1_31289_1034)">
<g filter="url(#filter3_d_31289_1034)">
<rect x="49" y="69" width="352" height="233" rx="10" fill="white" shape-rendering="crispEdges"/>
<path d="M88.074 105.914C92.052 105.914 94.194 108.83 94.194 112.574C94.194 116.318 92.052 119.234 88.074 119.234C84.078 119.234 81.936 116.318 81.936 112.574C81.936 108.83 84.078 105.914 88.074 105.914ZM88.074 117.272C90.792 117.272 91.998 115.112 91.998 112.574C91.998 110.036 90.792 107.876 88.074 107.876C85.338 107.876 84.132 110.036 84.132 112.574C84.132 115.112 85.338 117.272 88.074 117.272ZM102.873 119V122.6H100.875V119H100.659C97.6708 119 95.9968 117.074 95.9968 114.41C95.9968 111.782 97.6528 109.892 100.605 109.838H100.875V105.914H102.873V109.838H103.143C106.095 109.892 107.751 111.764 107.751 114.41C107.751 117.2 105.987 119 102.873 119ZM97.9948 114.41C97.9948 115.994 98.8408 117.362 100.641 117.362H100.875V111.476H100.659C98.8408 111.476 97.9948 112.844 97.9948 114.41ZM102.873 117.362H103.071C104.889 117.362 105.753 115.994 105.753 114.41C105.753 112.844 104.889 111.476 103.071 111.476H102.873V117.362ZM114.105 109.604C116.985 109.604 118.731 111.62 118.731 114.41C118.731 117.218 116.985 119.234 114.105 119.234C111.225 119.234 109.479 117.218 109.479 114.41C109.479 111.62 111.225 109.604 114.105 109.604ZM114.105 117.506C115.887 117.506 116.697 116.048 116.697 114.41C116.697 112.808 115.887 111.332 114.105 111.332C112.323 111.332 111.513 112.808 111.513 114.41C111.513 116.048 112.323 117.506 114.105 117.506ZM125.524 111.332C123.742 111.332 122.986 112.808 122.986 114.41C122.986 116.048 123.742 117.506 125.524 117.506C127.198 117.506 128.026 116.192 128.026 114.41C128.026 112.646 127.198 111.332 125.524 111.332ZM121.006 109.838H122.968V110.72H123.4C123.904 110.09 124.732 109.604 126.1 109.604C128.584 109.604 130.06 111.674 130.06 114.41C130.06 117.2 128.566 119.234 126.1 119.234C124.75 119.234 123.958 118.766 123.472 118.118H123.04V122.6H121.006V109.838ZM132.326 119V109.838H135.224L137.276 113.852H137.708L139.742 109.838H142.622V119H140.642V112.412H140.21L138.428 115.85H136.52L134.738 112.412H134.306V119H132.326ZM147.726 119H145.422V109.838H147.402V115.886H147.834L151.596 109.838H153.954V119H151.974V112.952H151.542L147.726 119ZM155.895 111.566V109.838H164.103V111.566H161.025V119H158.991V111.566H155.895ZM174.197 113.906V114.59H167.429C167.483 116.462 168.347 117.506 170.003 117.506C171.101 117.506 171.731 117.074 172.001 116.336H174.071C173.729 118.046 172.361 119.234 169.985 119.234C167.105 119.234 165.413 117.218 165.413 114.356C165.413 111.494 167.123 109.604 169.931 109.604C172.685 109.604 174.143 111.53 174.197 113.906ZM169.913 111.224C168.473 111.224 167.753 112.016 167.519 113.078H172.109C171.983 112.052 171.263 111.224 169.913 111.224ZM186.713 112.43C186.713 111.692 186.011 111.332 184.931 111.332C183.797 111.332 183.131 111.728 182.969 112.502H181.079C181.277 110.612 182.825 109.604 185.039 109.604C187.397 109.604 188.729 110.774 188.729 112.196C188.729 113.222 188.279 113.798 187.793 113.996V114.428C188.459 114.626 189.017 115.202 189.017 116.408C189.017 117.992 187.541 119.234 185.057 119.234C182.375 119.234 180.971 118.082 180.737 116.264H182.645C182.933 117.236 183.869 117.506 184.985 117.506C186.191 117.506 186.983 117.146 186.983 116.3C186.983 115.562 186.533 115.166 185.255 115.166H183.689V113.51H185.165C186.263 113.51 186.713 113.078 186.713 112.43ZM197.077 119V118.154H196.645C196.087 118.856 195.223 119.234 193.945 119.234C191.839 119.234 190.669 117.812 190.669 116.228C190.669 114.788 191.659 113.15 194.305 113.15H197.005V112.88C197.005 111.872 196.429 111.206 195.079 111.206C193.909 111.206 193.315 111.674 193.243 112.376H191.227C191.317 110.648 192.847 109.604 195.007 109.604C197.383 109.604 198.967 110.648 198.967 112.916V119H197.077ZM194.575 117.578C195.943 117.578 197.005 116.57 197.005 115.292V114.59H194.665C193.369 114.59 192.721 115.148 192.721 116.102C192.721 117.038 193.405 117.578 194.575 117.578ZM210.078 119H208.044V111.566H203.688V119H201.654V109.838H210.078V119ZM217.404 111.332C215.622 111.332 214.866 112.808 214.866 114.41C214.866 116.048 215.622 117.506 217.404 117.506C219.078 117.506 219.906 116.192 219.906 114.41C219.906 112.646 219.078 111.332 217.404 111.332ZM212.886 109.838H214.848V110.72H215.28C215.784 110.09 216.612 109.604 217.98 109.604C220.464 109.604 221.94 111.674 221.94 114.41C221.94 117.2 220.446 119.234 217.98 119.234C216.63 119.234 215.838 118.766 215.352 118.118H214.92V122.6H212.886V109.838ZM232.451 113.906V114.59H225.683C225.737 116.462 226.601 117.506 228.257 117.506C229.355 117.506 229.985 117.074 230.255 116.336H232.325C231.983 118.046 230.615 119.234 228.239 119.234C225.359 119.234 223.667 117.218 223.667 114.356C223.667 111.494 225.377 109.604 228.185 109.604C230.939 109.604 232.397 111.53 232.451 113.906ZM228.167 111.224C226.727 111.224 226.007 112.016 225.773 113.078H230.363C230.237 112.052 229.517 111.224 228.167 111.224ZM233.538 111.566V109.838H241.746V111.566H238.668V119H236.634V111.566H233.538ZM243.478 119H242.416V116.588H244.738V119.396L243.55 121.322H242.29L243.478 119.396V119ZM251.968 109.838H254.002V112.484C254.002 113.276 254.074 114.068 256.018 114.068C256.792 114.068 257.422 113.978 258.016 113.852V109.838H260.068V119H258.016V115.544C257.242 115.706 256.216 115.796 255.442 115.796C252.22 115.796 251.968 114.266 251.968 112.754V109.838ZM262.015 111.566V109.838H270.223V111.566H267.145V119H265.111V111.566H262.015ZM276.158 109.604C279.038 109.604 280.784 111.62 280.784 114.41C280.784 117.218 279.038 119.234 276.158 119.234C273.278 119.234 271.532 117.218 271.532 114.41C271.532 111.62 273.278 109.604 276.158 109.604ZM276.158 117.506C277.94 117.506 278.75 116.048 278.75 114.41C278.75 112.808 277.94 111.332 276.158 111.332C274.376 111.332 273.566 112.808 273.566 114.41C273.566 116.048 274.376 117.506 276.158 117.506ZM287.504 110.036C290.204 110.036 291.842 112.016 291.842 114.644C291.842 117.254 290.042 119.234 287.198 119.234C284.246 119.234 282.518 117.29 282.518 113.636C282.518 110.648 283.04 107.516 286.136 106.994L288.53 106.598C289.196 106.508 289.376 106.4 289.43 105.914H291.176C291.122 106.958 290.87 107.948 289.34 108.182L286.424 108.65C284.984 108.884 284.408 109.838 284.174 111.296H284.606C285.308 110.378 286.226 110.036 287.504 110.036ZM287.18 117.506C288.962 117.506 289.772 116.102 289.772 114.59C289.772 113.078 288.962 111.71 287.18 111.71C285.38 111.71 284.57 113.078 284.57 114.59C284.57 116.102 285.38 117.506 287.18 117.506ZM294.115 109.838H296.149V112.682H298.435C300.757 112.682 301.999 113.852 301.999 115.796C301.999 117.758 300.757 119 298.435 119H294.115V109.838ZM296.149 114.32V117.272H298.147C299.533 117.272 299.965 116.714 299.965 115.796C299.965 114.86 299.533 114.32 298.147 114.32H296.149ZM303.421 109.838H305.455V119H303.421V109.838ZM310.497 119H308.175V116.588H310.497V119ZM310.497 112.25H308.175V109.838H310.497V112.25Z" fill="black"/>
<mask id="mask1_31289_1034" style="mask-type:alpha" maskUnits="userSpaceOnUse" x="81" y="138" width="26" height="26">
<rect x="81" y="138" width="26" height="26" fill="#D9D9D9"/>
</mask>
<g mask="url(#mask1_31289_1034)">
<path d="M92.4564 153.329L89.9106 150.783C89.7661 150.639 89.5812 150.571 89.3559 150.581C89.1299 150.589 88.9446 150.666 88.8002 150.81C88.6377 150.973 88.5564 151.162 88.5564 151.379C88.5564 151.596 88.6377 151.785 88.8002 151.948L91.7793 154.927C91.9599 155.108 92.1856 155.198 92.4564 155.198C92.7272 155.198 92.962 155.108 93.1606 154.927L99.2002 148.86C99.3446 148.716 99.4125 148.531 99.4038 148.305C99.3944 148.079 99.3175 147.894 99.1731 147.75C99.0106 147.587 98.821 147.506 98.6043 147.506C98.3877 147.506 98.1981 147.587 98.0356 147.75L92.4564 153.329ZM94.0002 161.292C92.5738 161.292 91.2333 161.021 89.9788 160.479C88.7236 159.937 87.6356 159.206 86.7147 158.285C85.7939 157.365 85.0627 156.276 84.521 155.021C83.9793 153.767 83.7085 152.426 83.7085 151C83.7085 149.574 83.9793 148.233 84.521 146.978C85.0627 145.723 85.7939 144.635 86.7147 143.715C87.6356 142.794 88.7236 142.062 89.9788 141.521C91.2333 140.979 92.5738 140.708 94.0002 140.708C95.4266 140.708 96.7674 140.979 98.0226 141.521C99.2771 142.062 100.365 142.794 101.286 143.715C102.206 144.635 102.938 145.723 103.479 146.978C104.021 148.233 104.292 149.574 104.292 151C104.292 152.426 104.021 153.767 103.479 155.021C102.938 156.276 102.206 157.365 101.286 158.285C100.365 159.206 99.2771 159.937 98.0226 160.479C96.7674 161.021 95.4266 161.292 94.0002 161.292ZM94.0002 159.667C96.4016 159.667 98.4465 158.823 100.135 157.135C101.823 155.446 102.667 153.401 102.667 151C102.667 148.599 101.823 146.554 100.135 144.865C98.4465 143.177 96.4016 142.333 94.0002 142.333C91.5988 142.333 89.5542 143.177 87.8663 144.865C86.1778 146.554 85.3335 148.599 85.3335 151C85.3335 153.401 86.1778 155.446 87.8663 157.135C89.5542 158.823 91.5988 159.667 94.0002 159.667Z" fill="#56C048"/>
</g>
<path d="M121.678 151.412C121.678 150.494 120.85 150.026 119.68 150.026C118.384 150.026 117.7 150.44 117.484 151.43H116.026C116.188 149.702 117.61 148.694 119.716 148.694C121.966 148.694 123.19 149.846 123.19 151.214C123.19 152.222 122.74 152.852 122.218 153.05V153.446C122.884 153.644 123.514 154.256 123.514 155.498C123.514 156.992 122.2 158.234 119.752 158.234C117.25 158.234 115.936 157.136 115.666 155.426H117.142C117.484 156.56 118.51 156.902 119.752 156.902C121.048 156.902 121.984 156.434 121.984 155.444C121.984 154.562 121.48 154.04 119.986 154.04H118.384V152.708H119.914C121.21 152.708 121.678 152.114 121.678 151.412ZM131.746 158V157.046H131.35C130.792 157.748 129.82 158.234 128.524 158.234C126.436 158.234 125.266 156.83 125.266 155.282C125.266 153.824 126.22 152.276 128.74 152.276H131.692V151.916C131.692 150.818 131.062 150.026 129.478 150.026C128.128 150.026 127.444 150.548 127.372 151.34H125.842C125.968 149.666 127.408 148.694 129.442 148.694C131.728 148.694 133.186 149.792 133.186 151.826V158H131.746ZM128.902 156.902C130.414 156.902 131.692 155.768 131.692 154.328V153.5H128.974C127.48 153.5 126.796 154.148 126.796 155.228C126.796 156.254 127.552 156.902 128.902 156.902ZM146.104 148.928H147.598V156.668H149.272V160.574H147.778V158H135.988V148.928H137.482V156.668H141.046V148.928H142.54V156.668H146.104V148.928ZM153.406 158H151.246V148.928H152.74V155.948H153.136L157.114 148.928H159.346V158H157.852V150.98H157.456L153.406 158ZM161.366 150.26V148.928H169.178V150.26H166.046V158H164.516V150.26H161.366ZM173.357 158H171.197V148.928H172.691V155.948H173.087L177.065 148.928H179.297V158H177.803V150.98H177.407L173.357 158ZM181.317 150.26V148.928H189.129V150.26H185.997V158H184.467V150.26H181.317ZM192.678 148.928V151.952H195.36C197.574 151.952 198.78 153.086 198.78 154.958C198.78 156.848 197.574 158 195.36 158H191.148V148.928H192.678ZM192.678 156.668H195.144C196.728 156.668 197.25 156.02 197.25 154.958C197.25 153.878 196.728 153.248 195.144 153.248H192.678V156.668ZM207.094 155.264H208.624C208.282 157.046 206.914 158.234 204.808 158.234C201.982 158.234 200.398 156.146 200.398 153.464C200.398 150.728 201.982 148.694 204.808 148.694C206.968 148.694 208.264 149.882 208.57 151.556H207.04C206.752 150.638 206.05 150.026 204.808 150.026C202.756 150.026 201.928 151.628 201.928 153.428C201.928 155.246 202.774 156.902 204.808 156.902C206.104 156.902 206.86 156.272 207.094 155.264ZM213.84 148.928H218.358V158H216.81V154.418H214.056C213.858 154.418 213.696 154.418 213.498 154.4L212.13 158H210.528L212.058 154.058C211.122 153.608 210.654 152.816 210.654 151.682C210.654 149.954 211.77 148.928 213.84 148.928ZM216.81 150.224H214.002C212.634 150.224 212.184 150.782 212.184 151.7C212.184 152.582 212.634 153.122 214.002 153.122H216.81V150.224ZM230.21 148.694C233.036 148.694 234.674 150.782 234.674 153.464C234.674 156.146 233.036 158.234 230.21 158.234C227.366 158.234 225.746 156.146 225.746 153.464C225.746 150.782 227.366 148.694 230.21 148.694ZM230.21 156.902C232.208 156.902 233.144 155.246 233.144 153.464C233.144 151.682 232.208 150.026 230.21 150.026C228.194 150.026 227.276 151.682 227.276 153.464C227.276 155.246 228.194 156.902 230.21 156.902ZM235.95 150.26V148.928H243.762V150.26H240.63V158H239.1V150.26H235.95ZM250.07 158V148.928H252.5L254.732 153.068H255.128L257.36 148.928H259.754V158H258.26V150.71H257.864L255.758 154.598H254.066L251.96 150.71H251.564V158H250.07ZM266.614 148.694C269.44 148.694 271.078 150.782 271.078 153.464C271.078 156.146 269.44 158.234 266.614 158.234C263.77 158.234 262.15 156.146 262.15 153.464C262.15 150.782 263.77 148.694 266.614 148.694ZM266.614 156.902C268.612 156.902 269.548 155.246 269.548 153.464C269.548 151.682 268.612 150.026 266.614 150.026C264.598 150.026 263.68 151.682 263.68 153.464C263.68 155.246 264.598 156.902 266.614 156.902ZM283.582 148.928H285.076V158H273.466V148.928H274.96V156.668H278.524V148.928H280.018V156.668H283.582V148.928ZM295.887 152.924V153.446H288.975C289.029 155.606 290.001 156.902 291.873 156.902C293.151 156.902 293.907 156.362 294.177 155.498H295.725C295.437 157.046 294.123 158.234 291.873 158.234C289.047 158.234 287.463 156.164 287.463 153.374C287.463 150.584 289.083 148.694 291.837 148.694C294.537 148.694 295.833 150.692 295.887 152.924ZM291.801 150.026C290.163 150.026 289.263 151.016 289.065 152.168H294.303C294.213 151.016 293.331 150.026 291.801 150.026ZM306.351 158H304.821V154.004H299.799V158H298.269V148.928H299.799V152.672H304.821V148.928H306.351V158ZM317.39 158H315.86V154.004H310.838V158H309.308V148.928H310.838V152.672H315.86V148.928H317.39V158ZM322.507 158H320.347V148.928H321.841V155.948H322.237L326.215 148.928H328.447V158H326.953V150.98H326.557L322.507 158ZM337.668 158L335.652 154.004H332.934V158H331.404V148.928H332.934V152.672H335.688L337.578 148.928H339.18L336.966 153.302L339.306 158H337.668ZM345.118 148.694C347.944 148.694 349.582 150.782 349.582 153.464C349.582 156.146 347.944 158.234 345.118 158.234C342.274 158.234 340.654 156.146 340.654 153.464C340.654 150.782 342.274 148.694 345.118 148.694ZM345.118 156.902C347.116 156.902 348.052 155.246 348.052 153.464C348.052 151.682 347.116 150.026 345.118 150.026C343.102 150.026 342.184 151.682 342.184 153.464C342.184 155.246 343.102 156.902 345.118 156.902ZM358.36 152.996V153.392C359.206 153.608 359.836 154.346 359.836 155.516C359.836 157.172 358.702 158 356.632 158H351.97V148.928H356.47C358.288 148.928 359.332 149.774 359.332 151.214C359.332 152.096 358.864 152.726 358.36 152.996ZM353.482 156.704H356.542C357.856 156.704 358.306 156.128 358.306 155.354C358.306 154.58 357.856 153.986 356.542 153.986H353.482V156.704ZM353.482 150.224V152.69H356.326C357.424 152.69 357.802 152.114 357.802 151.466C357.802 150.764 357.424 150.224 356.326 150.224H353.482Z" fill="black"/>
<mask id="mask2_31289_1034" style="mask-type:alpha" maskUnits="userSpaceOnUse" x="81" y="180" width="26" height="26">
<rect x="81" y="180" width="26" height="26" fill="#D9D9D9"/>
</mask>
<g mask="url(#mask2_31289_1034)">
<path d="M92.4564 195.329L89.9106 192.783C89.7661 192.639 89.5812 192.571 89.3559 192.581C89.1299 192.589 88.9446 192.666 88.8002 192.81C88.6377 192.973 88.5564 193.162 88.5564 193.379C88.5564 193.596 88.6377 193.785 88.8002 193.948L91.7793 196.927C91.9599 197.108 92.1856 197.198 92.4564 197.198C92.7272 197.198 92.962 197.108 93.1606 196.927L99.2002 190.86C99.3446 190.716 99.4125 190.531 99.4038 190.305C99.3944 190.079 99.3175 189.894 99.1731 189.75C99.0106 189.587 98.821 189.506 98.6043 189.506C98.3877 189.506 98.1981 189.587 98.0356 189.75L92.4564 195.329ZM94.0002 203.292C92.5738 203.292 91.2333 203.021 89.9788 202.479C88.7236 201.937 87.6356 201.206 86.7147 200.285C85.7939 199.365 85.0627 198.276 84.521 197.021C83.9793 195.767 83.7085 194.426 83.7085 193C83.7085 191.574 83.9793 190.233 84.521 188.978C85.0627 187.723 85.7939 186.635 86.7147 185.715C87.6356 184.794 88.7236 184.062 89.9788 183.521C91.2333 182.979 92.5738 182.708 94.0002 182.708C95.4266 182.708 96.7674 182.979 98.0226 183.521C99.2771 184.062 100.365 184.794 101.286 185.715C102.206 186.635 102.938 187.723 103.479 188.978C104.021 190.233 104.292 191.574 104.292 193C104.292 194.426 104.021 195.767 103.479 197.021C102.938 198.276 102.206 199.365 101.286 200.285C100.365 201.206 99.2771 201.937 98.0226 202.479C96.7674 203.021 95.4266 203.292 94.0002 203.292ZM94.0002 201.667C96.4016 201.667 98.4465 200.823 100.135 199.135C101.823 197.446 102.667 195.401 102.667 193C102.667 190.599 101.823 188.554 100.135 186.865C98.4465 185.177 96.4016 184.333 94.0002 184.333C91.5988 184.333 89.5542 185.177 87.8663 186.865C86.1778 188.554 85.3335 190.599 85.3335 193C85.3335 195.401 86.1778 197.446 87.8663 199.135C89.5542 200.823 91.5988 201.667 94.0002 201.667Z" fill="#56C048"/>
</g>
<path d="M120.616 191.018C123.352 191.018 124.918 193.052 124.918 195.626C124.918 198.2 123.244 200.234 120.436 200.234C117.556 200.234 115.918 198.272 115.918 194.744C115.918 191.684 116.35 188.534 119.5 188.012L121.912 187.616C122.578 187.526 122.74 187.436 122.794 186.914H124.216C124.162 187.94 123.838 188.678 122.434 188.93L119.644 189.398C118.024 189.686 117.484 190.82 117.286 192.332H117.682C118.456 191.324 119.338 191.018 120.616 191.018ZM120.4 198.902C122.416 198.902 123.352 197.282 123.352 195.608C123.352 193.916 122.416 192.332 120.4 192.332C118.384 192.332 117.448 193.916 117.448 195.608C117.448 197.282 118.384 198.902 120.4 198.902ZM131.66 192.026C129.644 192.026 128.816 193.682 128.816 195.464C128.816 197.246 129.644 198.902 131.66 198.902C133.478 198.902 134.45 197.48 134.45 195.464C134.45 193.448 133.478 192.026 131.66 192.026ZM127.304 190.928H128.78V191.9H129.176C129.68 191.27 130.562 190.694 132.002 190.694C134.504 190.694 135.98 192.782 135.98 195.464C135.98 198.2 134.504 200.234 132.002 200.234C130.562 200.234 129.716 199.676 129.23 199.028H128.834V203.6H127.304V190.928ZM144.156 200V199.046H143.76C143.202 199.748 142.23 200.234 140.934 200.234C138.846 200.234 137.676 198.83 137.676 197.282C137.676 195.824 138.63 194.276 141.15 194.276H144.102V193.916C144.102 192.818 143.472 192.026 141.888 192.026C140.538 192.026 139.854 192.548 139.782 193.34H138.252C138.378 191.666 139.818 190.694 141.852 190.694C144.138 190.694 145.596 191.792 145.596 193.826V200H144.156ZM141.312 198.902C142.824 198.902 144.102 197.768 144.102 196.328V195.5H141.384C139.89 195.5 139.206 196.148 139.206 197.228C139.206 198.254 139.962 198.902 141.312 198.902ZM147.356 192.26V190.928H155.168V192.26H152.036V200H150.506V192.26H147.356ZM158.717 190.928V193.952H161.399C163.613 193.952 164.819 195.086 164.819 196.958C164.819 198.848 163.613 200 161.399 200H157.187V190.928H158.717ZM158.717 198.668H161.183C162.767 198.668 163.289 198.02 163.289 196.958C163.289 195.878 162.767 195.248 161.183 195.248H158.717V198.668ZM178.269 200L176.253 196.004H173.535V200H172.005V190.928H173.535V194.672H176.289L178.179 190.928H179.781L177.567 195.302L179.907 200H178.269ZM186.434 192.026C184.418 192.026 183.59 193.682 183.59 195.464C183.59 197.246 184.418 198.902 186.434 198.902C188.252 198.902 189.224 197.48 189.224 195.464C189.224 193.448 188.252 192.026 186.434 192.026ZM182.078 190.928H183.554V191.9H183.95C184.454 191.27 185.336 190.694 186.776 190.694C189.278 190.694 190.754 192.782 190.754 195.464C190.754 198.2 189.278 200.234 186.776 200.234C185.336 200.234 184.49 199.676 184.004 199.028H183.608V203.6H182.078V190.928ZM201.018 194.924V195.446H194.106C194.16 197.606 195.132 198.902 197.004 198.902C198.282 198.902 199.038 198.362 199.308 197.498H200.856C200.568 199.046 199.254 200.234 197.004 200.234C194.178 200.234 192.594 198.164 192.594 195.374C192.594 192.584 194.214 190.694 196.968 190.694C199.668 190.694 200.964 192.692 201.018 194.924ZM196.932 192.026C195.294 192.026 194.394 193.016 194.196 194.168H199.434C199.344 193.016 198.462 192.026 196.932 192.026ZM211.482 198.668H213.156V202.574H211.662V200H203.814V202.574H202.32V198.668H203.526C204.102 197.444 204.642 195.662 204.642 193.412V190.928H211.482V198.668ZM209.952 198.668V192.26H206.064V193.412C206.064 195.698 205.632 197.444 205.074 198.668H209.952ZM217.302 200H215.142V190.928H216.636V197.948H217.032L221.01 190.928H223.242V200H221.748V192.98H221.352L217.302 200ZM225.263 192.26V190.928H233.075V192.26H229.943V200H228.413V192.26H225.263ZM235.093 190.928H236.623V193.952H239.125C241.339 193.952 242.545 195.086 242.545 196.958C242.545 198.848 241.339 200 239.125 200H235.093V190.928ZM236.623 195.248V198.668H238.909C240.493 198.668 241.015 198.02 241.015 196.958C241.015 195.878 240.493 195.248 238.909 195.248H236.623ZM244.003 190.928H245.533V200H244.003V190.928ZM257.403 190.694C260.229 190.694 261.867 192.782 261.867 195.464C261.867 198.146 260.229 200.234 257.403 200.234C254.559 200.234 252.939 198.146 252.939 195.464C252.939 192.782 254.559 190.694 257.403 190.694ZM257.403 198.902C259.401 198.902 260.337 197.246 260.337 195.464C260.337 193.682 259.401 192.026 257.403 192.026C255.387 192.026 254.469 193.682 254.469 195.464C254.469 197.246 255.387 198.902 257.403 198.902ZM270.393 197.264H271.923C271.581 199.046 270.213 200.234 268.107 200.234C265.281 200.234 263.697 198.146 263.697 195.464C263.697 192.728 265.281 190.694 268.107 190.694C270.267 190.694 271.563 191.882 271.869 193.556H270.339C270.051 192.638 269.349 192.026 268.107 192.026C266.055 192.026 265.227 193.628 265.227 195.428C265.227 197.246 266.073 198.902 268.107 198.902C269.403 198.902 270.159 198.272 270.393 197.264ZM278.111 190.694C280.937 190.694 282.575 192.782 282.575 195.464C282.575 198.146 280.937 200.234 278.111 200.234C275.267 200.234 273.647 198.146 273.647 195.464C273.647 192.782 275.267 190.694 278.111 190.694ZM278.111 198.902C280.109 198.902 281.045 197.246 281.045 195.464C281.045 193.682 280.109 192.026 278.111 192.026C276.095 192.026 275.177 193.682 275.177 195.464C275.177 197.246 276.095 198.902 278.111 198.902ZM290.164 193.412C290.164 192.494 289.336 192.026 288.166 192.026C286.87 192.026 286.186 192.44 285.97 193.43H284.512C284.674 191.702 286.096 190.694 288.202 190.694C290.452 190.694 291.676 191.846 291.676 193.214C291.676 194.222 291.226 194.852 290.704 195.05V195.446C291.37 195.644 292 196.256 292 197.498C292 198.992 290.686 200.234 288.238 200.234C285.736 200.234 284.422 199.136 284.152 197.426H285.628C285.97 198.56 286.996 198.902 288.238 198.902C289.534 198.902 290.47 198.434 290.47 197.444C290.47 196.562 289.966 196.04 288.472 196.04H286.87V194.708H288.4C289.696 194.708 290.164 194.114 290.164 193.412ZM302.537 200H301.007V196.004H295.985V200H294.455V190.928H295.985V194.672H301.007V190.928H302.537V200ZM311.272 200V199.046H310.876C310.318 199.748 309.346 200.234 308.05 200.234C305.962 200.234 304.792 198.83 304.792 197.282C304.792 195.824 305.746 194.276 308.266 194.276H311.218V193.916C311.218 192.818 310.588 192.026 309.004 192.026C307.654 192.026 306.97 192.548 306.898 193.34H305.368C305.494 191.666 306.934 190.694 308.968 190.694C311.254 190.694 312.712 191.792 312.712 193.826V200H311.272ZM308.428 198.902C309.94 198.902 311.218 197.768 311.218 196.328V195.5H308.5C307.006 195.5 306.322 196.148 306.322 197.228C306.322 198.254 307.078 198.902 308.428 198.902ZM323.595 200H322.065V196.004H317.043V200H315.513V190.928H317.043V194.672H322.065V190.928H323.595V200ZM334.634 200H333.104V196.004H328.082V200H326.552V190.928H328.082V194.672H333.104V190.928H334.634V200ZM341.497 190.694C344.323 190.694 345.961 192.782 345.961 195.464C345.961 198.146 344.323 200.234 341.497 200.234C338.653 200.234 337.033 198.146 337.033 195.464C337.033 192.782 338.653 190.694 341.497 190.694ZM341.497 198.902C343.495 198.902 344.431 197.246 344.431 195.464C344.431 193.682 343.495 192.026 341.497 192.026C339.481 192.026 338.563 193.682 338.563 195.464C338.563 197.246 339.481 198.902 341.497 198.902Z" fill="black"/>
<mask id="mask3_31289_1034" style="mask-type:alpha" maskUnits="userSpaceOnUse" x="81" y="222" width="26" height="26">
<rect x="81" y="222" width="26" height="26" fill="#D9D9D9"/>
</mask>
<g mask="url(#mask3_31289_1034)">
<path d="M92.4564 237.329L89.9106 234.783C89.7661 234.639 89.5812 234.571 89.3559 234.581C89.1299 234.589 88.9446 234.666 88.8002 234.81C88.6377 234.973 88.5564 235.162 88.5564 235.379C88.5564 235.596 88.6377 235.785 88.8002 235.948L91.7793 238.927C91.9599 239.108 92.1856 239.198 92.4564 239.198C92.7272 239.198 92.962 239.108 93.1606 238.927L99.2002 232.86C99.3446 232.716 99.4125 232.531 99.4038 232.305C99.3944 232.079 99.3175 231.894 99.1731 231.75C99.0106 231.587 98.821 231.506 98.6043 231.506C98.3877 231.506 98.1981 231.587 98.0356 231.75L92.4564 237.329ZM94.0002 245.292C92.5738 245.292 91.2333 245.021 89.9788 244.479C88.7236 243.937 87.6356 243.206 86.7147 242.285C85.7939 241.365 85.0627 240.276 84.521 239.021C83.9793 237.767 83.7085 236.426 83.7085 235C83.7085 233.574 83.9793 232.233 84.521 230.978C85.0627 229.723 85.7939 228.635 86.7147 227.715C87.6356 226.794 88.7236 226.062 89.9788 225.521C91.2333 224.979 92.5738 224.708 94.0002 224.708C95.4266 224.708 96.7674 224.979 98.0226 225.521C99.2771 226.062 100.365 226.794 101.286 227.715C102.206 228.635 102.938 229.723 103.479 230.978C104.021 232.233 104.292 233.574 104.292 235C104.292 236.426 104.021 237.767 103.479 239.021C102.938 240.276 102.206 241.365 101.286 242.285C100.365 243.206 99.2771 243.937 98.0226 244.479C96.7674 245.021 95.4266 245.292 94.0002 245.292ZM94.0002 243.667C96.4016 243.667 98.4465 242.823 100.135 241.135C101.823 239.446 102.667 237.401 102.667 235C102.667 232.599 101.823 230.554 100.135 228.865C98.4465 227.177 96.4016 226.333 94.0002 226.333C91.5988 226.333 89.5542 227.177 87.8663 228.865C86.1778 230.554 85.3335 232.599 85.3335 235C85.3335 237.401 86.1778 239.446 87.8663 241.135C89.5542 242.823 91.5988 243.667 94.0002 243.667Z" fill="#56C048"/>
</g>
<path d="M118.636 241H116.476V231.928H117.97V238.948H118.366L122.344 231.928H124.576V241H123.082V233.98H122.686L118.636 241ZM132.735 234.412C132.735 233.494 131.907 233.026 130.737 233.026C129.441 233.026 128.757 233.44 128.541 234.43H127.083C127.245 232.702 128.667 231.694 130.773 231.694C133.023 231.694 134.247 232.846 134.247 234.214C134.247 235.222 133.797 235.852 133.275 236.05V236.446C133.941 236.644 134.571 237.256 134.571 238.498C134.571 239.992 133.257 241.234 130.809 241.234C128.307 241.234 126.993 240.136 126.723 238.426H128.199C128.541 239.56 129.567 239.902 130.809 239.902C132.105 239.902 133.041 239.434 133.041 238.444C133.041 237.562 132.537 237.04 131.043 237.04H129.441V235.708H130.971C132.267 235.708 132.735 235.114 132.735 234.412ZM141.165 232.018C143.901 232.018 145.467 234.052 145.467 236.626C145.467 239.2 143.793 241.234 140.985 241.234C138.105 241.234 136.467 239.272 136.467 235.744C136.467 232.684 136.899 229.534 140.049 229.012L142.461 228.616C143.127 228.526 143.289 228.436 143.343 227.914H144.765C144.711 228.94 144.387 229.678 142.983 229.93L140.193 230.398C138.573 230.686 138.033 231.82 137.835 233.332H138.231C139.005 232.324 139.887 232.018 141.165 232.018ZM140.949 239.902C142.965 239.902 143.901 238.282 143.901 236.608C143.901 234.916 142.965 233.332 140.949 233.332C138.933 233.332 137.997 234.916 137.997 236.608C137.997 238.282 138.933 239.902 140.949 239.902ZM155.719 235.924V236.446H148.807C148.861 238.606 149.833 239.902 151.705 239.902C152.983 239.902 153.739 239.362 154.009 238.498H155.557C155.269 240.046 153.955 241.234 151.705 241.234C148.879 241.234 147.295 239.164 147.295 236.374C147.295 233.584 148.915 231.694 151.669 231.694C154.369 231.694 155.665 233.692 155.719 235.924ZM151.633 233.026C149.995 233.026 149.095 234.016 148.897 235.168H154.135C154.045 234.016 153.163 233.026 151.633 233.026ZM160.675 237.022L158.929 241H157.327L159.379 236.338L157.453 231.928H159.037L160.675 235.69H162.997V231.928H164.473V235.69H166.795L168.433 231.928H170.017L168.091 236.338L170.161 241H168.541L166.795 237.022H164.473V241H162.997V237.022H160.675ZM178.1 241V240.046H177.704C177.146 240.748 176.174 241.234 174.878 241.234C172.79 241.234 171.62 239.83 171.62 238.282C171.62 236.824 172.574 235.276 175.094 235.276H178.046V234.916C178.046 233.818 177.416 233.026 175.832 233.026C174.482 233.026 173.798 233.548 173.726 234.34H172.196C172.322 232.666 173.762 231.694 175.796 231.694C178.082 231.694 179.54 232.792 179.54 234.826V241H178.1ZM175.256 239.902C176.768 239.902 178.046 238.768 178.046 237.328V236.5H175.328C173.834 236.5 173.15 237.148 173.15 238.228C173.15 239.254 173.906 239.902 175.256 239.902ZM181.3 233.26V231.928H189.112V233.26H185.98V241H184.45V233.26H181.3ZM192.66 231.928V234.952H195.342C197.556 234.952 198.762 236.086 198.762 237.958C198.762 239.848 197.556 241 195.342 241H191.13V231.928H192.66ZM192.66 239.668H195.126C196.71 239.668 197.232 239.02 197.232 237.958C197.232 236.878 196.71 236.248 195.126 236.248H192.66V239.668ZM212.087 238.264H213.617C213.275 240.046 211.907 241.234 209.801 241.234C206.975 241.234 205.391 239.146 205.391 236.464C205.391 233.728 206.975 231.694 209.801 231.694C211.961 231.694 213.257 232.882 213.563 234.556H212.033C211.745 233.638 211.043 233.026 209.801 233.026C207.749 233.026 206.921 234.628 206.921 236.428C206.921 238.246 207.767 239.902 209.801 239.902C211.097 239.902 211.853 239.272 212.087 238.264ZM218.346 244.6H216.798L218.67 240.154L214.8 231.928H216.438L219.21 237.904H219.66L222.18 231.928H223.782L218.346 244.6ZM233.244 239.668H234.918V243.574H233.424V241H225.576V243.574H224.082V239.668H225.288C225.864 238.444 226.404 236.662 226.404 234.412V231.928H233.244V239.668ZM231.714 239.668V233.26H227.826V234.412C227.826 236.698 227.394 238.444 226.836 239.668H231.714ZM244.77 235.924V236.446H237.858C237.912 238.606 238.884 239.902 240.756 239.902C242.034 239.902 242.79 239.362 243.06 238.498H244.608C244.32 240.046 243.006 241.234 240.756 241.234C237.93 241.234 236.346 239.164 236.346 236.374C236.346 233.584 237.966 231.694 240.72 231.694C243.42 231.694 244.716 233.692 244.77 235.924ZM240.684 233.026C239.046 233.026 238.146 234.016 237.948 235.168H243.186C243.096 234.016 242.214 233.026 240.684 233.026ZM251.292 232.018C254.028 232.018 255.594 234.052 255.594 236.626C255.594 239.2 253.92 241.234 251.112 241.234C248.232 241.234 246.594 239.272 246.594 235.744C246.594 232.684 247.026 229.534 250.176 229.012L252.588 228.616C253.254 228.526 253.416 228.436 253.47 227.914H254.892C254.838 228.94 254.514 229.678 253.11 229.93L250.32 230.398C248.7 230.686 248.16 231.82 247.962 233.332H248.358C249.132 232.324 250.014 232.018 251.292 232.018ZM251.076 239.902C253.092 239.902 254.028 238.282 254.028 236.608C254.028 234.916 253.092 233.332 251.076 233.332C249.06 233.332 248.124 234.916 248.124 236.608C248.124 238.282 249.06 239.902 251.076 239.902ZM266.062 241H264.532V237.004H259.51V241H257.98V231.928H259.51V235.672H264.532V231.928H266.062V241ZM269.019 231.928H270.549V234.952H273.051C275.265 234.952 276.471 236.086 276.471 237.958C276.471 239.848 275.265 241 273.051 241H269.019V231.928ZM270.549 236.248V239.668H272.835C274.419 239.668 274.941 239.02 274.941 237.958C274.941 236.878 274.419 236.248 272.835 236.248H270.549ZM277.929 231.928H279.459V241H277.929V231.928ZM288.48 241L286.229 237.202H285.582L283.278 241H281.604L284.43 236.356L281.892 231.928H283.512L285.6 235.528H286.248L288.372 231.928H289.974L287.4 236.302L290.208 241H288.48ZM120.832 257.026C118.816 257.026 117.988 258.682 117.988 260.464C117.988 262.246 118.816 263.902 120.832 263.902C122.65 263.902 123.622 262.48 123.622 260.464C123.622 258.448 122.65 257.026 120.832 257.026ZM116.476 255.928H117.952V256.9H118.348C118.852 256.27 119.734 255.694 121.174 255.694C123.676 255.694 125.152 257.782 125.152 260.464C125.152 263.2 123.676 265.234 121.174 265.234C119.734 265.234 118.888 264.676 118.402 264.028H118.006V268.6H116.476V255.928ZM133.328 265V264.046H132.932C132.374 264.748 131.402 265.234 130.106 265.234C128.018 265.234 126.848 263.83 126.848 262.282C126.848 260.824 127.802 259.276 130.322 259.276H133.274V258.916C133.274 257.818 132.644 257.026 131.06 257.026C129.71 257.026 129.026 257.548 128.954 258.34H127.424C127.55 256.666 128.99 255.694 131.024 255.694C133.31 255.694 134.768 256.792 134.768 258.826V265H133.328ZM130.484 263.902C131.996 263.902 133.274 262.768 133.274 261.328V260.5H130.556C129.062 260.5 128.378 261.148 128.378 262.228C128.378 263.254 129.134 263.902 130.484 263.902ZM142.772 258.412C142.772 257.494 141.944 257.026 140.774 257.026C139.478 257.026 138.794 257.44 138.578 258.43H137.12C137.282 256.702 138.704 255.694 140.81 255.694C143.06 255.694 144.284 256.846 144.284 258.214C144.284 259.222 143.834 259.852 143.312 260.05V260.446C143.978 260.644 144.608 261.256 144.608 262.498C144.608 263.992 143.294 265.234 140.846 265.234C138.344 265.234 137.03 264.136 136.76 262.426H138.236C138.578 263.56 139.604 263.902 140.846 263.902C142.142 263.902 143.078 263.434 143.078 262.444C143.078 261.562 142.574 261.04 141.08 261.04H139.478V259.708H141.008C142.304 259.708 142.772 259.114 142.772 258.412ZM151.202 256.018C153.938 256.018 155.504 258.052 155.504 260.626C155.504 263.2 153.83 265.234 151.022 265.234C148.142 265.234 146.504 263.272 146.504 259.744C146.504 256.684 146.936 253.534 150.086 253.012L152.498 252.616C153.164 252.526 153.326 252.436 153.38 251.914H154.802C154.748 252.94 154.424 253.678 153.02 253.93L150.23 254.398C148.61 254.686 148.07 255.82 147.872 257.332H148.268C149.042 256.324 149.924 256.018 151.202 256.018ZM150.986 263.902C153.002 263.902 153.938 262.282 153.938 260.608C153.938 258.916 153.002 257.332 150.986 257.332C148.97 257.332 148.034 258.916 148.034 260.608C148.034 262.282 148.97 263.902 150.986 263.902ZM160.05 265H157.89V255.928H159.384V262.948H159.78L163.758 255.928H165.99V265H164.496V257.98H164.1L160.05 265ZM173.303 257.026C171.287 257.026 170.459 258.682 170.459 260.464C170.459 262.246 171.287 263.902 173.303 263.902C175.121 263.902 176.093 262.48 176.093 260.464C176.093 258.448 175.121 257.026 173.303 257.026ZM168.947 255.928H170.423V256.9H170.819C171.323 256.27 172.205 255.694 173.645 255.694C176.147 255.694 177.623 257.782 177.623 260.464C177.623 263.2 176.147 265.234 173.645 265.234C172.205 265.234 171.359 264.676 170.873 264.028H170.477V268.6H168.947V255.928ZM185.799 265V264.046H185.403C184.845 264.748 183.873 265.234 182.577 265.234C180.489 265.234 179.319 263.83 179.319 262.282C179.319 260.824 180.273 259.276 182.793 259.276H185.745V258.916C185.745 257.818 185.115 257.026 183.531 257.026C182.181 257.026 181.497 257.548 181.425 258.34H179.895C180.021 256.666 181.461 255.694 183.495 255.694C185.781 255.694 187.239 256.792 187.239 258.826V265H185.799ZM182.955 263.902C184.467 263.902 185.745 262.768 185.745 261.328V260.5H183.027C181.533 260.5 180.849 261.148 180.849 262.228C180.849 263.254 181.605 263.902 182.955 263.902ZM188.999 257.26V255.928H196.811V257.26H193.679V265H192.149V257.26H188.999ZM206.555 259.924V260.446H199.643C199.697 262.606 200.669 263.902 202.541 263.902C203.819 263.902 204.575 263.362 204.845 262.498H206.393C206.105 264.046 204.791 265.234 202.541 265.234C199.715 265.234 198.131 263.164 198.131 260.374C198.131 257.584 199.751 255.694 202.505 255.694C205.205 255.694 206.501 257.692 206.555 259.924ZM202.469 257.026C200.831 257.026 199.931 258.016 199.733 259.168H204.971C204.881 258.016 203.999 257.026 202.469 257.026ZM207.911 265V263.56H208.217C209.441 263.56 209.999 262.66 209.999 259.438V255.928H216.947V265H215.399V257.26H211.421V259.474C211.421 263.65 210.449 265 208.217 265H207.911ZM221.418 255.928V258.952H224.1C226.314 258.952 227.52 260.086 227.52 261.958C227.52 263.848 226.314 265 224.1 265H219.888V255.928H221.418ZM221.418 263.668H223.884C225.468 263.668 225.99 263.02 225.99 261.958C225.99 260.878 225.468 260.248 223.884 260.248H221.418V263.668ZM235.835 262.264H237.365C237.023 264.046 235.655 265.234 233.549 265.234C230.723 265.234 229.139 263.146 229.139 260.464C229.139 257.728 230.723 255.694 233.549 255.694C235.709 255.694 237.005 256.882 237.311 258.556H235.781C235.493 257.638 234.791 257.026 233.549 257.026C231.497 257.026 230.669 258.628 230.669 260.428C230.669 262.246 231.515 263.902 233.549 263.902C234.845 263.902 235.601 263.272 235.835 262.264ZM238.71 257.26V255.928H246.522V257.26H243.39V265H241.86V257.26H238.71ZM254.93 259.996V260.392C255.776 260.608 256.406 261.346 256.406 262.516C256.406 264.172 255.272 265 253.202 265H248.54V255.928H253.04C254.858 255.928 255.902 256.774 255.902 258.214C255.902 259.096 255.434 259.726 254.93 259.996ZM250.052 263.704H253.112C254.426 263.704 254.876 263.128 254.876 262.354C254.876 261.58 254.426 260.986 253.112 260.986H250.052V263.704ZM250.052 257.224V259.69H252.896C253.994 259.69 254.372 259.114 254.372 258.466C254.372 257.764 253.994 257.224 252.896 257.224H250.052Z" fill="black"/>
</g>
</g>
</g>
</g>
</g>
<g filter="url(#filter4_i_31289_1034)">
<circle cx="234.344" cy="201.333" r="146.5" fill="#4563FF" fill-opacity="0.01"/>
</g>
</g>
<defs>
<filter id="filter0_f_31289_1034" x="0.430397" y="0.727272" width="399.545" height="399.545" filterUnits="userSpaceOnUse" color-interpolation-filters="sRGB">
<feFlood flood-opacity="0" result="BackgroundImageFix"/>
<feBlend mode="normal" in="SourceGraphic" in2="BackgroundImageFix" result="shape"/>
<feGaussianBlur stdDeviation="26.6364" result="effect1_foregroundBlur_31289_1034"/>
</filter>
<filter id="filter1_d_31289_1034" x="45" y="69" width="360" height="241" filterUnits="userSpaceOnUse" color-interpolation-filters="sRGB">
<feFlood flood-opacity="0" result="BackgroundImageFix"/>
<feColorMatrix in="SourceAlpha" type="matrix" values="0 0 0 0 0 0 0 0 0 0 0 0 0 0 0 0 0 0 127 0" result="hardAlpha"/>
<feOffset dy="4"/>
<feGaussianBlur stdDeviation="2"/>
<feComposite in2="hardAlpha" operator="out"/>
<feColorMatrix type="matrix" values="0 0 0 0 0.451454 0 0 0 0 0.390833 0 0 0 0 0.7 0 0 0 0.1 0"/>
<feBlend mode="normal" in2="BackgroundImageFix" result="effect1_dropShadow_31289_1034"/>
<feBlend mode="normal" in="SourceGraphic" in2="effect1_dropShadow_31289_1034" result="shape"/>
</filter>
<filter id="filter2_d_31289_1034" x="45" y="69" width="360" height="241" filterUnits="userSpaceOnUse" color-interpolation-filters="sRGB">
<feFlood flood-opacity="0" result="BackgroundImageFix"/>
<feColorMatrix in="SourceAlpha" type="matrix" values="0 0 0 0 0 0 0 0 0 0 0 0 0 0 0 0 0 0 127 0" result="hardAlpha"/>
<feOffset dy="4"/>
<feGaussianBlur stdDeviation="2"/>
<feComposite in2="hardAlpha" operator="out"/>
<feColorMatrix type="matrix" values="0 0 0 0 0.451454 0 0 0 0 0.390833 0 0 0 0 0.7 0 0 0 0.1 0"/>
<feBlend mode="normal" in2="BackgroundImageFix" result="effect1_dropShadow_31289_1034"/>
<feBlend mode="normal" in="SourceGraphic" in2="effect1_dropShadow_31289_1034" result="shape"/>
</filter>
<filter id="filter3_d_31289_1034" x="45" y="69" width="360" height="241" filterUnits="userSpaceOnUse" color-interpolation-filters="sRGB">
<feFlood flood-opacity="0" result="BackgroundImageFix"/>
<feColorMatrix in="SourceAlpha" type="matrix" values="0 0 0 0 0 0 0 0 0 0 0 0 0 0 0 0 0 0 127 0" result="hardAlpha"/>
<feOffset dy="4"/>
<feGaussianBlur stdDeviation="2"/>
<feComposite in2="hardAlpha" operator="out"/>
<feColorMatrix type="matrix" values="0 0 0 0 0.451454 0 0 0 0 0.390833 0 0 0 0 0.7 0 0 0 0.1 0"/>
<feBlend mode="normal" in2="BackgroundImageFix" result="effect1_dropShadow_31289_1034"/>
<feBlend mode="normal" in="SourceGraphic" in2="effect1_dropShadow_31289_1034" result="shape"/>
</filter>
<filter id="filter4_i_31289_1034" x="54.5483" y="54.8325" width="326.295" height="293" filterUnits="userSpaceOnUse" color-interpolation-filters="sRGB">
<feFlood flood-opacity="0" result="BackgroundImageFix"/>
<feBlend mode="normal" in="SourceGraphic" in2="BackgroundImageFix" result="shape"/>
<feColorMatrix in="SourceAlpha" type="matrix" values="0 0 0 0 0 0 0 0 0 0 0 0 0 0 0 0 0 0 127 0" result="hardAlpha"/>
<feOffset dx="-33.2955"/>
<feGaussianBlur stdDeviation="16.6477"/>
<feComposite in2="hardAlpha" operator="arithmetic" k2="-1" k3="1"/>
<feColorMatrix type="matrix" values="0 0 0 0 0.241875 0 0 0 0 0.311734 0 0 0 0 0.675 0 0 0 0.04 0"/>
<feBlend mode="normal" in2="shape" result="effect1_innerShadow_31289_1034"/>
</filter>
<clipPath id="clip0_31289_1034">
<path d="M49 85C49 79.3995 49 76.5992 50.0899 74.4601C51.0487 72.5785 52.5785 71.0487 54.4601 70.0899C56.5992 69 59.3995 69 65 69H385C390.601 69 393.401 69 395.54 70.0899C397.422 71.0487 398.951 72.5785 399.91 74.4601C401 76.5992 401 79.3995 401 85V286C401 291.601 401 294.401 399.91 296.54C398.951 298.422 397.422 299.951 395.54 300.91C393.401 302 390.601 302 385 302H65C59.3995 302 56.5992 302 54.4601 300.91C52.5785 299.951 51.0487 298.422 50.0899 296.54C49 294.401 49 291.601 49 286V85Z" fill="white"/>
</clipPath>
<clipPath id="clip1_31289_1034">
<path d="M49 85C49 79.3995 49 76.5992 50.0899 74.4601C51.0487 72.5785 52.5785 71.0487 54.4601 70.0899C56.5992 69 59.3995 69 65 69H385C390.601 69 393.401 69 395.54 70.0899C397.422 71.0487 398.951 72.5785 399.91 74.4601C401 76.5992 401 79.3995 401 85V286C401 291.601 401 294.401 399.91 296.54C398.951 298.422 397.422 299.951 395.54 300.91C393.401 302 390.601 302 385 302H65C59.3995 302 56.5992 302 54.4601 300.91C52.5785 299.951 51.0487 298.422 50.0899 296.54C49 294.401 49 291.601 49 286V85Z" fill="white"/>
</clipPath>
</defs>
</svg>
