<svg width="20" height="20" viewBox="0 0 20 20" fill="none" xmlns="http://www.w3.org/2000/svg">
<mask id="mask0_27654_60304" style="mask-type:alpha" maskUnits="userSpaceOnUse" x="0" y="0" width="20" height="20">
<rect width="20" height="20" fill="#D9D9D9"/>
</mask>
<g mask="url(#mask0_27654_60304)">
<path d="M7.979 14.396C7.88167 14.396 7.78467 14.375 7.688 14.333C7.59067 14.2917 7.50034 14.2293 7.417 14.146L4 10.729C3.86134 10.5903 3.79534 10.4273 3.802 10.24C3.80867 10.052 3.87467 9.88868 4 9.75001C4.13867 9.61135 4.302 9.54201 4.49 9.54201C4.67734 9.54201 4.83334 9.61135 4.958 9.75001L8.021 12.812L15.062 5.77101C15.1873 5.63168 15.3403 5.56201 15.521 5.56201C15.7017 5.56201 15.8543 5.63168 15.979 5.77101C16.1183 5.90968 16.188 6.06601 16.188 6.24001C16.188 6.41335 16.1183 6.56935 15.979 6.70801L8.542 14.146C8.45867 14.2293 8.36834 14.2917 8.271 14.333C8.17367 14.375 8.07634 14.396 7.979 14.396Z" fill="#4563FF"/>
</g>
</svg>
