<svg width="375" height="407" viewBox="0 0 375 407" fill="none" xmlns="http://www.w3.org/2000/svg">
<g filter="url(#filter0_ddd_35387_65174)">
<path d="M180.647 128.268L156.591 115.57C147.031 110.523 142.251 107.999 140.529 104.522C139.028 101.488 138.877 97.9607 140.115 94.81C141.534 91.1986 146.083 88.2774 155.179 82.4352L177.932 67.8216C181.585 65.4754 183.412 64.3023 185.38 63.8277C187.121 63.408 188.934 63.3834 190.686 63.7555C192.667 64.1763 194.525 65.2993 198.24 67.5453L221.409 81.5505C230.357 86.9597 234.831 89.6642 236.358 93.1588C237.69 96.2093 237.695 99.6762 236.372 102.731C234.856 106.23 230.39 108.948 221.458 114.383L199.591 127.691C196.197 129.756 194.5 130.789 192.68 131.228C191.068 131.618 189.394 131.669 187.761 131.378C185.917 131.05 184.16 130.123 180.647 128.268L180.647 128.268Z" fill="url(#paint0_linear_35387_65174)" fill-opacity="0.4"/>
</g>
<defs>
<filter id="filter0_ddd_35387_65174" x="-30.0319" y="0.000106812" width="436.708" height="406.702" filterUnits="userSpaceOnUse" color-interpolation-filters="sRGB">
<feFlood flood-opacity="0" result="BackgroundImageFix"/>
<feColorMatrix in="SourceAlpha" type="matrix" values="0 0 0 0 0 0 0 0 0 0 0 0 0 0 0 0 0 0 127 0" result="hardAlpha"/>
<feOffset dy="21.1645"/>
<feGaussianBlur stdDeviation="26.4556"/>
<feColorMatrix type="matrix" values="0 0 0 0 0.682353 0 0 0 0 0.709804 0 0 0 0 0.819608 0 0 0 0.15 0"/>
<feBlend mode="normal" in2="BackgroundImageFix" result="effect1_dropShadow_35387_65174"/>
<feColorMatrix in="SourceAlpha" type="matrix" values="0 0 0 0 0 0 0 0 0 0 0 0 0 0 0 0 0 0 127 0" result="hardAlpha"/>
<feOffset dy="105.823"/>
<feGaussianBlur stdDeviation="84.6581"/>
<feColorMatrix type="matrix" values="0 0 0 0 0.682353 0 0 0 0 0.709804 0 0 0 0 0.819608 0 0 0 0.12 0"/>
<feBlend mode="normal" in2="effect1_dropShadow_35387_65174" result="effect2_dropShadow_35387_65174"/>
<feColorMatrix in="SourceAlpha" type="matrix" values="0 0 0 0 0 0 0 0 0 0 0 0 0 0 0 0 0 0 127 0" result="hardAlpha"/>
<feOffset dy="1"/>
<feGaussianBlur stdDeviation="1.5"/>
<feColorMatrix type="matrix" values="0 0 0 0 0.682353 0 0 0 0 0.709804 0 0 0 0 0.819608 0 0 0 0.08 0"/>
<feBlend mode="normal" in2="effect2_dropShadow_35387_65174" result="effect3_dropShadow_35387_65174"/>
<feBlend mode="normal" in="SourceGraphic" in2="effect3_dropShadow_35387_65174" result="shape"/>
</filter>
<linearGradient id="paint0_linear_35387_65174" x1="142.625" y1="72.1834" x2="243.647" y2="126.818" gradientUnits="userSpaceOnUse">
<stop offset="0.243349" stop-color="#4563FF"/>
<stop offset="0.913611" stop-color="#FF0029"/>
</linearGradient>
</defs>
</svg>
